M48
; DRILL file {KiCad 9.0.7} date 2026-02-10T23:43:10-0800
; FORMAT={-:-/ absolute / metric / decimal}
; #@! TF.CreationDate,2026-02-10T23:43:10-08:00
; #@! TF.GenerationSoftware,Kicad,Pcbnew,9.0.7
; #@! TF.FileFunction,NonPlated,1,2,NPTH
FMAT,2
METRIC
; #@! TA.AperFunction,NonPlated,NPTH,ComponentDrill
T1C0.500
%
G90
G05
T1
X110.353Y-50.824
X110.353Y-63.136
X110.353Y-27.801
X110.353Y-38.512
X110.353Y-40.112
X110.353Y-52.424
X110.353Y-64.736
X110.353Y-75.448
X110.353Y-77.048
X110.353Y-87.76
X110.353Y-89.361
X110.353Y-100.072
X111.187Y-50.824
X111.187Y-63.136
X111.187Y-27.801
X111.187Y-38.512
X111.187Y-40.112
X111.187Y-52.424
X111.187Y-64.736
X111.187Y-75.448
X111.187Y-77.048
X111.187Y-87.76
X111.187Y-89.361
X111.187Y-100.072
X112.02Y-50.824
X112.02Y-63.136
X112.02Y-27.801
X112.02Y-38.512
X112.02Y-40.112
X112.02Y-52.424
X112.02Y-64.736
X112.02Y-75.448
X112.02Y-77.048
X112.02Y-87.76
X112.02Y-89.361
X112.02Y-100.072
X112.853Y-50.824
X112.853Y-63.136
X112.853Y-27.801
X112.853Y-38.512
X112.853Y-40.112
X112.853Y-52.424
X112.853Y-64.736
X112.853Y-75.448
X112.853Y-77.048
X112.853Y-87.76
X112.853Y-89.361
X112.853Y-100.072
X113.687Y-50.824
X113.687Y-63.136
X113.687Y-27.801
X113.687Y-38.512
X113.687Y-40.112
X113.687Y-52.424
X113.687Y-64.736
X113.687Y-75.448
X113.687Y-77.048
X113.687Y-87.76
X113.687Y-89.361
X113.687Y-100.072
X122.513Y-50.824
X122.513Y-63.136
X122.513Y-27.801
X122.513Y-38.512
X122.513Y-40.112
X122.513Y-52.424
X122.513Y-64.736
X122.513Y-75.448
X122.513Y-77.048
X122.513Y-87.76
X122.513Y-89.361
X122.513Y-100.072
X123.347Y-50.824
X123.347Y-63.136
X123.347Y-27.801
X123.347Y-38.512
X123.347Y-40.112
X123.347Y-52.424
X123.347Y-64.736
X123.347Y-75.448
X123.347Y-77.048
X123.347Y-87.76
X123.347Y-89.361
X123.347Y-100.072
X124.18Y-50.824
X124.18Y-63.136
X124.18Y-27.801
X124.18Y-38.512
X124.18Y-40.112
X124.18Y-52.424
X124.18Y-64.736
X124.18Y-75.448
X124.18Y-77.048
X124.18Y-87.76
X124.18Y-89.361
X124.18Y-100.072
X125.013Y-50.824
X125.013Y-63.136
X125.013Y-27.801
X125.013Y-38.512
X125.013Y-40.112
X125.013Y-52.424
X125.013Y-64.736
X125.013Y-75.448
X125.013Y-77.048
X125.013Y-87.76
X125.013Y-89.361
X125.013Y-100.072
X125.847Y-50.824
X125.847Y-63.136
X125.847Y-27.801
X125.847Y-38.512
X125.847Y-40.112
X125.847Y-52.424
X125.847Y-64.736
X125.847Y-75.448
X125.847Y-77.048
X125.847Y-87.76
X125.847Y-89.361
X125.847Y-100.072
X134.673Y-50.824
X134.673Y-63.136
X134.673Y-27.801
X134.673Y-38.512
X134.673Y-40.112
X134.673Y-52.424
X134.673Y-64.736
X134.673Y-75.448
X134.673Y-77.048
X134.673Y-87.76
X134.673Y-89.361
X134.673Y-100.072
X135.507Y-50.824
X135.507Y-63.136
X135.507Y-27.801
X135.507Y-38.512
X135.507Y-40.112
X135.507Y-52.424
X135.507Y-64.736
X135.507Y-75.448
X135.507Y-77.048
X135.507Y-87.76
X135.507Y-89.361
X135.507Y-100.072
X136.34Y-50.824
X136.34Y-63.136
X136.34Y-27.801
X136.34Y-38.512
X136.34Y-40.112
X136.34Y-52.424
X136.34Y-64.736
X136.34Y-75.448
X136.34Y-77.048
X136.34Y-87.76
X136.34Y-89.361
X136.34Y-100.072
X137.173Y-50.824
X137.173Y-63.136
X137.173Y-27.801
X137.173Y-38.512
X137.173Y-40.112
X137.173Y-52.424
X137.173Y-64.736
X137.173Y-75.448
X137.173Y-77.048
X137.173Y-87.76
X137.173Y-89.361
X137.173Y-100.072
X138.007Y-50.824
X138.007Y-63.136
X138.007Y-27.801
X138.007Y-38.512
X138.007Y-40.112
X138.007Y-52.424
X138.007Y-64.736
X138.007Y-75.448
X138.007Y-77.048
X138.007Y-87.76
X138.007Y-89.361
X138.007Y-100.072
X146.833Y-50.824
X146.833Y-63.136
X146.833Y-27.801
X146.833Y-38.512
X146.833Y-40.112
X146.833Y-52.424
X146.833Y-64.736
X146.833Y-75.448
X146.833Y-77.048
X146.833Y-87.76
X146.833Y-89.361
X146.833Y-100.072
X147.667Y-50.824
X147.667Y-63.136
X147.667Y-27.801
X147.667Y-38.512
X147.667Y-40.112
X147.667Y-52.424
X147.667Y-64.736
X147.667Y-75.448
X147.667Y-77.048
X147.667Y-87.76
X147.667Y-89.361
X147.667Y-100.072
X148.5Y-50.824
X148.5Y-63.136
X148.5Y-27.801
X148.5Y-38.512
X148.5Y-40.112
X148.5Y-52.424
X148.5Y-64.736
X148.5Y-75.448
X148.5Y-77.048
X148.5Y-87.76
X148.5Y-89.361
X148.5Y-100.072
X149.333Y-50.824
X149.333Y-63.136
X149.333Y-27.801
X149.333Y-38.512
X149.333Y-40.112
X149.333Y-52.424
X149.333Y-64.736
X149.333Y-75.448
X149.333Y-77.048
X149.333Y-87.76
X149.333Y-89.361
X149.333Y-100.072
X150.167Y-50.824
X150.167Y-63.136
X150.167Y-27.801
X150.167Y-38.512
X150.167Y-40.112
X150.167Y-52.424
X150.167Y-64.736
X150.167Y-75.448
X150.167Y-77.048
X150.167Y-87.76
X150.167Y-89.361
X150.167Y-100.072
X158.993Y-50.824
X158.993Y-63.136
X158.993Y-27.801
X158.993Y-38.512
X158.993Y-40.112
X158.993Y-52.424
X158.993Y-64.736
X158.993Y-75.448
X158.993Y-77.048
X158.993Y-87.76
X158.993Y-89.361
X158.993Y-100.072
X159.827Y-50.824
X159.827Y-63.136
X159.827Y-27.801
X159.827Y-38.512
X159.827Y-40.112
X159.827Y-52.424
X159.827Y-64.736
X159.827Y-75.448
X159.827Y-77.048
X159.827Y-87.76
X159.827Y-89.361
X159.827Y-100.072
X160.66Y-50.824
X160.66Y-63.136
X160.66Y-27.801
X160.66Y-38.512
X160.66Y-40.112
X160.66Y-52.424
X160.66Y-64.736
X160.66Y-75.448
X160.66Y-77.048
X160.66Y-87.76
X160.66Y-89.361
X160.66Y-100.072
X161.493Y-50.824
X161.493Y-63.136
X161.493Y-27.801
X161.493Y-38.512
X161.493Y-40.112
X161.493Y-52.424
X161.493Y-64.736
X161.493Y-75.448
X161.493Y-77.048
X161.493Y-87.76
X161.493Y-89.361
X161.493Y-100.072
X162.327Y-50.824
X162.327Y-63.136
X162.327Y-27.801
X162.327Y-38.512
X162.327Y-40.112
X162.327Y-52.424
X162.327Y-64.736
X162.327Y-75.448
X162.327Y-77.048
X162.327Y-87.76
X162.327Y-89.361
X162.327Y-100.072
X171.153Y-50.824
X171.153Y-63.136
X171.153Y-27.801
X171.153Y-38.512
X171.153Y-40.112
X171.153Y-52.424
X171.153Y-64.736
X171.153Y-75.448
X171.153Y-77.048
X171.153Y-87.76
X171.153Y-89.361
X171.153Y-100.072
X171.987Y-50.824
X171.987Y-63.136
X171.987Y-27.801
X171.987Y-38.512
X171.987Y-40.112
X171.987Y-52.424
X171.987Y-64.736
X171.987Y-75.448
X171.987Y-77.048
X171.987Y-87.76
X171.987Y-89.361
X171.987Y-100.072
X172.82Y-50.824
X172.82Y-63.136
X172.82Y-27.801
X172.82Y-38.512
X172.82Y-40.112
X172.82Y-52.424
X172.82Y-64.736
X172.82Y-75.448
X172.82Y-77.048
X172.82Y-87.76
X172.82Y-89.361
X172.82Y-100.072
X173.653Y-50.824
X173.653Y-63.136
X173.653Y-27.801
X173.653Y-38.512
X173.653Y-40.112
X173.653Y-52.424
X173.653Y-64.736
X173.653Y-75.448
X173.653Y-77.048
X173.653Y-87.76
X173.653Y-89.361
X173.653Y-100.072
X174.487Y-50.824
X174.487Y-63.136
X174.487Y-27.801
X174.487Y-38.512
X174.487Y-40.112
X174.487Y-52.424
X174.487Y-64.736
X174.487Y-75.448
X174.487Y-77.048
X174.487Y-87.76
X174.487Y-89.361
X174.487Y-100.072
X183.313Y-27.801
X183.313Y-38.512
X183.313Y-40.112
X183.313Y-50.824
X183.313Y-52.424
X183.313Y-63.136
X183.313Y-64.736
X183.313Y-75.448
X183.313Y-77.048
X183.313Y-87.76
X183.313Y-89.361
X183.313Y-100.072
X184.147Y-27.801
X184.147Y-38.512
X184.147Y-40.112
X184.147Y-50.824
X184.147Y-52.424
X184.147Y-63.136
X184.147Y-64.736
X184.147Y-75.448
X184.147Y-77.048
X184.147Y-87.76
X184.147Y-89.361
X184.147Y-100.072
X184.98Y-27.801
X184.98Y-38.512
X184.98Y-40.112
X184.98Y-50.824
X184.98Y-52.424
X184.98Y-63.136
X184.98Y-64.736
X184.98Y-75.448
X184.98Y-77.048
X184.98Y-87.76
X184.98Y-89.361
X184.98Y-100.072
X185.813Y-27.801
X185.813Y-38.512
X185.813Y-40.112
X185.813Y-50.824
X185.813Y-52.424
X185.813Y-63.136
X185.813Y-64.736
X185.813Y-75.448
X185.813Y-77.048
X185.813Y-87.76
X185.813Y-89.361
X185.813Y-100.072
X186.647Y-27.801
X186.647Y-38.512
X186.647Y-40.112
X186.647Y-50.824
X186.647Y-52.424
X186.647Y-63.136
X186.647Y-64.736
X186.647Y-75.448
X186.647Y-77.048
X186.647Y-87.76
X186.647Y-89.361
X186.647Y-100.072
M30
