M48
; DRILL file {KiCad 9.0.7} date 2026-02-10T23:43:10-0800
; FORMAT={-:-/ absolute / metric / decimal}
; #@! TF.CreationDate,2026-02-10T23:43:10-08:00
; #@! TF.GenerationSoftware,Kicad,Pcbnew,9.0.7
; #@! TF.FileFunction,Plated,1,2,PTH
FMAT,2
METRIC
; #@! TA.AperFunction,Plated,PTH,ComponentDrill
T1C1.000
%
G90
G05
T1
X108.21Y-29.29
X108.21Y-36.91
X108.21Y-41.602
X108.21Y-49.222
X108.21Y-53.914
X108.21Y-61.534
X108.21Y-66.227
X108.21Y-73.846
X108.21Y-78.538
X108.21Y-86.158
X108.21Y-90.85
X108.21Y-98.471
X110.75Y-29.29
X110.75Y-36.91
X110.75Y-41.602
X110.75Y-49.222
X110.75Y-53.914
X110.75Y-61.534
X110.75Y-66.227
X110.75Y-73.846
X110.75Y-78.538
X110.75Y-86.158
X110.75Y-90.85
X110.75Y-98.471
X113.29Y-29.29
X113.29Y-36.91
X113.29Y-41.602
X113.29Y-49.222
X113.29Y-53.914
X113.29Y-61.534
X113.29Y-66.227
X113.29Y-73.846
X113.29Y-78.538
X113.29Y-86.158
X113.29Y-90.85
X113.29Y-98.471
X115.83Y-29.29
X115.83Y-36.91
X115.83Y-41.602
X115.83Y-49.222
X115.83Y-53.914
X115.83Y-61.534
X115.83Y-66.227
X115.83Y-73.846
X115.83Y-78.538
X115.83Y-86.158
X115.83Y-90.85
X115.83Y-98.471
X120.37Y-29.29
X120.37Y-36.91
X120.37Y-41.602
X120.37Y-49.222
X120.37Y-53.914
X120.37Y-61.534
X120.37Y-66.227
X120.37Y-73.846
X120.37Y-78.538
X120.37Y-86.158
X120.37Y-90.85
X120.37Y-98.471
X122.91Y-29.29
X122.91Y-36.91
X122.91Y-41.602
X122.91Y-49.222
X122.91Y-53.914
X122.91Y-61.534
X122.91Y-66.227
X122.91Y-73.846
X122.91Y-78.538
X122.91Y-86.158
X122.91Y-90.85
X122.91Y-98.471
X125.45Y-29.29
X125.45Y-36.91
X125.45Y-41.602
X125.45Y-49.222
X125.45Y-53.914
X125.45Y-61.534
X125.45Y-66.227
X125.45Y-73.846
X125.45Y-78.538
X125.45Y-86.158
X125.45Y-90.85
X125.45Y-98.471
X127.99Y-29.29
X127.99Y-36.91
X127.99Y-41.602
X127.99Y-49.222
X127.99Y-53.914
X127.99Y-61.534
X127.99Y-66.227
X127.99Y-73.846
X127.99Y-78.538
X127.99Y-86.158
X127.99Y-90.85
X127.99Y-98.471
X132.53Y-29.29
X132.53Y-36.91
X132.53Y-41.602
X132.53Y-49.222
X132.53Y-53.914
X132.53Y-61.534
X132.53Y-66.227
X132.53Y-73.846
X132.53Y-78.538
X132.53Y-86.158
X132.53Y-90.85
X132.53Y-98.471
X135.07Y-29.29
X135.07Y-36.91
X135.07Y-41.602
X135.07Y-49.222
X135.07Y-53.914
X135.07Y-61.534
X135.07Y-66.227
X135.07Y-73.846
X135.07Y-78.538
X135.07Y-86.158
X135.07Y-90.85
X135.07Y-98.471
X137.61Y-29.29
X137.61Y-36.91
X137.61Y-41.602
X137.61Y-49.222
X137.61Y-53.914
X137.61Y-61.534
X137.61Y-66.227
X137.61Y-73.846
X137.61Y-78.538
X137.61Y-86.158
X137.61Y-90.85
X137.61Y-98.471
X140.15Y-29.29
X140.15Y-36.91
X140.15Y-41.602
X140.15Y-49.222
X140.15Y-53.914
X140.15Y-61.534
X140.15Y-66.227
X140.15Y-73.846
X140.15Y-78.538
X140.15Y-86.158
X140.15Y-90.85
X140.15Y-98.471
X144.69Y-29.29
X144.69Y-36.91
X144.69Y-41.602
X144.69Y-49.222
X144.69Y-53.914
X144.69Y-61.534
X144.69Y-66.227
X144.69Y-73.846
X144.69Y-78.538
X144.69Y-86.158
X144.69Y-90.85
X144.69Y-98.471
X147.23Y-29.29
X147.23Y-36.91
X147.23Y-41.602
X147.23Y-49.222
X147.23Y-53.914
X147.23Y-61.534
X147.23Y-66.227
X147.23Y-73.846
X147.23Y-78.538
X147.23Y-86.158
X147.23Y-90.85
X147.23Y-98.471
X149.77Y-29.29
X149.77Y-36.91
X149.77Y-41.602
X149.77Y-49.222
X149.77Y-53.914
X149.77Y-61.534
X149.77Y-66.227
X149.77Y-73.846
X149.77Y-78.538
X149.77Y-86.158
X149.77Y-90.85
X149.77Y-98.471
X152.31Y-29.29
X152.31Y-36.91
X152.31Y-41.602
X152.31Y-49.222
X152.31Y-53.914
X152.31Y-61.534
X152.31Y-66.227
X152.31Y-73.846
X152.31Y-78.538
X152.31Y-86.158
X152.31Y-90.85
X152.31Y-98.471
X156.85Y-29.29
X156.85Y-36.91
X156.85Y-41.602
X156.85Y-49.222
X156.85Y-53.914
X156.85Y-61.534
X156.85Y-66.227
X156.85Y-73.846
X156.85Y-78.538
X156.85Y-86.158
X156.85Y-90.85
X156.85Y-98.471
X159.39Y-29.29
X159.39Y-36.91
X159.39Y-41.602
X159.39Y-49.222
X159.39Y-53.914
X159.39Y-61.534
X159.39Y-66.227
X159.39Y-73.846
X159.39Y-78.538
X159.39Y-86.158
X159.39Y-90.85
X159.39Y-98.471
X161.93Y-29.29
X161.93Y-36.91
X161.93Y-41.602
X161.93Y-49.222
X161.93Y-53.914
X161.93Y-61.534
X161.93Y-66.227
X161.93Y-73.846
X161.93Y-78.538
X161.93Y-86.158
X161.93Y-90.85
X161.93Y-98.471
X164.47Y-29.29
X164.47Y-36.91
X164.47Y-41.602
X164.47Y-49.222
X164.47Y-53.914
X164.47Y-61.534
X164.47Y-66.227
X164.47Y-73.846
X164.47Y-78.538
X164.47Y-86.158
X164.47Y-90.85
X164.47Y-98.471
X169.01Y-29.29
X169.01Y-36.91
X169.01Y-41.602
X169.01Y-49.222
X169.01Y-53.914
X169.01Y-61.534
X169.01Y-66.227
X169.01Y-73.846
X169.01Y-78.538
X169.01Y-86.158
X169.01Y-90.85
X169.01Y-98.471
X171.55Y-29.29
X171.55Y-36.91
X171.55Y-41.602
X171.55Y-49.222
X171.55Y-53.914
X171.55Y-61.534
X171.55Y-66.227
X171.55Y-73.846
X171.55Y-78.538
X171.55Y-86.158
X171.55Y-90.85
X171.55Y-98.471
X174.09Y-29.29
X174.09Y-36.91
X174.09Y-41.602
X174.09Y-49.222
X174.09Y-53.914
X174.09Y-61.534
X174.09Y-66.227
X174.09Y-73.846
X174.09Y-78.538
X174.09Y-86.158
X174.09Y-90.85
X174.09Y-98.471
X176.63Y-29.29
X176.63Y-36.91
X176.63Y-41.602
X176.63Y-49.222
X176.63Y-53.914
X176.63Y-61.534
X176.63Y-66.227
X176.63Y-73.846
X176.63Y-78.538
X176.63Y-86.158
X176.63Y-90.85
X176.63Y-98.471
X181.17Y-29.29
X181.17Y-36.91
X181.17Y-41.602
X181.17Y-49.222
X181.17Y-53.914
X181.17Y-61.534
X181.17Y-66.227
X181.17Y-73.846
X181.17Y-78.538
X181.17Y-86.158
X181.17Y-90.85
X181.17Y-98.471
X183.71Y-29.29
X183.71Y-36.91
X183.71Y-41.602
X183.71Y-49.222
X183.71Y-53.914
X183.71Y-61.534
X183.71Y-66.227
X183.71Y-73.846
X183.71Y-78.538
X183.71Y-86.158
X183.71Y-90.85
X183.71Y-98.471
X186.25Y-29.29
X186.25Y-36.91
X186.25Y-41.602
X186.25Y-49.222
X186.25Y-53.914
X186.25Y-61.534
X186.25Y-66.227
X186.25Y-73.846
X186.25Y-78.538
X186.25Y-86.158
X186.25Y-90.85
X186.25Y-98.471
X188.79Y-29.29
X188.79Y-36.91
X188.79Y-41.602
X188.79Y-49.222
X188.79Y-53.914
X188.79Y-61.534
X188.79Y-66.227
X188.79Y-73.846
X188.79Y-78.538
X188.79Y-86.158
X188.79Y-90.85
X188.79Y-98.471
M30
