%TF.GenerationSoftware,KiCad,Pcbnew,9.0.7*%
%TF.CreationDate,2026-02-10T23:43:03-08:00*%
%TF.ProjectId,sot-23-8-panelized,736f742d-3233-42d3-982d-70616e656c69,rev?*%
%TF.SameCoordinates,Original*%
%TF.FileFunction,Copper,L2,Bot*%
%TF.FilePolarity,Positive*%
%FSLAX46Y46*%
G04 Gerber Fmt 4.6, Leading zero omitted, Abs format (unit mm)*
G04 Created by KiCad (PCBNEW 9.0.7) date 2026-02-10 23:43:03*
%MOMM*%
%LPD*%
G01*
G04 APERTURE LIST*
%TA.AperFunction,ComponentPad*%
%ADD10R,1.700000X1.700000*%
%TD*%
%TA.AperFunction,ComponentPad*%
%ADD11C,1.700000*%
%TD*%
G04 APERTURE END LIST*
D10*
%TO.P,J3,1,Pin_1*%
%TO.N,Board_12-Net-(J3-Pin_1)*%
X169010047Y-49222500D03*
D11*
%TO.P,J3,2,Pin_2*%
%TO.N,Board_12-Net-(J3-Pin_2)*%
X171550047Y-49222500D03*
%TO.P,J3,3,Pin_3*%
%TO.N,Board_12-Net-(J3-Pin_3)*%
X174090047Y-49222500D03*
%TO.P,J3,4,Pin_4*%
%TO.N,Board_12-Net-(J3-Pin_4)*%
X176630047Y-49222500D03*
%TD*%
D10*
%TO.P,J3,1,Pin_1*%
%TO.N,Board_37-Net-(J3-Pin_1)*%
X132530047Y-98470500D03*
D11*
%TO.P,J3,2,Pin_2*%
%TO.N,Board_37-Net-(J3-Pin_2)*%
X135070047Y-98470500D03*
%TO.P,J3,3,Pin_3*%
%TO.N,Board_37-Net-(J3-Pin_3)*%
X137610047Y-98470500D03*
%TO.P,J3,4,Pin_4*%
%TO.N,Board_37-Net-(J3-Pin_4)*%
X140150047Y-98470500D03*
%TD*%
D10*
%TO.P,J4,1,Pin_1*%
%TO.N,Board_5-Net-(J4-Pin_1)*%
X169010047Y-29290500D03*
D11*
%TO.P,J4,2,Pin_2*%
%TO.N,Board_5-Net-(J4-Pin_2)*%
X171550047Y-29290500D03*
%TO.P,J4,3,Pin_3*%
%TO.N,Board_5-Net-(J4-Pin_3)*%
X174090047Y-29290500D03*
%TO.P,J4,4,Pin_4*%
%TO.N,Board_5-Net-(J4-Pin_4)*%
X176630047Y-29290500D03*
%TD*%
D10*
%TO.P,J4,1,Pin_1*%
%TO.N,Board_33-Net-(J4-Pin_1)*%
X169010047Y-78538500D03*
D11*
%TO.P,J4,2,Pin_2*%
%TO.N,Board_33-Net-(J4-Pin_2)*%
X171550047Y-78538500D03*
%TO.P,J4,3,Pin_3*%
%TO.N,Board_33-Net-(J4-Pin_3)*%
X174090047Y-78538500D03*
%TO.P,J4,4,Pin_4*%
%TO.N,Board_33-Net-(J4-Pin_4)*%
X176630047Y-78538500D03*
%TD*%
D10*
%TO.P,J3,1,Pin_1*%
%TO.N,Board_13-Net-(J3-Pin_1)*%
X181170047Y-49222500D03*
D11*
%TO.P,J3,2,Pin_2*%
%TO.N,Board_13-Net-(J3-Pin_2)*%
X183710047Y-49222500D03*
%TO.P,J3,3,Pin_3*%
%TO.N,Board_13-Net-(J3-Pin_3)*%
X186250047Y-49222500D03*
%TO.P,J3,4,Pin_4*%
%TO.N,Board_13-Net-(J3-Pin_4)*%
X188790047Y-49222500D03*
%TD*%
D10*
%TO.P,J4,1,Pin_1*%
%TO.N,Board_6-Net-(J4-Pin_1)*%
X181170047Y-29290500D03*
D11*
%TO.P,J4,2,Pin_2*%
%TO.N,Board_6-Net-(J4-Pin_2)*%
X183710047Y-29290500D03*
%TO.P,J4,3,Pin_3*%
%TO.N,Board_6-Net-(J4-Pin_3)*%
X186250047Y-29290500D03*
%TO.P,J4,4,Pin_4*%
%TO.N,Board_6-Net-(J4-Pin_4)*%
X188790047Y-29290500D03*
%TD*%
D10*
%TO.P,J3,1,Pin_1*%
%TO.N,Board_3-Net-(J3-Pin_1)*%
X144690047Y-36910500D03*
D11*
%TO.P,J3,2,Pin_2*%
%TO.N,Board_3-Net-(J3-Pin_2)*%
X147230047Y-36910500D03*
%TO.P,J3,3,Pin_3*%
%TO.N,Board_3-Net-(J3-Pin_3)*%
X149770047Y-36910500D03*
%TO.P,J3,4,Pin_4*%
%TO.N,Board_3-Net-(J3-Pin_4)*%
X152310047Y-36910500D03*
%TD*%
D10*
%TO.P,J4,1,Pin_1*%
%TO.N,Board_31-Net-(J4-Pin_1)*%
X144690047Y-78538500D03*
D11*
%TO.P,J4,2,Pin_2*%
%TO.N,Board_31-Net-(J4-Pin_2)*%
X147230047Y-78538500D03*
%TO.P,J4,3,Pin_3*%
%TO.N,Board_31-Net-(J4-Pin_3)*%
X149770047Y-78538500D03*
%TO.P,J4,4,Pin_4*%
%TO.N,Board_31-Net-(J4-Pin_4)*%
X152310047Y-78538500D03*
%TD*%
D10*
%TO.P,J4,1,Pin_1*%
%TO.N,Board_1-Net-(J4-Pin_1)*%
X120370047Y-29290500D03*
D11*
%TO.P,J4,2,Pin_2*%
%TO.N,Board_1-Net-(J4-Pin_2)*%
X122910047Y-29290500D03*
%TO.P,J4,3,Pin_3*%
%TO.N,Board_1-Net-(J4-Pin_3)*%
X125450047Y-29290500D03*
%TO.P,J4,4,Pin_4*%
%TO.N,Board_1-Net-(J4-Pin_4)*%
X127990047Y-29290500D03*
%TD*%
D10*
%TO.P,J3,1,Pin_1*%
%TO.N,Board_19-Net-(J3-Pin_1)*%
X169010047Y-61534500D03*
D11*
%TO.P,J3,2,Pin_2*%
%TO.N,Board_19-Net-(J3-Pin_2)*%
X171550047Y-61534500D03*
%TO.P,J3,3,Pin_3*%
%TO.N,Board_19-Net-(J3-Pin_3)*%
X174090047Y-61534500D03*
%TO.P,J3,4,Pin_4*%
%TO.N,Board_19-Net-(J3-Pin_4)*%
X176630047Y-61534500D03*
%TD*%
D10*
%TO.P,J4,1,Pin_1*%
%TO.N,Board_29-Net-(J4-Pin_1)*%
X120370047Y-78538500D03*
D11*
%TO.P,J4,2,Pin_2*%
%TO.N,Board_29-Net-(J4-Pin_2)*%
X122910047Y-78538500D03*
%TO.P,J4,3,Pin_3*%
%TO.N,Board_29-Net-(J4-Pin_3)*%
X125450047Y-78538500D03*
%TO.P,J4,4,Pin_4*%
%TO.N,Board_29-Net-(J4-Pin_4)*%
X127990047Y-78538500D03*
%TD*%
D10*
%TO.P,J4,1,Pin_1*%
%TO.N,Board_12-Net-(J4-Pin_1)*%
X169010047Y-41602500D03*
D11*
%TO.P,J4,2,Pin_2*%
%TO.N,Board_12-Net-(J4-Pin_2)*%
X171550047Y-41602500D03*
%TO.P,J4,3,Pin_3*%
%TO.N,Board_12-Net-(J4-Pin_3)*%
X174090047Y-41602500D03*
%TO.P,J4,4,Pin_4*%
%TO.N,Board_12-Net-(J4-Pin_4)*%
X176630047Y-41602500D03*
%TD*%
D10*
%TO.P,J4,1,Pin_1*%
%TO.N,Board_19-Net-(J4-Pin_1)*%
X169010047Y-53914500D03*
D11*
%TO.P,J4,2,Pin_2*%
%TO.N,Board_19-Net-(J4-Pin_2)*%
X171550047Y-53914500D03*
%TO.P,J4,3,Pin_3*%
%TO.N,Board_19-Net-(J4-Pin_3)*%
X174090047Y-53914500D03*
%TO.P,J4,4,Pin_4*%
%TO.N,Board_19-Net-(J4-Pin_4)*%
X176630047Y-53914500D03*
%TD*%
D10*
%TO.P,J4,1,Pin_1*%
%TO.N,Board_10-Net-(J4-Pin_1)*%
X144690047Y-41602500D03*
D11*
%TO.P,J4,2,Pin_2*%
%TO.N,Board_10-Net-(J4-Pin_2)*%
X147230047Y-41602500D03*
%TO.P,J4,3,Pin_3*%
%TO.N,Board_10-Net-(J4-Pin_3)*%
X149770047Y-41602500D03*
%TO.P,J4,4,Pin_4*%
%TO.N,Board_10-Net-(J4-Pin_4)*%
X152310047Y-41602500D03*
%TD*%
D10*
%TO.P,J4,1,Pin_1*%
%TO.N,Board_41-Net-(J4-Pin_1)*%
X181170047Y-90850500D03*
D11*
%TO.P,J4,2,Pin_2*%
%TO.N,Board_41-Net-(J4-Pin_2)*%
X183710047Y-90850500D03*
%TO.P,J4,3,Pin_3*%
%TO.N,Board_41-Net-(J4-Pin_3)*%
X186250047Y-90850500D03*
%TO.P,J4,4,Pin_4*%
%TO.N,Board_41-Net-(J4-Pin_4)*%
X188790047Y-90850500D03*
%TD*%
D10*
%TO.P,J4,1,Pin_1*%
%TO.N,Board_30-Net-(J4-Pin_1)*%
X132530047Y-78538500D03*
D11*
%TO.P,J4,2,Pin_2*%
%TO.N,Board_30-Net-(J4-Pin_2)*%
X135070047Y-78538500D03*
%TO.P,J4,3,Pin_3*%
%TO.N,Board_30-Net-(J4-Pin_3)*%
X137610047Y-78538500D03*
%TO.P,J4,4,Pin_4*%
%TO.N,Board_30-Net-(J4-Pin_4)*%
X140150047Y-78538500D03*
%TD*%
D10*
%TO.P,J3,1,Pin_1*%
%TO.N,Board_4-Net-(J3-Pin_1)*%
X156850047Y-36910500D03*
D11*
%TO.P,J3,2,Pin_2*%
%TO.N,Board_4-Net-(J3-Pin_2)*%
X159390047Y-36910500D03*
%TO.P,J3,3,Pin_3*%
%TO.N,Board_4-Net-(J3-Pin_3)*%
X161930047Y-36910500D03*
%TO.P,J3,4,Pin_4*%
%TO.N,Board_4-Net-(J3-Pin_4)*%
X164470047Y-36910500D03*
%TD*%
D10*
%TO.P,J3,1,Pin_1*%
%TO.N,Board_23-Net-(J3-Pin_1)*%
X132530047Y-73846500D03*
D11*
%TO.P,J3,2,Pin_2*%
%TO.N,Board_23-Net-(J3-Pin_2)*%
X135070047Y-73846500D03*
%TO.P,J3,3,Pin_3*%
%TO.N,Board_23-Net-(J3-Pin_3)*%
X137610047Y-73846500D03*
%TO.P,J3,4,Pin_4*%
%TO.N,Board_23-Net-(J3-Pin_4)*%
X140150047Y-73846500D03*
%TD*%
D10*
%TO.P,J3,1,Pin_1*%
%TO.N,Board_9-Net-(J3-Pin_1)*%
X132530047Y-49222500D03*
D11*
%TO.P,J3,2,Pin_2*%
%TO.N,Board_9-Net-(J3-Pin_2)*%
X135070047Y-49222500D03*
%TO.P,J3,3,Pin_3*%
%TO.N,Board_9-Net-(J3-Pin_3)*%
X137610047Y-49222500D03*
%TO.P,J3,4,Pin_4*%
%TO.N,Board_9-Net-(J3-Pin_4)*%
X140150047Y-49222500D03*
%TD*%
D10*
%TO.P,J4,1,Pin_1*%
%TO.N,Board_8-Net-(J4-Pin_1)*%
X120370047Y-41602500D03*
D11*
%TO.P,J4,2,Pin_2*%
%TO.N,Board_8-Net-(J4-Pin_2)*%
X122910047Y-41602500D03*
%TO.P,J4,3,Pin_3*%
%TO.N,Board_8-Net-(J4-Pin_3)*%
X125450047Y-41602500D03*
%TO.P,J4,4,Pin_4*%
%TO.N,Board_8-Net-(J4-Pin_4)*%
X127990047Y-41602500D03*
%TD*%
D10*
%TO.P,J3,1,Pin_1*%
%TO.N,Board_16-Net-(J3-Pin_1)*%
X132530047Y-61534500D03*
D11*
%TO.P,J3,2,Pin_2*%
%TO.N,Board_16-Net-(J3-Pin_2)*%
X135070047Y-61534500D03*
%TO.P,J3,3,Pin_3*%
%TO.N,Board_16-Net-(J3-Pin_3)*%
X137610047Y-61534500D03*
%TO.P,J3,4,Pin_4*%
%TO.N,Board_16-Net-(J3-Pin_4)*%
X140150047Y-61534500D03*
%TD*%
D10*
%TO.P,J4,1,Pin_1*%
%TO.N,Board_15-Net-(J4-Pin_1)*%
X120370047Y-53914500D03*
D11*
%TO.P,J4,2,Pin_2*%
%TO.N,Board_15-Net-(J4-Pin_2)*%
X122910047Y-53914500D03*
%TO.P,J4,3,Pin_3*%
%TO.N,Board_15-Net-(J4-Pin_3)*%
X125450047Y-53914500D03*
%TO.P,J4,4,Pin_4*%
%TO.N,Board_15-Net-(J4-Pin_4)*%
X127990047Y-53914500D03*
%TD*%
D10*
%TO.P,J4,1,Pin_1*%
%TO.N,Board_22-Net-(J4-Pin_1)*%
X120370047Y-66226500D03*
D11*
%TO.P,J4,2,Pin_2*%
%TO.N,Board_22-Net-(J4-Pin_2)*%
X122910047Y-66226500D03*
%TO.P,J4,3,Pin_3*%
%TO.N,Board_22-Net-(J4-Pin_3)*%
X125450047Y-66226500D03*
%TO.P,J4,4,Pin_4*%
%TO.N,Board_22-Net-(J4-Pin_4)*%
X127990047Y-66226500D03*
%TD*%
D10*
%TO.P,J3,1,Pin_1*%
%TO.N,Board_38-Net-(J3-Pin_1)*%
X144690047Y-98470500D03*
D11*
%TO.P,J3,2,Pin_2*%
%TO.N,Board_38-Net-(J3-Pin_2)*%
X147230047Y-98470500D03*
%TO.P,J3,3,Pin_3*%
%TO.N,Board_38-Net-(J3-Pin_3)*%
X149770047Y-98470500D03*
%TO.P,J3,4,Pin_4*%
%TO.N,Board_38-Net-(J3-Pin_4)*%
X152310047Y-98470500D03*
%TD*%
D10*
%TO.P,J4,1,Pin_1*%
%TO.N,Board_25-Net-(J4-Pin_1)*%
X156850047Y-66226500D03*
D11*
%TO.P,J4,2,Pin_2*%
%TO.N,Board_25-Net-(J4-Pin_2)*%
X159390047Y-66226500D03*
%TO.P,J4,3,Pin_3*%
%TO.N,Board_25-Net-(J4-Pin_3)*%
X161930047Y-66226500D03*
%TO.P,J4,4,Pin_4*%
%TO.N,Board_25-Net-(J4-Pin_4)*%
X164470047Y-66226500D03*
%TD*%
D10*
%TO.P,J4,1,Pin_1*%
%TO.N,Board_18-Net-(J4-Pin_1)*%
X156850047Y-53914500D03*
D11*
%TO.P,J4,2,Pin_2*%
%TO.N,Board_18-Net-(J4-Pin_2)*%
X159390047Y-53914500D03*
%TO.P,J4,3,Pin_3*%
%TO.N,Board_18-Net-(J4-Pin_3)*%
X161930047Y-53914500D03*
%TO.P,J4,4,Pin_4*%
%TO.N,Board_18-Net-(J4-Pin_4)*%
X164470047Y-53914500D03*
%TD*%
D10*
%TO.P,J4,1,Pin_1*%
%TO.N,Board_26-Net-(J4-Pin_1)*%
X169010047Y-66226500D03*
D11*
%TO.P,J4,2,Pin_2*%
%TO.N,Board_26-Net-(J4-Pin_2)*%
X171550047Y-66226500D03*
%TO.P,J4,3,Pin_3*%
%TO.N,Board_26-Net-(J4-Pin_3)*%
X174090047Y-66226500D03*
%TO.P,J4,4,Pin_4*%
%TO.N,Board_26-Net-(J4-Pin_4)*%
X176630047Y-66226500D03*
%TD*%
D10*
%TO.P,J3,1,Pin_1*%
%TO.N,Board_6-Net-(J3-Pin_1)*%
X181170047Y-36910500D03*
D11*
%TO.P,J3,2,Pin_2*%
%TO.N,Board_6-Net-(J3-Pin_2)*%
X183710047Y-36910500D03*
%TO.P,J3,3,Pin_3*%
%TO.N,Board_6-Net-(J3-Pin_3)*%
X186250047Y-36910500D03*
%TO.P,J3,4,Pin_4*%
%TO.N,Board_6-Net-(J3-Pin_4)*%
X188790047Y-36910500D03*
%TD*%
D10*
%TO.P,J3,1,Pin_1*%
%TO.N,Board_29-Net-(J3-Pin_1)*%
X120370047Y-86158500D03*
D11*
%TO.P,J3,2,Pin_2*%
%TO.N,Board_29-Net-(J3-Pin_2)*%
X122910047Y-86158500D03*
%TO.P,J3,3,Pin_3*%
%TO.N,Board_29-Net-(J3-Pin_3)*%
X125450047Y-86158500D03*
%TO.P,J3,4,Pin_4*%
%TO.N,Board_29-Net-(J3-Pin_4)*%
X127990047Y-86158500D03*
%TD*%
D10*
%TO.P,J4,1,Pin_1*%
%TO.N,Board_32-Net-(J4-Pin_1)*%
X156850047Y-78538500D03*
D11*
%TO.P,J4,2,Pin_2*%
%TO.N,Board_32-Net-(J4-Pin_2)*%
X159390047Y-78538500D03*
%TO.P,J4,3,Pin_3*%
%TO.N,Board_32-Net-(J4-Pin_3)*%
X161930047Y-78538500D03*
%TO.P,J4,4,Pin_4*%
%TO.N,Board_32-Net-(J4-Pin_4)*%
X164470047Y-78538500D03*
%TD*%
D10*
%TO.P,J3,1,Pin_1*%
%TO.N,Board_41-Net-(J3-Pin_1)*%
X181170047Y-98470500D03*
D11*
%TO.P,J3,2,Pin_2*%
%TO.N,Board_41-Net-(J3-Pin_2)*%
X183710047Y-98470500D03*
%TO.P,J3,3,Pin_3*%
%TO.N,Board_41-Net-(J3-Pin_3)*%
X186250047Y-98470500D03*
%TO.P,J3,4,Pin_4*%
%TO.N,Board_41-Net-(J3-Pin_4)*%
X188790047Y-98470500D03*
%TD*%
D10*
%TO.P,J4,1,Pin_1*%
%TO.N,Board_38-Net-(J4-Pin_1)*%
X144690047Y-90850500D03*
D11*
%TO.P,J4,2,Pin_2*%
%TO.N,Board_38-Net-(J4-Pin_2)*%
X147230047Y-90850500D03*
%TO.P,J4,3,Pin_3*%
%TO.N,Board_38-Net-(J4-Pin_3)*%
X149770047Y-90850500D03*
%TO.P,J4,4,Pin_4*%
%TO.N,Board_38-Net-(J4-Pin_4)*%
X152310047Y-90850500D03*
%TD*%
D10*
%TO.P,J3,1,Pin_1*%
%TO.N,Board_28-Net-(J3-Pin_1)*%
X108210047Y-86158500D03*
D11*
%TO.P,J3,2,Pin_2*%
%TO.N,Board_28-Net-(J3-Pin_2)*%
X110750047Y-86158500D03*
%TO.P,J3,3,Pin_3*%
%TO.N,Board_28-Net-(J3-Pin_3)*%
X113290047Y-86158500D03*
%TO.P,J3,4,Pin_4*%
%TO.N,Board_28-Net-(J3-Pin_4)*%
X115830047Y-86158500D03*
%TD*%
D10*
%TO.P,J4,1,Pin_1*%
%TO.N,Board_20-Net-(J4-Pin_1)*%
X181170047Y-53914500D03*
D11*
%TO.P,J4,2,Pin_2*%
%TO.N,Board_20-Net-(J4-Pin_2)*%
X183710047Y-53914500D03*
%TO.P,J4,3,Pin_3*%
%TO.N,Board_20-Net-(J4-Pin_3)*%
X186250047Y-53914500D03*
%TO.P,J4,4,Pin_4*%
%TO.N,Board_20-Net-(J4-Pin_4)*%
X188790047Y-53914500D03*
%TD*%
D10*
%TO.P,J3,1,Pin_1*%
%TO.N,Board_1-Net-(J3-Pin_1)*%
X120370047Y-36910500D03*
D11*
%TO.P,J3,2,Pin_2*%
%TO.N,Board_1-Net-(J3-Pin_2)*%
X122910047Y-36910500D03*
%TO.P,J3,3,Pin_3*%
%TO.N,Board_1-Net-(J3-Pin_3)*%
X125450047Y-36910500D03*
%TO.P,J3,4,Pin_4*%
%TO.N,Board_1-Net-(J3-Pin_4)*%
X127990047Y-36910500D03*
%TD*%
D10*
%TO.P,J4,1,Pin_1*%
%TO.N,Board_27-Net-(J4-Pin_1)*%
X181170047Y-66226500D03*
D11*
%TO.P,J4,2,Pin_2*%
%TO.N,Board_27-Net-(J4-Pin_2)*%
X183710047Y-66226500D03*
%TO.P,J4,3,Pin_3*%
%TO.N,Board_27-Net-(J4-Pin_3)*%
X186250047Y-66226500D03*
%TO.P,J4,4,Pin_4*%
%TO.N,Board_27-Net-(J4-Pin_4)*%
X188790047Y-66226500D03*
%TD*%
D10*
%TO.P,J4,1,Pin_1*%
%TO.N,Board_24-Net-(J4-Pin_1)*%
X144690047Y-66226500D03*
D11*
%TO.P,J4,2,Pin_2*%
%TO.N,Board_24-Net-(J4-Pin_2)*%
X147230047Y-66226500D03*
%TO.P,J4,3,Pin_3*%
%TO.N,Board_24-Net-(J4-Pin_3)*%
X149770047Y-66226500D03*
%TO.P,J4,4,Pin_4*%
%TO.N,Board_24-Net-(J4-Pin_4)*%
X152310047Y-66226500D03*
%TD*%
D10*
%TO.P,J3,1,Pin_1*%
%TO.N,Board_17-Net-(J3-Pin_1)*%
X144690047Y-61534500D03*
D11*
%TO.P,J3,2,Pin_2*%
%TO.N,Board_17-Net-(J3-Pin_2)*%
X147230047Y-61534500D03*
%TO.P,J3,3,Pin_3*%
%TO.N,Board_17-Net-(J3-Pin_3)*%
X149770047Y-61534500D03*
%TO.P,J3,4,Pin_4*%
%TO.N,Board_17-Net-(J3-Pin_4)*%
X152310047Y-61534500D03*
%TD*%
D10*
%TO.P,J4,1,Pin_1*%
%TO.N,Board_17-Net-(J4-Pin_1)*%
X144690047Y-53914500D03*
D11*
%TO.P,J4,2,Pin_2*%
%TO.N,Board_17-Net-(J4-Pin_2)*%
X147230047Y-53914500D03*
%TO.P,J4,3,Pin_3*%
%TO.N,Board_17-Net-(J4-Pin_3)*%
X149770047Y-53914500D03*
%TO.P,J4,4,Pin_4*%
%TO.N,Board_17-Net-(J4-Pin_4)*%
X152310047Y-53914500D03*
%TD*%
D10*
%TO.P,J4,1,Pin_1*%
%TO.N,Board_4-Net-(J4-Pin_1)*%
X156850047Y-29290500D03*
D11*
%TO.P,J4,2,Pin_2*%
%TO.N,Board_4-Net-(J4-Pin_2)*%
X159390047Y-29290500D03*
%TO.P,J4,3,Pin_3*%
%TO.N,Board_4-Net-(J4-Pin_3)*%
X161930047Y-29290500D03*
%TO.P,J4,4,Pin_4*%
%TO.N,Board_4-Net-(J4-Pin_4)*%
X164470047Y-29290500D03*
%TD*%
D10*
%TO.P,J3,1,Pin_1*%
%TO.N,Board_0-Net-(J3-Pin_1)*%
X108210047Y-36910500D03*
D11*
%TO.P,J3,2,Pin_2*%
%TO.N,Board_0-Net-(J3-Pin_2)*%
X110750047Y-36910500D03*
%TO.P,J3,3,Pin_3*%
%TO.N,Board_0-Net-(J3-Pin_3)*%
X113290047Y-36910500D03*
%TO.P,J3,4,Pin_4*%
%TO.N,Board_0-Net-(J3-Pin_4)*%
X115830047Y-36910500D03*
%TD*%
D10*
%TO.P,J4,1,Pin_1*%
%TO.N,Board_11-Net-(J4-Pin_1)*%
X156850047Y-41602500D03*
D11*
%TO.P,J4,2,Pin_2*%
%TO.N,Board_11-Net-(J4-Pin_2)*%
X159390047Y-41602500D03*
%TO.P,J4,3,Pin_3*%
%TO.N,Board_11-Net-(J4-Pin_3)*%
X161930047Y-41602500D03*
%TO.P,J4,4,Pin_4*%
%TO.N,Board_11-Net-(J4-Pin_4)*%
X164470047Y-41602500D03*
%TD*%
D10*
%TO.P,J4,1,Pin_1*%
%TO.N,Board_0-Net-(J4-Pin_1)*%
X108210047Y-29290500D03*
D11*
%TO.P,J4,2,Pin_2*%
%TO.N,Board_0-Net-(J4-Pin_2)*%
X110750047Y-29290500D03*
%TO.P,J4,3,Pin_3*%
%TO.N,Board_0-Net-(J4-Pin_3)*%
X113290047Y-29290500D03*
%TO.P,J4,4,Pin_4*%
%TO.N,Board_0-Net-(J4-Pin_4)*%
X115830047Y-29290500D03*
%TD*%
D10*
%TO.P,J4,1,Pin_1*%
%TO.N,Board_35-Net-(J4-Pin_1)*%
X108210047Y-90850500D03*
D11*
%TO.P,J4,2,Pin_2*%
%TO.N,Board_35-Net-(J4-Pin_2)*%
X110750047Y-90850500D03*
%TO.P,J4,3,Pin_3*%
%TO.N,Board_35-Net-(J4-Pin_3)*%
X113290047Y-90850500D03*
%TO.P,J4,4,Pin_4*%
%TO.N,Board_35-Net-(J4-Pin_4)*%
X115830047Y-90850500D03*
%TD*%
D10*
%TO.P,J3,1,Pin_1*%
%TO.N,Board_36-Net-(J3-Pin_1)*%
X120370047Y-98470500D03*
D11*
%TO.P,J3,2,Pin_2*%
%TO.N,Board_36-Net-(J3-Pin_2)*%
X122910047Y-98470500D03*
%TO.P,J3,3,Pin_3*%
%TO.N,Board_36-Net-(J3-Pin_3)*%
X125450047Y-98470500D03*
%TO.P,J3,4,Pin_4*%
%TO.N,Board_36-Net-(J3-Pin_4)*%
X127990047Y-98470500D03*
%TD*%
D10*
%TO.P,J3,1,Pin_1*%
%TO.N,Board_10-Net-(J3-Pin_1)*%
X144690047Y-49222500D03*
D11*
%TO.P,J3,2,Pin_2*%
%TO.N,Board_10-Net-(J3-Pin_2)*%
X147230047Y-49222500D03*
%TO.P,J3,3,Pin_3*%
%TO.N,Board_10-Net-(J3-Pin_3)*%
X149770047Y-49222500D03*
%TO.P,J3,4,Pin_4*%
%TO.N,Board_10-Net-(J3-Pin_4)*%
X152310047Y-49222500D03*
%TD*%
D10*
%TO.P,J4,1,Pin_1*%
%TO.N,Board_40-Net-(J4-Pin_1)*%
X169010047Y-90850500D03*
D11*
%TO.P,J4,2,Pin_2*%
%TO.N,Board_40-Net-(J4-Pin_2)*%
X171550047Y-90850500D03*
%TO.P,J4,3,Pin_3*%
%TO.N,Board_40-Net-(J4-Pin_3)*%
X174090047Y-90850500D03*
%TO.P,J4,4,Pin_4*%
%TO.N,Board_40-Net-(J4-Pin_4)*%
X176630047Y-90850500D03*
%TD*%
D10*
%TO.P,J4,1,Pin_1*%
%TO.N,Board_3-Net-(J4-Pin_1)*%
X144690047Y-29290500D03*
D11*
%TO.P,J4,2,Pin_2*%
%TO.N,Board_3-Net-(J4-Pin_2)*%
X147230047Y-29290500D03*
%TO.P,J4,3,Pin_3*%
%TO.N,Board_3-Net-(J4-Pin_3)*%
X149770047Y-29290500D03*
%TO.P,J4,4,Pin_4*%
%TO.N,Board_3-Net-(J4-Pin_4)*%
X152310047Y-29290500D03*
%TD*%
D10*
%TO.P,J3,1,Pin_1*%
%TO.N,Board_24-Net-(J3-Pin_1)*%
X144690047Y-73846500D03*
D11*
%TO.P,J3,2,Pin_2*%
%TO.N,Board_24-Net-(J3-Pin_2)*%
X147230047Y-73846500D03*
%TO.P,J3,3,Pin_3*%
%TO.N,Board_24-Net-(J3-Pin_3)*%
X149770047Y-73846500D03*
%TO.P,J3,4,Pin_4*%
%TO.N,Board_24-Net-(J3-Pin_4)*%
X152310047Y-73846500D03*
%TD*%
D10*
%TO.P,J3,1,Pin_1*%
%TO.N,Board_26-Net-(J3-Pin_1)*%
X169010047Y-73846500D03*
D11*
%TO.P,J3,2,Pin_2*%
%TO.N,Board_26-Net-(J3-Pin_2)*%
X171550047Y-73846500D03*
%TO.P,J3,3,Pin_3*%
%TO.N,Board_26-Net-(J3-Pin_3)*%
X174090047Y-73846500D03*
%TO.P,J3,4,Pin_4*%
%TO.N,Board_26-Net-(J3-Pin_4)*%
X176630047Y-73846500D03*
%TD*%
D10*
%TO.P,J3,1,Pin_1*%
%TO.N,Board_11-Net-(J3-Pin_1)*%
X156850047Y-49222500D03*
D11*
%TO.P,J3,2,Pin_2*%
%TO.N,Board_11-Net-(J3-Pin_2)*%
X159390047Y-49222500D03*
%TO.P,J3,3,Pin_3*%
%TO.N,Board_11-Net-(J3-Pin_3)*%
X161930047Y-49222500D03*
%TO.P,J3,4,Pin_4*%
%TO.N,Board_11-Net-(J3-Pin_4)*%
X164470047Y-49222500D03*
%TD*%
D10*
%TO.P,J4,1,Pin_1*%
%TO.N,Board_21-Net-(J4-Pin_1)*%
X108210047Y-66226500D03*
D11*
%TO.P,J4,2,Pin_2*%
%TO.N,Board_21-Net-(J4-Pin_2)*%
X110750047Y-66226500D03*
%TO.P,J4,3,Pin_3*%
%TO.N,Board_21-Net-(J4-Pin_3)*%
X113290047Y-66226500D03*
%TO.P,J4,4,Pin_4*%
%TO.N,Board_21-Net-(J4-Pin_4)*%
X115830047Y-66226500D03*
%TD*%
D10*
%TO.P,J4,1,Pin_1*%
%TO.N,Board_2-Net-(J4-Pin_1)*%
X132530047Y-29290500D03*
D11*
%TO.P,J4,2,Pin_2*%
%TO.N,Board_2-Net-(J4-Pin_2)*%
X135070047Y-29290500D03*
%TO.P,J4,3,Pin_3*%
%TO.N,Board_2-Net-(J4-Pin_3)*%
X137610047Y-29290500D03*
%TO.P,J4,4,Pin_4*%
%TO.N,Board_2-Net-(J4-Pin_4)*%
X140150047Y-29290500D03*
%TD*%
D10*
%TO.P,J4,1,Pin_1*%
%TO.N,Board_13-Net-(J4-Pin_1)*%
X181170047Y-41602500D03*
D11*
%TO.P,J4,2,Pin_2*%
%TO.N,Board_13-Net-(J4-Pin_2)*%
X183710047Y-41602500D03*
%TO.P,J4,3,Pin_3*%
%TO.N,Board_13-Net-(J4-Pin_3)*%
X186250047Y-41602500D03*
%TO.P,J4,4,Pin_4*%
%TO.N,Board_13-Net-(J4-Pin_4)*%
X188790047Y-41602500D03*
%TD*%
D10*
%TO.P,J3,1,Pin_1*%
%TO.N,Board_39-Net-(J3-Pin_1)*%
X156850047Y-98470500D03*
D11*
%TO.P,J3,2,Pin_2*%
%TO.N,Board_39-Net-(J3-Pin_2)*%
X159390047Y-98470500D03*
%TO.P,J3,3,Pin_3*%
%TO.N,Board_39-Net-(J3-Pin_3)*%
X161930047Y-98470500D03*
%TO.P,J3,4,Pin_4*%
%TO.N,Board_39-Net-(J3-Pin_4)*%
X164470047Y-98470500D03*
%TD*%
D10*
%TO.P,J3,1,Pin_1*%
%TO.N,Board_20-Net-(J3-Pin_1)*%
X181170047Y-61534500D03*
D11*
%TO.P,J3,2,Pin_2*%
%TO.N,Board_20-Net-(J3-Pin_2)*%
X183710047Y-61534500D03*
%TO.P,J3,3,Pin_3*%
%TO.N,Board_20-Net-(J3-Pin_3)*%
X186250047Y-61534500D03*
%TO.P,J3,4,Pin_4*%
%TO.N,Board_20-Net-(J3-Pin_4)*%
X188790047Y-61534500D03*
%TD*%
D10*
%TO.P,J4,1,Pin_1*%
%TO.N,Board_9-Net-(J4-Pin_1)*%
X132530047Y-41602500D03*
D11*
%TO.P,J4,2,Pin_2*%
%TO.N,Board_9-Net-(J4-Pin_2)*%
X135070047Y-41602500D03*
%TO.P,J4,3,Pin_3*%
%TO.N,Board_9-Net-(J4-Pin_3)*%
X137610047Y-41602500D03*
%TO.P,J4,4,Pin_4*%
%TO.N,Board_9-Net-(J4-Pin_4)*%
X140150047Y-41602500D03*
%TD*%
D10*
%TO.P,J3,1,Pin_1*%
%TO.N,Board_31-Net-(J3-Pin_1)*%
X144690047Y-86158500D03*
D11*
%TO.P,J3,2,Pin_2*%
%TO.N,Board_31-Net-(J3-Pin_2)*%
X147230047Y-86158500D03*
%TO.P,J3,3,Pin_3*%
%TO.N,Board_31-Net-(J3-Pin_3)*%
X149770047Y-86158500D03*
%TO.P,J3,4,Pin_4*%
%TO.N,Board_31-Net-(J3-Pin_4)*%
X152310047Y-86158500D03*
%TD*%
D10*
%TO.P,J3,1,Pin_1*%
%TO.N,Board_8-Net-(J3-Pin_1)*%
X120370047Y-49222500D03*
D11*
%TO.P,J3,2,Pin_2*%
%TO.N,Board_8-Net-(J3-Pin_2)*%
X122910047Y-49222500D03*
%TO.P,J3,3,Pin_3*%
%TO.N,Board_8-Net-(J3-Pin_3)*%
X125450047Y-49222500D03*
%TO.P,J3,4,Pin_4*%
%TO.N,Board_8-Net-(J3-Pin_4)*%
X127990047Y-49222500D03*
%TD*%
D10*
%TO.P,J3,1,Pin_1*%
%TO.N,Board_2-Net-(J3-Pin_1)*%
X132530047Y-36910500D03*
D11*
%TO.P,J3,2,Pin_2*%
%TO.N,Board_2-Net-(J3-Pin_2)*%
X135070047Y-36910500D03*
%TO.P,J3,3,Pin_3*%
%TO.N,Board_2-Net-(J3-Pin_3)*%
X137610047Y-36910500D03*
%TO.P,J3,4,Pin_4*%
%TO.N,Board_2-Net-(J3-Pin_4)*%
X140150047Y-36910500D03*
%TD*%
D10*
%TO.P,J4,1,Pin_1*%
%TO.N,Board_14-Net-(J4-Pin_1)*%
X108210047Y-53914500D03*
D11*
%TO.P,J4,2,Pin_2*%
%TO.N,Board_14-Net-(J4-Pin_2)*%
X110750047Y-53914500D03*
%TO.P,J4,3,Pin_3*%
%TO.N,Board_14-Net-(J4-Pin_3)*%
X113290047Y-53914500D03*
%TO.P,J4,4,Pin_4*%
%TO.N,Board_14-Net-(J4-Pin_4)*%
X115830047Y-53914500D03*
%TD*%
D10*
%TO.P,J4,1,Pin_1*%
%TO.N,Board_23-Net-(J4-Pin_1)*%
X132530047Y-66226500D03*
D11*
%TO.P,J4,2,Pin_2*%
%TO.N,Board_23-Net-(J4-Pin_2)*%
X135070047Y-66226500D03*
%TO.P,J4,3,Pin_3*%
%TO.N,Board_23-Net-(J4-Pin_3)*%
X137610047Y-66226500D03*
%TO.P,J4,4,Pin_4*%
%TO.N,Board_23-Net-(J4-Pin_4)*%
X140150047Y-66226500D03*
%TD*%
D10*
%TO.P,J3,1,Pin_1*%
%TO.N,Board_7-Net-(J3-Pin_1)*%
X108210047Y-49222500D03*
D11*
%TO.P,J3,2,Pin_2*%
%TO.N,Board_7-Net-(J3-Pin_2)*%
X110750047Y-49222500D03*
%TO.P,J3,3,Pin_3*%
%TO.N,Board_7-Net-(J3-Pin_3)*%
X113290047Y-49222500D03*
%TO.P,J3,4,Pin_4*%
%TO.N,Board_7-Net-(J3-Pin_4)*%
X115830047Y-49222500D03*
%TD*%
D10*
%TO.P,J3,1,Pin_1*%
%TO.N,Board_5-Net-(J3-Pin_1)*%
X169010047Y-36910500D03*
D11*
%TO.P,J3,2,Pin_2*%
%TO.N,Board_5-Net-(J3-Pin_2)*%
X171550047Y-36910500D03*
%TO.P,J3,3,Pin_3*%
%TO.N,Board_5-Net-(J3-Pin_3)*%
X174090047Y-36910500D03*
%TO.P,J3,4,Pin_4*%
%TO.N,Board_5-Net-(J3-Pin_4)*%
X176630047Y-36910500D03*
%TD*%
D10*
%TO.P,J4,1,Pin_1*%
%TO.N,Board_36-Net-(J4-Pin_1)*%
X120370047Y-90850500D03*
D11*
%TO.P,J4,2,Pin_2*%
%TO.N,Board_36-Net-(J4-Pin_2)*%
X122910047Y-90850500D03*
%TO.P,J4,3,Pin_3*%
%TO.N,Board_36-Net-(J4-Pin_3)*%
X125450047Y-90850500D03*
%TO.P,J4,4,Pin_4*%
%TO.N,Board_36-Net-(J4-Pin_4)*%
X127990047Y-90850500D03*
%TD*%
D10*
%TO.P,J3,1,Pin_1*%
%TO.N,Board_22-Net-(J3-Pin_1)*%
X120370047Y-73846500D03*
D11*
%TO.P,J3,2,Pin_2*%
%TO.N,Board_22-Net-(J3-Pin_2)*%
X122910047Y-73846500D03*
%TO.P,J3,3,Pin_3*%
%TO.N,Board_22-Net-(J3-Pin_3)*%
X125450047Y-73846500D03*
%TO.P,J3,4,Pin_4*%
%TO.N,Board_22-Net-(J3-Pin_4)*%
X127990047Y-73846500D03*
%TD*%
D10*
%TO.P,J3,1,Pin_1*%
%TO.N,Board_14-Net-(J3-Pin_1)*%
X108210047Y-61534500D03*
D11*
%TO.P,J3,2,Pin_2*%
%TO.N,Board_14-Net-(J3-Pin_2)*%
X110750047Y-61534500D03*
%TO.P,J3,3,Pin_3*%
%TO.N,Board_14-Net-(J3-Pin_3)*%
X113290047Y-61534500D03*
%TO.P,J3,4,Pin_4*%
%TO.N,Board_14-Net-(J3-Pin_4)*%
X115830047Y-61534500D03*
%TD*%
D10*
%TO.P,J4,1,Pin_1*%
%TO.N,Board_7-Net-(J4-Pin_1)*%
X108210047Y-41602500D03*
D11*
%TO.P,J4,2,Pin_2*%
%TO.N,Board_7-Net-(J4-Pin_2)*%
X110750047Y-41602500D03*
%TO.P,J4,3,Pin_3*%
%TO.N,Board_7-Net-(J4-Pin_3)*%
X113290047Y-41602500D03*
%TO.P,J4,4,Pin_4*%
%TO.N,Board_7-Net-(J4-Pin_4)*%
X115830047Y-41602500D03*
%TD*%
D10*
%TO.P,J3,1,Pin_1*%
%TO.N,Board_32-Net-(J3-Pin_1)*%
X156850047Y-86158500D03*
D11*
%TO.P,J3,2,Pin_2*%
%TO.N,Board_32-Net-(J3-Pin_2)*%
X159390047Y-86158500D03*
%TO.P,J3,3,Pin_3*%
%TO.N,Board_32-Net-(J3-Pin_3)*%
X161930047Y-86158500D03*
%TO.P,J3,4,Pin_4*%
%TO.N,Board_32-Net-(J3-Pin_4)*%
X164470047Y-86158500D03*
%TD*%
D10*
%TO.P,J4,1,Pin_1*%
%TO.N,Board_39-Net-(J4-Pin_1)*%
X156850047Y-90850500D03*
D11*
%TO.P,J4,2,Pin_2*%
%TO.N,Board_39-Net-(J4-Pin_2)*%
X159390047Y-90850500D03*
%TO.P,J4,3,Pin_3*%
%TO.N,Board_39-Net-(J4-Pin_3)*%
X161930047Y-90850500D03*
%TO.P,J4,4,Pin_4*%
%TO.N,Board_39-Net-(J4-Pin_4)*%
X164470047Y-90850500D03*
%TD*%
D10*
%TO.P,J3,1,Pin_1*%
%TO.N,Board_40-Net-(J3-Pin_1)*%
X169010047Y-98470500D03*
D11*
%TO.P,J3,2,Pin_2*%
%TO.N,Board_40-Net-(J3-Pin_2)*%
X171550047Y-98470500D03*
%TO.P,J3,3,Pin_3*%
%TO.N,Board_40-Net-(J3-Pin_3)*%
X174090047Y-98470500D03*
%TO.P,J3,4,Pin_4*%
%TO.N,Board_40-Net-(J3-Pin_4)*%
X176630047Y-98470500D03*
%TD*%
D10*
%TO.P,J3,1,Pin_1*%
%TO.N,Board_30-Net-(J3-Pin_1)*%
X132530047Y-86158500D03*
D11*
%TO.P,J3,2,Pin_2*%
%TO.N,Board_30-Net-(J3-Pin_2)*%
X135070047Y-86158500D03*
%TO.P,J3,3,Pin_3*%
%TO.N,Board_30-Net-(J3-Pin_3)*%
X137610047Y-86158500D03*
%TO.P,J3,4,Pin_4*%
%TO.N,Board_30-Net-(J3-Pin_4)*%
X140150047Y-86158500D03*
%TD*%
D10*
%TO.P,J3,1,Pin_1*%
%TO.N,Board_27-Net-(J3-Pin_1)*%
X181170047Y-73846500D03*
D11*
%TO.P,J3,2,Pin_2*%
%TO.N,Board_27-Net-(J3-Pin_2)*%
X183710047Y-73846500D03*
%TO.P,J3,3,Pin_3*%
%TO.N,Board_27-Net-(J3-Pin_3)*%
X186250047Y-73846500D03*
%TO.P,J3,4,Pin_4*%
%TO.N,Board_27-Net-(J3-Pin_4)*%
X188790047Y-73846500D03*
%TD*%
D10*
%TO.P,J3,1,Pin_1*%
%TO.N,Board_15-Net-(J3-Pin_1)*%
X120370047Y-61534500D03*
D11*
%TO.P,J3,2,Pin_2*%
%TO.N,Board_15-Net-(J3-Pin_2)*%
X122910047Y-61534500D03*
%TO.P,J3,3,Pin_3*%
%TO.N,Board_15-Net-(J3-Pin_3)*%
X125450047Y-61534500D03*
%TO.P,J3,4,Pin_4*%
%TO.N,Board_15-Net-(J3-Pin_4)*%
X127990047Y-61534500D03*
%TD*%
D10*
%TO.P,J3,1,Pin_1*%
%TO.N,Board_34-Net-(J3-Pin_1)*%
X181170047Y-86158500D03*
D11*
%TO.P,J3,2,Pin_2*%
%TO.N,Board_34-Net-(J3-Pin_2)*%
X183710047Y-86158500D03*
%TO.P,J3,3,Pin_3*%
%TO.N,Board_34-Net-(J3-Pin_3)*%
X186250047Y-86158500D03*
%TO.P,J3,4,Pin_4*%
%TO.N,Board_34-Net-(J3-Pin_4)*%
X188790047Y-86158500D03*
%TD*%
D10*
%TO.P,J3,1,Pin_1*%
%TO.N,Board_21-Net-(J3-Pin_1)*%
X108210047Y-73846500D03*
D11*
%TO.P,J3,2,Pin_2*%
%TO.N,Board_21-Net-(J3-Pin_2)*%
X110750047Y-73846500D03*
%TO.P,J3,3,Pin_3*%
%TO.N,Board_21-Net-(J3-Pin_3)*%
X113290047Y-73846500D03*
%TO.P,J3,4,Pin_4*%
%TO.N,Board_21-Net-(J3-Pin_4)*%
X115830047Y-73846500D03*
%TD*%
D10*
%TO.P,J4,1,Pin_1*%
%TO.N,Board_16-Net-(J4-Pin_1)*%
X132530047Y-53914500D03*
D11*
%TO.P,J4,2,Pin_2*%
%TO.N,Board_16-Net-(J4-Pin_2)*%
X135070047Y-53914500D03*
%TO.P,J4,3,Pin_3*%
%TO.N,Board_16-Net-(J4-Pin_3)*%
X137610047Y-53914500D03*
%TO.P,J4,4,Pin_4*%
%TO.N,Board_16-Net-(J4-Pin_4)*%
X140150047Y-53914500D03*
%TD*%
D10*
%TO.P,J4,1,Pin_1*%
%TO.N,Board_37-Net-(J4-Pin_1)*%
X132530047Y-90850500D03*
D11*
%TO.P,J4,2,Pin_2*%
%TO.N,Board_37-Net-(J4-Pin_2)*%
X135070047Y-90850500D03*
%TO.P,J4,3,Pin_3*%
%TO.N,Board_37-Net-(J4-Pin_3)*%
X137610047Y-90850500D03*
%TO.P,J4,4,Pin_4*%
%TO.N,Board_37-Net-(J4-Pin_4)*%
X140150047Y-90850500D03*
%TD*%
D10*
%TO.P,J4,1,Pin_1*%
%TO.N,Board_28-Net-(J4-Pin_1)*%
X108210047Y-78538500D03*
D11*
%TO.P,J4,2,Pin_2*%
%TO.N,Board_28-Net-(J4-Pin_2)*%
X110750047Y-78538500D03*
%TO.P,J4,3,Pin_3*%
%TO.N,Board_28-Net-(J4-Pin_3)*%
X113290047Y-78538500D03*
%TO.P,J4,4,Pin_4*%
%TO.N,Board_28-Net-(J4-Pin_4)*%
X115830047Y-78538500D03*
%TD*%
D10*
%TO.P,J3,1,Pin_1*%
%TO.N,Board_33-Net-(J3-Pin_1)*%
X169010047Y-86158500D03*
D11*
%TO.P,J3,2,Pin_2*%
%TO.N,Board_33-Net-(J3-Pin_2)*%
X171550047Y-86158500D03*
%TO.P,J3,3,Pin_3*%
%TO.N,Board_33-Net-(J3-Pin_3)*%
X174090047Y-86158500D03*
%TO.P,J3,4,Pin_4*%
%TO.N,Board_33-Net-(J3-Pin_4)*%
X176630047Y-86158500D03*
%TD*%
D10*
%TO.P,J3,1,Pin_1*%
%TO.N,Board_18-Net-(J3-Pin_1)*%
X156850047Y-61534500D03*
D11*
%TO.P,J3,2,Pin_2*%
%TO.N,Board_18-Net-(J3-Pin_2)*%
X159390047Y-61534500D03*
%TO.P,J3,3,Pin_3*%
%TO.N,Board_18-Net-(J3-Pin_3)*%
X161930047Y-61534500D03*
%TO.P,J3,4,Pin_4*%
%TO.N,Board_18-Net-(J3-Pin_4)*%
X164470047Y-61534500D03*
%TD*%
D10*
%TO.P,J4,1,Pin_1*%
%TO.N,Board_34-Net-(J4-Pin_1)*%
X181170047Y-78538500D03*
D11*
%TO.P,J4,2,Pin_2*%
%TO.N,Board_34-Net-(J4-Pin_2)*%
X183710047Y-78538500D03*
%TO.P,J4,3,Pin_3*%
%TO.N,Board_34-Net-(J4-Pin_3)*%
X186250047Y-78538500D03*
%TO.P,J4,4,Pin_4*%
%TO.N,Board_34-Net-(J4-Pin_4)*%
X188790047Y-78538500D03*
%TD*%
D10*
%TO.P,J3,1,Pin_1*%
%TO.N,Board_35-Net-(J3-Pin_1)*%
X108210047Y-98470500D03*
D11*
%TO.P,J3,2,Pin_2*%
%TO.N,Board_35-Net-(J3-Pin_2)*%
X110750047Y-98470500D03*
%TO.P,J3,3,Pin_3*%
%TO.N,Board_35-Net-(J3-Pin_3)*%
X113290047Y-98470500D03*
%TO.P,J3,4,Pin_4*%
%TO.N,Board_35-Net-(J3-Pin_4)*%
X115830047Y-98470500D03*
%TD*%
D10*
%TO.P,J3,1,Pin_1*%
%TO.N,Board_25-Net-(J3-Pin_1)*%
X156850047Y-73846500D03*
D11*
%TO.P,J3,2,Pin_2*%
%TO.N,Board_25-Net-(J3-Pin_2)*%
X159390047Y-73846500D03*
%TO.P,J3,3,Pin_3*%
%TO.N,Board_25-Net-(J3-Pin_3)*%
X161930047Y-73846500D03*
%TO.P,J3,4,Pin_4*%
%TO.N,Board_25-Net-(J3-Pin_4)*%
X164470047Y-73846500D03*
%TD*%
M02*
