%TF.GenerationSoftware,KiCad,Pcbnew,9.0.7*%
%TF.CreationDate,2026-02-10T23:43:03-08:00*%
%TF.ProjectId,sot-23-8-panelized,736f742d-3233-42d3-982d-70616e656c69,rev?*%
%TF.SameCoordinates,Original*%
%TF.FileFunction,Soldermask,Bot*%
%TF.FilePolarity,Negative*%
%FSLAX46Y46*%
G04 Gerber Fmt 4.6, Leading zero omitted, Abs format (unit mm)*
G04 Created by KiCad (PCBNEW 9.0.7) date 2026-02-10 23:43:03*
%MOMM*%
%LPD*%
G01*
G04 APERTURE LIST*
G04 Aperture macros list*
%AMRoundRect*
0 Rectangle with rounded corners*
0 $1 Rounding radius*
0 $2 $3 $4 $5 $6 $7 $8 $9 X,Y pos of 4 corners*
0 Add a 4 corners polygon primitive as box body*
4,1,4,$2,$3,$4,$5,$6,$7,$8,$9,$2,$3,0*
0 Add four circle primitives for the rounded corners*
1,1,$1+$1,$2,$3*
1,1,$1+$1,$4,$5*
1,1,$1+$1,$6,$7*
1,1,$1+$1,$8,$9*
0 Add four rect primitives between the rounded corners*
20,1,$1+$1,$2,$3,$4,$5,0*
20,1,$1+$1,$4,$5,$6,$7,0*
20,1,$1+$1,$6,$7,$8,$9,0*
20,1,$1+$1,$8,$9,$2,$3,0*%
G04 Aperture macros list end*
%ADD10C,0.500000*%
%ADD11RoundRect,0.050000X0.850000X-0.850000X0.850000X0.850000X-0.850000X0.850000X-0.850000X-0.850000X0*%
%ADD12C,1.800000*%
G04 APERTURE END LIST*
D10*
%TO.C,KiKit_MB_34_5*%
X135506651Y-63136097D03*
%TD*%
D11*
%TO.C,J3*%
X169010047Y-49222500D03*
D12*
X171550047Y-49222500D03*
X174090047Y-49222500D03*
X176630047Y-49222500D03*
%TD*%
D10*
%TO.C,KiKit_MB_78_3*%
X149333333Y-100072499D03*
%TD*%
%TO.C,KiKit_MB_66_4*%
X160660000Y-87760499D03*
%TD*%
%TO.C,KiKit_MB_21_2*%
X146833333Y-40112500D03*
%TD*%
%TO.C,KiKit_MB_82_4*%
X172820000Y-100072499D03*
%TD*%
%TO.C,KiKit_MB_65_3*%
X159826666Y-77048500D03*
%TD*%
%TO.C,KiKit_MB_68_3*%
X173653333Y-87760499D03*
%TD*%
%TO.C,KiKit_MB_36_3*%
X149333318Y-63136221D03*
%TD*%
%TO.C,KiKit_MB_5_3*%
X135506666Y-27800501D03*
%TD*%
%TO.C,KiKit_MB_4_6*%
X122513333Y-38512499D03*
%TD*%
%TO.C,KiKit_MB_55_3*%
X184146666Y-64736500D03*
%TD*%
D11*
%TO.C,J3*%
X132530047Y-98470500D03*
D12*
X135070047Y-98470500D03*
X137610047Y-98470500D03*
X140150047Y-98470500D03*
%TD*%
D10*
%TO.C,KiKit_MB_76_2*%
X138006666Y-100072499D03*
%TD*%
%TO.C,KiKit_MB_7_3*%
X147666666Y-27800501D03*
%TD*%
%TO.C,KiKit_MB_63_6*%
X150166666Y-77048500D03*
%TD*%
%TO.C,KiKit_MB_46_5*%
X123346666Y-75448499D03*
%TD*%
D11*
%TO.C,J4*%
X169010047Y-29290500D03*
D12*
X171550047Y-29290500D03*
X174090047Y-29290500D03*
X176630047Y-29290500D03*
%TD*%
D10*
%TO.C,KiKit_MB_51_6*%
X162326666Y-64736500D03*
%TD*%
%TO.C,KiKit_MB_69_5*%
X185813333Y-77048500D03*
%TD*%
%TO.C,KiKit_MB_12_5*%
X171986666Y-38512499D03*
%TD*%
%TO.C,KiKit_MB_55_4*%
X184980000Y-64736500D03*
%TD*%
%TO.C,KiKit_MB_6_3*%
X137173333Y-38512499D03*
%TD*%
%TO.C,KiKit_MB_80_4*%
X160660000Y-100072499D03*
%TD*%
D11*
%TO.C,J4*%
X169010047Y-78538500D03*
D12*
X171550047Y-78538500D03*
X174090047Y-78538500D03*
X176630047Y-78538500D03*
%TD*%
D10*
%TO.C,KiKit_MB_40_6*%
X171153318Y-63136035D03*
%TD*%
%TO.C,KiKit_MB_45_6*%
X125846666Y-64736500D03*
%TD*%
%TO.C,KiKit_MB_52_3*%
X161493333Y-75448499D03*
%TD*%
%TO.C,KiKit_MB_54_3*%
X173653333Y-75448499D03*
%TD*%
%TO.C,KiKit_MB_75_3*%
X135506666Y-89360500D03*
%TD*%
%TO.C,KiKit_MB_40_2*%
X174486651Y-63136283D03*
%TD*%
%TO.C,KiKit_MB_30_3*%
X112853318Y-63136221D03*
%TD*%
%TO.C,KiKit_MB_55_2*%
X183313333Y-64736500D03*
%TD*%
%TO.C,KiKit_MB_58_4*%
X112020001Y-87760499D03*
%TD*%
%TO.C,KiKit_MB_7_6*%
X150166666Y-27800501D03*
%TD*%
%TO.C,KiKit_MB_60_3*%
X125013333Y-87760499D03*
%TD*%
D11*
%TO.C,J3*%
X181170047Y-49222500D03*
D12*
X183710047Y-49222500D03*
X186250047Y-49222500D03*
X188790047Y-49222500D03*
%TD*%
D10*
%TO.C,KiKit_MB_42_2*%
X186646666Y-63136499D03*
%TD*%
%TO.C,KiKit_MB_23_2*%
X158993333Y-40112500D03*
%TD*%
%TO.C,KiKit_MB_77_2*%
X146833333Y-89360500D03*
%TD*%
%TO.C,KiKit_MB_82_2*%
X174486666Y-100072499D03*
%TD*%
%TO.C,KiKit_MB_35_2*%
X146833333Y-52424500D03*
%TD*%
%TO.C,KiKit_MB_25_6*%
X174486666Y-40112500D03*
%TD*%
%TO.C,KiKit_MB_14_5*%
X184146666Y-38512499D03*
%TD*%
%TO.C,KiKit_MB_58_2*%
X113686666Y-87760499D03*
%TD*%
%TO.C,KiKit_MB_1_6*%
X113686666Y-27800501D03*
%TD*%
%TO.C,KiKit_MB_12_3*%
X173653333Y-38512499D03*
%TD*%
%TO.C,KiKit_MB_43_3*%
X111186667Y-64736500D03*
%TD*%
%TO.C,KiKit_MB_2_4*%
X112020001Y-38512499D03*
%TD*%
%TO.C,KiKit_MB_9_4*%
X160660000Y-27800501D03*
%TD*%
D11*
%TO.C,J4*%
X181170047Y-29290500D03*
D12*
X183710047Y-29290500D03*
X186250047Y-29290500D03*
X188790047Y-29290500D03*
%TD*%
D11*
%TO.C,J3*%
X144690047Y-36910500D03*
D12*
X147230047Y-36910500D03*
X149770047Y-36910500D03*
X152310047Y-36910500D03*
%TD*%
D10*
%TO.C,KiKit_MB_51_3*%
X159826666Y-64736500D03*
%TD*%
%TO.C,KiKit_MB_31_2*%
X122513333Y-52424500D03*
%TD*%
D11*
%TO.C,J4*%
X144690047Y-78538500D03*
D12*
X147230047Y-78538500D03*
X149770047Y-78538500D03*
X152310047Y-78538500D03*
%TD*%
D10*
%TO.C,KiKit_MB_14_3*%
X185813333Y-38512499D03*
%TD*%
%TO.C,KiKit_MB_80_2*%
X162326666Y-100072499D03*
%TD*%
D11*
%TO.C,J4*%
X120370047Y-29290500D03*
D12*
X122910047Y-29290500D03*
X125450047Y-29290500D03*
X127990047Y-29290500D03*
%TD*%
D10*
%TO.C,KiKit_MB_13_2*%
X183313333Y-27800501D03*
%TD*%
%TO.C,KiKit_MB_38_6*%
X158993318Y-63136035D03*
%TD*%
%TO.C,KiKit_MB_21_4*%
X148500000Y-40112500D03*
%TD*%
D11*
%TO.C,J3*%
X169010047Y-61534500D03*
D12*
X171550047Y-61534500D03*
X174090047Y-61534500D03*
X176630047Y-61534500D03*
%TD*%
D11*
%TO.C,J4*%
X120370047Y-78538500D03*
D12*
X122910047Y-78538500D03*
X125450047Y-78538500D03*
X127990047Y-78538500D03*
%TD*%
D10*
%TO.C,KiKit_MB_1_3*%
X111186667Y-27800501D03*
%TD*%
%TO.C,KiKit_MB_68_2*%
X174486666Y-87760499D03*
%TD*%
%TO.C,KiKit_MB_49_4*%
X148500000Y-64736500D03*
%TD*%
%TO.C,KiKit_MB_71_4*%
X112020001Y-89360500D03*
%TD*%
D11*
%TO.C,J4*%
X169010047Y-41602500D03*
D12*
X171550047Y-41602500D03*
X174090047Y-41602500D03*
X176630047Y-41602500D03*
%TD*%
D10*
%TO.C,KiKit_MB_8_5*%
X147666666Y-38512499D03*
%TD*%
%TO.C,KiKit_MB_22_2*%
X150166651Y-50824283D03*
%TD*%
%TO.C,KiKit_MB_56_3*%
X185813333Y-75448499D03*
%TD*%
D11*
%TO.C,J4*%
X169010047Y-53914500D03*
D12*
X171550047Y-53914500D03*
X174090047Y-53914500D03*
X176630047Y-53914500D03*
%TD*%
D10*
%TO.C,KiKit_MB_68_6*%
X171153333Y-87760499D03*
%TD*%
D11*
%TO.C,J4*%
X144690047Y-41602500D03*
D12*
X147230047Y-41602500D03*
X149770047Y-41602500D03*
X152310047Y-41602500D03*
%TD*%
D10*
%TO.C,KiKit_MB_44_5*%
X111186667Y-75448499D03*
%TD*%
%TO.C,KiKit_MB_66_2*%
X162326666Y-87760499D03*
%TD*%
%TO.C,KiKit_MB_81_6*%
X174486666Y-89360500D03*
%TD*%
D11*
%TO.C,J4*%
X181170047Y-90850500D03*
D12*
X183710047Y-90850500D03*
X186250047Y-90850500D03*
X188790047Y-90850500D03*
%TD*%
D11*
%TO.C,J4*%
X132530047Y-78538500D03*
D12*
X135070047Y-78538500D03*
X137610047Y-78538500D03*
X140150047Y-78538500D03*
%TD*%
D11*
%TO.C,J3*%
X156850047Y-36910500D03*
D12*
X159390047Y-36910500D03*
X161930047Y-36910500D03*
X164470047Y-36910500D03*
%TD*%
D10*
%TO.C,KiKit_MB_26_5*%
X171986651Y-50824097D03*
%TD*%
%TO.C,KiKit_MB_57_5*%
X112853333Y-77048500D03*
%TD*%
%TO.C,KiKit_MB_27_2*%
X183313333Y-40112500D03*
%TD*%
%TO.C,KiKit_MB_13_4*%
X184980000Y-27800501D03*
%TD*%
%TO.C,KiKit_MB_21_3*%
X147666666Y-40112500D03*
%TD*%
%TO.C,KiKit_MB_54_5*%
X171986666Y-75448499D03*
%TD*%
D11*
%TO.C,J3*%
X132530047Y-73846500D03*
D12*
X135070047Y-73846500D03*
X137610047Y-73846500D03*
X140150047Y-73846500D03*
%TD*%
D10*
%TO.C,KiKit_MB_69_6*%
X186646666Y-77048500D03*
%TD*%
D11*
%TO.C,J3*%
X132530047Y-49222500D03*
D12*
X135070047Y-49222500D03*
X137610047Y-49222500D03*
X140150047Y-49222500D03*
%TD*%
D10*
%TO.C,KiKit_MB_20_2*%
X138006651Y-50824283D03*
%TD*%
%TO.C,KiKit_MB_56_6*%
X183313333Y-75448499D03*
%TD*%
D11*
%TO.C,J4*%
X120370047Y-41602500D03*
D12*
X122910047Y-41602500D03*
X125450047Y-41602500D03*
X127990047Y-41602500D03*
%TD*%
D10*
%TO.C,KiKit_MB_43_4*%
X112020001Y-64736500D03*
%TD*%
%TO.C,KiKit_MB_80_5*%
X159826666Y-100072499D03*
%TD*%
%TO.C,KiKit_MB_56_2*%
X186646666Y-75448499D03*
%TD*%
%TO.C,KiKit_MB_27_4*%
X184980000Y-40112500D03*
%TD*%
%TO.C,KiKit_MB_8_3*%
X149333333Y-38512499D03*
%TD*%
%TO.C,KiKit_MB_70_2*%
X186646666Y-87760499D03*
%TD*%
%TO.C,KiKit_MB_54_2*%
X174486666Y-75448499D03*
%TD*%
%TO.C,KiKit_MB_48_4*%
X136340000Y-75448499D03*
%TD*%
%TO.C,KiKit_MB_35_4*%
X148500000Y-52424500D03*
%TD*%
%TO.C,KiKit_MB_41_2*%
X183313333Y-52424500D03*
%TD*%
D11*
%TO.C,J3*%
X132530047Y-61534500D03*
D12*
X135070047Y-61534500D03*
X137610047Y-61534500D03*
X140150047Y-61534500D03*
%TD*%
D10*
%TO.C,KiKit_MB_70_4*%
X184980000Y-87760499D03*
%TD*%
%TO.C,KiKit_MB_33_4*%
X136340000Y-52424500D03*
%TD*%
%TO.C,KiKit_MB_73_6*%
X125846666Y-89360500D03*
%TD*%
%TO.C,KiKit_MB_27_5*%
X185813333Y-40112500D03*
%TD*%
%TO.C,KiKit_MB_50_4*%
X148500000Y-75448499D03*
%TD*%
D11*
%TO.C,J4*%
X120370047Y-53914500D03*
D12*
X122910047Y-53914500D03*
X125450047Y-53914500D03*
X127990047Y-53914500D03*
%TD*%
D11*
%TO.C,J4*%
X120370047Y-66226500D03*
D12*
X122910047Y-66226500D03*
X125450047Y-66226500D03*
X127990047Y-66226500D03*
%TD*%
D10*
%TO.C,KiKit_MB_84_4*%
X184980000Y-100072499D03*
%TD*%
%TO.C,KiKit_MB_42_4*%
X184980000Y-63136499D03*
%TD*%
D11*
%TO.C,J3*%
X144690047Y-98470500D03*
D12*
X147230047Y-98470500D03*
X149770047Y-98470500D03*
X152310047Y-98470500D03*
%TD*%
D10*
%TO.C,KiKit_MB_32_2*%
X125846651Y-63136283D03*
%TD*%
%TO.C,KiKit_MB_39_3*%
X171986666Y-52424500D03*
%TD*%
%TO.C,KiKit_MB_72_5*%
X111186667Y-100072499D03*
%TD*%
D11*
%TO.C,J4*%
X156850047Y-66226500D03*
D12*
X159390047Y-66226500D03*
X161930047Y-66226500D03*
X164470047Y-66226500D03*
%TD*%
D10*
%TO.C,KiKit_MB_73_4*%
X124180000Y-89360500D03*
%TD*%
%TO.C,KiKit_MB_61_3*%
X135506666Y-77048500D03*
%TD*%
%TO.C,KiKit_MB_3_4*%
X124180000Y-27800501D03*
%TD*%
D11*
%TO.C,J4*%
X156850047Y-53914500D03*
D12*
X159390047Y-53914500D03*
X161930047Y-53914500D03*
X164470047Y-53914500D03*
%TD*%
D10*
%TO.C,KiKit_MB_7_2*%
X146833333Y-27800501D03*
%TD*%
%TO.C,KiKit_MB_31_3*%
X123346666Y-52424500D03*
%TD*%
%TO.C,KiKit_MB_1_5*%
X112853333Y-27800501D03*
%TD*%
%TO.C,KiKit_MB_50_5*%
X147666666Y-75448499D03*
%TD*%
%TO.C,KiKit_MB_66_6*%
X158993333Y-87760499D03*
%TD*%
D11*
%TO.C,J4*%
X169010047Y-66226500D03*
D12*
X171550047Y-66226500D03*
X174090047Y-66226500D03*
X176630047Y-66226500D03*
%TD*%
D10*
%TO.C,KiKit_MB_21_5*%
X149333333Y-40112500D03*
%TD*%
%TO.C,KiKit_MB_51_5*%
X161493333Y-64736500D03*
%TD*%
%TO.C,KiKit_MB_65_2*%
X158993333Y-77048500D03*
%TD*%
%TO.C,KiKit_MB_39_4*%
X172820000Y-52424500D03*
%TD*%
%TO.C,KiKit_MB_15_6*%
X113686666Y-40112500D03*
%TD*%
%TO.C,KiKit_MB_76_3*%
X137173333Y-100072499D03*
%TD*%
D11*
%TO.C,J3*%
X181170047Y-36910500D03*
D12*
X183710047Y-36910500D03*
X186250047Y-36910500D03*
X188790047Y-36910500D03*
%TD*%
D10*
%TO.C,KiKit_MB_70_6*%
X183313333Y-87760499D03*
%TD*%
D11*
%TO.C,J3*%
X120370047Y-86158500D03*
D12*
X122910047Y-86158500D03*
X125450047Y-86158500D03*
X127990047Y-86158500D03*
%TD*%
D10*
%TO.C,KiKit_MB_3_2*%
X122513333Y-27800501D03*
%TD*%
%TO.C,KiKit_MB_32_5*%
X123346651Y-63136097D03*
%TD*%
D11*
%TO.C,J4*%
X156850047Y-78538500D03*
D12*
X159390047Y-78538500D03*
X161930047Y-78538500D03*
X164470047Y-78538500D03*
%TD*%
D11*
%TO.C,J3*%
X181170047Y-98470500D03*
D12*
X183710047Y-98470500D03*
X186250047Y-98470500D03*
X188790047Y-98470500D03*
%TD*%
D10*
%TO.C,KiKit_MB_50_6*%
X146833333Y-75448499D03*
%TD*%
%TO.C,KiKit_MB_2_6*%
X110353334Y-38512499D03*
%TD*%
%TO.C,KiKit_MB_32_6*%
X122513318Y-63136035D03*
%TD*%
D11*
%TO.C,J4*%
X144690047Y-90850500D03*
D12*
X147230047Y-90850500D03*
X149770047Y-90850500D03*
X152310047Y-90850500D03*
%TD*%
D10*
%TO.C,KiKit_MB_52_5*%
X159826666Y-75448499D03*
%TD*%
%TO.C,KiKit_MB_71_5*%
X112853333Y-89360500D03*
%TD*%
%TO.C,KiKit_MB_66_3*%
X161493333Y-87760499D03*
%TD*%
%TO.C,KiKit_MB_18_4*%
X124179985Y-50824159D03*
%TD*%
%TO.C,KiKit_MB_22_3*%
X149333318Y-50824221D03*
%TD*%
%TO.C,KiKit_MB_42_3*%
X185813333Y-63136499D03*
%TD*%
%TO.C,KiKit_MB_79_3*%
X159826666Y-89360500D03*
%TD*%
%TO.C,KiKit_MB_3_5*%
X125013333Y-27800501D03*
%TD*%
%TO.C,KiKit_MB_48_6*%
X134673333Y-75448499D03*
%TD*%
%TO.C,KiKit_MB_46_2*%
X125846666Y-75448499D03*
%TD*%
%TO.C,KiKit_MB_63_4*%
X148500000Y-77048500D03*
%TD*%
%TO.C,KiKit_MB_56_4*%
X184980000Y-75448499D03*
%TD*%
%TO.C,KiKit_MB_84_2*%
X186646666Y-100072499D03*
%TD*%
%TO.C,KiKit_MB_73_5*%
X125013333Y-89360500D03*
%TD*%
%TO.C,KiKit_MB_40_5*%
X171986651Y-63136097D03*
%TD*%
%TO.C,KiKit_MB_62_4*%
X136340000Y-87760499D03*
%TD*%
%TO.C,KiKit_MB_41_3*%
X184146666Y-52424500D03*
%TD*%
%TO.C,KiKit_MB_6_5*%
X135506666Y-38512499D03*
%TD*%
%TO.C,KiKit_MB_3_6*%
X125846666Y-27800501D03*
%TD*%
%TO.C,KiKit_MB_73_3*%
X123346666Y-89360500D03*
%TD*%
%TO.C,KiKit_MB_25_4*%
X172820000Y-40112500D03*
%TD*%
D11*
%TO.C,J3*%
X108210047Y-86158500D03*
D12*
X110750047Y-86158500D03*
X113290047Y-86158500D03*
X115830047Y-86158500D03*
%TD*%
D10*
%TO.C,KiKit_MB_30_6*%
X110353319Y-63136035D03*
%TD*%
%TO.C,KiKit_MB_24_2*%
X162326651Y-50824283D03*
%TD*%
%TO.C,KiKit_MB_81_3*%
X171986666Y-89360500D03*
%TD*%
%TO.C,KiKit_MB_63_3*%
X147666666Y-77048500D03*
%TD*%
%TO.C,KiKit_MB_61_2*%
X134673333Y-77048500D03*
%TD*%
%TO.C,KiKit_MB_30_5*%
X111186652Y-63136097D03*
%TD*%
%TO.C,KiKit_MB_62_6*%
X134673333Y-87760499D03*
%TD*%
%TO.C,KiKit_MB_84_6*%
X183313333Y-100072499D03*
%TD*%
%TO.C,KiKit_MB_18_2*%
X125846651Y-50824283D03*
%TD*%
%TO.C,KiKit_MB_48_3*%
X137173333Y-75448499D03*
%TD*%
%TO.C,KiKit_MB_37_3*%
X159826666Y-52424500D03*
%TD*%
%TO.C,KiKit_MB_31_5*%
X125013333Y-52424500D03*
%TD*%
%TO.C,KiKit_MB_20_4*%
X136339985Y-50824159D03*
%TD*%
D11*
%TO.C,J4*%
X181170047Y-53914500D03*
D12*
X183710047Y-53914500D03*
X186250047Y-53914500D03*
X188790047Y-53914500D03*
%TD*%
D10*
%TO.C,KiKit_MB_58_5*%
X111186667Y-87760499D03*
%TD*%
D11*
%TO.C,J3*%
X120370047Y-36910500D03*
D12*
X122910047Y-36910500D03*
X125450047Y-36910500D03*
X127990047Y-36910500D03*
%TD*%
D10*
%TO.C,KiKit_MB_61_6*%
X138006666Y-77048500D03*
%TD*%
%TO.C,KiKit_MB_6_4*%
X136340000Y-38512499D03*
%TD*%
%TO.C,KiKit_MB_24_5*%
X159826651Y-50824097D03*
%TD*%
%TO.C,KiKit_MB_13_5*%
X185813333Y-27800501D03*
%TD*%
D11*
%TO.C,J4*%
X181170047Y-66226500D03*
D12*
X183710047Y-66226500D03*
X186250047Y-66226500D03*
X188790047Y-66226500D03*
%TD*%
D10*
%TO.C,KiKit_MB_35_3*%
X147666666Y-52424500D03*
%TD*%
%TO.C,KiKit_MB_59_4*%
X124180000Y-77048500D03*
%TD*%
D11*
%TO.C,J4*%
X144690047Y-66226500D03*
D12*
X147230047Y-66226500D03*
X149770047Y-66226500D03*
X152310047Y-66226500D03*
%TD*%
D10*
%TO.C,KiKit_MB_53_6*%
X174486666Y-64736500D03*
%TD*%
%TO.C,KiKit_MB_46_3*%
X125013333Y-75448499D03*
%TD*%
%TO.C,KiKit_MB_4_5*%
X123346666Y-38512499D03*
%TD*%
%TO.C,KiKit_MB_28_5*%
X184146666Y-50824499D03*
%TD*%
%TO.C,KiKit_MB_37_5*%
X161493333Y-52424500D03*
%TD*%
%TO.C,KiKit_MB_21_6*%
X150166666Y-40112500D03*
%TD*%
D11*
%TO.C,J3*%
X144690047Y-61534500D03*
D12*
X147230047Y-61534500D03*
X149770047Y-61534500D03*
X152310047Y-61534500D03*
%TD*%
D11*
%TO.C,J4*%
X144690047Y-53914500D03*
D12*
X147230047Y-53914500D03*
X149770047Y-53914500D03*
X152310047Y-53914500D03*
%TD*%
D10*
%TO.C,KiKit_MB_16_6*%
X110353319Y-50824035D03*
%TD*%
%TO.C,KiKit_MB_76_4*%
X136340000Y-100072499D03*
%TD*%
%TO.C,KiKit_MB_78_6*%
X146833333Y-100072499D03*
%TD*%
%TO.C,KiKit_MB_9_6*%
X162326666Y-27800501D03*
%TD*%
D11*
%TO.C,J4*%
X156850047Y-29290500D03*
D12*
X159390047Y-29290500D03*
X161930047Y-29290500D03*
X164470047Y-29290500D03*
%TD*%
D10*
%TO.C,KiKit_MB_42_5*%
X184146666Y-63136499D03*
%TD*%
%TO.C,KiKit_MB_70_3*%
X185813333Y-87760499D03*
%TD*%
%TO.C,KiKit_MB_26_3*%
X173653318Y-50824221D03*
%TD*%
D11*
%TO.C,J3*%
X108210047Y-36910500D03*
D12*
X110750047Y-36910500D03*
X113290047Y-36910500D03*
X115830047Y-36910500D03*
%TD*%
D11*
%TO.C,J4*%
X156850047Y-41602500D03*
D12*
X159390047Y-41602500D03*
X161930047Y-41602500D03*
X164470047Y-41602500D03*
%TD*%
D11*
%TO.C,J4*%
X108210047Y-29290500D03*
D12*
X110750047Y-29290500D03*
X113290047Y-29290500D03*
X115830047Y-29290500D03*
%TD*%
D11*
%TO.C,J4*%
X108210047Y-90850500D03*
D12*
X110750047Y-90850500D03*
X113290047Y-90850500D03*
X115830047Y-90850500D03*
%TD*%
D10*
%TO.C,KiKit_MB_57_2*%
X110353334Y-77048500D03*
%TD*%
%TO.C,KiKit_MB_53_5*%
X173653333Y-64736500D03*
%TD*%
%TO.C,KiKit_MB_62_5*%
X135506666Y-87760499D03*
%TD*%
%TO.C,KiKit_MB_59_3*%
X123346666Y-77048500D03*
%TD*%
D11*
%TO.C,J3*%
X120370047Y-98470500D03*
D12*
X122910047Y-98470500D03*
X125450047Y-98470500D03*
X127990047Y-98470500D03*
%TD*%
D10*
%TO.C,KiKit_MB_67_5*%
X173653333Y-77048500D03*
%TD*%
%TO.C,KiKit_MB_11_6*%
X174486666Y-27800501D03*
%TD*%
%TO.C,KiKit_MB_26_2*%
X174486651Y-50824283D03*
%TD*%
%TO.C,KiKit_MB_8_2*%
X150166666Y-38512499D03*
%TD*%
D11*
%TO.C,J3*%
X144690047Y-49222500D03*
D12*
X147230047Y-49222500D03*
X149770047Y-49222500D03*
X152310047Y-49222500D03*
%TD*%
D10*
%TO.C,KiKit_MB_68_5*%
X171986666Y-87760499D03*
%TD*%
%TO.C,KiKit_MB_19_3*%
X135506666Y-40112500D03*
%TD*%
%TO.C,KiKit_MB_40_3*%
X173653318Y-63136221D03*
%TD*%
%TO.C,KiKit_MB_28_6*%
X183313333Y-50824499D03*
%TD*%
%TO.C,KiKit_MB_39_6*%
X174486666Y-52424500D03*
%TD*%
%TO.C,KiKit_MB_18_5*%
X123346651Y-50824097D03*
%TD*%
%TO.C,KiKit_MB_13_6*%
X186646666Y-27800501D03*
%TD*%
%TO.C,KiKit_MB_4_3*%
X125013333Y-38512499D03*
%TD*%
%TO.C,KiKit_MB_45_3*%
X123346666Y-64736500D03*
%TD*%
%TO.C,KiKit_MB_58_6*%
X110353334Y-87760499D03*
%TD*%
%TO.C,KiKit_MB_25_2*%
X171153333Y-40112500D03*
%TD*%
%TO.C,KiKit_MB_22_6*%
X146833318Y-50824035D03*
%TD*%
%TO.C,KiKit_MB_76_5*%
X135506666Y-100072499D03*
%TD*%
%TO.C,KiKit_MB_41_5*%
X185813333Y-52424500D03*
%TD*%
%TO.C,KiKit_MB_8_4*%
X148500000Y-38512499D03*
%TD*%
%TO.C,KiKit_MB_77_6*%
X150166666Y-89360500D03*
%TD*%
%TO.C,KiKit_MB_60_6*%
X122513333Y-87760499D03*
%TD*%
%TO.C,KiKit_MB_57_6*%
X113686666Y-77048500D03*
%TD*%
%TO.C,KiKit_MB_46_4*%
X124180000Y-75448499D03*
%TD*%
%TO.C,KiKit_MB_61_5*%
X137173333Y-77048500D03*
%TD*%
%TO.C,KiKit_MB_48_2*%
X138006666Y-75448499D03*
%TD*%
%TO.C,KiKit_MB_38_2*%
X162326651Y-63136283D03*
%TD*%
%TO.C,KiKit_MB_59_5*%
X125013333Y-77048500D03*
%TD*%
%TO.C,KiKit_MB_10_2*%
X162326666Y-38512499D03*
%TD*%
%TO.C,KiKit_MB_55_5*%
X185813333Y-64736500D03*
%TD*%
%TO.C,KiKit_MB_18_6*%
X122513318Y-50824035D03*
%TD*%
%TO.C,KiKit_MB_58_3*%
X112853333Y-87760499D03*
%TD*%
%TO.C,KiKit_MB_17_4*%
X124180000Y-40112500D03*
%TD*%
%TO.C,KiKit_MB_57_4*%
X112020001Y-77048500D03*
%TD*%
%TO.C,KiKit_MB_9_5*%
X161493333Y-27800501D03*
%TD*%
%TO.C,KiKit_MB_81_4*%
X172820000Y-89360500D03*
%TD*%
%TO.C,KiKit_MB_55_6*%
X186646666Y-64736500D03*
%TD*%
%TO.C,KiKit_MB_17_3*%
X123346666Y-40112500D03*
%TD*%
%TO.C,KiKit_MB_84_5*%
X184146666Y-100072499D03*
%TD*%
%TO.C,KiKit_MB_7_5*%
X149333333Y-27800501D03*
%TD*%
%TO.C,KiKit_MB_18_3*%
X125013318Y-50824221D03*
%TD*%
%TO.C,KiKit_MB_79_2*%
X158993333Y-89360500D03*
%TD*%
%TO.C,KiKit_MB_1_4*%
X112020001Y-27800501D03*
%TD*%
%TO.C,KiKit_MB_19_5*%
X137173333Y-40112500D03*
%TD*%
%TO.C,KiKit_MB_30_2*%
X113686651Y-63136283D03*
%TD*%
%TO.C,KiKit_MB_37_2*%
X158993333Y-52424500D03*
%TD*%
%TO.C,KiKit_MB_17_6*%
X125846666Y-40112500D03*
%TD*%
D11*
%TO.C,J4*%
X169010047Y-90850500D03*
D12*
X171550047Y-90850500D03*
X174090047Y-90850500D03*
X176630047Y-90850500D03*
%TD*%
D11*
%TO.C,J4*%
X144690047Y-29290500D03*
D12*
X147230047Y-29290500D03*
X149770047Y-29290500D03*
X152310047Y-29290500D03*
%TD*%
D10*
%TO.C,KiKit_MB_67_2*%
X171153333Y-77048500D03*
%TD*%
%TO.C,KiKit_MB_32_4*%
X124179985Y-63136159D03*
%TD*%
%TO.C,KiKit_MB_34_2*%
X138006651Y-63136283D03*
%TD*%
%TO.C,KiKit_MB_74_2*%
X125846666Y-100072499D03*
%TD*%
%TO.C,KiKit_MB_29_3*%
X111186667Y-52424500D03*
%TD*%
D11*
%TO.C,J3*%
X144690047Y-73846500D03*
D12*
X147230047Y-73846500D03*
X149770047Y-73846500D03*
X152310047Y-73846500D03*
%TD*%
D10*
%TO.C,KiKit_MB_65_5*%
X161493333Y-77048500D03*
%TD*%
%TO.C,KiKit_MB_69_2*%
X183313333Y-77048500D03*
%TD*%
%TO.C,KiKit_MB_64_6*%
X146833333Y-87760499D03*
%TD*%
%TO.C,KiKit_MB_72_2*%
X113686666Y-100072499D03*
%TD*%
%TO.C,KiKit_MB_45_5*%
X125013333Y-64736500D03*
%TD*%
%TO.C,KiKit_MB_71_6*%
X113686666Y-89360500D03*
%TD*%
%TO.C,KiKit_MB_80_3*%
X161493333Y-100072499D03*
%TD*%
%TO.C,KiKit_MB_16_2*%
X113686651Y-50824283D03*
%TD*%
%TO.C,KiKit_MB_83_5*%
X185813333Y-89360500D03*
%TD*%
%TO.C,KiKit_MB_74_4*%
X124180000Y-100072499D03*
%TD*%
%TO.C,KiKit_MB_83_3*%
X184146666Y-89360500D03*
%TD*%
%TO.C,KiKit_MB_64_5*%
X147666666Y-87760499D03*
%TD*%
%TO.C,KiKit_MB_56_5*%
X184146666Y-75448499D03*
%TD*%
%TO.C,KiKit_MB_6_2*%
X138006666Y-38512499D03*
%TD*%
%TO.C,KiKit_MB_75_2*%
X134673333Y-89360500D03*
%TD*%
%TO.C,KiKit_MB_31_4*%
X124180000Y-52424500D03*
%TD*%
D11*
%TO.C,J3*%
X169010047Y-73846500D03*
D12*
X171550047Y-73846500D03*
X174090047Y-73846500D03*
X176630047Y-73846500D03*
%TD*%
D10*
%TO.C,KiKit_MB_79_5*%
X161493333Y-89360500D03*
%TD*%
D11*
%TO.C,J3*%
X156850047Y-49222500D03*
D12*
X159390047Y-49222500D03*
X161930047Y-49222500D03*
X164470047Y-49222500D03*
%TD*%
D10*
%TO.C,KiKit_MB_12_6*%
X171153333Y-38512499D03*
%TD*%
%TO.C,KiKit_MB_11_3*%
X171986666Y-27800501D03*
%TD*%
%TO.C,KiKit_MB_74_5*%
X123346666Y-100072499D03*
%TD*%
%TO.C,KiKit_MB_23_3*%
X159826666Y-40112500D03*
%TD*%
%TO.C,KiKit_MB_13_3*%
X184146666Y-27800501D03*
%TD*%
%TO.C,KiKit_MB_22_4*%
X148499985Y-50824159D03*
%TD*%
%TO.C,KiKit_MB_33_2*%
X134673333Y-52424500D03*
%TD*%
%TO.C,KiKit_MB_42_6*%
X183313333Y-63136499D03*
%TD*%
%TO.C,KiKit_MB_28_3*%
X185813333Y-50824499D03*
%TD*%
%TO.C,KiKit_MB_75_5*%
X137173333Y-89360500D03*
%TD*%
%TO.C,KiKit_MB_74_6*%
X122513333Y-100072499D03*
%TD*%
%TO.C,KiKit_MB_25_3*%
X171986666Y-40112500D03*
%TD*%
%TO.C,KiKit_MB_29_2*%
X110353334Y-52424500D03*
%TD*%
%TO.C,KiKit_MB_47_5*%
X137173333Y-64736500D03*
%TD*%
%TO.C,KiKit_MB_67_6*%
X174486666Y-77048500D03*
%TD*%
%TO.C,KiKit_MB_68_4*%
X172820000Y-87760499D03*
%TD*%
%TO.C,KiKit_MB_48_5*%
X135506666Y-75448499D03*
%TD*%
%TO.C,KiKit_MB_35_6*%
X150166666Y-52424500D03*
%TD*%
%TO.C,KiKit_MB_43_6*%
X113686666Y-64736500D03*
%TD*%
%TO.C,KiKit_MB_40_4*%
X172819985Y-63136159D03*
%TD*%
%TO.C,KiKit_MB_65_6*%
X162326666Y-77048500D03*
%TD*%
%TO.C,KiKit_MB_53_4*%
X172820000Y-64736500D03*
%TD*%
%TO.C,KiKit_MB_33_3*%
X135506666Y-52424500D03*
%TD*%
D11*
%TO.C,J4*%
X108210047Y-66226500D03*
D12*
X110750047Y-66226500D03*
X113290047Y-66226500D03*
X115830047Y-66226500D03*
%TD*%
D10*
%TO.C,KiKit_MB_20_5*%
X135506651Y-50824097D03*
%TD*%
%TO.C,KiKit_MB_75_4*%
X136340000Y-89360500D03*
%TD*%
%TO.C,KiKit_MB_60_2*%
X125846666Y-87760499D03*
%TD*%
D11*
%TO.C,J4*%
X132530047Y-29290500D03*
D12*
X135070047Y-29290500D03*
X137610047Y-29290500D03*
X140150047Y-29290500D03*
%TD*%
D10*
%TO.C,KiKit_MB_33_6*%
X138006666Y-52424500D03*
%TD*%
%TO.C,KiKit_MB_78_4*%
X148500000Y-100072499D03*
%TD*%
%TO.C,KiKit_MB_28_2*%
X186646666Y-50824499D03*
%TD*%
%TO.C,KiKit_MB_9_3*%
X159826666Y-27800501D03*
%TD*%
%TO.C,KiKit_MB_77_3*%
X147666666Y-89360500D03*
%TD*%
%TO.C,KiKit_MB_9_2*%
X158993333Y-27800501D03*
%TD*%
%TO.C,KiKit_MB_61_4*%
X136340000Y-77048500D03*
%TD*%
%TO.C,KiKit_MB_72_4*%
X112020001Y-100072499D03*
%TD*%
%TO.C,KiKit_MB_52_6*%
X158993333Y-75448499D03*
%TD*%
D11*
%TO.C,J4*%
X181170047Y-41602500D03*
D12*
X183710047Y-41602500D03*
X186250047Y-41602500D03*
X188790047Y-41602500D03*
%TD*%
D10*
%TO.C,KiKit_MB_35_5*%
X149333333Y-52424500D03*
%TD*%
%TO.C,KiKit_MB_44_4*%
X112020001Y-75448499D03*
%TD*%
%TO.C,KiKit_MB_53_2*%
X171153333Y-64736500D03*
%TD*%
%TO.C,KiKit_MB_10_3*%
X161493333Y-38512499D03*
%TD*%
%TO.C,KiKit_MB_72_6*%
X110353334Y-100072499D03*
%TD*%
%TO.C,KiKit_MB_27_6*%
X186646666Y-40112500D03*
%TD*%
%TO.C,KiKit_MB_69_3*%
X184146666Y-77048500D03*
%TD*%
%TO.C,KiKit_MB_71_3*%
X111186667Y-89360500D03*
%TD*%
D11*
%TO.C,J3*%
X156850047Y-98470500D03*
D12*
X159390047Y-98470500D03*
X161930047Y-98470500D03*
X164470047Y-98470500D03*
%TD*%
D10*
%TO.C,KiKit_MB_5_5*%
X137173333Y-27800501D03*
%TD*%
%TO.C,KiKit_MB_59_6*%
X125846666Y-77048500D03*
%TD*%
%TO.C,KiKit_MB_6_6*%
X134673333Y-38512499D03*
%TD*%
%TO.C,KiKit_MB_38_5*%
X159826651Y-63136097D03*
%TD*%
%TO.C,KiKit_MB_50_2*%
X150166666Y-75448499D03*
%TD*%
%TO.C,KiKit_MB_30_4*%
X112019986Y-63136159D03*
%TD*%
D11*
%TO.C,J3*%
X181170047Y-61534500D03*
D12*
X183710047Y-61534500D03*
X186250047Y-61534500D03*
X188790047Y-61534500D03*
%TD*%
D10*
%TO.C,KiKit_MB_29_6*%
X113686666Y-52424500D03*
%TD*%
D11*
%TO.C,J4*%
X132530047Y-41602500D03*
D12*
X135070047Y-41602500D03*
X137610047Y-41602500D03*
X140150047Y-41602500D03*
%TD*%
D10*
%TO.C,KiKit_MB_23_4*%
X160660000Y-40112500D03*
%TD*%
%TO.C,KiKit_MB_49_6*%
X150166666Y-64736500D03*
%TD*%
%TO.C,KiKit_MB_41_6*%
X186646666Y-52424500D03*
%TD*%
%TO.C,KiKit_MB_14_4*%
X184980000Y-38512499D03*
%TD*%
%TO.C,KiKit_MB_34_3*%
X137173318Y-63136221D03*
%TD*%
%TO.C,KiKit_MB_59_2*%
X122513333Y-77048500D03*
%TD*%
%TO.C,KiKit_MB_15_5*%
X112853333Y-40112500D03*
%TD*%
%TO.C,KiKit_MB_36_6*%
X146833318Y-63136035D03*
%TD*%
%TO.C,KiKit_MB_54_4*%
X172820000Y-75448499D03*
%TD*%
D11*
%TO.C,J3*%
X144690047Y-86158500D03*
D12*
X147230047Y-86158500D03*
X149770047Y-86158500D03*
X152310047Y-86158500D03*
%TD*%
D10*
%TO.C,KiKit_MB_51_2*%
X158993333Y-64736500D03*
%TD*%
%TO.C,KiKit_MB_78_2*%
X150166666Y-100072499D03*
%TD*%
D11*
%TO.C,J3*%
X120370047Y-49222500D03*
D12*
X122910047Y-49222500D03*
X125450047Y-49222500D03*
X127990047Y-49222500D03*
%TD*%
D10*
%TO.C,KiKit_MB_75_6*%
X138006666Y-89360500D03*
%TD*%
D11*
%TO.C,J3*%
X132530047Y-36910500D03*
D12*
X135070047Y-36910500D03*
X137610047Y-36910500D03*
X140150047Y-36910500D03*
%TD*%
D10*
%TO.C,KiKit_MB_65_4*%
X160660000Y-77048500D03*
%TD*%
%TO.C,KiKit_MB_3_3*%
X123346666Y-27800501D03*
%TD*%
%TO.C,KiKit_MB_81_5*%
X173653333Y-89360500D03*
%TD*%
%TO.C,KiKit_MB_22_5*%
X147666651Y-50824097D03*
%TD*%
%TO.C,KiKit_MB_45_4*%
X124180000Y-64736500D03*
%TD*%
D11*
%TO.C,J4*%
X108210047Y-53914500D03*
D12*
X110750047Y-53914500D03*
X113290047Y-53914500D03*
X115830047Y-53914500D03*
%TD*%
D10*
%TO.C,KiKit_MB_82_3*%
X173653333Y-100072499D03*
%TD*%
%TO.C,KiKit_MB_70_5*%
X184146666Y-87760499D03*
%TD*%
%TO.C,KiKit_MB_50_3*%
X149333333Y-75448499D03*
%TD*%
%TO.C,KiKit_MB_41_4*%
X184980000Y-52424500D03*
%TD*%
D11*
%TO.C,J4*%
X132530047Y-66226500D03*
D12*
X135070047Y-66226500D03*
X137610047Y-66226500D03*
X140150047Y-66226500D03*
%TD*%
D10*
%TO.C,KiKit_MB_38_4*%
X160659985Y-63136159D03*
%TD*%
D11*
%TO.C,J3*%
X108210047Y-49222500D03*
D12*
X110750047Y-49222500D03*
X113290047Y-49222500D03*
X115830047Y-49222500D03*
%TD*%
D10*
%TO.C,KiKit_MB_44_2*%
X113686666Y-75448499D03*
%TD*%
%TO.C,KiKit_MB_52_2*%
X162326666Y-75448499D03*
%TD*%
D11*
%TO.C,J3*%
X169010047Y-36910500D03*
D12*
X171550047Y-36910500D03*
X174090047Y-36910500D03*
X176630047Y-36910500D03*
%TD*%
D11*
%TO.C,J4*%
X120370047Y-90850500D03*
D12*
X122910047Y-90850500D03*
X125450047Y-90850500D03*
X127990047Y-90850500D03*
%TD*%
D10*
%TO.C,KiKit_MB_82_5*%
X171986666Y-100072499D03*
%TD*%
%TO.C,KiKit_MB_34_6*%
X134673318Y-63136035D03*
%TD*%
%TO.C,KiKit_MB_43_2*%
X110353334Y-64736500D03*
%TD*%
%TO.C,KiKit_MB_15_4*%
X112020001Y-40112500D03*
%TD*%
%TO.C,KiKit_MB_11_2*%
X171153333Y-27800501D03*
%TD*%
%TO.C,KiKit_MB_19_4*%
X136340000Y-40112500D03*
%TD*%
%TO.C,KiKit_MB_37_6*%
X162326666Y-52424500D03*
%TD*%
%TO.C,KiKit_MB_63_5*%
X149333333Y-77048500D03*
%TD*%
D11*
%TO.C,J3*%
X120370047Y-73846500D03*
D12*
X122910047Y-73846500D03*
X125450047Y-73846500D03*
X127990047Y-73846500D03*
%TD*%
D10*
%TO.C,KiKit_MB_23_5*%
X161493333Y-40112500D03*
%TD*%
%TO.C,KiKit_MB_17_5*%
X125013333Y-40112500D03*
%TD*%
%TO.C,KiKit_MB_8_6*%
X146833333Y-38512499D03*
%TD*%
%TO.C,KiKit_MB_54_6*%
X171153333Y-75448499D03*
%TD*%
%TO.C,KiKit_MB_2_3*%
X112853333Y-38512499D03*
%TD*%
%TO.C,KiKit_MB_24_4*%
X160659985Y-50824159D03*
%TD*%
%TO.C,KiKit_MB_27_3*%
X184146666Y-40112500D03*
%TD*%
D11*
%TO.C,J3*%
X108210047Y-61534500D03*
D12*
X110750047Y-61534500D03*
X113290047Y-61534500D03*
X115830047Y-61534500D03*
%TD*%
D11*
%TO.C,J4*%
X108210047Y-41602500D03*
D12*
X110750047Y-41602500D03*
X113290047Y-41602500D03*
X115830047Y-41602500D03*
%TD*%
D11*
%TO.C,J3*%
X156850047Y-86158500D03*
D12*
X159390047Y-86158500D03*
X161930047Y-86158500D03*
X164470047Y-86158500D03*
%TD*%
D10*
%TO.C,KiKit_MB_44_6*%
X110353334Y-75448499D03*
%TD*%
%TO.C,KiKit_MB_12_2*%
X174486666Y-38512499D03*
%TD*%
%TO.C,KiKit_MB_74_3*%
X125013333Y-100072499D03*
%TD*%
%TO.C,KiKit_MB_16_5*%
X111186652Y-50824097D03*
%TD*%
%TO.C,KiKit_MB_76_6*%
X134673333Y-100072499D03*
%TD*%
%TO.C,KiKit_MB_77_4*%
X148500000Y-89360500D03*
%TD*%
D11*
%TO.C,J4*%
X156850047Y-90850500D03*
D12*
X159390047Y-90850500D03*
X161930047Y-90850500D03*
X164470047Y-90850500D03*
%TD*%
D10*
%TO.C,KiKit_MB_10_6*%
X158993333Y-38512499D03*
%TD*%
D11*
%TO.C,J3*%
X169010047Y-98470500D03*
D12*
X171550047Y-98470500D03*
X174090047Y-98470500D03*
X176630047Y-98470500D03*
%TD*%
D10*
%TO.C,KiKit_MB_78_5*%
X147666666Y-100072499D03*
%TD*%
%TO.C,KiKit_MB_10_4*%
X160660000Y-38512499D03*
%TD*%
%TO.C,KiKit_MB_60_5*%
X123346666Y-87760499D03*
%TD*%
%TO.C,KiKit_MB_11_4*%
X172820000Y-27800501D03*
%TD*%
%TO.C,KiKit_MB_34_4*%
X136339985Y-63136159D03*
%TD*%
%TO.C,KiKit_MB_24_6*%
X158993318Y-50824035D03*
%TD*%
%TO.C,KiKit_MB_36_5*%
X147666651Y-63136097D03*
%TD*%
%TO.C,KiKit_MB_38_3*%
X161493318Y-63136221D03*
%TD*%
%TO.C,KiKit_MB_25_5*%
X173653333Y-40112500D03*
%TD*%
%TO.C,KiKit_MB_29_5*%
X112853333Y-52424500D03*
%TD*%
%TO.C,KiKit_MB_1_2*%
X110353334Y-27800501D03*
%TD*%
%TO.C,KiKit_MB_15_3*%
X111186667Y-40112500D03*
%TD*%
D11*
%TO.C,J3*%
X132530047Y-86158500D03*
D12*
X135070047Y-86158500D03*
X137610047Y-86158500D03*
X140150047Y-86158500D03*
%TD*%
D10*
%TO.C,KiKit_MB_17_2*%
X122513333Y-40112500D03*
%TD*%
%TO.C,KiKit_MB_47_6*%
X138006666Y-64736500D03*
%TD*%
%TO.C,KiKit_MB_73_2*%
X122513333Y-89360500D03*
%TD*%
%TO.C,KiKit_MB_39_5*%
X173653333Y-52424500D03*
%TD*%
%TO.C,KiKit_MB_5_6*%
X138006666Y-27800501D03*
%TD*%
%TO.C,KiKit_MB_24_3*%
X161493318Y-50824221D03*
%TD*%
%TO.C,KiKit_MB_62_3*%
X137173333Y-87760499D03*
%TD*%
%TO.C,KiKit_MB_82_6*%
X171153333Y-100072499D03*
%TD*%
%TO.C,KiKit_MB_4_2*%
X125846666Y-38512499D03*
%TD*%
%TO.C,KiKit_MB_47_4*%
X136340000Y-64736500D03*
%TD*%
D11*
%TO.C,J3*%
X181170047Y-73846500D03*
D12*
X183710047Y-73846500D03*
X186250047Y-73846500D03*
X188790047Y-73846500D03*
%TD*%
D11*
%TO.C,J3*%
X120370047Y-61534500D03*
D12*
X122910047Y-61534500D03*
X125450047Y-61534500D03*
X127990047Y-61534500D03*
%TD*%
D10*
%TO.C,KiKit_MB_39_2*%
X171153333Y-52424500D03*
%TD*%
%TO.C,KiKit_MB_81_2*%
X171153333Y-89360500D03*
%TD*%
%TO.C,KiKit_MB_57_3*%
X111186667Y-77048500D03*
%TD*%
%TO.C,KiKit_MB_43_5*%
X112853333Y-64736500D03*
%TD*%
%TO.C,KiKit_MB_83_6*%
X186646666Y-89360500D03*
%TD*%
%TO.C,KiKit_MB_72_3*%
X112853333Y-100072499D03*
%TD*%
%TO.C,KiKit_MB_49_2*%
X146833333Y-64736500D03*
%TD*%
%TO.C,KiKit_MB_14_2*%
X186646666Y-38512499D03*
%TD*%
%TO.C,KiKit_MB_20_6*%
X134673318Y-50824035D03*
%TD*%
D11*
%TO.C,J3*%
X181170047Y-86158500D03*
D12*
X183710047Y-86158500D03*
X186250047Y-86158500D03*
X188790047Y-86158500D03*
%TD*%
D10*
%TO.C,KiKit_MB_83_2*%
X183313333Y-89360500D03*
%TD*%
%TO.C,KiKit_MB_67_4*%
X172820000Y-77048500D03*
%TD*%
%TO.C,KiKit_MB_23_6*%
X162326666Y-40112500D03*
%TD*%
%TO.C,KiKit_MB_64_4*%
X148500000Y-87760499D03*
%TD*%
%TO.C,KiKit_MB_79_6*%
X162326666Y-89360500D03*
%TD*%
%TO.C,KiKit_MB_44_3*%
X112853333Y-75448499D03*
%TD*%
%TO.C,KiKit_MB_15_2*%
X110353334Y-40112500D03*
%TD*%
%TO.C,KiKit_MB_45_2*%
X122513333Y-64736500D03*
%TD*%
D11*
%TO.C,J3*%
X108210047Y-73846500D03*
D12*
X110750047Y-73846500D03*
X113290047Y-73846500D03*
X115830047Y-73846500D03*
%TD*%
D10*
%TO.C,KiKit_MB_63_2*%
X146833333Y-77048500D03*
%TD*%
%TO.C,KiKit_MB_47_2*%
X134673333Y-64736500D03*
%TD*%
D11*
%TO.C,J4*%
X132530047Y-53914500D03*
D12*
X135070047Y-53914500D03*
X137610047Y-53914500D03*
X140150047Y-53914500D03*
%TD*%
D10*
%TO.C,KiKit_MB_64_2*%
X150166666Y-87760499D03*
%TD*%
%TO.C,KiKit_MB_51_4*%
X160660000Y-64736500D03*
%TD*%
%TO.C,KiKit_MB_32_3*%
X125013318Y-63136221D03*
%TD*%
D11*
%TO.C,J4*%
X132530047Y-90850500D03*
D12*
X135070047Y-90850500D03*
X137610047Y-90850500D03*
X140150047Y-90850500D03*
%TD*%
D10*
%TO.C,KiKit_MB_20_3*%
X137173318Y-50824221D03*
%TD*%
%TO.C,KiKit_MB_69_4*%
X184980000Y-77048500D03*
%TD*%
D11*
%TO.C,J4*%
X108210047Y-78538500D03*
D12*
X110750047Y-78538500D03*
X113290047Y-78538500D03*
X115830047Y-78538500D03*
%TD*%
D10*
%TO.C,KiKit_MB_46_6*%
X122513333Y-75448499D03*
%TD*%
D11*
%TO.C,J3*%
X169010047Y-86158500D03*
D12*
X171550047Y-86158500D03*
X174090047Y-86158500D03*
X176630047Y-86158500D03*
%TD*%
D10*
%TO.C,KiKit_MB_5_2*%
X134673333Y-27800501D03*
%TD*%
%TO.C,KiKit_MB_31_6*%
X125846666Y-52424500D03*
%TD*%
%TO.C,KiKit_MB_5_4*%
X136340000Y-27800501D03*
%TD*%
%TO.C,KiKit_MB_36_2*%
X150166651Y-63136283D03*
%TD*%
%TO.C,KiKit_MB_77_5*%
X149333333Y-89360500D03*
%TD*%
%TO.C,KiKit_MB_29_4*%
X112020001Y-52424500D03*
%TD*%
%TO.C,KiKit_MB_36_4*%
X148499985Y-63136159D03*
%TD*%
%TO.C,KiKit_MB_16_4*%
X112019986Y-50824159D03*
%TD*%
%TO.C,KiKit_MB_16_3*%
X112853318Y-50824221D03*
%TD*%
%TO.C,KiKit_MB_62_2*%
X138006666Y-87760499D03*
%TD*%
%TO.C,KiKit_MB_67_3*%
X171986666Y-77048500D03*
%TD*%
%TO.C,KiKit_MB_83_4*%
X184980000Y-89360500D03*
%TD*%
%TO.C,KiKit_MB_19_2*%
X134673333Y-40112500D03*
%TD*%
%TO.C,KiKit_MB_60_4*%
X124180000Y-87760499D03*
%TD*%
%TO.C,KiKit_MB_11_5*%
X173653333Y-27800501D03*
%TD*%
%TO.C,KiKit_MB_64_3*%
X149333333Y-87760499D03*
%TD*%
D11*
%TO.C,J3*%
X156850047Y-61534500D03*
D12*
X159390047Y-61534500D03*
X161930047Y-61534500D03*
X164470047Y-61534500D03*
%TD*%
D10*
%TO.C,KiKit_MB_52_4*%
X160660000Y-75448499D03*
%TD*%
%TO.C,KiKit_MB_12_4*%
X172820000Y-38512499D03*
%TD*%
%TO.C,KiKit_MB_28_4*%
X184980000Y-50824499D03*
%TD*%
D11*
%TO.C,J4*%
X181170047Y-78538500D03*
D12*
X183710047Y-78538500D03*
X186250047Y-78538500D03*
X188790047Y-78538500D03*
%TD*%
D10*
%TO.C,KiKit_MB_79_4*%
X160660000Y-89360500D03*
%TD*%
%TO.C,KiKit_MB_7_4*%
X148500000Y-27800501D03*
%TD*%
%TO.C,KiKit_MB_37_4*%
X160660000Y-52424500D03*
%TD*%
%TO.C,KiKit_MB_49_5*%
X149333333Y-64736500D03*
%TD*%
%TO.C,KiKit_MB_49_3*%
X147666666Y-64736500D03*
%TD*%
%TO.C,KiKit_MB_71_2*%
X110353334Y-89360500D03*
%TD*%
%TO.C,KiKit_MB_66_5*%
X159826666Y-87760499D03*
%TD*%
%TO.C,KiKit_MB_84_3*%
X185813333Y-100072499D03*
%TD*%
%TO.C,KiKit_MB_47_3*%
X135506666Y-64736500D03*
%TD*%
D11*
%TO.C,J3*%
X108210047Y-98470500D03*
D12*
X110750047Y-98470500D03*
X113290047Y-98470500D03*
X115830047Y-98470500D03*
%TD*%
D10*
%TO.C,KiKit_MB_26_4*%
X172819985Y-50824159D03*
%TD*%
D11*
%TO.C,J3*%
X156850047Y-73846500D03*
D12*
X159390047Y-73846500D03*
X161930047Y-73846500D03*
X164470047Y-73846500D03*
%TD*%
D10*
%TO.C,KiKit_MB_2_2*%
X113686666Y-38512499D03*
%TD*%
%TO.C,KiKit_MB_10_5*%
X159826666Y-38512499D03*
%TD*%
%TO.C,KiKit_MB_19_6*%
X138006666Y-40112500D03*
%TD*%
%TO.C,KiKit_MB_53_3*%
X171986666Y-64736500D03*
%TD*%
%TO.C,KiKit_MB_2_5*%
X111186667Y-38512499D03*
%TD*%
%TO.C,KiKit_MB_80_6*%
X158993333Y-100072499D03*
%TD*%
%TO.C,KiKit_MB_14_6*%
X183313333Y-38512499D03*
%TD*%
%TO.C,KiKit_MB_4_4*%
X124180000Y-38512499D03*
%TD*%
%TO.C,KiKit_MB_26_6*%
X171153318Y-50824035D03*
%TD*%
%TO.C,KiKit_MB_33_5*%
X137173333Y-52424500D03*
%TD*%
M02*
