%TF.GenerationSoftware,KiCad,Pcbnew,9.0.7*%
%TF.CreationDate,2026-02-10T23:43:03-08:00*%
%TF.ProjectId,sot-23-8-panelized,736f742d-3233-42d3-982d-70616e656c69,rev?*%
%TF.SameCoordinates,Original*%
%TF.FileFunction,Paste,Top*%
%TF.FilePolarity,Positive*%
%FSLAX46Y46*%
G04 Gerber Fmt 4.6, Leading zero omitted, Abs format (unit mm)*
G04 Created by KiCad (PCBNEW 9.0.7) date 2026-02-10 23:43:03*
%MOMM*%
%LPD*%
G01*
G04 APERTURE LIST*
G04 Aperture macros list*
%AMRoundRect*
0 Rectangle with rounded corners*
0 $1 Rounding radius*
0 $2 $3 $4 $5 $6 $7 $8 $9 X,Y pos of 4 corners*
0 Add a 4 corners polygon primitive as box body*
4,1,4,$2,$3,$4,$5,$6,$7,$8,$9,$2,$3,0*
0 Add four circle primitives for the rounded corners*
1,1,$1+$1,$2,$3*
1,1,$1+$1,$4,$5*
1,1,$1+$1,$6,$7*
1,1,$1+$1,$8,$9*
0 Add four rect primitives between the rounded corners*
20,1,$1+$1,$2,$3,$4,$5,0*
20,1,$1+$1,$4,$5,$6,$7,0*
20,1,$1+$1,$6,$7,$8,$9,0*
20,1,$1+$1,$8,$9,$2,$3,0*%
G04 Aperture macros list end*
%ADD10RoundRect,0.100000X0.100000X-0.680000X0.100000X0.680000X-0.100000X0.680000X-0.100000X-0.680000X0*%
G04 APERTURE END LIST*
D10*
%TO.C,U1*%
X159751600Y-71292053D03*
X160401600Y-71292053D03*
X161061600Y-71292053D03*
X161711600Y-71292053D03*
X161711600Y-68592053D03*
X161061600Y-68592053D03*
X160401600Y-68592053D03*
X159751600Y-68592053D03*
%TD*%
%TO.C,U1*%
X184071600Y-34356053D03*
X184721600Y-34356053D03*
X185381600Y-34356053D03*
X186031600Y-34356053D03*
X186031600Y-31656053D03*
X185381600Y-31656053D03*
X184721600Y-31656053D03*
X184071600Y-31656053D03*
%TD*%
%TO.C,U1*%
X147591600Y-95916053D03*
X148241600Y-95916053D03*
X148901600Y-95916053D03*
X149551600Y-95916053D03*
X149551600Y-93216053D03*
X148901600Y-93216053D03*
X148241600Y-93216053D03*
X147591600Y-93216053D03*
%TD*%
%TO.C,U1*%
X171911600Y-95916053D03*
X172561600Y-95916053D03*
X173221600Y-95916053D03*
X173871600Y-95916053D03*
X173871600Y-93216053D03*
X173221600Y-93216053D03*
X172561600Y-93216053D03*
X171911600Y-93216053D03*
%TD*%
%TO.C,U1*%
X135431600Y-71292053D03*
X136081600Y-71292053D03*
X136741600Y-71292053D03*
X137391600Y-71292053D03*
X137391600Y-68592053D03*
X136741600Y-68592053D03*
X136081600Y-68592053D03*
X135431600Y-68592053D03*
%TD*%
%TO.C,U1*%
X123271600Y-46668053D03*
X123921600Y-46668053D03*
X124581600Y-46668053D03*
X125231600Y-46668053D03*
X125231600Y-43968053D03*
X124581600Y-43968053D03*
X123921600Y-43968053D03*
X123271600Y-43968053D03*
%TD*%
%TO.C,U1*%
X111111600Y-83604053D03*
X111761600Y-83604053D03*
X112421600Y-83604053D03*
X113071600Y-83604053D03*
X113071600Y-80904053D03*
X112421600Y-80904053D03*
X111761600Y-80904053D03*
X111111600Y-80904053D03*
%TD*%
%TO.C,U1*%
X171911600Y-58980053D03*
X172561600Y-58980053D03*
X173221600Y-58980053D03*
X173871600Y-58980053D03*
X173871600Y-56280053D03*
X173221600Y-56280053D03*
X172561600Y-56280053D03*
X171911600Y-56280053D03*
%TD*%
%TO.C,U1*%
X111111600Y-46668053D03*
X111761600Y-46668053D03*
X112421600Y-46668053D03*
X113071600Y-46668053D03*
X113071600Y-43968053D03*
X112421600Y-43968053D03*
X111761600Y-43968053D03*
X111111600Y-43968053D03*
%TD*%
%TO.C,U1*%
X135431600Y-34356053D03*
X136081600Y-34356053D03*
X136741600Y-34356053D03*
X137391600Y-34356053D03*
X137391600Y-31656053D03*
X136741600Y-31656053D03*
X136081600Y-31656053D03*
X135431600Y-31656053D03*
%TD*%
%TO.C,U1*%
X147591600Y-34356053D03*
X148241600Y-34356053D03*
X148901600Y-34356053D03*
X149551600Y-34356053D03*
X149551600Y-31656053D03*
X148901600Y-31656053D03*
X148241600Y-31656053D03*
X147591600Y-31656053D03*
%TD*%
%TO.C,U1*%
X147591600Y-58980053D03*
X148241600Y-58980053D03*
X148901600Y-58980053D03*
X149551600Y-58980053D03*
X149551600Y-56280053D03*
X148901600Y-56280053D03*
X148241600Y-56280053D03*
X147591600Y-56280053D03*
%TD*%
%TO.C,U1*%
X111111600Y-34356053D03*
X111761600Y-34356053D03*
X112421600Y-34356053D03*
X113071600Y-34356053D03*
X113071600Y-31656053D03*
X112421600Y-31656053D03*
X111761600Y-31656053D03*
X111111600Y-31656053D03*
%TD*%
%TO.C,U1*%
X111111600Y-71292053D03*
X111761600Y-71292053D03*
X112421600Y-71292053D03*
X113071600Y-71292053D03*
X113071600Y-68592053D03*
X112421600Y-68592053D03*
X111761600Y-68592053D03*
X111111600Y-68592053D03*
%TD*%
%TO.C,U1*%
X135431600Y-46668053D03*
X136081600Y-46668053D03*
X136741600Y-46668053D03*
X137391600Y-46668053D03*
X137391600Y-43968053D03*
X136741600Y-43968053D03*
X136081600Y-43968053D03*
X135431600Y-43968053D03*
%TD*%
%TO.C,U1*%
X184071600Y-95916053D03*
X184721600Y-95916053D03*
X185381600Y-95916053D03*
X186031600Y-95916053D03*
X186031600Y-93216053D03*
X185381600Y-93216053D03*
X184721600Y-93216053D03*
X184071600Y-93216053D03*
%TD*%
%TO.C,U1*%
X171911600Y-71292053D03*
X172561600Y-71292053D03*
X173221600Y-71292053D03*
X173871600Y-71292053D03*
X173871600Y-68592053D03*
X173221600Y-68592053D03*
X172561600Y-68592053D03*
X171911600Y-68592053D03*
%TD*%
%TO.C,U1*%
X147591600Y-46668053D03*
X148241600Y-46668053D03*
X148901600Y-46668053D03*
X149551600Y-46668053D03*
X149551600Y-43968053D03*
X148901600Y-43968053D03*
X148241600Y-43968053D03*
X147591600Y-43968053D03*
%TD*%
%TO.C,U1*%
X147591600Y-83604053D03*
X148241600Y-83604053D03*
X148901600Y-83604053D03*
X149551600Y-83604053D03*
X149551600Y-80904053D03*
X148901600Y-80904053D03*
X148241600Y-80904053D03*
X147591600Y-80904053D03*
%TD*%
%TO.C,U1*%
X135431600Y-95916053D03*
X136081600Y-95916053D03*
X136741600Y-95916053D03*
X137391600Y-95916053D03*
X137391600Y-93216053D03*
X136741600Y-93216053D03*
X136081600Y-93216053D03*
X135431600Y-93216053D03*
%TD*%
%TO.C,U1*%
X159751600Y-83604053D03*
X160401600Y-83604053D03*
X161061600Y-83604053D03*
X161711600Y-83604053D03*
X161711600Y-80904053D03*
X161061600Y-80904053D03*
X160401600Y-80904053D03*
X159751600Y-80904053D03*
%TD*%
%TO.C,U1*%
X159751600Y-46668053D03*
X160401600Y-46668053D03*
X161061600Y-46668053D03*
X161711600Y-46668053D03*
X161711600Y-43968053D03*
X161061600Y-43968053D03*
X160401600Y-43968053D03*
X159751600Y-43968053D03*
%TD*%
%TO.C,U1*%
X159751600Y-95916053D03*
X160401600Y-95916053D03*
X161061600Y-95916053D03*
X161711600Y-95916053D03*
X161711600Y-93216053D03*
X161061600Y-93216053D03*
X160401600Y-93216053D03*
X159751600Y-93216053D03*
%TD*%
%TO.C,U1*%
X171911600Y-83604053D03*
X172561600Y-83604053D03*
X173221600Y-83604053D03*
X173871600Y-83604053D03*
X173871600Y-80904053D03*
X173221600Y-80904053D03*
X172561600Y-80904053D03*
X171911600Y-80904053D03*
%TD*%
%TO.C,U1*%
X123271600Y-83604053D03*
X123921600Y-83604053D03*
X124581600Y-83604053D03*
X125231600Y-83604053D03*
X125231600Y-80904053D03*
X124581600Y-80904053D03*
X123921600Y-80904053D03*
X123271600Y-80904053D03*
%TD*%
%TO.C,U1*%
X111111600Y-58980053D03*
X111761600Y-58980053D03*
X112421600Y-58980053D03*
X113071600Y-58980053D03*
X113071600Y-56280053D03*
X112421600Y-56280053D03*
X111761600Y-56280053D03*
X111111600Y-56280053D03*
%TD*%
%TO.C,U1*%
X159751600Y-58980053D03*
X160401600Y-58980053D03*
X161061600Y-58980053D03*
X161711600Y-58980053D03*
X161711600Y-56280053D03*
X161061600Y-56280053D03*
X160401600Y-56280053D03*
X159751600Y-56280053D03*
%TD*%
%TO.C,U1*%
X123271600Y-34356053D03*
X123921600Y-34356053D03*
X124581600Y-34356053D03*
X125231600Y-34356053D03*
X125231600Y-31656053D03*
X124581600Y-31656053D03*
X123921600Y-31656053D03*
X123271600Y-31656053D03*
%TD*%
%TO.C,U1*%
X123271600Y-58980053D03*
X123921600Y-58980053D03*
X124581600Y-58980053D03*
X125231600Y-58980053D03*
X125231600Y-56280053D03*
X124581600Y-56280053D03*
X123921600Y-56280053D03*
X123271600Y-56280053D03*
%TD*%
%TO.C,U1*%
X171911600Y-46668053D03*
X172561600Y-46668053D03*
X173221600Y-46668053D03*
X173871600Y-46668053D03*
X173871600Y-43968053D03*
X173221600Y-43968053D03*
X172561600Y-43968053D03*
X171911600Y-43968053D03*
%TD*%
%TO.C,U1*%
X135431600Y-58980053D03*
X136081600Y-58980053D03*
X136741600Y-58980053D03*
X137391600Y-58980053D03*
X137391600Y-56280053D03*
X136741600Y-56280053D03*
X136081600Y-56280053D03*
X135431600Y-56280053D03*
%TD*%
%TO.C,U1*%
X135431600Y-83604053D03*
X136081600Y-83604053D03*
X136741600Y-83604053D03*
X137391600Y-83604053D03*
X137391600Y-80904053D03*
X136741600Y-80904053D03*
X136081600Y-80904053D03*
X135431600Y-80904053D03*
%TD*%
%TO.C,U1*%
X111111600Y-95916053D03*
X111761600Y-95916053D03*
X112421600Y-95916053D03*
X113071600Y-95916053D03*
X113071600Y-93216053D03*
X112421600Y-93216053D03*
X111761600Y-93216053D03*
X111111600Y-93216053D03*
%TD*%
%TO.C,U1*%
X159751600Y-34356053D03*
X160401600Y-34356053D03*
X161061600Y-34356053D03*
X161711600Y-34356053D03*
X161711600Y-31656053D03*
X161061600Y-31656053D03*
X160401600Y-31656053D03*
X159751600Y-31656053D03*
%TD*%
%TO.C,U1*%
X171911600Y-34356053D03*
X172561600Y-34356053D03*
X173221600Y-34356053D03*
X173871600Y-34356053D03*
X173871600Y-31656053D03*
X173221600Y-31656053D03*
X172561600Y-31656053D03*
X171911600Y-31656053D03*
%TD*%
%TO.C,U1*%
X184071600Y-71292053D03*
X184721600Y-71292053D03*
X185381600Y-71292053D03*
X186031600Y-71292053D03*
X186031600Y-68592053D03*
X185381600Y-68592053D03*
X184721600Y-68592053D03*
X184071600Y-68592053D03*
%TD*%
%TO.C,U1*%
X184071600Y-58980053D03*
X184721600Y-58980053D03*
X185381600Y-58980053D03*
X186031600Y-58980053D03*
X186031600Y-56280053D03*
X185381600Y-56280053D03*
X184721600Y-56280053D03*
X184071600Y-56280053D03*
%TD*%
%TO.C,U1*%
X123271600Y-95916053D03*
X123921600Y-95916053D03*
X124581600Y-95916053D03*
X125231600Y-95916053D03*
X125231600Y-93216053D03*
X124581600Y-93216053D03*
X123921600Y-93216053D03*
X123271600Y-93216053D03*
%TD*%
%TO.C,U1*%
X147591600Y-71292053D03*
X148241600Y-71292053D03*
X148901600Y-71292053D03*
X149551600Y-71292053D03*
X149551600Y-68592053D03*
X148901600Y-68592053D03*
X148241600Y-68592053D03*
X147591600Y-68592053D03*
%TD*%
%TO.C,U1*%
X123271600Y-71292053D03*
X123921600Y-71292053D03*
X124581600Y-71292053D03*
X125231600Y-71292053D03*
X125231600Y-68592053D03*
X124581600Y-68592053D03*
X123921600Y-68592053D03*
X123271600Y-68592053D03*
%TD*%
%TO.C,U1*%
X184071600Y-46668053D03*
X184721600Y-46668053D03*
X185381600Y-46668053D03*
X186031600Y-46668053D03*
X186031600Y-43968053D03*
X185381600Y-43968053D03*
X184721600Y-43968053D03*
X184071600Y-43968053D03*
%TD*%
%TO.C,U1*%
X184071600Y-83604053D03*
X184721600Y-83604053D03*
X185381600Y-83604053D03*
X186031600Y-83604053D03*
X186031600Y-80904053D03*
X185381600Y-80904053D03*
X184721600Y-80904053D03*
X184071600Y-80904053D03*
%TD*%
M02*
