M48
; DRILL file {KiCad 9.0.7} date 2026-02-17T21:07:43-0800
; FORMAT={-:-/ absolute / metric / decimal}
; #@! TF.CreationDate,2026-02-17T21:07:43-08:00
; #@! TF.GenerationSoftware,Kicad,Pcbnew,9.0.7
; #@! TF.FileFunction,NonPlated,1,2,NPTH
FMAT,2
METRIC
; #@! TA.AperFunction,NonPlated,NPTH,ComponentDrill
T1C0.500
; #@! TA.AperFunction,NonPlated,NPTH,ComponentDrill
T2C2.000
%
G90
G05
T1
X52.906Y-49.875
X52.906Y-85.126
X52.906Y-86.876
X52.906Y-122.127
X53.656Y-49.875
X53.656Y-85.126
X53.656Y-86.876
X53.656Y-122.127
X54.406Y-49.875
X54.406Y-85.126
X54.406Y-86.876
X54.406Y-122.127
X55.156Y-49.875
X55.156Y-85.126
X55.156Y-86.876
X55.156Y-122.127
X55.906Y-49.875
X55.906Y-85.126
X55.906Y-86.876
X55.906Y-122.127
X56.656Y-49.875
X56.656Y-85.126
X56.656Y-86.876
X56.656Y-122.127
X57.406Y-49.875
X57.406Y-85.126
X57.406Y-86.876
X57.406Y-122.127
X65.219Y-49.875
X65.219Y-85.126
X65.219Y-86.876
X65.219Y-122.127
X65.969Y-49.875
X65.969Y-85.126
X65.969Y-86.876
X65.969Y-122.127
X66.719Y-49.875
X66.719Y-85.126
X66.719Y-86.876
X66.719Y-122.127
X67.469Y-49.875
X67.469Y-85.126
X67.469Y-86.876
X67.469Y-122.127
X68.219Y-49.875
X68.219Y-85.126
X68.219Y-86.876
X68.219Y-122.127
X68.969Y-49.875
X68.969Y-85.126
X68.969Y-86.876
X68.969Y-122.127
X69.719Y-49.875
X69.719Y-85.126
X69.719Y-86.876
X69.719Y-122.127
X77.531Y-49.875
X77.531Y-85.126
X77.531Y-86.876
X77.531Y-122.127
X78.281Y-49.875
X78.281Y-85.126
X78.281Y-86.876
X78.281Y-122.127
X79.031Y-49.875
X79.031Y-85.126
X79.031Y-86.876
X79.031Y-122.127
X79.781Y-49.875
X79.781Y-85.126
X79.781Y-86.876
X79.781Y-122.127
X80.531Y-49.875
X80.531Y-85.126
X80.531Y-86.876
X80.531Y-122.127
X81.281Y-49.875
X81.281Y-85.126
X81.281Y-86.876
X81.281Y-122.127
X82.031Y-49.875
X82.031Y-85.126
X82.031Y-86.876
X82.031Y-122.127
X89.843Y-49.875
X89.843Y-85.126
X89.843Y-86.876
X89.843Y-122.127
X90.593Y-49.875
X90.593Y-85.126
X90.593Y-86.876
X90.593Y-122.127
X91.343Y-49.875
X91.343Y-85.126
X91.343Y-86.876
X91.343Y-122.127
X92.093Y-49.875
X92.093Y-85.126
X92.093Y-86.876
X92.093Y-122.127
X92.843Y-49.875
X92.843Y-85.126
X92.843Y-86.876
X92.843Y-122.127
X93.593Y-49.875
X93.593Y-85.126
X93.593Y-86.876
X93.593Y-122.127
X94.343Y-49.875
X94.343Y-85.126
X94.343Y-86.876
X94.343Y-122.127
X103.426Y-49.875
X103.426Y-91.109
X103.426Y-92.859
X103.426Y-134.094
X104.176Y-49.875
X104.176Y-91.109
X104.176Y-92.859
X104.176Y-134.094
X104.926Y-49.875
X104.926Y-91.109
X104.926Y-92.859
X104.926Y-134.094
X105.676Y-49.875
X105.676Y-91.109
X105.676Y-92.859
X105.676Y-134.094
X106.426Y-49.875
X106.426Y-91.109
X106.426Y-92.859
X106.426Y-134.094
X107.176Y-49.875
X107.176Y-91.109
X107.176Y-92.859
X107.176Y-134.094
X107.926Y-49.875
X107.926Y-91.109
X107.926Y-92.859
X107.926Y-134.094
X118.278Y-49.875
X118.278Y-91.109
X118.278Y-92.859
X118.278Y-134.094
X119.028Y-49.875
X119.028Y-91.109
X119.028Y-92.859
X119.028Y-134.094
X119.778Y-49.875
X119.778Y-91.109
X119.778Y-92.859
X119.778Y-134.094
X120.528Y-49.875
X120.528Y-91.109
X120.528Y-92.859
X120.528Y-134.094
X121.278Y-49.875
X121.278Y-91.109
X121.278Y-92.859
X121.278Y-134.094
X122.028Y-49.875
X122.028Y-91.109
X122.028Y-92.859
X122.028Y-134.094
X122.778Y-49.875
X122.778Y-91.109
X122.778Y-92.859
X122.778Y-134.094
X133.131Y-49.875
X133.131Y-91.109
X133.131Y-92.859
X133.131Y-134.094
X133.881Y-49.875
X133.881Y-91.109
X133.881Y-92.859
X133.881Y-134.094
X134.631Y-49.875
X134.631Y-91.109
X134.631Y-92.859
X134.631Y-134.094
X135.381Y-49.875
X135.381Y-91.109
X135.381Y-92.859
X135.381Y-134.094
X136.131Y-49.875
X136.131Y-91.109
X136.131Y-92.859
X136.131Y-134.094
X136.881Y-49.875
X136.881Y-91.109
X136.881Y-92.859
X136.881Y-134.094
X137.631Y-49.875
X137.631Y-91.109
X137.631Y-92.859
X137.631Y-134.094
T2
X53.0Y-45.0
X53.0Y-138.469
X138.807Y-45.0
X138.807Y-138.469
M30
