M48
; DRILL file {KiCad 9.0.7} date 2026-02-17T21:07:43-0800
; FORMAT={-:-/ absolute / metric / decimal}
; #@! TF.CreationDate,2026-02-17T21:07:43-08:00
; #@! TF.GenerationSoftware,Kicad,Pcbnew,9.0.7
; #@! TF.FileFunction,Plated,1,2,PTH
FMAT,2
METRIC
; #@! TA.AperFunction,Plated,PTH,ViaDrill
T1C0.300
; #@! TA.AperFunction,Plated,PTH,ComponentDrill
T2C1.000
; #@! TA.AperFunction,Plated,PTH,ComponentDrill
T3C1.143
%
G90
G05
T1
X50.914Y-59.363
X50.914Y-96.365
X51.48Y-58.798
X51.48Y-95.799
X52.438Y-54.41
X52.438Y-91.412
X52.692Y-59.617
X52.692Y-96.619
X53.073Y-65.332
X53.073Y-102.334
X53.292Y-66.348
X53.292Y-103.35
X53.454Y-59.109
X53.454Y-80.318
X53.454Y-96.111
X53.454Y-117.32
X53.693Y-67.077
X53.693Y-104.078
X53.835Y-79.175
X53.835Y-116.177
X54.094Y-67.872
X54.094Y-77.143
X54.094Y-104.874
X54.094Y-114.145
X54.47Y-56.315
X54.47Y-93.317
X54.495Y-68.761
X54.495Y-73.079
X54.495Y-105.763
X54.495Y-110.081
X54.978Y-59.109
X54.978Y-96.111
X55.994Y-59.49
X55.994Y-96.492
X56.756Y-53.775
X56.756Y-90.777
X57.264Y-56.188
X57.264Y-57.331
X57.264Y-93.19
X57.264Y-94.333
X59.169Y-58.22
X59.169Y-95.222
X63.227Y-59.363
X63.227Y-96.365
X63.792Y-58.798
X63.792Y-95.799
X64.751Y-54.41
X64.751Y-91.412
X65.005Y-59.617
X65.005Y-96.619
X65.386Y-65.332
X65.386Y-102.334
X65.605Y-66.348
X65.605Y-103.35
X65.767Y-59.109
X65.767Y-80.318
X65.767Y-96.111
X65.767Y-117.32
X66.006Y-67.077
X66.006Y-104.078
X66.148Y-79.175
X66.148Y-116.177
X66.407Y-67.872
X66.407Y-77.143
X66.407Y-104.874
X66.407Y-114.145
X66.783Y-56.315
X66.783Y-93.317
X66.808Y-68.761
X66.808Y-73.079
X66.808Y-105.763
X66.808Y-110.081
X67.291Y-59.109
X67.291Y-96.111
X68.307Y-59.49
X68.307Y-96.492
X69.069Y-53.775
X69.069Y-90.777
X69.577Y-56.188
X69.577Y-57.331
X69.577Y-93.19
X69.577Y-94.333
X71.482Y-58.22
X71.482Y-95.222
X75.539Y-59.363
X75.539Y-96.365
X76.105Y-58.798
X76.105Y-95.799
X77.063Y-54.41
X77.063Y-91.412
X77.317Y-59.617
X77.317Y-96.619
X77.698Y-65.332
X77.698Y-102.334
X77.917Y-66.348
X77.917Y-103.35
X78.079Y-59.109
X78.079Y-80.318
X78.079Y-96.111
X78.079Y-117.32
X78.318Y-67.077
X78.318Y-104.078
X78.46Y-79.175
X78.46Y-116.177
X78.719Y-67.872
X78.719Y-77.143
X78.719Y-104.874
X78.719Y-114.145
X79.095Y-56.315
X79.095Y-93.317
X79.12Y-68.761
X79.12Y-73.079
X79.12Y-105.763
X79.12Y-110.081
X79.603Y-59.109
X79.603Y-96.111
X80.619Y-59.49
X80.619Y-96.492
X81.381Y-53.775
X81.381Y-90.777
X81.889Y-56.188
X81.889Y-57.331
X81.889Y-93.19
X81.889Y-94.333
X83.794Y-58.22
X83.794Y-95.222
X87.852Y-59.363
X87.852Y-96.365
X88.417Y-58.798
X88.417Y-95.799
X89.376Y-54.41
X89.376Y-91.412
X89.63Y-59.617
X89.63Y-96.619
X90.011Y-65.332
X90.011Y-102.334
X90.23Y-66.348
X90.23Y-103.35
X90.392Y-59.109
X90.392Y-80.318
X90.392Y-96.111
X90.392Y-117.32
X90.631Y-67.077
X90.631Y-104.078
X90.773Y-79.175
X90.773Y-116.177
X91.032Y-67.872
X91.032Y-77.143
X91.032Y-104.874
X91.032Y-114.145
X91.408Y-56.315
X91.408Y-93.317
X91.433Y-68.761
X91.433Y-73.079
X91.433Y-105.763
X91.433Y-110.081
X91.916Y-59.109
X91.916Y-96.111
X92.932Y-59.49
X92.932Y-96.492
X93.694Y-53.775
X93.694Y-90.777
X94.202Y-56.188
X94.202Y-57.331
X94.202Y-93.19
X94.202Y-94.333
X96.107Y-58.22
X96.107Y-95.222
X102.838Y-85.814
X102.838Y-128.798
X102.848Y-52.794
X102.848Y-95.778
X103.356Y-83.528
X103.356Y-126.512
X103.74Y-80.861
X103.74Y-123.845
X104.235Y-79.083
X104.235Y-122.067
X104.372Y-55.461
X104.372Y-98.445
X104.686Y-77.686
X104.686Y-120.67
X105.137Y-74.003
X105.137Y-116.987
X105.769Y-72.86
X105.769Y-115.844
X105.918Y-68.669
X105.918Y-111.653
X106.319Y-71.463
X106.319Y-114.447
X106.379Y-74.765
X106.379Y-117.749
X106.78Y-76.543
X106.78Y-119.527
X107.181Y-79.083
X107.181Y-122.067
X107.547Y-81.623
X107.547Y-124.607
X108.09Y-82.893
X108.09Y-125.877
X108.69Y-53.048
X108.69Y-54.318
X108.69Y-55.588
X108.69Y-56.858
X108.69Y-58.128
X108.69Y-59.525
X108.69Y-61.049
X108.69Y-62.446
X108.69Y-85.56
X108.69Y-96.032
X108.69Y-97.302
X108.69Y-98.572
X108.69Y-99.842
X108.69Y-101.112
X108.69Y-102.509
X108.69Y-104.033
X108.69Y-105.43
X108.69Y-128.544
X110.087Y-64.351
X110.087Y-107.335
X117.69Y-85.814
X117.69Y-128.798
X117.7Y-52.794
X117.7Y-95.778
X118.208Y-83.528
X118.208Y-126.512
X118.592Y-80.861
X118.592Y-123.845
X119.087Y-79.083
X119.087Y-122.067
X119.224Y-55.461
X119.224Y-98.445
X119.538Y-77.686
X119.538Y-120.67
X119.989Y-74.003
X119.989Y-116.987
X120.621Y-72.86
X120.621Y-115.844
X120.77Y-68.669
X120.77Y-111.653
X121.171Y-71.463
X121.171Y-114.447
X121.231Y-74.765
X121.231Y-117.749
X121.632Y-76.543
X121.632Y-119.527
X122.033Y-79.083
X122.033Y-122.067
X122.399Y-81.623
X122.399Y-124.607
X122.942Y-82.893
X122.942Y-125.877
X123.542Y-53.048
X123.542Y-54.318
X123.542Y-55.588
X123.542Y-56.858
X123.542Y-58.128
X123.542Y-59.525
X123.542Y-61.049
X123.542Y-62.446
X123.542Y-85.56
X123.542Y-96.032
X123.542Y-97.302
X123.542Y-98.572
X123.542Y-99.842
X123.542Y-101.112
X123.542Y-102.509
X123.542Y-104.033
X123.542Y-105.43
X123.542Y-128.544
X124.939Y-64.351
X124.939Y-107.335
X132.543Y-85.814
X132.543Y-128.798
X132.553Y-52.794
X132.553Y-95.778
X133.061Y-83.528
X133.061Y-126.512
X133.445Y-80.861
X133.445Y-123.845
X133.94Y-79.083
X133.94Y-122.067
X134.077Y-55.461
X134.077Y-98.445
X134.391Y-77.686
X134.391Y-120.67
X134.842Y-74.003
X134.842Y-116.987
X135.474Y-72.86
X135.474Y-115.844
X135.623Y-68.669
X135.623Y-111.653
X136.024Y-71.463
X136.024Y-114.447
X136.084Y-74.765
X136.084Y-117.749
X136.485Y-76.543
X136.485Y-119.527
X136.886Y-79.083
X136.886Y-122.067
X137.252Y-81.623
X137.252Y-124.607
X137.795Y-82.893
X137.795Y-125.877
X138.395Y-53.048
X138.395Y-54.318
X138.395Y-55.588
X138.395Y-56.858
X138.395Y-58.128
X138.395Y-59.525
X138.395Y-61.049
X138.395Y-62.446
X138.395Y-85.56
X138.395Y-96.032
X138.395Y-97.302
X138.395Y-98.572
X138.395Y-99.842
X138.395Y-101.112
X138.395Y-102.509
X138.395Y-104.033
X138.395Y-105.43
X138.395Y-128.544
X139.792Y-64.351
X139.792Y-107.335
T2
X51.295Y-65.84
X51.295Y-68.38
X51.295Y-70.92
X51.295Y-73.46
X51.295Y-76.0
X51.295Y-78.54
X51.295Y-81.08
X51.295Y-83.62
X51.295Y-102.842
X51.295Y-105.382
X51.295Y-107.922
X51.295Y-110.462
X51.295Y-113.002
X51.295Y-115.542
X51.295Y-118.082
X51.295Y-120.622
X58.915Y-65.84
X58.915Y-68.38
X58.915Y-70.92
X58.915Y-73.46
X58.915Y-76.0
X58.915Y-78.54
X58.915Y-81.08
X58.915Y-83.62
X58.915Y-102.842
X58.915Y-105.382
X58.915Y-107.922
X58.915Y-110.462
X58.915Y-113.002
X58.915Y-115.542
X58.915Y-118.082
X58.915Y-120.622
X63.608Y-65.84
X63.608Y-68.38
X63.608Y-70.92
X63.608Y-73.46
X63.608Y-76.0
X63.608Y-78.54
X63.608Y-81.08
X63.608Y-83.62
X63.608Y-102.842
X63.608Y-105.382
X63.608Y-107.922
X63.608Y-110.462
X63.608Y-113.002
X63.608Y-115.542
X63.608Y-118.082
X63.608Y-120.622
X71.228Y-65.84
X71.228Y-68.38
X71.228Y-70.92
X71.228Y-73.46
X71.228Y-76.0
X71.228Y-78.54
X71.228Y-81.08
X71.228Y-83.62
X71.228Y-102.842
X71.228Y-105.382
X71.228Y-107.922
X71.228Y-110.462
X71.228Y-113.002
X71.228Y-115.542
X71.228Y-118.082
X71.228Y-120.622
X75.92Y-65.84
X75.92Y-68.38
X75.92Y-70.92
X75.92Y-73.46
X75.92Y-76.0
X75.92Y-78.54
X75.92Y-81.08
X75.92Y-83.62
X75.92Y-102.842
X75.92Y-105.382
X75.92Y-107.922
X75.92Y-110.462
X75.92Y-113.002
X75.92Y-115.542
X75.92Y-118.082
X75.92Y-120.622
X83.54Y-65.84
X83.54Y-68.38
X83.54Y-70.92
X83.54Y-73.46
X83.54Y-76.0
X83.54Y-78.54
X83.54Y-81.08
X83.54Y-83.62
X83.54Y-102.842
X83.54Y-105.382
X83.54Y-107.922
X83.54Y-110.462
X83.54Y-113.002
X83.54Y-115.542
X83.54Y-118.082
X83.54Y-120.622
X88.233Y-65.84
X88.233Y-68.38
X88.233Y-70.92
X88.233Y-73.46
X88.233Y-76.0
X88.233Y-78.54
X88.233Y-81.08
X88.233Y-83.62
X88.233Y-102.842
X88.233Y-105.382
X88.233Y-107.922
X88.233Y-110.462
X88.233Y-113.002
X88.233Y-115.542
X88.233Y-118.082
X88.233Y-120.622
X95.853Y-65.84
X95.853Y-68.38
X95.853Y-70.92
X95.853Y-73.46
X95.853Y-76.0
X95.853Y-78.54
X95.853Y-81.08
X95.853Y-83.62
X95.853Y-102.842
X95.853Y-105.382
X95.853Y-107.922
X95.853Y-110.462
X95.853Y-113.002
X95.853Y-115.542
X95.853Y-118.082
X95.853Y-120.622
X100.588Y-66.383
X100.588Y-68.923
X100.588Y-71.463
X100.588Y-74.003
X100.588Y-76.543
X100.588Y-79.083
X100.588Y-81.623
X100.588Y-84.163
X100.588Y-86.703
X100.588Y-89.243
X100.588Y-109.367
X100.588Y-111.907
X100.588Y-114.447
X100.588Y-116.987
X100.588Y-119.527
X100.588Y-122.067
X100.588Y-124.607
X100.588Y-127.147
X100.588Y-129.687
X100.588Y-132.227
X110.748Y-66.383
X110.748Y-68.923
X110.748Y-71.463
X110.748Y-74.003
X110.748Y-76.543
X110.748Y-79.083
X110.748Y-81.623
X110.748Y-84.163
X110.748Y-86.703
X110.748Y-89.243
X110.748Y-109.367
X110.748Y-111.907
X110.748Y-114.447
X110.748Y-116.987
X110.748Y-119.527
X110.748Y-122.067
X110.748Y-124.607
X110.748Y-127.147
X110.748Y-129.687
X110.748Y-132.227
X115.44Y-66.383
X115.44Y-68.923
X115.44Y-71.463
X115.44Y-74.003
X115.44Y-76.543
X115.44Y-79.083
X115.44Y-81.623
X115.44Y-84.163
X115.44Y-86.703
X115.44Y-89.243
X115.44Y-109.367
X115.44Y-111.907
X115.44Y-114.447
X115.44Y-116.987
X115.44Y-119.527
X115.44Y-122.067
X115.44Y-124.607
X115.44Y-127.147
X115.44Y-129.687
X115.44Y-132.227
X125.6Y-66.383
X125.6Y-68.923
X125.6Y-71.463
X125.6Y-74.003
X125.6Y-76.543
X125.6Y-79.083
X125.6Y-81.623
X125.6Y-84.163
X125.6Y-86.703
X125.6Y-89.243
X125.6Y-109.367
X125.6Y-111.907
X125.6Y-114.447
X125.6Y-116.987
X125.6Y-119.527
X125.6Y-122.067
X125.6Y-124.607
X125.6Y-127.147
X125.6Y-129.687
X125.6Y-132.227
X130.292Y-66.383
X130.292Y-68.923
X130.292Y-71.463
X130.292Y-74.003
X130.292Y-76.543
X130.292Y-79.083
X130.292Y-81.623
X130.292Y-84.163
X130.292Y-86.703
X130.292Y-89.243
X130.292Y-109.367
X130.292Y-111.907
X130.292Y-114.447
X130.292Y-116.987
X130.292Y-119.527
X130.292Y-122.067
X130.292Y-124.607
X130.292Y-127.147
X130.292Y-129.687
X130.292Y-132.227
X140.452Y-66.383
X140.452Y-68.923
X140.452Y-71.463
X140.452Y-74.003
X140.452Y-76.543
X140.452Y-79.083
X140.452Y-81.623
X140.452Y-84.163
X140.452Y-86.703
X140.452Y-89.243
X140.452Y-109.367
X140.452Y-111.907
X140.452Y-114.447
X140.452Y-116.987
X140.452Y-119.527
X140.452Y-122.067
X140.452Y-124.607
X140.452Y-127.147
X140.452Y-129.687
X140.452Y-132.227
T3
X55.105Y-82.985
X55.105Y-119.987
X67.418Y-82.985
X67.418Y-119.987
X79.73Y-82.985
X79.73Y-119.987
X92.043Y-82.985
X92.043Y-119.987
M30
