%TF.GenerationSoftware,KiCad,Pcbnew,9.0.7*%
%TF.CreationDate,2026-02-17T21:07:26-08:00*%
%TF.ProjectId,soic-dw-panel,736f6963-2d64-4772-9d70-616e656c2e6b,rev?*%
%TF.SameCoordinates,Original*%
%TF.FileFunction,Paste,Top*%
%TF.FilePolarity,Positive*%
%FSLAX46Y46*%
G04 Gerber Fmt 4.6, Leading zero omitted, Abs format (unit mm)*
G04 Created by KiCad (PCBNEW 9.0.7) date 2026-02-17 21:07:26*
%MOMM*%
%LPD*%
G01*
G04 APERTURE LIST*
G04 Aperture macros list*
%AMRoundRect*
0 Rectangle with rounded corners*
0 $1 Rounding radius*
0 $2 $3 $4 $5 $6 $7 $8 $9 X,Y pos of 4 corners*
0 Add a 4 corners polygon primitive as box body*
4,1,4,$2,$3,$4,$5,$6,$7,$8,$9,$2,$3,0*
0 Add four circle primitives for the rounded corners*
1,1,$1+$1,$2,$3*
1,1,$1+$1,$4,$5*
1,1,$1+$1,$6,$7*
1,1,$1+$1,$8,$9*
0 Add four rect primitives between the rounded corners*
20,1,$1+$1,$2,$3,$4,$5,0*
20,1,$1+$1,$4,$5,$6,$7,0*
20,1,$1+$1,$6,$7,$8,$9,0*
20,1,$1+$1,$8,$9,$2,$3,0*%
G04 Aperture macros list end*
%ADD10RoundRect,0.042000X-0.988000X-0.258000X0.988000X-0.258000X0.988000X0.258000X-0.988000X0.258000X0*%
%ADD11RoundRect,0.042000X-0.258000X0.988000X-0.258000X-0.988000X0.258000X-0.988000X0.258000X0.988000X0*%
G04 APERTURE END LIST*
D10*
%TO.C,U2*%
X115888200Y-94762372D03*
X115888200Y-96032372D03*
X115888200Y-97302372D03*
X115888200Y-98572372D03*
X115888200Y-99842372D03*
X115888200Y-101112372D03*
X115888200Y-102382372D03*
X115888200Y-103652372D03*
X115888200Y-104922372D03*
X115888200Y-106192372D03*
X125168200Y-106192372D03*
X125168200Y-104922372D03*
X125168200Y-103652372D03*
X125168200Y-102382372D03*
X125168200Y-101112372D03*
X125168200Y-99842372D03*
X125168200Y-98572372D03*
X125168200Y-97302372D03*
X125168200Y-96032372D03*
X125168200Y-94762372D03*
%TD*%
%TO.C,U2*%
X101035800Y-94762372D03*
X101035800Y-96032372D03*
X101035800Y-97302372D03*
X101035800Y-98572372D03*
X101035800Y-99842372D03*
X101035800Y-101112372D03*
X101035800Y-102382372D03*
X101035800Y-103652372D03*
X101035800Y-104922372D03*
X101035800Y-106192372D03*
X110315800Y-106192372D03*
X110315800Y-104922372D03*
X110315800Y-103652372D03*
X110315800Y-102382372D03*
X110315800Y-101112372D03*
X110315800Y-99842372D03*
X110315800Y-98572372D03*
X110315800Y-97302372D03*
X110315800Y-96032372D03*
X110315800Y-94762372D03*
%TD*%
D11*
%TO.C,U1*%
X59602400Y-52056400D03*
X58332400Y-52056400D03*
X57062400Y-52056400D03*
X55792400Y-52056400D03*
X54522400Y-52056400D03*
X53252400Y-52056400D03*
X51982400Y-52056400D03*
X50712400Y-52056400D03*
X50712400Y-61336400D03*
X51982400Y-61336400D03*
X53252400Y-61336400D03*
X54522400Y-61336400D03*
X55792400Y-61336400D03*
X57062400Y-61336400D03*
X58332400Y-61336400D03*
X59602400Y-61336400D03*
%TD*%
%TO.C,U1*%
X96539600Y-52056400D03*
X95269600Y-52056400D03*
X93999600Y-52056400D03*
X92729600Y-52056400D03*
X91459600Y-52056400D03*
X90189600Y-52056400D03*
X88919600Y-52056400D03*
X87649600Y-52056400D03*
X87649600Y-61336400D03*
X88919600Y-61336400D03*
X90189600Y-61336400D03*
X91459600Y-61336400D03*
X92729600Y-61336400D03*
X93999600Y-61336400D03*
X95269600Y-61336400D03*
X96539600Y-61336400D03*
%TD*%
%TO.C,U1*%
X71914800Y-52056400D03*
X70644800Y-52056400D03*
X69374800Y-52056400D03*
X68104800Y-52056400D03*
X66834800Y-52056400D03*
X65564800Y-52056400D03*
X64294800Y-52056400D03*
X63024800Y-52056400D03*
X63024800Y-61336400D03*
X64294800Y-61336400D03*
X65564800Y-61336400D03*
X66834800Y-61336400D03*
X68104800Y-61336400D03*
X69374800Y-61336400D03*
X70644800Y-61336400D03*
X71914800Y-61336400D03*
%TD*%
%TO.C,U1*%
X71914800Y-89057600D03*
X70644800Y-89057600D03*
X69374800Y-89057600D03*
X68104800Y-89057600D03*
X66834800Y-89057600D03*
X65564800Y-89057600D03*
X64294800Y-89057600D03*
X63024800Y-89057600D03*
X63024800Y-98337600D03*
X64294800Y-98337600D03*
X65564800Y-98337600D03*
X66834800Y-98337600D03*
X68104800Y-98337600D03*
X69374800Y-98337600D03*
X70644800Y-98337600D03*
X71914800Y-98337600D03*
%TD*%
%TO.C,U1*%
X59602400Y-89057600D03*
X58332400Y-89057600D03*
X57062400Y-89057600D03*
X55792400Y-89057600D03*
X54522400Y-89057600D03*
X53252400Y-89057600D03*
X51982400Y-89057600D03*
X50712400Y-89057600D03*
X50712400Y-98337600D03*
X51982400Y-98337600D03*
X53252400Y-98337600D03*
X54522400Y-98337600D03*
X55792400Y-98337600D03*
X57062400Y-98337600D03*
X58332400Y-98337600D03*
X59602400Y-98337600D03*
%TD*%
D10*
%TO.C,U2*%
X130740600Y-94762372D03*
X130740600Y-96032372D03*
X130740600Y-97302372D03*
X130740600Y-98572372D03*
X130740600Y-99842372D03*
X130740600Y-101112372D03*
X130740600Y-102382372D03*
X130740600Y-103652372D03*
X130740600Y-104922372D03*
X130740600Y-106192372D03*
X140020600Y-106192372D03*
X140020600Y-104922372D03*
X140020600Y-103652372D03*
X140020600Y-102382372D03*
X140020600Y-101112372D03*
X140020600Y-99842372D03*
X140020600Y-98572372D03*
X140020600Y-97302372D03*
X140020600Y-96032372D03*
X140020600Y-94762372D03*
%TD*%
D11*
%TO.C,U1*%
X84227200Y-89057600D03*
X82957200Y-89057600D03*
X81687200Y-89057600D03*
X80417200Y-89057600D03*
X79147200Y-89057600D03*
X77877200Y-89057600D03*
X76607200Y-89057600D03*
X75337200Y-89057600D03*
X75337200Y-98337600D03*
X76607200Y-98337600D03*
X77877200Y-98337600D03*
X79147200Y-98337600D03*
X80417200Y-98337600D03*
X81687200Y-98337600D03*
X82957200Y-98337600D03*
X84227200Y-98337600D03*
%TD*%
%TO.C,U1*%
X84227200Y-52056400D03*
X82957200Y-52056400D03*
X81687200Y-52056400D03*
X80417200Y-52056400D03*
X79147200Y-52056400D03*
X77877200Y-52056400D03*
X76607200Y-52056400D03*
X75337200Y-52056400D03*
X75337200Y-61336400D03*
X76607200Y-61336400D03*
X77877200Y-61336400D03*
X79147200Y-61336400D03*
X80417200Y-61336400D03*
X81687200Y-61336400D03*
X82957200Y-61336400D03*
X84227200Y-61336400D03*
%TD*%
%TO.C,U1*%
X96539600Y-89057600D03*
X95269600Y-89057600D03*
X93999600Y-89057600D03*
X92729600Y-89057600D03*
X91459600Y-89057600D03*
X90189600Y-89057600D03*
X88919600Y-89057600D03*
X87649600Y-89057600D03*
X87649600Y-98337600D03*
X88919600Y-98337600D03*
X90189600Y-98337600D03*
X91459600Y-98337600D03*
X92729600Y-98337600D03*
X93999600Y-98337600D03*
X95269600Y-98337600D03*
X96539600Y-98337600D03*
%TD*%
D10*
%TO.C,U2*%
X101035800Y-51778000D03*
X101035800Y-53048000D03*
X101035800Y-54318000D03*
X101035800Y-55588000D03*
X101035800Y-56858000D03*
X101035800Y-58128000D03*
X101035800Y-59398000D03*
X101035800Y-60668000D03*
X101035800Y-61938000D03*
X101035800Y-63208000D03*
X110315800Y-63208000D03*
X110315800Y-61938000D03*
X110315800Y-60668000D03*
X110315800Y-59398000D03*
X110315800Y-58128000D03*
X110315800Y-56858000D03*
X110315800Y-55588000D03*
X110315800Y-54318000D03*
X110315800Y-53048000D03*
X110315800Y-51778000D03*
%TD*%
%TO.C,U2*%
X130740600Y-51778000D03*
X130740600Y-53048000D03*
X130740600Y-54318000D03*
X130740600Y-55588000D03*
X130740600Y-56858000D03*
X130740600Y-58128000D03*
X130740600Y-59398000D03*
X130740600Y-60668000D03*
X130740600Y-61938000D03*
X130740600Y-63208000D03*
X140020600Y-63208000D03*
X140020600Y-61938000D03*
X140020600Y-60668000D03*
X140020600Y-59398000D03*
X140020600Y-58128000D03*
X140020600Y-56858000D03*
X140020600Y-55588000D03*
X140020600Y-54318000D03*
X140020600Y-53048000D03*
X140020600Y-51778000D03*
%TD*%
%TO.C,U2*%
X115888200Y-51778000D03*
X115888200Y-53048000D03*
X115888200Y-54318000D03*
X115888200Y-55588000D03*
X115888200Y-56858000D03*
X115888200Y-58128000D03*
X115888200Y-59398000D03*
X115888200Y-60668000D03*
X115888200Y-61938000D03*
X115888200Y-63208000D03*
X125168200Y-63208000D03*
X125168200Y-61938000D03*
X125168200Y-60668000D03*
X125168200Y-59398000D03*
X125168200Y-58128000D03*
X125168200Y-56858000D03*
X125168200Y-55588000D03*
X125168200Y-54318000D03*
X125168200Y-53048000D03*
X125168200Y-51778000D03*
%TD*%
M02*
