%TF.GenerationSoftware,KiCad,Pcbnew,9.0.7*%
%TF.CreationDate,2026-02-17T21:07:26-08:00*%
%TF.ProjectId,soic-dw-panel,736f6963-2d64-4772-9d70-616e656c2e6b,rev?*%
%TF.SameCoordinates,Original*%
%TF.FileFunction,Legend,Bot*%
%TF.FilePolarity,Positive*%
%FSLAX46Y46*%
G04 Gerber Fmt 4.6, Leading zero omitted, Abs format (unit mm)*
G04 Created by KiCad (PCBNEW 9.0.7) date 2026-02-17 21:07:26*
%MOMM*%
%LPD*%
G01*
G04 APERTURE LIST*
%ADD10C,0.150000*%
%ADD11C,0.500000*%
%ADD12C,1.500000*%
%ADD13C,2.000000*%
%ADD14R,1.700000X1.700000*%
%ADD15C,1.700000*%
G04 APERTURE END LIST*
D10*
X69523619Y-115306828D02*
X69047428Y-114973495D01*
X69523619Y-114735400D02*
X68523619Y-114735400D01*
X68523619Y-114735400D02*
X68523619Y-115116352D01*
X68523619Y-115116352D02*
X68571238Y-115211590D01*
X68571238Y-115211590D02*
X68618857Y-115259209D01*
X68618857Y-115259209D02*
X68714095Y-115306828D01*
X68714095Y-115306828D02*
X68856952Y-115306828D01*
X68856952Y-115306828D02*
X68952190Y-115259209D01*
X68952190Y-115259209D02*
X68999809Y-115211590D01*
X68999809Y-115211590D02*
X69047428Y-115116352D01*
X69047428Y-115116352D02*
X69047428Y-114735400D01*
X68999809Y-115735400D02*
X68999809Y-116068733D01*
X69523619Y-116211590D02*
X69523619Y-115735400D01*
X69523619Y-115735400D02*
X68523619Y-115735400D01*
X68523619Y-115735400D02*
X68523619Y-116211590D01*
X68523619Y-116497305D02*
X69523619Y-116830638D01*
X69523619Y-116830638D02*
X68523619Y-117163971D01*
X69523619Y-118783019D02*
X69523619Y-118211591D01*
X69523619Y-118497305D02*
X68523619Y-118497305D01*
X68523619Y-118497305D02*
X68666476Y-118402067D01*
X68666476Y-118402067D02*
X68761714Y-118306829D01*
X68761714Y-118306829D02*
X68809333Y-118211591D01*
X94148419Y-115306828D02*
X93672228Y-114973495D01*
X94148419Y-114735400D02*
X93148419Y-114735400D01*
X93148419Y-114735400D02*
X93148419Y-115116352D01*
X93148419Y-115116352D02*
X93196038Y-115211590D01*
X93196038Y-115211590D02*
X93243657Y-115259209D01*
X93243657Y-115259209D02*
X93338895Y-115306828D01*
X93338895Y-115306828D02*
X93481752Y-115306828D01*
X93481752Y-115306828D02*
X93576990Y-115259209D01*
X93576990Y-115259209D02*
X93624609Y-115211590D01*
X93624609Y-115211590D02*
X93672228Y-115116352D01*
X93672228Y-115116352D02*
X93672228Y-114735400D01*
X93624609Y-115735400D02*
X93624609Y-116068733D01*
X94148419Y-116211590D02*
X94148419Y-115735400D01*
X94148419Y-115735400D02*
X93148419Y-115735400D01*
X93148419Y-115735400D02*
X93148419Y-116211590D01*
X93148419Y-116497305D02*
X94148419Y-116830638D01*
X94148419Y-116830638D02*
X93148419Y-117163971D01*
X94148419Y-118783019D02*
X94148419Y-118211591D01*
X94148419Y-118497305D02*
X93148419Y-118497305D01*
X93148419Y-118497305D02*
X93291276Y-118402067D01*
X93291276Y-118402067D02*
X93386514Y-118306829D01*
X93386514Y-118306829D02*
X93434133Y-118211591D01*
X138570247Y-129732000D02*
X138094056Y-129398667D01*
X138570247Y-129160572D02*
X137570247Y-129160572D01*
X137570247Y-129160572D02*
X137570247Y-129541524D01*
X137570247Y-129541524D02*
X137617866Y-129636762D01*
X137617866Y-129636762D02*
X137665485Y-129684381D01*
X137665485Y-129684381D02*
X137760723Y-129732000D01*
X137760723Y-129732000D02*
X137903580Y-129732000D01*
X137903580Y-129732000D02*
X137998818Y-129684381D01*
X137998818Y-129684381D02*
X138046437Y-129636762D01*
X138046437Y-129636762D02*
X138094056Y-129541524D01*
X138094056Y-129541524D02*
X138094056Y-129160572D01*
X138046437Y-130160572D02*
X138046437Y-130493905D01*
X138570247Y-130636762D02*
X138570247Y-130160572D01*
X138570247Y-130160572D02*
X137570247Y-130160572D01*
X137570247Y-130160572D02*
X137570247Y-130636762D01*
X137570247Y-130922477D02*
X138570247Y-131255810D01*
X138570247Y-131255810D02*
X137570247Y-131589143D01*
X138570247Y-133208191D02*
X138570247Y-132636763D01*
X138570247Y-132922477D02*
X137570247Y-132922477D01*
X137570247Y-132922477D02*
X137713104Y-132827239D01*
X137713104Y-132827239D02*
X137808342Y-132732001D01*
X137808342Y-132732001D02*
X137855961Y-132636763D01*
X123717847Y-129732000D02*
X123241656Y-129398667D01*
X123717847Y-129160572D02*
X122717847Y-129160572D01*
X122717847Y-129160572D02*
X122717847Y-129541524D01*
X122717847Y-129541524D02*
X122765466Y-129636762D01*
X122765466Y-129636762D02*
X122813085Y-129684381D01*
X122813085Y-129684381D02*
X122908323Y-129732000D01*
X122908323Y-129732000D02*
X123051180Y-129732000D01*
X123051180Y-129732000D02*
X123146418Y-129684381D01*
X123146418Y-129684381D02*
X123194037Y-129636762D01*
X123194037Y-129636762D02*
X123241656Y-129541524D01*
X123241656Y-129541524D02*
X123241656Y-129160572D01*
X123194037Y-130160572D02*
X123194037Y-130493905D01*
X123717847Y-130636762D02*
X123717847Y-130160572D01*
X123717847Y-130160572D02*
X122717847Y-130160572D01*
X122717847Y-130160572D02*
X122717847Y-130636762D01*
X122717847Y-130922477D02*
X123717847Y-131255810D01*
X123717847Y-131255810D02*
X122717847Y-131589143D01*
X123717847Y-133208191D02*
X123717847Y-132636763D01*
X123717847Y-132922477D02*
X122717847Y-132922477D01*
X122717847Y-132922477D02*
X122860704Y-132827239D01*
X122860704Y-132827239D02*
X122955942Y-132732001D01*
X122955942Y-132732001D02*
X123003561Y-132636763D01*
X81836019Y-115306828D02*
X81359828Y-114973495D01*
X81836019Y-114735400D02*
X80836019Y-114735400D01*
X80836019Y-114735400D02*
X80836019Y-115116352D01*
X80836019Y-115116352D02*
X80883638Y-115211590D01*
X80883638Y-115211590D02*
X80931257Y-115259209D01*
X80931257Y-115259209D02*
X81026495Y-115306828D01*
X81026495Y-115306828D02*
X81169352Y-115306828D01*
X81169352Y-115306828D02*
X81264590Y-115259209D01*
X81264590Y-115259209D02*
X81312209Y-115211590D01*
X81312209Y-115211590D02*
X81359828Y-115116352D01*
X81359828Y-115116352D02*
X81359828Y-114735400D01*
X81312209Y-115735400D02*
X81312209Y-116068733D01*
X81836019Y-116211590D02*
X81836019Y-115735400D01*
X81836019Y-115735400D02*
X80836019Y-115735400D01*
X80836019Y-115735400D02*
X80836019Y-116211590D01*
X80836019Y-116497305D02*
X81836019Y-116830638D01*
X81836019Y-116830638D02*
X80836019Y-117163971D01*
X81836019Y-118783019D02*
X81836019Y-118211591D01*
X81836019Y-118497305D02*
X80836019Y-118497305D01*
X80836019Y-118497305D02*
X80978876Y-118402067D01*
X80978876Y-118402067D02*
X81074114Y-118306829D01*
X81074114Y-118306829D02*
X81121733Y-118211591D01*
X123717847Y-86747628D02*
X123241656Y-86414295D01*
X123717847Y-86176200D02*
X122717847Y-86176200D01*
X122717847Y-86176200D02*
X122717847Y-86557152D01*
X122717847Y-86557152D02*
X122765466Y-86652390D01*
X122765466Y-86652390D02*
X122813085Y-86700009D01*
X122813085Y-86700009D02*
X122908323Y-86747628D01*
X122908323Y-86747628D02*
X123051180Y-86747628D01*
X123051180Y-86747628D02*
X123146418Y-86700009D01*
X123146418Y-86700009D02*
X123194037Y-86652390D01*
X123194037Y-86652390D02*
X123241656Y-86557152D01*
X123241656Y-86557152D02*
X123241656Y-86176200D01*
X123194037Y-87176200D02*
X123194037Y-87509533D01*
X123717847Y-87652390D02*
X123717847Y-87176200D01*
X123717847Y-87176200D02*
X122717847Y-87176200D01*
X122717847Y-87176200D02*
X122717847Y-87652390D01*
X122717847Y-87938105D02*
X123717847Y-88271438D01*
X123717847Y-88271438D02*
X122717847Y-88604771D01*
X123717847Y-90223819D02*
X123717847Y-89652391D01*
X123717847Y-89938105D02*
X122717847Y-89938105D01*
X122717847Y-89938105D02*
X122860704Y-89842867D01*
X122860704Y-89842867D02*
X122955942Y-89747629D01*
X122955942Y-89747629D02*
X123003561Y-89652391D01*
X57211219Y-78305628D02*
X56735028Y-77972295D01*
X57211219Y-77734200D02*
X56211219Y-77734200D01*
X56211219Y-77734200D02*
X56211219Y-78115152D01*
X56211219Y-78115152D02*
X56258838Y-78210390D01*
X56258838Y-78210390D02*
X56306457Y-78258009D01*
X56306457Y-78258009D02*
X56401695Y-78305628D01*
X56401695Y-78305628D02*
X56544552Y-78305628D01*
X56544552Y-78305628D02*
X56639790Y-78258009D01*
X56639790Y-78258009D02*
X56687409Y-78210390D01*
X56687409Y-78210390D02*
X56735028Y-78115152D01*
X56735028Y-78115152D02*
X56735028Y-77734200D01*
X56687409Y-78734200D02*
X56687409Y-79067533D01*
X57211219Y-79210390D02*
X57211219Y-78734200D01*
X57211219Y-78734200D02*
X56211219Y-78734200D01*
X56211219Y-78734200D02*
X56211219Y-79210390D01*
X56211219Y-79496105D02*
X57211219Y-79829438D01*
X57211219Y-79829438D02*
X56211219Y-80162771D01*
X57211219Y-81781819D02*
X57211219Y-81210391D01*
X57211219Y-81496105D02*
X56211219Y-81496105D01*
X56211219Y-81496105D02*
X56354076Y-81400867D01*
X56354076Y-81400867D02*
X56449314Y-81305629D01*
X56449314Y-81305629D02*
X56496933Y-81210391D01*
X69523619Y-78305628D02*
X69047428Y-77972295D01*
X69523619Y-77734200D02*
X68523619Y-77734200D01*
X68523619Y-77734200D02*
X68523619Y-78115152D01*
X68523619Y-78115152D02*
X68571238Y-78210390D01*
X68571238Y-78210390D02*
X68618857Y-78258009D01*
X68618857Y-78258009D02*
X68714095Y-78305628D01*
X68714095Y-78305628D02*
X68856952Y-78305628D01*
X68856952Y-78305628D02*
X68952190Y-78258009D01*
X68952190Y-78258009D02*
X68999809Y-78210390D01*
X68999809Y-78210390D02*
X69047428Y-78115152D01*
X69047428Y-78115152D02*
X69047428Y-77734200D01*
X68999809Y-78734200D02*
X68999809Y-79067533D01*
X69523619Y-79210390D02*
X69523619Y-78734200D01*
X69523619Y-78734200D02*
X68523619Y-78734200D01*
X68523619Y-78734200D02*
X68523619Y-79210390D01*
X68523619Y-79496105D02*
X69523619Y-79829438D01*
X69523619Y-79829438D02*
X68523619Y-80162771D01*
X69523619Y-81781819D02*
X69523619Y-81210391D01*
X69523619Y-81496105D02*
X68523619Y-81496105D01*
X68523619Y-81496105D02*
X68666476Y-81400867D01*
X68666476Y-81400867D02*
X68761714Y-81305629D01*
X68761714Y-81305629D02*
X68809333Y-81210391D01*
X94148419Y-78305628D02*
X93672228Y-77972295D01*
X94148419Y-77734200D02*
X93148419Y-77734200D01*
X93148419Y-77734200D02*
X93148419Y-78115152D01*
X93148419Y-78115152D02*
X93196038Y-78210390D01*
X93196038Y-78210390D02*
X93243657Y-78258009D01*
X93243657Y-78258009D02*
X93338895Y-78305628D01*
X93338895Y-78305628D02*
X93481752Y-78305628D01*
X93481752Y-78305628D02*
X93576990Y-78258009D01*
X93576990Y-78258009D02*
X93624609Y-78210390D01*
X93624609Y-78210390D02*
X93672228Y-78115152D01*
X93672228Y-78115152D02*
X93672228Y-77734200D01*
X93624609Y-78734200D02*
X93624609Y-79067533D01*
X94148419Y-79210390D02*
X94148419Y-78734200D01*
X94148419Y-78734200D02*
X93148419Y-78734200D01*
X93148419Y-78734200D02*
X93148419Y-79210390D01*
X93148419Y-79496105D02*
X94148419Y-79829438D01*
X94148419Y-79829438D02*
X93148419Y-80162771D01*
X94148419Y-81781819D02*
X94148419Y-81210391D01*
X94148419Y-81496105D02*
X93148419Y-81496105D01*
X93148419Y-81496105D02*
X93291276Y-81400867D01*
X93291276Y-81400867D02*
X93386514Y-81305629D01*
X93386514Y-81305629D02*
X93434133Y-81210391D01*
X81836019Y-78305628D02*
X81359828Y-77972295D01*
X81836019Y-77734200D02*
X80836019Y-77734200D01*
X80836019Y-77734200D02*
X80836019Y-78115152D01*
X80836019Y-78115152D02*
X80883638Y-78210390D01*
X80883638Y-78210390D02*
X80931257Y-78258009D01*
X80931257Y-78258009D02*
X81026495Y-78305628D01*
X81026495Y-78305628D02*
X81169352Y-78305628D01*
X81169352Y-78305628D02*
X81264590Y-78258009D01*
X81264590Y-78258009D02*
X81312209Y-78210390D01*
X81312209Y-78210390D02*
X81359828Y-78115152D01*
X81359828Y-78115152D02*
X81359828Y-77734200D01*
X81312209Y-78734200D02*
X81312209Y-79067533D01*
X81836019Y-79210390D02*
X81836019Y-78734200D01*
X81836019Y-78734200D02*
X80836019Y-78734200D01*
X80836019Y-78734200D02*
X80836019Y-79210390D01*
X80836019Y-79496105D02*
X81836019Y-79829438D01*
X81836019Y-79829438D02*
X80836019Y-80162771D01*
X81836019Y-81781819D02*
X81836019Y-81210391D01*
X81836019Y-81496105D02*
X80836019Y-81496105D01*
X80836019Y-81496105D02*
X80978876Y-81400867D01*
X80978876Y-81400867D02*
X81074114Y-81305629D01*
X81074114Y-81305629D02*
X81121733Y-81210391D01*
X108865447Y-129732000D02*
X108389256Y-129398667D01*
X108865447Y-129160572D02*
X107865447Y-129160572D01*
X107865447Y-129160572D02*
X107865447Y-129541524D01*
X107865447Y-129541524D02*
X107913066Y-129636762D01*
X107913066Y-129636762D02*
X107960685Y-129684381D01*
X107960685Y-129684381D02*
X108055923Y-129732000D01*
X108055923Y-129732000D02*
X108198780Y-129732000D01*
X108198780Y-129732000D02*
X108294018Y-129684381D01*
X108294018Y-129684381D02*
X108341637Y-129636762D01*
X108341637Y-129636762D02*
X108389256Y-129541524D01*
X108389256Y-129541524D02*
X108389256Y-129160572D01*
X108341637Y-130160572D02*
X108341637Y-130493905D01*
X108865447Y-130636762D02*
X108865447Y-130160572D01*
X108865447Y-130160572D02*
X107865447Y-130160572D01*
X107865447Y-130160572D02*
X107865447Y-130636762D01*
X107865447Y-130922477D02*
X108865447Y-131255810D01*
X108865447Y-131255810D02*
X107865447Y-131589143D01*
X108865447Y-133208191D02*
X108865447Y-132636763D01*
X108865447Y-132922477D02*
X107865447Y-132922477D01*
X107865447Y-132922477D02*
X108008304Y-132827239D01*
X108008304Y-132827239D02*
X108103542Y-132732001D01*
X108103542Y-132732001D02*
X108151161Y-132636763D01*
X138570247Y-86747628D02*
X138094056Y-86414295D01*
X138570247Y-86176200D02*
X137570247Y-86176200D01*
X137570247Y-86176200D02*
X137570247Y-86557152D01*
X137570247Y-86557152D02*
X137617866Y-86652390D01*
X137617866Y-86652390D02*
X137665485Y-86700009D01*
X137665485Y-86700009D02*
X137760723Y-86747628D01*
X137760723Y-86747628D02*
X137903580Y-86747628D01*
X137903580Y-86747628D02*
X137998818Y-86700009D01*
X137998818Y-86700009D02*
X138046437Y-86652390D01*
X138046437Y-86652390D02*
X138094056Y-86557152D01*
X138094056Y-86557152D02*
X138094056Y-86176200D01*
X138046437Y-87176200D02*
X138046437Y-87509533D01*
X138570247Y-87652390D02*
X138570247Y-87176200D01*
X138570247Y-87176200D02*
X137570247Y-87176200D01*
X137570247Y-87176200D02*
X137570247Y-87652390D01*
X137570247Y-87938105D02*
X138570247Y-88271438D01*
X138570247Y-88271438D02*
X137570247Y-88604771D01*
X138570247Y-90223819D02*
X138570247Y-89652391D01*
X138570247Y-89938105D02*
X137570247Y-89938105D01*
X137570247Y-89938105D02*
X137713104Y-89842867D01*
X137713104Y-89842867D02*
X137808342Y-89747629D01*
X137808342Y-89747629D02*
X137855961Y-89652391D01*
X108865447Y-86747628D02*
X108389256Y-86414295D01*
X108865447Y-86176200D02*
X107865447Y-86176200D01*
X107865447Y-86176200D02*
X107865447Y-86557152D01*
X107865447Y-86557152D02*
X107913066Y-86652390D01*
X107913066Y-86652390D02*
X107960685Y-86700009D01*
X107960685Y-86700009D02*
X108055923Y-86747628D01*
X108055923Y-86747628D02*
X108198780Y-86747628D01*
X108198780Y-86747628D02*
X108294018Y-86700009D01*
X108294018Y-86700009D02*
X108341637Y-86652390D01*
X108341637Y-86652390D02*
X108389256Y-86557152D01*
X108389256Y-86557152D02*
X108389256Y-86176200D01*
X108341637Y-87176200D02*
X108341637Y-87509533D01*
X108865447Y-87652390D02*
X108865447Y-87176200D01*
X108865447Y-87176200D02*
X107865447Y-87176200D01*
X107865447Y-87176200D02*
X107865447Y-87652390D01*
X107865447Y-87938105D02*
X108865447Y-88271438D01*
X108865447Y-88271438D02*
X107865447Y-88604771D01*
X108865447Y-90223819D02*
X108865447Y-89652391D01*
X108865447Y-89938105D02*
X107865447Y-89938105D01*
X107865447Y-89938105D02*
X108008304Y-89842867D01*
X108008304Y-89842867D02*
X108103542Y-89747629D01*
X108103542Y-89747629D02*
X108151161Y-89652391D01*
X57211219Y-115306828D02*
X56735028Y-114973495D01*
X57211219Y-114735400D02*
X56211219Y-114735400D01*
X56211219Y-114735400D02*
X56211219Y-115116352D01*
X56211219Y-115116352D02*
X56258838Y-115211590D01*
X56258838Y-115211590D02*
X56306457Y-115259209D01*
X56306457Y-115259209D02*
X56401695Y-115306828D01*
X56401695Y-115306828D02*
X56544552Y-115306828D01*
X56544552Y-115306828D02*
X56639790Y-115259209D01*
X56639790Y-115259209D02*
X56687409Y-115211590D01*
X56687409Y-115211590D02*
X56735028Y-115116352D01*
X56735028Y-115116352D02*
X56735028Y-114735400D01*
X56687409Y-115735400D02*
X56687409Y-116068733D01*
X57211219Y-116211590D02*
X57211219Y-115735400D01*
X57211219Y-115735400D02*
X56211219Y-115735400D01*
X56211219Y-115735400D02*
X56211219Y-116211590D01*
X56211219Y-116497305D02*
X57211219Y-116830638D01*
X57211219Y-116830638D02*
X56211219Y-117163971D01*
X57211219Y-118783019D02*
X57211219Y-118211591D01*
X57211219Y-118497305D02*
X56211219Y-118497305D01*
X56211219Y-118497305D02*
X56354076Y-118402067D01*
X56354076Y-118402067D02*
X56449314Y-118306829D01*
X56449314Y-118306829D02*
X56496933Y-118211591D01*
%LPC*%
D11*
%TO.C,KiKit_MB_12_9*%
X81281000Y-86876200D03*
%TD*%
%TO.C,KiKit_MB_26_6*%
X134630600Y-49875000D03*
%TD*%
%TO.C,KiKit_MB_24_9*%
X122028200Y-92859372D03*
%TD*%
%TO.C,KiKit_MB_14_4*%
X89843400Y-49875000D03*
%TD*%
%TO.C,KiKit_MB_12_4*%
X77531000Y-86876200D03*
%TD*%
%TO.C,KiKit_MB_9_10*%
X82031000Y-85126200D03*
%TD*%
%TO.C,KiKit_MB_8_9*%
X68968600Y-86876200D03*
%TD*%
%TO.C,KiKit_MB_17_6*%
X104925800Y-91109372D03*
%TD*%
%TO.C,KiKit_MB_19_6*%
X104925800Y-134093744D03*
%TD*%
%TO.C,KiKit_MB_4_10*%
X57406200Y-86876200D03*
%TD*%
%TO.C,KiKit_MB_28_4*%
X133130600Y-92859372D03*
%TD*%
%TO.C,KiKit_MB_23_9*%
X122028200Y-134093744D03*
%TD*%
%TO.C,KiKit_MB_5_5*%
X65968600Y-85126200D03*
%TD*%
%TO.C,KiKit_MB_10_9*%
X81281000Y-49875000D03*
%TD*%
D12*
%TO.C,J1*%
X67417800Y-119986600D03*
%TD*%
D11*
%TO.C,KiKit_MB_21_7*%
X120528200Y-91109372D03*
%TD*%
%TO.C,KiKit_MB_25_9*%
X136880600Y-91109372D03*
%TD*%
%TO.C,KiKit_MB_8_10*%
X69718600Y-86876200D03*
%TD*%
%TO.C,KiKit_MB_9_9*%
X81281000Y-85126200D03*
%TD*%
%TO.C,KiKit_MB_22_7*%
X120528200Y-49875000D03*
%TD*%
%TO.C,KiKit_MB_9_5*%
X78281000Y-85126200D03*
%TD*%
%TO.C,KiKit_MB_5_10*%
X69718600Y-85126200D03*
%TD*%
%TO.C,KiKit_MB_6_8*%
X68218600Y-49875000D03*
%TD*%
%TO.C,KiKit_MB_20_6*%
X104925800Y-92859372D03*
%TD*%
%TO.C,KiKit_MB_19_4*%
X103425800Y-134093744D03*
%TD*%
%TO.C,KiKit_MB_23_8*%
X121278200Y-134093744D03*
%TD*%
%TO.C,KiKit_MB_1_5*%
X53656200Y-85126200D03*
%TD*%
%TO.C,KiKit_MB_9_8*%
X80531000Y-85126200D03*
%TD*%
%TO.C,KiKit_MB_24_10*%
X122778200Y-92859372D03*
%TD*%
%TO.C,KiKit_MB_18_8*%
X106425800Y-49875000D03*
%TD*%
%TO.C,KiKit_MB_6_6*%
X66718600Y-49875000D03*
%TD*%
%TO.C,KiKit_MB_3_6*%
X54406200Y-122127400D03*
%TD*%
%TO.C,KiKit_MB_11_6*%
X79031000Y-122127400D03*
%TD*%
%TO.C,KiKit_MB_18_10*%
X107925800Y-49875000D03*
%TD*%
%TO.C,KiKit_MB_12_6*%
X79031000Y-86876200D03*
%TD*%
%TO.C,KiKit_MB_25_6*%
X134630600Y-91109372D03*
%TD*%
%TO.C,KiKit_MB_16_6*%
X91343400Y-86876200D03*
%TD*%
%TO.C,KiKit_MB_20_5*%
X104175800Y-92859372D03*
%TD*%
%TO.C,KiKit_MB_11_4*%
X77531000Y-122127400D03*
%TD*%
%TO.C,KiKit_MB_3_4*%
X52906200Y-122127400D03*
%TD*%
%TO.C,KiKit_MB_15_7*%
X92093400Y-122127400D03*
%TD*%
%TO.C,KiKit_MB_26_4*%
X133130600Y-49875000D03*
%TD*%
%TO.C,KiKit_MB_11_7*%
X79781000Y-122127400D03*
%TD*%
%TO.C,KiKit_MB_6_4*%
X65218600Y-49875000D03*
%TD*%
%TO.C,KiKit_MB_3_7*%
X55156200Y-122127400D03*
%TD*%
%TO.C,KiKit_MB_17_9*%
X107175800Y-91109372D03*
%TD*%
%TO.C,KiKit_MB_9_7*%
X79781000Y-85126200D03*
%TD*%
%TO.C,KiKit_MB_12_7*%
X79781000Y-86876200D03*
%TD*%
%TO.C,KiKit_MB_3_8*%
X55906200Y-122127400D03*
%TD*%
%TO.C,KiKit_MB_19_10*%
X107925800Y-134093744D03*
%TD*%
%TO.C,KiKit_MB_24_4*%
X118278200Y-92859372D03*
%TD*%
%TO.C,KiKit_MB_5_8*%
X68218600Y-85126200D03*
%TD*%
%TO.C,KiKit_MB_24_5*%
X119028200Y-92859372D03*
%TD*%
%TO.C,KiKit_MB_22_4*%
X118278200Y-49875000D03*
%TD*%
%TO.C,KiKit_MB_17_8*%
X106425800Y-91109372D03*
%TD*%
%TO.C,KiKit_MB_13_4*%
X89843400Y-85126200D03*
%TD*%
%TO.C,KiKit_MB_22_6*%
X119778200Y-49875000D03*
%TD*%
%TO.C,KiKit_MB_23_5*%
X119028200Y-134093744D03*
%TD*%
%TO.C,KiKit_MB_16_9*%
X93593400Y-86876200D03*
%TD*%
D12*
%TO.C,J1*%
X67417800Y-82985400D03*
%TD*%
D11*
%TO.C,KiKit_MB_21_9*%
X122028200Y-91109372D03*
%TD*%
%TO.C,KiKit_MB_14_8*%
X92843400Y-49875000D03*
%TD*%
%TO.C,KiKit_MB_20_7*%
X105675800Y-92859372D03*
%TD*%
%TO.C,KiKit_MB_27_10*%
X137630600Y-134093744D03*
%TD*%
%TO.C,KiKit_MB_14_7*%
X92093400Y-49875000D03*
%TD*%
D12*
%TO.C,J1*%
X92042600Y-82985400D03*
%TD*%
D11*
%TO.C,KiKit_MB_2_9*%
X56656200Y-49875000D03*
%TD*%
%TO.C,KiKit_MB_8_8*%
X68218600Y-86876200D03*
%TD*%
%TO.C,KiKit_MB_10_7*%
X79781000Y-49875000D03*
%TD*%
%TO.C,KiKit_MB_22_5*%
X119028200Y-49875000D03*
%TD*%
%TO.C,KiKit_MB_3_5*%
X53656200Y-122127400D03*
%TD*%
%TO.C,KiKit_MB_14_6*%
X91343400Y-49875000D03*
%TD*%
%TO.C,KiKit_MB_23_10*%
X122778200Y-134093744D03*
%TD*%
%TO.C,KiKit_MB_15_6*%
X91343400Y-122127400D03*
%TD*%
%TO.C,KiKit_MB_23_4*%
X118278200Y-134093744D03*
%TD*%
%TO.C,KiKit_MB_18_7*%
X105675800Y-49875000D03*
%TD*%
%TO.C,KiKit_MB_10_10*%
X82031000Y-49875000D03*
%TD*%
%TO.C,KiKit_MB_22_10*%
X122778200Y-49875000D03*
%TD*%
%TO.C,KiKit_MB_27_7*%
X135380600Y-134093744D03*
%TD*%
%TO.C,KiKit_MB_25_4*%
X133130600Y-91109372D03*
%TD*%
%TO.C,KiKit_MB_4_7*%
X55156200Y-86876200D03*
%TD*%
%TO.C,KiKit_MB_10_4*%
X77531000Y-49875000D03*
%TD*%
%TO.C,KiKit_MB_11_9*%
X81281000Y-122127400D03*
%TD*%
%TO.C,KiKit_MB_28_7*%
X135380600Y-92859372D03*
%TD*%
D12*
%TO.C,J1*%
X55105400Y-119986600D03*
%TD*%
D11*
%TO.C,KiKit_MB_1_9*%
X56656200Y-85126200D03*
%TD*%
%TO.C,KiKit_MB_2_8*%
X55906200Y-49875000D03*
%TD*%
%TO.C,KiKit_MB_7_10*%
X69718600Y-122127400D03*
%TD*%
%TO.C,KiKit_MB_28_8*%
X136130600Y-92859372D03*
%TD*%
%TO.C,KiKit_MB_21_10*%
X122778200Y-91109372D03*
%TD*%
%TO.C,KiKit_MB_23_6*%
X119778200Y-134093744D03*
%TD*%
%TO.C,KiKit_MB_5_7*%
X67468600Y-85126200D03*
%TD*%
%TO.C,KiKit_MB_1_8*%
X55906200Y-85126200D03*
%TD*%
%TO.C,KiKit_MB_18_6*%
X104925800Y-49875000D03*
%TD*%
%TO.C,KiKit_MB_27_8*%
X136130600Y-134093744D03*
%TD*%
%TO.C,KiKit_MB_12_10*%
X82031000Y-86876200D03*
%TD*%
%TO.C,KiKit_MB_28_5*%
X133880600Y-92859372D03*
%TD*%
%TO.C,KiKit_MB_19_5*%
X104175800Y-134093744D03*
%TD*%
%TO.C,KiKit_MB_9_4*%
X77531000Y-85126200D03*
%TD*%
%TO.C,KiKit_MB_18_4*%
X103425800Y-49875000D03*
%TD*%
%TO.C,KiKit_MB_27_4*%
X133130600Y-134093744D03*
%TD*%
%TO.C,KiKit_MB_7_4*%
X65218600Y-122127400D03*
%TD*%
%TO.C,KiKit_MB_11_10*%
X82031000Y-122127400D03*
%TD*%
%TO.C,KiKit_MB_21_4*%
X118278200Y-91109372D03*
%TD*%
%TO.C,KiKit_MB_7_6*%
X66718600Y-122127400D03*
%TD*%
%TO.C,KiKit_MB_13_8*%
X92843400Y-85126200D03*
%TD*%
%TO.C,KiKit_MB_16_8*%
X92843400Y-86876200D03*
%TD*%
D13*
%TO.C,KiKit_TO_1*%
X53000000Y-45000000D03*
%TD*%
D11*
%TO.C,KiKit_MB_24_8*%
X121278200Y-92859372D03*
%TD*%
%TO.C,KiKit_MB_2_7*%
X55156200Y-49875000D03*
%TD*%
%TO.C,KiKit_MB_26_10*%
X137630600Y-49875000D03*
%TD*%
%TO.C,KiKit_MB_1_10*%
X57406200Y-85126200D03*
%TD*%
%TO.C,KiKit_MB_13_9*%
X93593400Y-85126200D03*
%TD*%
%TO.C,KiKit_MB_8_5*%
X65968600Y-86876200D03*
%TD*%
%TO.C,KiKit_MB_2_6*%
X54406200Y-49875000D03*
%TD*%
%TO.C,KiKit_MB_20_9*%
X107175800Y-92859372D03*
%TD*%
%TO.C,KiKit_MB_27_5*%
X133880600Y-134093744D03*
%TD*%
%TO.C,KiKit_MB_4_9*%
X56656200Y-86876200D03*
%TD*%
%TO.C,KiKit_MB_10_5*%
X78281000Y-49875000D03*
%TD*%
%TO.C,KiKit_MB_4_6*%
X54406200Y-86876200D03*
%TD*%
%TO.C,KiKit_MB_1_6*%
X54406200Y-85126200D03*
%TD*%
%TO.C,KiKit_MB_9_6*%
X79031000Y-85126200D03*
%TD*%
%TO.C,KiKit_MB_14_10*%
X94343400Y-49875000D03*
%TD*%
%TO.C,KiKit_MB_2_4*%
X52906200Y-49875000D03*
%TD*%
%TO.C,KiKit_MB_25_10*%
X137630600Y-91109372D03*
%TD*%
D12*
%TO.C,J1*%
X79730200Y-82985400D03*
%TD*%
D11*
%TO.C,KiKit_MB_24_7*%
X120528200Y-92859372D03*
%TD*%
%TO.C,KiKit_MB_26_8*%
X136130600Y-49875000D03*
%TD*%
D12*
%TO.C,J1*%
X55105400Y-82985400D03*
%TD*%
D11*
%TO.C,KiKit_MB_2_10*%
X57406200Y-49875000D03*
%TD*%
%TO.C,KiKit_MB_8_4*%
X65218600Y-86876200D03*
%TD*%
%TO.C,KiKit_MB_8_6*%
X66718600Y-86876200D03*
%TD*%
%TO.C,KiKit_MB_11_8*%
X80531000Y-122127400D03*
%TD*%
D12*
%TO.C,J1*%
X92042600Y-119986600D03*
%TD*%
D13*
%TO.C,KiKit_TO_3*%
X53000000Y-138468744D03*
%TD*%
D11*
%TO.C,KiKit_MB_25_8*%
X136130600Y-91109372D03*
%TD*%
%TO.C,KiKit_MB_17_10*%
X107925800Y-91109372D03*
%TD*%
%TO.C,KiKit_MB_2_5*%
X53656200Y-49875000D03*
%TD*%
%TO.C,KiKit_MB_4_4*%
X52906200Y-86876200D03*
%TD*%
%TO.C,KiKit_MB_3_10*%
X57406200Y-122127400D03*
%TD*%
%TO.C,KiKit_MB_26_7*%
X135380600Y-49875000D03*
%TD*%
%TO.C,KiKit_MB_6_7*%
X67468600Y-49875000D03*
%TD*%
%TO.C,KiKit_MB_22_9*%
X122028200Y-49875000D03*
%TD*%
%TO.C,KiKit_MB_22_8*%
X121278200Y-49875000D03*
%TD*%
%TO.C,KiKit_MB_5_9*%
X68968600Y-85126200D03*
%TD*%
%TO.C,KiKit_MB_15_4*%
X89843400Y-122127400D03*
%TD*%
%TO.C,KiKit_MB_21_6*%
X119778200Y-91109372D03*
%TD*%
%TO.C,KiKit_MB_21_8*%
X121278200Y-91109372D03*
%TD*%
%TO.C,KiKit_MB_7_8*%
X68218600Y-122127400D03*
%TD*%
%TO.C,KiKit_MB_18_9*%
X107175800Y-49875000D03*
%TD*%
%TO.C,KiKit_MB_15_8*%
X92843400Y-122127400D03*
%TD*%
%TO.C,KiKit_MB_14_5*%
X90593400Y-49875000D03*
%TD*%
%TO.C,KiKit_MB_5_6*%
X66718600Y-85126200D03*
%TD*%
%TO.C,KiKit_MB_4_5*%
X53656200Y-86876200D03*
%TD*%
%TO.C,KiKit_MB_17_4*%
X103425800Y-91109372D03*
%TD*%
%TO.C,KiKit_MB_10_6*%
X79031000Y-49875000D03*
%TD*%
%TO.C,KiKit_MB_7_9*%
X68968600Y-122127400D03*
%TD*%
%TO.C,KiKit_MB_15_10*%
X94343400Y-122127400D03*
%TD*%
%TO.C,KiKit_MB_20_4*%
X103425800Y-92859372D03*
%TD*%
%TO.C,KiKit_MB_10_8*%
X80531000Y-49875000D03*
%TD*%
%TO.C,KiKit_MB_16_7*%
X92093400Y-86876200D03*
%TD*%
%TO.C,KiKit_MB_13_7*%
X92093400Y-85126200D03*
%TD*%
%TO.C,KiKit_MB_6_5*%
X65968600Y-49875000D03*
%TD*%
%TO.C,KiKit_MB_24_6*%
X119778200Y-92859372D03*
%TD*%
%TO.C,KiKit_MB_7_7*%
X67468600Y-122127400D03*
%TD*%
%TO.C,KiKit_MB_4_8*%
X55906200Y-86876200D03*
%TD*%
%TO.C,KiKit_MB_19_8*%
X106425800Y-134093744D03*
%TD*%
%TO.C,KiKit_MB_13_10*%
X94343400Y-85126200D03*
%TD*%
%TO.C,KiKit_MB_28_9*%
X136880600Y-92859372D03*
%TD*%
%TO.C,KiKit_MB_26_5*%
X133880600Y-49875000D03*
%TD*%
%TO.C,KiKit_MB_3_9*%
X56656200Y-122127400D03*
%TD*%
D12*
%TO.C,J1*%
X79730200Y-119986600D03*
%TD*%
D11*
%TO.C,KiKit_MB_6_10*%
X69718600Y-49875000D03*
%TD*%
%TO.C,KiKit_MB_16_4*%
X89843400Y-86876200D03*
%TD*%
%TO.C,KiKit_MB_28_6*%
X134630600Y-92859372D03*
%TD*%
%TO.C,KiKit_MB_14_9*%
X93593400Y-49875000D03*
%TD*%
%TO.C,KiKit_MB_27_6*%
X134630600Y-134093744D03*
%TD*%
%TO.C,KiKit_MB_12_5*%
X78281000Y-86876200D03*
%TD*%
D13*
%TO.C,KiKit_TO_4*%
X138806828Y-138468744D03*
%TD*%
D11*
%TO.C,KiKit_MB_16_5*%
X90593400Y-86876200D03*
%TD*%
%TO.C,KiKit_MB_7_5*%
X65968600Y-122127400D03*
%TD*%
%TO.C,KiKit_MB_13_5*%
X90593400Y-85126200D03*
%TD*%
D13*
%TO.C,KiKit_TO_2*%
X138806828Y-45000000D03*
%TD*%
D11*
%TO.C,KiKit_MB_1_7*%
X55156200Y-85126200D03*
%TD*%
%TO.C,KiKit_MB_21_5*%
X119028200Y-91109372D03*
%TD*%
%TO.C,KiKit_MB_17_7*%
X105675800Y-91109372D03*
%TD*%
%TO.C,KiKit_MB_16_10*%
X94343400Y-86876200D03*
%TD*%
%TO.C,KiKit_MB_17_5*%
X104175800Y-91109372D03*
%TD*%
%TO.C,KiKit_MB_23_7*%
X120528200Y-134093744D03*
%TD*%
%TO.C,KiKit_MB_20_10*%
X107925800Y-92859372D03*
%TD*%
%TO.C,KiKit_MB_28_10*%
X137630600Y-92859372D03*
%TD*%
%TO.C,KiKit_MB_19_9*%
X107175800Y-134093744D03*
%TD*%
%TO.C,KiKit_MB_6_9*%
X68968600Y-49875000D03*
%TD*%
%TO.C,KiKit_MB_20_8*%
X106425800Y-92859372D03*
%TD*%
%TO.C,KiKit_MB_25_7*%
X135380600Y-91109372D03*
%TD*%
%TO.C,KiKit_MB_27_9*%
X136880600Y-134093744D03*
%TD*%
%TO.C,KiKit_MB_12_8*%
X80531000Y-86876200D03*
%TD*%
%TO.C,KiKit_MB_18_5*%
X104175800Y-49875000D03*
%TD*%
%TO.C,KiKit_MB_5_4*%
X65218600Y-85126200D03*
%TD*%
%TO.C,KiKit_MB_15_9*%
X93593400Y-122127400D03*
%TD*%
%TO.C,KiKit_MB_1_4*%
X52906200Y-85126200D03*
%TD*%
%TO.C,KiKit_MB_11_5*%
X78281000Y-122127400D03*
%TD*%
%TO.C,KiKit_MB_19_7*%
X105675800Y-134093744D03*
%TD*%
%TO.C,KiKit_MB_8_7*%
X67468600Y-86876200D03*
%TD*%
%TO.C,KiKit_MB_13_6*%
X91343400Y-85126200D03*
%TD*%
%TO.C,KiKit_MB_15_5*%
X90593400Y-122127400D03*
%TD*%
%TO.C,KiKit_MB_25_5*%
X133880600Y-91109372D03*
%TD*%
%TO.C,KiKit_MB_26_9*%
X136880600Y-49875000D03*
%TD*%
D14*
%TO.C,J6*%
X100587528Y-66383000D03*
D15*
X100587528Y-68923000D03*
X100587528Y-71463000D03*
X100587528Y-74003000D03*
X100587528Y-76543000D03*
X100587528Y-79083000D03*
X100587528Y-81623000D03*
X100587528Y-84163000D03*
X100587528Y-86703000D03*
X100587528Y-89243000D03*
%TD*%
D13*
%TO.C,KiKit_FID_B_1*%
X56000000Y-46350000D03*
%TD*%
D14*
%TO.C,J6*%
X100587528Y-109367372D03*
D15*
X100587528Y-111907372D03*
X100587528Y-114447372D03*
X100587528Y-116987372D03*
X100587528Y-119527372D03*
X100587528Y-122067372D03*
X100587528Y-124607372D03*
X100587528Y-127147372D03*
X100587528Y-129687372D03*
X100587528Y-132227372D03*
%TD*%
D14*
%TO.C,J5*%
X110747528Y-66383000D03*
D15*
X110747528Y-68923000D03*
X110747528Y-71463000D03*
X110747528Y-74003000D03*
X110747528Y-76543000D03*
X110747528Y-79083000D03*
X110747528Y-81623000D03*
X110747528Y-84163000D03*
X110747528Y-86703000D03*
X110747528Y-89243000D03*
%TD*%
D14*
%TO.C,J5*%
X125599928Y-66383000D03*
D15*
X125599928Y-68923000D03*
X125599928Y-71463000D03*
X125599928Y-74003000D03*
X125599928Y-76543000D03*
X125599928Y-79083000D03*
X125599928Y-81623000D03*
X125599928Y-84163000D03*
X125599928Y-86703000D03*
X125599928Y-89243000D03*
%TD*%
D13*
%TO.C,KiKit_FID_B_2*%
X135806828Y-46350000D03*
%TD*%
D14*
%TO.C,J3*%
X88232600Y-102841600D03*
D15*
X88232600Y-105381600D03*
X88232600Y-107921600D03*
X88232600Y-110461600D03*
X88232600Y-113001600D03*
X88232600Y-115541600D03*
X88232600Y-118081600D03*
X88232600Y-120621600D03*
%TD*%
D14*
%TO.C,J3*%
X75920200Y-65840400D03*
D15*
X75920200Y-68380400D03*
X75920200Y-70920400D03*
X75920200Y-73460400D03*
X75920200Y-76000400D03*
X75920200Y-78540400D03*
X75920200Y-81080400D03*
X75920200Y-83620400D03*
%TD*%
D14*
%TO.C,J6*%
X130292328Y-66383000D03*
D15*
X130292328Y-68923000D03*
X130292328Y-71463000D03*
X130292328Y-74003000D03*
X130292328Y-76543000D03*
X130292328Y-79083000D03*
X130292328Y-81623000D03*
X130292328Y-84163000D03*
X130292328Y-86703000D03*
X130292328Y-89243000D03*
%TD*%
D14*
%TO.C,J3*%
X88232600Y-65840400D03*
D15*
X88232600Y-68380400D03*
X88232600Y-70920400D03*
X88232600Y-73460400D03*
X88232600Y-76000400D03*
X88232600Y-78540400D03*
X88232600Y-81080400D03*
X88232600Y-83620400D03*
%TD*%
D14*
%TO.C,J2*%
X71227800Y-102841600D03*
D15*
X71227800Y-105381600D03*
X71227800Y-107921600D03*
X71227800Y-110461600D03*
X71227800Y-113001600D03*
X71227800Y-115541600D03*
X71227800Y-118081600D03*
X71227800Y-120621600D03*
%TD*%
D14*
%TO.C,J2*%
X71227800Y-65840400D03*
D15*
X71227800Y-68380400D03*
X71227800Y-70920400D03*
X71227800Y-73460400D03*
X71227800Y-76000400D03*
X71227800Y-78540400D03*
X71227800Y-81080400D03*
X71227800Y-83620400D03*
%TD*%
D14*
%TO.C,J3*%
X75920200Y-102841600D03*
D15*
X75920200Y-105381600D03*
X75920200Y-107921600D03*
X75920200Y-110461600D03*
X75920200Y-113001600D03*
X75920200Y-115541600D03*
X75920200Y-118081600D03*
X75920200Y-120621600D03*
%TD*%
D14*
%TO.C,J3*%
X51295400Y-65840400D03*
D15*
X51295400Y-68380400D03*
X51295400Y-70920400D03*
X51295400Y-73460400D03*
X51295400Y-76000400D03*
X51295400Y-78540400D03*
X51295400Y-81080400D03*
X51295400Y-83620400D03*
%TD*%
D14*
%TO.C,J2*%
X58915400Y-102841600D03*
D15*
X58915400Y-105381600D03*
X58915400Y-107921600D03*
X58915400Y-110461600D03*
X58915400Y-113001600D03*
X58915400Y-115541600D03*
X58915400Y-118081600D03*
X58915400Y-120621600D03*
%TD*%
D14*
%TO.C,J5*%
X140452328Y-66383000D03*
D15*
X140452328Y-68923000D03*
X140452328Y-71463000D03*
X140452328Y-74003000D03*
X140452328Y-76543000D03*
X140452328Y-79083000D03*
X140452328Y-81623000D03*
X140452328Y-84163000D03*
X140452328Y-86703000D03*
X140452328Y-89243000D03*
%TD*%
D14*
%TO.C,J6*%
X115439928Y-109367372D03*
D15*
X115439928Y-111907372D03*
X115439928Y-114447372D03*
X115439928Y-116987372D03*
X115439928Y-119527372D03*
X115439928Y-122067372D03*
X115439928Y-124607372D03*
X115439928Y-127147372D03*
X115439928Y-129687372D03*
X115439928Y-132227372D03*
%TD*%
D14*
%TO.C,J6*%
X115439928Y-66383000D03*
D15*
X115439928Y-68923000D03*
X115439928Y-71463000D03*
X115439928Y-74003000D03*
X115439928Y-76543000D03*
X115439928Y-79083000D03*
X115439928Y-81623000D03*
X115439928Y-84163000D03*
X115439928Y-86703000D03*
X115439928Y-89243000D03*
%TD*%
D14*
%TO.C,J3*%
X63607800Y-102841600D03*
D15*
X63607800Y-105381600D03*
X63607800Y-107921600D03*
X63607800Y-110461600D03*
X63607800Y-113001600D03*
X63607800Y-115541600D03*
X63607800Y-118081600D03*
X63607800Y-120621600D03*
%TD*%
D14*
%TO.C,J2*%
X95852600Y-65840400D03*
D15*
X95852600Y-68380400D03*
X95852600Y-70920400D03*
X95852600Y-73460400D03*
X95852600Y-76000400D03*
X95852600Y-78540400D03*
X95852600Y-81080400D03*
X95852600Y-83620400D03*
%TD*%
D14*
%TO.C,J5*%
X125599928Y-109367372D03*
D15*
X125599928Y-111907372D03*
X125599928Y-114447372D03*
X125599928Y-116987372D03*
X125599928Y-119527372D03*
X125599928Y-122067372D03*
X125599928Y-124607372D03*
X125599928Y-127147372D03*
X125599928Y-129687372D03*
X125599928Y-132227372D03*
%TD*%
D14*
%TO.C,J6*%
X130292328Y-109367372D03*
D15*
X130292328Y-111907372D03*
X130292328Y-114447372D03*
X130292328Y-116987372D03*
X130292328Y-119527372D03*
X130292328Y-122067372D03*
X130292328Y-124607372D03*
X130292328Y-127147372D03*
X130292328Y-129687372D03*
X130292328Y-132227372D03*
%TD*%
D14*
%TO.C,J3*%
X51295400Y-102841600D03*
D15*
X51295400Y-105381600D03*
X51295400Y-107921600D03*
X51295400Y-110461600D03*
X51295400Y-113001600D03*
X51295400Y-115541600D03*
X51295400Y-118081600D03*
X51295400Y-120621600D03*
%TD*%
D14*
%TO.C,J2*%
X95852600Y-102841600D03*
D15*
X95852600Y-105381600D03*
X95852600Y-107921600D03*
X95852600Y-110461600D03*
X95852600Y-113001600D03*
X95852600Y-115541600D03*
X95852600Y-118081600D03*
X95852600Y-120621600D03*
%TD*%
D13*
%TO.C,KiKit_FID_B_4*%
X135806828Y-137118744D03*
%TD*%
D14*
%TO.C,J2*%
X83540200Y-102841600D03*
D15*
X83540200Y-105381600D03*
X83540200Y-107921600D03*
X83540200Y-110461600D03*
X83540200Y-113001600D03*
X83540200Y-115541600D03*
X83540200Y-118081600D03*
X83540200Y-120621600D03*
%TD*%
D14*
%TO.C,J2*%
X83540200Y-65840400D03*
D15*
X83540200Y-68380400D03*
X83540200Y-70920400D03*
X83540200Y-73460400D03*
X83540200Y-76000400D03*
X83540200Y-78540400D03*
X83540200Y-81080400D03*
X83540200Y-83620400D03*
%TD*%
D14*
%TO.C,J5*%
X110747528Y-109367372D03*
D15*
X110747528Y-111907372D03*
X110747528Y-114447372D03*
X110747528Y-116987372D03*
X110747528Y-119527372D03*
X110747528Y-122067372D03*
X110747528Y-124607372D03*
X110747528Y-127147372D03*
X110747528Y-129687372D03*
X110747528Y-132227372D03*
%TD*%
D13*
%TO.C,KiKit_FID_B_3*%
X56000000Y-137118744D03*
%TD*%
D14*
%TO.C,J5*%
X140452328Y-109367372D03*
D15*
X140452328Y-111907372D03*
X140452328Y-114447372D03*
X140452328Y-116987372D03*
X140452328Y-119527372D03*
X140452328Y-122067372D03*
X140452328Y-124607372D03*
X140452328Y-127147372D03*
X140452328Y-129687372D03*
X140452328Y-132227372D03*
%TD*%
D14*
%TO.C,J2*%
X58915400Y-65840400D03*
D15*
X58915400Y-68380400D03*
X58915400Y-70920400D03*
X58915400Y-73460400D03*
X58915400Y-76000400D03*
X58915400Y-78540400D03*
X58915400Y-81080400D03*
X58915400Y-83620400D03*
%TD*%
D14*
%TO.C,J3*%
X63607800Y-65840400D03*
D15*
X63607800Y-68380400D03*
X63607800Y-70920400D03*
X63607800Y-73460400D03*
X63607800Y-76000400D03*
X63607800Y-78540400D03*
X63607800Y-81080400D03*
X63607800Y-83620400D03*
%TD*%
%LPD*%
M02*
