%TF.GenerationSoftware,KiCad,Pcbnew,9.0.7*%
%TF.CreationDate,2026-02-17T21:07:26-08:00*%
%TF.ProjectId,soic-dw-panel,736f6963-2d64-4772-9d70-616e656c2e6b,rev?*%
%TF.SameCoordinates,Original*%
%TF.FileFunction,Soldermask,Top*%
%TF.FilePolarity,Negative*%
%FSLAX46Y46*%
G04 Gerber Fmt 4.6, Leading zero omitted, Abs format (unit mm)*
G04 Created by KiCad (PCBNEW 9.0.7) date 2026-02-17 21:07:26*
%MOMM*%
%LPD*%
G01*
G04 APERTURE LIST*
G04 Aperture macros list*
%AMRoundRect*
0 Rectangle with rounded corners*
0 $1 Rounding radius*
0 $2 $3 $4 $5 $6 $7 $8 $9 X,Y pos of 4 corners*
0 Add a 4 corners polygon primitive as box body*
4,1,4,$2,$3,$4,$5,$6,$7,$8,$9,$2,$3,0*
0 Add four circle primitives for the rounded corners*
1,1,$1+$1,$2,$3*
1,1,$1+$1,$4,$5*
1,1,$1+$1,$6,$7*
1,1,$1+$1,$8,$9*
0 Add four rect primitives between the rounded corners*
20,1,$1+$1,$2,$3,$4,$5,0*
20,1,$1+$1,$4,$5,$6,$7,0*
20,1,$1+$1,$6,$7,$8,$9,0*
20,1,$1+$1,$8,$9,$2,$3,0*%
G04 Aperture macros list end*
%ADD10C,0.500000*%
%ADD11C,2.000000*%
%ADD12C,1.500000*%
%ADD13RoundRect,0.042000X-0.988000X-0.258000X0.988000X-0.258000X0.988000X0.258000X-0.988000X0.258000X0*%
%ADD14RoundRect,0.042000X-0.258000X0.988000X-0.258000X-0.988000X0.258000X-0.988000X0.258000X0.988000X0*%
%ADD15R,1.700000X1.700000*%
%ADD16C,1.700000*%
G04 APERTURE END LIST*
D10*
%TO.C,KiKit_MB_12_9*%
X81281000Y-86876200D03*
%TD*%
%TO.C,KiKit_MB_26_6*%
X134630600Y-49875000D03*
%TD*%
%TO.C,KiKit_MB_24_9*%
X122028200Y-92859372D03*
%TD*%
%TO.C,KiKit_MB_14_4*%
X89843400Y-49875000D03*
%TD*%
%TO.C,KiKit_MB_12_4*%
X77531000Y-86876200D03*
%TD*%
%TO.C,KiKit_MB_9_10*%
X82031000Y-85126200D03*
%TD*%
D11*
%TO.C,KiKit_FID_T_2*%
X135806828Y-46350000D03*
%TD*%
D10*
%TO.C,KiKit_MB_8_9*%
X68968600Y-86876200D03*
%TD*%
%TO.C,KiKit_MB_17_6*%
X104925800Y-91109372D03*
%TD*%
%TO.C,KiKit_MB_19_6*%
X104925800Y-134093744D03*
%TD*%
%TO.C,KiKit_MB_4_10*%
X57406200Y-86876200D03*
%TD*%
%TO.C,KiKit_MB_28_4*%
X133130600Y-92859372D03*
%TD*%
%TO.C,KiKit_MB_23_9*%
X122028200Y-134093744D03*
%TD*%
%TO.C,KiKit_MB_5_5*%
X65968600Y-85126200D03*
%TD*%
%TO.C,KiKit_MB_10_9*%
X81281000Y-49875000D03*
%TD*%
D12*
%TO.C,J1*%
X67417800Y-119986600D03*
%TD*%
D10*
%TO.C,KiKit_MB_21_7*%
X120528200Y-91109372D03*
%TD*%
%TO.C,KiKit_MB_25_9*%
X136880600Y-91109372D03*
%TD*%
D13*
%TO.C,U2*%
X115888200Y-94762372D03*
X115888200Y-96032372D03*
X115888200Y-97302372D03*
X115888200Y-98572372D03*
X115888200Y-99842372D03*
X115888200Y-101112372D03*
X115888200Y-102382372D03*
X115888200Y-103652372D03*
X115888200Y-104922372D03*
X115888200Y-106192372D03*
X125168200Y-106192372D03*
X125168200Y-104922372D03*
X125168200Y-103652372D03*
X125168200Y-102382372D03*
X125168200Y-101112372D03*
X125168200Y-99842372D03*
X125168200Y-98572372D03*
X125168200Y-97302372D03*
X125168200Y-96032372D03*
X125168200Y-94762372D03*
%TD*%
D10*
%TO.C,KiKit_MB_8_10*%
X69718600Y-86876200D03*
%TD*%
%TO.C,KiKit_MB_9_9*%
X81281000Y-85126200D03*
%TD*%
%TO.C,KiKit_MB_22_7*%
X120528200Y-49875000D03*
%TD*%
%TO.C,KiKit_MB_9_5*%
X78281000Y-85126200D03*
%TD*%
%TO.C,KiKit_MB_5_10*%
X69718600Y-85126200D03*
%TD*%
%TO.C,KiKit_MB_6_8*%
X68218600Y-49875000D03*
%TD*%
%TO.C,KiKit_MB_20_6*%
X104925800Y-92859372D03*
%TD*%
%TO.C,KiKit_MB_19_4*%
X103425800Y-134093744D03*
%TD*%
%TO.C,KiKit_MB_23_8*%
X121278200Y-134093744D03*
%TD*%
%TO.C,KiKit_MB_1_5*%
X53656200Y-85126200D03*
%TD*%
D11*
%TO.C,KiKit_FID_T_4*%
X135806828Y-137118744D03*
%TD*%
D10*
%TO.C,KiKit_MB_9_8*%
X80531000Y-85126200D03*
%TD*%
%TO.C,KiKit_MB_24_10*%
X122778200Y-92859372D03*
%TD*%
%TO.C,KiKit_MB_18_8*%
X106425800Y-49875000D03*
%TD*%
%TO.C,KiKit_MB_6_6*%
X66718600Y-49875000D03*
%TD*%
%TO.C,KiKit_MB_3_6*%
X54406200Y-122127400D03*
%TD*%
%TO.C,KiKit_MB_11_6*%
X79031000Y-122127400D03*
%TD*%
%TO.C,KiKit_MB_18_10*%
X107925800Y-49875000D03*
%TD*%
D13*
%TO.C,U2*%
X101035800Y-94762372D03*
X101035800Y-96032372D03*
X101035800Y-97302372D03*
X101035800Y-98572372D03*
X101035800Y-99842372D03*
X101035800Y-101112372D03*
X101035800Y-102382372D03*
X101035800Y-103652372D03*
X101035800Y-104922372D03*
X101035800Y-106192372D03*
X110315800Y-106192372D03*
X110315800Y-104922372D03*
X110315800Y-103652372D03*
X110315800Y-102382372D03*
X110315800Y-101112372D03*
X110315800Y-99842372D03*
X110315800Y-98572372D03*
X110315800Y-97302372D03*
X110315800Y-96032372D03*
X110315800Y-94762372D03*
%TD*%
D10*
%TO.C,KiKit_MB_12_6*%
X79031000Y-86876200D03*
%TD*%
%TO.C,KiKit_MB_25_6*%
X134630600Y-91109372D03*
%TD*%
%TO.C,KiKit_MB_16_6*%
X91343400Y-86876200D03*
%TD*%
%TO.C,KiKit_MB_20_5*%
X104175800Y-92859372D03*
%TD*%
%TO.C,KiKit_MB_11_4*%
X77531000Y-122127400D03*
%TD*%
%TO.C,KiKit_MB_3_4*%
X52906200Y-122127400D03*
%TD*%
%TO.C,KiKit_MB_15_7*%
X92093400Y-122127400D03*
%TD*%
%TO.C,KiKit_MB_26_4*%
X133130600Y-49875000D03*
%TD*%
%TO.C,KiKit_MB_11_7*%
X79781000Y-122127400D03*
%TD*%
%TO.C,KiKit_MB_6_4*%
X65218600Y-49875000D03*
%TD*%
%TO.C,KiKit_MB_3_7*%
X55156200Y-122127400D03*
%TD*%
%TO.C,KiKit_MB_17_9*%
X107175800Y-91109372D03*
%TD*%
%TO.C,KiKit_MB_9_7*%
X79781000Y-85126200D03*
%TD*%
%TO.C,KiKit_MB_12_7*%
X79781000Y-86876200D03*
%TD*%
%TO.C,KiKit_MB_3_8*%
X55906200Y-122127400D03*
%TD*%
%TO.C,KiKit_MB_19_10*%
X107925800Y-134093744D03*
%TD*%
%TO.C,KiKit_MB_24_4*%
X118278200Y-92859372D03*
%TD*%
%TO.C,KiKit_MB_5_8*%
X68218600Y-85126200D03*
%TD*%
%TO.C,KiKit_MB_24_5*%
X119028200Y-92859372D03*
%TD*%
D14*
%TO.C,U1*%
X59602400Y-52056400D03*
X58332400Y-52056400D03*
X57062400Y-52056400D03*
X55792400Y-52056400D03*
X54522400Y-52056400D03*
X53252400Y-52056400D03*
X51982400Y-52056400D03*
X50712400Y-52056400D03*
X50712400Y-61336400D03*
X51982400Y-61336400D03*
X53252400Y-61336400D03*
X54522400Y-61336400D03*
X55792400Y-61336400D03*
X57062400Y-61336400D03*
X58332400Y-61336400D03*
X59602400Y-61336400D03*
%TD*%
%TO.C,U1*%
X96539600Y-52056400D03*
X95269600Y-52056400D03*
X93999600Y-52056400D03*
X92729600Y-52056400D03*
X91459600Y-52056400D03*
X90189600Y-52056400D03*
X88919600Y-52056400D03*
X87649600Y-52056400D03*
X87649600Y-61336400D03*
X88919600Y-61336400D03*
X90189600Y-61336400D03*
X91459600Y-61336400D03*
X92729600Y-61336400D03*
X93999600Y-61336400D03*
X95269600Y-61336400D03*
X96539600Y-61336400D03*
%TD*%
D10*
%TO.C,KiKit_MB_22_4*%
X118278200Y-49875000D03*
%TD*%
%TO.C,KiKit_MB_17_8*%
X106425800Y-91109372D03*
%TD*%
%TO.C,KiKit_MB_13_4*%
X89843400Y-85126200D03*
%TD*%
%TO.C,KiKit_MB_22_6*%
X119778200Y-49875000D03*
%TD*%
%TO.C,KiKit_MB_23_5*%
X119028200Y-134093744D03*
%TD*%
%TO.C,KiKit_MB_16_9*%
X93593400Y-86876200D03*
%TD*%
D14*
%TO.C,U1*%
X71914800Y-52056400D03*
X70644800Y-52056400D03*
X69374800Y-52056400D03*
X68104800Y-52056400D03*
X66834800Y-52056400D03*
X65564800Y-52056400D03*
X64294800Y-52056400D03*
X63024800Y-52056400D03*
X63024800Y-61336400D03*
X64294800Y-61336400D03*
X65564800Y-61336400D03*
X66834800Y-61336400D03*
X68104800Y-61336400D03*
X69374800Y-61336400D03*
X70644800Y-61336400D03*
X71914800Y-61336400D03*
%TD*%
D12*
%TO.C,J1*%
X67417800Y-82985400D03*
%TD*%
D10*
%TO.C,KiKit_MB_21_9*%
X122028200Y-91109372D03*
%TD*%
%TO.C,KiKit_MB_14_8*%
X92843400Y-49875000D03*
%TD*%
%TO.C,KiKit_MB_20_7*%
X105675800Y-92859372D03*
%TD*%
%TO.C,KiKit_MB_27_10*%
X137630600Y-134093744D03*
%TD*%
%TO.C,KiKit_MB_14_7*%
X92093400Y-49875000D03*
%TD*%
D12*
%TO.C,J1*%
X92042600Y-82985400D03*
%TD*%
D10*
%TO.C,KiKit_MB_2_9*%
X56656200Y-49875000D03*
%TD*%
%TO.C,KiKit_MB_8_8*%
X68218600Y-86876200D03*
%TD*%
%TO.C,KiKit_MB_10_7*%
X79781000Y-49875000D03*
%TD*%
%TO.C,KiKit_MB_22_5*%
X119028200Y-49875000D03*
%TD*%
%TO.C,KiKit_MB_3_5*%
X53656200Y-122127400D03*
%TD*%
%TO.C,KiKit_MB_14_6*%
X91343400Y-49875000D03*
%TD*%
%TO.C,KiKit_MB_23_10*%
X122778200Y-134093744D03*
%TD*%
%TO.C,KiKit_MB_15_6*%
X91343400Y-122127400D03*
%TD*%
%TO.C,KiKit_MB_23_4*%
X118278200Y-134093744D03*
%TD*%
%TO.C,KiKit_MB_18_7*%
X105675800Y-49875000D03*
%TD*%
D11*
%TO.C,KiKit_FID_T_1*%
X56000000Y-46350000D03*
%TD*%
D10*
%TO.C,KiKit_MB_10_10*%
X82031000Y-49875000D03*
%TD*%
%TO.C,KiKit_MB_22_10*%
X122778200Y-49875000D03*
%TD*%
%TO.C,KiKit_MB_27_7*%
X135380600Y-134093744D03*
%TD*%
%TO.C,KiKit_MB_25_4*%
X133130600Y-91109372D03*
%TD*%
%TO.C,KiKit_MB_4_7*%
X55156200Y-86876200D03*
%TD*%
%TO.C,KiKit_MB_10_4*%
X77531000Y-49875000D03*
%TD*%
%TO.C,KiKit_MB_11_9*%
X81281000Y-122127400D03*
%TD*%
%TO.C,KiKit_MB_28_7*%
X135380600Y-92859372D03*
%TD*%
D12*
%TO.C,J1*%
X55105400Y-119986600D03*
%TD*%
D10*
%TO.C,KiKit_MB_1_9*%
X56656200Y-85126200D03*
%TD*%
%TO.C,KiKit_MB_2_8*%
X55906200Y-49875000D03*
%TD*%
%TO.C,KiKit_MB_7_10*%
X69718600Y-122127400D03*
%TD*%
%TO.C,KiKit_MB_28_8*%
X136130600Y-92859372D03*
%TD*%
%TO.C,KiKit_MB_21_10*%
X122778200Y-91109372D03*
%TD*%
%TO.C,KiKit_MB_23_6*%
X119778200Y-134093744D03*
%TD*%
%TO.C,KiKit_MB_5_7*%
X67468600Y-85126200D03*
%TD*%
%TO.C,KiKit_MB_1_8*%
X55906200Y-85126200D03*
%TD*%
%TO.C,KiKit_MB_18_6*%
X104925800Y-49875000D03*
%TD*%
%TO.C,KiKit_MB_27_8*%
X136130600Y-134093744D03*
%TD*%
D14*
%TO.C,U1*%
X71914800Y-89057600D03*
X70644800Y-89057600D03*
X69374800Y-89057600D03*
X68104800Y-89057600D03*
X66834800Y-89057600D03*
X65564800Y-89057600D03*
X64294800Y-89057600D03*
X63024800Y-89057600D03*
X63024800Y-98337600D03*
X64294800Y-98337600D03*
X65564800Y-98337600D03*
X66834800Y-98337600D03*
X68104800Y-98337600D03*
X69374800Y-98337600D03*
X70644800Y-98337600D03*
X71914800Y-98337600D03*
%TD*%
D10*
%TO.C,KiKit_MB_12_10*%
X82031000Y-86876200D03*
%TD*%
%TO.C,KiKit_MB_28_5*%
X133880600Y-92859372D03*
%TD*%
%TO.C,KiKit_MB_19_5*%
X104175800Y-134093744D03*
%TD*%
%TO.C,KiKit_MB_9_4*%
X77531000Y-85126200D03*
%TD*%
%TO.C,KiKit_MB_18_4*%
X103425800Y-49875000D03*
%TD*%
%TO.C,KiKit_MB_27_4*%
X133130600Y-134093744D03*
%TD*%
%TO.C,KiKit_MB_7_4*%
X65218600Y-122127400D03*
%TD*%
%TO.C,KiKit_MB_11_10*%
X82031000Y-122127400D03*
%TD*%
%TO.C,KiKit_MB_21_4*%
X118278200Y-91109372D03*
%TD*%
%TO.C,KiKit_MB_7_6*%
X66718600Y-122127400D03*
%TD*%
%TO.C,KiKit_MB_13_8*%
X92843400Y-85126200D03*
%TD*%
%TO.C,KiKit_MB_16_8*%
X92843400Y-86876200D03*
%TD*%
D11*
%TO.C,KiKit_TO_1*%
X53000000Y-45000000D03*
%TD*%
D10*
%TO.C,KiKit_MB_24_8*%
X121278200Y-92859372D03*
%TD*%
D14*
%TO.C,U1*%
X59602400Y-89057600D03*
X58332400Y-89057600D03*
X57062400Y-89057600D03*
X55792400Y-89057600D03*
X54522400Y-89057600D03*
X53252400Y-89057600D03*
X51982400Y-89057600D03*
X50712400Y-89057600D03*
X50712400Y-98337600D03*
X51982400Y-98337600D03*
X53252400Y-98337600D03*
X54522400Y-98337600D03*
X55792400Y-98337600D03*
X57062400Y-98337600D03*
X58332400Y-98337600D03*
X59602400Y-98337600D03*
%TD*%
D10*
%TO.C,KiKit_MB_2_7*%
X55156200Y-49875000D03*
%TD*%
%TO.C,KiKit_MB_26_10*%
X137630600Y-49875000D03*
%TD*%
D13*
%TO.C,U2*%
X130740600Y-94762372D03*
X130740600Y-96032372D03*
X130740600Y-97302372D03*
X130740600Y-98572372D03*
X130740600Y-99842372D03*
X130740600Y-101112372D03*
X130740600Y-102382372D03*
X130740600Y-103652372D03*
X130740600Y-104922372D03*
X130740600Y-106192372D03*
X140020600Y-106192372D03*
X140020600Y-104922372D03*
X140020600Y-103652372D03*
X140020600Y-102382372D03*
X140020600Y-101112372D03*
X140020600Y-99842372D03*
X140020600Y-98572372D03*
X140020600Y-97302372D03*
X140020600Y-96032372D03*
X140020600Y-94762372D03*
%TD*%
D14*
%TO.C,U1*%
X84227200Y-89057600D03*
X82957200Y-89057600D03*
X81687200Y-89057600D03*
X80417200Y-89057600D03*
X79147200Y-89057600D03*
X77877200Y-89057600D03*
X76607200Y-89057600D03*
X75337200Y-89057600D03*
X75337200Y-98337600D03*
X76607200Y-98337600D03*
X77877200Y-98337600D03*
X79147200Y-98337600D03*
X80417200Y-98337600D03*
X81687200Y-98337600D03*
X82957200Y-98337600D03*
X84227200Y-98337600D03*
%TD*%
D10*
%TO.C,KiKit_MB_1_10*%
X57406200Y-85126200D03*
%TD*%
%TO.C,KiKit_MB_13_9*%
X93593400Y-85126200D03*
%TD*%
%TO.C,KiKit_MB_8_5*%
X65968600Y-86876200D03*
%TD*%
%TO.C,KiKit_MB_2_6*%
X54406200Y-49875000D03*
%TD*%
%TO.C,KiKit_MB_20_9*%
X107175800Y-92859372D03*
%TD*%
%TO.C,KiKit_MB_27_5*%
X133880600Y-134093744D03*
%TD*%
%TO.C,KiKit_MB_4_9*%
X56656200Y-86876200D03*
%TD*%
%TO.C,KiKit_MB_10_5*%
X78281000Y-49875000D03*
%TD*%
%TO.C,KiKit_MB_4_6*%
X54406200Y-86876200D03*
%TD*%
%TO.C,KiKit_MB_1_6*%
X54406200Y-85126200D03*
%TD*%
%TO.C,KiKit_MB_9_6*%
X79031000Y-85126200D03*
%TD*%
%TO.C,KiKit_MB_14_10*%
X94343400Y-49875000D03*
%TD*%
%TO.C,KiKit_MB_2_4*%
X52906200Y-49875000D03*
%TD*%
%TO.C,KiKit_MB_25_10*%
X137630600Y-91109372D03*
%TD*%
D12*
%TO.C,J1*%
X79730200Y-82985400D03*
%TD*%
D10*
%TO.C,KiKit_MB_24_7*%
X120528200Y-92859372D03*
%TD*%
%TO.C,KiKit_MB_26_8*%
X136130600Y-49875000D03*
%TD*%
D12*
%TO.C,J1*%
X55105400Y-82985400D03*
%TD*%
D10*
%TO.C,KiKit_MB_2_10*%
X57406200Y-49875000D03*
%TD*%
%TO.C,KiKit_MB_8_4*%
X65218600Y-86876200D03*
%TD*%
%TO.C,KiKit_MB_8_6*%
X66718600Y-86876200D03*
%TD*%
%TO.C,KiKit_MB_11_8*%
X80531000Y-122127400D03*
%TD*%
D12*
%TO.C,J1*%
X92042600Y-119986600D03*
%TD*%
D14*
%TO.C,U1*%
X84227200Y-52056400D03*
X82957200Y-52056400D03*
X81687200Y-52056400D03*
X80417200Y-52056400D03*
X79147200Y-52056400D03*
X77877200Y-52056400D03*
X76607200Y-52056400D03*
X75337200Y-52056400D03*
X75337200Y-61336400D03*
X76607200Y-61336400D03*
X77877200Y-61336400D03*
X79147200Y-61336400D03*
X80417200Y-61336400D03*
X81687200Y-61336400D03*
X82957200Y-61336400D03*
X84227200Y-61336400D03*
%TD*%
D11*
%TO.C,KiKit_TO_3*%
X53000000Y-138468744D03*
%TD*%
D10*
%TO.C,KiKit_MB_25_8*%
X136130600Y-91109372D03*
%TD*%
%TO.C,KiKit_MB_17_10*%
X107925800Y-91109372D03*
%TD*%
%TO.C,KiKit_MB_2_5*%
X53656200Y-49875000D03*
%TD*%
%TO.C,KiKit_MB_4_4*%
X52906200Y-86876200D03*
%TD*%
%TO.C,KiKit_MB_3_10*%
X57406200Y-122127400D03*
%TD*%
D11*
%TO.C,KiKit_FID_T_3*%
X56000000Y-137118744D03*
%TD*%
D10*
%TO.C,KiKit_MB_26_7*%
X135380600Y-49875000D03*
%TD*%
%TO.C,KiKit_MB_6_7*%
X67468600Y-49875000D03*
%TD*%
%TO.C,KiKit_MB_22_9*%
X122028200Y-49875000D03*
%TD*%
%TO.C,KiKit_MB_22_8*%
X121278200Y-49875000D03*
%TD*%
%TO.C,KiKit_MB_5_9*%
X68968600Y-85126200D03*
%TD*%
%TO.C,KiKit_MB_15_4*%
X89843400Y-122127400D03*
%TD*%
%TO.C,KiKit_MB_21_6*%
X119778200Y-91109372D03*
%TD*%
%TO.C,KiKit_MB_21_8*%
X121278200Y-91109372D03*
%TD*%
%TO.C,KiKit_MB_7_8*%
X68218600Y-122127400D03*
%TD*%
%TO.C,KiKit_MB_18_9*%
X107175800Y-49875000D03*
%TD*%
%TO.C,KiKit_MB_15_8*%
X92843400Y-122127400D03*
%TD*%
%TO.C,KiKit_MB_14_5*%
X90593400Y-49875000D03*
%TD*%
%TO.C,KiKit_MB_5_6*%
X66718600Y-85126200D03*
%TD*%
%TO.C,KiKit_MB_4_5*%
X53656200Y-86876200D03*
%TD*%
%TO.C,KiKit_MB_17_4*%
X103425800Y-91109372D03*
%TD*%
%TO.C,KiKit_MB_10_6*%
X79031000Y-49875000D03*
%TD*%
%TO.C,KiKit_MB_7_9*%
X68968600Y-122127400D03*
%TD*%
%TO.C,KiKit_MB_15_10*%
X94343400Y-122127400D03*
%TD*%
%TO.C,KiKit_MB_20_4*%
X103425800Y-92859372D03*
%TD*%
%TO.C,KiKit_MB_10_8*%
X80531000Y-49875000D03*
%TD*%
%TO.C,KiKit_MB_16_7*%
X92093400Y-86876200D03*
%TD*%
%TO.C,KiKit_MB_13_7*%
X92093400Y-85126200D03*
%TD*%
%TO.C,KiKit_MB_6_5*%
X65968600Y-49875000D03*
%TD*%
%TO.C,KiKit_MB_24_6*%
X119778200Y-92859372D03*
%TD*%
%TO.C,KiKit_MB_7_7*%
X67468600Y-122127400D03*
%TD*%
%TO.C,KiKit_MB_4_8*%
X55906200Y-86876200D03*
%TD*%
%TO.C,KiKit_MB_19_8*%
X106425800Y-134093744D03*
%TD*%
%TO.C,KiKit_MB_13_10*%
X94343400Y-85126200D03*
%TD*%
%TO.C,KiKit_MB_28_9*%
X136880600Y-92859372D03*
%TD*%
%TO.C,KiKit_MB_26_5*%
X133880600Y-49875000D03*
%TD*%
%TO.C,KiKit_MB_3_9*%
X56656200Y-122127400D03*
%TD*%
D14*
%TO.C,U1*%
X96539600Y-89057600D03*
X95269600Y-89057600D03*
X93999600Y-89057600D03*
X92729600Y-89057600D03*
X91459600Y-89057600D03*
X90189600Y-89057600D03*
X88919600Y-89057600D03*
X87649600Y-89057600D03*
X87649600Y-98337600D03*
X88919600Y-98337600D03*
X90189600Y-98337600D03*
X91459600Y-98337600D03*
X92729600Y-98337600D03*
X93999600Y-98337600D03*
X95269600Y-98337600D03*
X96539600Y-98337600D03*
%TD*%
D12*
%TO.C,J1*%
X79730200Y-119986600D03*
%TD*%
D10*
%TO.C,KiKit_MB_6_10*%
X69718600Y-49875000D03*
%TD*%
%TO.C,KiKit_MB_16_4*%
X89843400Y-86876200D03*
%TD*%
%TO.C,KiKit_MB_28_6*%
X134630600Y-92859372D03*
%TD*%
%TO.C,KiKit_MB_14_9*%
X93593400Y-49875000D03*
%TD*%
%TO.C,KiKit_MB_27_6*%
X134630600Y-134093744D03*
%TD*%
%TO.C,KiKit_MB_12_5*%
X78281000Y-86876200D03*
%TD*%
D11*
%TO.C,KiKit_TO_4*%
X138806828Y-138468744D03*
%TD*%
D10*
%TO.C,KiKit_MB_16_5*%
X90593400Y-86876200D03*
%TD*%
%TO.C,KiKit_MB_7_5*%
X65968600Y-122127400D03*
%TD*%
%TO.C,KiKit_MB_13_5*%
X90593400Y-85126200D03*
%TD*%
D13*
%TO.C,U2*%
X101035800Y-51778000D03*
X101035800Y-53048000D03*
X101035800Y-54318000D03*
X101035800Y-55588000D03*
X101035800Y-56858000D03*
X101035800Y-58128000D03*
X101035800Y-59398000D03*
X101035800Y-60668000D03*
X101035800Y-61938000D03*
X101035800Y-63208000D03*
X110315800Y-63208000D03*
X110315800Y-61938000D03*
X110315800Y-60668000D03*
X110315800Y-59398000D03*
X110315800Y-58128000D03*
X110315800Y-56858000D03*
X110315800Y-55588000D03*
X110315800Y-54318000D03*
X110315800Y-53048000D03*
X110315800Y-51778000D03*
%TD*%
D11*
%TO.C,KiKit_TO_2*%
X138806828Y-45000000D03*
%TD*%
D10*
%TO.C,KiKit_MB_1_7*%
X55156200Y-85126200D03*
%TD*%
%TO.C,KiKit_MB_21_5*%
X119028200Y-91109372D03*
%TD*%
%TO.C,KiKit_MB_17_7*%
X105675800Y-91109372D03*
%TD*%
%TO.C,KiKit_MB_16_10*%
X94343400Y-86876200D03*
%TD*%
%TO.C,KiKit_MB_17_5*%
X104175800Y-91109372D03*
%TD*%
%TO.C,KiKit_MB_23_7*%
X120528200Y-134093744D03*
%TD*%
%TO.C,KiKit_MB_20_10*%
X107925800Y-92859372D03*
%TD*%
%TO.C,KiKit_MB_28_10*%
X137630600Y-92859372D03*
%TD*%
%TO.C,KiKit_MB_19_9*%
X107175800Y-134093744D03*
%TD*%
%TO.C,KiKit_MB_6_9*%
X68968600Y-49875000D03*
%TD*%
%TO.C,KiKit_MB_20_8*%
X106425800Y-92859372D03*
%TD*%
%TO.C,KiKit_MB_25_7*%
X135380600Y-91109372D03*
%TD*%
%TO.C,KiKit_MB_27_9*%
X136880600Y-134093744D03*
%TD*%
%TO.C,KiKit_MB_12_8*%
X80531000Y-86876200D03*
%TD*%
%TO.C,KiKit_MB_18_5*%
X104175800Y-49875000D03*
%TD*%
%TO.C,KiKit_MB_5_4*%
X65218600Y-85126200D03*
%TD*%
%TO.C,KiKit_MB_15_9*%
X93593400Y-122127400D03*
%TD*%
%TO.C,KiKit_MB_1_4*%
X52906200Y-85126200D03*
%TD*%
%TO.C,KiKit_MB_11_5*%
X78281000Y-122127400D03*
%TD*%
%TO.C,KiKit_MB_19_7*%
X105675800Y-134093744D03*
%TD*%
%TO.C,KiKit_MB_8_7*%
X67468600Y-86876200D03*
%TD*%
%TO.C,KiKit_MB_13_6*%
X91343400Y-85126200D03*
%TD*%
%TO.C,KiKit_MB_15_5*%
X90593400Y-122127400D03*
%TD*%
D13*
%TO.C,U2*%
X130740600Y-51778000D03*
X130740600Y-53048000D03*
X130740600Y-54318000D03*
X130740600Y-55588000D03*
X130740600Y-56858000D03*
X130740600Y-58128000D03*
X130740600Y-59398000D03*
X130740600Y-60668000D03*
X130740600Y-61938000D03*
X130740600Y-63208000D03*
X140020600Y-63208000D03*
X140020600Y-61938000D03*
X140020600Y-60668000D03*
X140020600Y-59398000D03*
X140020600Y-58128000D03*
X140020600Y-56858000D03*
X140020600Y-55588000D03*
X140020600Y-54318000D03*
X140020600Y-53048000D03*
X140020600Y-51778000D03*
%TD*%
%TO.C,U2*%
X115888200Y-51778000D03*
X115888200Y-53048000D03*
X115888200Y-54318000D03*
X115888200Y-55588000D03*
X115888200Y-56858000D03*
X115888200Y-58128000D03*
X115888200Y-59398000D03*
X115888200Y-60668000D03*
X115888200Y-61938000D03*
X115888200Y-63208000D03*
X125168200Y-63208000D03*
X125168200Y-61938000D03*
X125168200Y-60668000D03*
X125168200Y-59398000D03*
X125168200Y-58128000D03*
X125168200Y-56858000D03*
X125168200Y-55588000D03*
X125168200Y-54318000D03*
X125168200Y-53048000D03*
X125168200Y-51778000D03*
%TD*%
D10*
%TO.C,KiKit_MB_25_5*%
X133880600Y-91109372D03*
%TD*%
%TO.C,KiKit_MB_26_9*%
X136880600Y-49875000D03*
%TD*%
D15*
%TO.C,J6*%
X100587528Y-66383000D03*
D16*
X100587528Y-68923000D03*
X100587528Y-71463000D03*
X100587528Y-74003000D03*
X100587528Y-76543000D03*
X100587528Y-79083000D03*
X100587528Y-81623000D03*
X100587528Y-84163000D03*
X100587528Y-86703000D03*
X100587528Y-89243000D03*
%TD*%
D15*
%TO.C,J6*%
X100587528Y-109367372D03*
D16*
X100587528Y-111907372D03*
X100587528Y-114447372D03*
X100587528Y-116987372D03*
X100587528Y-119527372D03*
X100587528Y-122067372D03*
X100587528Y-124607372D03*
X100587528Y-127147372D03*
X100587528Y-129687372D03*
X100587528Y-132227372D03*
%TD*%
D15*
%TO.C,J5*%
X110747528Y-66383000D03*
D16*
X110747528Y-68923000D03*
X110747528Y-71463000D03*
X110747528Y-74003000D03*
X110747528Y-76543000D03*
X110747528Y-79083000D03*
X110747528Y-81623000D03*
X110747528Y-84163000D03*
X110747528Y-86703000D03*
X110747528Y-89243000D03*
%TD*%
D15*
%TO.C,J5*%
X125599928Y-66383000D03*
D16*
X125599928Y-68923000D03*
X125599928Y-71463000D03*
X125599928Y-74003000D03*
X125599928Y-76543000D03*
X125599928Y-79083000D03*
X125599928Y-81623000D03*
X125599928Y-84163000D03*
X125599928Y-86703000D03*
X125599928Y-89243000D03*
%TD*%
D15*
%TO.C,J3*%
X88232600Y-102841600D03*
D16*
X88232600Y-105381600D03*
X88232600Y-107921600D03*
X88232600Y-110461600D03*
X88232600Y-113001600D03*
X88232600Y-115541600D03*
X88232600Y-118081600D03*
X88232600Y-120621600D03*
%TD*%
D15*
%TO.C,J3*%
X75920200Y-65840400D03*
D16*
X75920200Y-68380400D03*
X75920200Y-70920400D03*
X75920200Y-73460400D03*
X75920200Y-76000400D03*
X75920200Y-78540400D03*
X75920200Y-81080400D03*
X75920200Y-83620400D03*
%TD*%
D15*
%TO.C,J6*%
X130292328Y-66383000D03*
D16*
X130292328Y-68923000D03*
X130292328Y-71463000D03*
X130292328Y-74003000D03*
X130292328Y-76543000D03*
X130292328Y-79083000D03*
X130292328Y-81623000D03*
X130292328Y-84163000D03*
X130292328Y-86703000D03*
X130292328Y-89243000D03*
%TD*%
D15*
%TO.C,J3*%
X88232600Y-65840400D03*
D16*
X88232600Y-68380400D03*
X88232600Y-70920400D03*
X88232600Y-73460400D03*
X88232600Y-76000400D03*
X88232600Y-78540400D03*
X88232600Y-81080400D03*
X88232600Y-83620400D03*
%TD*%
D15*
%TO.C,J2*%
X71227800Y-102841600D03*
D16*
X71227800Y-105381600D03*
X71227800Y-107921600D03*
X71227800Y-110461600D03*
X71227800Y-113001600D03*
X71227800Y-115541600D03*
X71227800Y-118081600D03*
X71227800Y-120621600D03*
%TD*%
D15*
%TO.C,J2*%
X71227800Y-65840400D03*
D16*
X71227800Y-68380400D03*
X71227800Y-70920400D03*
X71227800Y-73460400D03*
X71227800Y-76000400D03*
X71227800Y-78540400D03*
X71227800Y-81080400D03*
X71227800Y-83620400D03*
%TD*%
D15*
%TO.C,J3*%
X75920200Y-102841600D03*
D16*
X75920200Y-105381600D03*
X75920200Y-107921600D03*
X75920200Y-110461600D03*
X75920200Y-113001600D03*
X75920200Y-115541600D03*
X75920200Y-118081600D03*
X75920200Y-120621600D03*
%TD*%
D15*
%TO.C,J3*%
X51295400Y-65840400D03*
D16*
X51295400Y-68380400D03*
X51295400Y-70920400D03*
X51295400Y-73460400D03*
X51295400Y-76000400D03*
X51295400Y-78540400D03*
X51295400Y-81080400D03*
X51295400Y-83620400D03*
%TD*%
D15*
%TO.C,J2*%
X58915400Y-102841600D03*
D16*
X58915400Y-105381600D03*
X58915400Y-107921600D03*
X58915400Y-110461600D03*
X58915400Y-113001600D03*
X58915400Y-115541600D03*
X58915400Y-118081600D03*
X58915400Y-120621600D03*
%TD*%
D15*
%TO.C,J5*%
X140452328Y-66383000D03*
D16*
X140452328Y-68923000D03*
X140452328Y-71463000D03*
X140452328Y-74003000D03*
X140452328Y-76543000D03*
X140452328Y-79083000D03*
X140452328Y-81623000D03*
X140452328Y-84163000D03*
X140452328Y-86703000D03*
X140452328Y-89243000D03*
%TD*%
D15*
%TO.C,J6*%
X115439928Y-109367372D03*
D16*
X115439928Y-111907372D03*
X115439928Y-114447372D03*
X115439928Y-116987372D03*
X115439928Y-119527372D03*
X115439928Y-122067372D03*
X115439928Y-124607372D03*
X115439928Y-127147372D03*
X115439928Y-129687372D03*
X115439928Y-132227372D03*
%TD*%
D15*
%TO.C,J6*%
X115439928Y-66383000D03*
D16*
X115439928Y-68923000D03*
X115439928Y-71463000D03*
X115439928Y-74003000D03*
X115439928Y-76543000D03*
X115439928Y-79083000D03*
X115439928Y-81623000D03*
X115439928Y-84163000D03*
X115439928Y-86703000D03*
X115439928Y-89243000D03*
%TD*%
D15*
%TO.C,J3*%
X63607800Y-102841600D03*
D16*
X63607800Y-105381600D03*
X63607800Y-107921600D03*
X63607800Y-110461600D03*
X63607800Y-113001600D03*
X63607800Y-115541600D03*
X63607800Y-118081600D03*
X63607800Y-120621600D03*
%TD*%
D15*
%TO.C,J2*%
X95852600Y-65840400D03*
D16*
X95852600Y-68380400D03*
X95852600Y-70920400D03*
X95852600Y-73460400D03*
X95852600Y-76000400D03*
X95852600Y-78540400D03*
X95852600Y-81080400D03*
X95852600Y-83620400D03*
%TD*%
D15*
%TO.C,J5*%
X125599928Y-109367372D03*
D16*
X125599928Y-111907372D03*
X125599928Y-114447372D03*
X125599928Y-116987372D03*
X125599928Y-119527372D03*
X125599928Y-122067372D03*
X125599928Y-124607372D03*
X125599928Y-127147372D03*
X125599928Y-129687372D03*
X125599928Y-132227372D03*
%TD*%
D15*
%TO.C,J6*%
X130292328Y-109367372D03*
D16*
X130292328Y-111907372D03*
X130292328Y-114447372D03*
X130292328Y-116987372D03*
X130292328Y-119527372D03*
X130292328Y-122067372D03*
X130292328Y-124607372D03*
X130292328Y-127147372D03*
X130292328Y-129687372D03*
X130292328Y-132227372D03*
%TD*%
D15*
%TO.C,J3*%
X51295400Y-102841600D03*
D16*
X51295400Y-105381600D03*
X51295400Y-107921600D03*
X51295400Y-110461600D03*
X51295400Y-113001600D03*
X51295400Y-115541600D03*
X51295400Y-118081600D03*
X51295400Y-120621600D03*
%TD*%
D15*
%TO.C,J2*%
X95852600Y-102841600D03*
D16*
X95852600Y-105381600D03*
X95852600Y-107921600D03*
X95852600Y-110461600D03*
X95852600Y-113001600D03*
X95852600Y-115541600D03*
X95852600Y-118081600D03*
X95852600Y-120621600D03*
%TD*%
D15*
%TO.C,J2*%
X83540200Y-102841600D03*
D16*
X83540200Y-105381600D03*
X83540200Y-107921600D03*
X83540200Y-110461600D03*
X83540200Y-113001600D03*
X83540200Y-115541600D03*
X83540200Y-118081600D03*
X83540200Y-120621600D03*
%TD*%
D15*
%TO.C,J2*%
X83540200Y-65840400D03*
D16*
X83540200Y-68380400D03*
X83540200Y-70920400D03*
X83540200Y-73460400D03*
X83540200Y-76000400D03*
X83540200Y-78540400D03*
X83540200Y-81080400D03*
X83540200Y-83620400D03*
%TD*%
D15*
%TO.C,J5*%
X110747528Y-109367372D03*
D16*
X110747528Y-111907372D03*
X110747528Y-114447372D03*
X110747528Y-116987372D03*
X110747528Y-119527372D03*
X110747528Y-122067372D03*
X110747528Y-124607372D03*
X110747528Y-127147372D03*
X110747528Y-129687372D03*
X110747528Y-132227372D03*
%TD*%
D15*
%TO.C,J5*%
X140452328Y-109367372D03*
D16*
X140452328Y-111907372D03*
X140452328Y-114447372D03*
X140452328Y-116987372D03*
X140452328Y-119527372D03*
X140452328Y-122067372D03*
X140452328Y-124607372D03*
X140452328Y-127147372D03*
X140452328Y-129687372D03*
X140452328Y-132227372D03*
%TD*%
D15*
%TO.C,J2*%
X58915400Y-65840400D03*
D16*
X58915400Y-68380400D03*
X58915400Y-70920400D03*
X58915400Y-73460400D03*
X58915400Y-76000400D03*
X58915400Y-78540400D03*
X58915400Y-81080400D03*
X58915400Y-83620400D03*
%TD*%
D15*
%TO.C,J3*%
X63607800Y-65840400D03*
D16*
X63607800Y-68380400D03*
X63607800Y-70920400D03*
X63607800Y-73460400D03*
X63607800Y-76000400D03*
X63607800Y-78540400D03*
X63607800Y-81080400D03*
X63607800Y-83620400D03*
%TD*%
M02*
