%TF.GenerationSoftware,KiCad,Pcbnew,9.0.7*%
%TF.CreationDate,2026-02-10T23:41:27-08:00*%
%TF.ProjectId,sot-23-panelized,736f742d-3233-42d7-9061-6e656c697a65,rev?*%
%TF.SameCoordinates,Original*%
%TF.FileFunction,Copper,L2,Bot*%
%TF.FilePolarity,Positive*%
%FSLAX46Y46*%
G04 Gerber Fmt 4.6, Leading zero omitted, Abs format (unit mm)*
G04 Created by KiCad (PCBNEW 9.0.7) date 2026-02-10 23:41:27*
%MOMM*%
%LPD*%
G01*
G04 APERTURE LIST*
%TA.AperFunction,ComponentPad*%
%ADD10R,1.700000X1.700000*%
%TD*%
%TA.AperFunction,ComponentPad*%
%ADD11C,1.700000*%
%TD*%
G04 APERTURE END LIST*
D10*
%TO.P,J2,1,Pin_1*%
%TO.N,Board_17-Net-(J2-Pin_1)*%
X170010000Y-41603000D03*
D11*
%TO.P,J2,2,Pin_2*%
%TO.N,Board_17-Net-(J2-Pin_2)*%
X172550000Y-41603000D03*
%TO.P,J2,3,Pin_3*%
%TO.N,Board_17-Net-(J2-Pin_3)*%
X175090000Y-41603000D03*
%TD*%
D10*
%TO.P,J1,1,Pin_1*%
%TO.N,Board_45-Net-(J1-Pin_1)*%
X150770000Y-86159000D03*
D11*
%TO.P,J1,2,Pin_2*%
%TO.N,Board_45-Net-(J1-Pin_2)*%
X153310000Y-86159000D03*
%TO.P,J1,3,Pin_3*%
%TO.N,Board_45-Net-(J1-Pin_3)*%
X155850000Y-86159000D03*
%TD*%
D10*
%TO.P,J2,1,Pin_1*%
%TO.N,Board_16-Net-(J2-Pin_1)*%
X160390000Y-41603000D03*
D11*
%TO.P,J2,2,Pin_2*%
%TO.N,Board_16-Net-(J2-Pin_2)*%
X162930000Y-41603000D03*
%TO.P,J2,3,Pin_3*%
%TO.N,Board_16-Net-(J2-Pin_3)*%
X165470000Y-41603000D03*
%TD*%
D10*
%TO.P,J1,1,Pin_1*%
%TO.N,Board_10-Net-(J1-Pin_1)*%
X102670000Y-49223000D03*
D11*
%TO.P,J1,2,Pin_2*%
%TO.N,Board_10-Net-(J1-Pin_2)*%
X105210000Y-49223000D03*
%TO.P,J1,3,Pin_3*%
%TO.N,Board_10-Net-(J1-Pin_3)*%
X107750000Y-49223000D03*
%TD*%
D10*
%TO.P,J2,1,Pin_1*%
%TO.N,Board_40-Net-(J2-Pin_1)*%
X102670000Y-78539000D03*
D11*
%TO.P,J2,2,Pin_2*%
%TO.N,Board_40-Net-(J2-Pin_2)*%
X105210000Y-78539000D03*
%TO.P,J2,3,Pin_3*%
%TO.N,Board_40-Net-(J2-Pin_3)*%
X107750000Y-78539000D03*
%TD*%
D10*
%TO.P,J1,1,Pin_1*%
%TO.N,Board_5-Net-(J1-Pin_1)*%
X150770000Y-36911000D03*
D11*
%TO.P,J1,2,Pin_2*%
%TO.N,Board_5-Net-(J1-Pin_2)*%
X153310000Y-36911000D03*
%TO.P,J1,3,Pin_3*%
%TO.N,Board_5-Net-(J1-Pin_3)*%
X155850000Y-36911000D03*
%TD*%
D10*
%TO.P,J1,1,Pin_1*%
%TO.N,Board_35-Net-(J1-Pin_1)*%
X150770000Y-73847000D03*
D11*
%TO.P,J1,2,Pin_2*%
%TO.N,Board_35-Net-(J1-Pin_2)*%
X153310000Y-73847000D03*
%TO.P,J1,3,Pin_3*%
%TO.N,Board_35-Net-(J1-Pin_3)*%
X155850000Y-73847000D03*
%TD*%
D10*
%TO.P,J1,1,Pin_1*%
%TO.N,Board_2-Net-(J1-Pin_1)*%
X121910000Y-36911000D03*
D11*
%TO.P,J1,2,Pin_2*%
%TO.N,Board_2-Net-(J1-Pin_2)*%
X124450000Y-36911000D03*
%TO.P,J1,3,Pin_3*%
%TO.N,Board_2-Net-(J1-Pin_3)*%
X126990000Y-36911000D03*
%TD*%
D10*
%TO.P,J2,1,Pin_1*%
%TO.N,Board_4-Net-(J2-Pin_1)*%
X141150000Y-29291000D03*
D11*
%TO.P,J2,2,Pin_2*%
%TO.N,Board_4-Net-(J2-Pin_2)*%
X143690000Y-29291000D03*
%TO.P,J2,3,Pin_3*%
%TO.N,Board_4-Net-(J2-Pin_3)*%
X146230000Y-29291000D03*
%TD*%
D10*
%TO.P,J1,1,Pin_1*%
%TO.N,Board_41-Net-(J1-Pin_1)*%
X112290000Y-86159000D03*
D11*
%TO.P,J1,2,Pin_2*%
%TO.N,Board_41-Net-(J1-Pin_2)*%
X114830000Y-86159000D03*
%TO.P,J1,3,Pin_3*%
%TO.N,Board_41-Net-(J1-Pin_3)*%
X117370000Y-86159000D03*
%TD*%
D10*
%TO.P,J2,1,Pin_1*%
%TO.N,Board_29-Net-(J2-Pin_1)*%
X189250000Y-53915000D03*
D11*
%TO.P,J2,2,Pin_2*%
%TO.N,Board_29-Net-(J2-Pin_2)*%
X191790000Y-53915000D03*
%TO.P,J2,3,Pin_3*%
%TO.N,Board_29-Net-(J2-Pin_3)*%
X194330000Y-53915000D03*
%TD*%
D10*
%TO.P,J1,1,Pin_1*%
%TO.N,Board_1-Net-(J1-Pin_1)*%
X112290000Y-36911000D03*
D11*
%TO.P,J1,2,Pin_2*%
%TO.N,Board_1-Net-(J1-Pin_2)*%
X114830000Y-36911000D03*
%TO.P,J1,3,Pin_3*%
%TO.N,Board_1-Net-(J1-Pin_3)*%
X117370000Y-36911000D03*
%TD*%
D10*
%TO.P,J2,1,Pin_1*%
%TO.N,Board_36-Net-(J2-Pin_1)*%
X160390000Y-66227000D03*
D11*
%TO.P,J2,2,Pin_2*%
%TO.N,Board_36-Net-(J2-Pin_2)*%
X162930000Y-66227000D03*
%TO.P,J2,3,Pin_3*%
%TO.N,Board_36-Net-(J2-Pin_3)*%
X165470000Y-66227000D03*
%TD*%
D10*
%TO.P,J1,1,Pin_1*%
%TO.N,Board_42-Net-(J1-Pin_1)*%
X121910000Y-86159000D03*
D11*
%TO.P,J1,2,Pin_2*%
%TO.N,Board_42-Net-(J1-Pin_2)*%
X124450000Y-86159000D03*
%TO.P,J1,3,Pin_3*%
%TO.N,Board_42-Net-(J1-Pin_3)*%
X126990000Y-86159000D03*
%TD*%
D10*
%TO.P,J2,1,Pin_1*%
%TO.N,Board_23-Net-(J2-Pin_1)*%
X131530000Y-53915000D03*
D11*
%TO.P,J2,2,Pin_2*%
%TO.N,Board_23-Net-(J2-Pin_2)*%
X134070000Y-53915000D03*
%TO.P,J2,3,Pin_3*%
%TO.N,Board_23-Net-(J2-Pin_3)*%
X136610000Y-53915000D03*
%TD*%
D10*
%TO.P,J2,1,Pin_1*%
%TO.N,Board_45-Net-(J2-Pin_1)*%
X150770000Y-78539000D03*
D11*
%TO.P,J2,2,Pin_2*%
%TO.N,Board_45-Net-(J2-Pin_2)*%
X153310000Y-78539000D03*
%TO.P,J2,3,Pin_3*%
%TO.N,Board_45-Net-(J2-Pin_3)*%
X155850000Y-78539000D03*
%TD*%
D10*
%TO.P,J1,1,Pin_1*%
%TO.N,Board_43-Net-(J1-Pin_1)*%
X131530000Y-86159000D03*
D11*
%TO.P,J1,2,Pin_2*%
%TO.N,Board_43-Net-(J1-Pin_2)*%
X134070000Y-86159000D03*
%TO.P,J1,3,Pin_3*%
%TO.N,Board_43-Net-(J1-Pin_3)*%
X136610000Y-86159000D03*
%TD*%
D10*
%TO.P,J1,1,Pin_1*%
%TO.N,Board_58-Net-(J1-Pin_1)*%
X179630000Y-98471000D03*
D11*
%TO.P,J1,2,Pin_2*%
%TO.N,Board_58-Net-(J1-Pin_2)*%
X182170000Y-98471000D03*
%TO.P,J1,3,Pin_3*%
%TO.N,Board_58-Net-(J1-Pin_3)*%
X184710000Y-98471000D03*
%TD*%
D10*
%TO.P,J2,1,Pin_1*%
%TO.N,Board_50-Net-(J2-Pin_1)*%
X102670000Y-90851000D03*
D11*
%TO.P,J2,2,Pin_2*%
%TO.N,Board_50-Net-(J2-Pin_2)*%
X105210000Y-90851000D03*
%TO.P,J2,3,Pin_3*%
%TO.N,Board_50-Net-(J2-Pin_3)*%
X107750000Y-90851000D03*
%TD*%
D10*
%TO.P,J1,1,Pin_1*%
%TO.N,Board_32-Net-(J1-Pin_1)*%
X121910000Y-73847000D03*
D11*
%TO.P,J1,2,Pin_2*%
%TO.N,Board_32-Net-(J1-Pin_2)*%
X124450000Y-73847000D03*
%TO.P,J1,3,Pin_3*%
%TO.N,Board_32-Net-(J1-Pin_3)*%
X126990000Y-73847000D03*
%TD*%
D10*
%TO.P,J2,1,Pin_1*%
%TO.N,Board_22-Net-(J2-Pin_1)*%
X121910000Y-53915000D03*
D11*
%TO.P,J2,2,Pin_2*%
%TO.N,Board_22-Net-(J2-Pin_2)*%
X124450000Y-53915000D03*
%TO.P,J2,3,Pin_3*%
%TO.N,Board_22-Net-(J2-Pin_3)*%
X126990000Y-53915000D03*
%TD*%
D10*
%TO.P,J2,1,Pin_1*%
%TO.N,Board_37-Net-(J2-Pin_1)*%
X170010000Y-66227000D03*
D11*
%TO.P,J2,2,Pin_2*%
%TO.N,Board_37-Net-(J2-Pin_2)*%
X172550000Y-66227000D03*
%TO.P,J2,3,Pin_3*%
%TO.N,Board_37-Net-(J2-Pin_3)*%
X175090000Y-66227000D03*
%TD*%
D10*
%TO.P,J1,1,Pin_1*%
%TO.N,Board_47-Net-(J1-Pin_1)*%
X170010000Y-86159000D03*
D11*
%TO.P,J1,2,Pin_2*%
%TO.N,Board_47-Net-(J1-Pin_2)*%
X172550000Y-86159000D03*
%TO.P,J1,3,Pin_3*%
%TO.N,Board_47-Net-(J1-Pin_3)*%
X175090000Y-86159000D03*
%TD*%
D10*
%TO.P,J1,1,Pin_1*%
%TO.N,Board_33-Net-(J1-Pin_1)*%
X131530000Y-73847000D03*
D11*
%TO.P,J1,2,Pin_2*%
%TO.N,Board_33-Net-(J1-Pin_2)*%
X134070000Y-73847000D03*
%TO.P,J1,3,Pin_3*%
%TO.N,Board_33-Net-(J1-Pin_3)*%
X136610000Y-73847000D03*
%TD*%
D10*
%TO.P,J2,1,Pin_1*%
%TO.N,Board_9-Net-(J2-Pin_1)*%
X189250000Y-29291000D03*
D11*
%TO.P,J2,2,Pin_2*%
%TO.N,Board_9-Net-(J2-Pin_2)*%
X191790000Y-29291000D03*
%TO.P,J2,3,Pin_3*%
%TO.N,Board_9-Net-(J2-Pin_3)*%
X194330000Y-29291000D03*
%TD*%
D10*
%TO.P,J2,1,Pin_1*%
%TO.N,Board_18-Net-(J2-Pin_1)*%
X179630000Y-41603000D03*
D11*
%TO.P,J2,2,Pin_2*%
%TO.N,Board_18-Net-(J2-Pin_2)*%
X182170000Y-41603000D03*
%TO.P,J2,3,Pin_3*%
%TO.N,Board_18-Net-(J2-Pin_3)*%
X184710000Y-41603000D03*
%TD*%
D10*
%TO.P,J1,1,Pin_1*%
%TO.N,Board_6-Net-(J1-Pin_1)*%
X160390000Y-36911000D03*
D11*
%TO.P,J1,2,Pin_2*%
%TO.N,Board_6-Net-(J1-Pin_2)*%
X162930000Y-36911000D03*
%TO.P,J1,3,Pin_3*%
%TO.N,Board_6-Net-(J1-Pin_3)*%
X165470000Y-36911000D03*
%TD*%
D10*
%TO.P,J2,1,Pin_1*%
%TO.N,Board_41-Net-(J2-Pin_1)*%
X112290000Y-78539000D03*
D11*
%TO.P,J2,2,Pin_2*%
%TO.N,Board_41-Net-(J2-Pin_2)*%
X114830000Y-78539000D03*
%TO.P,J2,3,Pin_3*%
%TO.N,Board_41-Net-(J2-Pin_3)*%
X117370000Y-78539000D03*
%TD*%
D10*
%TO.P,J2,1,Pin_1*%
%TO.N,Board_1-Net-(J2-Pin_1)*%
X112290000Y-29291000D03*
D11*
%TO.P,J2,2,Pin_2*%
%TO.N,Board_1-Net-(J2-Pin_2)*%
X114830000Y-29291000D03*
%TO.P,J2,3,Pin_3*%
%TO.N,Board_1-Net-(J2-Pin_3)*%
X117370000Y-29291000D03*
%TD*%
D10*
%TO.P,J2,1,Pin_1*%
%TO.N,Board_39-Net-(J2-Pin_1)*%
X189250000Y-66227000D03*
D11*
%TO.P,J2,2,Pin_2*%
%TO.N,Board_39-Net-(J2-Pin_2)*%
X191790000Y-66227000D03*
%TO.P,J2,3,Pin_3*%
%TO.N,Board_39-Net-(J2-Pin_3)*%
X194330000Y-66227000D03*
%TD*%
D10*
%TO.P,J2,1,Pin_1*%
%TO.N,Board_13-Net-(J2-Pin_1)*%
X131530000Y-41603000D03*
D11*
%TO.P,J2,2,Pin_2*%
%TO.N,Board_13-Net-(J2-Pin_2)*%
X134070000Y-41603000D03*
%TO.P,J2,3,Pin_3*%
%TO.N,Board_13-Net-(J2-Pin_3)*%
X136610000Y-41603000D03*
%TD*%
D10*
%TO.P,J2,1,Pin_1*%
%TO.N,Board_42-Net-(J2-Pin_1)*%
X121910000Y-78539000D03*
D11*
%TO.P,J2,2,Pin_2*%
%TO.N,Board_42-Net-(J2-Pin_2)*%
X124450000Y-78539000D03*
%TO.P,J2,3,Pin_3*%
%TO.N,Board_42-Net-(J2-Pin_3)*%
X126990000Y-78539000D03*
%TD*%
D10*
%TO.P,J1,1,Pin_1*%
%TO.N,Board_23-Net-(J1-Pin_1)*%
X131530000Y-61535000D03*
D11*
%TO.P,J1,2,Pin_2*%
%TO.N,Board_23-Net-(J1-Pin_2)*%
X134070000Y-61535000D03*
%TO.P,J1,3,Pin_3*%
%TO.N,Board_23-Net-(J1-Pin_3)*%
X136610000Y-61535000D03*
%TD*%
D10*
%TO.P,J2,1,Pin_1*%
%TO.N,Board_12-Net-(J2-Pin_1)*%
X121910000Y-41603000D03*
D11*
%TO.P,J2,2,Pin_2*%
%TO.N,Board_12-Net-(J2-Pin_2)*%
X124450000Y-41603000D03*
%TO.P,J2,3,Pin_3*%
%TO.N,Board_12-Net-(J2-Pin_3)*%
X126990000Y-41603000D03*
%TD*%
D10*
%TO.P,J2,1,Pin_1*%
%TO.N,Board_43-Net-(J2-Pin_1)*%
X131530000Y-78539000D03*
D11*
%TO.P,J2,2,Pin_2*%
%TO.N,Board_43-Net-(J2-Pin_2)*%
X134070000Y-78539000D03*
%TO.P,J2,3,Pin_3*%
%TO.N,Board_43-Net-(J2-Pin_3)*%
X136610000Y-78539000D03*
%TD*%
D10*
%TO.P,J1,1,Pin_1*%
%TO.N,Board_14-Net-(J1-Pin_1)*%
X141150000Y-49223000D03*
D11*
%TO.P,J1,2,Pin_2*%
%TO.N,Board_14-Net-(J1-Pin_2)*%
X143690000Y-49223000D03*
%TO.P,J1,3,Pin_3*%
%TO.N,Board_14-Net-(J1-Pin_3)*%
X146230000Y-49223000D03*
%TD*%
D10*
%TO.P,J2,1,Pin_1*%
%TO.N,Board_46-Net-(J2-Pin_1)*%
X160390000Y-78539000D03*
D11*
%TO.P,J2,2,Pin_2*%
%TO.N,Board_46-Net-(J2-Pin_2)*%
X162930000Y-78539000D03*
%TO.P,J2,3,Pin_3*%
%TO.N,Board_46-Net-(J2-Pin_3)*%
X165470000Y-78539000D03*
%TD*%
D10*
%TO.P,J1,1,Pin_1*%
%TO.N,Board_0-Net-(J1-Pin_1)*%
X102670000Y-36911000D03*
D11*
%TO.P,J1,2,Pin_2*%
%TO.N,Board_0-Net-(J1-Pin_2)*%
X105210000Y-36911000D03*
%TO.P,J1,3,Pin_3*%
%TO.N,Board_0-Net-(J1-Pin_3)*%
X107750000Y-36911000D03*
%TD*%
D10*
%TO.P,J1,1,Pin_1*%
%TO.N,Board_29-Net-(J1-Pin_1)*%
X189250000Y-61535000D03*
D11*
%TO.P,J1,2,Pin_2*%
%TO.N,Board_29-Net-(J1-Pin_2)*%
X191790000Y-61535000D03*
%TO.P,J1,3,Pin_3*%
%TO.N,Board_29-Net-(J1-Pin_3)*%
X194330000Y-61535000D03*
%TD*%
D10*
%TO.P,J2,1,Pin_1*%
%TO.N,Board_8-Net-(J2-Pin_1)*%
X179630000Y-29291000D03*
D11*
%TO.P,J2,2,Pin_2*%
%TO.N,Board_8-Net-(J2-Pin_2)*%
X182170000Y-29291000D03*
%TO.P,J2,3,Pin_3*%
%TO.N,Board_8-Net-(J2-Pin_3)*%
X184710000Y-29291000D03*
%TD*%
D10*
%TO.P,J1,1,Pin_1*%
%TO.N,Board_25-Net-(J1-Pin_1)*%
X150770000Y-61535000D03*
D11*
%TO.P,J1,2,Pin_2*%
%TO.N,Board_25-Net-(J1-Pin_2)*%
X153310000Y-61535000D03*
%TO.P,J1,3,Pin_3*%
%TO.N,Board_25-Net-(J1-Pin_3)*%
X155850000Y-61535000D03*
%TD*%
D10*
%TO.P,J1,1,Pin_1*%
%TO.N,Board_24-Net-(J1-Pin_1)*%
X141150000Y-61535000D03*
D11*
%TO.P,J1,2,Pin_2*%
%TO.N,Board_24-Net-(J1-Pin_2)*%
X143690000Y-61535000D03*
%TO.P,J1,3,Pin_3*%
%TO.N,Board_24-Net-(J1-Pin_3)*%
X146230000Y-61535000D03*
%TD*%
D10*
%TO.P,J1,1,Pin_1*%
%TO.N,Board_4-Net-(J1-Pin_1)*%
X141150000Y-36911000D03*
D11*
%TO.P,J1,2,Pin_2*%
%TO.N,Board_4-Net-(J1-Pin_2)*%
X143690000Y-36911000D03*
%TO.P,J1,3,Pin_3*%
%TO.N,Board_4-Net-(J1-Pin_3)*%
X146230000Y-36911000D03*
%TD*%
D10*
%TO.P,J1,1,Pin_1*%
%TO.N,Board_9-Net-(J1-Pin_1)*%
X189250000Y-36911000D03*
D11*
%TO.P,J1,2,Pin_2*%
%TO.N,Board_9-Net-(J1-Pin_2)*%
X191790000Y-36911000D03*
%TO.P,J1,3,Pin_3*%
%TO.N,Board_9-Net-(J1-Pin_3)*%
X194330000Y-36911000D03*
%TD*%
D10*
%TO.P,J2,1,Pin_1*%
%TO.N,Board_11-Net-(J2-Pin_1)*%
X112290000Y-41603000D03*
D11*
%TO.P,J2,2,Pin_2*%
%TO.N,Board_11-Net-(J2-Pin_2)*%
X114830000Y-41603000D03*
%TO.P,J2,3,Pin_3*%
%TO.N,Board_11-Net-(J2-Pin_3)*%
X117370000Y-41603000D03*
%TD*%
D10*
%TO.P,J2,1,Pin_1*%
%TO.N,Board_24-Net-(J2-Pin_1)*%
X141150000Y-53915000D03*
D11*
%TO.P,J2,2,Pin_2*%
%TO.N,Board_24-Net-(J2-Pin_2)*%
X143690000Y-53915000D03*
%TO.P,J2,3,Pin_3*%
%TO.N,Board_24-Net-(J2-Pin_3)*%
X146230000Y-53915000D03*
%TD*%
D10*
%TO.P,J1,1,Pin_1*%
%TO.N,Board_51-Net-(J1-Pin_1)*%
X112290000Y-98471000D03*
D11*
%TO.P,J1,2,Pin_2*%
%TO.N,Board_51-Net-(J1-Pin_2)*%
X114830000Y-98471000D03*
%TO.P,J1,3,Pin_3*%
%TO.N,Board_51-Net-(J1-Pin_3)*%
X117370000Y-98471000D03*
%TD*%
D10*
%TO.P,J1,1,Pin_1*%
%TO.N,Board_39-Net-(J1-Pin_1)*%
X189250000Y-73847000D03*
D11*
%TO.P,J1,2,Pin_2*%
%TO.N,Board_39-Net-(J1-Pin_2)*%
X191790000Y-73847000D03*
%TO.P,J1,3,Pin_3*%
%TO.N,Board_39-Net-(J1-Pin_3)*%
X194330000Y-73847000D03*
%TD*%
D10*
%TO.P,J2,1,Pin_1*%
%TO.N,Board_56-Net-(J2-Pin_1)*%
X160390000Y-90851000D03*
D11*
%TO.P,J2,2,Pin_2*%
%TO.N,Board_56-Net-(J2-Pin_2)*%
X162930000Y-90851000D03*
%TO.P,J2,3,Pin_3*%
%TO.N,Board_56-Net-(J2-Pin_3)*%
X165470000Y-90851000D03*
%TD*%
D10*
%TO.P,J2,1,Pin_1*%
%TO.N,Board_47-Net-(J2-Pin_1)*%
X170010000Y-78539000D03*
D11*
%TO.P,J2,2,Pin_2*%
%TO.N,Board_47-Net-(J2-Pin_2)*%
X172550000Y-78539000D03*
%TO.P,J2,3,Pin_3*%
%TO.N,Board_47-Net-(J2-Pin_3)*%
X175090000Y-78539000D03*
%TD*%
D10*
%TO.P,J1,1,Pin_1*%
%TO.N,Board_34-Net-(J1-Pin_1)*%
X141150000Y-73847000D03*
D11*
%TO.P,J1,2,Pin_2*%
%TO.N,Board_34-Net-(J1-Pin_2)*%
X143690000Y-73847000D03*
%TO.P,J1,3,Pin_3*%
%TO.N,Board_34-Net-(J1-Pin_3)*%
X146230000Y-73847000D03*
%TD*%
D10*
%TO.P,J1,1,Pin_1*%
%TO.N,Board_8-Net-(J1-Pin_1)*%
X179630000Y-36911000D03*
D11*
%TO.P,J1,2,Pin_2*%
%TO.N,Board_8-Net-(J1-Pin_2)*%
X182170000Y-36911000D03*
%TO.P,J1,3,Pin_3*%
%TO.N,Board_8-Net-(J1-Pin_3)*%
X184710000Y-36911000D03*
%TD*%
D10*
%TO.P,J1,1,Pin_1*%
%TO.N,Board_44-Net-(J1-Pin_1)*%
X141150000Y-86159000D03*
D11*
%TO.P,J1,2,Pin_2*%
%TO.N,Board_44-Net-(J1-Pin_2)*%
X143690000Y-86159000D03*
%TO.P,J1,3,Pin_3*%
%TO.N,Board_44-Net-(J1-Pin_3)*%
X146230000Y-86159000D03*
%TD*%
D10*
%TO.P,J2,1,Pin_1*%
%TO.N,Board_35-Net-(J2-Pin_1)*%
X150770000Y-66227000D03*
D11*
%TO.P,J2,2,Pin_2*%
%TO.N,Board_35-Net-(J2-Pin_2)*%
X153310000Y-66227000D03*
%TO.P,J2,3,Pin_3*%
%TO.N,Board_35-Net-(J2-Pin_3)*%
X155850000Y-66227000D03*
%TD*%
D10*
%TO.P,J1,1,Pin_1*%
%TO.N,Board_55-Net-(J1-Pin_1)*%
X150770000Y-98471000D03*
D11*
%TO.P,J1,2,Pin_2*%
%TO.N,Board_55-Net-(J1-Pin_2)*%
X153310000Y-98471000D03*
%TO.P,J1,3,Pin_3*%
%TO.N,Board_55-Net-(J1-Pin_3)*%
X155850000Y-98471000D03*
%TD*%
D10*
%TO.P,J2,1,Pin_1*%
%TO.N,Board_2-Net-(J2-Pin_1)*%
X121910000Y-29291000D03*
D11*
%TO.P,J2,2,Pin_2*%
%TO.N,Board_2-Net-(J2-Pin_2)*%
X124450000Y-29291000D03*
%TO.P,J2,3,Pin_3*%
%TO.N,Board_2-Net-(J2-Pin_3)*%
X126990000Y-29291000D03*
%TD*%
D10*
%TO.P,J2,1,Pin_1*%
%TO.N,Board_59-Net-(J2-Pin_1)*%
X189250000Y-90851000D03*
D11*
%TO.P,J2,2,Pin_2*%
%TO.N,Board_59-Net-(J2-Pin_2)*%
X191790000Y-90851000D03*
%TO.P,J2,3,Pin_3*%
%TO.N,Board_59-Net-(J2-Pin_3)*%
X194330000Y-90851000D03*
%TD*%
D10*
%TO.P,J2,1,Pin_1*%
%TO.N,Board_48-Net-(J2-Pin_1)*%
X179630000Y-78539000D03*
D11*
%TO.P,J2,2,Pin_2*%
%TO.N,Board_48-Net-(J2-Pin_2)*%
X182170000Y-78539000D03*
%TO.P,J2,3,Pin_3*%
%TO.N,Board_48-Net-(J2-Pin_3)*%
X184710000Y-78539000D03*
%TD*%
D10*
%TO.P,J2,1,Pin_1*%
%TO.N,Board_6-Net-(J2-Pin_1)*%
X160390000Y-29291000D03*
D11*
%TO.P,J2,2,Pin_2*%
%TO.N,Board_6-Net-(J2-Pin_2)*%
X162930000Y-29291000D03*
%TO.P,J2,3,Pin_3*%
%TO.N,Board_6-Net-(J2-Pin_3)*%
X165470000Y-29291000D03*
%TD*%
D10*
%TO.P,J2,1,Pin_1*%
%TO.N,Board_57-Net-(J2-Pin_1)*%
X170010000Y-90851000D03*
D11*
%TO.P,J2,2,Pin_2*%
%TO.N,Board_57-Net-(J2-Pin_2)*%
X172550000Y-90851000D03*
%TO.P,J2,3,Pin_3*%
%TO.N,Board_57-Net-(J2-Pin_3)*%
X175090000Y-90851000D03*
%TD*%
D10*
%TO.P,J1,1,Pin_1*%
%TO.N,Board_3-Net-(J1-Pin_1)*%
X131530000Y-36911000D03*
D11*
%TO.P,J1,2,Pin_2*%
%TO.N,Board_3-Net-(J1-Pin_2)*%
X134070000Y-36911000D03*
%TO.P,J1,3,Pin_3*%
%TO.N,Board_3-Net-(J1-Pin_3)*%
X136610000Y-36911000D03*
%TD*%
D10*
%TO.P,J1,1,Pin_1*%
%TO.N,Board_28-Net-(J1-Pin_1)*%
X179630000Y-61535000D03*
D11*
%TO.P,J1,2,Pin_2*%
%TO.N,Board_28-Net-(J1-Pin_2)*%
X182170000Y-61535000D03*
%TO.P,J1,3,Pin_3*%
%TO.N,Board_28-Net-(J1-Pin_3)*%
X184710000Y-61535000D03*
%TD*%
D10*
%TO.P,J2,1,Pin_1*%
%TO.N,Board_5-Net-(J2-Pin_1)*%
X150770000Y-29291000D03*
D11*
%TO.P,J2,2,Pin_2*%
%TO.N,Board_5-Net-(J2-Pin_2)*%
X153310000Y-29291000D03*
%TO.P,J2,3,Pin_3*%
%TO.N,Board_5-Net-(J2-Pin_3)*%
X155850000Y-29291000D03*
%TD*%
D10*
%TO.P,J1,1,Pin_1*%
%TO.N,Board_26-Net-(J1-Pin_1)*%
X160390000Y-61535000D03*
D11*
%TO.P,J1,2,Pin_2*%
%TO.N,Board_26-Net-(J1-Pin_2)*%
X162930000Y-61535000D03*
%TO.P,J1,3,Pin_3*%
%TO.N,Board_26-Net-(J1-Pin_3)*%
X165470000Y-61535000D03*
%TD*%
D10*
%TO.P,J1,1,Pin_1*%
%TO.N,Board_12-Net-(J1-Pin_1)*%
X121910000Y-49223000D03*
D11*
%TO.P,J1,2,Pin_2*%
%TO.N,Board_12-Net-(J1-Pin_2)*%
X124450000Y-49223000D03*
%TO.P,J1,3,Pin_3*%
%TO.N,Board_12-Net-(J1-Pin_3)*%
X126990000Y-49223000D03*
%TD*%
D10*
%TO.P,J1,1,Pin_1*%
%TO.N,Board_27-Net-(J1-Pin_1)*%
X170010000Y-61535000D03*
D11*
%TO.P,J1,2,Pin_2*%
%TO.N,Board_27-Net-(J1-Pin_2)*%
X172550000Y-61535000D03*
%TO.P,J1,3,Pin_3*%
%TO.N,Board_27-Net-(J1-Pin_3)*%
X175090000Y-61535000D03*
%TD*%
D10*
%TO.P,J2,1,Pin_1*%
%TO.N,Board_19-Net-(J2-Pin_1)*%
X189250000Y-41603000D03*
D11*
%TO.P,J2,2,Pin_2*%
%TO.N,Board_19-Net-(J2-Pin_2)*%
X191790000Y-41603000D03*
%TO.P,J2,3,Pin_3*%
%TO.N,Board_19-Net-(J2-Pin_3)*%
X194330000Y-41603000D03*
%TD*%
D10*
%TO.P,J1,1,Pin_1*%
%TO.N,Board_49-Net-(J1-Pin_1)*%
X189250000Y-86159000D03*
D11*
%TO.P,J1,2,Pin_2*%
%TO.N,Board_49-Net-(J1-Pin_2)*%
X191790000Y-86159000D03*
%TO.P,J1,3,Pin_3*%
%TO.N,Board_49-Net-(J1-Pin_3)*%
X194330000Y-86159000D03*
%TD*%
D10*
%TO.P,J2,1,Pin_1*%
%TO.N,Board_15-Net-(J2-Pin_1)*%
X150770000Y-41603000D03*
D11*
%TO.P,J2,2,Pin_2*%
%TO.N,Board_15-Net-(J2-Pin_2)*%
X153310000Y-41603000D03*
%TO.P,J2,3,Pin_3*%
%TO.N,Board_15-Net-(J2-Pin_3)*%
X155850000Y-41603000D03*
%TD*%
D10*
%TO.P,J2,1,Pin_1*%
%TO.N,Board_49-Net-(J2-Pin_1)*%
X189250000Y-78539000D03*
D11*
%TO.P,J2,2,Pin_2*%
%TO.N,Board_49-Net-(J2-Pin_2)*%
X191790000Y-78539000D03*
%TO.P,J2,3,Pin_3*%
%TO.N,Board_49-Net-(J2-Pin_3)*%
X194330000Y-78539000D03*
%TD*%
D10*
%TO.P,J1,1,Pin_1*%
%TO.N,Board_11-Net-(J1-Pin_1)*%
X112290000Y-49223000D03*
D11*
%TO.P,J1,2,Pin_2*%
%TO.N,Board_11-Net-(J1-Pin_2)*%
X114830000Y-49223000D03*
%TO.P,J1,3,Pin_3*%
%TO.N,Board_11-Net-(J1-Pin_3)*%
X117370000Y-49223000D03*
%TD*%
D10*
%TO.P,J1,1,Pin_1*%
%TO.N,Board_48-Net-(J1-Pin_1)*%
X179630000Y-86159000D03*
D11*
%TO.P,J1,2,Pin_2*%
%TO.N,Board_48-Net-(J1-Pin_2)*%
X182170000Y-86159000D03*
%TO.P,J1,3,Pin_3*%
%TO.N,Board_48-Net-(J1-Pin_3)*%
X184710000Y-86159000D03*
%TD*%
D10*
%TO.P,J1,1,Pin_1*%
%TO.N,Board_7-Net-(J1-Pin_1)*%
X170010000Y-36911000D03*
D11*
%TO.P,J1,2,Pin_2*%
%TO.N,Board_7-Net-(J1-Pin_2)*%
X172550000Y-36911000D03*
%TO.P,J1,3,Pin_3*%
%TO.N,Board_7-Net-(J1-Pin_3)*%
X175090000Y-36911000D03*
%TD*%
D10*
%TO.P,J1,1,Pin_1*%
%TO.N,Board_54-Net-(J1-Pin_1)*%
X141150000Y-98471000D03*
D11*
%TO.P,J1,2,Pin_2*%
%TO.N,Board_54-Net-(J1-Pin_2)*%
X143690000Y-98471000D03*
%TO.P,J1,3,Pin_3*%
%TO.N,Board_54-Net-(J1-Pin_3)*%
X146230000Y-98471000D03*
%TD*%
D10*
%TO.P,J2,1,Pin_1*%
%TO.N,Board_54-Net-(J2-Pin_1)*%
X141150000Y-90851000D03*
D11*
%TO.P,J2,2,Pin_2*%
%TO.N,Board_54-Net-(J2-Pin_2)*%
X143690000Y-90851000D03*
%TO.P,J2,3,Pin_3*%
%TO.N,Board_54-Net-(J2-Pin_3)*%
X146230000Y-90851000D03*
%TD*%
D10*
%TO.P,J1,1,Pin_1*%
%TO.N,Board_36-Net-(J1-Pin_1)*%
X160390000Y-73847000D03*
D11*
%TO.P,J1,2,Pin_2*%
%TO.N,Board_36-Net-(J1-Pin_2)*%
X162930000Y-73847000D03*
%TO.P,J1,3,Pin_3*%
%TO.N,Board_36-Net-(J1-Pin_3)*%
X165470000Y-73847000D03*
%TD*%
D10*
%TO.P,J2,1,Pin_1*%
%TO.N,Board_55-Net-(J2-Pin_1)*%
X150770000Y-90851000D03*
D11*
%TO.P,J2,2,Pin_2*%
%TO.N,Board_55-Net-(J2-Pin_2)*%
X153310000Y-90851000D03*
%TO.P,J2,3,Pin_3*%
%TO.N,Board_55-Net-(J2-Pin_3)*%
X155850000Y-90851000D03*
%TD*%
D10*
%TO.P,J1,1,Pin_1*%
%TO.N,Board_17-Net-(J1-Pin_1)*%
X170010000Y-49223000D03*
D11*
%TO.P,J1,2,Pin_2*%
%TO.N,Board_17-Net-(J1-Pin_2)*%
X172550000Y-49223000D03*
%TO.P,J1,3,Pin_3*%
%TO.N,Board_17-Net-(J1-Pin_3)*%
X175090000Y-49223000D03*
%TD*%
D10*
%TO.P,J2,1,Pin_1*%
%TO.N,Board_25-Net-(J2-Pin_1)*%
X150770000Y-53915000D03*
D11*
%TO.P,J2,2,Pin_2*%
%TO.N,Board_25-Net-(J2-Pin_2)*%
X153310000Y-53915000D03*
%TO.P,J2,3,Pin_3*%
%TO.N,Board_25-Net-(J2-Pin_3)*%
X155850000Y-53915000D03*
%TD*%
D10*
%TO.P,J1,1,Pin_1*%
%TO.N,Board_16-Net-(J1-Pin_1)*%
X160390000Y-49223000D03*
D11*
%TO.P,J1,2,Pin_2*%
%TO.N,Board_16-Net-(J1-Pin_2)*%
X162930000Y-49223000D03*
%TO.P,J1,3,Pin_3*%
%TO.N,Board_16-Net-(J1-Pin_3)*%
X165470000Y-49223000D03*
%TD*%
D10*
%TO.P,J1,1,Pin_1*%
%TO.N,Board_37-Net-(J1-Pin_1)*%
X170010000Y-73847000D03*
D11*
%TO.P,J1,2,Pin_2*%
%TO.N,Board_37-Net-(J1-Pin_2)*%
X172550000Y-73847000D03*
%TO.P,J1,3,Pin_3*%
%TO.N,Board_37-Net-(J1-Pin_3)*%
X175090000Y-73847000D03*
%TD*%
D10*
%TO.P,J2,1,Pin_1*%
%TO.N,Board_21-Net-(J2-Pin_1)*%
X112290000Y-53915000D03*
D11*
%TO.P,J2,2,Pin_2*%
%TO.N,Board_21-Net-(J2-Pin_2)*%
X114830000Y-53915000D03*
%TO.P,J2,3,Pin_3*%
%TO.N,Board_21-Net-(J2-Pin_3)*%
X117370000Y-53915000D03*
%TD*%
D10*
%TO.P,J1,1,Pin_1*%
%TO.N,Board_15-Net-(J1-Pin_1)*%
X150770000Y-49223000D03*
D11*
%TO.P,J1,2,Pin_2*%
%TO.N,Board_15-Net-(J1-Pin_2)*%
X153310000Y-49223000D03*
%TO.P,J1,3,Pin_3*%
%TO.N,Board_15-Net-(J1-Pin_3)*%
X155850000Y-49223000D03*
%TD*%
D10*
%TO.P,J2,1,Pin_1*%
%TO.N,Board_31-Net-(J2-Pin_1)*%
X112290000Y-66227000D03*
D11*
%TO.P,J2,2,Pin_2*%
%TO.N,Board_31-Net-(J2-Pin_2)*%
X114830000Y-66227000D03*
%TO.P,J2,3,Pin_3*%
%TO.N,Board_31-Net-(J2-Pin_3)*%
X117370000Y-66227000D03*
%TD*%
D10*
%TO.P,J1,1,Pin_1*%
%TO.N,Board_40-Net-(J1-Pin_1)*%
X102670000Y-86159000D03*
D11*
%TO.P,J1,2,Pin_2*%
%TO.N,Board_40-Net-(J1-Pin_2)*%
X105210000Y-86159000D03*
%TO.P,J1,3,Pin_3*%
%TO.N,Board_40-Net-(J1-Pin_3)*%
X107750000Y-86159000D03*
%TD*%
D10*
%TO.P,J1,1,Pin_1*%
%TO.N,Board_56-Net-(J1-Pin_1)*%
X160390000Y-98471000D03*
D11*
%TO.P,J1,2,Pin_2*%
%TO.N,Board_56-Net-(J1-Pin_2)*%
X162930000Y-98471000D03*
%TO.P,J1,3,Pin_3*%
%TO.N,Board_56-Net-(J1-Pin_3)*%
X165470000Y-98471000D03*
%TD*%
D10*
%TO.P,J2,1,Pin_1*%
%TO.N,Board_28-Net-(J2-Pin_1)*%
X179630000Y-53915000D03*
D11*
%TO.P,J2,2,Pin_2*%
%TO.N,Board_28-Net-(J2-Pin_2)*%
X182170000Y-53915000D03*
%TO.P,J2,3,Pin_3*%
%TO.N,Board_28-Net-(J2-Pin_3)*%
X184710000Y-53915000D03*
%TD*%
D10*
%TO.P,J1,1,Pin_1*%
%TO.N,Board_20-Net-(J1-Pin_1)*%
X102670000Y-61535000D03*
D11*
%TO.P,J1,2,Pin_2*%
%TO.N,Board_20-Net-(J1-Pin_2)*%
X105210000Y-61535000D03*
%TO.P,J1,3,Pin_3*%
%TO.N,Board_20-Net-(J1-Pin_3)*%
X107750000Y-61535000D03*
%TD*%
D10*
%TO.P,J1,1,Pin_1*%
%TO.N,Board_59-Net-(J1-Pin_1)*%
X189250000Y-98471000D03*
D11*
%TO.P,J1,2,Pin_2*%
%TO.N,Board_59-Net-(J1-Pin_2)*%
X191790000Y-98471000D03*
%TO.P,J1,3,Pin_3*%
%TO.N,Board_59-Net-(J1-Pin_3)*%
X194330000Y-98471000D03*
%TD*%
D10*
%TO.P,J2,1,Pin_1*%
%TO.N,Board_44-Net-(J2-Pin_1)*%
X141150000Y-78539000D03*
D11*
%TO.P,J2,2,Pin_2*%
%TO.N,Board_44-Net-(J2-Pin_2)*%
X143690000Y-78539000D03*
%TO.P,J2,3,Pin_3*%
%TO.N,Board_44-Net-(J2-Pin_3)*%
X146230000Y-78539000D03*
%TD*%
D10*
%TO.P,J1,1,Pin_1*%
%TO.N,Board_21-Net-(J1-Pin_1)*%
X112290000Y-61535000D03*
D11*
%TO.P,J1,2,Pin_2*%
%TO.N,Board_21-Net-(J1-Pin_2)*%
X114830000Y-61535000D03*
%TO.P,J1,3,Pin_3*%
%TO.N,Board_21-Net-(J1-Pin_3)*%
X117370000Y-61535000D03*
%TD*%
D10*
%TO.P,J1,1,Pin_1*%
%TO.N,Board_19-Net-(J1-Pin_1)*%
X189250000Y-49223000D03*
D11*
%TO.P,J1,2,Pin_2*%
%TO.N,Board_19-Net-(J1-Pin_2)*%
X191790000Y-49223000D03*
%TO.P,J1,3,Pin_3*%
%TO.N,Board_19-Net-(J1-Pin_3)*%
X194330000Y-49223000D03*
%TD*%
D10*
%TO.P,J2,1,Pin_1*%
%TO.N,Board_7-Net-(J2-Pin_1)*%
X170010000Y-29291000D03*
D11*
%TO.P,J2,2,Pin_2*%
%TO.N,Board_7-Net-(J2-Pin_2)*%
X172550000Y-29291000D03*
%TO.P,J2,3,Pin_3*%
%TO.N,Board_7-Net-(J2-Pin_3)*%
X175090000Y-29291000D03*
%TD*%
D10*
%TO.P,J1,1,Pin_1*%
%TO.N,Board_18-Net-(J1-Pin_1)*%
X179630000Y-49223000D03*
D11*
%TO.P,J1,2,Pin_2*%
%TO.N,Board_18-Net-(J1-Pin_2)*%
X182170000Y-49223000D03*
%TO.P,J1,3,Pin_3*%
%TO.N,Board_18-Net-(J1-Pin_3)*%
X184710000Y-49223000D03*
%TD*%
D10*
%TO.P,J1,1,Pin_1*%
%TO.N,Board_38-Net-(J1-Pin_1)*%
X179630000Y-73847000D03*
D11*
%TO.P,J1,2,Pin_2*%
%TO.N,Board_38-Net-(J1-Pin_2)*%
X182170000Y-73847000D03*
%TO.P,J1,3,Pin_3*%
%TO.N,Board_38-Net-(J1-Pin_3)*%
X184710000Y-73847000D03*
%TD*%
D10*
%TO.P,J2,1,Pin_1*%
%TO.N,Board_38-Net-(J2-Pin_1)*%
X179630000Y-66227000D03*
D11*
%TO.P,J2,2,Pin_2*%
%TO.N,Board_38-Net-(J2-Pin_2)*%
X182170000Y-66227000D03*
%TO.P,J2,3,Pin_3*%
%TO.N,Board_38-Net-(J2-Pin_3)*%
X184710000Y-66227000D03*
%TD*%
D10*
%TO.P,J2,1,Pin_1*%
%TO.N,Board_32-Net-(J2-Pin_1)*%
X121910000Y-66227000D03*
D11*
%TO.P,J2,2,Pin_2*%
%TO.N,Board_32-Net-(J2-Pin_2)*%
X124450000Y-66227000D03*
%TO.P,J2,3,Pin_3*%
%TO.N,Board_32-Net-(J2-Pin_3)*%
X126990000Y-66227000D03*
%TD*%
D10*
%TO.P,J2,1,Pin_1*%
%TO.N,Board_34-Net-(J2-Pin_1)*%
X141150000Y-66227000D03*
D11*
%TO.P,J2,2,Pin_2*%
%TO.N,Board_34-Net-(J2-Pin_2)*%
X143690000Y-66227000D03*
%TO.P,J2,3,Pin_3*%
%TO.N,Board_34-Net-(J2-Pin_3)*%
X146230000Y-66227000D03*
%TD*%
D10*
%TO.P,J1,1,Pin_1*%
%TO.N,Board_31-Net-(J1-Pin_1)*%
X112290000Y-73847000D03*
D11*
%TO.P,J1,2,Pin_2*%
%TO.N,Board_31-Net-(J1-Pin_2)*%
X114830000Y-73847000D03*
%TO.P,J1,3,Pin_3*%
%TO.N,Board_31-Net-(J1-Pin_3)*%
X117370000Y-73847000D03*
%TD*%
D10*
%TO.P,J2,1,Pin_1*%
%TO.N,Board_10-Net-(J2-Pin_1)*%
X102670000Y-41603000D03*
D11*
%TO.P,J2,2,Pin_2*%
%TO.N,Board_10-Net-(J2-Pin_2)*%
X105210000Y-41603000D03*
%TO.P,J2,3,Pin_3*%
%TO.N,Board_10-Net-(J2-Pin_3)*%
X107750000Y-41603000D03*
%TD*%
D10*
%TO.P,J1,1,Pin_1*%
%TO.N,Board_50-Net-(J1-Pin_1)*%
X102670000Y-98471000D03*
D11*
%TO.P,J1,2,Pin_2*%
%TO.N,Board_50-Net-(J1-Pin_2)*%
X105210000Y-98471000D03*
%TO.P,J1,3,Pin_3*%
%TO.N,Board_50-Net-(J1-Pin_3)*%
X107750000Y-98471000D03*
%TD*%
D10*
%TO.P,J2,1,Pin_1*%
%TO.N,Board_27-Net-(J2-Pin_1)*%
X170010000Y-53915000D03*
D11*
%TO.P,J2,2,Pin_2*%
%TO.N,Board_27-Net-(J2-Pin_2)*%
X172550000Y-53915000D03*
%TO.P,J2,3,Pin_3*%
%TO.N,Board_27-Net-(J2-Pin_3)*%
X175090000Y-53915000D03*
%TD*%
D10*
%TO.P,J1,1,Pin_1*%
%TO.N,Board_53-Net-(J1-Pin_1)*%
X131530000Y-98471000D03*
D11*
%TO.P,J1,2,Pin_2*%
%TO.N,Board_53-Net-(J1-Pin_2)*%
X134070000Y-98471000D03*
%TO.P,J1,3,Pin_3*%
%TO.N,Board_53-Net-(J1-Pin_3)*%
X136610000Y-98471000D03*
%TD*%
D10*
%TO.P,J2,1,Pin_1*%
%TO.N,Board_3-Net-(J2-Pin_1)*%
X131530000Y-29291000D03*
D11*
%TO.P,J2,2,Pin_2*%
%TO.N,Board_3-Net-(J2-Pin_2)*%
X134070000Y-29291000D03*
%TO.P,J2,3,Pin_3*%
%TO.N,Board_3-Net-(J2-Pin_3)*%
X136610000Y-29291000D03*
%TD*%
D10*
%TO.P,J2,1,Pin_1*%
%TO.N,Board_33-Net-(J2-Pin_1)*%
X131530000Y-66227000D03*
D11*
%TO.P,J2,2,Pin_2*%
%TO.N,Board_33-Net-(J2-Pin_2)*%
X134070000Y-66227000D03*
%TO.P,J2,3,Pin_3*%
%TO.N,Board_33-Net-(J2-Pin_3)*%
X136610000Y-66227000D03*
%TD*%
D10*
%TO.P,J1,1,Pin_1*%
%TO.N,Board_52-Net-(J1-Pin_1)*%
X121910000Y-98471000D03*
D11*
%TO.P,J1,2,Pin_2*%
%TO.N,Board_52-Net-(J1-Pin_2)*%
X124450000Y-98471000D03*
%TO.P,J1,3,Pin_3*%
%TO.N,Board_52-Net-(J1-Pin_3)*%
X126990000Y-98471000D03*
%TD*%
D10*
%TO.P,J2,1,Pin_1*%
%TO.N,Board_52-Net-(J2-Pin_1)*%
X121910000Y-90851000D03*
D11*
%TO.P,J2,2,Pin_2*%
%TO.N,Board_52-Net-(J2-Pin_2)*%
X124450000Y-90851000D03*
%TO.P,J2,3,Pin_3*%
%TO.N,Board_52-Net-(J2-Pin_3)*%
X126990000Y-90851000D03*
%TD*%
D10*
%TO.P,J2,1,Pin_1*%
%TO.N,Board_30-Net-(J2-Pin_1)*%
X102670000Y-66227000D03*
D11*
%TO.P,J2,2,Pin_2*%
%TO.N,Board_30-Net-(J2-Pin_2)*%
X105210000Y-66227000D03*
%TO.P,J2,3,Pin_3*%
%TO.N,Board_30-Net-(J2-Pin_3)*%
X107750000Y-66227000D03*
%TD*%
D10*
%TO.P,J1,1,Pin_1*%
%TO.N,Board_13-Net-(J1-Pin_1)*%
X131530000Y-49223000D03*
D11*
%TO.P,J1,2,Pin_2*%
%TO.N,Board_13-Net-(J1-Pin_2)*%
X134070000Y-49223000D03*
%TO.P,J1,3,Pin_3*%
%TO.N,Board_13-Net-(J1-Pin_3)*%
X136610000Y-49223000D03*
%TD*%
D10*
%TO.P,J2,1,Pin_1*%
%TO.N,Board_51-Net-(J2-Pin_1)*%
X112290000Y-90851000D03*
D11*
%TO.P,J2,2,Pin_2*%
%TO.N,Board_51-Net-(J2-Pin_2)*%
X114830000Y-90851000D03*
%TO.P,J2,3,Pin_3*%
%TO.N,Board_51-Net-(J2-Pin_3)*%
X117370000Y-90851000D03*
%TD*%
D10*
%TO.P,J2,1,Pin_1*%
%TO.N,Board_58-Net-(J2-Pin_1)*%
X179630000Y-90851000D03*
D11*
%TO.P,J2,2,Pin_2*%
%TO.N,Board_58-Net-(J2-Pin_2)*%
X182170000Y-90851000D03*
%TO.P,J2,3,Pin_3*%
%TO.N,Board_58-Net-(J2-Pin_3)*%
X184710000Y-90851000D03*
%TD*%
D10*
%TO.P,J2,1,Pin_1*%
%TO.N,Board_53-Net-(J2-Pin_1)*%
X131530000Y-90851000D03*
D11*
%TO.P,J2,2,Pin_2*%
%TO.N,Board_53-Net-(J2-Pin_2)*%
X134070000Y-90851000D03*
%TO.P,J2,3,Pin_3*%
%TO.N,Board_53-Net-(J2-Pin_3)*%
X136610000Y-90851000D03*
%TD*%
D10*
%TO.P,J1,1,Pin_1*%
%TO.N,Board_30-Net-(J1-Pin_1)*%
X102670000Y-73847000D03*
D11*
%TO.P,J1,2,Pin_2*%
%TO.N,Board_30-Net-(J1-Pin_2)*%
X105210000Y-73847000D03*
%TO.P,J1,3,Pin_3*%
%TO.N,Board_30-Net-(J1-Pin_3)*%
X107750000Y-73847000D03*
%TD*%
D10*
%TO.P,J1,1,Pin_1*%
%TO.N,Board_22-Net-(J1-Pin_1)*%
X121910000Y-61535000D03*
D11*
%TO.P,J1,2,Pin_2*%
%TO.N,Board_22-Net-(J1-Pin_2)*%
X124450000Y-61535000D03*
%TO.P,J1,3,Pin_3*%
%TO.N,Board_22-Net-(J1-Pin_3)*%
X126990000Y-61535000D03*
%TD*%
D10*
%TO.P,J1,1,Pin_1*%
%TO.N,Board_57-Net-(J1-Pin_1)*%
X170010000Y-98471000D03*
D11*
%TO.P,J1,2,Pin_2*%
%TO.N,Board_57-Net-(J1-Pin_2)*%
X172550000Y-98471000D03*
%TO.P,J1,3,Pin_3*%
%TO.N,Board_57-Net-(J1-Pin_3)*%
X175090000Y-98471000D03*
%TD*%
D10*
%TO.P,J2,1,Pin_1*%
%TO.N,Board_14-Net-(J2-Pin_1)*%
X141150000Y-41603000D03*
D11*
%TO.P,J2,2,Pin_2*%
%TO.N,Board_14-Net-(J2-Pin_2)*%
X143690000Y-41603000D03*
%TO.P,J2,3,Pin_3*%
%TO.N,Board_14-Net-(J2-Pin_3)*%
X146230000Y-41603000D03*
%TD*%
D10*
%TO.P,J2,1,Pin_1*%
%TO.N,Board_26-Net-(J2-Pin_1)*%
X160390000Y-53915000D03*
D11*
%TO.P,J2,2,Pin_2*%
%TO.N,Board_26-Net-(J2-Pin_2)*%
X162930000Y-53915000D03*
%TO.P,J2,3,Pin_3*%
%TO.N,Board_26-Net-(J2-Pin_3)*%
X165470000Y-53915000D03*
%TD*%
D10*
%TO.P,J2,1,Pin_1*%
%TO.N,Board_0-Net-(J2-Pin_1)*%
X102670000Y-29291000D03*
D11*
%TO.P,J2,2,Pin_2*%
%TO.N,Board_0-Net-(J2-Pin_2)*%
X105210000Y-29291000D03*
%TO.P,J2,3,Pin_3*%
%TO.N,Board_0-Net-(J2-Pin_3)*%
X107750000Y-29291000D03*
%TD*%
D10*
%TO.P,J2,1,Pin_1*%
%TO.N,Board_20-Net-(J2-Pin_1)*%
X102670000Y-53915000D03*
D11*
%TO.P,J2,2,Pin_2*%
%TO.N,Board_20-Net-(J2-Pin_2)*%
X105210000Y-53915000D03*
%TO.P,J2,3,Pin_3*%
%TO.N,Board_20-Net-(J2-Pin_3)*%
X107750000Y-53915000D03*
%TD*%
D10*
%TO.P,J1,1,Pin_1*%
%TO.N,Board_46-Net-(J1-Pin_1)*%
X160390000Y-86159000D03*
D11*
%TO.P,J1,2,Pin_2*%
%TO.N,Board_46-Net-(J1-Pin_2)*%
X162930000Y-86159000D03*
%TO.P,J1,3,Pin_3*%
%TO.N,Board_46-Net-(J1-Pin_3)*%
X165470000Y-86159000D03*
%TD*%
M02*
