M48
; DRILL file {KiCad 9.0.7} date 2026-02-10T23:41:37-0800
; FORMAT={-:-/ absolute / metric / decimal}
; #@! TF.CreationDate,2026-02-10T23:41:37-08:00
; #@! TF.GenerationSoftware,Kicad,Pcbnew,9.0.7
; #@! TF.FileFunction,NonPlated,1,2,NPTH
FMAT,2
METRIC
; #@! TA.AperFunction,NonPlated,NPTH,ComponentDrill
T1C0.500
%
G90
G05
T1
X103.543Y-27.8
X103.543Y-38.512
X103.543Y-40.112
X103.543Y-52.424
X103.543Y-64.736
X103.543Y-77.048
X103.543Y-89.361
X103.543Y-50.824
X103.543Y-63.136
X103.543Y-75.448
X103.543Y-87.76
X103.543Y-100.072
X104.377Y-27.8
X104.377Y-38.512
X104.377Y-40.112
X104.377Y-52.424
X104.377Y-64.736
X104.377Y-77.048
X104.377Y-89.361
X104.377Y-50.824
X104.377Y-63.136
X104.377Y-75.448
X104.377Y-87.76
X104.377Y-100.072
X105.21Y-27.8
X105.21Y-38.512
X105.21Y-40.112
X105.21Y-52.424
X105.21Y-64.736
X105.21Y-77.048
X105.21Y-89.361
X105.21Y-50.824
X105.21Y-63.136
X105.21Y-75.448
X105.21Y-87.76
X105.21Y-100.072
X106.043Y-27.8
X106.043Y-38.512
X106.043Y-40.112
X106.043Y-52.424
X106.043Y-64.736
X106.043Y-77.048
X106.043Y-89.361
X106.043Y-50.824
X106.043Y-63.136
X106.043Y-75.448
X106.043Y-87.76
X106.043Y-100.072
X106.877Y-27.8
X106.877Y-38.512
X106.877Y-40.112
X106.877Y-52.424
X106.877Y-64.736
X106.877Y-77.048
X106.877Y-89.361
X106.877Y-50.824
X106.877Y-63.136
X106.877Y-75.448
X106.877Y-87.76
X106.877Y-100.072
X113.163Y-27.8
X113.163Y-38.512
X113.163Y-40.112
X113.163Y-52.424
X113.163Y-64.736
X113.163Y-77.048
X113.163Y-89.361
X113.163Y-50.824
X113.163Y-63.136
X113.163Y-75.448
X113.163Y-87.76
X113.163Y-100.072
X113.997Y-27.8
X113.997Y-38.512
X113.997Y-40.112
X113.997Y-52.424
X113.997Y-64.736
X113.997Y-77.048
X113.997Y-89.361
X113.997Y-50.824
X113.997Y-63.136
X113.997Y-75.448
X113.997Y-87.76
X113.997Y-100.072
X114.83Y-27.8
X114.83Y-38.512
X114.83Y-40.112
X114.83Y-52.424
X114.83Y-64.736
X114.83Y-77.048
X114.83Y-89.361
X114.83Y-50.824
X114.83Y-63.136
X114.83Y-75.448
X114.83Y-87.76
X114.83Y-100.072
X115.663Y-27.8
X115.663Y-38.512
X115.663Y-40.112
X115.663Y-52.424
X115.663Y-64.736
X115.663Y-77.048
X115.663Y-89.361
X115.663Y-50.824
X115.663Y-63.136
X115.663Y-75.448
X115.663Y-87.76
X115.663Y-100.072
X116.497Y-27.8
X116.497Y-38.512
X116.497Y-40.112
X116.497Y-52.424
X116.497Y-64.736
X116.497Y-77.048
X116.497Y-89.361
X116.497Y-50.824
X116.497Y-63.136
X116.497Y-75.448
X116.497Y-87.76
X116.497Y-100.072
X122.783Y-27.8
X122.783Y-38.512
X122.783Y-40.112
X122.783Y-52.424
X122.783Y-64.736
X122.783Y-77.048
X122.783Y-89.361
X122.783Y-50.824
X122.783Y-63.136
X122.783Y-75.448
X122.783Y-87.76
X122.783Y-100.072
X123.617Y-27.8
X123.617Y-38.512
X123.617Y-40.112
X123.617Y-52.424
X123.617Y-64.736
X123.617Y-77.048
X123.617Y-89.361
X123.617Y-50.824
X123.617Y-63.136
X123.617Y-75.448
X123.617Y-87.76
X123.617Y-100.072
X124.45Y-27.8
X124.45Y-38.512
X124.45Y-40.112
X124.45Y-52.424
X124.45Y-64.736
X124.45Y-77.048
X124.45Y-89.361
X124.45Y-50.824
X124.45Y-63.136
X124.45Y-75.448
X124.45Y-87.76
X124.45Y-100.072
X125.283Y-27.8
X125.283Y-38.512
X125.283Y-40.112
X125.283Y-52.424
X125.283Y-64.736
X125.283Y-77.048
X125.283Y-89.361
X125.283Y-50.824
X125.283Y-63.136
X125.283Y-75.448
X125.283Y-87.76
X125.283Y-100.072
X126.117Y-27.8
X126.117Y-38.512
X126.117Y-40.112
X126.117Y-52.424
X126.117Y-64.736
X126.117Y-77.048
X126.117Y-89.361
X126.117Y-50.824
X126.117Y-63.136
X126.117Y-75.448
X126.117Y-87.76
X126.117Y-100.072
X132.403Y-27.8
X132.403Y-40.112
X132.403Y-52.424
X132.403Y-64.736
X132.403Y-77.048
X132.403Y-89.361
X132.403Y-38.512
X132.403Y-50.824
X132.403Y-63.136
X132.403Y-75.448
X132.403Y-87.76
X132.403Y-100.072
X133.237Y-27.8
X133.237Y-40.112
X133.237Y-52.424
X133.237Y-64.736
X133.237Y-77.048
X133.237Y-89.361
X133.237Y-38.512
X133.237Y-50.824
X133.237Y-63.136
X133.237Y-75.448
X133.237Y-87.76
X133.237Y-100.072
X134.07Y-27.8
X134.07Y-40.112
X134.07Y-52.424
X134.07Y-64.736
X134.07Y-77.048
X134.07Y-89.361
X134.07Y-38.512
X134.07Y-50.824
X134.07Y-63.136
X134.07Y-75.448
X134.07Y-87.76
X134.07Y-100.072
X134.903Y-27.8
X134.903Y-40.112
X134.903Y-52.424
X134.903Y-64.736
X134.903Y-77.048
X134.903Y-89.361
X134.903Y-38.512
X134.903Y-50.824
X134.903Y-63.136
X134.903Y-75.448
X134.903Y-87.76
X134.903Y-100.072
X135.737Y-27.8
X135.737Y-40.112
X135.737Y-52.424
X135.737Y-64.736
X135.737Y-77.048
X135.737Y-89.361
X135.737Y-38.512
X135.737Y-50.824
X135.737Y-63.136
X135.737Y-75.448
X135.737Y-87.76
X135.737Y-100.072
X142.023Y-27.8
X142.023Y-40.112
X142.023Y-52.424
X142.023Y-64.736
X142.023Y-77.048
X142.023Y-89.361
X142.023Y-38.512
X142.023Y-50.824
X142.023Y-63.136
X142.023Y-75.448
X142.023Y-87.76
X142.023Y-100.072
X142.857Y-27.8
X142.857Y-40.112
X142.857Y-52.424
X142.857Y-64.736
X142.857Y-77.048
X142.857Y-89.361
X142.857Y-38.512
X142.857Y-50.824
X142.857Y-63.136
X142.857Y-75.448
X142.857Y-87.76
X142.857Y-100.072
X143.69Y-27.8
X143.69Y-40.112
X143.69Y-52.424
X143.69Y-64.736
X143.69Y-77.048
X143.69Y-89.361
X143.69Y-38.512
X143.69Y-50.824
X143.69Y-63.136
X143.69Y-75.448
X143.69Y-87.76
X143.69Y-100.072
X144.523Y-27.8
X144.523Y-40.112
X144.523Y-52.424
X144.523Y-64.736
X144.523Y-77.048
X144.523Y-89.361
X144.523Y-38.512
X144.523Y-50.824
X144.523Y-63.136
X144.523Y-75.448
X144.523Y-87.76
X144.523Y-100.072
X145.357Y-27.8
X145.357Y-40.112
X145.357Y-52.424
X145.357Y-64.736
X145.357Y-77.048
X145.357Y-89.361
X145.357Y-38.512
X145.357Y-50.824
X145.357Y-63.136
X145.357Y-75.448
X145.357Y-87.76
X145.357Y-100.072
X151.643Y-27.8
X151.643Y-40.112
X151.643Y-52.424
X151.643Y-64.736
X151.643Y-77.048
X151.643Y-89.361
X151.643Y-38.512
X151.643Y-50.824
X151.643Y-63.136
X151.643Y-75.448
X151.643Y-87.76
X151.643Y-100.072
X152.477Y-27.8
X152.477Y-40.112
X152.477Y-52.424
X152.477Y-64.736
X152.477Y-77.048
X152.477Y-89.361
X152.477Y-38.512
X152.477Y-50.824
X152.477Y-63.136
X152.477Y-75.448
X152.477Y-87.76
X152.477Y-100.072
X153.31Y-27.8
X153.31Y-40.112
X153.31Y-52.424
X153.31Y-64.736
X153.31Y-77.048
X153.31Y-89.361
X153.31Y-38.512
X153.31Y-50.824
X153.31Y-63.136
X153.31Y-75.448
X153.31Y-87.76
X153.31Y-100.072
X154.143Y-27.8
X154.143Y-40.112
X154.143Y-52.424
X154.143Y-64.736
X154.143Y-77.048
X154.143Y-89.361
X154.143Y-38.512
X154.143Y-50.824
X154.143Y-63.136
X154.143Y-75.448
X154.143Y-87.76
X154.143Y-100.072
X154.977Y-27.8
X154.977Y-40.112
X154.977Y-52.424
X154.977Y-64.736
X154.977Y-77.048
X154.977Y-89.361
X154.977Y-38.512
X154.977Y-50.824
X154.977Y-63.136
X154.977Y-75.448
X154.977Y-87.76
X154.977Y-100.072
X161.263Y-27.8
X161.263Y-40.112
X161.263Y-52.424
X161.263Y-64.736
X161.263Y-77.048
X161.263Y-89.361
X161.263Y-38.512
X161.263Y-50.824
X161.263Y-63.136
X161.263Y-75.448
X161.263Y-87.76
X161.263Y-100.072
X162.097Y-27.8
X162.097Y-40.112
X162.097Y-52.424
X162.097Y-64.736
X162.097Y-77.048
X162.097Y-89.361
X162.097Y-38.512
X162.097Y-50.824
X162.097Y-63.136
X162.097Y-75.448
X162.097Y-87.76
X162.097Y-100.072
X162.93Y-27.8
X162.93Y-40.112
X162.93Y-52.424
X162.93Y-64.736
X162.93Y-77.048
X162.93Y-89.361
X162.93Y-38.512
X162.93Y-50.824
X162.93Y-63.136
X162.93Y-75.448
X162.93Y-87.76
X162.93Y-100.072
X163.763Y-27.8
X163.763Y-40.112
X163.763Y-52.424
X163.763Y-64.736
X163.763Y-77.048
X163.763Y-89.361
X163.763Y-38.512
X163.763Y-50.824
X163.763Y-63.136
X163.763Y-75.448
X163.763Y-87.76
X163.763Y-100.072
X164.597Y-27.8
X164.597Y-40.112
X164.597Y-52.424
X164.597Y-64.736
X164.597Y-77.048
X164.597Y-89.361
X164.597Y-38.512
X164.597Y-50.824
X164.597Y-63.136
X164.597Y-75.448
X164.597Y-87.76
X164.597Y-100.072
X170.883Y-27.8
X170.883Y-40.112
X170.883Y-52.424
X170.883Y-64.736
X170.883Y-77.048
X170.883Y-89.361
X170.883Y-38.512
X170.883Y-50.824
X170.883Y-63.136
X170.883Y-75.448
X170.883Y-87.76
X170.883Y-100.072
X171.717Y-27.8
X171.717Y-40.112
X171.717Y-52.424
X171.717Y-64.736
X171.717Y-77.048
X171.717Y-89.361
X171.717Y-38.512
X171.717Y-50.824
X171.717Y-63.136
X171.717Y-75.448
X171.717Y-87.76
X171.717Y-100.072
X172.55Y-27.8
X172.55Y-40.112
X172.55Y-52.424
X172.55Y-64.736
X172.55Y-77.048
X172.55Y-89.361
X172.55Y-38.512
X172.55Y-50.824
X172.55Y-63.136
X172.55Y-75.448
X172.55Y-87.76
X172.55Y-100.072
X173.383Y-27.8
X173.383Y-40.112
X173.383Y-52.424
X173.383Y-64.736
X173.383Y-77.048
X173.383Y-89.361
X173.383Y-38.512
X173.383Y-50.824
X173.383Y-63.136
X173.383Y-75.448
X173.383Y-87.76
X173.383Y-100.072
X174.217Y-27.8
X174.217Y-40.112
X174.217Y-52.424
X174.217Y-64.736
X174.217Y-77.048
X174.217Y-89.361
X174.217Y-38.512
X174.217Y-50.824
X174.217Y-63.136
X174.217Y-75.448
X174.217Y-87.76
X174.217Y-100.072
X180.503Y-27.8
X180.503Y-40.112
X180.503Y-52.424
X180.503Y-64.736
X180.503Y-77.048
X180.503Y-89.361
X180.503Y-38.512
X180.503Y-50.824
X180.503Y-63.136
X180.503Y-75.448
X180.503Y-87.76
X180.503Y-100.072
X181.337Y-27.8
X181.337Y-40.112
X181.337Y-52.424
X181.337Y-64.736
X181.337Y-77.048
X181.337Y-89.361
X181.337Y-38.512
X181.337Y-50.824
X181.337Y-63.136
X181.337Y-75.448
X181.337Y-87.76
X181.337Y-100.072
X182.17Y-27.8
X182.17Y-40.112
X182.17Y-52.424
X182.17Y-64.736
X182.17Y-77.048
X182.17Y-89.361
X182.17Y-38.512
X182.17Y-50.824
X182.17Y-63.136
X182.17Y-75.448
X182.17Y-87.76
X182.17Y-100.072
X183.003Y-27.8
X183.003Y-40.112
X183.003Y-52.424
X183.003Y-64.736
X183.003Y-77.048
X183.003Y-89.361
X183.003Y-38.512
X183.003Y-50.824
X183.003Y-63.136
X183.003Y-75.448
X183.003Y-87.76
X183.003Y-100.072
X183.837Y-27.8
X183.837Y-40.112
X183.837Y-52.424
X183.837Y-64.736
X183.837Y-77.048
X183.837Y-89.361
X183.837Y-38.512
X183.837Y-50.824
X183.837Y-63.136
X183.837Y-75.448
X183.837Y-87.76
X183.837Y-100.072
X190.123Y-27.8
X190.123Y-40.112
X190.123Y-52.424
X190.123Y-64.736
X190.123Y-77.048
X190.123Y-89.361
X190.123Y-38.512
X190.123Y-50.824
X190.123Y-63.136
X190.123Y-75.448
X190.123Y-87.76
X190.123Y-100.072
X190.957Y-27.8
X190.957Y-40.112
X190.957Y-52.424
X190.957Y-64.736
X190.957Y-77.048
X190.957Y-89.361
X190.957Y-38.512
X190.957Y-50.824
X190.957Y-63.136
X190.957Y-75.448
X190.957Y-87.76
X190.957Y-100.072
X191.79Y-27.8
X191.79Y-40.112
X191.79Y-52.424
X191.79Y-64.736
X191.79Y-77.048
X191.79Y-89.361
X191.79Y-38.512
X191.79Y-50.824
X191.79Y-63.136
X191.79Y-75.448
X191.79Y-87.76
X191.79Y-100.072
X192.623Y-27.8
X192.623Y-40.112
X192.623Y-52.424
X192.623Y-64.736
X192.623Y-77.048
X192.623Y-89.361
X192.623Y-38.512
X192.623Y-50.824
X192.623Y-63.136
X192.623Y-75.448
X192.623Y-87.76
X192.623Y-100.072
X193.457Y-27.8
X193.457Y-40.112
X193.457Y-52.424
X193.457Y-64.736
X193.457Y-77.048
X193.457Y-89.361
X193.457Y-38.512
X193.457Y-50.824
X193.457Y-63.136
X193.457Y-75.448
X193.457Y-87.76
X193.457Y-100.072
M30
