%TF.GenerationSoftware,KiCad,Pcbnew,9.0.7*%
%TF.CreationDate,2026-02-10T23:41:27-08:00*%
%TF.ProjectId,sot-23-panelized,736f742d-3233-42d7-9061-6e656c697a65,rev?*%
%TF.SameCoordinates,Original*%
%TF.FileFunction,Copper,L1,Top*%
%TF.FilePolarity,Positive*%
%FSLAX46Y46*%
G04 Gerber Fmt 4.6, Leading zero omitted, Abs format (unit mm)*
G04 Created by KiCad (PCBNEW 9.0.7) date 2026-02-10 23:41:27*
%MOMM*%
%LPD*%
G01*
G04 APERTURE LIST*
G04 Aperture macros list*
%AMRoundRect*
0 Rectangle with rounded corners*
0 $1 Rounding radius*
0 $2 $3 $4 $5 $6 $7 $8 $9 X,Y pos of 4 corners*
0 Add a 4 corners polygon primitive as box body*
4,1,4,$2,$3,$4,$5,$6,$7,$8,$9,$2,$3,0*
0 Add four circle primitives for the rounded corners*
1,1,$1+$1,$2,$3*
1,1,$1+$1,$4,$5*
1,1,$1+$1,$6,$7*
1,1,$1+$1,$8,$9*
0 Add four rect primitives between the rounded corners*
20,1,$1+$1,$2,$3,$4,$5,0*
20,1,$1+$1,$4,$5,$6,$7,0*
20,1,$1+$1,$6,$7,$8,$9,0*
20,1,$1+$1,$8,$9,$2,$3,0*%
G04 Aperture macros list end*
%TA.AperFunction,ComponentPad*%
%ADD10R,1.700000X1.700000*%
%TD*%
%TA.AperFunction,ComponentPad*%
%ADD11C,1.700000*%
%TD*%
%TA.AperFunction,SMDPad,CuDef*%
%ADD12RoundRect,0.162500X0.162500X-0.617500X0.162500X0.617500X-0.162500X0.617500X-0.162500X-0.617500X0*%
%TD*%
%TA.AperFunction,Conductor*%
%ADD13C,0.500000*%
%TD*%
G04 APERTURE END LIST*
D10*
%TO.P,J2,1,Pin_1*%
%TO.N,Board_17-Net-(J2-Pin_1)*%
X170010000Y-41603000D03*
D11*
%TO.P,J2,2,Pin_2*%
%TO.N,Board_17-Net-(J2-Pin_2)*%
X172550000Y-41603000D03*
%TO.P,J2,3,Pin_3*%
%TO.N,Board_17-Net-(J2-Pin_3)*%
X175090000Y-41603000D03*
%TD*%
D10*
%TO.P,J1,1,Pin_1*%
%TO.N,Board_45-Net-(J1-Pin_1)*%
X150770000Y-86159000D03*
D11*
%TO.P,J1,2,Pin_2*%
%TO.N,Board_45-Net-(J1-Pin_2)*%
X153310000Y-86159000D03*
%TO.P,J1,3,Pin_3*%
%TO.N,Board_45-Net-(J1-Pin_3)*%
X155850000Y-86159000D03*
%TD*%
D10*
%TO.P,J2,1,Pin_1*%
%TO.N,Board_16-Net-(J2-Pin_1)*%
X160390000Y-41603000D03*
D11*
%TO.P,J2,2,Pin_2*%
%TO.N,Board_16-Net-(J2-Pin_2)*%
X162930000Y-41603000D03*
%TO.P,J2,3,Pin_3*%
%TO.N,Board_16-Net-(J2-Pin_3)*%
X165470000Y-41603000D03*
%TD*%
D12*
%TO.P,Q1,1,E1*%
%TO.N,Board_4-Net-(J1-Pin_1)*%
X142740000Y-34430500D03*
%TO.P,Q1,2,B1*%
%TO.N,Board_4-Net-(J1-Pin_2)*%
X143690000Y-34430500D03*
%TO.P,Q1,3,C2*%
%TO.N,Board_4-Net-(J1-Pin_3)*%
X144640000Y-34430500D03*
%TO.P,Q1,4,E2*%
%TO.N,Board_4-Net-(J2-Pin_3)*%
X144640000Y-31730500D03*
%TO.P,Q1,5,B2*%
%TO.N,Board_4-Net-(J2-Pin_2)*%
X143690000Y-31730500D03*
%TO.P,Q1,6,C1*%
%TO.N,Board_4-Net-(J2-Pin_1)*%
X142740000Y-31730500D03*
%TD*%
D10*
%TO.P,J1,1,Pin_1*%
%TO.N,Board_10-Net-(J1-Pin_1)*%
X102670000Y-49223000D03*
D11*
%TO.P,J1,2,Pin_2*%
%TO.N,Board_10-Net-(J1-Pin_2)*%
X105210000Y-49223000D03*
%TO.P,J1,3,Pin_3*%
%TO.N,Board_10-Net-(J1-Pin_3)*%
X107750000Y-49223000D03*
%TD*%
D10*
%TO.P,J2,1,Pin_1*%
%TO.N,Board_40-Net-(J2-Pin_1)*%
X102670000Y-78539000D03*
D11*
%TO.P,J2,2,Pin_2*%
%TO.N,Board_40-Net-(J2-Pin_2)*%
X105210000Y-78539000D03*
%TO.P,J2,3,Pin_3*%
%TO.N,Board_40-Net-(J2-Pin_3)*%
X107750000Y-78539000D03*
%TD*%
D10*
%TO.P,J1,1,Pin_1*%
%TO.N,Board_5-Net-(J1-Pin_1)*%
X150770000Y-36911000D03*
D11*
%TO.P,J1,2,Pin_2*%
%TO.N,Board_5-Net-(J1-Pin_2)*%
X153310000Y-36911000D03*
%TO.P,J1,3,Pin_3*%
%TO.N,Board_5-Net-(J1-Pin_3)*%
X155850000Y-36911000D03*
%TD*%
D12*
%TO.P,Q1,1,E1*%
%TO.N,Board_49-Net-(J1-Pin_1)*%
X190840000Y-83678500D03*
%TO.P,Q1,2,B1*%
%TO.N,Board_49-Net-(J1-Pin_2)*%
X191790000Y-83678500D03*
%TO.P,Q1,3,C2*%
%TO.N,Board_49-Net-(J1-Pin_3)*%
X192740000Y-83678500D03*
%TO.P,Q1,4,E2*%
%TO.N,Board_49-Net-(J2-Pin_3)*%
X192740000Y-80978500D03*
%TO.P,Q1,5,B2*%
%TO.N,Board_49-Net-(J2-Pin_2)*%
X191790000Y-80978500D03*
%TO.P,Q1,6,C1*%
%TO.N,Board_49-Net-(J2-Pin_1)*%
X190840000Y-80978500D03*
%TD*%
D10*
%TO.P,J1,1,Pin_1*%
%TO.N,Board_35-Net-(J1-Pin_1)*%
X150770000Y-73847000D03*
D11*
%TO.P,J1,2,Pin_2*%
%TO.N,Board_35-Net-(J1-Pin_2)*%
X153310000Y-73847000D03*
%TO.P,J1,3,Pin_3*%
%TO.N,Board_35-Net-(J1-Pin_3)*%
X155850000Y-73847000D03*
%TD*%
D12*
%TO.P,Q1,1,E1*%
%TO.N,Board_32-Net-(J1-Pin_1)*%
X123500000Y-71366500D03*
%TO.P,Q1,2,B1*%
%TO.N,Board_32-Net-(J1-Pin_2)*%
X124450000Y-71366500D03*
%TO.P,Q1,3,C2*%
%TO.N,Board_32-Net-(J1-Pin_3)*%
X125400000Y-71366500D03*
%TO.P,Q1,4,E2*%
%TO.N,Board_32-Net-(J2-Pin_3)*%
X125400000Y-68666500D03*
%TO.P,Q1,5,B2*%
%TO.N,Board_32-Net-(J2-Pin_2)*%
X124450000Y-68666500D03*
%TO.P,Q1,6,C1*%
%TO.N,Board_32-Net-(J2-Pin_1)*%
X123500000Y-68666500D03*
%TD*%
%TO.P,Q1,1,E1*%
%TO.N,Board_16-Net-(J1-Pin_1)*%
X161980000Y-46742500D03*
%TO.P,Q1,2,B1*%
%TO.N,Board_16-Net-(J1-Pin_2)*%
X162930000Y-46742500D03*
%TO.P,Q1,3,C2*%
%TO.N,Board_16-Net-(J1-Pin_3)*%
X163880000Y-46742500D03*
%TO.P,Q1,4,E2*%
%TO.N,Board_16-Net-(J2-Pin_3)*%
X163880000Y-44042500D03*
%TO.P,Q1,5,B2*%
%TO.N,Board_16-Net-(J2-Pin_2)*%
X162930000Y-44042500D03*
%TO.P,Q1,6,C1*%
%TO.N,Board_16-Net-(J2-Pin_1)*%
X161980000Y-44042500D03*
%TD*%
D10*
%TO.P,J1,1,Pin_1*%
%TO.N,Board_2-Net-(J1-Pin_1)*%
X121910000Y-36911000D03*
D11*
%TO.P,J1,2,Pin_2*%
%TO.N,Board_2-Net-(J1-Pin_2)*%
X124450000Y-36911000D03*
%TO.P,J1,3,Pin_3*%
%TO.N,Board_2-Net-(J1-Pin_3)*%
X126990000Y-36911000D03*
%TD*%
D12*
%TO.P,Q1,1,E1*%
%TO.N,Board_10-Net-(J1-Pin_1)*%
X104260000Y-46742500D03*
%TO.P,Q1,2,B1*%
%TO.N,Board_10-Net-(J1-Pin_2)*%
X105210000Y-46742500D03*
%TO.P,Q1,3,C2*%
%TO.N,Board_10-Net-(J1-Pin_3)*%
X106160000Y-46742500D03*
%TO.P,Q1,4,E2*%
%TO.N,Board_10-Net-(J2-Pin_3)*%
X106160000Y-44042500D03*
%TO.P,Q1,5,B2*%
%TO.N,Board_10-Net-(J2-Pin_2)*%
X105210000Y-44042500D03*
%TO.P,Q1,6,C1*%
%TO.N,Board_10-Net-(J2-Pin_1)*%
X104260000Y-44042500D03*
%TD*%
D10*
%TO.P,J2,1,Pin_1*%
%TO.N,Board_4-Net-(J2-Pin_1)*%
X141150000Y-29291000D03*
D11*
%TO.P,J2,2,Pin_2*%
%TO.N,Board_4-Net-(J2-Pin_2)*%
X143690000Y-29291000D03*
%TO.P,J2,3,Pin_3*%
%TO.N,Board_4-Net-(J2-Pin_3)*%
X146230000Y-29291000D03*
%TD*%
D10*
%TO.P,J1,1,Pin_1*%
%TO.N,Board_41-Net-(J1-Pin_1)*%
X112290000Y-86159000D03*
D11*
%TO.P,J1,2,Pin_2*%
%TO.N,Board_41-Net-(J1-Pin_2)*%
X114830000Y-86159000D03*
%TO.P,J1,3,Pin_3*%
%TO.N,Board_41-Net-(J1-Pin_3)*%
X117370000Y-86159000D03*
%TD*%
D10*
%TO.P,J2,1,Pin_1*%
%TO.N,Board_29-Net-(J2-Pin_1)*%
X189250000Y-53915000D03*
D11*
%TO.P,J2,2,Pin_2*%
%TO.N,Board_29-Net-(J2-Pin_2)*%
X191790000Y-53915000D03*
%TO.P,J2,3,Pin_3*%
%TO.N,Board_29-Net-(J2-Pin_3)*%
X194330000Y-53915000D03*
%TD*%
D12*
%TO.P,Q1,1,E1*%
%TO.N,Board_5-Net-(J1-Pin_1)*%
X152360000Y-34430500D03*
%TO.P,Q1,2,B1*%
%TO.N,Board_5-Net-(J1-Pin_2)*%
X153310000Y-34430500D03*
%TO.P,Q1,3,C2*%
%TO.N,Board_5-Net-(J1-Pin_3)*%
X154260000Y-34430500D03*
%TO.P,Q1,4,E2*%
%TO.N,Board_5-Net-(J2-Pin_3)*%
X154260000Y-31730500D03*
%TO.P,Q1,5,B2*%
%TO.N,Board_5-Net-(J2-Pin_2)*%
X153310000Y-31730500D03*
%TO.P,Q1,6,C1*%
%TO.N,Board_5-Net-(J2-Pin_1)*%
X152360000Y-31730500D03*
%TD*%
%TO.P,Q1,1,E1*%
%TO.N,Board_3-Net-(J1-Pin_1)*%
X133120000Y-34430500D03*
%TO.P,Q1,2,B1*%
%TO.N,Board_3-Net-(J1-Pin_2)*%
X134070000Y-34430500D03*
%TO.P,Q1,3,C2*%
%TO.N,Board_3-Net-(J1-Pin_3)*%
X135020000Y-34430500D03*
%TO.P,Q1,4,E2*%
%TO.N,Board_3-Net-(J2-Pin_3)*%
X135020000Y-31730500D03*
%TO.P,Q1,5,B2*%
%TO.N,Board_3-Net-(J2-Pin_2)*%
X134070000Y-31730500D03*
%TO.P,Q1,6,C1*%
%TO.N,Board_3-Net-(J2-Pin_1)*%
X133120000Y-31730500D03*
%TD*%
D10*
%TO.P,J1,1,Pin_1*%
%TO.N,Board_1-Net-(J1-Pin_1)*%
X112290000Y-36911000D03*
D11*
%TO.P,J1,2,Pin_2*%
%TO.N,Board_1-Net-(J1-Pin_2)*%
X114830000Y-36911000D03*
%TO.P,J1,3,Pin_3*%
%TO.N,Board_1-Net-(J1-Pin_3)*%
X117370000Y-36911000D03*
%TD*%
D10*
%TO.P,J2,1,Pin_1*%
%TO.N,Board_36-Net-(J2-Pin_1)*%
X160390000Y-66227000D03*
D11*
%TO.P,J2,2,Pin_2*%
%TO.N,Board_36-Net-(J2-Pin_2)*%
X162930000Y-66227000D03*
%TO.P,J2,3,Pin_3*%
%TO.N,Board_36-Net-(J2-Pin_3)*%
X165470000Y-66227000D03*
%TD*%
D10*
%TO.P,J1,1,Pin_1*%
%TO.N,Board_42-Net-(J1-Pin_1)*%
X121910000Y-86159000D03*
D11*
%TO.P,J1,2,Pin_2*%
%TO.N,Board_42-Net-(J1-Pin_2)*%
X124450000Y-86159000D03*
%TO.P,J1,3,Pin_3*%
%TO.N,Board_42-Net-(J1-Pin_3)*%
X126990000Y-86159000D03*
%TD*%
D10*
%TO.P,J2,1,Pin_1*%
%TO.N,Board_23-Net-(J2-Pin_1)*%
X131530000Y-53915000D03*
D11*
%TO.P,J2,2,Pin_2*%
%TO.N,Board_23-Net-(J2-Pin_2)*%
X134070000Y-53915000D03*
%TO.P,J2,3,Pin_3*%
%TO.N,Board_23-Net-(J2-Pin_3)*%
X136610000Y-53915000D03*
%TD*%
D10*
%TO.P,J2,1,Pin_1*%
%TO.N,Board_45-Net-(J2-Pin_1)*%
X150770000Y-78539000D03*
D11*
%TO.P,J2,2,Pin_2*%
%TO.N,Board_45-Net-(J2-Pin_2)*%
X153310000Y-78539000D03*
%TO.P,J2,3,Pin_3*%
%TO.N,Board_45-Net-(J2-Pin_3)*%
X155850000Y-78539000D03*
%TD*%
D12*
%TO.P,Q1,1,E1*%
%TO.N,Board_56-Net-(J1-Pin_1)*%
X161980000Y-95990500D03*
%TO.P,Q1,2,B1*%
%TO.N,Board_56-Net-(J1-Pin_2)*%
X162930000Y-95990500D03*
%TO.P,Q1,3,C2*%
%TO.N,Board_56-Net-(J1-Pin_3)*%
X163880000Y-95990500D03*
%TO.P,Q1,4,E2*%
%TO.N,Board_56-Net-(J2-Pin_3)*%
X163880000Y-93290500D03*
%TO.P,Q1,5,B2*%
%TO.N,Board_56-Net-(J2-Pin_2)*%
X162930000Y-93290500D03*
%TO.P,Q1,6,C1*%
%TO.N,Board_56-Net-(J2-Pin_1)*%
X161980000Y-93290500D03*
%TD*%
D10*
%TO.P,J1,1,Pin_1*%
%TO.N,Board_43-Net-(J1-Pin_1)*%
X131530000Y-86159000D03*
D11*
%TO.P,J1,2,Pin_2*%
%TO.N,Board_43-Net-(J1-Pin_2)*%
X134070000Y-86159000D03*
%TO.P,J1,3,Pin_3*%
%TO.N,Board_43-Net-(J1-Pin_3)*%
X136610000Y-86159000D03*
%TD*%
D12*
%TO.P,Q1,1,E1*%
%TO.N,Board_13-Net-(J1-Pin_1)*%
X133120000Y-46742500D03*
%TO.P,Q1,2,B1*%
%TO.N,Board_13-Net-(J1-Pin_2)*%
X134070000Y-46742500D03*
%TO.P,Q1,3,C2*%
%TO.N,Board_13-Net-(J1-Pin_3)*%
X135020000Y-46742500D03*
%TO.P,Q1,4,E2*%
%TO.N,Board_13-Net-(J2-Pin_3)*%
X135020000Y-44042500D03*
%TO.P,Q1,5,B2*%
%TO.N,Board_13-Net-(J2-Pin_2)*%
X134070000Y-44042500D03*
%TO.P,Q1,6,C1*%
%TO.N,Board_13-Net-(J2-Pin_1)*%
X133120000Y-44042500D03*
%TD*%
%TO.P,Q1,1,E1*%
%TO.N,Board_57-Net-(J1-Pin_1)*%
X171600000Y-95990500D03*
%TO.P,Q1,2,B1*%
%TO.N,Board_57-Net-(J1-Pin_2)*%
X172550000Y-95990500D03*
%TO.P,Q1,3,C2*%
%TO.N,Board_57-Net-(J1-Pin_3)*%
X173500000Y-95990500D03*
%TO.P,Q1,4,E2*%
%TO.N,Board_57-Net-(J2-Pin_3)*%
X173500000Y-93290500D03*
%TO.P,Q1,5,B2*%
%TO.N,Board_57-Net-(J2-Pin_2)*%
X172550000Y-93290500D03*
%TO.P,Q1,6,C1*%
%TO.N,Board_57-Net-(J2-Pin_1)*%
X171600000Y-93290500D03*
%TD*%
D10*
%TO.P,J1,1,Pin_1*%
%TO.N,Board_58-Net-(J1-Pin_1)*%
X179630000Y-98471000D03*
D11*
%TO.P,J1,2,Pin_2*%
%TO.N,Board_58-Net-(J1-Pin_2)*%
X182170000Y-98471000D03*
%TO.P,J1,3,Pin_3*%
%TO.N,Board_58-Net-(J1-Pin_3)*%
X184710000Y-98471000D03*
%TD*%
D10*
%TO.P,J2,1,Pin_1*%
%TO.N,Board_50-Net-(J2-Pin_1)*%
X102670000Y-90851000D03*
D11*
%TO.P,J2,2,Pin_2*%
%TO.N,Board_50-Net-(J2-Pin_2)*%
X105210000Y-90851000D03*
%TO.P,J2,3,Pin_3*%
%TO.N,Board_50-Net-(J2-Pin_3)*%
X107750000Y-90851000D03*
%TD*%
D12*
%TO.P,Q1,1,E1*%
%TO.N,Board_0-Net-(J1-Pin_1)*%
X104260000Y-34430500D03*
%TO.P,Q1,2,B1*%
%TO.N,Board_0-Net-(J1-Pin_2)*%
X105210000Y-34430500D03*
%TO.P,Q1,3,C2*%
%TO.N,Board_0-Net-(J1-Pin_3)*%
X106160000Y-34430500D03*
%TO.P,Q1,4,E2*%
%TO.N,Board_0-Net-(J2-Pin_3)*%
X106160000Y-31730500D03*
%TO.P,Q1,5,B2*%
%TO.N,Board_0-Net-(J2-Pin_2)*%
X105210000Y-31730500D03*
%TO.P,Q1,6,C1*%
%TO.N,Board_0-Net-(J2-Pin_1)*%
X104260000Y-31730500D03*
%TD*%
D10*
%TO.P,J1,1,Pin_1*%
%TO.N,Board_32-Net-(J1-Pin_1)*%
X121910000Y-73847000D03*
D11*
%TO.P,J1,2,Pin_2*%
%TO.N,Board_32-Net-(J1-Pin_2)*%
X124450000Y-73847000D03*
%TO.P,J1,3,Pin_3*%
%TO.N,Board_32-Net-(J1-Pin_3)*%
X126990000Y-73847000D03*
%TD*%
D10*
%TO.P,J2,1,Pin_1*%
%TO.N,Board_22-Net-(J2-Pin_1)*%
X121910000Y-53915000D03*
D11*
%TO.P,J2,2,Pin_2*%
%TO.N,Board_22-Net-(J2-Pin_2)*%
X124450000Y-53915000D03*
%TO.P,J2,3,Pin_3*%
%TO.N,Board_22-Net-(J2-Pin_3)*%
X126990000Y-53915000D03*
%TD*%
D10*
%TO.P,J2,1,Pin_1*%
%TO.N,Board_37-Net-(J2-Pin_1)*%
X170010000Y-66227000D03*
D11*
%TO.P,J2,2,Pin_2*%
%TO.N,Board_37-Net-(J2-Pin_2)*%
X172550000Y-66227000D03*
%TO.P,J2,3,Pin_3*%
%TO.N,Board_37-Net-(J2-Pin_3)*%
X175090000Y-66227000D03*
%TD*%
D10*
%TO.P,J1,1,Pin_1*%
%TO.N,Board_47-Net-(J1-Pin_1)*%
X170010000Y-86159000D03*
D11*
%TO.P,J1,2,Pin_2*%
%TO.N,Board_47-Net-(J1-Pin_2)*%
X172550000Y-86159000D03*
%TO.P,J1,3,Pin_3*%
%TO.N,Board_47-Net-(J1-Pin_3)*%
X175090000Y-86159000D03*
%TD*%
D10*
%TO.P,J1,1,Pin_1*%
%TO.N,Board_33-Net-(J1-Pin_1)*%
X131530000Y-73847000D03*
D11*
%TO.P,J1,2,Pin_2*%
%TO.N,Board_33-Net-(J1-Pin_2)*%
X134070000Y-73847000D03*
%TO.P,J1,3,Pin_3*%
%TO.N,Board_33-Net-(J1-Pin_3)*%
X136610000Y-73847000D03*
%TD*%
D10*
%TO.P,J2,1,Pin_1*%
%TO.N,Board_9-Net-(J2-Pin_1)*%
X189250000Y-29291000D03*
D11*
%TO.P,J2,2,Pin_2*%
%TO.N,Board_9-Net-(J2-Pin_2)*%
X191790000Y-29291000D03*
%TO.P,J2,3,Pin_3*%
%TO.N,Board_9-Net-(J2-Pin_3)*%
X194330000Y-29291000D03*
%TD*%
D10*
%TO.P,J2,1,Pin_1*%
%TO.N,Board_18-Net-(J2-Pin_1)*%
X179630000Y-41603000D03*
D11*
%TO.P,J2,2,Pin_2*%
%TO.N,Board_18-Net-(J2-Pin_2)*%
X182170000Y-41603000D03*
%TO.P,J2,3,Pin_3*%
%TO.N,Board_18-Net-(J2-Pin_3)*%
X184710000Y-41603000D03*
%TD*%
D10*
%TO.P,J1,1,Pin_1*%
%TO.N,Board_6-Net-(J1-Pin_1)*%
X160390000Y-36911000D03*
D11*
%TO.P,J1,2,Pin_2*%
%TO.N,Board_6-Net-(J1-Pin_2)*%
X162930000Y-36911000D03*
%TO.P,J1,3,Pin_3*%
%TO.N,Board_6-Net-(J1-Pin_3)*%
X165470000Y-36911000D03*
%TD*%
D10*
%TO.P,J2,1,Pin_1*%
%TO.N,Board_41-Net-(J2-Pin_1)*%
X112290000Y-78539000D03*
D11*
%TO.P,J2,2,Pin_2*%
%TO.N,Board_41-Net-(J2-Pin_2)*%
X114830000Y-78539000D03*
%TO.P,J2,3,Pin_3*%
%TO.N,Board_41-Net-(J2-Pin_3)*%
X117370000Y-78539000D03*
%TD*%
D10*
%TO.P,J2,1,Pin_1*%
%TO.N,Board_1-Net-(J2-Pin_1)*%
X112290000Y-29291000D03*
D11*
%TO.P,J2,2,Pin_2*%
%TO.N,Board_1-Net-(J2-Pin_2)*%
X114830000Y-29291000D03*
%TO.P,J2,3,Pin_3*%
%TO.N,Board_1-Net-(J2-Pin_3)*%
X117370000Y-29291000D03*
%TD*%
D10*
%TO.P,J2,1,Pin_1*%
%TO.N,Board_39-Net-(J2-Pin_1)*%
X189250000Y-66227000D03*
D11*
%TO.P,J2,2,Pin_2*%
%TO.N,Board_39-Net-(J2-Pin_2)*%
X191790000Y-66227000D03*
%TO.P,J2,3,Pin_3*%
%TO.N,Board_39-Net-(J2-Pin_3)*%
X194330000Y-66227000D03*
%TD*%
D10*
%TO.P,J2,1,Pin_1*%
%TO.N,Board_13-Net-(J2-Pin_1)*%
X131530000Y-41603000D03*
D11*
%TO.P,J2,2,Pin_2*%
%TO.N,Board_13-Net-(J2-Pin_2)*%
X134070000Y-41603000D03*
%TO.P,J2,3,Pin_3*%
%TO.N,Board_13-Net-(J2-Pin_3)*%
X136610000Y-41603000D03*
%TD*%
D10*
%TO.P,J2,1,Pin_1*%
%TO.N,Board_42-Net-(J2-Pin_1)*%
X121910000Y-78539000D03*
D11*
%TO.P,J2,2,Pin_2*%
%TO.N,Board_42-Net-(J2-Pin_2)*%
X124450000Y-78539000D03*
%TO.P,J2,3,Pin_3*%
%TO.N,Board_42-Net-(J2-Pin_3)*%
X126990000Y-78539000D03*
%TD*%
D10*
%TO.P,J1,1,Pin_1*%
%TO.N,Board_23-Net-(J1-Pin_1)*%
X131530000Y-61535000D03*
D11*
%TO.P,J1,2,Pin_2*%
%TO.N,Board_23-Net-(J1-Pin_2)*%
X134070000Y-61535000D03*
%TO.P,J1,3,Pin_3*%
%TO.N,Board_23-Net-(J1-Pin_3)*%
X136610000Y-61535000D03*
%TD*%
D12*
%TO.P,Q1,1,E1*%
%TO.N,Board_52-Net-(J1-Pin_1)*%
X123500000Y-95990500D03*
%TO.P,Q1,2,B1*%
%TO.N,Board_52-Net-(J1-Pin_2)*%
X124450000Y-95990500D03*
%TO.P,Q1,3,C2*%
%TO.N,Board_52-Net-(J1-Pin_3)*%
X125400000Y-95990500D03*
%TO.P,Q1,4,E2*%
%TO.N,Board_52-Net-(J2-Pin_3)*%
X125400000Y-93290500D03*
%TO.P,Q1,5,B2*%
%TO.N,Board_52-Net-(J2-Pin_2)*%
X124450000Y-93290500D03*
%TO.P,Q1,6,C1*%
%TO.N,Board_52-Net-(J2-Pin_1)*%
X123500000Y-93290500D03*
%TD*%
D10*
%TO.P,J2,1,Pin_1*%
%TO.N,Board_12-Net-(J2-Pin_1)*%
X121910000Y-41603000D03*
D11*
%TO.P,J2,2,Pin_2*%
%TO.N,Board_12-Net-(J2-Pin_2)*%
X124450000Y-41603000D03*
%TO.P,J2,3,Pin_3*%
%TO.N,Board_12-Net-(J2-Pin_3)*%
X126990000Y-41603000D03*
%TD*%
D10*
%TO.P,J2,1,Pin_1*%
%TO.N,Board_43-Net-(J2-Pin_1)*%
X131530000Y-78539000D03*
D11*
%TO.P,J2,2,Pin_2*%
%TO.N,Board_43-Net-(J2-Pin_2)*%
X134070000Y-78539000D03*
%TO.P,J2,3,Pin_3*%
%TO.N,Board_43-Net-(J2-Pin_3)*%
X136610000Y-78539000D03*
%TD*%
D12*
%TO.P,Q1,1,E1*%
%TO.N,Board_41-Net-(J1-Pin_1)*%
X113880000Y-83678500D03*
%TO.P,Q1,2,B1*%
%TO.N,Board_41-Net-(J1-Pin_2)*%
X114830000Y-83678500D03*
%TO.P,Q1,3,C2*%
%TO.N,Board_41-Net-(J1-Pin_3)*%
X115780000Y-83678500D03*
%TO.P,Q1,4,E2*%
%TO.N,Board_41-Net-(J2-Pin_3)*%
X115780000Y-80978500D03*
%TO.P,Q1,5,B2*%
%TO.N,Board_41-Net-(J2-Pin_2)*%
X114830000Y-80978500D03*
%TO.P,Q1,6,C1*%
%TO.N,Board_41-Net-(J2-Pin_1)*%
X113880000Y-80978500D03*
%TD*%
%TO.P,Q1,1,E1*%
%TO.N,Board_18-Net-(J1-Pin_1)*%
X181220000Y-46742500D03*
%TO.P,Q1,2,B1*%
%TO.N,Board_18-Net-(J1-Pin_2)*%
X182170000Y-46742500D03*
%TO.P,Q1,3,C2*%
%TO.N,Board_18-Net-(J1-Pin_3)*%
X183120000Y-46742500D03*
%TO.P,Q1,4,E2*%
%TO.N,Board_18-Net-(J2-Pin_3)*%
X183120000Y-44042500D03*
%TO.P,Q1,5,B2*%
%TO.N,Board_18-Net-(J2-Pin_2)*%
X182170000Y-44042500D03*
%TO.P,Q1,6,C1*%
%TO.N,Board_18-Net-(J2-Pin_1)*%
X181220000Y-44042500D03*
%TD*%
%TO.P,Q1,1,E1*%
%TO.N,Board_46-Net-(J1-Pin_1)*%
X161980000Y-83678500D03*
%TO.P,Q1,2,B1*%
%TO.N,Board_46-Net-(J1-Pin_2)*%
X162930000Y-83678500D03*
%TO.P,Q1,3,C2*%
%TO.N,Board_46-Net-(J1-Pin_3)*%
X163880000Y-83678500D03*
%TO.P,Q1,4,E2*%
%TO.N,Board_46-Net-(J2-Pin_3)*%
X163880000Y-80978500D03*
%TO.P,Q1,5,B2*%
%TO.N,Board_46-Net-(J2-Pin_2)*%
X162930000Y-80978500D03*
%TO.P,Q1,6,C1*%
%TO.N,Board_46-Net-(J2-Pin_1)*%
X161980000Y-80978500D03*
%TD*%
D10*
%TO.P,J1,1,Pin_1*%
%TO.N,Board_14-Net-(J1-Pin_1)*%
X141150000Y-49223000D03*
D11*
%TO.P,J1,2,Pin_2*%
%TO.N,Board_14-Net-(J1-Pin_2)*%
X143690000Y-49223000D03*
%TO.P,J1,3,Pin_3*%
%TO.N,Board_14-Net-(J1-Pin_3)*%
X146230000Y-49223000D03*
%TD*%
D10*
%TO.P,J2,1,Pin_1*%
%TO.N,Board_46-Net-(J2-Pin_1)*%
X160390000Y-78539000D03*
D11*
%TO.P,J2,2,Pin_2*%
%TO.N,Board_46-Net-(J2-Pin_2)*%
X162930000Y-78539000D03*
%TO.P,J2,3,Pin_3*%
%TO.N,Board_46-Net-(J2-Pin_3)*%
X165470000Y-78539000D03*
%TD*%
D12*
%TO.P,Q1,1,E1*%
%TO.N,Board_40-Net-(J1-Pin_1)*%
X104260000Y-83678500D03*
%TO.P,Q1,2,B1*%
%TO.N,Board_40-Net-(J1-Pin_2)*%
X105210000Y-83678500D03*
%TO.P,Q1,3,C2*%
%TO.N,Board_40-Net-(J1-Pin_3)*%
X106160000Y-83678500D03*
%TO.P,Q1,4,E2*%
%TO.N,Board_40-Net-(J2-Pin_3)*%
X106160000Y-80978500D03*
%TO.P,Q1,5,B2*%
%TO.N,Board_40-Net-(J2-Pin_2)*%
X105210000Y-80978500D03*
%TO.P,Q1,6,C1*%
%TO.N,Board_40-Net-(J2-Pin_1)*%
X104260000Y-80978500D03*
%TD*%
D10*
%TO.P,J1,1,Pin_1*%
%TO.N,Board_0-Net-(J1-Pin_1)*%
X102670000Y-36911000D03*
D11*
%TO.P,J1,2,Pin_2*%
%TO.N,Board_0-Net-(J1-Pin_2)*%
X105210000Y-36911000D03*
%TO.P,J1,3,Pin_3*%
%TO.N,Board_0-Net-(J1-Pin_3)*%
X107750000Y-36911000D03*
%TD*%
D10*
%TO.P,J1,1,Pin_1*%
%TO.N,Board_29-Net-(J1-Pin_1)*%
X189250000Y-61535000D03*
D11*
%TO.P,J1,2,Pin_2*%
%TO.N,Board_29-Net-(J1-Pin_2)*%
X191790000Y-61535000D03*
%TO.P,J1,3,Pin_3*%
%TO.N,Board_29-Net-(J1-Pin_3)*%
X194330000Y-61535000D03*
%TD*%
D10*
%TO.P,J2,1,Pin_1*%
%TO.N,Board_8-Net-(J2-Pin_1)*%
X179630000Y-29291000D03*
D11*
%TO.P,J2,2,Pin_2*%
%TO.N,Board_8-Net-(J2-Pin_2)*%
X182170000Y-29291000D03*
%TO.P,J2,3,Pin_3*%
%TO.N,Board_8-Net-(J2-Pin_3)*%
X184710000Y-29291000D03*
%TD*%
D10*
%TO.P,J1,1,Pin_1*%
%TO.N,Board_25-Net-(J1-Pin_1)*%
X150770000Y-61535000D03*
D11*
%TO.P,J1,2,Pin_2*%
%TO.N,Board_25-Net-(J1-Pin_2)*%
X153310000Y-61535000D03*
%TO.P,J1,3,Pin_3*%
%TO.N,Board_25-Net-(J1-Pin_3)*%
X155850000Y-61535000D03*
%TD*%
D10*
%TO.P,J1,1,Pin_1*%
%TO.N,Board_24-Net-(J1-Pin_1)*%
X141150000Y-61535000D03*
D11*
%TO.P,J1,2,Pin_2*%
%TO.N,Board_24-Net-(J1-Pin_2)*%
X143690000Y-61535000D03*
%TO.P,J1,3,Pin_3*%
%TO.N,Board_24-Net-(J1-Pin_3)*%
X146230000Y-61535000D03*
%TD*%
D10*
%TO.P,J1,1,Pin_1*%
%TO.N,Board_4-Net-(J1-Pin_1)*%
X141150000Y-36911000D03*
D11*
%TO.P,J1,2,Pin_2*%
%TO.N,Board_4-Net-(J1-Pin_2)*%
X143690000Y-36911000D03*
%TO.P,J1,3,Pin_3*%
%TO.N,Board_4-Net-(J1-Pin_3)*%
X146230000Y-36911000D03*
%TD*%
D12*
%TO.P,Q1,1,E1*%
%TO.N,Board_58-Net-(J1-Pin_1)*%
X181220000Y-95990500D03*
%TO.P,Q1,2,B1*%
%TO.N,Board_58-Net-(J1-Pin_2)*%
X182170000Y-95990500D03*
%TO.P,Q1,3,C2*%
%TO.N,Board_58-Net-(J1-Pin_3)*%
X183120000Y-95990500D03*
%TO.P,Q1,4,E2*%
%TO.N,Board_58-Net-(J2-Pin_3)*%
X183120000Y-93290500D03*
%TO.P,Q1,5,B2*%
%TO.N,Board_58-Net-(J2-Pin_2)*%
X182170000Y-93290500D03*
%TO.P,Q1,6,C1*%
%TO.N,Board_58-Net-(J2-Pin_1)*%
X181220000Y-93290500D03*
%TD*%
D10*
%TO.P,J1,1,Pin_1*%
%TO.N,Board_9-Net-(J1-Pin_1)*%
X189250000Y-36911000D03*
D11*
%TO.P,J1,2,Pin_2*%
%TO.N,Board_9-Net-(J1-Pin_2)*%
X191790000Y-36911000D03*
%TO.P,J1,3,Pin_3*%
%TO.N,Board_9-Net-(J1-Pin_3)*%
X194330000Y-36911000D03*
%TD*%
D12*
%TO.P,Q1,1,E1*%
%TO.N,Board_1-Net-(J1-Pin_1)*%
X113880000Y-34430500D03*
%TO.P,Q1,2,B1*%
%TO.N,Board_1-Net-(J1-Pin_2)*%
X114830000Y-34430500D03*
%TO.P,Q1,3,C2*%
%TO.N,Board_1-Net-(J1-Pin_3)*%
X115780000Y-34430500D03*
%TO.P,Q1,4,E2*%
%TO.N,Board_1-Net-(J2-Pin_3)*%
X115780000Y-31730500D03*
%TO.P,Q1,5,B2*%
%TO.N,Board_1-Net-(J2-Pin_2)*%
X114830000Y-31730500D03*
%TO.P,Q1,6,C1*%
%TO.N,Board_1-Net-(J2-Pin_1)*%
X113880000Y-31730500D03*
%TD*%
D10*
%TO.P,J2,1,Pin_1*%
%TO.N,Board_11-Net-(J2-Pin_1)*%
X112290000Y-41603000D03*
D11*
%TO.P,J2,2,Pin_2*%
%TO.N,Board_11-Net-(J2-Pin_2)*%
X114830000Y-41603000D03*
%TO.P,J2,3,Pin_3*%
%TO.N,Board_11-Net-(J2-Pin_3)*%
X117370000Y-41603000D03*
%TD*%
D10*
%TO.P,J2,1,Pin_1*%
%TO.N,Board_24-Net-(J2-Pin_1)*%
X141150000Y-53915000D03*
D11*
%TO.P,J2,2,Pin_2*%
%TO.N,Board_24-Net-(J2-Pin_2)*%
X143690000Y-53915000D03*
%TO.P,J2,3,Pin_3*%
%TO.N,Board_24-Net-(J2-Pin_3)*%
X146230000Y-53915000D03*
%TD*%
D10*
%TO.P,J1,1,Pin_1*%
%TO.N,Board_51-Net-(J1-Pin_1)*%
X112290000Y-98471000D03*
D11*
%TO.P,J1,2,Pin_2*%
%TO.N,Board_51-Net-(J1-Pin_2)*%
X114830000Y-98471000D03*
%TO.P,J1,3,Pin_3*%
%TO.N,Board_51-Net-(J1-Pin_3)*%
X117370000Y-98471000D03*
%TD*%
D12*
%TO.P,Q1,1,E1*%
%TO.N,Board_28-Net-(J1-Pin_1)*%
X181220000Y-59054500D03*
%TO.P,Q1,2,B1*%
%TO.N,Board_28-Net-(J1-Pin_2)*%
X182170000Y-59054500D03*
%TO.P,Q1,3,C2*%
%TO.N,Board_28-Net-(J1-Pin_3)*%
X183120000Y-59054500D03*
%TO.P,Q1,4,E2*%
%TO.N,Board_28-Net-(J2-Pin_3)*%
X183120000Y-56354500D03*
%TO.P,Q1,5,B2*%
%TO.N,Board_28-Net-(J2-Pin_2)*%
X182170000Y-56354500D03*
%TO.P,Q1,6,C1*%
%TO.N,Board_28-Net-(J2-Pin_1)*%
X181220000Y-56354500D03*
%TD*%
%TO.P,Q1,1,E1*%
%TO.N,Board_35-Net-(J1-Pin_1)*%
X152360000Y-71366500D03*
%TO.P,Q1,2,B1*%
%TO.N,Board_35-Net-(J1-Pin_2)*%
X153310000Y-71366500D03*
%TO.P,Q1,3,C2*%
%TO.N,Board_35-Net-(J1-Pin_3)*%
X154260000Y-71366500D03*
%TO.P,Q1,4,E2*%
%TO.N,Board_35-Net-(J2-Pin_3)*%
X154260000Y-68666500D03*
%TO.P,Q1,5,B2*%
%TO.N,Board_35-Net-(J2-Pin_2)*%
X153310000Y-68666500D03*
%TO.P,Q1,6,C1*%
%TO.N,Board_35-Net-(J2-Pin_1)*%
X152360000Y-68666500D03*
%TD*%
D10*
%TO.P,J1,1,Pin_1*%
%TO.N,Board_39-Net-(J1-Pin_1)*%
X189250000Y-73847000D03*
D11*
%TO.P,J1,2,Pin_2*%
%TO.N,Board_39-Net-(J1-Pin_2)*%
X191790000Y-73847000D03*
%TO.P,J1,3,Pin_3*%
%TO.N,Board_39-Net-(J1-Pin_3)*%
X194330000Y-73847000D03*
%TD*%
D10*
%TO.P,J2,1,Pin_1*%
%TO.N,Board_56-Net-(J2-Pin_1)*%
X160390000Y-90851000D03*
D11*
%TO.P,J2,2,Pin_2*%
%TO.N,Board_56-Net-(J2-Pin_2)*%
X162930000Y-90851000D03*
%TO.P,J2,3,Pin_3*%
%TO.N,Board_56-Net-(J2-Pin_3)*%
X165470000Y-90851000D03*
%TD*%
D10*
%TO.P,J2,1,Pin_1*%
%TO.N,Board_47-Net-(J2-Pin_1)*%
X170010000Y-78539000D03*
D11*
%TO.P,J2,2,Pin_2*%
%TO.N,Board_47-Net-(J2-Pin_2)*%
X172550000Y-78539000D03*
%TO.P,J2,3,Pin_3*%
%TO.N,Board_47-Net-(J2-Pin_3)*%
X175090000Y-78539000D03*
%TD*%
D12*
%TO.P,Q1,1,E1*%
%TO.N,Board_51-Net-(J1-Pin_1)*%
X113880000Y-95990500D03*
%TO.P,Q1,2,B1*%
%TO.N,Board_51-Net-(J1-Pin_2)*%
X114830000Y-95990500D03*
%TO.P,Q1,3,C2*%
%TO.N,Board_51-Net-(J1-Pin_3)*%
X115780000Y-95990500D03*
%TO.P,Q1,4,E2*%
%TO.N,Board_51-Net-(J2-Pin_3)*%
X115780000Y-93290500D03*
%TO.P,Q1,5,B2*%
%TO.N,Board_51-Net-(J2-Pin_2)*%
X114830000Y-93290500D03*
%TO.P,Q1,6,C1*%
%TO.N,Board_51-Net-(J2-Pin_1)*%
X113880000Y-93290500D03*
%TD*%
D10*
%TO.P,J1,1,Pin_1*%
%TO.N,Board_34-Net-(J1-Pin_1)*%
X141150000Y-73847000D03*
D11*
%TO.P,J1,2,Pin_2*%
%TO.N,Board_34-Net-(J1-Pin_2)*%
X143690000Y-73847000D03*
%TO.P,J1,3,Pin_3*%
%TO.N,Board_34-Net-(J1-Pin_3)*%
X146230000Y-73847000D03*
%TD*%
D10*
%TO.P,J1,1,Pin_1*%
%TO.N,Board_8-Net-(J1-Pin_1)*%
X179630000Y-36911000D03*
D11*
%TO.P,J1,2,Pin_2*%
%TO.N,Board_8-Net-(J1-Pin_2)*%
X182170000Y-36911000D03*
%TO.P,J1,3,Pin_3*%
%TO.N,Board_8-Net-(J1-Pin_3)*%
X184710000Y-36911000D03*
%TD*%
D12*
%TO.P,Q1,1,E1*%
%TO.N,Board_25-Net-(J1-Pin_1)*%
X152360000Y-59054500D03*
%TO.P,Q1,2,B1*%
%TO.N,Board_25-Net-(J1-Pin_2)*%
X153310000Y-59054500D03*
%TO.P,Q1,3,C2*%
%TO.N,Board_25-Net-(J1-Pin_3)*%
X154260000Y-59054500D03*
%TO.P,Q1,4,E2*%
%TO.N,Board_25-Net-(J2-Pin_3)*%
X154260000Y-56354500D03*
%TO.P,Q1,5,B2*%
%TO.N,Board_25-Net-(J2-Pin_2)*%
X153310000Y-56354500D03*
%TO.P,Q1,6,C1*%
%TO.N,Board_25-Net-(J2-Pin_1)*%
X152360000Y-56354500D03*
%TD*%
D10*
%TO.P,J1,1,Pin_1*%
%TO.N,Board_44-Net-(J1-Pin_1)*%
X141150000Y-86159000D03*
D11*
%TO.P,J1,2,Pin_2*%
%TO.N,Board_44-Net-(J1-Pin_2)*%
X143690000Y-86159000D03*
%TO.P,J1,3,Pin_3*%
%TO.N,Board_44-Net-(J1-Pin_3)*%
X146230000Y-86159000D03*
%TD*%
D10*
%TO.P,J2,1,Pin_1*%
%TO.N,Board_35-Net-(J2-Pin_1)*%
X150770000Y-66227000D03*
D11*
%TO.P,J2,2,Pin_2*%
%TO.N,Board_35-Net-(J2-Pin_2)*%
X153310000Y-66227000D03*
%TO.P,J2,3,Pin_3*%
%TO.N,Board_35-Net-(J2-Pin_3)*%
X155850000Y-66227000D03*
%TD*%
D10*
%TO.P,J1,1,Pin_1*%
%TO.N,Board_55-Net-(J1-Pin_1)*%
X150770000Y-98471000D03*
D11*
%TO.P,J1,2,Pin_2*%
%TO.N,Board_55-Net-(J1-Pin_2)*%
X153310000Y-98471000D03*
%TO.P,J1,3,Pin_3*%
%TO.N,Board_55-Net-(J1-Pin_3)*%
X155850000Y-98471000D03*
%TD*%
D10*
%TO.P,J2,1,Pin_1*%
%TO.N,Board_2-Net-(J2-Pin_1)*%
X121910000Y-29291000D03*
D11*
%TO.P,J2,2,Pin_2*%
%TO.N,Board_2-Net-(J2-Pin_2)*%
X124450000Y-29291000D03*
%TO.P,J2,3,Pin_3*%
%TO.N,Board_2-Net-(J2-Pin_3)*%
X126990000Y-29291000D03*
%TD*%
D10*
%TO.P,J2,1,Pin_1*%
%TO.N,Board_59-Net-(J2-Pin_1)*%
X189250000Y-90851000D03*
D11*
%TO.P,J2,2,Pin_2*%
%TO.N,Board_59-Net-(J2-Pin_2)*%
X191790000Y-90851000D03*
%TO.P,J2,3,Pin_3*%
%TO.N,Board_59-Net-(J2-Pin_3)*%
X194330000Y-90851000D03*
%TD*%
D10*
%TO.P,J2,1,Pin_1*%
%TO.N,Board_48-Net-(J2-Pin_1)*%
X179630000Y-78539000D03*
D11*
%TO.P,J2,2,Pin_2*%
%TO.N,Board_48-Net-(J2-Pin_2)*%
X182170000Y-78539000D03*
%TO.P,J2,3,Pin_3*%
%TO.N,Board_48-Net-(J2-Pin_3)*%
X184710000Y-78539000D03*
%TD*%
D10*
%TO.P,J2,1,Pin_1*%
%TO.N,Board_6-Net-(J2-Pin_1)*%
X160390000Y-29291000D03*
D11*
%TO.P,J2,2,Pin_2*%
%TO.N,Board_6-Net-(J2-Pin_2)*%
X162930000Y-29291000D03*
%TO.P,J2,3,Pin_3*%
%TO.N,Board_6-Net-(J2-Pin_3)*%
X165470000Y-29291000D03*
%TD*%
D10*
%TO.P,J2,1,Pin_1*%
%TO.N,Board_57-Net-(J2-Pin_1)*%
X170010000Y-90851000D03*
D11*
%TO.P,J2,2,Pin_2*%
%TO.N,Board_57-Net-(J2-Pin_2)*%
X172550000Y-90851000D03*
%TO.P,J2,3,Pin_3*%
%TO.N,Board_57-Net-(J2-Pin_3)*%
X175090000Y-90851000D03*
%TD*%
D12*
%TO.P,Q1,1,E1*%
%TO.N,Board_24-Net-(J1-Pin_1)*%
X142740000Y-59054500D03*
%TO.P,Q1,2,B1*%
%TO.N,Board_24-Net-(J1-Pin_2)*%
X143690000Y-59054500D03*
%TO.P,Q1,3,C2*%
%TO.N,Board_24-Net-(J1-Pin_3)*%
X144640000Y-59054500D03*
%TO.P,Q1,4,E2*%
%TO.N,Board_24-Net-(J2-Pin_3)*%
X144640000Y-56354500D03*
%TO.P,Q1,5,B2*%
%TO.N,Board_24-Net-(J2-Pin_2)*%
X143690000Y-56354500D03*
%TO.P,Q1,6,C1*%
%TO.N,Board_24-Net-(J2-Pin_1)*%
X142740000Y-56354500D03*
%TD*%
D10*
%TO.P,J1,1,Pin_1*%
%TO.N,Board_3-Net-(J1-Pin_1)*%
X131530000Y-36911000D03*
D11*
%TO.P,J1,2,Pin_2*%
%TO.N,Board_3-Net-(J1-Pin_2)*%
X134070000Y-36911000D03*
%TO.P,J1,3,Pin_3*%
%TO.N,Board_3-Net-(J1-Pin_3)*%
X136610000Y-36911000D03*
%TD*%
D10*
%TO.P,J1,1,Pin_1*%
%TO.N,Board_28-Net-(J1-Pin_1)*%
X179630000Y-61535000D03*
D11*
%TO.P,J1,2,Pin_2*%
%TO.N,Board_28-Net-(J1-Pin_2)*%
X182170000Y-61535000D03*
%TO.P,J1,3,Pin_3*%
%TO.N,Board_28-Net-(J1-Pin_3)*%
X184710000Y-61535000D03*
%TD*%
D10*
%TO.P,J2,1,Pin_1*%
%TO.N,Board_5-Net-(J2-Pin_1)*%
X150770000Y-29291000D03*
D11*
%TO.P,J2,2,Pin_2*%
%TO.N,Board_5-Net-(J2-Pin_2)*%
X153310000Y-29291000D03*
%TO.P,J2,3,Pin_3*%
%TO.N,Board_5-Net-(J2-Pin_3)*%
X155850000Y-29291000D03*
%TD*%
D10*
%TO.P,J1,1,Pin_1*%
%TO.N,Board_26-Net-(J1-Pin_1)*%
X160390000Y-61535000D03*
D11*
%TO.P,J1,2,Pin_2*%
%TO.N,Board_26-Net-(J1-Pin_2)*%
X162930000Y-61535000D03*
%TO.P,J1,3,Pin_3*%
%TO.N,Board_26-Net-(J1-Pin_3)*%
X165470000Y-61535000D03*
%TD*%
D12*
%TO.P,Q1,1,E1*%
%TO.N,Board_29-Net-(J1-Pin_1)*%
X190840000Y-59054500D03*
%TO.P,Q1,2,B1*%
%TO.N,Board_29-Net-(J1-Pin_2)*%
X191790000Y-59054500D03*
%TO.P,Q1,3,C2*%
%TO.N,Board_29-Net-(J1-Pin_3)*%
X192740000Y-59054500D03*
%TO.P,Q1,4,E2*%
%TO.N,Board_29-Net-(J2-Pin_3)*%
X192740000Y-56354500D03*
%TO.P,Q1,5,B2*%
%TO.N,Board_29-Net-(J2-Pin_2)*%
X191790000Y-56354500D03*
%TO.P,Q1,6,C1*%
%TO.N,Board_29-Net-(J2-Pin_1)*%
X190840000Y-56354500D03*
%TD*%
D10*
%TO.P,J1,1,Pin_1*%
%TO.N,Board_12-Net-(J1-Pin_1)*%
X121910000Y-49223000D03*
D11*
%TO.P,J1,2,Pin_2*%
%TO.N,Board_12-Net-(J1-Pin_2)*%
X124450000Y-49223000D03*
%TO.P,J1,3,Pin_3*%
%TO.N,Board_12-Net-(J1-Pin_3)*%
X126990000Y-49223000D03*
%TD*%
D10*
%TO.P,J1,1,Pin_1*%
%TO.N,Board_27-Net-(J1-Pin_1)*%
X170010000Y-61535000D03*
D11*
%TO.P,J1,2,Pin_2*%
%TO.N,Board_27-Net-(J1-Pin_2)*%
X172550000Y-61535000D03*
%TO.P,J1,3,Pin_3*%
%TO.N,Board_27-Net-(J1-Pin_3)*%
X175090000Y-61535000D03*
%TD*%
D10*
%TO.P,J2,1,Pin_1*%
%TO.N,Board_19-Net-(J2-Pin_1)*%
X189250000Y-41603000D03*
D11*
%TO.P,J2,2,Pin_2*%
%TO.N,Board_19-Net-(J2-Pin_2)*%
X191790000Y-41603000D03*
%TO.P,J2,3,Pin_3*%
%TO.N,Board_19-Net-(J2-Pin_3)*%
X194330000Y-41603000D03*
%TD*%
D12*
%TO.P,Q1,1,E1*%
%TO.N,Board_17-Net-(J1-Pin_1)*%
X171600000Y-46742500D03*
%TO.P,Q1,2,B1*%
%TO.N,Board_17-Net-(J1-Pin_2)*%
X172550000Y-46742500D03*
%TO.P,Q1,3,C2*%
%TO.N,Board_17-Net-(J1-Pin_3)*%
X173500000Y-46742500D03*
%TO.P,Q1,4,E2*%
%TO.N,Board_17-Net-(J2-Pin_3)*%
X173500000Y-44042500D03*
%TO.P,Q1,5,B2*%
%TO.N,Board_17-Net-(J2-Pin_2)*%
X172550000Y-44042500D03*
%TO.P,Q1,6,C1*%
%TO.N,Board_17-Net-(J2-Pin_1)*%
X171600000Y-44042500D03*
%TD*%
%TO.P,Q1,1,E1*%
%TO.N,Board_15-Net-(J1-Pin_1)*%
X152360000Y-46742500D03*
%TO.P,Q1,2,B1*%
%TO.N,Board_15-Net-(J1-Pin_2)*%
X153310000Y-46742500D03*
%TO.P,Q1,3,C2*%
%TO.N,Board_15-Net-(J1-Pin_3)*%
X154260000Y-46742500D03*
%TO.P,Q1,4,E2*%
%TO.N,Board_15-Net-(J2-Pin_3)*%
X154260000Y-44042500D03*
%TO.P,Q1,5,B2*%
%TO.N,Board_15-Net-(J2-Pin_2)*%
X153310000Y-44042500D03*
%TO.P,Q1,6,C1*%
%TO.N,Board_15-Net-(J2-Pin_1)*%
X152360000Y-44042500D03*
%TD*%
D10*
%TO.P,J1,1,Pin_1*%
%TO.N,Board_49-Net-(J1-Pin_1)*%
X189250000Y-86159000D03*
D11*
%TO.P,J1,2,Pin_2*%
%TO.N,Board_49-Net-(J1-Pin_2)*%
X191790000Y-86159000D03*
%TO.P,J1,3,Pin_3*%
%TO.N,Board_49-Net-(J1-Pin_3)*%
X194330000Y-86159000D03*
%TD*%
D10*
%TO.P,J2,1,Pin_1*%
%TO.N,Board_15-Net-(J2-Pin_1)*%
X150770000Y-41603000D03*
D11*
%TO.P,J2,2,Pin_2*%
%TO.N,Board_15-Net-(J2-Pin_2)*%
X153310000Y-41603000D03*
%TO.P,J2,3,Pin_3*%
%TO.N,Board_15-Net-(J2-Pin_3)*%
X155850000Y-41603000D03*
%TD*%
D12*
%TO.P,Q1,1,E1*%
%TO.N,Board_33-Net-(J1-Pin_1)*%
X133120000Y-71366500D03*
%TO.P,Q1,2,B1*%
%TO.N,Board_33-Net-(J1-Pin_2)*%
X134070000Y-71366500D03*
%TO.P,Q1,3,C2*%
%TO.N,Board_33-Net-(J1-Pin_3)*%
X135020000Y-71366500D03*
%TO.P,Q1,4,E2*%
%TO.N,Board_33-Net-(J2-Pin_3)*%
X135020000Y-68666500D03*
%TO.P,Q1,5,B2*%
%TO.N,Board_33-Net-(J2-Pin_2)*%
X134070000Y-68666500D03*
%TO.P,Q1,6,C1*%
%TO.N,Board_33-Net-(J2-Pin_1)*%
X133120000Y-68666500D03*
%TD*%
D10*
%TO.P,J2,1,Pin_1*%
%TO.N,Board_49-Net-(J2-Pin_1)*%
X189250000Y-78539000D03*
D11*
%TO.P,J2,2,Pin_2*%
%TO.N,Board_49-Net-(J2-Pin_2)*%
X191790000Y-78539000D03*
%TO.P,J2,3,Pin_3*%
%TO.N,Board_49-Net-(J2-Pin_3)*%
X194330000Y-78539000D03*
%TD*%
D12*
%TO.P,Q1,1,E1*%
%TO.N,Board_11-Net-(J1-Pin_1)*%
X113880000Y-46742500D03*
%TO.P,Q1,2,B1*%
%TO.N,Board_11-Net-(J1-Pin_2)*%
X114830000Y-46742500D03*
%TO.P,Q1,3,C2*%
%TO.N,Board_11-Net-(J1-Pin_3)*%
X115780000Y-46742500D03*
%TO.P,Q1,4,E2*%
%TO.N,Board_11-Net-(J2-Pin_3)*%
X115780000Y-44042500D03*
%TO.P,Q1,5,B2*%
%TO.N,Board_11-Net-(J2-Pin_2)*%
X114830000Y-44042500D03*
%TO.P,Q1,6,C1*%
%TO.N,Board_11-Net-(J2-Pin_1)*%
X113880000Y-44042500D03*
%TD*%
D10*
%TO.P,J1,1,Pin_1*%
%TO.N,Board_11-Net-(J1-Pin_1)*%
X112290000Y-49223000D03*
D11*
%TO.P,J1,2,Pin_2*%
%TO.N,Board_11-Net-(J1-Pin_2)*%
X114830000Y-49223000D03*
%TO.P,J1,3,Pin_3*%
%TO.N,Board_11-Net-(J1-Pin_3)*%
X117370000Y-49223000D03*
%TD*%
D10*
%TO.P,J1,1,Pin_1*%
%TO.N,Board_48-Net-(J1-Pin_1)*%
X179630000Y-86159000D03*
D11*
%TO.P,J1,2,Pin_2*%
%TO.N,Board_48-Net-(J1-Pin_2)*%
X182170000Y-86159000D03*
%TO.P,J1,3,Pin_3*%
%TO.N,Board_48-Net-(J1-Pin_3)*%
X184710000Y-86159000D03*
%TD*%
D12*
%TO.P,Q1,1,E1*%
%TO.N,Board_44-Net-(J1-Pin_1)*%
X142740000Y-83678500D03*
%TO.P,Q1,2,B1*%
%TO.N,Board_44-Net-(J1-Pin_2)*%
X143690000Y-83678500D03*
%TO.P,Q1,3,C2*%
%TO.N,Board_44-Net-(J1-Pin_3)*%
X144640000Y-83678500D03*
%TO.P,Q1,4,E2*%
%TO.N,Board_44-Net-(J2-Pin_3)*%
X144640000Y-80978500D03*
%TO.P,Q1,5,B2*%
%TO.N,Board_44-Net-(J2-Pin_2)*%
X143690000Y-80978500D03*
%TO.P,Q1,6,C1*%
%TO.N,Board_44-Net-(J2-Pin_1)*%
X142740000Y-80978500D03*
%TD*%
%TO.P,Q1,1,E1*%
%TO.N,Board_20-Net-(J1-Pin_1)*%
X104260000Y-59054500D03*
%TO.P,Q1,2,B1*%
%TO.N,Board_20-Net-(J1-Pin_2)*%
X105210000Y-59054500D03*
%TO.P,Q1,3,C2*%
%TO.N,Board_20-Net-(J1-Pin_3)*%
X106160000Y-59054500D03*
%TO.P,Q1,4,E2*%
%TO.N,Board_20-Net-(J2-Pin_3)*%
X106160000Y-56354500D03*
%TO.P,Q1,5,B2*%
%TO.N,Board_20-Net-(J2-Pin_2)*%
X105210000Y-56354500D03*
%TO.P,Q1,6,C1*%
%TO.N,Board_20-Net-(J2-Pin_1)*%
X104260000Y-56354500D03*
%TD*%
%TO.P,Q1,1,E1*%
%TO.N,Board_50-Net-(J1-Pin_1)*%
X104260000Y-95990500D03*
%TO.P,Q1,2,B1*%
%TO.N,Board_50-Net-(J1-Pin_2)*%
X105210000Y-95990500D03*
%TO.P,Q1,3,C2*%
%TO.N,Board_50-Net-(J1-Pin_3)*%
X106160000Y-95990500D03*
%TO.P,Q1,4,E2*%
%TO.N,Board_50-Net-(J2-Pin_3)*%
X106160000Y-93290500D03*
%TO.P,Q1,5,B2*%
%TO.N,Board_50-Net-(J2-Pin_2)*%
X105210000Y-93290500D03*
%TO.P,Q1,6,C1*%
%TO.N,Board_50-Net-(J2-Pin_1)*%
X104260000Y-93290500D03*
%TD*%
D10*
%TO.P,J1,1,Pin_1*%
%TO.N,Board_7-Net-(J1-Pin_1)*%
X170010000Y-36911000D03*
D11*
%TO.P,J1,2,Pin_2*%
%TO.N,Board_7-Net-(J1-Pin_2)*%
X172550000Y-36911000D03*
%TO.P,J1,3,Pin_3*%
%TO.N,Board_7-Net-(J1-Pin_3)*%
X175090000Y-36911000D03*
%TD*%
D12*
%TO.P,Q1,1,E1*%
%TO.N,Board_37-Net-(J1-Pin_1)*%
X171600000Y-71366500D03*
%TO.P,Q1,2,B1*%
%TO.N,Board_37-Net-(J1-Pin_2)*%
X172550000Y-71366500D03*
%TO.P,Q1,3,C2*%
%TO.N,Board_37-Net-(J1-Pin_3)*%
X173500000Y-71366500D03*
%TO.P,Q1,4,E2*%
%TO.N,Board_37-Net-(J2-Pin_3)*%
X173500000Y-68666500D03*
%TO.P,Q1,5,B2*%
%TO.N,Board_37-Net-(J2-Pin_2)*%
X172550000Y-68666500D03*
%TO.P,Q1,6,C1*%
%TO.N,Board_37-Net-(J2-Pin_1)*%
X171600000Y-68666500D03*
%TD*%
%TO.P,Q1,1,E1*%
%TO.N,Board_12-Net-(J1-Pin_1)*%
X123500000Y-46742500D03*
%TO.P,Q1,2,B1*%
%TO.N,Board_12-Net-(J1-Pin_2)*%
X124450000Y-46742500D03*
%TO.P,Q1,3,C2*%
%TO.N,Board_12-Net-(J1-Pin_3)*%
X125400000Y-46742500D03*
%TO.P,Q1,4,E2*%
%TO.N,Board_12-Net-(J2-Pin_3)*%
X125400000Y-44042500D03*
%TO.P,Q1,5,B2*%
%TO.N,Board_12-Net-(J2-Pin_2)*%
X124450000Y-44042500D03*
%TO.P,Q1,6,C1*%
%TO.N,Board_12-Net-(J2-Pin_1)*%
X123500000Y-44042500D03*
%TD*%
%TO.P,Q1,1,E1*%
%TO.N,Board_34-Net-(J1-Pin_1)*%
X142740000Y-71366500D03*
%TO.P,Q1,2,B1*%
%TO.N,Board_34-Net-(J1-Pin_2)*%
X143690000Y-71366500D03*
%TO.P,Q1,3,C2*%
%TO.N,Board_34-Net-(J1-Pin_3)*%
X144640000Y-71366500D03*
%TO.P,Q1,4,E2*%
%TO.N,Board_34-Net-(J2-Pin_3)*%
X144640000Y-68666500D03*
%TO.P,Q1,5,B2*%
%TO.N,Board_34-Net-(J2-Pin_2)*%
X143690000Y-68666500D03*
%TO.P,Q1,6,C1*%
%TO.N,Board_34-Net-(J2-Pin_1)*%
X142740000Y-68666500D03*
%TD*%
D10*
%TO.P,J1,1,Pin_1*%
%TO.N,Board_54-Net-(J1-Pin_1)*%
X141150000Y-98471000D03*
D11*
%TO.P,J1,2,Pin_2*%
%TO.N,Board_54-Net-(J1-Pin_2)*%
X143690000Y-98471000D03*
%TO.P,J1,3,Pin_3*%
%TO.N,Board_54-Net-(J1-Pin_3)*%
X146230000Y-98471000D03*
%TD*%
D12*
%TO.P,Q1,1,E1*%
%TO.N,Board_30-Net-(J1-Pin_1)*%
X104260000Y-71366500D03*
%TO.P,Q1,2,B1*%
%TO.N,Board_30-Net-(J1-Pin_2)*%
X105210000Y-71366500D03*
%TO.P,Q1,3,C2*%
%TO.N,Board_30-Net-(J1-Pin_3)*%
X106160000Y-71366500D03*
%TO.P,Q1,4,E2*%
%TO.N,Board_30-Net-(J2-Pin_3)*%
X106160000Y-68666500D03*
%TO.P,Q1,5,B2*%
%TO.N,Board_30-Net-(J2-Pin_2)*%
X105210000Y-68666500D03*
%TO.P,Q1,6,C1*%
%TO.N,Board_30-Net-(J2-Pin_1)*%
X104260000Y-68666500D03*
%TD*%
D10*
%TO.P,J2,1,Pin_1*%
%TO.N,Board_54-Net-(J2-Pin_1)*%
X141150000Y-90851000D03*
D11*
%TO.P,J2,2,Pin_2*%
%TO.N,Board_54-Net-(J2-Pin_2)*%
X143690000Y-90851000D03*
%TO.P,J2,3,Pin_3*%
%TO.N,Board_54-Net-(J2-Pin_3)*%
X146230000Y-90851000D03*
%TD*%
D10*
%TO.P,J1,1,Pin_1*%
%TO.N,Board_36-Net-(J1-Pin_1)*%
X160390000Y-73847000D03*
D11*
%TO.P,J1,2,Pin_2*%
%TO.N,Board_36-Net-(J1-Pin_2)*%
X162930000Y-73847000D03*
%TO.P,J1,3,Pin_3*%
%TO.N,Board_36-Net-(J1-Pin_3)*%
X165470000Y-73847000D03*
%TD*%
D12*
%TO.P,Q1,1,E1*%
%TO.N,Board_59-Net-(J1-Pin_1)*%
X190840000Y-95990500D03*
%TO.P,Q1,2,B1*%
%TO.N,Board_59-Net-(J1-Pin_2)*%
X191790000Y-95990500D03*
%TO.P,Q1,3,C2*%
%TO.N,Board_59-Net-(J1-Pin_3)*%
X192740000Y-95990500D03*
%TO.P,Q1,4,E2*%
%TO.N,Board_59-Net-(J2-Pin_3)*%
X192740000Y-93290500D03*
%TO.P,Q1,5,B2*%
%TO.N,Board_59-Net-(J2-Pin_2)*%
X191790000Y-93290500D03*
%TO.P,Q1,6,C1*%
%TO.N,Board_59-Net-(J2-Pin_1)*%
X190840000Y-93290500D03*
%TD*%
D10*
%TO.P,J2,1,Pin_1*%
%TO.N,Board_55-Net-(J2-Pin_1)*%
X150770000Y-90851000D03*
D11*
%TO.P,J2,2,Pin_2*%
%TO.N,Board_55-Net-(J2-Pin_2)*%
X153310000Y-90851000D03*
%TO.P,J2,3,Pin_3*%
%TO.N,Board_55-Net-(J2-Pin_3)*%
X155850000Y-90851000D03*
%TD*%
D10*
%TO.P,J1,1,Pin_1*%
%TO.N,Board_17-Net-(J1-Pin_1)*%
X170010000Y-49223000D03*
D11*
%TO.P,J1,2,Pin_2*%
%TO.N,Board_17-Net-(J1-Pin_2)*%
X172550000Y-49223000D03*
%TO.P,J1,3,Pin_3*%
%TO.N,Board_17-Net-(J1-Pin_3)*%
X175090000Y-49223000D03*
%TD*%
D12*
%TO.P,Q1,1,E1*%
%TO.N,Board_36-Net-(J1-Pin_1)*%
X161980000Y-71366500D03*
%TO.P,Q1,2,B1*%
%TO.N,Board_36-Net-(J1-Pin_2)*%
X162930000Y-71366500D03*
%TO.P,Q1,3,C2*%
%TO.N,Board_36-Net-(J1-Pin_3)*%
X163880000Y-71366500D03*
%TO.P,Q1,4,E2*%
%TO.N,Board_36-Net-(J2-Pin_3)*%
X163880000Y-68666500D03*
%TO.P,Q1,5,B2*%
%TO.N,Board_36-Net-(J2-Pin_2)*%
X162930000Y-68666500D03*
%TO.P,Q1,6,C1*%
%TO.N,Board_36-Net-(J2-Pin_1)*%
X161980000Y-68666500D03*
%TD*%
D10*
%TO.P,J2,1,Pin_1*%
%TO.N,Board_25-Net-(J2-Pin_1)*%
X150770000Y-53915000D03*
D11*
%TO.P,J2,2,Pin_2*%
%TO.N,Board_25-Net-(J2-Pin_2)*%
X153310000Y-53915000D03*
%TO.P,J2,3,Pin_3*%
%TO.N,Board_25-Net-(J2-Pin_3)*%
X155850000Y-53915000D03*
%TD*%
D10*
%TO.P,J1,1,Pin_1*%
%TO.N,Board_16-Net-(J1-Pin_1)*%
X160390000Y-49223000D03*
D11*
%TO.P,J1,2,Pin_2*%
%TO.N,Board_16-Net-(J1-Pin_2)*%
X162930000Y-49223000D03*
%TO.P,J1,3,Pin_3*%
%TO.N,Board_16-Net-(J1-Pin_3)*%
X165470000Y-49223000D03*
%TD*%
D12*
%TO.P,Q1,1,E1*%
%TO.N,Board_43-Net-(J1-Pin_1)*%
X133120000Y-83678500D03*
%TO.P,Q1,2,B1*%
%TO.N,Board_43-Net-(J1-Pin_2)*%
X134070000Y-83678500D03*
%TO.P,Q1,3,C2*%
%TO.N,Board_43-Net-(J1-Pin_3)*%
X135020000Y-83678500D03*
%TO.P,Q1,4,E2*%
%TO.N,Board_43-Net-(J2-Pin_3)*%
X135020000Y-80978500D03*
%TO.P,Q1,5,B2*%
%TO.N,Board_43-Net-(J2-Pin_2)*%
X134070000Y-80978500D03*
%TO.P,Q1,6,C1*%
%TO.N,Board_43-Net-(J2-Pin_1)*%
X133120000Y-80978500D03*
%TD*%
D10*
%TO.P,J1,1,Pin_1*%
%TO.N,Board_37-Net-(J1-Pin_1)*%
X170010000Y-73847000D03*
D11*
%TO.P,J1,2,Pin_2*%
%TO.N,Board_37-Net-(J1-Pin_2)*%
X172550000Y-73847000D03*
%TO.P,J1,3,Pin_3*%
%TO.N,Board_37-Net-(J1-Pin_3)*%
X175090000Y-73847000D03*
%TD*%
D10*
%TO.P,J2,1,Pin_1*%
%TO.N,Board_21-Net-(J2-Pin_1)*%
X112290000Y-53915000D03*
D11*
%TO.P,J2,2,Pin_2*%
%TO.N,Board_21-Net-(J2-Pin_2)*%
X114830000Y-53915000D03*
%TO.P,J2,3,Pin_3*%
%TO.N,Board_21-Net-(J2-Pin_3)*%
X117370000Y-53915000D03*
%TD*%
D10*
%TO.P,J1,1,Pin_1*%
%TO.N,Board_15-Net-(J1-Pin_1)*%
X150770000Y-49223000D03*
D11*
%TO.P,J1,2,Pin_2*%
%TO.N,Board_15-Net-(J1-Pin_2)*%
X153310000Y-49223000D03*
%TO.P,J1,3,Pin_3*%
%TO.N,Board_15-Net-(J1-Pin_3)*%
X155850000Y-49223000D03*
%TD*%
D10*
%TO.P,J2,1,Pin_1*%
%TO.N,Board_31-Net-(J2-Pin_1)*%
X112290000Y-66227000D03*
D11*
%TO.P,J2,2,Pin_2*%
%TO.N,Board_31-Net-(J2-Pin_2)*%
X114830000Y-66227000D03*
%TO.P,J2,3,Pin_3*%
%TO.N,Board_31-Net-(J2-Pin_3)*%
X117370000Y-66227000D03*
%TD*%
D10*
%TO.P,J1,1,Pin_1*%
%TO.N,Board_40-Net-(J1-Pin_1)*%
X102670000Y-86159000D03*
D11*
%TO.P,J1,2,Pin_2*%
%TO.N,Board_40-Net-(J1-Pin_2)*%
X105210000Y-86159000D03*
%TO.P,J1,3,Pin_3*%
%TO.N,Board_40-Net-(J1-Pin_3)*%
X107750000Y-86159000D03*
%TD*%
D10*
%TO.P,J1,1,Pin_1*%
%TO.N,Board_56-Net-(J1-Pin_1)*%
X160390000Y-98471000D03*
D11*
%TO.P,J1,2,Pin_2*%
%TO.N,Board_56-Net-(J1-Pin_2)*%
X162930000Y-98471000D03*
%TO.P,J1,3,Pin_3*%
%TO.N,Board_56-Net-(J1-Pin_3)*%
X165470000Y-98471000D03*
%TD*%
D10*
%TO.P,J2,1,Pin_1*%
%TO.N,Board_28-Net-(J2-Pin_1)*%
X179630000Y-53915000D03*
D11*
%TO.P,J2,2,Pin_2*%
%TO.N,Board_28-Net-(J2-Pin_2)*%
X182170000Y-53915000D03*
%TO.P,J2,3,Pin_3*%
%TO.N,Board_28-Net-(J2-Pin_3)*%
X184710000Y-53915000D03*
%TD*%
D10*
%TO.P,J1,1,Pin_1*%
%TO.N,Board_20-Net-(J1-Pin_1)*%
X102670000Y-61535000D03*
D11*
%TO.P,J1,2,Pin_2*%
%TO.N,Board_20-Net-(J1-Pin_2)*%
X105210000Y-61535000D03*
%TO.P,J1,3,Pin_3*%
%TO.N,Board_20-Net-(J1-Pin_3)*%
X107750000Y-61535000D03*
%TD*%
D10*
%TO.P,J1,1,Pin_1*%
%TO.N,Board_59-Net-(J1-Pin_1)*%
X189250000Y-98471000D03*
D11*
%TO.P,J1,2,Pin_2*%
%TO.N,Board_59-Net-(J1-Pin_2)*%
X191790000Y-98471000D03*
%TO.P,J1,3,Pin_3*%
%TO.N,Board_59-Net-(J1-Pin_3)*%
X194330000Y-98471000D03*
%TD*%
D12*
%TO.P,Q1,1,E1*%
%TO.N,Board_45-Net-(J1-Pin_1)*%
X152360000Y-83678500D03*
%TO.P,Q1,2,B1*%
%TO.N,Board_45-Net-(J1-Pin_2)*%
X153310000Y-83678500D03*
%TO.P,Q1,3,C2*%
%TO.N,Board_45-Net-(J1-Pin_3)*%
X154260000Y-83678500D03*
%TO.P,Q1,4,E2*%
%TO.N,Board_45-Net-(J2-Pin_3)*%
X154260000Y-80978500D03*
%TO.P,Q1,5,B2*%
%TO.N,Board_45-Net-(J2-Pin_2)*%
X153310000Y-80978500D03*
%TO.P,Q1,6,C1*%
%TO.N,Board_45-Net-(J2-Pin_1)*%
X152360000Y-80978500D03*
%TD*%
%TO.P,Q1,1,E1*%
%TO.N,Board_27-Net-(J1-Pin_1)*%
X171600000Y-59054500D03*
%TO.P,Q1,2,B1*%
%TO.N,Board_27-Net-(J1-Pin_2)*%
X172550000Y-59054500D03*
%TO.P,Q1,3,C2*%
%TO.N,Board_27-Net-(J1-Pin_3)*%
X173500000Y-59054500D03*
%TO.P,Q1,4,E2*%
%TO.N,Board_27-Net-(J2-Pin_3)*%
X173500000Y-56354500D03*
%TO.P,Q1,5,B2*%
%TO.N,Board_27-Net-(J2-Pin_2)*%
X172550000Y-56354500D03*
%TO.P,Q1,6,C1*%
%TO.N,Board_27-Net-(J2-Pin_1)*%
X171600000Y-56354500D03*
%TD*%
D10*
%TO.P,J2,1,Pin_1*%
%TO.N,Board_44-Net-(J2-Pin_1)*%
X141150000Y-78539000D03*
D11*
%TO.P,J2,2,Pin_2*%
%TO.N,Board_44-Net-(J2-Pin_2)*%
X143690000Y-78539000D03*
%TO.P,J2,3,Pin_3*%
%TO.N,Board_44-Net-(J2-Pin_3)*%
X146230000Y-78539000D03*
%TD*%
D10*
%TO.P,J1,1,Pin_1*%
%TO.N,Board_21-Net-(J1-Pin_1)*%
X112290000Y-61535000D03*
D11*
%TO.P,J1,2,Pin_2*%
%TO.N,Board_21-Net-(J1-Pin_2)*%
X114830000Y-61535000D03*
%TO.P,J1,3,Pin_3*%
%TO.N,Board_21-Net-(J1-Pin_3)*%
X117370000Y-61535000D03*
%TD*%
D10*
%TO.P,J1,1,Pin_1*%
%TO.N,Board_19-Net-(J1-Pin_1)*%
X189250000Y-49223000D03*
D11*
%TO.P,J1,2,Pin_2*%
%TO.N,Board_19-Net-(J1-Pin_2)*%
X191790000Y-49223000D03*
%TO.P,J1,3,Pin_3*%
%TO.N,Board_19-Net-(J1-Pin_3)*%
X194330000Y-49223000D03*
%TD*%
D12*
%TO.P,Q1,1,E1*%
%TO.N,Board_55-Net-(J1-Pin_1)*%
X152360000Y-95990500D03*
%TO.P,Q1,2,B1*%
%TO.N,Board_55-Net-(J1-Pin_2)*%
X153310000Y-95990500D03*
%TO.P,Q1,3,C2*%
%TO.N,Board_55-Net-(J1-Pin_3)*%
X154260000Y-95990500D03*
%TO.P,Q1,4,E2*%
%TO.N,Board_55-Net-(J2-Pin_3)*%
X154260000Y-93290500D03*
%TO.P,Q1,5,B2*%
%TO.N,Board_55-Net-(J2-Pin_2)*%
X153310000Y-93290500D03*
%TO.P,Q1,6,C1*%
%TO.N,Board_55-Net-(J2-Pin_1)*%
X152360000Y-93290500D03*
%TD*%
D10*
%TO.P,J2,1,Pin_1*%
%TO.N,Board_7-Net-(J2-Pin_1)*%
X170010000Y-29291000D03*
D11*
%TO.P,J2,2,Pin_2*%
%TO.N,Board_7-Net-(J2-Pin_2)*%
X172550000Y-29291000D03*
%TO.P,J2,3,Pin_3*%
%TO.N,Board_7-Net-(J2-Pin_3)*%
X175090000Y-29291000D03*
%TD*%
D12*
%TO.P,Q1,1,E1*%
%TO.N,Board_14-Net-(J1-Pin_1)*%
X142740000Y-46742500D03*
%TO.P,Q1,2,B1*%
%TO.N,Board_14-Net-(J1-Pin_2)*%
X143690000Y-46742500D03*
%TO.P,Q1,3,C2*%
%TO.N,Board_14-Net-(J1-Pin_3)*%
X144640000Y-46742500D03*
%TO.P,Q1,4,E2*%
%TO.N,Board_14-Net-(J2-Pin_3)*%
X144640000Y-44042500D03*
%TO.P,Q1,5,B2*%
%TO.N,Board_14-Net-(J2-Pin_2)*%
X143690000Y-44042500D03*
%TO.P,Q1,6,C1*%
%TO.N,Board_14-Net-(J2-Pin_1)*%
X142740000Y-44042500D03*
%TD*%
%TO.P,Q1,1,E1*%
%TO.N,Board_38-Net-(J1-Pin_1)*%
X181220000Y-71366500D03*
%TO.P,Q1,2,B1*%
%TO.N,Board_38-Net-(J1-Pin_2)*%
X182170000Y-71366500D03*
%TO.P,Q1,3,C2*%
%TO.N,Board_38-Net-(J1-Pin_3)*%
X183120000Y-71366500D03*
%TO.P,Q1,4,E2*%
%TO.N,Board_38-Net-(J2-Pin_3)*%
X183120000Y-68666500D03*
%TO.P,Q1,5,B2*%
%TO.N,Board_38-Net-(J2-Pin_2)*%
X182170000Y-68666500D03*
%TO.P,Q1,6,C1*%
%TO.N,Board_38-Net-(J2-Pin_1)*%
X181220000Y-68666500D03*
%TD*%
D10*
%TO.P,J1,1,Pin_1*%
%TO.N,Board_18-Net-(J1-Pin_1)*%
X179630000Y-49223000D03*
D11*
%TO.P,J1,2,Pin_2*%
%TO.N,Board_18-Net-(J1-Pin_2)*%
X182170000Y-49223000D03*
%TO.P,J1,3,Pin_3*%
%TO.N,Board_18-Net-(J1-Pin_3)*%
X184710000Y-49223000D03*
%TD*%
D10*
%TO.P,J1,1,Pin_1*%
%TO.N,Board_38-Net-(J1-Pin_1)*%
X179630000Y-73847000D03*
D11*
%TO.P,J1,2,Pin_2*%
%TO.N,Board_38-Net-(J1-Pin_2)*%
X182170000Y-73847000D03*
%TO.P,J1,3,Pin_3*%
%TO.N,Board_38-Net-(J1-Pin_3)*%
X184710000Y-73847000D03*
%TD*%
D10*
%TO.P,J2,1,Pin_1*%
%TO.N,Board_38-Net-(J2-Pin_1)*%
X179630000Y-66227000D03*
D11*
%TO.P,J2,2,Pin_2*%
%TO.N,Board_38-Net-(J2-Pin_2)*%
X182170000Y-66227000D03*
%TO.P,J2,3,Pin_3*%
%TO.N,Board_38-Net-(J2-Pin_3)*%
X184710000Y-66227000D03*
%TD*%
D12*
%TO.P,Q1,1,E1*%
%TO.N,Board_23-Net-(J1-Pin_1)*%
X133120000Y-59054500D03*
%TO.P,Q1,2,B1*%
%TO.N,Board_23-Net-(J1-Pin_2)*%
X134070000Y-59054500D03*
%TO.P,Q1,3,C2*%
%TO.N,Board_23-Net-(J1-Pin_3)*%
X135020000Y-59054500D03*
%TO.P,Q1,4,E2*%
%TO.N,Board_23-Net-(J2-Pin_3)*%
X135020000Y-56354500D03*
%TO.P,Q1,5,B2*%
%TO.N,Board_23-Net-(J2-Pin_2)*%
X134070000Y-56354500D03*
%TO.P,Q1,6,C1*%
%TO.N,Board_23-Net-(J2-Pin_1)*%
X133120000Y-56354500D03*
%TD*%
%TO.P,Q1,1,E1*%
%TO.N,Board_54-Net-(J1-Pin_1)*%
X142740000Y-95990500D03*
%TO.P,Q1,2,B1*%
%TO.N,Board_54-Net-(J1-Pin_2)*%
X143690000Y-95990500D03*
%TO.P,Q1,3,C2*%
%TO.N,Board_54-Net-(J1-Pin_3)*%
X144640000Y-95990500D03*
%TO.P,Q1,4,E2*%
%TO.N,Board_54-Net-(J2-Pin_3)*%
X144640000Y-93290500D03*
%TO.P,Q1,5,B2*%
%TO.N,Board_54-Net-(J2-Pin_2)*%
X143690000Y-93290500D03*
%TO.P,Q1,6,C1*%
%TO.N,Board_54-Net-(J2-Pin_1)*%
X142740000Y-93290500D03*
%TD*%
%TO.P,Q1,1,E1*%
%TO.N,Board_42-Net-(J1-Pin_1)*%
X123500000Y-83678500D03*
%TO.P,Q1,2,B1*%
%TO.N,Board_42-Net-(J1-Pin_2)*%
X124450000Y-83678500D03*
%TO.P,Q1,3,C2*%
%TO.N,Board_42-Net-(J1-Pin_3)*%
X125400000Y-83678500D03*
%TO.P,Q1,4,E2*%
%TO.N,Board_42-Net-(J2-Pin_3)*%
X125400000Y-80978500D03*
%TO.P,Q1,5,B2*%
%TO.N,Board_42-Net-(J2-Pin_2)*%
X124450000Y-80978500D03*
%TO.P,Q1,6,C1*%
%TO.N,Board_42-Net-(J2-Pin_1)*%
X123500000Y-80978500D03*
%TD*%
D10*
%TO.P,J2,1,Pin_1*%
%TO.N,Board_32-Net-(J2-Pin_1)*%
X121910000Y-66227000D03*
D11*
%TO.P,J2,2,Pin_2*%
%TO.N,Board_32-Net-(J2-Pin_2)*%
X124450000Y-66227000D03*
%TO.P,J2,3,Pin_3*%
%TO.N,Board_32-Net-(J2-Pin_3)*%
X126990000Y-66227000D03*
%TD*%
D10*
%TO.P,J2,1,Pin_1*%
%TO.N,Board_34-Net-(J2-Pin_1)*%
X141150000Y-66227000D03*
D11*
%TO.P,J2,2,Pin_2*%
%TO.N,Board_34-Net-(J2-Pin_2)*%
X143690000Y-66227000D03*
%TO.P,J2,3,Pin_3*%
%TO.N,Board_34-Net-(J2-Pin_3)*%
X146230000Y-66227000D03*
%TD*%
D10*
%TO.P,J1,1,Pin_1*%
%TO.N,Board_31-Net-(J1-Pin_1)*%
X112290000Y-73847000D03*
D11*
%TO.P,J1,2,Pin_2*%
%TO.N,Board_31-Net-(J1-Pin_2)*%
X114830000Y-73847000D03*
%TO.P,J1,3,Pin_3*%
%TO.N,Board_31-Net-(J1-Pin_3)*%
X117370000Y-73847000D03*
%TD*%
D12*
%TO.P,Q1,1,E1*%
%TO.N,Board_53-Net-(J1-Pin_1)*%
X133120000Y-95990500D03*
%TO.P,Q1,2,B1*%
%TO.N,Board_53-Net-(J1-Pin_2)*%
X134070000Y-95990500D03*
%TO.P,Q1,3,C2*%
%TO.N,Board_53-Net-(J1-Pin_3)*%
X135020000Y-95990500D03*
%TO.P,Q1,4,E2*%
%TO.N,Board_53-Net-(J2-Pin_3)*%
X135020000Y-93290500D03*
%TO.P,Q1,5,B2*%
%TO.N,Board_53-Net-(J2-Pin_2)*%
X134070000Y-93290500D03*
%TO.P,Q1,6,C1*%
%TO.N,Board_53-Net-(J2-Pin_1)*%
X133120000Y-93290500D03*
%TD*%
D10*
%TO.P,J2,1,Pin_1*%
%TO.N,Board_10-Net-(J2-Pin_1)*%
X102670000Y-41603000D03*
D11*
%TO.P,J2,2,Pin_2*%
%TO.N,Board_10-Net-(J2-Pin_2)*%
X105210000Y-41603000D03*
%TO.P,J2,3,Pin_3*%
%TO.N,Board_10-Net-(J2-Pin_3)*%
X107750000Y-41603000D03*
%TD*%
D10*
%TO.P,J1,1,Pin_1*%
%TO.N,Board_50-Net-(J1-Pin_1)*%
X102670000Y-98471000D03*
D11*
%TO.P,J1,2,Pin_2*%
%TO.N,Board_50-Net-(J1-Pin_2)*%
X105210000Y-98471000D03*
%TO.P,J1,3,Pin_3*%
%TO.N,Board_50-Net-(J1-Pin_3)*%
X107750000Y-98471000D03*
%TD*%
D12*
%TO.P,Q1,1,E1*%
%TO.N,Board_39-Net-(J1-Pin_1)*%
X190840000Y-71366500D03*
%TO.P,Q1,2,B1*%
%TO.N,Board_39-Net-(J1-Pin_2)*%
X191790000Y-71366500D03*
%TO.P,Q1,3,C2*%
%TO.N,Board_39-Net-(J1-Pin_3)*%
X192740000Y-71366500D03*
%TO.P,Q1,4,E2*%
%TO.N,Board_39-Net-(J2-Pin_3)*%
X192740000Y-68666500D03*
%TO.P,Q1,5,B2*%
%TO.N,Board_39-Net-(J2-Pin_2)*%
X191790000Y-68666500D03*
%TO.P,Q1,6,C1*%
%TO.N,Board_39-Net-(J2-Pin_1)*%
X190840000Y-68666500D03*
%TD*%
%TO.P,Q1,1,E1*%
%TO.N,Board_22-Net-(J1-Pin_1)*%
X123500000Y-59054500D03*
%TO.P,Q1,2,B1*%
%TO.N,Board_22-Net-(J1-Pin_2)*%
X124450000Y-59054500D03*
%TO.P,Q1,3,C2*%
%TO.N,Board_22-Net-(J1-Pin_3)*%
X125400000Y-59054500D03*
%TO.P,Q1,4,E2*%
%TO.N,Board_22-Net-(J2-Pin_3)*%
X125400000Y-56354500D03*
%TO.P,Q1,5,B2*%
%TO.N,Board_22-Net-(J2-Pin_2)*%
X124450000Y-56354500D03*
%TO.P,Q1,6,C1*%
%TO.N,Board_22-Net-(J2-Pin_1)*%
X123500000Y-56354500D03*
%TD*%
D10*
%TO.P,J2,1,Pin_1*%
%TO.N,Board_27-Net-(J2-Pin_1)*%
X170010000Y-53915000D03*
D11*
%TO.P,J2,2,Pin_2*%
%TO.N,Board_27-Net-(J2-Pin_2)*%
X172550000Y-53915000D03*
%TO.P,J2,3,Pin_3*%
%TO.N,Board_27-Net-(J2-Pin_3)*%
X175090000Y-53915000D03*
%TD*%
D10*
%TO.P,J1,1,Pin_1*%
%TO.N,Board_53-Net-(J1-Pin_1)*%
X131530000Y-98471000D03*
D11*
%TO.P,J1,2,Pin_2*%
%TO.N,Board_53-Net-(J1-Pin_2)*%
X134070000Y-98471000D03*
%TO.P,J1,3,Pin_3*%
%TO.N,Board_53-Net-(J1-Pin_3)*%
X136610000Y-98471000D03*
%TD*%
D10*
%TO.P,J2,1,Pin_1*%
%TO.N,Board_3-Net-(J2-Pin_1)*%
X131530000Y-29291000D03*
D11*
%TO.P,J2,2,Pin_2*%
%TO.N,Board_3-Net-(J2-Pin_2)*%
X134070000Y-29291000D03*
%TO.P,J2,3,Pin_3*%
%TO.N,Board_3-Net-(J2-Pin_3)*%
X136610000Y-29291000D03*
%TD*%
D12*
%TO.P,Q1,1,E1*%
%TO.N,Board_7-Net-(J1-Pin_1)*%
X171600000Y-34430500D03*
%TO.P,Q1,2,B1*%
%TO.N,Board_7-Net-(J1-Pin_2)*%
X172550000Y-34430500D03*
%TO.P,Q1,3,C2*%
%TO.N,Board_7-Net-(J1-Pin_3)*%
X173500000Y-34430500D03*
%TO.P,Q1,4,E2*%
%TO.N,Board_7-Net-(J2-Pin_3)*%
X173500000Y-31730500D03*
%TO.P,Q1,5,B2*%
%TO.N,Board_7-Net-(J2-Pin_2)*%
X172550000Y-31730500D03*
%TO.P,Q1,6,C1*%
%TO.N,Board_7-Net-(J2-Pin_1)*%
X171600000Y-31730500D03*
%TD*%
%TO.P,Q1,1,E1*%
%TO.N,Board_2-Net-(J1-Pin_1)*%
X123500000Y-34430500D03*
%TO.P,Q1,2,B1*%
%TO.N,Board_2-Net-(J1-Pin_2)*%
X124450000Y-34430500D03*
%TO.P,Q1,3,C2*%
%TO.N,Board_2-Net-(J1-Pin_3)*%
X125400000Y-34430500D03*
%TO.P,Q1,4,E2*%
%TO.N,Board_2-Net-(J2-Pin_3)*%
X125400000Y-31730500D03*
%TO.P,Q1,5,B2*%
%TO.N,Board_2-Net-(J2-Pin_2)*%
X124450000Y-31730500D03*
%TO.P,Q1,6,C1*%
%TO.N,Board_2-Net-(J2-Pin_1)*%
X123500000Y-31730500D03*
%TD*%
%TO.P,Q1,1,E1*%
%TO.N,Board_47-Net-(J1-Pin_1)*%
X171600000Y-83678500D03*
%TO.P,Q1,2,B1*%
%TO.N,Board_47-Net-(J1-Pin_2)*%
X172550000Y-83678500D03*
%TO.P,Q1,3,C2*%
%TO.N,Board_47-Net-(J1-Pin_3)*%
X173500000Y-83678500D03*
%TO.P,Q1,4,E2*%
%TO.N,Board_47-Net-(J2-Pin_3)*%
X173500000Y-80978500D03*
%TO.P,Q1,5,B2*%
%TO.N,Board_47-Net-(J2-Pin_2)*%
X172550000Y-80978500D03*
%TO.P,Q1,6,C1*%
%TO.N,Board_47-Net-(J2-Pin_1)*%
X171600000Y-80978500D03*
%TD*%
D10*
%TO.P,J2,1,Pin_1*%
%TO.N,Board_33-Net-(J2-Pin_1)*%
X131530000Y-66227000D03*
D11*
%TO.P,J2,2,Pin_2*%
%TO.N,Board_33-Net-(J2-Pin_2)*%
X134070000Y-66227000D03*
%TO.P,J2,3,Pin_3*%
%TO.N,Board_33-Net-(J2-Pin_3)*%
X136610000Y-66227000D03*
%TD*%
D10*
%TO.P,J1,1,Pin_1*%
%TO.N,Board_52-Net-(J1-Pin_1)*%
X121910000Y-98471000D03*
D11*
%TO.P,J1,2,Pin_2*%
%TO.N,Board_52-Net-(J1-Pin_2)*%
X124450000Y-98471000D03*
%TO.P,J1,3,Pin_3*%
%TO.N,Board_52-Net-(J1-Pin_3)*%
X126990000Y-98471000D03*
%TD*%
D12*
%TO.P,Q1,1,E1*%
%TO.N,Board_9-Net-(J1-Pin_1)*%
X190840000Y-34430500D03*
%TO.P,Q1,2,B1*%
%TO.N,Board_9-Net-(J1-Pin_2)*%
X191790000Y-34430500D03*
%TO.P,Q1,3,C2*%
%TO.N,Board_9-Net-(J1-Pin_3)*%
X192740000Y-34430500D03*
%TO.P,Q1,4,E2*%
%TO.N,Board_9-Net-(J2-Pin_3)*%
X192740000Y-31730500D03*
%TO.P,Q1,5,B2*%
%TO.N,Board_9-Net-(J2-Pin_2)*%
X191790000Y-31730500D03*
%TO.P,Q1,6,C1*%
%TO.N,Board_9-Net-(J2-Pin_1)*%
X190840000Y-31730500D03*
%TD*%
D10*
%TO.P,J2,1,Pin_1*%
%TO.N,Board_52-Net-(J2-Pin_1)*%
X121910000Y-90851000D03*
D11*
%TO.P,J2,2,Pin_2*%
%TO.N,Board_52-Net-(J2-Pin_2)*%
X124450000Y-90851000D03*
%TO.P,J2,3,Pin_3*%
%TO.N,Board_52-Net-(J2-Pin_3)*%
X126990000Y-90851000D03*
%TD*%
D12*
%TO.P,Q1,1,E1*%
%TO.N,Board_19-Net-(J1-Pin_1)*%
X190840000Y-46742500D03*
%TO.P,Q1,2,B1*%
%TO.N,Board_19-Net-(J1-Pin_2)*%
X191790000Y-46742500D03*
%TO.P,Q1,3,C2*%
%TO.N,Board_19-Net-(J1-Pin_3)*%
X192740000Y-46742500D03*
%TO.P,Q1,4,E2*%
%TO.N,Board_19-Net-(J2-Pin_3)*%
X192740000Y-44042500D03*
%TO.P,Q1,5,B2*%
%TO.N,Board_19-Net-(J2-Pin_2)*%
X191790000Y-44042500D03*
%TO.P,Q1,6,C1*%
%TO.N,Board_19-Net-(J2-Pin_1)*%
X190840000Y-44042500D03*
%TD*%
D10*
%TO.P,J2,1,Pin_1*%
%TO.N,Board_30-Net-(J2-Pin_1)*%
X102670000Y-66227000D03*
D11*
%TO.P,J2,2,Pin_2*%
%TO.N,Board_30-Net-(J2-Pin_2)*%
X105210000Y-66227000D03*
%TO.P,J2,3,Pin_3*%
%TO.N,Board_30-Net-(J2-Pin_3)*%
X107750000Y-66227000D03*
%TD*%
D12*
%TO.P,Q1,1,E1*%
%TO.N,Board_31-Net-(J1-Pin_1)*%
X113880000Y-71366500D03*
%TO.P,Q1,2,B1*%
%TO.N,Board_31-Net-(J1-Pin_2)*%
X114830000Y-71366500D03*
%TO.P,Q1,3,C2*%
%TO.N,Board_31-Net-(J1-Pin_3)*%
X115780000Y-71366500D03*
%TO.P,Q1,4,E2*%
%TO.N,Board_31-Net-(J2-Pin_3)*%
X115780000Y-68666500D03*
%TO.P,Q1,5,B2*%
%TO.N,Board_31-Net-(J2-Pin_2)*%
X114830000Y-68666500D03*
%TO.P,Q1,6,C1*%
%TO.N,Board_31-Net-(J2-Pin_1)*%
X113880000Y-68666500D03*
%TD*%
D10*
%TO.P,J1,1,Pin_1*%
%TO.N,Board_13-Net-(J1-Pin_1)*%
X131530000Y-49223000D03*
D11*
%TO.P,J1,2,Pin_2*%
%TO.N,Board_13-Net-(J1-Pin_2)*%
X134070000Y-49223000D03*
%TO.P,J1,3,Pin_3*%
%TO.N,Board_13-Net-(J1-Pin_3)*%
X136610000Y-49223000D03*
%TD*%
D12*
%TO.P,Q1,1,E1*%
%TO.N,Board_26-Net-(J1-Pin_1)*%
X161980000Y-59054500D03*
%TO.P,Q1,2,B1*%
%TO.N,Board_26-Net-(J1-Pin_2)*%
X162930000Y-59054500D03*
%TO.P,Q1,3,C2*%
%TO.N,Board_26-Net-(J1-Pin_3)*%
X163880000Y-59054500D03*
%TO.P,Q1,4,E2*%
%TO.N,Board_26-Net-(J2-Pin_3)*%
X163880000Y-56354500D03*
%TO.P,Q1,5,B2*%
%TO.N,Board_26-Net-(J2-Pin_2)*%
X162930000Y-56354500D03*
%TO.P,Q1,6,C1*%
%TO.N,Board_26-Net-(J2-Pin_1)*%
X161980000Y-56354500D03*
%TD*%
D10*
%TO.P,J2,1,Pin_1*%
%TO.N,Board_51-Net-(J2-Pin_1)*%
X112290000Y-90851000D03*
D11*
%TO.P,J2,2,Pin_2*%
%TO.N,Board_51-Net-(J2-Pin_2)*%
X114830000Y-90851000D03*
%TO.P,J2,3,Pin_3*%
%TO.N,Board_51-Net-(J2-Pin_3)*%
X117370000Y-90851000D03*
%TD*%
D10*
%TO.P,J2,1,Pin_1*%
%TO.N,Board_58-Net-(J2-Pin_1)*%
X179630000Y-90851000D03*
D11*
%TO.P,J2,2,Pin_2*%
%TO.N,Board_58-Net-(J2-Pin_2)*%
X182170000Y-90851000D03*
%TO.P,J2,3,Pin_3*%
%TO.N,Board_58-Net-(J2-Pin_3)*%
X184710000Y-90851000D03*
%TD*%
D12*
%TO.P,Q1,1,E1*%
%TO.N,Board_6-Net-(J1-Pin_1)*%
X161980000Y-34430500D03*
%TO.P,Q1,2,B1*%
%TO.N,Board_6-Net-(J1-Pin_2)*%
X162930000Y-34430500D03*
%TO.P,Q1,3,C2*%
%TO.N,Board_6-Net-(J1-Pin_3)*%
X163880000Y-34430500D03*
%TO.P,Q1,4,E2*%
%TO.N,Board_6-Net-(J2-Pin_3)*%
X163880000Y-31730500D03*
%TO.P,Q1,5,B2*%
%TO.N,Board_6-Net-(J2-Pin_2)*%
X162930000Y-31730500D03*
%TO.P,Q1,6,C1*%
%TO.N,Board_6-Net-(J2-Pin_1)*%
X161980000Y-31730500D03*
%TD*%
D10*
%TO.P,J2,1,Pin_1*%
%TO.N,Board_53-Net-(J2-Pin_1)*%
X131530000Y-90851000D03*
D11*
%TO.P,J2,2,Pin_2*%
%TO.N,Board_53-Net-(J2-Pin_2)*%
X134070000Y-90851000D03*
%TO.P,J2,3,Pin_3*%
%TO.N,Board_53-Net-(J2-Pin_3)*%
X136610000Y-90851000D03*
%TD*%
D10*
%TO.P,J1,1,Pin_1*%
%TO.N,Board_30-Net-(J1-Pin_1)*%
X102670000Y-73847000D03*
D11*
%TO.P,J1,2,Pin_2*%
%TO.N,Board_30-Net-(J1-Pin_2)*%
X105210000Y-73847000D03*
%TO.P,J1,3,Pin_3*%
%TO.N,Board_30-Net-(J1-Pin_3)*%
X107750000Y-73847000D03*
%TD*%
D10*
%TO.P,J1,1,Pin_1*%
%TO.N,Board_22-Net-(J1-Pin_1)*%
X121910000Y-61535000D03*
D11*
%TO.P,J1,2,Pin_2*%
%TO.N,Board_22-Net-(J1-Pin_2)*%
X124450000Y-61535000D03*
%TO.P,J1,3,Pin_3*%
%TO.N,Board_22-Net-(J1-Pin_3)*%
X126990000Y-61535000D03*
%TD*%
D12*
%TO.P,Q1,1,E1*%
%TO.N,Board_8-Net-(J1-Pin_1)*%
X181220000Y-34430500D03*
%TO.P,Q1,2,B1*%
%TO.N,Board_8-Net-(J1-Pin_2)*%
X182170000Y-34430500D03*
%TO.P,Q1,3,C2*%
%TO.N,Board_8-Net-(J1-Pin_3)*%
X183120000Y-34430500D03*
%TO.P,Q1,4,E2*%
%TO.N,Board_8-Net-(J2-Pin_3)*%
X183120000Y-31730500D03*
%TO.P,Q1,5,B2*%
%TO.N,Board_8-Net-(J2-Pin_2)*%
X182170000Y-31730500D03*
%TO.P,Q1,6,C1*%
%TO.N,Board_8-Net-(J2-Pin_1)*%
X181220000Y-31730500D03*
%TD*%
D10*
%TO.P,J1,1,Pin_1*%
%TO.N,Board_57-Net-(J1-Pin_1)*%
X170010000Y-98471000D03*
D11*
%TO.P,J1,2,Pin_2*%
%TO.N,Board_57-Net-(J1-Pin_2)*%
X172550000Y-98471000D03*
%TO.P,J1,3,Pin_3*%
%TO.N,Board_57-Net-(J1-Pin_3)*%
X175090000Y-98471000D03*
%TD*%
D12*
%TO.P,Q1,1,E1*%
%TO.N,Board_48-Net-(J1-Pin_1)*%
X181220000Y-83678500D03*
%TO.P,Q1,2,B1*%
%TO.N,Board_48-Net-(J1-Pin_2)*%
X182170000Y-83678500D03*
%TO.P,Q1,3,C2*%
%TO.N,Board_48-Net-(J1-Pin_3)*%
X183120000Y-83678500D03*
%TO.P,Q1,4,E2*%
%TO.N,Board_48-Net-(J2-Pin_3)*%
X183120000Y-80978500D03*
%TO.P,Q1,5,B2*%
%TO.N,Board_48-Net-(J2-Pin_2)*%
X182170000Y-80978500D03*
%TO.P,Q1,6,C1*%
%TO.N,Board_48-Net-(J2-Pin_1)*%
X181220000Y-80978500D03*
%TD*%
D10*
%TO.P,J2,1,Pin_1*%
%TO.N,Board_14-Net-(J2-Pin_1)*%
X141150000Y-41603000D03*
D11*
%TO.P,J2,2,Pin_2*%
%TO.N,Board_14-Net-(J2-Pin_2)*%
X143690000Y-41603000D03*
%TO.P,J2,3,Pin_3*%
%TO.N,Board_14-Net-(J2-Pin_3)*%
X146230000Y-41603000D03*
%TD*%
D10*
%TO.P,J2,1,Pin_1*%
%TO.N,Board_26-Net-(J2-Pin_1)*%
X160390000Y-53915000D03*
D11*
%TO.P,J2,2,Pin_2*%
%TO.N,Board_26-Net-(J2-Pin_2)*%
X162930000Y-53915000D03*
%TO.P,J2,3,Pin_3*%
%TO.N,Board_26-Net-(J2-Pin_3)*%
X165470000Y-53915000D03*
%TD*%
D10*
%TO.P,J2,1,Pin_1*%
%TO.N,Board_0-Net-(J2-Pin_1)*%
X102670000Y-29291000D03*
D11*
%TO.P,J2,2,Pin_2*%
%TO.N,Board_0-Net-(J2-Pin_2)*%
X105210000Y-29291000D03*
%TO.P,J2,3,Pin_3*%
%TO.N,Board_0-Net-(J2-Pin_3)*%
X107750000Y-29291000D03*
%TD*%
D12*
%TO.P,Q1,1,E1*%
%TO.N,Board_21-Net-(J1-Pin_1)*%
X113880000Y-59054500D03*
%TO.P,Q1,2,B1*%
%TO.N,Board_21-Net-(J1-Pin_2)*%
X114830000Y-59054500D03*
%TO.P,Q1,3,C2*%
%TO.N,Board_21-Net-(J1-Pin_3)*%
X115780000Y-59054500D03*
%TO.P,Q1,4,E2*%
%TO.N,Board_21-Net-(J2-Pin_3)*%
X115780000Y-56354500D03*
%TO.P,Q1,5,B2*%
%TO.N,Board_21-Net-(J2-Pin_2)*%
X114830000Y-56354500D03*
%TO.P,Q1,6,C1*%
%TO.N,Board_21-Net-(J2-Pin_1)*%
X113880000Y-56354500D03*
%TD*%
D10*
%TO.P,J2,1,Pin_1*%
%TO.N,Board_20-Net-(J2-Pin_1)*%
X102670000Y-53915000D03*
D11*
%TO.P,J2,2,Pin_2*%
%TO.N,Board_20-Net-(J2-Pin_2)*%
X105210000Y-53915000D03*
%TO.P,J2,3,Pin_3*%
%TO.N,Board_20-Net-(J2-Pin_3)*%
X107750000Y-53915000D03*
%TD*%
D10*
%TO.P,J1,1,Pin_1*%
%TO.N,Board_46-Net-(J1-Pin_1)*%
X160390000Y-86159000D03*
D11*
%TO.P,J1,2,Pin_2*%
%TO.N,Board_46-Net-(J1-Pin_2)*%
X162930000Y-86159000D03*
%TO.P,J1,3,Pin_3*%
%TO.N,Board_46-Net-(J1-Pin_3)*%
X165470000Y-86159000D03*
%TD*%
D13*
%TO.N,Board_0-Net-(J1-Pin_1)*%
X103479000Y-34430500D02*
X102670000Y-35239500D01*
X104260000Y-34430500D02*
X103479000Y-34430500D01*
X102670000Y-35239500D02*
X102670000Y-36911000D01*
%TO.N,Board_0-Net-(J1-Pin_2)*%
X105210000Y-34430500D02*
X105210000Y-36911000D01*
%TO.N,Board_0-Net-(J1-Pin_3)*%
X106160000Y-34430500D02*
X106941000Y-34430500D01*
X106941000Y-34430500D02*
X107750000Y-35239500D01*
X107750000Y-35239500D02*
X107750000Y-36911000D01*
%TO.N,Board_0-Net-(J2-Pin_1)*%
X103559000Y-31730500D02*
X104260000Y-31730500D01*
X102670000Y-29291000D02*
X102670000Y-30841500D01*
X102670000Y-30841500D02*
X103559000Y-31730500D01*
%TO.N,Board_0-Net-(J2-Pin_2)*%
X105210000Y-31730500D02*
X105210000Y-29291000D01*
%TO.N,Board_0-Net-(J2-Pin_3)*%
X107068000Y-31730500D02*
X107750000Y-31048500D01*
X107750000Y-31048500D02*
X107750000Y-29291000D01*
X106160000Y-31730500D02*
X107068000Y-31730500D01*
%TO.N,Board_1-Net-(J1-Pin_1)*%
X113099000Y-34430500D02*
X112290000Y-35239500D01*
X113880000Y-34430500D02*
X113099000Y-34430500D01*
X112290000Y-35239500D02*
X112290000Y-36911000D01*
%TO.N,Board_1-Net-(J1-Pin_2)*%
X114830000Y-34430500D02*
X114830000Y-36911000D01*
%TO.N,Board_1-Net-(J1-Pin_3)*%
X117370000Y-35239500D02*
X117370000Y-36911000D01*
X115780000Y-34430500D02*
X116561000Y-34430500D01*
X116561000Y-34430500D02*
X117370000Y-35239500D01*
%TO.N,Board_1-Net-(J2-Pin_1)*%
X113179000Y-31730500D02*
X113880000Y-31730500D01*
X112290000Y-30841500D02*
X113179000Y-31730500D01*
X112290000Y-29291000D02*
X112290000Y-30841500D01*
%TO.N,Board_1-Net-(J2-Pin_2)*%
X114830000Y-31730500D02*
X114830000Y-29291000D01*
%TO.N,Board_1-Net-(J2-Pin_3)*%
X115780000Y-31730500D02*
X116688000Y-31730500D01*
X117370000Y-31048500D02*
X117370000Y-29291000D01*
X116688000Y-31730500D02*
X117370000Y-31048500D01*
%TO.N,Board_2-Net-(J1-Pin_1)*%
X123500000Y-34430500D02*
X122719000Y-34430500D01*
X121910000Y-35239500D02*
X121910000Y-36911000D01*
X122719000Y-34430500D02*
X121910000Y-35239500D01*
%TO.N,Board_2-Net-(J1-Pin_2)*%
X124450000Y-34430500D02*
X124450000Y-36911000D01*
%TO.N,Board_2-Net-(J1-Pin_3)*%
X125400000Y-34430500D02*
X126181000Y-34430500D01*
X126181000Y-34430500D02*
X126990000Y-35239500D01*
X126990000Y-35239500D02*
X126990000Y-36911000D01*
%TO.N,Board_2-Net-(J2-Pin_1)*%
X121910000Y-30841500D02*
X122799000Y-31730500D01*
X122799000Y-31730500D02*
X123500000Y-31730500D01*
X121910000Y-29291000D02*
X121910000Y-30841500D01*
%TO.N,Board_2-Net-(J2-Pin_2)*%
X124450000Y-31730500D02*
X124450000Y-29291000D01*
%TO.N,Board_2-Net-(J2-Pin_3)*%
X126308000Y-31730500D02*
X126990000Y-31048500D01*
X126990000Y-31048500D02*
X126990000Y-29291000D01*
X125400000Y-31730500D02*
X126308000Y-31730500D01*
%TO.N,Board_3-Net-(J1-Pin_1)*%
X131530000Y-35239500D02*
X131530000Y-36911000D01*
X133120000Y-34430500D02*
X132339000Y-34430500D01*
X132339000Y-34430500D02*
X131530000Y-35239500D01*
%TO.N,Board_3-Net-(J1-Pin_2)*%
X134070000Y-34430500D02*
X134070000Y-36911000D01*
%TO.N,Board_3-Net-(J1-Pin_3)*%
X136610000Y-35239500D02*
X136610000Y-36911000D01*
X135020000Y-34430500D02*
X135801000Y-34430500D01*
X135801000Y-34430500D02*
X136610000Y-35239500D01*
%TO.N,Board_3-Net-(J2-Pin_1)*%
X131530000Y-30841500D02*
X132419000Y-31730500D01*
X131530000Y-29291000D02*
X131530000Y-30841500D01*
X132419000Y-31730500D02*
X133120000Y-31730500D01*
%TO.N,Board_3-Net-(J2-Pin_2)*%
X134070000Y-31730500D02*
X134070000Y-29291000D01*
%TO.N,Board_3-Net-(J2-Pin_3)*%
X135020000Y-31730500D02*
X135928000Y-31730500D01*
X135928000Y-31730500D02*
X136610000Y-31048500D01*
X136610000Y-31048500D02*
X136610000Y-29291000D01*
%TO.N,Board_4-Net-(J1-Pin_1)*%
X141959000Y-34430500D02*
X141150000Y-35239500D01*
X141150000Y-35239500D02*
X141150000Y-36911000D01*
X142740000Y-34430500D02*
X141959000Y-34430500D01*
%TO.N,Board_4-Net-(J1-Pin_2)*%
X143690000Y-34430500D02*
X143690000Y-36911000D01*
%TO.N,Board_4-Net-(J1-Pin_3)*%
X145421000Y-34430500D02*
X146230000Y-35239500D01*
X144640000Y-34430500D02*
X145421000Y-34430500D01*
X146230000Y-35239500D02*
X146230000Y-36911000D01*
%TO.N,Board_4-Net-(J2-Pin_1)*%
X141150000Y-30841500D02*
X142039000Y-31730500D01*
X141150000Y-29291000D02*
X141150000Y-30841500D01*
X142039000Y-31730500D02*
X142740000Y-31730500D01*
%TO.N,Board_4-Net-(J2-Pin_2)*%
X143690000Y-31730500D02*
X143690000Y-29291000D01*
%TO.N,Board_4-Net-(J2-Pin_3)*%
X146230000Y-31048500D02*
X146230000Y-29291000D01*
X145548000Y-31730500D02*
X146230000Y-31048500D01*
X144640000Y-31730500D02*
X145548000Y-31730500D01*
%TO.N,Board_5-Net-(J1-Pin_1)*%
X152360000Y-34430500D02*
X151579000Y-34430500D01*
X151579000Y-34430500D02*
X150770000Y-35239500D01*
X150770000Y-35239500D02*
X150770000Y-36911000D01*
%TO.N,Board_5-Net-(J1-Pin_2)*%
X153310000Y-34430500D02*
X153310000Y-36911000D01*
%TO.N,Board_5-Net-(J1-Pin_3)*%
X155041000Y-34430500D02*
X155850000Y-35239500D01*
X154260000Y-34430500D02*
X155041000Y-34430500D01*
X155850000Y-35239500D02*
X155850000Y-36911000D01*
%TO.N,Board_5-Net-(J2-Pin_1)*%
X150770000Y-29291000D02*
X150770000Y-30841500D01*
X150770000Y-30841500D02*
X151659000Y-31730500D01*
X151659000Y-31730500D02*
X152360000Y-31730500D01*
%TO.N,Board_5-Net-(J2-Pin_2)*%
X153310000Y-31730500D02*
X153310000Y-29291000D01*
%TO.N,Board_5-Net-(J2-Pin_3)*%
X155168000Y-31730500D02*
X155850000Y-31048500D01*
X155850000Y-31048500D02*
X155850000Y-29291000D01*
X154260000Y-31730500D02*
X155168000Y-31730500D01*
%TO.N,Board_6-Net-(J1-Pin_1)*%
X160390000Y-35239500D02*
X160390000Y-36911000D01*
X161199000Y-34430500D02*
X160390000Y-35239500D01*
X161980000Y-34430500D02*
X161199000Y-34430500D01*
%TO.N,Board_6-Net-(J1-Pin_2)*%
X162930000Y-34430500D02*
X162930000Y-36911000D01*
%TO.N,Board_6-Net-(J1-Pin_3)*%
X164661000Y-34430500D02*
X165470000Y-35239500D01*
X163880000Y-34430500D02*
X164661000Y-34430500D01*
X165470000Y-35239500D02*
X165470000Y-36911000D01*
%TO.N,Board_6-Net-(J2-Pin_1)*%
X161279000Y-31730500D02*
X161980000Y-31730500D01*
X160390000Y-30841500D02*
X161279000Y-31730500D01*
X160390000Y-29291000D02*
X160390000Y-30841500D01*
%TO.N,Board_6-Net-(J2-Pin_2)*%
X162930000Y-31730500D02*
X162930000Y-29291000D01*
%TO.N,Board_6-Net-(J2-Pin_3)*%
X163880000Y-31730500D02*
X164788000Y-31730500D01*
X165470000Y-31048500D02*
X165470000Y-29291000D01*
X164788000Y-31730500D02*
X165470000Y-31048500D01*
%TO.N,Board_7-Net-(J1-Pin_1)*%
X171600000Y-34430500D02*
X170819000Y-34430500D01*
X170819000Y-34430500D02*
X170010000Y-35239500D01*
X170010000Y-35239500D02*
X170010000Y-36911000D01*
%TO.N,Board_7-Net-(J1-Pin_2)*%
X172550000Y-34430500D02*
X172550000Y-36911000D01*
%TO.N,Board_7-Net-(J1-Pin_3)*%
X175090000Y-35239500D02*
X175090000Y-36911000D01*
X173500000Y-34430500D02*
X174281000Y-34430500D01*
X174281000Y-34430500D02*
X175090000Y-35239500D01*
%TO.N,Board_7-Net-(J2-Pin_1)*%
X170010000Y-30841500D02*
X170899000Y-31730500D01*
X170010000Y-29291000D02*
X170010000Y-30841500D01*
X170899000Y-31730500D02*
X171600000Y-31730500D01*
%TO.N,Board_7-Net-(J2-Pin_2)*%
X172550000Y-31730500D02*
X172550000Y-29291000D01*
%TO.N,Board_7-Net-(J2-Pin_3)*%
X173500000Y-31730500D02*
X174408000Y-31730500D01*
X174408000Y-31730500D02*
X175090000Y-31048500D01*
X175090000Y-31048500D02*
X175090000Y-29291000D01*
%TO.N,Board_8-Net-(J1-Pin_1)*%
X180439000Y-34430500D02*
X179630000Y-35239500D01*
X181220000Y-34430500D02*
X180439000Y-34430500D01*
X179630000Y-35239500D02*
X179630000Y-36911000D01*
%TO.N,Board_8-Net-(J1-Pin_2)*%
X182170000Y-34430500D02*
X182170000Y-36911000D01*
%TO.N,Board_8-Net-(J1-Pin_3)*%
X184710000Y-35239500D02*
X184710000Y-36911000D01*
X183901000Y-34430500D02*
X184710000Y-35239500D01*
X183120000Y-34430500D02*
X183901000Y-34430500D01*
%TO.N,Board_8-Net-(J2-Pin_1)*%
X180519000Y-31730500D02*
X181220000Y-31730500D01*
X179630000Y-29291000D02*
X179630000Y-30841500D01*
X179630000Y-30841500D02*
X180519000Y-31730500D01*
%TO.N,Board_8-Net-(J2-Pin_2)*%
X182170000Y-31730500D02*
X182170000Y-29291000D01*
%TO.N,Board_8-Net-(J2-Pin_3)*%
X184710000Y-31048500D02*
X184710000Y-29291000D01*
X184028000Y-31730500D02*
X184710000Y-31048500D01*
X183120000Y-31730500D02*
X184028000Y-31730500D01*
%TO.N,Board_9-Net-(J1-Pin_1)*%
X189250000Y-35239500D02*
X189250000Y-36911000D01*
X190840000Y-34430500D02*
X190059000Y-34430500D01*
X190059000Y-34430500D02*
X189250000Y-35239500D01*
%TO.N,Board_9-Net-(J1-Pin_2)*%
X191790000Y-34430500D02*
X191790000Y-36911000D01*
%TO.N,Board_9-Net-(J1-Pin_3)*%
X192740000Y-34430500D02*
X193521000Y-34430500D01*
X194330000Y-35239500D02*
X194330000Y-36911000D01*
X193521000Y-34430500D02*
X194330000Y-35239500D01*
%TO.N,Board_9-Net-(J2-Pin_1)*%
X189250000Y-29291000D02*
X189250000Y-30841500D01*
X189250000Y-30841500D02*
X190139000Y-31730500D01*
X190139000Y-31730500D02*
X190840000Y-31730500D01*
%TO.N,Board_9-Net-(J2-Pin_2)*%
X191790000Y-31730500D02*
X191790000Y-29291000D01*
%TO.N,Board_9-Net-(J2-Pin_3)*%
X192740000Y-31730500D02*
X193648000Y-31730500D01*
X193648000Y-31730500D02*
X194330000Y-31048500D01*
X194330000Y-31048500D02*
X194330000Y-29291000D01*
%TO.N,Board_10-Net-(J1-Pin_1)*%
X104260000Y-46742500D02*
X103479000Y-46742500D01*
X103479000Y-46742500D02*
X102670000Y-47551500D01*
X102670000Y-47551500D02*
X102670000Y-49223000D01*
%TO.N,Board_10-Net-(J1-Pin_2)*%
X105210000Y-46742500D02*
X105210000Y-49223000D01*
%TO.N,Board_10-Net-(J1-Pin_3)*%
X106941000Y-46742500D02*
X107750000Y-47551500D01*
X107750000Y-47551500D02*
X107750000Y-49223000D01*
X106160000Y-46742500D02*
X106941000Y-46742500D01*
%TO.N,Board_10-Net-(J2-Pin_1)*%
X102670000Y-41603000D02*
X102670000Y-43153500D01*
X103559000Y-44042500D02*
X104260000Y-44042500D01*
X102670000Y-43153500D02*
X103559000Y-44042500D01*
%TO.N,Board_10-Net-(J2-Pin_2)*%
X105210000Y-44042500D02*
X105210000Y-41603000D01*
%TO.N,Board_10-Net-(J2-Pin_3)*%
X107068000Y-44042500D02*
X107750000Y-43360500D01*
X106160000Y-44042500D02*
X107068000Y-44042500D01*
X107750000Y-43360500D02*
X107750000Y-41603000D01*
%TO.N,Board_11-Net-(J1-Pin_1)*%
X113880000Y-46742500D02*
X113099000Y-46742500D01*
X112290000Y-47551500D02*
X112290000Y-49223000D01*
X113099000Y-46742500D02*
X112290000Y-47551500D01*
%TO.N,Board_11-Net-(J1-Pin_2)*%
X114830000Y-46742500D02*
X114830000Y-49223000D01*
%TO.N,Board_11-Net-(J1-Pin_3)*%
X115780000Y-46742500D02*
X116561000Y-46742500D01*
X117370000Y-47551500D02*
X117370000Y-49223000D01*
X116561000Y-46742500D02*
X117370000Y-47551500D01*
%TO.N,Board_11-Net-(J2-Pin_1)*%
X112290000Y-41603000D02*
X112290000Y-43153500D01*
X113179000Y-44042500D02*
X113880000Y-44042500D01*
X112290000Y-43153500D02*
X113179000Y-44042500D01*
%TO.N,Board_11-Net-(J2-Pin_2)*%
X114830000Y-44042500D02*
X114830000Y-41603000D01*
%TO.N,Board_11-Net-(J2-Pin_3)*%
X117370000Y-43360500D02*
X117370000Y-41603000D01*
X115780000Y-44042500D02*
X116688000Y-44042500D01*
X116688000Y-44042500D02*
X117370000Y-43360500D01*
%TO.N,Board_12-Net-(J1-Pin_1)*%
X121910000Y-47551500D02*
X121910000Y-49223000D01*
X123500000Y-46742500D02*
X122719000Y-46742500D01*
X122719000Y-46742500D02*
X121910000Y-47551500D01*
%TO.N,Board_12-Net-(J1-Pin_2)*%
X124450000Y-46742500D02*
X124450000Y-49223000D01*
%TO.N,Board_12-Net-(J1-Pin_3)*%
X126181000Y-46742500D02*
X126990000Y-47551500D01*
X126990000Y-47551500D02*
X126990000Y-49223000D01*
X125400000Y-46742500D02*
X126181000Y-46742500D01*
%TO.N,Board_12-Net-(J2-Pin_1)*%
X122799000Y-44042500D02*
X123500000Y-44042500D01*
X121910000Y-41603000D02*
X121910000Y-43153500D01*
X121910000Y-43153500D02*
X122799000Y-44042500D01*
%TO.N,Board_12-Net-(J2-Pin_2)*%
X124450000Y-44042500D02*
X124450000Y-41603000D01*
%TO.N,Board_12-Net-(J2-Pin_3)*%
X126308000Y-44042500D02*
X126990000Y-43360500D01*
X125400000Y-44042500D02*
X126308000Y-44042500D01*
X126990000Y-43360500D02*
X126990000Y-41603000D01*
%TO.N,Board_13-Net-(J1-Pin_1)*%
X133120000Y-46742500D02*
X132339000Y-46742500D01*
X132339000Y-46742500D02*
X131530000Y-47551500D01*
X131530000Y-47551500D02*
X131530000Y-49223000D01*
%TO.N,Board_13-Net-(J1-Pin_2)*%
X134070000Y-46742500D02*
X134070000Y-49223000D01*
%TO.N,Board_13-Net-(J1-Pin_3)*%
X136610000Y-47551500D02*
X136610000Y-49223000D01*
X135801000Y-46742500D02*
X136610000Y-47551500D01*
X135020000Y-46742500D02*
X135801000Y-46742500D01*
%TO.N,Board_13-Net-(J2-Pin_1)*%
X131530000Y-41603000D02*
X131530000Y-43153500D01*
X132419000Y-44042500D02*
X133120000Y-44042500D01*
X131530000Y-43153500D02*
X132419000Y-44042500D01*
%TO.N,Board_13-Net-(J2-Pin_2)*%
X134070000Y-44042500D02*
X134070000Y-41603000D01*
%TO.N,Board_13-Net-(J2-Pin_3)*%
X135928000Y-44042500D02*
X136610000Y-43360500D01*
X135020000Y-44042500D02*
X135928000Y-44042500D01*
X136610000Y-43360500D02*
X136610000Y-41603000D01*
%TO.N,Board_14-Net-(J1-Pin_1)*%
X141959000Y-46742500D02*
X141150000Y-47551500D01*
X141150000Y-47551500D02*
X141150000Y-49223000D01*
X142740000Y-46742500D02*
X141959000Y-46742500D01*
%TO.N,Board_14-Net-(J1-Pin_2)*%
X143690000Y-46742500D02*
X143690000Y-49223000D01*
%TO.N,Board_14-Net-(J1-Pin_3)*%
X144640000Y-46742500D02*
X145421000Y-46742500D01*
X145421000Y-46742500D02*
X146230000Y-47551500D01*
X146230000Y-47551500D02*
X146230000Y-49223000D01*
%TO.N,Board_14-Net-(J2-Pin_1)*%
X142039000Y-44042500D02*
X142740000Y-44042500D01*
X141150000Y-43153500D02*
X142039000Y-44042500D01*
X141150000Y-41603000D02*
X141150000Y-43153500D01*
%TO.N,Board_14-Net-(J2-Pin_2)*%
X143690000Y-44042500D02*
X143690000Y-41603000D01*
%TO.N,Board_14-Net-(J2-Pin_3)*%
X144640000Y-44042500D02*
X145548000Y-44042500D01*
X145548000Y-44042500D02*
X146230000Y-43360500D01*
X146230000Y-43360500D02*
X146230000Y-41603000D01*
%TO.N,Board_15-Net-(J1-Pin_1)*%
X151579000Y-46742500D02*
X150770000Y-47551500D01*
X150770000Y-47551500D02*
X150770000Y-49223000D01*
X152360000Y-46742500D02*
X151579000Y-46742500D01*
%TO.N,Board_15-Net-(J1-Pin_2)*%
X153310000Y-46742500D02*
X153310000Y-49223000D01*
%TO.N,Board_15-Net-(J1-Pin_3)*%
X155041000Y-46742500D02*
X155850000Y-47551500D01*
X155850000Y-47551500D02*
X155850000Y-49223000D01*
X154260000Y-46742500D02*
X155041000Y-46742500D01*
%TO.N,Board_15-Net-(J2-Pin_1)*%
X151659000Y-44042500D02*
X152360000Y-44042500D01*
X150770000Y-43153500D02*
X151659000Y-44042500D01*
X150770000Y-41603000D02*
X150770000Y-43153500D01*
%TO.N,Board_15-Net-(J2-Pin_2)*%
X153310000Y-44042500D02*
X153310000Y-41603000D01*
%TO.N,Board_15-Net-(J2-Pin_3)*%
X154260000Y-44042500D02*
X155168000Y-44042500D01*
X155850000Y-43360500D02*
X155850000Y-41603000D01*
X155168000Y-44042500D02*
X155850000Y-43360500D01*
%TO.N,Board_16-Net-(J1-Pin_1)*%
X160390000Y-47551500D02*
X160390000Y-49223000D01*
X161980000Y-46742500D02*
X161199000Y-46742500D01*
X161199000Y-46742500D02*
X160390000Y-47551500D01*
%TO.N,Board_16-Net-(J1-Pin_2)*%
X162930000Y-46742500D02*
X162930000Y-49223000D01*
%TO.N,Board_16-Net-(J1-Pin_3)*%
X165470000Y-47551500D02*
X165470000Y-49223000D01*
X164661000Y-46742500D02*
X165470000Y-47551500D01*
X163880000Y-46742500D02*
X164661000Y-46742500D01*
%TO.N,Board_16-Net-(J2-Pin_1)*%
X160390000Y-43153500D02*
X161279000Y-44042500D01*
X161279000Y-44042500D02*
X161980000Y-44042500D01*
X160390000Y-41603000D02*
X160390000Y-43153500D01*
%TO.N,Board_16-Net-(J2-Pin_2)*%
X162930000Y-44042500D02*
X162930000Y-41603000D01*
%TO.N,Board_16-Net-(J2-Pin_3)*%
X163880000Y-44042500D02*
X164788000Y-44042500D01*
X165470000Y-43360500D02*
X165470000Y-41603000D01*
X164788000Y-44042500D02*
X165470000Y-43360500D01*
%TO.N,Board_17-Net-(J1-Pin_1)*%
X171600000Y-46742500D02*
X170819000Y-46742500D01*
X170010000Y-47551500D02*
X170010000Y-49223000D01*
X170819000Y-46742500D02*
X170010000Y-47551500D01*
%TO.N,Board_17-Net-(J1-Pin_2)*%
X172550000Y-46742500D02*
X172550000Y-49223000D01*
%TO.N,Board_17-Net-(J1-Pin_3)*%
X174281000Y-46742500D02*
X175090000Y-47551500D01*
X175090000Y-47551500D02*
X175090000Y-49223000D01*
X173500000Y-46742500D02*
X174281000Y-46742500D01*
%TO.N,Board_17-Net-(J2-Pin_1)*%
X170010000Y-43153500D02*
X170899000Y-44042500D01*
X170010000Y-41603000D02*
X170010000Y-43153500D01*
X170899000Y-44042500D02*
X171600000Y-44042500D01*
%TO.N,Board_17-Net-(J2-Pin_2)*%
X172550000Y-44042500D02*
X172550000Y-41603000D01*
%TO.N,Board_17-Net-(J2-Pin_3)*%
X174408000Y-44042500D02*
X175090000Y-43360500D01*
X173500000Y-44042500D02*
X174408000Y-44042500D01*
X175090000Y-43360500D02*
X175090000Y-41603000D01*
%TO.N,Board_18-Net-(J1-Pin_1)*%
X180439000Y-46742500D02*
X179630000Y-47551500D01*
X181220000Y-46742500D02*
X180439000Y-46742500D01*
X179630000Y-47551500D02*
X179630000Y-49223000D01*
%TO.N,Board_18-Net-(J1-Pin_2)*%
X182170000Y-46742500D02*
X182170000Y-49223000D01*
%TO.N,Board_18-Net-(J1-Pin_3)*%
X183901000Y-46742500D02*
X184710000Y-47551500D01*
X184710000Y-47551500D02*
X184710000Y-49223000D01*
X183120000Y-46742500D02*
X183901000Y-46742500D01*
%TO.N,Board_18-Net-(J2-Pin_1)*%
X179630000Y-43153500D02*
X180519000Y-44042500D01*
X179630000Y-41603000D02*
X179630000Y-43153500D01*
X180519000Y-44042500D02*
X181220000Y-44042500D01*
%TO.N,Board_18-Net-(J2-Pin_2)*%
X182170000Y-44042500D02*
X182170000Y-41603000D01*
%TO.N,Board_18-Net-(J2-Pin_3)*%
X184028000Y-44042500D02*
X184710000Y-43360500D01*
X184710000Y-43360500D02*
X184710000Y-41603000D01*
X183120000Y-44042500D02*
X184028000Y-44042500D01*
%TO.N,Board_19-Net-(J1-Pin_1)*%
X190059000Y-46742500D02*
X189250000Y-47551500D01*
X190840000Y-46742500D02*
X190059000Y-46742500D01*
X189250000Y-47551500D02*
X189250000Y-49223000D01*
%TO.N,Board_19-Net-(J1-Pin_2)*%
X191790000Y-46742500D02*
X191790000Y-49223000D01*
%TO.N,Board_19-Net-(J1-Pin_3)*%
X194330000Y-47551500D02*
X194330000Y-49223000D01*
X192740000Y-46742500D02*
X193521000Y-46742500D01*
X193521000Y-46742500D02*
X194330000Y-47551500D01*
%TO.N,Board_19-Net-(J2-Pin_1)*%
X189250000Y-41603000D02*
X189250000Y-43153500D01*
X190139000Y-44042500D02*
X190840000Y-44042500D01*
X189250000Y-43153500D02*
X190139000Y-44042500D01*
%TO.N,Board_19-Net-(J2-Pin_2)*%
X191790000Y-44042500D02*
X191790000Y-41603000D01*
%TO.N,Board_19-Net-(J2-Pin_3)*%
X194330000Y-43360500D02*
X194330000Y-41603000D01*
X193648000Y-44042500D02*
X194330000Y-43360500D01*
X192740000Y-44042500D02*
X193648000Y-44042500D01*
%TO.N,Board_20-Net-(J1-Pin_1)*%
X102670000Y-59863500D02*
X102670000Y-61535000D01*
X103479000Y-59054500D02*
X102670000Y-59863500D01*
X104260000Y-59054500D02*
X103479000Y-59054500D01*
%TO.N,Board_20-Net-(J1-Pin_2)*%
X105210000Y-59054500D02*
X105210000Y-61535000D01*
%TO.N,Board_20-Net-(J1-Pin_3)*%
X106160000Y-59054500D02*
X106941000Y-59054500D01*
X107750000Y-59863500D02*
X107750000Y-61535000D01*
X106941000Y-59054500D02*
X107750000Y-59863500D01*
%TO.N,Board_20-Net-(J2-Pin_1)*%
X102670000Y-55465500D02*
X103559000Y-56354500D01*
X102670000Y-53915000D02*
X102670000Y-55465500D01*
X103559000Y-56354500D02*
X104260000Y-56354500D01*
%TO.N,Board_20-Net-(J2-Pin_2)*%
X105210000Y-56354500D02*
X105210000Y-53915000D01*
%TO.N,Board_20-Net-(J2-Pin_3)*%
X106160000Y-56354500D02*
X107068000Y-56354500D01*
X107068000Y-56354500D02*
X107750000Y-55672500D01*
X107750000Y-55672500D02*
X107750000Y-53915000D01*
%TO.N,Board_21-Net-(J1-Pin_1)*%
X113099000Y-59054500D02*
X112290000Y-59863500D01*
X112290000Y-59863500D02*
X112290000Y-61535000D01*
X113880000Y-59054500D02*
X113099000Y-59054500D01*
%TO.N,Board_21-Net-(J1-Pin_2)*%
X114830000Y-59054500D02*
X114830000Y-61535000D01*
%TO.N,Board_21-Net-(J1-Pin_3)*%
X115780000Y-59054500D02*
X116561000Y-59054500D01*
X117370000Y-59863500D02*
X117370000Y-61535000D01*
X116561000Y-59054500D02*
X117370000Y-59863500D01*
%TO.N,Board_21-Net-(J2-Pin_1)*%
X113179000Y-56354500D02*
X113880000Y-56354500D01*
X112290000Y-55465500D02*
X113179000Y-56354500D01*
X112290000Y-53915000D02*
X112290000Y-55465500D01*
%TO.N,Board_21-Net-(J2-Pin_2)*%
X114830000Y-56354500D02*
X114830000Y-53915000D01*
%TO.N,Board_21-Net-(J2-Pin_3)*%
X116688000Y-56354500D02*
X117370000Y-55672500D01*
X115780000Y-56354500D02*
X116688000Y-56354500D01*
X117370000Y-55672500D02*
X117370000Y-53915000D01*
%TO.N,Board_22-Net-(J1-Pin_1)*%
X121910000Y-59863500D02*
X121910000Y-61535000D01*
X122719000Y-59054500D02*
X121910000Y-59863500D01*
X123500000Y-59054500D02*
X122719000Y-59054500D01*
%TO.N,Board_22-Net-(J1-Pin_2)*%
X124450000Y-59054500D02*
X124450000Y-61535000D01*
%TO.N,Board_22-Net-(J1-Pin_3)*%
X126181000Y-59054500D02*
X126990000Y-59863500D01*
X125400000Y-59054500D02*
X126181000Y-59054500D01*
X126990000Y-59863500D02*
X126990000Y-61535000D01*
%TO.N,Board_22-Net-(J2-Pin_1)*%
X121910000Y-53915000D02*
X121910000Y-55465500D01*
X122799000Y-56354500D02*
X123500000Y-56354500D01*
X121910000Y-55465500D02*
X122799000Y-56354500D01*
%TO.N,Board_22-Net-(J2-Pin_2)*%
X124450000Y-56354500D02*
X124450000Y-53915000D01*
%TO.N,Board_22-Net-(J2-Pin_3)*%
X125400000Y-56354500D02*
X126308000Y-56354500D01*
X126990000Y-55672500D02*
X126990000Y-53915000D01*
X126308000Y-56354500D02*
X126990000Y-55672500D01*
%TO.N,Board_23-Net-(J1-Pin_1)*%
X131530000Y-59863500D02*
X131530000Y-61535000D01*
X132339000Y-59054500D02*
X131530000Y-59863500D01*
X133120000Y-59054500D02*
X132339000Y-59054500D01*
%TO.N,Board_23-Net-(J1-Pin_2)*%
X134070000Y-59054500D02*
X134070000Y-61535000D01*
%TO.N,Board_23-Net-(J1-Pin_3)*%
X136610000Y-59863500D02*
X136610000Y-61535000D01*
X135801000Y-59054500D02*
X136610000Y-59863500D01*
X135020000Y-59054500D02*
X135801000Y-59054500D01*
%TO.N,Board_23-Net-(J2-Pin_1)*%
X132419000Y-56354500D02*
X133120000Y-56354500D01*
X131530000Y-55465500D02*
X132419000Y-56354500D01*
X131530000Y-53915000D02*
X131530000Y-55465500D01*
%TO.N,Board_23-Net-(J2-Pin_2)*%
X134070000Y-56354500D02*
X134070000Y-53915000D01*
%TO.N,Board_23-Net-(J2-Pin_3)*%
X135928000Y-56354500D02*
X136610000Y-55672500D01*
X136610000Y-55672500D02*
X136610000Y-53915000D01*
X135020000Y-56354500D02*
X135928000Y-56354500D01*
%TO.N,Board_24-Net-(J1-Pin_1)*%
X141150000Y-59863500D02*
X141150000Y-61535000D01*
X141959000Y-59054500D02*
X141150000Y-59863500D01*
X142740000Y-59054500D02*
X141959000Y-59054500D01*
%TO.N,Board_24-Net-(J1-Pin_2)*%
X143690000Y-59054500D02*
X143690000Y-61535000D01*
%TO.N,Board_24-Net-(J1-Pin_3)*%
X146230000Y-59863500D02*
X146230000Y-61535000D01*
X145421000Y-59054500D02*
X146230000Y-59863500D01*
X144640000Y-59054500D02*
X145421000Y-59054500D01*
%TO.N,Board_24-Net-(J2-Pin_1)*%
X142039000Y-56354500D02*
X142740000Y-56354500D01*
X141150000Y-53915000D02*
X141150000Y-55465500D01*
X141150000Y-55465500D02*
X142039000Y-56354500D01*
%TO.N,Board_24-Net-(J2-Pin_2)*%
X143690000Y-56354500D02*
X143690000Y-53915000D01*
%TO.N,Board_24-Net-(J2-Pin_3)*%
X145548000Y-56354500D02*
X146230000Y-55672500D01*
X146230000Y-55672500D02*
X146230000Y-53915000D01*
X144640000Y-56354500D02*
X145548000Y-56354500D01*
%TO.N,Board_25-Net-(J1-Pin_1)*%
X152360000Y-59054500D02*
X151579000Y-59054500D01*
X151579000Y-59054500D02*
X150770000Y-59863500D01*
X150770000Y-59863500D02*
X150770000Y-61535000D01*
%TO.N,Board_25-Net-(J1-Pin_2)*%
X153310000Y-59054500D02*
X153310000Y-61535000D01*
%TO.N,Board_25-Net-(J1-Pin_3)*%
X155850000Y-59863500D02*
X155850000Y-61535000D01*
X154260000Y-59054500D02*
X155041000Y-59054500D01*
X155041000Y-59054500D02*
X155850000Y-59863500D01*
%TO.N,Board_25-Net-(J2-Pin_1)*%
X150770000Y-53915000D02*
X150770000Y-55465500D01*
X151659000Y-56354500D02*
X152360000Y-56354500D01*
X150770000Y-55465500D02*
X151659000Y-56354500D01*
%TO.N,Board_25-Net-(J2-Pin_2)*%
X153310000Y-56354500D02*
X153310000Y-53915000D01*
%TO.N,Board_25-Net-(J2-Pin_3)*%
X154260000Y-56354500D02*
X155168000Y-56354500D01*
X155168000Y-56354500D02*
X155850000Y-55672500D01*
X155850000Y-55672500D02*
X155850000Y-53915000D01*
%TO.N,Board_26-Net-(J1-Pin_1)*%
X161199000Y-59054500D02*
X160390000Y-59863500D01*
X161980000Y-59054500D02*
X161199000Y-59054500D01*
X160390000Y-59863500D02*
X160390000Y-61535000D01*
%TO.N,Board_26-Net-(J1-Pin_2)*%
X162930000Y-59054500D02*
X162930000Y-61535000D01*
%TO.N,Board_26-Net-(J1-Pin_3)*%
X163880000Y-59054500D02*
X164661000Y-59054500D01*
X164661000Y-59054500D02*
X165470000Y-59863500D01*
X165470000Y-59863500D02*
X165470000Y-61535000D01*
%TO.N,Board_26-Net-(J2-Pin_1)*%
X160390000Y-55465500D02*
X161279000Y-56354500D01*
X160390000Y-53915000D02*
X160390000Y-55465500D01*
X161279000Y-56354500D02*
X161980000Y-56354500D01*
%TO.N,Board_26-Net-(J2-Pin_2)*%
X162930000Y-56354500D02*
X162930000Y-53915000D01*
%TO.N,Board_26-Net-(J2-Pin_3)*%
X164788000Y-56354500D02*
X165470000Y-55672500D01*
X163880000Y-56354500D02*
X164788000Y-56354500D01*
X165470000Y-55672500D02*
X165470000Y-53915000D01*
%TO.N,Board_27-Net-(J1-Pin_1)*%
X171600000Y-59054500D02*
X170819000Y-59054500D01*
X170819000Y-59054500D02*
X170010000Y-59863500D01*
X170010000Y-59863500D02*
X170010000Y-61535000D01*
%TO.N,Board_27-Net-(J1-Pin_2)*%
X172550000Y-59054500D02*
X172550000Y-61535000D01*
%TO.N,Board_27-Net-(J1-Pin_3)*%
X174281000Y-59054500D02*
X175090000Y-59863500D01*
X173500000Y-59054500D02*
X174281000Y-59054500D01*
X175090000Y-59863500D02*
X175090000Y-61535000D01*
%TO.N,Board_27-Net-(J2-Pin_1)*%
X170010000Y-55465500D02*
X170899000Y-56354500D01*
X170899000Y-56354500D02*
X171600000Y-56354500D01*
X170010000Y-53915000D02*
X170010000Y-55465500D01*
%TO.N,Board_27-Net-(J2-Pin_2)*%
X172550000Y-56354500D02*
X172550000Y-53915000D01*
%TO.N,Board_27-Net-(J2-Pin_3)*%
X173500000Y-56354500D02*
X174408000Y-56354500D01*
X174408000Y-56354500D02*
X175090000Y-55672500D01*
X175090000Y-55672500D02*
X175090000Y-53915000D01*
%TO.N,Board_28-Net-(J1-Pin_1)*%
X179630000Y-59863500D02*
X179630000Y-61535000D01*
X181220000Y-59054500D02*
X180439000Y-59054500D01*
X180439000Y-59054500D02*
X179630000Y-59863500D01*
%TO.N,Board_28-Net-(J1-Pin_2)*%
X182170000Y-59054500D02*
X182170000Y-61535000D01*
%TO.N,Board_28-Net-(J1-Pin_3)*%
X183120000Y-59054500D02*
X183901000Y-59054500D01*
X184710000Y-59863500D02*
X184710000Y-61535000D01*
X183901000Y-59054500D02*
X184710000Y-59863500D01*
%TO.N,Board_28-Net-(J2-Pin_1)*%
X179630000Y-53915000D02*
X179630000Y-55465500D01*
X179630000Y-55465500D02*
X180519000Y-56354500D01*
X180519000Y-56354500D02*
X181220000Y-56354500D01*
%TO.N,Board_28-Net-(J2-Pin_2)*%
X182170000Y-56354500D02*
X182170000Y-53915000D01*
%TO.N,Board_28-Net-(J2-Pin_3)*%
X184028000Y-56354500D02*
X184710000Y-55672500D01*
X184710000Y-55672500D02*
X184710000Y-53915000D01*
X183120000Y-56354500D02*
X184028000Y-56354500D01*
%TO.N,Board_29-Net-(J1-Pin_1)*%
X189250000Y-59863500D02*
X189250000Y-61535000D01*
X190059000Y-59054500D02*
X189250000Y-59863500D01*
X190840000Y-59054500D02*
X190059000Y-59054500D01*
%TO.N,Board_29-Net-(J1-Pin_2)*%
X191790000Y-59054500D02*
X191790000Y-61535000D01*
%TO.N,Board_29-Net-(J1-Pin_3)*%
X192740000Y-59054500D02*
X193521000Y-59054500D01*
X194330000Y-59863500D02*
X194330000Y-61535000D01*
X193521000Y-59054500D02*
X194330000Y-59863500D01*
%TO.N,Board_29-Net-(J2-Pin_1)*%
X190139000Y-56354500D02*
X190840000Y-56354500D01*
X189250000Y-53915000D02*
X189250000Y-55465500D01*
X189250000Y-55465500D02*
X190139000Y-56354500D01*
%TO.N,Board_29-Net-(J2-Pin_2)*%
X191790000Y-56354500D02*
X191790000Y-53915000D01*
%TO.N,Board_29-Net-(J2-Pin_3)*%
X192740000Y-56354500D02*
X193648000Y-56354500D01*
X193648000Y-56354500D02*
X194330000Y-55672500D01*
X194330000Y-55672500D02*
X194330000Y-53915000D01*
%TO.N,Board_30-Net-(J1-Pin_1)*%
X102670000Y-72175500D02*
X102670000Y-73847000D01*
X103479000Y-71366500D02*
X102670000Y-72175500D01*
X104260000Y-71366500D02*
X103479000Y-71366500D01*
%TO.N,Board_30-Net-(J1-Pin_2)*%
X105210000Y-71366500D02*
X105210000Y-73847000D01*
%TO.N,Board_30-Net-(J1-Pin_3)*%
X107750000Y-72175500D02*
X107750000Y-73847000D01*
X106160000Y-71366500D02*
X106941000Y-71366500D01*
X106941000Y-71366500D02*
X107750000Y-72175500D01*
%TO.N,Board_30-Net-(J2-Pin_1)*%
X102670000Y-66227000D02*
X102670000Y-67777500D01*
X103559000Y-68666500D02*
X104260000Y-68666500D01*
X102670000Y-67777500D02*
X103559000Y-68666500D01*
%TO.N,Board_30-Net-(J2-Pin_2)*%
X105210000Y-68666500D02*
X105210000Y-66227000D01*
%TO.N,Board_30-Net-(J2-Pin_3)*%
X107750000Y-67984500D02*
X107750000Y-66227000D01*
X107068000Y-68666500D02*
X107750000Y-67984500D01*
X106160000Y-68666500D02*
X107068000Y-68666500D01*
%TO.N,Board_31-Net-(J1-Pin_1)*%
X113099000Y-71366500D02*
X112290000Y-72175500D01*
X113880000Y-71366500D02*
X113099000Y-71366500D01*
X112290000Y-72175500D02*
X112290000Y-73847000D01*
%TO.N,Board_31-Net-(J1-Pin_2)*%
X114830000Y-71366500D02*
X114830000Y-73847000D01*
%TO.N,Board_31-Net-(J1-Pin_3)*%
X117370000Y-72175500D02*
X117370000Y-73847000D01*
X116561000Y-71366500D02*
X117370000Y-72175500D01*
X115780000Y-71366500D02*
X116561000Y-71366500D01*
%TO.N,Board_31-Net-(J2-Pin_1)*%
X113179000Y-68666500D02*
X113880000Y-68666500D01*
X112290000Y-67777500D02*
X113179000Y-68666500D01*
X112290000Y-66227000D02*
X112290000Y-67777500D01*
%TO.N,Board_31-Net-(J2-Pin_2)*%
X114830000Y-68666500D02*
X114830000Y-66227000D01*
%TO.N,Board_31-Net-(J2-Pin_3)*%
X117370000Y-67984500D02*
X117370000Y-66227000D01*
X115780000Y-68666500D02*
X116688000Y-68666500D01*
X116688000Y-68666500D02*
X117370000Y-67984500D01*
%TO.N,Board_32-Net-(J1-Pin_1)*%
X123500000Y-71366500D02*
X122719000Y-71366500D01*
X121910000Y-72175500D02*
X121910000Y-73847000D01*
X122719000Y-71366500D02*
X121910000Y-72175500D01*
%TO.N,Board_32-Net-(J1-Pin_2)*%
X124450000Y-71366500D02*
X124450000Y-73847000D01*
%TO.N,Board_32-Net-(J1-Pin_3)*%
X126181000Y-71366500D02*
X126990000Y-72175500D01*
X125400000Y-71366500D02*
X126181000Y-71366500D01*
X126990000Y-72175500D02*
X126990000Y-73847000D01*
%TO.N,Board_32-Net-(J2-Pin_1)*%
X122799000Y-68666500D02*
X123500000Y-68666500D01*
X121910000Y-66227000D02*
X121910000Y-67777500D01*
X121910000Y-67777500D02*
X122799000Y-68666500D01*
%TO.N,Board_32-Net-(J2-Pin_2)*%
X124450000Y-68666500D02*
X124450000Y-66227000D01*
%TO.N,Board_32-Net-(J2-Pin_3)*%
X126308000Y-68666500D02*
X126990000Y-67984500D01*
X125400000Y-68666500D02*
X126308000Y-68666500D01*
X126990000Y-67984500D02*
X126990000Y-66227000D01*
%TO.N,Board_33-Net-(J1-Pin_1)*%
X132339000Y-71366500D02*
X131530000Y-72175500D01*
X131530000Y-72175500D02*
X131530000Y-73847000D01*
X133120000Y-71366500D02*
X132339000Y-71366500D01*
%TO.N,Board_33-Net-(J1-Pin_2)*%
X134070000Y-71366500D02*
X134070000Y-73847000D01*
%TO.N,Board_33-Net-(J1-Pin_3)*%
X135020000Y-71366500D02*
X135801000Y-71366500D01*
X136610000Y-72175500D02*
X136610000Y-73847000D01*
X135801000Y-71366500D02*
X136610000Y-72175500D01*
%TO.N,Board_33-Net-(J2-Pin_1)*%
X131530000Y-67777500D02*
X132419000Y-68666500D01*
X131530000Y-66227000D02*
X131530000Y-67777500D01*
X132419000Y-68666500D02*
X133120000Y-68666500D01*
%TO.N,Board_33-Net-(J2-Pin_2)*%
X134070000Y-68666500D02*
X134070000Y-66227000D01*
%TO.N,Board_33-Net-(J2-Pin_3)*%
X135020000Y-68666500D02*
X135928000Y-68666500D01*
X136610000Y-67984500D02*
X136610000Y-66227000D01*
X135928000Y-68666500D02*
X136610000Y-67984500D01*
%TO.N,Board_34-Net-(J1-Pin_1)*%
X141959000Y-71366500D02*
X141150000Y-72175500D01*
X142740000Y-71366500D02*
X141959000Y-71366500D01*
X141150000Y-72175500D02*
X141150000Y-73847000D01*
%TO.N,Board_34-Net-(J1-Pin_2)*%
X143690000Y-71366500D02*
X143690000Y-73847000D01*
%TO.N,Board_34-Net-(J1-Pin_3)*%
X145421000Y-71366500D02*
X146230000Y-72175500D01*
X146230000Y-72175500D02*
X146230000Y-73847000D01*
X144640000Y-71366500D02*
X145421000Y-71366500D01*
%TO.N,Board_34-Net-(J2-Pin_1)*%
X142039000Y-68666500D02*
X142740000Y-68666500D01*
X141150000Y-67777500D02*
X142039000Y-68666500D01*
X141150000Y-66227000D02*
X141150000Y-67777500D01*
%TO.N,Board_34-Net-(J2-Pin_2)*%
X143690000Y-68666500D02*
X143690000Y-66227000D01*
%TO.N,Board_34-Net-(J2-Pin_3)*%
X146230000Y-67984500D02*
X146230000Y-66227000D01*
X144640000Y-68666500D02*
X145548000Y-68666500D01*
X145548000Y-68666500D02*
X146230000Y-67984500D01*
%TO.N,Board_35-Net-(J1-Pin_1)*%
X152360000Y-71366500D02*
X151579000Y-71366500D01*
X151579000Y-71366500D02*
X150770000Y-72175500D01*
X150770000Y-72175500D02*
X150770000Y-73847000D01*
%TO.N,Board_35-Net-(J1-Pin_2)*%
X153310000Y-71366500D02*
X153310000Y-73847000D01*
%TO.N,Board_35-Net-(J1-Pin_3)*%
X155850000Y-72175500D02*
X155850000Y-73847000D01*
X154260000Y-71366500D02*
X155041000Y-71366500D01*
X155041000Y-71366500D02*
X155850000Y-72175500D01*
%TO.N,Board_35-Net-(J2-Pin_1)*%
X150770000Y-67777500D02*
X151659000Y-68666500D01*
X150770000Y-66227000D02*
X150770000Y-67777500D01*
X151659000Y-68666500D02*
X152360000Y-68666500D01*
%TO.N,Board_35-Net-(J2-Pin_2)*%
X153310000Y-68666500D02*
X153310000Y-66227000D01*
%TO.N,Board_35-Net-(J2-Pin_3)*%
X155850000Y-67984500D02*
X155850000Y-66227000D01*
X154260000Y-68666500D02*
X155168000Y-68666500D01*
X155168000Y-68666500D02*
X155850000Y-67984500D01*
%TO.N,Board_36-Net-(J1-Pin_1)*%
X161199000Y-71366500D02*
X160390000Y-72175500D01*
X160390000Y-72175500D02*
X160390000Y-73847000D01*
X161980000Y-71366500D02*
X161199000Y-71366500D01*
%TO.N,Board_36-Net-(J1-Pin_2)*%
X162930000Y-71366500D02*
X162930000Y-73847000D01*
%TO.N,Board_36-Net-(J1-Pin_3)*%
X163880000Y-71366500D02*
X164661000Y-71366500D01*
X165470000Y-72175500D02*
X165470000Y-73847000D01*
X164661000Y-71366500D02*
X165470000Y-72175500D01*
%TO.N,Board_36-Net-(J2-Pin_1)*%
X160390000Y-67777500D02*
X161279000Y-68666500D01*
X160390000Y-66227000D02*
X160390000Y-67777500D01*
X161279000Y-68666500D02*
X161980000Y-68666500D01*
%TO.N,Board_36-Net-(J2-Pin_2)*%
X162930000Y-68666500D02*
X162930000Y-66227000D01*
%TO.N,Board_36-Net-(J2-Pin_3)*%
X164788000Y-68666500D02*
X165470000Y-67984500D01*
X165470000Y-67984500D02*
X165470000Y-66227000D01*
X163880000Y-68666500D02*
X164788000Y-68666500D01*
%TO.N,Board_37-Net-(J1-Pin_1)*%
X170010000Y-72175500D02*
X170010000Y-73847000D01*
X170819000Y-71366500D02*
X170010000Y-72175500D01*
X171600000Y-71366500D02*
X170819000Y-71366500D01*
%TO.N,Board_37-Net-(J1-Pin_2)*%
X172550000Y-71366500D02*
X172550000Y-73847000D01*
%TO.N,Board_37-Net-(J1-Pin_3)*%
X175090000Y-72175500D02*
X175090000Y-73847000D01*
X173500000Y-71366500D02*
X174281000Y-71366500D01*
X174281000Y-71366500D02*
X175090000Y-72175500D01*
%TO.N,Board_37-Net-(J2-Pin_1)*%
X170010000Y-66227000D02*
X170010000Y-67777500D01*
X170899000Y-68666500D02*
X171600000Y-68666500D01*
X170010000Y-67777500D02*
X170899000Y-68666500D01*
%TO.N,Board_37-Net-(J2-Pin_2)*%
X172550000Y-68666500D02*
X172550000Y-66227000D01*
%TO.N,Board_37-Net-(J2-Pin_3)*%
X175090000Y-67984500D02*
X175090000Y-66227000D01*
X174408000Y-68666500D02*
X175090000Y-67984500D01*
X173500000Y-68666500D02*
X174408000Y-68666500D01*
%TO.N,Board_38-Net-(J1-Pin_1)*%
X179630000Y-72175500D02*
X179630000Y-73847000D01*
X181220000Y-71366500D02*
X180439000Y-71366500D01*
X180439000Y-71366500D02*
X179630000Y-72175500D01*
%TO.N,Board_38-Net-(J1-Pin_2)*%
X182170000Y-71366500D02*
X182170000Y-73847000D01*
%TO.N,Board_38-Net-(J1-Pin_3)*%
X183120000Y-71366500D02*
X183901000Y-71366500D01*
X183901000Y-71366500D02*
X184710000Y-72175500D01*
X184710000Y-72175500D02*
X184710000Y-73847000D01*
%TO.N,Board_38-Net-(J2-Pin_1)*%
X179630000Y-67777500D02*
X180519000Y-68666500D01*
X179630000Y-66227000D02*
X179630000Y-67777500D01*
X180519000Y-68666500D02*
X181220000Y-68666500D01*
%TO.N,Board_38-Net-(J2-Pin_2)*%
X182170000Y-68666500D02*
X182170000Y-66227000D01*
%TO.N,Board_38-Net-(J2-Pin_3)*%
X184710000Y-67984500D02*
X184710000Y-66227000D01*
X184028000Y-68666500D02*
X184710000Y-67984500D01*
X183120000Y-68666500D02*
X184028000Y-68666500D01*
%TO.N,Board_39-Net-(J1-Pin_1)*%
X190840000Y-71366500D02*
X190059000Y-71366500D01*
X190059000Y-71366500D02*
X189250000Y-72175500D01*
X189250000Y-72175500D02*
X189250000Y-73847000D01*
%TO.N,Board_39-Net-(J1-Pin_2)*%
X191790000Y-71366500D02*
X191790000Y-73847000D01*
%TO.N,Board_39-Net-(J1-Pin_3)*%
X192740000Y-71366500D02*
X193521000Y-71366500D01*
X194330000Y-72175500D02*
X194330000Y-73847000D01*
X193521000Y-71366500D02*
X194330000Y-72175500D01*
%TO.N,Board_39-Net-(J2-Pin_1)*%
X189250000Y-67777500D02*
X190139000Y-68666500D01*
X190139000Y-68666500D02*
X190840000Y-68666500D01*
X189250000Y-66227000D02*
X189250000Y-67777500D01*
%TO.N,Board_39-Net-(J2-Pin_2)*%
X191790000Y-68666500D02*
X191790000Y-66227000D01*
%TO.N,Board_39-Net-(J2-Pin_3)*%
X193648000Y-68666500D02*
X194330000Y-67984500D01*
X194330000Y-67984500D02*
X194330000Y-66227000D01*
X192740000Y-68666500D02*
X193648000Y-68666500D01*
%TO.N,Board_40-Net-(J1-Pin_1)*%
X103479000Y-83678500D02*
X102670000Y-84487500D01*
X104260000Y-83678500D02*
X103479000Y-83678500D01*
X102670000Y-84487500D02*
X102670000Y-86159000D01*
%TO.N,Board_40-Net-(J1-Pin_2)*%
X105210000Y-83678500D02*
X105210000Y-86159000D01*
%TO.N,Board_40-Net-(J1-Pin_3)*%
X106941000Y-83678500D02*
X107750000Y-84487500D01*
X106160000Y-83678500D02*
X106941000Y-83678500D01*
X107750000Y-84487500D02*
X107750000Y-86159000D01*
%TO.N,Board_40-Net-(J2-Pin_1)*%
X102670000Y-80089500D02*
X103559000Y-80978500D01*
X103559000Y-80978500D02*
X104260000Y-80978500D01*
X102670000Y-78539000D02*
X102670000Y-80089500D01*
%TO.N,Board_40-Net-(J2-Pin_2)*%
X105210000Y-80978500D02*
X105210000Y-78539000D01*
%TO.N,Board_40-Net-(J2-Pin_3)*%
X106160000Y-80978500D02*
X107068000Y-80978500D01*
X107068000Y-80978500D02*
X107750000Y-80296500D01*
X107750000Y-80296500D02*
X107750000Y-78539000D01*
%TO.N,Board_41-Net-(J1-Pin_1)*%
X113880000Y-83678500D02*
X113099000Y-83678500D01*
X113099000Y-83678500D02*
X112290000Y-84487500D01*
X112290000Y-84487500D02*
X112290000Y-86159000D01*
%TO.N,Board_41-Net-(J1-Pin_2)*%
X114830000Y-83678500D02*
X114830000Y-86159000D01*
%TO.N,Board_41-Net-(J1-Pin_3)*%
X115780000Y-83678500D02*
X116561000Y-83678500D01*
X116561000Y-83678500D02*
X117370000Y-84487500D01*
X117370000Y-84487500D02*
X117370000Y-86159000D01*
%TO.N,Board_41-Net-(J2-Pin_1)*%
X113179000Y-80978500D02*
X113880000Y-80978500D01*
X112290000Y-80089500D02*
X113179000Y-80978500D01*
X112290000Y-78539000D02*
X112290000Y-80089500D01*
%TO.N,Board_41-Net-(J2-Pin_2)*%
X114830000Y-80978500D02*
X114830000Y-78539000D01*
%TO.N,Board_41-Net-(J2-Pin_3)*%
X117370000Y-80296500D02*
X117370000Y-78539000D01*
X115780000Y-80978500D02*
X116688000Y-80978500D01*
X116688000Y-80978500D02*
X117370000Y-80296500D01*
%TO.N,Board_42-Net-(J1-Pin_1)*%
X123500000Y-83678500D02*
X122719000Y-83678500D01*
X122719000Y-83678500D02*
X121910000Y-84487500D01*
X121910000Y-84487500D02*
X121910000Y-86159000D01*
%TO.N,Board_42-Net-(J1-Pin_2)*%
X124450000Y-83678500D02*
X124450000Y-86159000D01*
%TO.N,Board_42-Net-(J1-Pin_3)*%
X126181000Y-83678500D02*
X126990000Y-84487500D01*
X125400000Y-83678500D02*
X126181000Y-83678500D01*
X126990000Y-84487500D02*
X126990000Y-86159000D01*
%TO.N,Board_42-Net-(J2-Pin_1)*%
X121910000Y-80089500D02*
X122799000Y-80978500D01*
X122799000Y-80978500D02*
X123500000Y-80978500D01*
X121910000Y-78539000D02*
X121910000Y-80089500D01*
%TO.N,Board_42-Net-(J2-Pin_2)*%
X124450000Y-80978500D02*
X124450000Y-78539000D01*
%TO.N,Board_42-Net-(J2-Pin_3)*%
X126990000Y-80296500D02*
X126990000Y-78539000D01*
X125400000Y-80978500D02*
X126308000Y-80978500D01*
X126308000Y-80978500D02*
X126990000Y-80296500D01*
%TO.N,Board_43-Net-(J1-Pin_1)*%
X131530000Y-84487500D02*
X131530000Y-86159000D01*
X133120000Y-83678500D02*
X132339000Y-83678500D01*
X132339000Y-83678500D02*
X131530000Y-84487500D01*
%TO.N,Board_43-Net-(J1-Pin_2)*%
X134070000Y-83678500D02*
X134070000Y-86159000D01*
%TO.N,Board_43-Net-(J1-Pin_3)*%
X135801000Y-83678500D02*
X136610000Y-84487500D01*
X135020000Y-83678500D02*
X135801000Y-83678500D01*
X136610000Y-84487500D02*
X136610000Y-86159000D01*
%TO.N,Board_43-Net-(J2-Pin_1)*%
X131530000Y-80089500D02*
X132419000Y-80978500D01*
X131530000Y-78539000D02*
X131530000Y-80089500D01*
X132419000Y-80978500D02*
X133120000Y-80978500D01*
%TO.N,Board_43-Net-(J2-Pin_2)*%
X134070000Y-80978500D02*
X134070000Y-78539000D01*
%TO.N,Board_43-Net-(J2-Pin_3)*%
X136610000Y-80296500D02*
X136610000Y-78539000D01*
X135928000Y-80978500D02*
X136610000Y-80296500D01*
X135020000Y-80978500D02*
X135928000Y-80978500D01*
%TO.N,Board_44-Net-(J1-Pin_1)*%
X141150000Y-84487500D02*
X141150000Y-86159000D01*
X141959000Y-83678500D02*
X141150000Y-84487500D01*
X142740000Y-83678500D02*
X141959000Y-83678500D01*
%TO.N,Board_44-Net-(J1-Pin_2)*%
X143690000Y-83678500D02*
X143690000Y-86159000D01*
%TO.N,Board_44-Net-(J1-Pin_3)*%
X144640000Y-83678500D02*
X145421000Y-83678500D01*
X146230000Y-84487500D02*
X146230000Y-86159000D01*
X145421000Y-83678500D02*
X146230000Y-84487500D01*
%TO.N,Board_44-Net-(J2-Pin_1)*%
X141150000Y-80089500D02*
X142039000Y-80978500D01*
X141150000Y-78539000D02*
X141150000Y-80089500D01*
X142039000Y-80978500D02*
X142740000Y-80978500D01*
%TO.N,Board_44-Net-(J2-Pin_2)*%
X143690000Y-80978500D02*
X143690000Y-78539000D01*
%TO.N,Board_44-Net-(J2-Pin_3)*%
X145548000Y-80978500D02*
X146230000Y-80296500D01*
X146230000Y-80296500D02*
X146230000Y-78539000D01*
X144640000Y-80978500D02*
X145548000Y-80978500D01*
%TO.N,Board_45-Net-(J1-Pin_1)*%
X152360000Y-83678500D02*
X151579000Y-83678500D01*
X151579000Y-83678500D02*
X150770000Y-84487500D01*
X150770000Y-84487500D02*
X150770000Y-86159000D01*
%TO.N,Board_45-Net-(J1-Pin_2)*%
X153310000Y-83678500D02*
X153310000Y-86159000D01*
%TO.N,Board_45-Net-(J1-Pin_3)*%
X155041000Y-83678500D02*
X155850000Y-84487500D01*
X154260000Y-83678500D02*
X155041000Y-83678500D01*
X155850000Y-84487500D02*
X155850000Y-86159000D01*
%TO.N,Board_45-Net-(J2-Pin_1)*%
X150770000Y-80089500D02*
X151659000Y-80978500D01*
X150770000Y-78539000D02*
X150770000Y-80089500D01*
X151659000Y-80978500D02*
X152360000Y-80978500D01*
%TO.N,Board_45-Net-(J2-Pin_2)*%
X153310000Y-80978500D02*
X153310000Y-78539000D01*
%TO.N,Board_45-Net-(J2-Pin_3)*%
X155168000Y-80978500D02*
X155850000Y-80296500D01*
X155850000Y-80296500D02*
X155850000Y-78539000D01*
X154260000Y-80978500D02*
X155168000Y-80978500D01*
%TO.N,Board_46-Net-(J1-Pin_1)*%
X160390000Y-84487500D02*
X160390000Y-86159000D01*
X161980000Y-83678500D02*
X161199000Y-83678500D01*
X161199000Y-83678500D02*
X160390000Y-84487500D01*
%TO.N,Board_46-Net-(J1-Pin_2)*%
X162930000Y-83678500D02*
X162930000Y-86159000D01*
%TO.N,Board_46-Net-(J1-Pin_3)*%
X165470000Y-84487500D02*
X165470000Y-86159000D01*
X164661000Y-83678500D02*
X165470000Y-84487500D01*
X163880000Y-83678500D02*
X164661000Y-83678500D01*
%TO.N,Board_46-Net-(J2-Pin_1)*%
X161279000Y-80978500D02*
X161980000Y-80978500D01*
X160390000Y-80089500D02*
X161279000Y-80978500D01*
X160390000Y-78539000D02*
X160390000Y-80089500D01*
%TO.N,Board_46-Net-(J2-Pin_2)*%
X162930000Y-80978500D02*
X162930000Y-78539000D01*
%TO.N,Board_46-Net-(J2-Pin_3)*%
X164788000Y-80978500D02*
X165470000Y-80296500D01*
X165470000Y-80296500D02*
X165470000Y-78539000D01*
X163880000Y-80978500D02*
X164788000Y-80978500D01*
%TO.N,Board_47-Net-(J1-Pin_1)*%
X171600000Y-83678500D02*
X170819000Y-83678500D01*
X170010000Y-84487500D02*
X170010000Y-86159000D01*
X170819000Y-83678500D02*
X170010000Y-84487500D01*
%TO.N,Board_47-Net-(J1-Pin_2)*%
X172550000Y-83678500D02*
X172550000Y-86159000D01*
%TO.N,Board_47-Net-(J1-Pin_3)*%
X173500000Y-83678500D02*
X174281000Y-83678500D01*
X174281000Y-83678500D02*
X175090000Y-84487500D01*
X175090000Y-84487500D02*
X175090000Y-86159000D01*
%TO.N,Board_47-Net-(J2-Pin_1)*%
X170010000Y-80089500D02*
X170899000Y-80978500D01*
X170899000Y-80978500D02*
X171600000Y-80978500D01*
X170010000Y-78539000D02*
X170010000Y-80089500D01*
%TO.N,Board_47-Net-(J2-Pin_2)*%
X172550000Y-80978500D02*
X172550000Y-78539000D01*
%TO.N,Board_47-Net-(J2-Pin_3)*%
X175090000Y-80296500D02*
X175090000Y-78539000D01*
X174408000Y-80978500D02*
X175090000Y-80296500D01*
X173500000Y-80978500D02*
X174408000Y-80978500D01*
%TO.N,Board_48-Net-(J1-Pin_1)*%
X181220000Y-83678500D02*
X180439000Y-83678500D01*
X179630000Y-84487500D02*
X179630000Y-86159000D01*
X180439000Y-83678500D02*
X179630000Y-84487500D01*
%TO.N,Board_48-Net-(J1-Pin_2)*%
X182170000Y-83678500D02*
X182170000Y-86159000D01*
%TO.N,Board_48-Net-(J1-Pin_3)*%
X184710000Y-84487500D02*
X184710000Y-86159000D01*
X183120000Y-83678500D02*
X183901000Y-83678500D01*
X183901000Y-83678500D02*
X184710000Y-84487500D01*
%TO.N,Board_48-Net-(J2-Pin_1)*%
X179630000Y-80089500D02*
X180519000Y-80978500D01*
X179630000Y-78539000D02*
X179630000Y-80089500D01*
X180519000Y-80978500D02*
X181220000Y-80978500D01*
%TO.N,Board_48-Net-(J2-Pin_2)*%
X182170000Y-80978500D02*
X182170000Y-78539000D01*
%TO.N,Board_48-Net-(J2-Pin_3)*%
X184710000Y-80296500D02*
X184710000Y-78539000D01*
X183120000Y-80978500D02*
X184028000Y-80978500D01*
X184028000Y-80978500D02*
X184710000Y-80296500D01*
%TO.N,Board_49-Net-(J1-Pin_1)*%
X190840000Y-83678500D02*
X190059000Y-83678500D01*
X190059000Y-83678500D02*
X189250000Y-84487500D01*
X189250000Y-84487500D02*
X189250000Y-86159000D01*
%TO.N,Board_49-Net-(J1-Pin_2)*%
X191790000Y-83678500D02*
X191790000Y-86159000D01*
%TO.N,Board_49-Net-(J1-Pin_3)*%
X193521000Y-83678500D02*
X194330000Y-84487500D01*
X194330000Y-84487500D02*
X194330000Y-86159000D01*
X192740000Y-83678500D02*
X193521000Y-83678500D01*
%TO.N,Board_49-Net-(J2-Pin_1)*%
X190139000Y-80978500D02*
X190840000Y-80978500D01*
X189250000Y-80089500D02*
X190139000Y-80978500D01*
X189250000Y-78539000D02*
X189250000Y-80089500D01*
%TO.N,Board_49-Net-(J2-Pin_2)*%
X191790000Y-80978500D02*
X191790000Y-78539000D01*
%TO.N,Board_49-Net-(J2-Pin_3)*%
X194330000Y-80296500D02*
X194330000Y-78539000D01*
X192740000Y-80978500D02*
X193648000Y-80978500D01*
X193648000Y-80978500D02*
X194330000Y-80296500D01*
%TO.N,Board_50-Net-(J1-Pin_1)*%
X103479000Y-95990500D02*
X102670000Y-96799500D01*
X104260000Y-95990500D02*
X103479000Y-95990500D01*
X102670000Y-96799500D02*
X102670000Y-98471000D01*
%TO.N,Board_50-Net-(J1-Pin_2)*%
X105210000Y-95990500D02*
X105210000Y-98471000D01*
%TO.N,Board_50-Net-(J1-Pin_3)*%
X107750000Y-96799500D02*
X107750000Y-98471000D01*
X106160000Y-95990500D02*
X106941000Y-95990500D01*
X106941000Y-95990500D02*
X107750000Y-96799500D01*
%TO.N,Board_50-Net-(J2-Pin_1)*%
X102670000Y-92401500D02*
X103559000Y-93290500D01*
X102670000Y-90851000D02*
X102670000Y-92401500D01*
X103559000Y-93290500D02*
X104260000Y-93290500D01*
%TO.N,Board_50-Net-(J2-Pin_2)*%
X105210000Y-93290500D02*
X105210000Y-90851000D01*
%TO.N,Board_50-Net-(J2-Pin_3)*%
X107068000Y-93290500D02*
X107750000Y-92608500D01*
X107750000Y-92608500D02*
X107750000Y-90851000D01*
X106160000Y-93290500D02*
X107068000Y-93290500D01*
%TO.N,Board_51-Net-(J1-Pin_1)*%
X113880000Y-95990500D02*
X113099000Y-95990500D01*
X112290000Y-96799500D02*
X112290000Y-98471000D01*
X113099000Y-95990500D02*
X112290000Y-96799500D01*
%TO.N,Board_51-Net-(J1-Pin_2)*%
X114830000Y-95990500D02*
X114830000Y-98471000D01*
%TO.N,Board_51-Net-(J1-Pin_3)*%
X117370000Y-96799500D02*
X117370000Y-98471000D01*
X115780000Y-95990500D02*
X116561000Y-95990500D01*
X116561000Y-95990500D02*
X117370000Y-96799500D01*
%TO.N,Board_51-Net-(J2-Pin_1)*%
X112290000Y-90851000D02*
X112290000Y-92401500D01*
X112290000Y-92401500D02*
X113179000Y-93290500D01*
X113179000Y-93290500D02*
X113880000Y-93290500D01*
%TO.N,Board_51-Net-(J2-Pin_2)*%
X114830000Y-93290500D02*
X114830000Y-90851000D01*
%TO.N,Board_51-Net-(J2-Pin_3)*%
X115780000Y-93290500D02*
X116688000Y-93290500D01*
X116688000Y-93290500D02*
X117370000Y-92608500D01*
X117370000Y-92608500D02*
X117370000Y-90851000D01*
%TO.N,Board_52-Net-(J1-Pin_1)*%
X123500000Y-95990500D02*
X122719000Y-95990500D01*
X122719000Y-95990500D02*
X121910000Y-96799500D01*
X121910000Y-96799500D02*
X121910000Y-98471000D01*
%TO.N,Board_52-Net-(J1-Pin_2)*%
X124450000Y-95990500D02*
X124450000Y-98471000D01*
%TO.N,Board_52-Net-(J1-Pin_3)*%
X125400000Y-95990500D02*
X126181000Y-95990500D01*
X126181000Y-95990500D02*
X126990000Y-96799500D01*
X126990000Y-96799500D02*
X126990000Y-98471000D01*
%TO.N,Board_52-Net-(J2-Pin_1)*%
X121910000Y-90851000D02*
X121910000Y-92401500D01*
X121910000Y-92401500D02*
X122799000Y-93290500D01*
X122799000Y-93290500D02*
X123500000Y-93290500D01*
%TO.N,Board_52-Net-(J2-Pin_2)*%
X124450000Y-93290500D02*
X124450000Y-90851000D01*
%TO.N,Board_52-Net-(J2-Pin_3)*%
X126308000Y-93290500D02*
X126990000Y-92608500D01*
X126990000Y-92608500D02*
X126990000Y-90851000D01*
X125400000Y-93290500D02*
X126308000Y-93290500D01*
%TO.N,Board_53-Net-(J1-Pin_1)*%
X133120000Y-95990500D02*
X132339000Y-95990500D01*
X132339000Y-95990500D02*
X131530000Y-96799500D01*
X131530000Y-96799500D02*
X131530000Y-98471000D01*
%TO.N,Board_53-Net-(J1-Pin_2)*%
X134070000Y-95990500D02*
X134070000Y-98471000D01*
%TO.N,Board_53-Net-(J1-Pin_3)*%
X135020000Y-95990500D02*
X135801000Y-95990500D01*
X136610000Y-96799500D02*
X136610000Y-98471000D01*
X135801000Y-95990500D02*
X136610000Y-96799500D01*
%TO.N,Board_53-Net-(J2-Pin_1)*%
X131530000Y-90851000D02*
X131530000Y-92401500D01*
X132419000Y-93290500D02*
X133120000Y-93290500D01*
X131530000Y-92401500D02*
X132419000Y-93290500D01*
%TO.N,Board_53-Net-(J2-Pin_2)*%
X134070000Y-93290500D02*
X134070000Y-90851000D01*
%TO.N,Board_53-Net-(J2-Pin_3)*%
X135020000Y-93290500D02*
X135928000Y-93290500D01*
X135928000Y-93290500D02*
X136610000Y-92608500D01*
X136610000Y-92608500D02*
X136610000Y-90851000D01*
%TO.N,Board_54-Net-(J1-Pin_1)*%
X142740000Y-95990500D02*
X141959000Y-95990500D01*
X141959000Y-95990500D02*
X141150000Y-96799500D01*
X141150000Y-96799500D02*
X141150000Y-98471000D01*
%TO.N,Board_54-Net-(J1-Pin_2)*%
X143690000Y-95990500D02*
X143690000Y-98471000D01*
%TO.N,Board_54-Net-(J1-Pin_3)*%
X145421000Y-95990500D02*
X146230000Y-96799500D01*
X144640000Y-95990500D02*
X145421000Y-95990500D01*
X146230000Y-96799500D02*
X146230000Y-98471000D01*
%TO.N,Board_54-Net-(J2-Pin_1)*%
X141150000Y-92401500D02*
X142039000Y-93290500D01*
X142039000Y-93290500D02*
X142740000Y-93290500D01*
X141150000Y-90851000D02*
X141150000Y-92401500D01*
%TO.N,Board_54-Net-(J2-Pin_2)*%
X143690000Y-93290500D02*
X143690000Y-90851000D01*
%TO.N,Board_54-Net-(J2-Pin_3)*%
X146230000Y-92608500D02*
X146230000Y-90851000D01*
X144640000Y-93290500D02*
X145548000Y-93290500D01*
X145548000Y-93290500D02*
X146230000Y-92608500D01*
%TO.N,Board_55-Net-(J1-Pin_1)*%
X150770000Y-96799500D02*
X150770000Y-98471000D01*
X151579000Y-95990500D02*
X150770000Y-96799500D01*
X152360000Y-95990500D02*
X151579000Y-95990500D01*
%TO.N,Board_55-Net-(J1-Pin_2)*%
X153310000Y-95990500D02*
X153310000Y-98471000D01*
%TO.N,Board_55-Net-(J1-Pin_3)*%
X155041000Y-95990500D02*
X155850000Y-96799500D01*
X154260000Y-95990500D02*
X155041000Y-95990500D01*
X155850000Y-96799500D02*
X155850000Y-98471000D01*
%TO.N,Board_55-Net-(J2-Pin_1)*%
X150770000Y-92401500D02*
X151659000Y-93290500D01*
X150770000Y-90851000D02*
X150770000Y-92401500D01*
X151659000Y-93290500D02*
X152360000Y-93290500D01*
%TO.N,Board_55-Net-(J2-Pin_2)*%
X153310000Y-93290500D02*
X153310000Y-90851000D01*
%TO.N,Board_55-Net-(J2-Pin_3)*%
X154260000Y-93290500D02*
X155168000Y-93290500D01*
X155168000Y-93290500D02*
X155850000Y-92608500D01*
X155850000Y-92608500D02*
X155850000Y-90851000D01*
%TO.N,Board_56-Net-(J1-Pin_1)*%
X161980000Y-95990500D02*
X161199000Y-95990500D01*
X161199000Y-95990500D02*
X160390000Y-96799500D01*
X160390000Y-96799500D02*
X160390000Y-98471000D01*
%TO.N,Board_56-Net-(J1-Pin_2)*%
X162930000Y-95990500D02*
X162930000Y-98471000D01*
%TO.N,Board_56-Net-(J1-Pin_3)*%
X163880000Y-95990500D02*
X164661000Y-95990500D01*
X165470000Y-96799500D02*
X165470000Y-98471000D01*
X164661000Y-95990500D02*
X165470000Y-96799500D01*
%TO.N,Board_56-Net-(J2-Pin_1)*%
X161279000Y-93290500D02*
X161980000Y-93290500D01*
X160390000Y-90851000D02*
X160390000Y-92401500D01*
X160390000Y-92401500D02*
X161279000Y-93290500D01*
%TO.N,Board_56-Net-(J2-Pin_2)*%
X162930000Y-93290500D02*
X162930000Y-90851000D01*
%TO.N,Board_56-Net-(J2-Pin_3)*%
X163880000Y-93290500D02*
X164788000Y-93290500D01*
X164788000Y-93290500D02*
X165470000Y-92608500D01*
X165470000Y-92608500D02*
X165470000Y-90851000D01*
%TO.N,Board_57-Net-(J1-Pin_1)*%
X171600000Y-95990500D02*
X170819000Y-95990500D01*
X170010000Y-96799500D02*
X170010000Y-98471000D01*
X170819000Y-95990500D02*
X170010000Y-96799500D01*
%TO.N,Board_57-Net-(J1-Pin_2)*%
X172550000Y-95990500D02*
X172550000Y-98471000D01*
%TO.N,Board_57-Net-(J1-Pin_3)*%
X174281000Y-95990500D02*
X175090000Y-96799500D01*
X173500000Y-95990500D02*
X174281000Y-95990500D01*
X175090000Y-96799500D02*
X175090000Y-98471000D01*
%TO.N,Board_57-Net-(J2-Pin_1)*%
X170899000Y-93290500D02*
X171600000Y-93290500D01*
X170010000Y-92401500D02*
X170899000Y-93290500D01*
X170010000Y-90851000D02*
X170010000Y-92401500D01*
%TO.N,Board_57-Net-(J2-Pin_2)*%
X172550000Y-93290500D02*
X172550000Y-90851000D01*
%TO.N,Board_57-Net-(J2-Pin_3)*%
X175090000Y-92608500D02*
X175090000Y-90851000D01*
X174408000Y-93290500D02*
X175090000Y-92608500D01*
X173500000Y-93290500D02*
X174408000Y-93290500D01*
%TO.N,Board_58-Net-(J1-Pin_1)*%
X179630000Y-96799500D02*
X179630000Y-98471000D01*
X180439000Y-95990500D02*
X179630000Y-96799500D01*
X181220000Y-95990500D02*
X180439000Y-95990500D01*
%TO.N,Board_58-Net-(J1-Pin_2)*%
X182170000Y-95990500D02*
X182170000Y-98471000D01*
%TO.N,Board_58-Net-(J1-Pin_3)*%
X183120000Y-95990500D02*
X183901000Y-95990500D01*
X183901000Y-95990500D02*
X184710000Y-96799500D01*
X184710000Y-96799500D02*
X184710000Y-98471000D01*
%TO.N,Board_58-Net-(J2-Pin_1)*%
X180519000Y-93290500D02*
X181220000Y-93290500D01*
X179630000Y-90851000D02*
X179630000Y-92401500D01*
X179630000Y-92401500D02*
X180519000Y-93290500D01*
%TO.N,Board_58-Net-(J2-Pin_2)*%
X182170000Y-93290500D02*
X182170000Y-90851000D01*
%TO.N,Board_58-Net-(J2-Pin_3)*%
X184028000Y-93290500D02*
X184710000Y-92608500D01*
X184710000Y-92608500D02*
X184710000Y-90851000D01*
X183120000Y-93290500D02*
X184028000Y-93290500D01*
%TO.N,Board_59-Net-(J1-Pin_1)*%
X190840000Y-95990500D02*
X190059000Y-95990500D01*
X189250000Y-96799500D02*
X189250000Y-98471000D01*
X190059000Y-95990500D02*
X189250000Y-96799500D01*
%TO.N,Board_59-Net-(J1-Pin_2)*%
X191790000Y-95990500D02*
X191790000Y-98471000D01*
%TO.N,Board_59-Net-(J1-Pin_3)*%
X193521000Y-95990500D02*
X194330000Y-96799500D01*
X194330000Y-96799500D02*
X194330000Y-98471000D01*
X192740000Y-95990500D02*
X193521000Y-95990500D01*
%TO.N,Board_59-Net-(J2-Pin_1)*%
X189250000Y-90851000D02*
X189250000Y-92401500D01*
X189250000Y-92401500D02*
X190139000Y-93290500D01*
X190139000Y-93290500D02*
X190840000Y-93290500D01*
%TO.N,Board_59-Net-(J2-Pin_2)*%
X191790000Y-93290500D02*
X191790000Y-90851000D01*
%TO.N,Board_59-Net-(J2-Pin_3)*%
X194330000Y-92608500D02*
X194330000Y-90851000D01*
X192740000Y-93290500D02*
X193648000Y-93290500D01*
X193648000Y-93290500D02*
X194330000Y-92608500D01*
%TD*%
M02*
