M48
; DRILL file {KiCad 9.0.7} date 2026-02-10T23:41:37-0800
; FORMAT={-:-/ absolute / metric / decimal}
; #@! TF.CreationDate,2026-02-10T23:41:37-08:00
; #@! TF.GenerationSoftware,Kicad,Pcbnew,9.0.7
; #@! TF.FileFunction,Plated,1,2,PTH
FMAT,2
METRIC
; #@! TA.AperFunction,Plated,PTH,ComponentDrill
T1C1.000
%
G90
G05
T1
X102.67Y-29.291
X102.67Y-36.911
X102.67Y-41.603
X102.67Y-49.223
X102.67Y-53.915
X102.67Y-61.535
X102.67Y-66.227
X102.67Y-73.847
X102.67Y-78.539
X102.67Y-86.159
X102.67Y-90.851
X102.67Y-98.471
X105.21Y-29.291
X105.21Y-36.911
X105.21Y-41.603
X105.21Y-49.223
X105.21Y-53.915
X105.21Y-61.535
X105.21Y-66.227
X105.21Y-73.847
X105.21Y-78.539
X105.21Y-86.159
X105.21Y-90.851
X105.21Y-98.471
X107.75Y-29.291
X107.75Y-36.911
X107.75Y-41.603
X107.75Y-49.223
X107.75Y-53.915
X107.75Y-61.535
X107.75Y-66.227
X107.75Y-73.847
X107.75Y-78.539
X107.75Y-86.159
X107.75Y-90.851
X107.75Y-98.471
X112.29Y-29.291
X112.29Y-36.911
X112.29Y-41.603
X112.29Y-49.223
X112.29Y-53.915
X112.29Y-61.535
X112.29Y-66.227
X112.29Y-73.847
X112.29Y-78.539
X112.29Y-86.159
X112.29Y-90.851
X112.29Y-98.471
X114.83Y-29.291
X114.83Y-36.911
X114.83Y-41.603
X114.83Y-49.223
X114.83Y-53.915
X114.83Y-61.535
X114.83Y-66.227
X114.83Y-73.847
X114.83Y-78.539
X114.83Y-86.159
X114.83Y-90.851
X114.83Y-98.471
X117.37Y-29.291
X117.37Y-36.911
X117.37Y-41.603
X117.37Y-49.223
X117.37Y-53.915
X117.37Y-61.535
X117.37Y-66.227
X117.37Y-73.847
X117.37Y-78.539
X117.37Y-86.159
X117.37Y-90.851
X117.37Y-98.471
X121.91Y-29.291
X121.91Y-36.911
X121.91Y-41.603
X121.91Y-49.223
X121.91Y-53.915
X121.91Y-61.535
X121.91Y-66.227
X121.91Y-73.847
X121.91Y-78.539
X121.91Y-86.159
X121.91Y-90.851
X121.91Y-98.471
X124.45Y-29.291
X124.45Y-36.911
X124.45Y-41.603
X124.45Y-49.223
X124.45Y-53.915
X124.45Y-61.535
X124.45Y-66.227
X124.45Y-73.847
X124.45Y-78.539
X124.45Y-86.159
X124.45Y-90.851
X124.45Y-98.471
X126.99Y-29.291
X126.99Y-36.911
X126.99Y-41.603
X126.99Y-49.223
X126.99Y-53.915
X126.99Y-61.535
X126.99Y-66.227
X126.99Y-73.847
X126.99Y-78.539
X126.99Y-86.159
X126.99Y-90.851
X126.99Y-98.471
X131.53Y-29.291
X131.53Y-36.911
X131.53Y-41.603
X131.53Y-49.223
X131.53Y-53.915
X131.53Y-61.535
X131.53Y-66.227
X131.53Y-73.847
X131.53Y-78.539
X131.53Y-86.159
X131.53Y-90.851
X131.53Y-98.471
X134.07Y-29.291
X134.07Y-36.911
X134.07Y-41.603
X134.07Y-49.223
X134.07Y-53.915
X134.07Y-61.535
X134.07Y-66.227
X134.07Y-73.847
X134.07Y-78.539
X134.07Y-86.159
X134.07Y-90.851
X134.07Y-98.471
X136.61Y-29.291
X136.61Y-36.911
X136.61Y-41.603
X136.61Y-49.223
X136.61Y-53.915
X136.61Y-61.535
X136.61Y-66.227
X136.61Y-73.847
X136.61Y-78.539
X136.61Y-86.159
X136.61Y-90.851
X136.61Y-98.471
X141.15Y-29.291
X141.15Y-36.911
X141.15Y-41.603
X141.15Y-49.223
X141.15Y-53.915
X141.15Y-61.535
X141.15Y-66.227
X141.15Y-73.847
X141.15Y-78.539
X141.15Y-86.159
X141.15Y-90.851
X141.15Y-98.471
X143.69Y-29.291
X143.69Y-36.911
X143.69Y-41.603
X143.69Y-49.223
X143.69Y-53.915
X143.69Y-61.535
X143.69Y-66.227
X143.69Y-73.847
X143.69Y-78.539
X143.69Y-86.159
X143.69Y-90.851
X143.69Y-98.471
X146.23Y-29.291
X146.23Y-36.911
X146.23Y-41.603
X146.23Y-49.223
X146.23Y-53.915
X146.23Y-61.535
X146.23Y-66.227
X146.23Y-73.847
X146.23Y-78.539
X146.23Y-86.159
X146.23Y-90.851
X146.23Y-98.471
X150.77Y-29.291
X150.77Y-36.911
X150.77Y-41.603
X150.77Y-49.223
X150.77Y-53.915
X150.77Y-61.535
X150.77Y-66.227
X150.77Y-73.847
X150.77Y-78.539
X150.77Y-86.159
X150.77Y-90.851
X150.77Y-98.471
X153.31Y-29.291
X153.31Y-36.911
X153.31Y-41.603
X153.31Y-49.223
X153.31Y-53.915
X153.31Y-61.535
X153.31Y-66.227
X153.31Y-73.847
X153.31Y-78.539
X153.31Y-86.159
X153.31Y-90.851
X153.31Y-98.471
X155.85Y-29.291
X155.85Y-36.911
X155.85Y-41.603
X155.85Y-49.223
X155.85Y-53.915
X155.85Y-61.535
X155.85Y-66.227
X155.85Y-73.847
X155.85Y-78.539
X155.85Y-86.159
X155.85Y-90.851
X155.85Y-98.471
X160.39Y-29.291
X160.39Y-36.911
X160.39Y-41.603
X160.39Y-49.223
X160.39Y-53.915
X160.39Y-61.535
X160.39Y-66.227
X160.39Y-73.847
X160.39Y-78.539
X160.39Y-86.159
X160.39Y-90.851
X160.39Y-98.471
X162.93Y-29.291
X162.93Y-36.911
X162.93Y-41.603
X162.93Y-49.223
X162.93Y-53.915
X162.93Y-61.535
X162.93Y-66.227
X162.93Y-73.847
X162.93Y-78.539
X162.93Y-86.159
X162.93Y-90.851
X162.93Y-98.471
X165.47Y-29.291
X165.47Y-36.911
X165.47Y-41.603
X165.47Y-49.223
X165.47Y-53.915
X165.47Y-61.535
X165.47Y-66.227
X165.47Y-73.847
X165.47Y-78.539
X165.47Y-86.159
X165.47Y-90.851
X165.47Y-98.471
X170.01Y-29.291
X170.01Y-36.911
X170.01Y-41.603
X170.01Y-49.223
X170.01Y-53.915
X170.01Y-61.535
X170.01Y-66.227
X170.01Y-73.847
X170.01Y-78.539
X170.01Y-86.159
X170.01Y-90.851
X170.01Y-98.471
X172.55Y-29.291
X172.55Y-36.911
X172.55Y-41.603
X172.55Y-49.223
X172.55Y-53.915
X172.55Y-61.535
X172.55Y-66.227
X172.55Y-73.847
X172.55Y-78.539
X172.55Y-86.159
X172.55Y-90.851
X172.55Y-98.471
X175.09Y-29.291
X175.09Y-36.911
X175.09Y-41.603
X175.09Y-49.223
X175.09Y-53.915
X175.09Y-61.535
X175.09Y-66.227
X175.09Y-73.847
X175.09Y-78.539
X175.09Y-86.159
X175.09Y-90.851
X175.09Y-98.471
X179.63Y-29.291
X179.63Y-36.911
X179.63Y-41.603
X179.63Y-49.223
X179.63Y-53.915
X179.63Y-61.535
X179.63Y-66.227
X179.63Y-73.847
X179.63Y-78.539
X179.63Y-86.159
X179.63Y-90.851
X179.63Y-98.471
X182.17Y-29.291
X182.17Y-36.911
X182.17Y-41.603
X182.17Y-49.223
X182.17Y-53.915
X182.17Y-61.535
X182.17Y-66.227
X182.17Y-73.847
X182.17Y-78.539
X182.17Y-86.159
X182.17Y-90.851
X182.17Y-98.471
X184.71Y-29.291
X184.71Y-36.911
X184.71Y-41.603
X184.71Y-49.223
X184.71Y-53.915
X184.71Y-61.535
X184.71Y-66.227
X184.71Y-73.847
X184.71Y-78.539
X184.71Y-86.159
X184.71Y-90.851
X184.71Y-98.471
X189.25Y-29.291
X189.25Y-36.911
X189.25Y-41.603
X189.25Y-49.223
X189.25Y-53.915
X189.25Y-61.535
X189.25Y-66.227
X189.25Y-73.847
X189.25Y-78.539
X189.25Y-86.159
X189.25Y-90.851
X189.25Y-98.471
X191.79Y-29.291
X191.79Y-36.911
X191.79Y-41.603
X191.79Y-49.223
X191.79Y-53.915
X191.79Y-61.535
X191.79Y-66.227
X191.79Y-73.847
X191.79Y-78.539
X191.79Y-86.159
X191.79Y-90.851
X191.79Y-98.471
X194.33Y-29.291
X194.33Y-36.911
X194.33Y-41.603
X194.33Y-49.223
X194.33Y-53.915
X194.33Y-61.535
X194.33Y-66.227
X194.33Y-73.847
X194.33Y-78.539
X194.33Y-86.159
X194.33Y-90.851
X194.33Y-98.471
M30
