%TF.GenerationSoftware,KiCad,Pcbnew,9.0.6*%
%TF.CreationDate,2025-12-29T22:24:13-08:00*%
%TF.ProjectId,sot-23-panelized,736f742d-3233-42d7-9061-6e656c697a65,rev?*%
%TF.SameCoordinates,Original*%
%TF.FileFunction,Copper,L2,Bot*%
%TF.FilePolarity,Positive*%
%FSLAX46Y46*%
G04 Gerber Fmt 4.6, Leading zero omitted, Abs format (unit mm)*
G04 Created by KiCad (PCBNEW 9.0.6) date 2025-12-29 22:24:13*
%MOMM*%
%LPD*%
G01*
G04 APERTURE LIST*
%TA.AperFunction,ComponentPad*%
%ADD10R,1.700000X1.700000*%
%TD*%
%TA.AperFunction,ComponentPad*%
%ADD11C,1.700000*%
%TD*%
G04 APERTURE END LIST*
D10*
%TO.P,J2,1,Pin_1*%
%TO.N,Board_25-Net-(J2-Pin_1)*%
X174820000Y-58995000D03*
D11*
%TO.P,J2,2,Pin_2*%
%TO.N,Board_25-Net-(J2-Pin_2)*%
X177360000Y-58995000D03*
%TO.P,J2,3,Pin_3*%
%TO.N,Board_25-Net-(J2-Pin_3)*%
X179900000Y-58995000D03*
%TD*%
D10*
%TO.P,J1,1,Pin_1*%
%TO.N,Board_24-Net-(J1-Pin_1)*%
X165200000Y-69155000D03*
D11*
%TO.P,J1,2,Pin_2*%
%TO.N,Board_24-Net-(J1-Pin_2)*%
X167740000Y-69155000D03*
%TO.P,J1,3,Pin_3*%
%TO.N,Board_24-Net-(J1-Pin_3)*%
X170280000Y-69155000D03*
%TD*%
D10*
%TO.P,J1,1,Pin_1*%
%TO.N,Board_17-Net-(J1-Pin_1)*%
X184440000Y-54303000D03*
D11*
%TO.P,J1,2,Pin_2*%
%TO.N,Board_17-Net-(J1-Pin_2)*%
X186980000Y-54303000D03*
%TO.P,J1,3,Pin_3*%
%TO.N,Board_17-Net-(J1-Pin_3)*%
X189520000Y-54303000D03*
%TD*%
D10*
%TO.P,J1,1,Pin_1*%
%TO.N,Board_3-Net-(J1-Pin_1)*%
X136340000Y-39451000D03*
D11*
%TO.P,J1,2,Pin_2*%
%TO.N,Board_3-Net-(J1-Pin_2)*%
X138880000Y-39451000D03*
%TO.P,J1,3,Pin_3*%
%TO.N,Board_3-Net-(J1-Pin_3)*%
X141420000Y-39451000D03*
%TD*%
D10*
%TO.P,J1,1,Pin_1*%
%TO.N,Board_32-Net-(J1-Pin_1)*%
X155580000Y-84007000D03*
D11*
%TO.P,J1,2,Pin_2*%
%TO.N,Board_32-Net-(J1-Pin_2)*%
X158120000Y-84007000D03*
%TO.P,J1,3,Pin_3*%
%TO.N,Board_32-Net-(J1-Pin_3)*%
X160660000Y-84007000D03*
%TD*%
D10*
%TO.P,J1,1,Pin_1*%
%TO.N,Board_37-Net-(J1-Pin_1)*%
X117100000Y-98859000D03*
D11*
%TO.P,J1,2,Pin_2*%
%TO.N,Board_37-Net-(J1-Pin_2)*%
X119640000Y-98859000D03*
%TO.P,J1,3,Pin_3*%
%TO.N,Board_37-Net-(J1-Pin_3)*%
X122180000Y-98859000D03*
%TD*%
D10*
%TO.P,J1,1,Pin_1*%
%TO.N,Board_14-Net-(J1-Pin_1)*%
X155580000Y-54303000D03*
D11*
%TO.P,J1,2,Pin_2*%
%TO.N,Board_14-Net-(J1-Pin_2)*%
X158120000Y-54303000D03*
%TO.P,J1,3,Pin_3*%
%TO.N,Board_14-Net-(J1-Pin_3)*%
X160660000Y-54303000D03*
%TD*%
D10*
%TO.P,J1,1,Pin_1*%
%TO.N,Board_20-Net-(J1-Pin_1)*%
X126720000Y-69155000D03*
D11*
%TO.P,J1,2,Pin_2*%
%TO.N,Board_20-Net-(J1-Pin_2)*%
X129260000Y-69155000D03*
%TO.P,J1,3,Pin_3*%
%TO.N,Board_20-Net-(J1-Pin_3)*%
X131800000Y-69155000D03*
%TD*%
D10*
%TO.P,J1,1,Pin_1*%
%TO.N,Board_18-Net-(J1-Pin_1)*%
X107480000Y-69155000D03*
D11*
%TO.P,J1,2,Pin_2*%
%TO.N,Board_18-Net-(J1-Pin_2)*%
X110020000Y-69155000D03*
%TO.P,J1,3,Pin_3*%
%TO.N,Board_18-Net-(J1-Pin_3)*%
X112560000Y-69155000D03*
%TD*%
D10*
%TO.P,J1,1,Pin_1*%
%TO.N,Board_10-Net-(J1-Pin_1)*%
X117100000Y-54303000D03*
D11*
%TO.P,J1,2,Pin_2*%
%TO.N,Board_10-Net-(J1-Pin_2)*%
X119640000Y-54303000D03*
%TO.P,J1,3,Pin_3*%
%TO.N,Board_10-Net-(J1-Pin_3)*%
X122180000Y-54303000D03*
%TD*%
D10*
%TO.P,J2,1,Pin_1*%
%TO.N,Board_1-Net-(J2-Pin_1)*%
X117100000Y-29291000D03*
D11*
%TO.P,J2,2,Pin_2*%
%TO.N,Board_1-Net-(J2-Pin_2)*%
X119640000Y-29291000D03*
%TO.P,J2,3,Pin_3*%
%TO.N,Board_1-Net-(J2-Pin_3)*%
X122180000Y-29291000D03*
%TD*%
D10*
%TO.P,J2,1,Pin_1*%
%TO.N,Board_32-Net-(J2-Pin_1)*%
X155580000Y-73847000D03*
D11*
%TO.P,J2,2,Pin_2*%
%TO.N,Board_32-Net-(J2-Pin_2)*%
X158120000Y-73847000D03*
%TO.P,J2,3,Pin_3*%
%TO.N,Board_32-Net-(J2-Pin_3)*%
X160660000Y-73847000D03*
%TD*%
D10*
%TO.P,J1,1,Pin_1*%
%TO.N,Board_39-Net-(J1-Pin_1)*%
X136340000Y-98859000D03*
D11*
%TO.P,J1,2,Pin_2*%
%TO.N,Board_39-Net-(J1-Pin_2)*%
X138880000Y-98859000D03*
%TO.P,J1,3,Pin_3*%
%TO.N,Board_39-Net-(J1-Pin_3)*%
X141420000Y-98859000D03*
%TD*%
D10*
%TO.P,J2,1,Pin_1*%
%TO.N,Board_26-Net-(J2-Pin_1)*%
X184440000Y-58995000D03*
D11*
%TO.P,J2,2,Pin_2*%
%TO.N,Board_26-Net-(J2-Pin_2)*%
X186980000Y-58995000D03*
%TO.P,J2,3,Pin_3*%
%TO.N,Board_26-Net-(J2-Pin_3)*%
X189520000Y-58995000D03*
%TD*%
D10*
%TO.P,J2,1,Pin_1*%
%TO.N,Board_7-Net-(J2-Pin_1)*%
X174820000Y-29291000D03*
D11*
%TO.P,J2,2,Pin_2*%
%TO.N,Board_7-Net-(J2-Pin_2)*%
X177360000Y-29291000D03*
%TO.P,J2,3,Pin_3*%
%TO.N,Board_7-Net-(J2-Pin_3)*%
X179900000Y-29291000D03*
%TD*%
D10*
%TO.P,J1,1,Pin_1*%
%TO.N,Board_41-Net-(J1-Pin_1)*%
X155580000Y-98859000D03*
D11*
%TO.P,J1,2,Pin_2*%
%TO.N,Board_41-Net-(J1-Pin_2)*%
X158120000Y-98859000D03*
%TO.P,J1,3,Pin_3*%
%TO.N,Board_41-Net-(J1-Pin_3)*%
X160660000Y-98859000D03*
%TD*%
D10*
%TO.P,J2,1,Pin_1*%
%TO.N,Board_40-Net-(J2-Pin_1)*%
X145960000Y-88699000D03*
D11*
%TO.P,J2,2,Pin_2*%
%TO.N,Board_40-Net-(J2-Pin_2)*%
X148500000Y-88699000D03*
%TO.P,J2,3,Pin_3*%
%TO.N,Board_40-Net-(J2-Pin_3)*%
X151040000Y-88699000D03*
%TD*%
D10*
%TO.P,J1,1,Pin_1*%
%TO.N,Board_23-Net-(J1-Pin_1)*%
X155580000Y-69155000D03*
D11*
%TO.P,J1,2,Pin_2*%
%TO.N,Board_23-Net-(J1-Pin_2)*%
X158120000Y-69155000D03*
%TO.P,J1,3,Pin_3*%
%TO.N,Board_23-Net-(J1-Pin_3)*%
X160660000Y-69155000D03*
%TD*%
D10*
%TO.P,J2,1,Pin_1*%
%TO.N,Board_11-Net-(J2-Pin_1)*%
X126720000Y-44143000D03*
D11*
%TO.P,J2,2,Pin_2*%
%TO.N,Board_11-Net-(J2-Pin_2)*%
X129260000Y-44143000D03*
%TO.P,J2,3,Pin_3*%
%TO.N,Board_11-Net-(J2-Pin_3)*%
X131800000Y-44143000D03*
%TD*%
D10*
%TO.P,J1,1,Pin_1*%
%TO.N,Board_6-Net-(J1-Pin_1)*%
X165200000Y-39451000D03*
D11*
%TO.P,J1,2,Pin_2*%
%TO.N,Board_6-Net-(J1-Pin_2)*%
X167740000Y-39451000D03*
%TO.P,J1,3,Pin_3*%
%TO.N,Board_6-Net-(J1-Pin_3)*%
X170280000Y-39451000D03*
%TD*%
D10*
%TO.P,J1,1,Pin_1*%
%TO.N,Board_16-Net-(J1-Pin_1)*%
X174820000Y-54303000D03*
D11*
%TO.P,J1,2,Pin_2*%
%TO.N,Board_16-Net-(J1-Pin_2)*%
X177360000Y-54303000D03*
%TO.P,J1,3,Pin_3*%
%TO.N,Board_16-Net-(J1-Pin_3)*%
X179900000Y-54303000D03*
%TD*%
D10*
%TO.P,J1,1,Pin_1*%
%TO.N,Board_1-Net-(J1-Pin_1)*%
X117100000Y-39451000D03*
D11*
%TO.P,J1,2,Pin_2*%
%TO.N,Board_1-Net-(J1-Pin_2)*%
X119640000Y-39451000D03*
%TO.P,J1,3,Pin_3*%
%TO.N,Board_1-Net-(J1-Pin_3)*%
X122180000Y-39451000D03*
%TD*%
D10*
%TO.P,J2,1,Pin_1*%
%TO.N,Board_0-Net-(J2-Pin_1)*%
X107480000Y-29291000D03*
D11*
%TO.P,J2,2,Pin_2*%
%TO.N,Board_0-Net-(J2-Pin_2)*%
X110020000Y-29291000D03*
%TO.P,J2,3,Pin_3*%
%TO.N,Board_0-Net-(J2-Pin_3)*%
X112560000Y-29291000D03*
%TD*%
D10*
%TO.P,J1,1,Pin_1*%
%TO.N,Board_13-Net-(J1-Pin_1)*%
X145960000Y-54303000D03*
D11*
%TO.P,J1,2,Pin_2*%
%TO.N,Board_13-Net-(J1-Pin_2)*%
X148500000Y-54303000D03*
%TO.P,J1,3,Pin_3*%
%TO.N,Board_13-Net-(J1-Pin_3)*%
X151040000Y-54303000D03*
%TD*%
D10*
%TO.P,J2,1,Pin_1*%
%TO.N,Board_2-Net-(J2-Pin_1)*%
X126720000Y-29291000D03*
D11*
%TO.P,J2,2,Pin_2*%
%TO.N,Board_2-Net-(J2-Pin_2)*%
X129260000Y-29291000D03*
%TO.P,J2,3,Pin_3*%
%TO.N,Board_2-Net-(J2-Pin_3)*%
X131800000Y-29291000D03*
%TD*%
D10*
%TO.P,J2,1,Pin_1*%
%TO.N,Board_19-Net-(J2-Pin_1)*%
X117100000Y-58995000D03*
D11*
%TO.P,J2,2,Pin_2*%
%TO.N,Board_19-Net-(J2-Pin_2)*%
X119640000Y-58995000D03*
%TO.P,J2,3,Pin_3*%
%TO.N,Board_19-Net-(J2-Pin_3)*%
X122180000Y-58995000D03*
%TD*%
D10*
%TO.P,J2,1,Pin_1*%
%TO.N,Board_23-Net-(J2-Pin_1)*%
X155580000Y-58995000D03*
D11*
%TO.P,J2,2,Pin_2*%
%TO.N,Board_23-Net-(J2-Pin_2)*%
X158120000Y-58995000D03*
%TO.P,J2,3,Pin_3*%
%TO.N,Board_23-Net-(J2-Pin_3)*%
X160660000Y-58995000D03*
%TD*%
D10*
%TO.P,J2,1,Pin_1*%
%TO.N,Board_39-Net-(J2-Pin_1)*%
X136340000Y-88699000D03*
D11*
%TO.P,J2,2,Pin_2*%
%TO.N,Board_39-Net-(J2-Pin_2)*%
X138880000Y-88699000D03*
%TO.P,J2,3,Pin_3*%
%TO.N,Board_39-Net-(J2-Pin_3)*%
X141420000Y-88699000D03*
%TD*%
D10*
%TO.P,J2,1,Pin_1*%
%TO.N,Board_10-Net-(J2-Pin_1)*%
X117100000Y-44143000D03*
D11*
%TO.P,J2,2,Pin_2*%
%TO.N,Board_10-Net-(J2-Pin_2)*%
X119640000Y-44143000D03*
%TO.P,J2,3,Pin_3*%
%TO.N,Board_10-Net-(J2-Pin_3)*%
X122180000Y-44143000D03*
%TD*%
D10*
%TO.P,J2,1,Pin_1*%
%TO.N,Board_13-Net-(J2-Pin_1)*%
X145960000Y-44143000D03*
D11*
%TO.P,J2,2,Pin_2*%
%TO.N,Board_13-Net-(J2-Pin_2)*%
X148500000Y-44143000D03*
%TO.P,J2,3,Pin_3*%
%TO.N,Board_13-Net-(J2-Pin_3)*%
X151040000Y-44143000D03*
%TD*%
D10*
%TO.P,J1,1,Pin_1*%
%TO.N,Board_26-Net-(J1-Pin_1)*%
X184440000Y-69155000D03*
D11*
%TO.P,J1,2,Pin_2*%
%TO.N,Board_26-Net-(J1-Pin_2)*%
X186980000Y-69155000D03*
%TO.P,J1,3,Pin_3*%
%TO.N,Board_26-Net-(J1-Pin_3)*%
X189520000Y-69155000D03*
%TD*%
D10*
%TO.P,J1,1,Pin_1*%
%TO.N,Board_35-Net-(J1-Pin_1)*%
X184440000Y-84007000D03*
D11*
%TO.P,J1,2,Pin_2*%
%TO.N,Board_35-Net-(J1-Pin_2)*%
X186980000Y-84007000D03*
%TO.P,J1,3,Pin_3*%
%TO.N,Board_35-Net-(J1-Pin_3)*%
X189520000Y-84007000D03*
%TD*%
D10*
%TO.P,J1,1,Pin_1*%
%TO.N,Board_42-Net-(J1-Pin_1)*%
X165200000Y-98859000D03*
D11*
%TO.P,J1,2,Pin_2*%
%TO.N,Board_42-Net-(J1-Pin_2)*%
X167740000Y-98859000D03*
%TO.P,J1,3,Pin_3*%
%TO.N,Board_42-Net-(J1-Pin_3)*%
X170280000Y-98859000D03*
%TD*%
D10*
%TO.P,J1,1,Pin_1*%
%TO.N,Board_44-Net-(J1-Pin_1)*%
X184440000Y-98859000D03*
D11*
%TO.P,J1,2,Pin_2*%
%TO.N,Board_44-Net-(J1-Pin_2)*%
X186980000Y-98859000D03*
%TO.P,J1,3,Pin_3*%
%TO.N,Board_44-Net-(J1-Pin_3)*%
X189520000Y-98859000D03*
%TD*%
D10*
%TO.P,J1,1,Pin_1*%
%TO.N,Board_8-Net-(J1-Pin_1)*%
X184440000Y-39451000D03*
D11*
%TO.P,J1,2,Pin_2*%
%TO.N,Board_8-Net-(J1-Pin_2)*%
X186980000Y-39451000D03*
%TO.P,J1,3,Pin_3*%
%TO.N,Board_8-Net-(J1-Pin_3)*%
X189520000Y-39451000D03*
%TD*%
D10*
%TO.P,J1,1,Pin_1*%
%TO.N,Board_0-Net-(J1-Pin_1)*%
X107480000Y-39451000D03*
D11*
%TO.P,J1,2,Pin_2*%
%TO.N,Board_0-Net-(J1-Pin_2)*%
X110020000Y-39451000D03*
%TO.P,J1,3,Pin_3*%
%TO.N,Board_0-Net-(J1-Pin_3)*%
X112560000Y-39451000D03*
%TD*%
D10*
%TO.P,J1,1,Pin_1*%
%TO.N,Board_27-Net-(J1-Pin_1)*%
X107480000Y-84007000D03*
D11*
%TO.P,J1,2,Pin_2*%
%TO.N,Board_27-Net-(J1-Pin_2)*%
X110020000Y-84007000D03*
%TO.P,J1,3,Pin_3*%
%TO.N,Board_27-Net-(J1-Pin_3)*%
X112560000Y-84007000D03*
%TD*%
D10*
%TO.P,J1,1,Pin_1*%
%TO.N,Board_22-Net-(J1-Pin_1)*%
X145960000Y-69155000D03*
D11*
%TO.P,J1,2,Pin_2*%
%TO.N,Board_22-Net-(J1-Pin_2)*%
X148500000Y-69155000D03*
%TO.P,J1,3,Pin_3*%
%TO.N,Board_22-Net-(J1-Pin_3)*%
X151040000Y-69155000D03*
%TD*%
D10*
%TO.P,J2,1,Pin_1*%
%TO.N,Board_33-Net-(J2-Pin_1)*%
X165200000Y-73847000D03*
D11*
%TO.P,J2,2,Pin_2*%
%TO.N,Board_33-Net-(J2-Pin_2)*%
X167740000Y-73847000D03*
%TO.P,J2,3,Pin_3*%
%TO.N,Board_33-Net-(J2-Pin_3)*%
X170280000Y-73847000D03*
%TD*%
D10*
%TO.P,J1,1,Pin_1*%
%TO.N,Board_2-Net-(J1-Pin_1)*%
X126720000Y-39451000D03*
D11*
%TO.P,J1,2,Pin_2*%
%TO.N,Board_2-Net-(J1-Pin_2)*%
X129260000Y-39451000D03*
%TO.P,J1,3,Pin_3*%
%TO.N,Board_2-Net-(J1-Pin_3)*%
X131800000Y-39451000D03*
%TD*%
D10*
%TO.P,J1,1,Pin_1*%
%TO.N,Board_12-Net-(J1-Pin_1)*%
X136340000Y-54303000D03*
D11*
%TO.P,J1,2,Pin_2*%
%TO.N,Board_12-Net-(J1-Pin_2)*%
X138880000Y-54303000D03*
%TO.P,J1,3,Pin_3*%
%TO.N,Board_12-Net-(J1-Pin_3)*%
X141420000Y-54303000D03*
%TD*%
D10*
%TO.P,J1,1,Pin_1*%
%TO.N,Board_40-Net-(J1-Pin_1)*%
X145960000Y-98859000D03*
D11*
%TO.P,J1,2,Pin_2*%
%TO.N,Board_40-Net-(J1-Pin_2)*%
X148500000Y-98859000D03*
%TO.P,J1,3,Pin_3*%
%TO.N,Board_40-Net-(J1-Pin_3)*%
X151040000Y-98859000D03*
%TD*%
D10*
%TO.P,J2,1,Pin_1*%
%TO.N,Board_27-Net-(J2-Pin_1)*%
X107480000Y-73847000D03*
D11*
%TO.P,J2,2,Pin_2*%
%TO.N,Board_27-Net-(J2-Pin_2)*%
X110020000Y-73847000D03*
%TO.P,J2,3,Pin_3*%
%TO.N,Board_27-Net-(J2-Pin_3)*%
X112560000Y-73847000D03*
%TD*%
D10*
%TO.P,J2,1,Pin_1*%
%TO.N,Board_3-Net-(J2-Pin_1)*%
X136340000Y-29291000D03*
D11*
%TO.P,J2,2,Pin_2*%
%TO.N,Board_3-Net-(J2-Pin_2)*%
X138880000Y-29291000D03*
%TO.P,J2,3,Pin_3*%
%TO.N,Board_3-Net-(J2-Pin_3)*%
X141420000Y-29291000D03*
%TD*%
D10*
%TO.P,J2,1,Pin_1*%
%TO.N,Board_41-Net-(J2-Pin_1)*%
X155580000Y-88699000D03*
D11*
%TO.P,J2,2,Pin_2*%
%TO.N,Board_41-Net-(J2-Pin_2)*%
X158120000Y-88699000D03*
%TO.P,J2,3,Pin_3*%
%TO.N,Board_41-Net-(J2-Pin_3)*%
X160660000Y-88699000D03*
%TD*%
D10*
%TO.P,J1,1,Pin_1*%
%TO.N,Board_4-Net-(J1-Pin_1)*%
X145960000Y-39451000D03*
D11*
%TO.P,J1,2,Pin_2*%
%TO.N,Board_4-Net-(J1-Pin_2)*%
X148500000Y-39451000D03*
%TO.P,J1,3,Pin_3*%
%TO.N,Board_4-Net-(J1-Pin_3)*%
X151040000Y-39451000D03*
%TD*%
D10*
%TO.P,J1,1,Pin_1*%
%TO.N,Board_11-Net-(J1-Pin_1)*%
X126720000Y-54303000D03*
D11*
%TO.P,J1,2,Pin_2*%
%TO.N,Board_11-Net-(J1-Pin_2)*%
X129260000Y-54303000D03*
%TO.P,J1,3,Pin_3*%
%TO.N,Board_11-Net-(J1-Pin_3)*%
X131800000Y-54303000D03*
%TD*%
D10*
%TO.P,J2,1,Pin_1*%
%TO.N,Board_38-Net-(J2-Pin_1)*%
X126720000Y-88699000D03*
D11*
%TO.P,J2,2,Pin_2*%
%TO.N,Board_38-Net-(J2-Pin_2)*%
X129260000Y-88699000D03*
%TO.P,J2,3,Pin_3*%
%TO.N,Board_38-Net-(J2-Pin_3)*%
X131800000Y-88699000D03*
%TD*%
D10*
%TO.P,J2,1,Pin_1*%
%TO.N,Board_18-Net-(J2-Pin_1)*%
X107480000Y-58995000D03*
D11*
%TO.P,J2,2,Pin_2*%
%TO.N,Board_18-Net-(J2-Pin_2)*%
X110020000Y-58995000D03*
%TO.P,J2,3,Pin_3*%
%TO.N,Board_18-Net-(J2-Pin_3)*%
X112560000Y-58995000D03*
%TD*%
D10*
%TO.P,J1,1,Pin_1*%
%TO.N,Board_19-Net-(J1-Pin_1)*%
X117100000Y-69155000D03*
D11*
%TO.P,J1,2,Pin_2*%
%TO.N,Board_19-Net-(J1-Pin_2)*%
X119640000Y-69155000D03*
%TO.P,J1,3,Pin_3*%
%TO.N,Board_19-Net-(J1-Pin_3)*%
X122180000Y-69155000D03*
%TD*%
D10*
%TO.P,J1,1,Pin_1*%
%TO.N,Board_7-Net-(J1-Pin_1)*%
X174820000Y-39451000D03*
D11*
%TO.P,J1,2,Pin_2*%
%TO.N,Board_7-Net-(J1-Pin_2)*%
X177360000Y-39451000D03*
%TO.P,J1,3,Pin_3*%
%TO.N,Board_7-Net-(J1-Pin_3)*%
X179900000Y-39451000D03*
%TD*%
D10*
%TO.P,J1,1,Pin_1*%
%TO.N,Board_9-Net-(J1-Pin_1)*%
X107480000Y-54303000D03*
D11*
%TO.P,J1,2,Pin_2*%
%TO.N,Board_9-Net-(J1-Pin_2)*%
X110020000Y-54303000D03*
%TO.P,J1,3,Pin_3*%
%TO.N,Board_9-Net-(J1-Pin_3)*%
X112560000Y-54303000D03*
%TD*%
D10*
%TO.P,J2,1,Pin_1*%
%TO.N,Board_15-Net-(J2-Pin_1)*%
X165200000Y-44143000D03*
D11*
%TO.P,J2,2,Pin_2*%
%TO.N,Board_15-Net-(J2-Pin_2)*%
X167740000Y-44143000D03*
%TO.P,J2,3,Pin_3*%
%TO.N,Board_15-Net-(J2-Pin_3)*%
X170280000Y-44143000D03*
%TD*%
D10*
%TO.P,J2,1,Pin_1*%
%TO.N,Board_12-Net-(J2-Pin_1)*%
X136340000Y-44143000D03*
D11*
%TO.P,J2,2,Pin_2*%
%TO.N,Board_12-Net-(J2-Pin_2)*%
X138880000Y-44143000D03*
%TO.P,J2,3,Pin_3*%
%TO.N,Board_12-Net-(J2-Pin_3)*%
X141420000Y-44143000D03*
%TD*%
D10*
%TO.P,J2,1,Pin_1*%
%TO.N,Board_35-Net-(J2-Pin_1)*%
X184440000Y-73847000D03*
D11*
%TO.P,J2,2,Pin_2*%
%TO.N,Board_35-Net-(J2-Pin_2)*%
X186980000Y-73847000D03*
%TO.P,J2,3,Pin_3*%
%TO.N,Board_35-Net-(J2-Pin_3)*%
X189520000Y-73847000D03*
%TD*%
D10*
%TO.P,J2,1,Pin_1*%
%TO.N,Board_4-Net-(J2-Pin_1)*%
X145960000Y-29291000D03*
D11*
%TO.P,J2,2,Pin_2*%
%TO.N,Board_4-Net-(J2-Pin_2)*%
X148500000Y-29291000D03*
%TO.P,J2,3,Pin_3*%
%TO.N,Board_4-Net-(J2-Pin_3)*%
X151040000Y-29291000D03*
%TD*%
D10*
%TO.P,J2,1,Pin_1*%
%TO.N,Board_28-Net-(J2-Pin_1)*%
X117100000Y-73847000D03*
D11*
%TO.P,J2,2,Pin_2*%
%TO.N,Board_28-Net-(J2-Pin_2)*%
X119640000Y-73847000D03*
%TO.P,J2,3,Pin_3*%
%TO.N,Board_28-Net-(J2-Pin_3)*%
X122180000Y-73847000D03*
%TD*%
D10*
%TO.P,J1,1,Pin_1*%
%TO.N,Board_30-Net-(J1-Pin_1)*%
X136340000Y-84007000D03*
D11*
%TO.P,J1,2,Pin_2*%
%TO.N,Board_30-Net-(J1-Pin_2)*%
X138880000Y-84007000D03*
%TO.P,J1,3,Pin_3*%
%TO.N,Board_30-Net-(J1-Pin_3)*%
X141420000Y-84007000D03*
%TD*%
D10*
%TO.P,J2,1,Pin_1*%
%TO.N,Board_8-Net-(J2-Pin_1)*%
X184440000Y-29291000D03*
D11*
%TO.P,J2,2,Pin_2*%
%TO.N,Board_8-Net-(J2-Pin_2)*%
X186980000Y-29291000D03*
%TO.P,J2,3,Pin_3*%
%TO.N,Board_8-Net-(J2-Pin_3)*%
X189520000Y-29291000D03*
%TD*%
D10*
%TO.P,J1,1,Pin_1*%
%TO.N,Board_29-Net-(J1-Pin_1)*%
X126720000Y-84007000D03*
D11*
%TO.P,J1,2,Pin_2*%
%TO.N,Board_29-Net-(J1-Pin_2)*%
X129260000Y-84007000D03*
%TO.P,J1,3,Pin_3*%
%TO.N,Board_29-Net-(J1-Pin_3)*%
X131800000Y-84007000D03*
%TD*%
D10*
%TO.P,J1,1,Pin_1*%
%TO.N,Board_25-Net-(J1-Pin_1)*%
X174820000Y-69155000D03*
D11*
%TO.P,J1,2,Pin_2*%
%TO.N,Board_25-Net-(J1-Pin_2)*%
X177360000Y-69155000D03*
%TO.P,J1,3,Pin_3*%
%TO.N,Board_25-Net-(J1-Pin_3)*%
X179900000Y-69155000D03*
%TD*%
D10*
%TO.P,J2,1,Pin_1*%
%TO.N,Board_24-Net-(J2-Pin_1)*%
X165200000Y-58995000D03*
D11*
%TO.P,J2,2,Pin_2*%
%TO.N,Board_24-Net-(J2-Pin_2)*%
X167740000Y-58995000D03*
%TO.P,J2,3,Pin_3*%
%TO.N,Board_24-Net-(J2-Pin_3)*%
X170280000Y-58995000D03*
%TD*%
D10*
%TO.P,J2,1,Pin_1*%
%TO.N,Board_37-Net-(J2-Pin_1)*%
X117100000Y-88699000D03*
D11*
%TO.P,J2,2,Pin_2*%
%TO.N,Board_37-Net-(J2-Pin_2)*%
X119640000Y-88699000D03*
%TO.P,J2,3,Pin_3*%
%TO.N,Board_37-Net-(J2-Pin_3)*%
X122180000Y-88699000D03*
%TD*%
D10*
%TO.P,J2,1,Pin_1*%
%TO.N,Board_29-Net-(J2-Pin_1)*%
X126720000Y-73847000D03*
D11*
%TO.P,J2,2,Pin_2*%
%TO.N,Board_29-Net-(J2-Pin_2)*%
X129260000Y-73847000D03*
%TO.P,J2,3,Pin_3*%
%TO.N,Board_29-Net-(J2-Pin_3)*%
X131800000Y-73847000D03*
%TD*%
D10*
%TO.P,J1,1,Pin_1*%
%TO.N,Board_15-Net-(J1-Pin_1)*%
X165200000Y-54303000D03*
D11*
%TO.P,J1,2,Pin_2*%
%TO.N,Board_15-Net-(J1-Pin_2)*%
X167740000Y-54303000D03*
%TO.P,J1,3,Pin_3*%
%TO.N,Board_15-Net-(J1-Pin_3)*%
X170280000Y-54303000D03*
%TD*%
D10*
%TO.P,J2,1,Pin_1*%
%TO.N,Board_14-Net-(J2-Pin_1)*%
X155580000Y-44143000D03*
D11*
%TO.P,J2,2,Pin_2*%
%TO.N,Board_14-Net-(J2-Pin_2)*%
X158120000Y-44143000D03*
%TO.P,J2,3,Pin_3*%
%TO.N,Board_14-Net-(J2-Pin_3)*%
X160660000Y-44143000D03*
%TD*%
D10*
%TO.P,J2,1,Pin_1*%
%TO.N,Board_20-Net-(J2-Pin_1)*%
X126720000Y-58995000D03*
D11*
%TO.P,J2,2,Pin_2*%
%TO.N,Board_20-Net-(J2-Pin_2)*%
X129260000Y-58995000D03*
%TO.P,J2,3,Pin_3*%
%TO.N,Board_20-Net-(J2-Pin_3)*%
X131800000Y-58995000D03*
%TD*%
D10*
%TO.P,J1,1,Pin_1*%
%TO.N,Board_28-Net-(J1-Pin_1)*%
X117100000Y-84007000D03*
D11*
%TO.P,J1,2,Pin_2*%
%TO.N,Board_28-Net-(J1-Pin_2)*%
X119640000Y-84007000D03*
%TO.P,J1,3,Pin_3*%
%TO.N,Board_28-Net-(J1-Pin_3)*%
X122180000Y-84007000D03*
%TD*%
D10*
%TO.P,J1,1,Pin_1*%
%TO.N,Board_5-Net-(J1-Pin_1)*%
X155580000Y-39451000D03*
D11*
%TO.P,J1,2,Pin_2*%
%TO.N,Board_5-Net-(J1-Pin_2)*%
X158120000Y-39451000D03*
%TO.P,J1,3,Pin_3*%
%TO.N,Board_5-Net-(J1-Pin_3)*%
X160660000Y-39451000D03*
%TD*%
D10*
%TO.P,J1,1,Pin_1*%
%TO.N,Board_33-Net-(J1-Pin_1)*%
X165200000Y-84007000D03*
D11*
%TO.P,J1,2,Pin_2*%
%TO.N,Board_33-Net-(J1-Pin_2)*%
X167740000Y-84007000D03*
%TO.P,J1,3,Pin_3*%
%TO.N,Board_33-Net-(J1-Pin_3)*%
X170280000Y-84007000D03*
%TD*%
D10*
%TO.P,J2,1,Pin_1*%
%TO.N,Board_30-Net-(J2-Pin_1)*%
X136340000Y-73847000D03*
D11*
%TO.P,J2,2,Pin_2*%
%TO.N,Board_30-Net-(J2-Pin_2)*%
X138880000Y-73847000D03*
%TO.P,J2,3,Pin_3*%
%TO.N,Board_30-Net-(J2-Pin_3)*%
X141420000Y-73847000D03*
%TD*%
D10*
%TO.P,J2,1,Pin_1*%
%TO.N,Board_34-Net-(J2-Pin_1)*%
X174820000Y-73847000D03*
D11*
%TO.P,J2,2,Pin_2*%
%TO.N,Board_34-Net-(J2-Pin_2)*%
X177360000Y-73847000D03*
%TO.P,J2,3,Pin_3*%
%TO.N,Board_34-Net-(J2-Pin_3)*%
X179900000Y-73847000D03*
%TD*%
D10*
%TO.P,J2,1,Pin_1*%
%TO.N,Board_43-Net-(J2-Pin_1)*%
X174820000Y-88699000D03*
D11*
%TO.P,J2,2,Pin_2*%
%TO.N,Board_43-Net-(J2-Pin_2)*%
X177360000Y-88699000D03*
%TO.P,J2,3,Pin_3*%
%TO.N,Board_43-Net-(J2-Pin_3)*%
X179900000Y-88699000D03*
%TD*%
D10*
%TO.P,J2,1,Pin_1*%
%TO.N,Board_44-Net-(J2-Pin_1)*%
X184440000Y-88699000D03*
D11*
%TO.P,J2,2,Pin_2*%
%TO.N,Board_44-Net-(J2-Pin_2)*%
X186980000Y-88699000D03*
%TO.P,J2,3,Pin_3*%
%TO.N,Board_44-Net-(J2-Pin_3)*%
X189520000Y-88699000D03*
%TD*%
D10*
%TO.P,J1,1,Pin_1*%
%TO.N,Board_31-Net-(J1-Pin_1)*%
X145960000Y-84007000D03*
D11*
%TO.P,J1,2,Pin_2*%
%TO.N,Board_31-Net-(J1-Pin_2)*%
X148500000Y-84007000D03*
%TO.P,J1,3,Pin_3*%
%TO.N,Board_31-Net-(J1-Pin_3)*%
X151040000Y-84007000D03*
%TD*%
D10*
%TO.P,J1,1,Pin_1*%
%TO.N,Board_34-Net-(J1-Pin_1)*%
X174820000Y-84007000D03*
D11*
%TO.P,J1,2,Pin_2*%
%TO.N,Board_34-Net-(J1-Pin_2)*%
X177360000Y-84007000D03*
%TO.P,J1,3,Pin_3*%
%TO.N,Board_34-Net-(J1-Pin_3)*%
X179900000Y-84007000D03*
%TD*%
D10*
%TO.P,J1,1,Pin_1*%
%TO.N,Board_21-Net-(J1-Pin_1)*%
X136340000Y-69155000D03*
D11*
%TO.P,J1,2,Pin_2*%
%TO.N,Board_21-Net-(J1-Pin_2)*%
X138880000Y-69155000D03*
%TO.P,J1,3,Pin_3*%
%TO.N,Board_21-Net-(J1-Pin_3)*%
X141420000Y-69155000D03*
%TD*%
D10*
%TO.P,J1,1,Pin_1*%
%TO.N,Board_36-Net-(J1-Pin_1)*%
X107480000Y-98859000D03*
D11*
%TO.P,J1,2,Pin_2*%
%TO.N,Board_36-Net-(J1-Pin_2)*%
X110020000Y-98859000D03*
%TO.P,J1,3,Pin_3*%
%TO.N,Board_36-Net-(J1-Pin_3)*%
X112560000Y-98859000D03*
%TD*%
D10*
%TO.P,J2,1,Pin_1*%
%TO.N,Board_31-Net-(J2-Pin_1)*%
X145960000Y-73847000D03*
D11*
%TO.P,J2,2,Pin_2*%
%TO.N,Board_31-Net-(J2-Pin_2)*%
X148500000Y-73847000D03*
%TO.P,J2,3,Pin_3*%
%TO.N,Board_31-Net-(J2-Pin_3)*%
X151040000Y-73847000D03*
%TD*%
D10*
%TO.P,J2,1,Pin_1*%
%TO.N,Board_21-Net-(J2-Pin_1)*%
X136340000Y-58995000D03*
D11*
%TO.P,J2,2,Pin_2*%
%TO.N,Board_21-Net-(J2-Pin_2)*%
X138880000Y-58995000D03*
%TO.P,J2,3,Pin_3*%
%TO.N,Board_21-Net-(J2-Pin_3)*%
X141420000Y-58995000D03*
%TD*%
D10*
%TO.P,J2,1,Pin_1*%
%TO.N,Board_17-Net-(J2-Pin_1)*%
X184440000Y-44143000D03*
D11*
%TO.P,J2,2,Pin_2*%
%TO.N,Board_17-Net-(J2-Pin_2)*%
X186980000Y-44143000D03*
%TO.P,J2,3,Pin_3*%
%TO.N,Board_17-Net-(J2-Pin_3)*%
X189520000Y-44143000D03*
%TD*%
D10*
%TO.P,J2,1,Pin_1*%
%TO.N,Board_42-Net-(J2-Pin_1)*%
X165200000Y-88699000D03*
D11*
%TO.P,J2,2,Pin_2*%
%TO.N,Board_42-Net-(J2-Pin_2)*%
X167740000Y-88699000D03*
%TO.P,J2,3,Pin_3*%
%TO.N,Board_42-Net-(J2-Pin_3)*%
X170280000Y-88699000D03*
%TD*%
D10*
%TO.P,J2,1,Pin_1*%
%TO.N,Board_36-Net-(J2-Pin_1)*%
X107480000Y-88699000D03*
D11*
%TO.P,J2,2,Pin_2*%
%TO.N,Board_36-Net-(J2-Pin_2)*%
X110020000Y-88699000D03*
%TO.P,J2,3,Pin_3*%
%TO.N,Board_36-Net-(J2-Pin_3)*%
X112560000Y-88699000D03*
%TD*%
D10*
%TO.P,J1,1,Pin_1*%
%TO.N,Board_43-Net-(J1-Pin_1)*%
X174820000Y-98859000D03*
D11*
%TO.P,J1,2,Pin_2*%
%TO.N,Board_43-Net-(J1-Pin_2)*%
X177360000Y-98859000D03*
%TO.P,J1,3,Pin_3*%
%TO.N,Board_43-Net-(J1-Pin_3)*%
X179900000Y-98859000D03*
%TD*%
D10*
%TO.P,J2,1,Pin_1*%
%TO.N,Board_6-Net-(J2-Pin_1)*%
X165200000Y-29291000D03*
D11*
%TO.P,J2,2,Pin_2*%
%TO.N,Board_6-Net-(J2-Pin_2)*%
X167740000Y-29291000D03*
%TO.P,J2,3,Pin_3*%
%TO.N,Board_6-Net-(J2-Pin_3)*%
X170280000Y-29291000D03*
%TD*%
D10*
%TO.P,J2,1,Pin_1*%
%TO.N,Board_5-Net-(J2-Pin_1)*%
X155580000Y-29291000D03*
D11*
%TO.P,J2,2,Pin_2*%
%TO.N,Board_5-Net-(J2-Pin_2)*%
X158120000Y-29291000D03*
%TO.P,J2,3,Pin_3*%
%TO.N,Board_5-Net-(J2-Pin_3)*%
X160660000Y-29291000D03*
%TD*%
D10*
%TO.P,J2,1,Pin_1*%
%TO.N,Board_16-Net-(J2-Pin_1)*%
X174820000Y-44143000D03*
D11*
%TO.P,J2,2,Pin_2*%
%TO.N,Board_16-Net-(J2-Pin_2)*%
X177360000Y-44143000D03*
%TO.P,J2,3,Pin_3*%
%TO.N,Board_16-Net-(J2-Pin_3)*%
X179900000Y-44143000D03*
%TD*%
D10*
%TO.P,J1,1,Pin_1*%
%TO.N,Board_38-Net-(J1-Pin_1)*%
X126720000Y-98859000D03*
D11*
%TO.P,J1,2,Pin_2*%
%TO.N,Board_38-Net-(J1-Pin_2)*%
X129260000Y-98859000D03*
%TO.P,J1,3,Pin_3*%
%TO.N,Board_38-Net-(J1-Pin_3)*%
X131800000Y-98859000D03*
%TD*%
D10*
%TO.P,J2,1,Pin_1*%
%TO.N,Board_9-Net-(J2-Pin_1)*%
X107480000Y-44143000D03*
D11*
%TO.P,J2,2,Pin_2*%
%TO.N,Board_9-Net-(J2-Pin_2)*%
X110020000Y-44143000D03*
%TO.P,J2,3,Pin_3*%
%TO.N,Board_9-Net-(J2-Pin_3)*%
X112560000Y-44143000D03*
%TD*%
D10*
%TO.P,J2,1,Pin_1*%
%TO.N,Board_22-Net-(J2-Pin_1)*%
X145960000Y-58995000D03*
D11*
%TO.P,J2,2,Pin_2*%
%TO.N,Board_22-Net-(J2-Pin_2)*%
X148500000Y-58995000D03*
%TO.P,J2,3,Pin_3*%
%TO.N,Board_22-Net-(J2-Pin_3)*%
X151040000Y-58995000D03*
%TD*%
M02*
