M48
; DRILL file {KiCad 9.0.6} date 2025-12-29T22:24:49-0800
; FORMAT={-:-/ absolute / metric / decimal}
; #@! TF.CreationDate,2025-12-29T22:24:49-08:00
; #@! TF.GenerationSoftware,Kicad,Pcbnew,9.0.6
; #@! TF.FileFunction,NonPlated,1,2,NPTH
FMAT,2
METRIC
; #@! TA.AperFunction,NonPlated,NPTH,ComponentDrill
T1C0.500
%
G90
G05
T1
X108.353Y-27.801
X108.353Y-42.653
X108.353Y-57.505
X108.353Y-72.357
X108.353Y-87.209
X108.353Y-41.052
X108.353Y-55.904
X108.353Y-70.756
X108.353Y-85.608
X108.353Y-100.46
X109.187Y-27.801
X109.187Y-42.653
X109.187Y-57.505
X109.187Y-72.357
X109.187Y-87.209
X109.187Y-41.052
X109.187Y-55.904
X109.187Y-70.756
X109.187Y-85.608
X109.187Y-100.46
X110.02Y-27.801
X110.02Y-42.653
X110.02Y-57.505
X110.02Y-72.357
X110.02Y-87.209
X110.02Y-41.052
X110.02Y-55.904
X110.02Y-70.756
X110.02Y-85.608
X110.02Y-100.46
X110.853Y-27.801
X110.853Y-42.653
X110.853Y-57.505
X110.853Y-72.357
X110.853Y-87.209
X110.853Y-41.052
X110.853Y-55.904
X110.853Y-70.756
X110.853Y-85.608
X110.853Y-100.46
X111.687Y-27.801
X111.687Y-42.653
X111.687Y-57.505
X111.687Y-72.357
X111.687Y-87.209
X111.687Y-41.052
X111.687Y-55.904
X111.687Y-70.756
X111.687Y-85.608
X111.687Y-100.46
X117.973Y-27.801
X117.973Y-42.653
X117.973Y-57.505
X117.973Y-72.357
X117.973Y-87.209
X117.973Y-41.052
X117.973Y-55.904
X117.973Y-70.756
X117.973Y-85.608
X117.973Y-100.46
X118.807Y-27.801
X118.807Y-42.653
X118.807Y-57.505
X118.807Y-72.357
X118.807Y-87.209
X118.807Y-41.052
X118.807Y-55.904
X118.807Y-70.756
X118.807Y-85.608
X118.807Y-100.46
X119.64Y-27.801
X119.64Y-42.653
X119.64Y-57.505
X119.64Y-72.357
X119.64Y-87.209
X119.64Y-41.052
X119.64Y-55.904
X119.64Y-70.756
X119.64Y-85.608
X119.64Y-100.46
X120.473Y-27.801
X120.473Y-42.653
X120.473Y-57.505
X120.473Y-72.357
X120.473Y-87.209
X120.473Y-41.052
X120.473Y-55.904
X120.473Y-70.756
X120.473Y-85.608
X120.473Y-100.46
X121.307Y-27.801
X121.307Y-42.653
X121.307Y-57.505
X121.307Y-72.357
X121.307Y-87.209
X121.307Y-41.052
X121.307Y-55.904
X121.307Y-70.756
X121.307Y-85.608
X121.307Y-100.46
X127.593Y-27.801
X127.593Y-42.653
X127.593Y-57.505
X127.593Y-72.357
X127.593Y-87.209
X127.593Y-41.052
X127.593Y-55.904
X127.593Y-70.756
X127.593Y-85.608
X127.593Y-100.46
X128.427Y-27.801
X128.427Y-42.653
X128.427Y-57.505
X128.427Y-72.357
X128.427Y-87.209
X128.427Y-41.052
X128.427Y-55.904
X128.427Y-70.756
X128.427Y-85.608
X128.427Y-100.46
X129.26Y-27.801
X129.26Y-42.653
X129.26Y-57.505
X129.26Y-72.357
X129.26Y-87.209
X129.26Y-41.052
X129.26Y-55.904
X129.26Y-70.756
X129.26Y-85.608
X129.26Y-100.46
X130.093Y-27.801
X130.093Y-42.653
X130.093Y-57.505
X130.093Y-72.357
X130.093Y-87.209
X130.093Y-41.052
X130.093Y-55.904
X130.093Y-70.756
X130.093Y-85.608
X130.093Y-100.46
X130.927Y-27.801
X130.927Y-42.653
X130.927Y-57.505
X130.927Y-72.357
X130.927Y-87.209
X130.927Y-41.052
X130.927Y-55.904
X130.927Y-70.756
X130.927Y-85.608
X130.927Y-100.46
X137.213Y-27.801
X137.213Y-42.653
X137.213Y-57.505
X137.213Y-72.357
X137.213Y-87.209
X137.213Y-41.052
X137.213Y-55.904
X137.213Y-70.756
X137.213Y-85.608
X137.213Y-100.46
X138.047Y-27.801
X138.047Y-42.653
X138.047Y-57.505
X138.047Y-72.357
X138.047Y-87.209
X138.047Y-41.052
X138.047Y-55.904
X138.047Y-70.756
X138.047Y-85.608
X138.047Y-100.46
X138.88Y-27.801
X138.88Y-42.653
X138.88Y-57.505
X138.88Y-72.357
X138.88Y-87.209
X138.88Y-41.052
X138.88Y-55.904
X138.88Y-70.756
X138.88Y-85.608
X138.88Y-100.46
X139.713Y-27.801
X139.713Y-42.653
X139.713Y-57.505
X139.713Y-72.357
X139.713Y-87.209
X139.713Y-41.052
X139.713Y-55.904
X139.713Y-70.756
X139.713Y-85.608
X139.713Y-100.46
X140.547Y-27.801
X140.547Y-42.653
X140.547Y-57.505
X140.547Y-72.357
X140.547Y-87.209
X140.547Y-41.052
X140.547Y-55.904
X140.547Y-70.756
X140.547Y-85.608
X140.547Y-100.46
X146.833Y-27.801
X146.833Y-42.653
X146.833Y-57.505
X146.833Y-72.357
X146.833Y-87.209
X146.833Y-41.052
X146.833Y-55.904
X146.833Y-70.756
X146.833Y-85.608
X146.833Y-100.46
X147.667Y-27.801
X147.667Y-42.653
X147.667Y-57.505
X147.667Y-72.357
X147.667Y-87.209
X147.667Y-41.052
X147.667Y-55.904
X147.667Y-70.756
X147.667Y-85.608
X147.667Y-100.46
X148.5Y-27.801
X148.5Y-42.653
X148.5Y-57.505
X148.5Y-72.357
X148.5Y-87.209
X148.5Y-41.052
X148.5Y-55.904
X148.5Y-70.756
X148.5Y-85.608
X148.5Y-100.46
X149.333Y-27.801
X149.333Y-42.653
X149.333Y-57.505
X149.333Y-72.357
X149.333Y-87.209
X149.333Y-41.052
X149.333Y-55.904
X149.333Y-70.756
X149.333Y-85.608
X149.333Y-100.46
X150.167Y-27.801
X150.167Y-42.653
X150.167Y-57.505
X150.167Y-72.357
X150.167Y-87.209
X150.167Y-41.052
X150.167Y-55.904
X150.167Y-70.756
X150.167Y-85.608
X150.167Y-100.46
X156.453Y-27.801
X156.453Y-42.653
X156.453Y-57.505
X156.453Y-72.357
X156.453Y-87.209
X156.453Y-41.052
X156.453Y-55.904
X156.453Y-70.756
X156.453Y-85.608
X156.453Y-100.46
X157.287Y-27.801
X157.287Y-42.653
X157.287Y-57.505
X157.287Y-72.357
X157.287Y-87.209
X157.287Y-41.052
X157.287Y-55.904
X157.287Y-70.756
X157.287Y-85.608
X157.287Y-100.46
X158.12Y-27.801
X158.12Y-42.653
X158.12Y-57.505
X158.12Y-72.357
X158.12Y-87.209
X158.12Y-41.052
X158.12Y-55.904
X158.12Y-70.756
X158.12Y-85.608
X158.12Y-100.46
X158.953Y-27.801
X158.953Y-42.653
X158.953Y-57.505
X158.953Y-72.357
X158.953Y-87.209
X158.953Y-41.052
X158.953Y-55.904
X158.953Y-70.756
X158.953Y-85.608
X158.953Y-100.46
X159.787Y-27.801
X159.787Y-42.653
X159.787Y-57.505
X159.787Y-72.357
X159.787Y-87.209
X159.787Y-41.052
X159.787Y-55.904
X159.787Y-70.756
X159.787Y-85.608
X159.787Y-100.46
X166.073Y-27.801
X166.073Y-42.653
X166.073Y-57.505
X166.073Y-72.357
X166.073Y-87.209
X166.073Y-41.052
X166.073Y-55.904
X166.073Y-70.756
X166.073Y-85.608
X166.073Y-100.46
X166.907Y-27.801
X166.907Y-42.653
X166.907Y-57.505
X166.907Y-72.357
X166.907Y-87.209
X166.907Y-41.052
X166.907Y-55.904
X166.907Y-70.756
X166.907Y-85.608
X166.907Y-100.46
X167.74Y-27.801
X167.74Y-42.653
X167.74Y-57.505
X167.74Y-72.357
X167.74Y-87.209
X167.74Y-41.052
X167.74Y-55.904
X167.74Y-70.756
X167.74Y-85.608
X167.74Y-100.46
X168.573Y-27.801
X168.573Y-42.653
X168.573Y-57.505
X168.573Y-72.357
X168.573Y-87.209
X168.573Y-41.052
X168.573Y-55.904
X168.573Y-70.756
X168.573Y-85.608
X168.573Y-100.46
X169.407Y-27.801
X169.407Y-42.653
X169.407Y-57.505
X169.407Y-72.357
X169.407Y-87.209
X169.407Y-41.052
X169.407Y-55.904
X169.407Y-70.756
X169.407Y-85.608
X169.407Y-100.46
X175.693Y-27.801
X175.693Y-42.653
X175.693Y-57.505
X175.693Y-72.357
X175.693Y-87.209
X175.693Y-41.052
X175.693Y-55.904
X175.693Y-70.756
X175.693Y-85.608
X175.693Y-100.46
X176.527Y-27.801
X176.527Y-42.653
X176.527Y-57.505
X176.527Y-72.357
X176.527Y-87.209
X176.527Y-41.052
X176.527Y-55.904
X176.527Y-70.756
X176.527Y-85.608
X176.527Y-100.46
X177.36Y-27.801
X177.36Y-42.653
X177.36Y-57.505
X177.36Y-72.357
X177.36Y-87.209
X177.36Y-41.052
X177.36Y-55.904
X177.36Y-70.756
X177.36Y-85.608
X177.36Y-100.46
X178.193Y-27.801
X178.193Y-42.653
X178.193Y-57.505
X178.193Y-72.357
X178.193Y-87.209
X178.193Y-41.052
X178.193Y-55.904
X178.193Y-70.756
X178.193Y-85.608
X178.193Y-100.46
X179.027Y-27.801
X179.027Y-42.653
X179.027Y-57.505
X179.027Y-72.357
X179.027Y-87.209
X179.027Y-41.052
X179.027Y-55.904
X179.027Y-70.756
X179.027Y-85.608
X179.027Y-100.46
X185.313Y-27.801
X185.313Y-42.653
X185.313Y-57.505
X185.313Y-72.357
X185.313Y-87.209
X185.313Y-41.052
X185.313Y-55.904
X185.313Y-70.756
X185.313Y-85.608
X185.313Y-100.46
X186.147Y-27.801
X186.147Y-42.653
X186.147Y-57.505
X186.147Y-72.357
X186.147Y-87.209
X186.147Y-41.052
X186.147Y-55.904
X186.147Y-70.756
X186.147Y-85.608
X186.147Y-100.46
X186.98Y-27.801
X186.98Y-42.653
X186.98Y-57.505
X186.98Y-72.357
X186.98Y-87.209
X186.98Y-41.052
X186.98Y-55.904
X186.98Y-70.756
X186.98Y-85.608
X186.98Y-100.46
X187.813Y-27.801
X187.813Y-42.653
X187.813Y-57.505
X187.813Y-72.357
X187.813Y-87.209
X187.813Y-41.052
X187.813Y-55.904
X187.813Y-70.756
X187.813Y-85.608
X187.813Y-100.46
X188.647Y-27.801
X188.647Y-42.653
X188.647Y-57.505
X188.647Y-72.357
X188.647Y-87.209
X188.647Y-41.052
X188.647Y-55.904
X188.647Y-70.756
X188.647Y-85.608
X188.647Y-100.46
M30
