%TF.GenerationSoftware,KiCad,Pcbnew,9.0.6*%
%TF.CreationDate,2025-12-29T22:24:13-08:00*%
%TF.ProjectId,sot-23-panelized,736f742d-3233-42d7-9061-6e656c697a65,rev?*%
%TF.SameCoordinates,Original*%
%TF.FileFunction,Copper,L1,Top*%
%TF.FilePolarity,Positive*%
%FSLAX46Y46*%
G04 Gerber Fmt 4.6, Leading zero omitted, Abs format (unit mm)*
G04 Created by KiCad (PCBNEW 9.0.6) date 2025-12-29 22:24:13*
%MOMM*%
%LPD*%
G01*
G04 APERTURE LIST*
G04 Aperture macros list*
%AMRoundRect*
0 Rectangle with rounded corners*
0 $1 Rounding radius*
0 $2 $3 $4 $5 $6 $7 $8 $9 X,Y pos of 4 corners*
0 Add a 4 corners polygon primitive as box body*
4,1,4,$2,$3,$4,$5,$6,$7,$8,$9,$2,$3,0*
0 Add four circle primitives for the rounded corners*
1,1,$1+$1,$2,$3*
1,1,$1+$1,$4,$5*
1,1,$1+$1,$6,$7*
1,1,$1+$1,$8,$9*
0 Add four rect primitives between the rounded corners*
20,1,$1+$1,$2,$3,$4,$5,0*
20,1,$1+$1,$4,$5,$6,$7,0*
20,1,$1+$1,$6,$7,$8,$9,0*
20,1,$1+$1,$8,$9,$2,$3,0*%
G04 Aperture macros list end*
%TA.AperFunction,ComponentPad*%
%ADD10R,1.700000X1.700000*%
%TD*%
%TA.AperFunction,ComponentPad*%
%ADD11C,1.700000*%
%TD*%
%TA.AperFunction,SMDPad,CuDef*%
%ADD12RoundRect,0.150000X0.150000X-0.512500X0.150000X0.512500X-0.150000X0.512500X-0.150000X-0.512500X0*%
%TD*%
%TA.AperFunction,Conductor*%
%ADD13C,0.500000*%
%TD*%
G04 APERTURE END LIST*
D10*
%TO.P,J2,1,Pin_1*%
%TO.N,Board_25-Net-(J2-Pin_1)*%
X174820000Y-58995000D03*
D11*
%TO.P,J2,2,Pin_2*%
%TO.N,Board_25-Net-(J2-Pin_2)*%
X177360000Y-58995000D03*
%TO.P,J2,3,Pin_3*%
%TO.N,Board_25-Net-(J2-Pin_3)*%
X179900000Y-58995000D03*
%TD*%
D10*
%TO.P,J1,1,Pin_1*%
%TO.N,Board_24-Net-(J1-Pin_1)*%
X165200000Y-69155000D03*
D11*
%TO.P,J1,2,Pin_2*%
%TO.N,Board_24-Net-(J1-Pin_2)*%
X167740000Y-69155000D03*
%TO.P,J1,3,Pin_3*%
%TO.N,Board_24-Net-(J1-Pin_3)*%
X170280000Y-69155000D03*
%TD*%
D12*
%TO.P,Q1,1,E1*%
%TO.N,Board_20-Net-(J1-Pin_1)*%
X128310000Y-65070500D03*
%TO.P,Q1,2,B1*%
%TO.N,Board_20-Net-(J1-Pin_2)*%
X129260000Y-65070500D03*
%TO.P,Q1,3,C2*%
%TO.N,Board_20-Net-(J1-Pin_3)*%
X130210000Y-65070500D03*
%TO.P,Q1,4,E2*%
%TO.N,Board_20-Net-(J2-Pin_3)*%
X130210000Y-62795500D03*
%TO.P,Q1,5,B2*%
%TO.N,Board_20-Net-(J2-Pin_2)*%
X129260000Y-62795500D03*
%TO.P,Q1,6,C1*%
%TO.N,Board_20-Net-(J2-Pin_1)*%
X128310000Y-62795500D03*
%TD*%
D10*
%TO.P,J1,1,Pin_1*%
%TO.N,Board_17-Net-(J1-Pin_1)*%
X184440000Y-54303000D03*
D11*
%TO.P,J1,2,Pin_2*%
%TO.N,Board_17-Net-(J1-Pin_2)*%
X186980000Y-54303000D03*
%TO.P,J1,3,Pin_3*%
%TO.N,Board_17-Net-(J1-Pin_3)*%
X189520000Y-54303000D03*
%TD*%
D12*
%TO.P,Q1,1,E1*%
%TO.N,Board_29-Net-(J1-Pin_1)*%
X128310000Y-79922500D03*
%TO.P,Q1,2,B1*%
%TO.N,Board_29-Net-(J1-Pin_2)*%
X129260000Y-79922500D03*
%TO.P,Q1,3,C2*%
%TO.N,Board_29-Net-(J1-Pin_3)*%
X130210000Y-79922500D03*
%TO.P,Q1,4,E2*%
%TO.N,Board_29-Net-(J2-Pin_3)*%
X130210000Y-77647500D03*
%TO.P,Q1,5,B2*%
%TO.N,Board_29-Net-(J2-Pin_2)*%
X129260000Y-77647500D03*
%TO.P,Q1,6,C1*%
%TO.N,Board_29-Net-(J2-Pin_1)*%
X128310000Y-77647500D03*
%TD*%
D10*
%TO.P,J1,1,Pin_1*%
%TO.N,Board_3-Net-(J1-Pin_1)*%
X136340000Y-39451000D03*
D11*
%TO.P,J1,2,Pin_2*%
%TO.N,Board_3-Net-(J1-Pin_2)*%
X138880000Y-39451000D03*
%TO.P,J1,3,Pin_3*%
%TO.N,Board_3-Net-(J1-Pin_3)*%
X141420000Y-39451000D03*
%TD*%
D12*
%TO.P,Q1,1,E1*%
%TO.N,Board_21-Net-(J1-Pin_1)*%
X137930000Y-65070500D03*
%TO.P,Q1,2,B1*%
%TO.N,Board_21-Net-(J1-Pin_2)*%
X138880000Y-65070500D03*
%TO.P,Q1,3,C2*%
%TO.N,Board_21-Net-(J1-Pin_3)*%
X139830000Y-65070500D03*
%TO.P,Q1,4,E2*%
%TO.N,Board_21-Net-(J2-Pin_3)*%
X139830000Y-62795500D03*
%TO.P,Q1,5,B2*%
%TO.N,Board_21-Net-(J2-Pin_2)*%
X138880000Y-62795500D03*
%TO.P,Q1,6,C1*%
%TO.N,Board_21-Net-(J2-Pin_1)*%
X137930000Y-62795500D03*
%TD*%
D10*
%TO.P,J1,1,Pin_1*%
%TO.N,Board_32-Net-(J1-Pin_1)*%
X155580000Y-84007000D03*
D11*
%TO.P,J1,2,Pin_2*%
%TO.N,Board_32-Net-(J1-Pin_2)*%
X158120000Y-84007000D03*
%TO.P,J1,3,Pin_3*%
%TO.N,Board_32-Net-(J1-Pin_3)*%
X160660000Y-84007000D03*
%TD*%
D12*
%TO.P,Q1,1,E1*%
%TO.N,Board_2-Net-(J1-Pin_1)*%
X128310000Y-35366500D03*
%TO.P,Q1,2,B1*%
%TO.N,Board_2-Net-(J1-Pin_2)*%
X129260000Y-35366500D03*
%TO.P,Q1,3,C2*%
%TO.N,Board_2-Net-(J1-Pin_3)*%
X130210000Y-35366500D03*
%TO.P,Q1,4,E2*%
%TO.N,Board_2-Net-(J2-Pin_3)*%
X130210000Y-33091500D03*
%TO.P,Q1,5,B2*%
%TO.N,Board_2-Net-(J2-Pin_2)*%
X129260000Y-33091500D03*
%TO.P,Q1,6,C1*%
%TO.N,Board_2-Net-(J2-Pin_1)*%
X128310000Y-33091500D03*
%TD*%
%TO.P,Q1,1,E1*%
%TO.N,Board_13-Net-(J1-Pin_1)*%
X147550000Y-50218500D03*
%TO.P,Q1,2,B1*%
%TO.N,Board_13-Net-(J1-Pin_2)*%
X148500000Y-50218500D03*
%TO.P,Q1,3,C2*%
%TO.N,Board_13-Net-(J1-Pin_3)*%
X149450000Y-50218500D03*
%TO.P,Q1,4,E2*%
%TO.N,Board_13-Net-(J2-Pin_3)*%
X149450000Y-47943500D03*
%TO.P,Q1,5,B2*%
%TO.N,Board_13-Net-(J2-Pin_2)*%
X148500000Y-47943500D03*
%TO.P,Q1,6,C1*%
%TO.N,Board_13-Net-(J2-Pin_1)*%
X147550000Y-47943500D03*
%TD*%
%TO.P,Q1,1,E1*%
%TO.N,Board_6-Net-(J1-Pin_1)*%
X166790000Y-35366500D03*
%TO.P,Q1,2,B1*%
%TO.N,Board_6-Net-(J1-Pin_2)*%
X167740000Y-35366500D03*
%TO.P,Q1,3,C2*%
%TO.N,Board_6-Net-(J1-Pin_3)*%
X168690000Y-35366500D03*
%TO.P,Q1,4,E2*%
%TO.N,Board_6-Net-(J2-Pin_3)*%
X168690000Y-33091500D03*
%TO.P,Q1,5,B2*%
%TO.N,Board_6-Net-(J2-Pin_2)*%
X167740000Y-33091500D03*
%TO.P,Q1,6,C1*%
%TO.N,Board_6-Net-(J2-Pin_1)*%
X166790000Y-33091500D03*
%TD*%
D10*
%TO.P,J1,1,Pin_1*%
%TO.N,Board_37-Net-(J1-Pin_1)*%
X117100000Y-98859000D03*
D11*
%TO.P,J1,2,Pin_2*%
%TO.N,Board_37-Net-(J1-Pin_2)*%
X119640000Y-98859000D03*
%TO.P,J1,3,Pin_3*%
%TO.N,Board_37-Net-(J1-Pin_3)*%
X122180000Y-98859000D03*
%TD*%
D10*
%TO.P,J1,1,Pin_1*%
%TO.N,Board_14-Net-(J1-Pin_1)*%
X155580000Y-54303000D03*
D11*
%TO.P,J1,2,Pin_2*%
%TO.N,Board_14-Net-(J1-Pin_2)*%
X158120000Y-54303000D03*
%TO.P,J1,3,Pin_3*%
%TO.N,Board_14-Net-(J1-Pin_3)*%
X160660000Y-54303000D03*
%TD*%
D12*
%TO.P,Q1,1,E1*%
%TO.N,Board_43-Net-(J1-Pin_1)*%
X176410000Y-94774500D03*
%TO.P,Q1,2,B1*%
%TO.N,Board_43-Net-(J1-Pin_2)*%
X177360000Y-94774500D03*
%TO.P,Q1,3,C2*%
%TO.N,Board_43-Net-(J1-Pin_3)*%
X178310000Y-94774500D03*
%TO.P,Q1,4,E2*%
%TO.N,Board_43-Net-(J2-Pin_3)*%
X178310000Y-92499500D03*
%TO.P,Q1,5,B2*%
%TO.N,Board_43-Net-(J2-Pin_2)*%
X177360000Y-92499500D03*
%TO.P,Q1,6,C1*%
%TO.N,Board_43-Net-(J2-Pin_1)*%
X176410000Y-92499500D03*
%TD*%
%TO.P,Q1,1,E1*%
%TO.N,Board_25-Net-(J1-Pin_1)*%
X176410000Y-65070500D03*
%TO.P,Q1,2,B1*%
%TO.N,Board_25-Net-(J1-Pin_2)*%
X177360000Y-65070500D03*
%TO.P,Q1,3,C2*%
%TO.N,Board_25-Net-(J1-Pin_3)*%
X178310000Y-65070500D03*
%TO.P,Q1,4,E2*%
%TO.N,Board_25-Net-(J2-Pin_3)*%
X178310000Y-62795500D03*
%TO.P,Q1,5,B2*%
%TO.N,Board_25-Net-(J2-Pin_2)*%
X177360000Y-62795500D03*
%TO.P,Q1,6,C1*%
%TO.N,Board_25-Net-(J2-Pin_1)*%
X176410000Y-62795500D03*
%TD*%
%TO.P,Q1,1,E1*%
%TO.N,Board_31-Net-(J1-Pin_1)*%
X147550000Y-79922500D03*
%TO.P,Q1,2,B1*%
%TO.N,Board_31-Net-(J1-Pin_2)*%
X148500000Y-79922500D03*
%TO.P,Q1,3,C2*%
%TO.N,Board_31-Net-(J1-Pin_3)*%
X149450000Y-79922500D03*
%TO.P,Q1,4,E2*%
%TO.N,Board_31-Net-(J2-Pin_3)*%
X149450000Y-77647500D03*
%TO.P,Q1,5,B2*%
%TO.N,Board_31-Net-(J2-Pin_2)*%
X148500000Y-77647500D03*
%TO.P,Q1,6,C1*%
%TO.N,Board_31-Net-(J2-Pin_1)*%
X147550000Y-77647500D03*
%TD*%
D10*
%TO.P,J1,1,Pin_1*%
%TO.N,Board_20-Net-(J1-Pin_1)*%
X126720000Y-69155000D03*
D11*
%TO.P,J1,2,Pin_2*%
%TO.N,Board_20-Net-(J1-Pin_2)*%
X129260000Y-69155000D03*
%TO.P,J1,3,Pin_3*%
%TO.N,Board_20-Net-(J1-Pin_3)*%
X131800000Y-69155000D03*
%TD*%
D10*
%TO.P,J1,1,Pin_1*%
%TO.N,Board_18-Net-(J1-Pin_1)*%
X107480000Y-69155000D03*
D11*
%TO.P,J1,2,Pin_2*%
%TO.N,Board_18-Net-(J1-Pin_2)*%
X110020000Y-69155000D03*
%TO.P,J1,3,Pin_3*%
%TO.N,Board_18-Net-(J1-Pin_3)*%
X112560000Y-69155000D03*
%TD*%
D10*
%TO.P,J1,1,Pin_1*%
%TO.N,Board_10-Net-(J1-Pin_1)*%
X117100000Y-54303000D03*
D11*
%TO.P,J1,2,Pin_2*%
%TO.N,Board_10-Net-(J1-Pin_2)*%
X119640000Y-54303000D03*
%TO.P,J1,3,Pin_3*%
%TO.N,Board_10-Net-(J1-Pin_3)*%
X122180000Y-54303000D03*
%TD*%
D10*
%TO.P,J2,1,Pin_1*%
%TO.N,Board_1-Net-(J2-Pin_1)*%
X117100000Y-29291000D03*
D11*
%TO.P,J2,2,Pin_2*%
%TO.N,Board_1-Net-(J2-Pin_2)*%
X119640000Y-29291000D03*
%TO.P,J2,3,Pin_3*%
%TO.N,Board_1-Net-(J2-Pin_3)*%
X122180000Y-29291000D03*
%TD*%
D10*
%TO.P,J2,1,Pin_1*%
%TO.N,Board_32-Net-(J2-Pin_1)*%
X155580000Y-73847000D03*
D11*
%TO.P,J2,2,Pin_2*%
%TO.N,Board_32-Net-(J2-Pin_2)*%
X158120000Y-73847000D03*
%TO.P,J2,3,Pin_3*%
%TO.N,Board_32-Net-(J2-Pin_3)*%
X160660000Y-73847000D03*
%TD*%
D10*
%TO.P,J1,1,Pin_1*%
%TO.N,Board_39-Net-(J1-Pin_1)*%
X136340000Y-98859000D03*
D11*
%TO.P,J1,2,Pin_2*%
%TO.N,Board_39-Net-(J1-Pin_2)*%
X138880000Y-98859000D03*
%TO.P,J1,3,Pin_3*%
%TO.N,Board_39-Net-(J1-Pin_3)*%
X141420000Y-98859000D03*
%TD*%
D10*
%TO.P,J2,1,Pin_1*%
%TO.N,Board_26-Net-(J2-Pin_1)*%
X184440000Y-58995000D03*
D11*
%TO.P,J2,2,Pin_2*%
%TO.N,Board_26-Net-(J2-Pin_2)*%
X186980000Y-58995000D03*
%TO.P,J2,3,Pin_3*%
%TO.N,Board_26-Net-(J2-Pin_3)*%
X189520000Y-58995000D03*
%TD*%
D10*
%TO.P,J2,1,Pin_1*%
%TO.N,Board_7-Net-(J2-Pin_1)*%
X174820000Y-29291000D03*
D11*
%TO.P,J2,2,Pin_2*%
%TO.N,Board_7-Net-(J2-Pin_2)*%
X177360000Y-29291000D03*
%TO.P,J2,3,Pin_3*%
%TO.N,Board_7-Net-(J2-Pin_3)*%
X179900000Y-29291000D03*
%TD*%
D10*
%TO.P,J1,1,Pin_1*%
%TO.N,Board_41-Net-(J1-Pin_1)*%
X155580000Y-98859000D03*
D11*
%TO.P,J1,2,Pin_2*%
%TO.N,Board_41-Net-(J1-Pin_2)*%
X158120000Y-98859000D03*
%TO.P,J1,3,Pin_3*%
%TO.N,Board_41-Net-(J1-Pin_3)*%
X160660000Y-98859000D03*
%TD*%
D12*
%TO.P,Q1,1,E1*%
%TO.N,Board_9-Net-(J1-Pin_1)*%
X109070000Y-50218500D03*
%TO.P,Q1,2,B1*%
%TO.N,Board_9-Net-(J1-Pin_2)*%
X110020000Y-50218500D03*
%TO.P,Q1,3,C2*%
%TO.N,Board_9-Net-(J1-Pin_3)*%
X110970000Y-50218500D03*
%TO.P,Q1,4,E2*%
%TO.N,Board_9-Net-(J2-Pin_3)*%
X110970000Y-47943500D03*
%TO.P,Q1,5,B2*%
%TO.N,Board_9-Net-(J2-Pin_2)*%
X110020000Y-47943500D03*
%TO.P,Q1,6,C1*%
%TO.N,Board_9-Net-(J2-Pin_1)*%
X109070000Y-47943500D03*
%TD*%
%TO.P,Q1,1,E1*%
%TO.N,Board_32-Net-(J1-Pin_1)*%
X157170000Y-79922500D03*
%TO.P,Q1,2,B1*%
%TO.N,Board_32-Net-(J1-Pin_2)*%
X158120000Y-79922500D03*
%TO.P,Q1,3,C2*%
%TO.N,Board_32-Net-(J1-Pin_3)*%
X159070000Y-79922500D03*
%TO.P,Q1,4,E2*%
%TO.N,Board_32-Net-(J2-Pin_3)*%
X159070000Y-77647500D03*
%TO.P,Q1,5,B2*%
%TO.N,Board_32-Net-(J2-Pin_2)*%
X158120000Y-77647500D03*
%TO.P,Q1,6,C1*%
%TO.N,Board_32-Net-(J2-Pin_1)*%
X157170000Y-77647500D03*
%TD*%
D10*
%TO.P,J2,1,Pin_1*%
%TO.N,Board_40-Net-(J2-Pin_1)*%
X145960000Y-88699000D03*
D11*
%TO.P,J2,2,Pin_2*%
%TO.N,Board_40-Net-(J2-Pin_2)*%
X148500000Y-88699000D03*
%TO.P,J2,3,Pin_3*%
%TO.N,Board_40-Net-(J2-Pin_3)*%
X151040000Y-88699000D03*
%TD*%
D10*
%TO.P,J1,1,Pin_1*%
%TO.N,Board_23-Net-(J1-Pin_1)*%
X155580000Y-69155000D03*
D11*
%TO.P,J1,2,Pin_2*%
%TO.N,Board_23-Net-(J1-Pin_2)*%
X158120000Y-69155000D03*
%TO.P,J1,3,Pin_3*%
%TO.N,Board_23-Net-(J1-Pin_3)*%
X160660000Y-69155000D03*
%TD*%
D10*
%TO.P,J2,1,Pin_1*%
%TO.N,Board_11-Net-(J2-Pin_1)*%
X126720000Y-44143000D03*
D11*
%TO.P,J2,2,Pin_2*%
%TO.N,Board_11-Net-(J2-Pin_2)*%
X129260000Y-44143000D03*
%TO.P,J2,3,Pin_3*%
%TO.N,Board_11-Net-(J2-Pin_3)*%
X131800000Y-44143000D03*
%TD*%
D12*
%TO.P,Q1,1,E1*%
%TO.N,Board_15-Net-(J1-Pin_1)*%
X166790000Y-50218500D03*
%TO.P,Q1,2,B1*%
%TO.N,Board_15-Net-(J1-Pin_2)*%
X167740000Y-50218500D03*
%TO.P,Q1,3,C2*%
%TO.N,Board_15-Net-(J1-Pin_3)*%
X168690000Y-50218500D03*
%TO.P,Q1,4,E2*%
%TO.N,Board_15-Net-(J2-Pin_3)*%
X168690000Y-47943500D03*
%TO.P,Q1,5,B2*%
%TO.N,Board_15-Net-(J2-Pin_2)*%
X167740000Y-47943500D03*
%TO.P,Q1,6,C1*%
%TO.N,Board_15-Net-(J2-Pin_1)*%
X166790000Y-47943500D03*
%TD*%
D10*
%TO.P,J1,1,Pin_1*%
%TO.N,Board_6-Net-(J1-Pin_1)*%
X165200000Y-39451000D03*
D11*
%TO.P,J1,2,Pin_2*%
%TO.N,Board_6-Net-(J1-Pin_2)*%
X167740000Y-39451000D03*
%TO.P,J1,3,Pin_3*%
%TO.N,Board_6-Net-(J1-Pin_3)*%
X170280000Y-39451000D03*
%TD*%
D10*
%TO.P,J1,1,Pin_1*%
%TO.N,Board_16-Net-(J1-Pin_1)*%
X174820000Y-54303000D03*
D11*
%TO.P,J1,2,Pin_2*%
%TO.N,Board_16-Net-(J1-Pin_2)*%
X177360000Y-54303000D03*
%TO.P,J1,3,Pin_3*%
%TO.N,Board_16-Net-(J1-Pin_3)*%
X179900000Y-54303000D03*
%TD*%
D10*
%TO.P,J1,1,Pin_1*%
%TO.N,Board_1-Net-(J1-Pin_1)*%
X117100000Y-39451000D03*
D11*
%TO.P,J1,2,Pin_2*%
%TO.N,Board_1-Net-(J1-Pin_2)*%
X119640000Y-39451000D03*
%TO.P,J1,3,Pin_3*%
%TO.N,Board_1-Net-(J1-Pin_3)*%
X122180000Y-39451000D03*
%TD*%
D10*
%TO.P,J2,1,Pin_1*%
%TO.N,Board_0-Net-(J2-Pin_1)*%
X107480000Y-29291000D03*
D11*
%TO.P,J2,2,Pin_2*%
%TO.N,Board_0-Net-(J2-Pin_2)*%
X110020000Y-29291000D03*
%TO.P,J2,3,Pin_3*%
%TO.N,Board_0-Net-(J2-Pin_3)*%
X112560000Y-29291000D03*
%TD*%
D12*
%TO.P,Q1,1,E1*%
%TO.N,Board_37-Net-(J1-Pin_1)*%
X118690000Y-94774500D03*
%TO.P,Q1,2,B1*%
%TO.N,Board_37-Net-(J1-Pin_2)*%
X119640000Y-94774500D03*
%TO.P,Q1,3,C2*%
%TO.N,Board_37-Net-(J1-Pin_3)*%
X120590000Y-94774500D03*
%TO.P,Q1,4,E2*%
%TO.N,Board_37-Net-(J2-Pin_3)*%
X120590000Y-92499500D03*
%TO.P,Q1,5,B2*%
%TO.N,Board_37-Net-(J2-Pin_2)*%
X119640000Y-92499500D03*
%TO.P,Q1,6,C1*%
%TO.N,Board_37-Net-(J2-Pin_1)*%
X118690000Y-92499500D03*
%TD*%
D10*
%TO.P,J1,1,Pin_1*%
%TO.N,Board_13-Net-(J1-Pin_1)*%
X145960000Y-54303000D03*
D11*
%TO.P,J1,2,Pin_2*%
%TO.N,Board_13-Net-(J1-Pin_2)*%
X148500000Y-54303000D03*
%TO.P,J1,3,Pin_3*%
%TO.N,Board_13-Net-(J1-Pin_3)*%
X151040000Y-54303000D03*
%TD*%
D10*
%TO.P,J2,1,Pin_1*%
%TO.N,Board_2-Net-(J2-Pin_1)*%
X126720000Y-29291000D03*
D11*
%TO.P,J2,2,Pin_2*%
%TO.N,Board_2-Net-(J2-Pin_2)*%
X129260000Y-29291000D03*
%TO.P,J2,3,Pin_3*%
%TO.N,Board_2-Net-(J2-Pin_3)*%
X131800000Y-29291000D03*
%TD*%
D12*
%TO.P,Q1,1,E1*%
%TO.N,Board_24-Net-(J1-Pin_1)*%
X166790000Y-65070500D03*
%TO.P,Q1,2,B1*%
%TO.N,Board_24-Net-(J1-Pin_2)*%
X167740000Y-65070500D03*
%TO.P,Q1,3,C2*%
%TO.N,Board_24-Net-(J1-Pin_3)*%
X168690000Y-65070500D03*
%TO.P,Q1,4,E2*%
%TO.N,Board_24-Net-(J2-Pin_3)*%
X168690000Y-62795500D03*
%TO.P,Q1,5,B2*%
%TO.N,Board_24-Net-(J2-Pin_2)*%
X167740000Y-62795500D03*
%TO.P,Q1,6,C1*%
%TO.N,Board_24-Net-(J2-Pin_1)*%
X166790000Y-62795500D03*
%TD*%
D10*
%TO.P,J2,1,Pin_1*%
%TO.N,Board_19-Net-(J2-Pin_1)*%
X117100000Y-58995000D03*
D11*
%TO.P,J2,2,Pin_2*%
%TO.N,Board_19-Net-(J2-Pin_2)*%
X119640000Y-58995000D03*
%TO.P,J2,3,Pin_3*%
%TO.N,Board_19-Net-(J2-Pin_3)*%
X122180000Y-58995000D03*
%TD*%
D10*
%TO.P,J2,1,Pin_1*%
%TO.N,Board_23-Net-(J2-Pin_1)*%
X155580000Y-58995000D03*
D11*
%TO.P,J2,2,Pin_2*%
%TO.N,Board_23-Net-(J2-Pin_2)*%
X158120000Y-58995000D03*
%TO.P,J2,3,Pin_3*%
%TO.N,Board_23-Net-(J2-Pin_3)*%
X160660000Y-58995000D03*
%TD*%
D12*
%TO.P,Q1,1,E1*%
%TO.N,Board_19-Net-(J1-Pin_1)*%
X118690000Y-65070500D03*
%TO.P,Q1,2,B1*%
%TO.N,Board_19-Net-(J1-Pin_2)*%
X119640000Y-65070500D03*
%TO.P,Q1,3,C2*%
%TO.N,Board_19-Net-(J1-Pin_3)*%
X120590000Y-65070500D03*
%TO.P,Q1,4,E2*%
%TO.N,Board_19-Net-(J2-Pin_3)*%
X120590000Y-62795500D03*
%TO.P,Q1,5,B2*%
%TO.N,Board_19-Net-(J2-Pin_2)*%
X119640000Y-62795500D03*
%TO.P,Q1,6,C1*%
%TO.N,Board_19-Net-(J2-Pin_1)*%
X118690000Y-62795500D03*
%TD*%
D10*
%TO.P,J2,1,Pin_1*%
%TO.N,Board_39-Net-(J2-Pin_1)*%
X136340000Y-88699000D03*
D11*
%TO.P,J2,2,Pin_2*%
%TO.N,Board_39-Net-(J2-Pin_2)*%
X138880000Y-88699000D03*
%TO.P,J2,3,Pin_3*%
%TO.N,Board_39-Net-(J2-Pin_3)*%
X141420000Y-88699000D03*
%TD*%
D10*
%TO.P,J2,1,Pin_1*%
%TO.N,Board_10-Net-(J2-Pin_1)*%
X117100000Y-44143000D03*
D11*
%TO.P,J2,2,Pin_2*%
%TO.N,Board_10-Net-(J2-Pin_2)*%
X119640000Y-44143000D03*
%TO.P,J2,3,Pin_3*%
%TO.N,Board_10-Net-(J2-Pin_3)*%
X122180000Y-44143000D03*
%TD*%
D10*
%TO.P,J2,1,Pin_1*%
%TO.N,Board_13-Net-(J2-Pin_1)*%
X145960000Y-44143000D03*
D11*
%TO.P,J2,2,Pin_2*%
%TO.N,Board_13-Net-(J2-Pin_2)*%
X148500000Y-44143000D03*
%TO.P,J2,3,Pin_3*%
%TO.N,Board_13-Net-(J2-Pin_3)*%
X151040000Y-44143000D03*
%TD*%
D10*
%TO.P,J1,1,Pin_1*%
%TO.N,Board_26-Net-(J1-Pin_1)*%
X184440000Y-69155000D03*
D11*
%TO.P,J1,2,Pin_2*%
%TO.N,Board_26-Net-(J1-Pin_2)*%
X186980000Y-69155000D03*
%TO.P,J1,3,Pin_3*%
%TO.N,Board_26-Net-(J1-Pin_3)*%
X189520000Y-69155000D03*
%TD*%
D12*
%TO.P,Q1,1,E1*%
%TO.N,Board_5-Net-(J1-Pin_1)*%
X157170000Y-35366500D03*
%TO.P,Q1,2,B1*%
%TO.N,Board_5-Net-(J1-Pin_2)*%
X158120000Y-35366500D03*
%TO.P,Q1,3,C2*%
%TO.N,Board_5-Net-(J1-Pin_3)*%
X159070000Y-35366500D03*
%TO.P,Q1,4,E2*%
%TO.N,Board_5-Net-(J2-Pin_3)*%
X159070000Y-33091500D03*
%TO.P,Q1,5,B2*%
%TO.N,Board_5-Net-(J2-Pin_2)*%
X158120000Y-33091500D03*
%TO.P,Q1,6,C1*%
%TO.N,Board_5-Net-(J2-Pin_1)*%
X157170000Y-33091500D03*
%TD*%
D10*
%TO.P,J1,1,Pin_1*%
%TO.N,Board_35-Net-(J1-Pin_1)*%
X184440000Y-84007000D03*
D11*
%TO.P,J1,2,Pin_2*%
%TO.N,Board_35-Net-(J1-Pin_2)*%
X186980000Y-84007000D03*
%TO.P,J1,3,Pin_3*%
%TO.N,Board_35-Net-(J1-Pin_3)*%
X189520000Y-84007000D03*
%TD*%
D12*
%TO.P,Q1,1,E1*%
%TO.N,Board_10-Net-(J1-Pin_1)*%
X118690000Y-50218500D03*
%TO.P,Q1,2,B1*%
%TO.N,Board_10-Net-(J1-Pin_2)*%
X119640000Y-50218500D03*
%TO.P,Q1,3,C2*%
%TO.N,Board_10-Net-(J1-Pin_3)*%
X120590000Y-50218500D03*
%TO.P,Q1,4,E2*%
%TO.N,Board_10-Net-(J2-Pin_3)*%
X120590000Y-47943500D03*
%TO.P,Q1,5,B2*%
%TO.N,Board_10-Net-(J2-Pin_2)*%
X119640000Y-47943500D03*
%TO.P,Q1,6,C1*%
%TO.N,Board_10-Net-(J2-Pin_1)*%
X118690000Y-47943500D03*
%TD*%
%TO.P,Q1,1,E1*%
%TO.N,Board_17-Net-(J1-Pin_1)*%
X186030000Y-50218500D03*
%TO.P,Q1,2,B1*%
%TO.N,Board_17-Net-(J1-Pin_2)*%
X186980000Y-50218500D03*
%TO.P,Q1,3,C2*%
%TO.N,Board_17-Net-(J1-Pin_3)*%
X187930000Y-50218500D03*
%TO.P,Q1,4,E2*%
%TO.N,Board_17-Net-(J2-Pin_3)*%
X187930000Y-47943500D03*
%TO.P,Q1,5,B2*%
%TO.N,Board_17-Net-(J2-Pin_2)*%
X186980000Y-47943500D03*
%TO.P,Q1,6,C1*%
%TO.N,Board_17-Net-(J2-Pin_1)*%
X186030000Y-47943500D03*
%TD*%
D10*
%TO.P,J1,1,Pin_1*%
%TO.N,Board_42-Net-(J1-Pin_1)*%
X165200000Y-98859000D03*
D11*
%TO.P,J1,2,Pin_2*%
%TO.N,Board_42-Net-(J1-Pin_2)*%
X167740000Y-98859000D03*
%TO.P,J1,3,Pin_3*%
%TO.N,Board_42-Net-(J1-Pin_3)*%
X170280000Y-98859000D03*
%TD*%
D10*
%TO.P,J1,1,Pin_1*%
%TO.N,Board_44-Net-(J1-Pin_1)*%
X184440000Y-98859000D03*
D11*
%TO.P,J1,2,Pin_2*%
%TO.N,Board_44-Net-(J1-Pin_2)*%
X186980000Y-98859000D03*
%TO.P,J1,3,Pin_3*%
%TO.N,Board_44-Net-(J1-Pin_3)*%
X189520000Y-98859000D03*
%TD*%
D10*
%TO.P,J1,1,Pin_1*%
%TO.N,Board_8-Net-(J1-Pin_1)*%
X184440000Y-39451000D03*
D11*
%TO.P,J1,2,Pin_2*%
%TO.N,Board_8-Net-(J1-Pin_2)*%
X186980000Y-39451000D03*
%TO.P,J1,3,Pin_3*%
%TO.N,Board_8-Net-(J1-Pin_3)*%
X189520000Y-39451000D03*
%TD*%
D10*
%TO.P,J1,1,Pin_1*%
%TO.N,Board_0-Net-(J1-Pin_1)*%
X107480000Y-39451000D03*
D11*
%TO.P,J1,2,Pin_2*%
%TO.N,Board_0-Net-(J1-Pin_2)*%
X110020000Y-39451000D03*
%TO.P,J1,3,Pin_3*%
%TO.N,Board_0-Net-(J1-Pin_3)*%
X112560000Y-39451000D03*
%TD*%
D10*
%TO.P,J1,1,Pin_1*%
%TO.N,Board_27-Net-(J1-Pin_1)*%
X107480000Y-84007000D03*
D11*
%TO.P,J1,2,Pin_2*%
%TO.N,Board_27-Net-(J1-Pin_2)*%
X110020000Y-84007000D03*
%TO.P,J1,3,Pin_3*%
%TO.N,Board_27-Net-(J1-Pin_3)*%
X112560000Y-84007000D03*
%TD*%
D12*
%TO.P,Q1,1,E1*%
%TO.N,Board_12-Net-(J1-Pin_1)*%
X137930000Y-50218500D03*
%TO.P,Q1,2,B1*%
%TO.N,Board_12-Net-(J1-Pin_2)*%
X138880000Y-50218500D03*
%TO.P,Q1,3,C2*%
%TO.N,Board_12-Net-(J1-Pin_3)*%
X139830000Y-50218500D03*
%TO.P,Q1,4,E2*%
%TO.N,Board_12-Net-(J2-Pin_3)*%
X139830000Y-47943500D03*
%TO.P,Q1,5,B2*%
%TO.N,Board_12-Net-(J2-Pin_2)*%
X138880000Y-47943500D03*
%TO.P,Q1,6,C1*%
%TO.N,Board_12-Net-(J2-Pin_1)*%
X137930000Y-47943500D03*
%TD*%
D10*
%TO.P,J1,1,Pin_1*%
%TO.N,Board_22-Net-(J1-Pin_1)*%
X145960000Y-69155000D03*
D11*
%TO.P,J1,2,Pin_2*%
%TO.N,Board_22-Net-(J1-Pin_2)*%
X148500000Y-69155000D03*
%TO.P,J1,3,Pin_3*%
%TO.N,Board_22-Net-(J1-Pin_3)*%
X151040000Y-69155000D03*
%TD*%
D12*
%TO.P,Q1,1,E1*%
%TO.N,Board_0-Net-(J1-Pin_1)*%
X109070000Y-35366500D03*
%TO.P,Q1,2,B1*%
%TO.N,Board_0-Net-(J1-Pin_2)*%
X110020000Y-35366500D03*
%TO.P,Q1,3,C2*%
%TO.N,Board_0-Net-(J1-Pin_3)*%
X110970000Y-35366500D03*
%TO.P,Q1,4,E2*%
%TO.N,Board_0-Net-(J2-Pin_3)*%
X110970000Y-33091500D03*
%TO.P,Q1,5,B2*%
%TO.N,Board_0-Net-(J2-Pin_2)*%
X110020000Y-33091500D03*
%TO.P,Q1,6,C1*%
%TO.N,Board_0-Net-(J2-Pin_1)*%
X109070000Y-33091500D03*
%TD*%
D10*
%TO.P,J2,1,Pin_1*%
%TO.N,Board_33-Net-(J2-Pin_1)*%
X165200000Y-73847000D03*
D11*
%TO.P,J2,2,Pin_2*%
%TO.N,Board_33-Net-(J2-Pin_2)*%
X167740000Y-73847000D03*
%TO.P,J2,3,Pin_3*%
%TO.N,Board_33-Net-(J2-Pin_3)*%
X170280000Y-73847000D03*
%TD*%
D10*
%TO.P,J1,1,Pin_1*%
%TO.N,Board_2-Net-(J1-Pin_1)*%
X126720000Y-39451000D03*
D11*
%TO.P,J1,2,Pin_2*%
%TO.N,Board_2-Net-(J1-Pin_2)*%
X129260000Y-39451000D03*
%TO.P,J1,3,Pin_3*%
%TO.N,Board_2-Net-(J1-Pin_3)*%
X131800000Y-39451000D03*
%TD*%
D10*
%TO.P,J1,1,Pin_1*%
%TO.N,Board_12-Net-(J1-Pin_1)*%
X136340000Y-54303000D03*
D11*
%TO.P,J1,2,Pin_2*%
%TO.N,Board_12-Net-(J1-Pin_2)*%
X138880000Y-54303000D03*
%TO.P,J1,3,Pin_3*%
%TO.N,Board_12-Net-(J1-Pin_3)*%
X141420000Y-54303000D03*
%TD*%
D10*
%TO.P,J1,1,Pin_1*%
%TO.N,Board_40-Net-(J1-Pin_1)*%
X145960000Y-98859000D03*
D11*
%TO.P,J1,2,Pin_2*%
%TO.N,Board_40-Net-(J1-Pin_2)*%
X148500000Y-98859000D03*
%TO.P,J1,3,Pin_3*%
%TO.N,Board_40-Net-(J1-Pin_3)*%
X151040000Y-98859000D03*
%TD*%
D10*
%TO.P,J2,1,Pin_1*%
%TO.N,Board_27-Net-(J2-Pin_1)*%
X107480000Y-73847000D03*
D11*
%TO.P,J2,2,Pin_2*%
%TO.N,Board_27-Net-(J2-Pin_2)*%
X110020000Y-73847000D03*
%TO.P,J2,3,Pin_3*%
%TO.N,Board_27-Net-(J2-Pin_3)*%
X112560000Y-73847000D03*
%TD*%
D10*
%TO.P,J2,1,Pin_1*%
%TO.N,Board_3-Net-(J2-Pin_1)*%
X136340000Y-29291000D03*
D11*
%TO.P,J2,2,Pin_2*%
%TO.N,Board_3-Net-(J2-Pin_2)*%
X138880000Y-29291000D03*
%TO.P,J2,3,Pin_3*%
%TO.N,Board_3-Net-(J2-Pin_3)*%
X141420000Y-29291000D03*
%TD*%
D10*
%TO.P,J2,1,Pin_1*%
%TO.N,Board_41-Net-(J2-Pin_1)*%
X155580000Y-88699000D03*
D11*
%TO.P,J2,2,Pin_2*%
%TO.N,Board_41-Net-(J2-Pin_2)*%
X158120000Y-88699000D03*
%TO.P,J2,3,Pin_3*%
%TO.N,Board_41-Net-(J2-Pin_3)*%
X160660000Y-88699000D03*
%TD*%
D10*
%TO.P,J1,1,Pin_1*%
%TO.N,Board_4-Net-(J1-Pin_1)*%
X145960000Y-39451000D03*
D11*
%TO.P,J1,2,Pin_2*%
%TO.N,Board_4-Net-(J1-Pin_2)*%
X148500000Y-39451000D03*
%TO.P,J1,3,Pin_3*%
%TO.N,Board_4-Net-(J1-Pin_3)*%
X151040000Y-39451000D03*
%TD*%
D10*
%TO.P,J1,1,Pin_1*%
%TO.N,Board_11-Net-(J1-Pin_1)*%
X126720000Y-54303000D03*
D11*
%TO.P,J1,2,Pin_2*%
%TO.N,Board_11-Net-(J1-Pin_2)*%
X129260000Y-54303000D03*
%TO.P,J1,3,Pin_3*%
%TO.N,Board_11-Net-(J1-Pin_3)*%
X131800000Y-54303000D03*
%TD*%
D10*
%TO.P,J2,1,Pin_1*%
%TO.N,Board_38-Net-(J2-Pin_1)*%
X126720000Y-88699000D03*
D11*
%TO.P,J2,2,Pin_2*%
%TO.N,Board_38-Net-(J2-Pin_2)*%
X129260000Y-88699000D03*
%TO.P,J2,3,Pin_3*%
%TO.N,Board_38-Net-(J2-Pin_3)*%
X131800000Y-88699000D03*
%TD*%
D12*
%TO.P,Q1,1,E1*%
%TO.N,Board_26-Net-(J1-Pin_1)*%
X186030000Y-65070500D03*
%TO.P,Q1,2,B1*%
%TO.N,Board_26-Net-(J1-Pin_2)*%
X186980000Y-65070500D03*
%TO.P,Q1,3,C2*%
%TO.N,Board_26-Net-(J1-Pin_3)*%
X187930000Y-65070500D03*
%TO.P,Q1,4,E2*%
%TO.N,Board_26-Net-(J2-Pin_3)*%
X187930000Y-62795500D03*
%TO.P,Q1,5,B2*%
%TO.N,Board_26-Net-(J2-Pin_2)*%
X186980000Y-62795500D03*
%TO.P,Q1,6,C1*%
%TO.N,Board_26-Net-(J2-Pin_1)*%
X186030000Y-62795500D03*
%TD*%
%TO.P,Q1,1,E1*%
%TO.N,Board_11-Net-(J1-Pin_1)*%
X128310000Y-50218500D03*
%TO.P,Q1,2,B1*%
%TO.N,Board_11-Net-(J1-Pin_2)*%
X129260000Y-50218500D03*
%TO.P,Q1,3,C2*%
%TO.N,Board_11-Net-(J1-Pin_3)*%
X130210000Y-50218500D03*
%TO.P,Q1,4,E2*%
%TO.N,Board_11-Net-(J2-Pin_3)*%
X130210000Y-47943500D03*
%TO.P,Q1,5,B2*%
%TO.N,Board_11-Net-(J2-Pin_2)*%
X129260000Y-47943500D03*
%TO.P,Q1,6,C1*%
%TO.N,Board_11-Net-(J2-Pin_1)*%
X128310000Y-47943500D03*
%TD*%
D10*
%TO.P,J2,1,Pin_1*%
%TO.N,Board_18-Net-(J2-Pin_1)*%
X107480000Y-58995000D03*
D11*
%TO.P,J2,2,Pin_2*%
%TO.N,Board_18-Net-(J2-Pin_2)*%
X110020000Y-58995000D03*
%TO.P,J2,3,Pin_3*%
%TO.N,Board_18-Net-(J2-Pin_3)*%
X112560000Y-58995000D03*
%TD*%
D12*
%TO.P,Q1,1,E1*%
%TO.N,Board_14-Net-(J1-Pin_1)*%
X157170000Y-50218500D03*
%TO.P,Q1,2,B1*%
%TO.N,Board_14-Net-(J1-Pin_2)*%
X158120000Y-50218500D03*
%TO.P,Q1,3,C2*%
%TO.N,Board_14-Net-(J1-Pin_3)*%
X159070000Y-50218500D03*
%TO.P,Q1,4,E2*%
%TO.N,Board_14-Net-(J2-Pin_3)*%
X159070000Y-47943500D03*
%TO.P,Q1,5,B2*%
%TO.N,Board_14-Net-(J2-Pin_2)*%
X158120000Y-47943500D03*
%TO.P,Q1,6,C1*%
%TO.N,Board_14-Net-(J2-Pin_1)*%
X157170000Y-47943500D03*
%TD*%
%TO.P,Q1,1,E1*%
%TO.N,Board_22-Net-(J1-Pin_1)*%
X147550000Y-65070500D03*
%TO.P,Q1,2,B1*%
%TO.N,Board_22-Net-(J1-Pin_2)*%
X148500000Y-65070500D03*
%TO.P,Q1,3,C2*%
%TO.N,Board_22-Net-(J1-Pin_3)*%
X149450000Y-65070500D03*
%TO.P,Q1,4,E2*%
%TO.N,Board_22-Net-(J2-Pin_3)*%
X149450000Y-62795500D03*
%TO.P,Q1,5,B2*%
%TO.N,Board_22-Net-(J2-Pin_2)*%
X148500000Y-62795500D03*
%TO.P,Q1,6,C1*%
%TO.N,Board_22-Net-(J2-Pin_1)*%
X147550000Y-62795500D03*
%TD*%
D10*
%TO.P,J1,1,Pin_1*%
%TO.N,Board_19-Net-(J1-Pin_1)*%
X117100000Y-69155000D03*
D11*
%TO.P,J1,2,Pin_2*%
%TO.N,Board_19-Net-(J1-Pin_2)*%
X119640000Y-69155000D03*
%TO.P,J1,3,Pin_3*%
%TO.N,Board_19-Net-(J1-Pin_3)*%
X122180000Y-69155000D03*
%TD*%
D12*
%TO.P,Q1,1,E1*%
%TO.N,Board_33-Net-(J1-Pin_1)*%
X166790000Y-79922500D03*
%TO.P,Q1,2,B1*%
%TO.N,Board_33-Net-(J1-Pin_2)*%
X167740000Y-79922500D03*
%TO.P,Q1,3,C2*%
%TO.N,Board_33-Net-(J1-Pin_3)*%
X168690000Y-79922500D03*
%TO.P,Q1,4,E2*%
%TO.N,Board_33-Net-(J2-Pin_3)*%
X168690000Y-77647500D03*
%TO.P,Q1,5,B2*%
%TO.N,Board_33-Net-(J2-Pin_2)*%
X167740000Y-77647500D03*
%TO.P,Q1,6,C1*%
%TO.N,Board_33-Net-(J2-Pin_1)*%
X166790000Y-77647500D03*
%TD*%
D10*
%TO.P,J1,1,Pin_1*%
%TO.N,Board_7-Net-(J1-Pin_1)*%
X174820000Y-39451000D03*
D11*
%TO.P,J1,2,Pin_2*%
%TO.N,Board_7-Net-(J1-Pin_2)*%
X177360000Y-39451000D03*
%TO.P,J1,3,Pin_3*%
%TO.N,Board_7-Net-(J1-Pin_3)*%
X179900000Y-39451000D03*
%TD*%
D10*
%TO.P,J1,1,Pin_1*%
%TO.N,Board_9-Net-(J1-Pin_1)*%
X107480000Y-54303000D03*
D11*
%TO.P,J1,2,Pin_2*%
%TO.N,Board_9-Net-(J1-Pin_2)*%
X110020000Y-54303000D03*
%TO.P,J1,3,Pin_3*%
%TO.N,Board_9-Net-(J1-Pin_3)*%
X112560000Y-54303000D03*
%TD*%
D12*
%TO.P,Q1,1,E1*%
%TO.N,Board_4-Net-(J1-Pin_1)*%
X147550000Y-35366500D03*
%TO.P,Q1,2,B1*%
%TO.N,Board_4-Net-(J1-Pin_2)*%
X148500000Y-35366500D03*
%TO.P,Q1,3,C2*%
%TO.N,Board_4-Net-(J1-Pin_3)*%
X149450000Y-35366500D03*
%TO.P,Q1,4,E2*%
%TO.N,Board_4-Net-(J2-Pin_3)*%
X149450000Y-33091500D03*
%TO.P,Q1,5,B2*%
%TO.N,Board_4-Net-(J2-Pin_2)*%
X148500000Y-33091500D03*
%TO.P,Q1,6,C1*%
%TO.N,Board_4-Net-(J2-Pin_1)*%
X147550000Y-33091500D03*
%TD*%
D10*
%TO.P,J2,1,Pin_1*%
%TO.N,Board_15-Net-(J2-Pin_1)*%
X165200000Y-44143000D03*
D11*
%TO.P,J2,2,Pin_2*%
%TO.N,Board_15-Net-(J2-Pin_2)*%
X167740000Y-44143000D03*
%TO.P,J2,3,Pin_3*%
%TO.N,Board_15-Net-(J2-Pin_3)*%
X170280000Y-44143000D03*
%TD*%
D10*
%TO.P,J2,1,Pin_1*%
%TO.N,Board_12-Net-(J2-Pin_1)*%
X136340000Y-44143000D03*
D11*
%TO.P,J2,2,Pin_2*%
%TO.N,Board_12-Net-(J2-Pin_2)*%
X138880000Y-44143000D03*
%TO.P,J2,3,Pin_3*%
%TO.N,Board_12-Net-(J2-Pin_3)*%
X141420000Y-44143000D03*
%TD*%
D10*
%TO.P,J2,1,Pin_1*%
%TO.N,Board_35-Net-(J2-Pin_1)*%
X184440000Y-73847000D03*
D11*
%TO.P,J2,2,Pin_2*%
%TO.N,Board_35-Net-(J2-Pin_2)*%
X186980000Y-73847000D03*
%TO.P,J2,3,Pin_3*%
%TO.N,Board_35-Net-(J2-Pin_3)*%
X189520000Y-73847000D03*
%TD*%
D10*
%TO.P,J2,1,Pin_1*%
%TO.N,Board_4-Net-(J2-Pin_1)*%
X145960000Y-29291000D03*
D11*
%TO.P,J2,2,Pin_2*%
%TO.N,Board_4-Net-(J2-Pin_2)*%
X148500000Y-29291000D03*
%TO.P,J2,3,Pin_3*%
%TO.N,Board_4-Net-(J2-Pin_3)*%
X151040000Y-29291000D03*
%TD*%
D12*
%TO.P,Q1,1,E1*%
%TO.N,Board_40-Net-(J1-Pin_1)*%
X147550000Y-94774500D03*
%TO.P,Q1,2,B1*%
%TO.N,Board_40-Net-(J1-Pin_2)*%
X148500000Y-94774500D03*
%TO.P,Q1,3,C2*%
%TO.N,Board_40-Net-(J1-Pin_3)*%
X149450000Y-94774500D03*
%TO.P,Q1,4,E2*%
%TO.N,Board_40-Net-(J2-Pin_3)*%
X149450000Y-92499500D03*
%TO.P,Q1,5,B2*%
%TO.N,Board_40-Net-(J2-Pin_2)*%
X148500000Y-92499500D03*
%TO.P,Q1,6,C1*%
%TO.N,Board_40-Net-(J2-Pin_1)*%
X147550000Y-92499500D03*
%TD*%
D10*
%TO.P,J2,1,Pin_1*%
%TO.N,Board_28-Net-(J2-Pin_1)*%
X117100000Y-73847000D03*
D11*
%TO.P,J2,2,Pin_2*%
%TO.N,Board_28-Net-(J2-Pin_2)*%
X119640000Y-73847000D03*
%TO.P,J2,3,Pin_3*%
%TO.N,Board_28-Net-(J2-Pin_3)*%
X122180000Y-73847000D03*
%TD*%
D10*
%TO.P,J1,1,Pin_1*%
%TO.N,Board_30-Net-(J1-Pin_1)*%
X136340000Y-84007000D03*
D11*
%TO.P,J1,2,Pin_2*%
%TO.N,Board_30-Net-(J1-Pin_2)*%
X138880000Y-84007000D03*
%TO.P,J1,3,Pin_3*%
%TO.N,Board_30-Net-(J1-Pin_3)*%
X141420000Y-84007000D03*
%TD*%
D12*
%TO.P,Q1,1,E1*%
%TO.N,Board_1-Net-(J1-Pin_1)*%
X118690000Y-35366500D03*
%TO.P,Q1,2,B1*%
%TO.N,Board_1-Net-(J1-Pin_2)*%
X119640000Y-35366500D03*
%TO.P,Q1,3,C2*%
%TO.N,Board_1-Net-(J1-Pin_3)*%
X120590000Y-35366500D03*
%TO.P,Q1,4,E2*%
%TO.N,Board_1-Net-(J2-Pin_3)*%
X120590000Y-33091500D03*
%TO.P,Q1,5,B2*%
%TO.N,Board_1-Net-(J2-Pin_2)*%
X119640000Y-33091500D03*
%TO.P,Q1,6,C1*%
%TO.N,Board_1-Net-(J2-Pin_1)*%
X118690000Y-33091500D03*
%TD*%
%TO.P,Q1,1,E1*%
%TO.N,Board_16-Net-(J1-Pin_1)*%
X176410000Y-50218500D03*
%TO.P,Q1,2,B1*%
%TO.N,Board_16-Net-(J1-Pin_2)*%
X177360000Y-50218500D03*
%TO.P,Q1,3,C2*%
%TO.N,Board_16-Net-(J1-Pin_3)*%
X178310000Y-50218500D03*
%TO.P,Q1,4,E2*%
%TO.N,Board_16-Net-(J2-Pin_3)*%
X178310000Y-47943500D03*
%TO.P,Q1,5,B2*%
%TO.N,Board_16-Net-(J2-Pin_2)*%
X177360000Y-47943500D03*
%TO.P,Q1,6,C1*%
%TO.N,Board_16-Net-(J2-Pin_1)*%
X176410000Y-47943500D03*
%TD*%
D10*
%TO.P,J2,1,Pin_1*%
%TO.N,Board_8-Net-(J2-Pin_1)*%
X184440000Y-29291000D03*
D11*
%TO.P,J2,2,Pin_2*%
%TO.N,Board_8-Net-(J2-Pin_2)*%
X186980000Y-29291000D03*
%TO.P,J2,3,Pin_3*%
%TO.N,Board_8-Net-(J2-Pin_3)*%
X189520000Y-29291000D03*
%TD*%
D10*
%TO.P,J1,1,Pin_1*%
%TO.N,Board_29-Net-(J1-Pin_1)*%
X126720000Y-84007000D03*
D11*
%TO.P,J1,2,Pin_2*%
%TO.N,Board_29-Net-(J1-Pin_2)*%
X129260000Y-84007000D03*
%TO.P,J1,3,Pin_3*%
%TO.N,Board_29-Net-(J1-Pin_3)*%
X131800000Y-84007000D03*
%TD*%
D10*
%TO.P,J1,1,Pin_1*%
%TO.N,Board_25-Net-(J1-Pin_1)*%
X174820000Y-69155000D03*
D11*
%TO.P,J1,2,Pin_2*%
%TO.N,Board_25-Net-(J1-Pin_2)*%
X177360000Y-69155000D03*
%TO.P,J1,3,Pin_3*%
%TO.N,Board_25-Net-(J1-Pin_3)*%
X179900000Y-69155000D03*
%TD*%
D10*
%TO.P,J2,1,Pin_1*%
%TO.N,Board_24-Net-(J2-Pin_1)*%
X165200000Y-58995000D03*
D11*
%TO.P,J2,2,Pin_2*%
%TO.N,Board_24-Net-(J2-Pin_2)*%
X167740000Y-58995000D03*
%TO.P,J2,3,Pin_3*%
%TO.N,Board_24-Net-(J2-Pin_3)*%
X170280000Y-58995000D03*
%TD*%
D10*
%TO.P,J2,1,Pin_1*%
%TO.N,Board_37-Net-(J2-Pin_1)*%
X117100000Y-88699000D03*
D11*
%TO.P,J2,2,Pin_2*%
%TO.N,Board_37-Net-(J2-Pin_2)*%
X119640000Y-88699000D03*
%TO.P,J2,3,Pin_3*%
%TO.N,Board_37-Net-(J2-Pin_3)*%
X122180000Y-88699000D03*
%TD*%
D10*
%TO.P,J2,1,Pin_1*%
%TO.N,Board_29-Net-(J2-Pin_1)*%
X126720000Y-73847000D03*
D11*
%TO.P,J2,2,Pin_2*%
%TO.N,Board_29-Net-(J2-Pin_2)*%
X129260000Y-73847000D03*
%TO.P,J2,3,Pin_3*%
%TO.N,Board_29-Net-(J2-Pin_3)*%
X131800000Y-73847000D03*
%TD*%
D10*
%TO.P,J1,1,Pin_1*%
%TO.N,Board_15-Net-(J1-Pin_1)*%
X165200000Y-54303000D03*
D11*
%TO.P,J1,2,Pin_2*%
%TO.N,Board_15-Net-(J1-Pin_2)*%
X167740000Y-54303000D03*
%TO.P,J1,3,Pin_3*%
%TO.N,Board_15-Net-(J1-Pin_3)*%
X170280000Y-54303000D03*
%TD*%
D12*
%TO.P,Q1,1,E1*%
%TO.N,Board_42-Net-(J1-Pin_1)*%
X166790000Y-94774500D03*
%TO.P,Q1,2,B1*%
%TO.N,Board_42-Net-(J1-Pin_2)*%
X167740000Y-94774500D03*
%TO.P,Q1,3,C2*%
%TO.N,Board_42-Net-(J1-Pin_3)*%
X168690000Y-94774500D03*
%TO.P,Q1,4,E2*%
%TO.N,Board_42-Net-(J2-Pin_3)*%
X168690000Y-92499500D03*
%TO.P,Q1,5,B2*%
%TO.N,Board_42-Net-(J2-Pin_2)*%
X167740000Y-92499500D03*
%TO.P,Q1,6,C1*%
%TO.N,Board_42-Net-(J2-Pin_1)*%
X166790000Y-92499500D03*
%TD*%
%TO.P,Q1,1,E1*%
%TO.N,Board_34-Net-(J1-Pin_1)*%
X176410000Y-79922500D03*
%TO.P,Q1,2,B1*%
%TO.N,Board_34-Net-(J1-Pin_2)*%
X177360000Y-79922500D03*
%TO.P,Q1,3,C2*%
%TO.N,Board_34-Net-(J1-Pin_3)*%
X178310000Y-79922500D03*
%TO.P,Q1,4,E2*%
%TO.N,Board_34-Net-(J2-Pin_3)*%
X178310000Y-77647500D03*
%TO.P,Q1,5,B2*%
%TO.N,Board_34-Net-(J2-Pin_2)*%
X177360000Y-77647500D03*
%TO.P,Q1,6,C1*%
%TO.N,Board_34-Net-(J2-Pin_1)*%
X176410000Y-77647500D03*
%TD*%
%TO.P,Q1,1,E1*%
%TO.N,Board_30-Net-(J1-Pin_1)*%
X137930000Y-79922500D03*
%TO.P,Q1,2,B1*%
%TO.N,Board_30-Net-(J1-Pin_2)*%
X138880000Y-79922500D03*
%TO.P,Q1,3,C2*%
%TO.N,Board_30-Net-(J1-Pin_3)*%
X139830000Y-79922500D03*
%TO.P,Q1,4,E2*%
%TO.N,Board_30-Net-(J2-Pin_3)*%
X139830000Y-77647500D03*
%TO.P,Q1,5,B2*%
%TO.N,Board_30-Net-(J2-Pin_2)*%
X138880000Y-77647500D03*
%TO.P,Q1,6,C1*%
%TO.N,Board_30-Net-(J2-Pin_1)*%
X137930000Y-77647500D03*
%TD*%
D10*
%TO.P,J2,1,Pin_1*%
%TO.N,Board_14-Net-(J2-Pin_1)*%
X155580000Y-44143000D03*
D11*
%TO.P,J2,2,Pin_2*%
%TO.N,Board_14-Net-(J2-Pin_2)*%
X158120000Y-44143000D03*
%TO.P,J2,3,Pin_3*%
%TO.N,Board_14-Net-(J2-Pin_3)*%
X160660000Y-44143000D03*
%TD*%
D12*
%TO.P,Q1,1,E1*%
%TO.N,Board_35-Net-(J1-Pin_1)*%
X186030000Y-79922500D03*
%TO.P,Q1,2,B1*%
%TO.N,Board_35-Net-(J1-Pin_2)*%
X186980000Y-79922500D03*
%TO.P,Q1,3,C2*%
%TO.N,Board_35-Net-(J1-Pin_3)*%
X187930000Y-79922500D03*
%TO.P,Q1,4,E2*%
%TO.N,Board_35-Net-(J2-Pin_3)*%
X187930000Y-77647500D03*
%TO.P,Q1,5,B2*%
%TO.N,Board_35-Net-(J2-Pin_2)*%
X186980000Y-77647500D03*
%TO.P,Q1,6,C1*%
%TO.N,Board_35-Net-(J2-Pin_1)*%
X186030000Y-77647500D03*
%TD*%
D10*
%TO.P,J2,1,Pin_1*%
%TO.N,Board_20-Net-(J2-Pin_1)*%
X126720000Y-58995000D03*
D11*
%TO.P,J2,2,Pin_2*%
%TO.N,Board_20-Net-(J2-Pin_2)*%
X129260000Y-58995000D03*
%TO.P,J2,3,Pin_3*%
%TO.N,Board_20-Net-(J2-Pin_3)*%
X131800000Y-58995000D03*
%TD*%
D12*
%TO.P,Q1,1,E1*%
%TO.N,Board_18-Net-(J1-Pin_1)*%
X109070000Y-65070500D03*
%TO.P,Q1,2,B1*%
%TO.N,Board_18-Net-(J1-Pin_2)*%
X110020000Y-65070500D03*
%TO.P,Q1,3,C2*%
%TO.N,Board_18-Net-(J1-Pin_3)*%
X110970000Y-65070500D03*
%TO.P,Q1,4,E2*%
%TO.N,Board_18-Net-(J2-Pin_3)*%
X110970000Y-62795500D03*
%TO.P,Q1,5,B2*%
%TO.N,Board_18-Net-(J2-Pin_2)*%
X110020000Y-62795500D03*
%TO.P,Q1,6,C1*%
%TO.N,Board_18-Net-(J2-Pin_1)*%
X109070000Y-62795500D03*
%TD*%
D10*
%TO.P,J1,1,Pin_1*%
%TO.N,Board_28-Net-(J1-Pin_1)*%
X117100000Y-84007000D03*
D11*
%TO.P,J1,2,Pin_2*%
%TO.N,Board_28-Net-(J1-Pin_2)*%
X119640000Y-84007000D03*
%TO.P,J1,3,Pin_3*%
%TO.N,Board_28-Net-(J1-Pin_3)*%
X122180000Y-84007000D03*
%TD*%
D10*
%TO.P,J1,1,Pin_1*%
%TO.N,Board_5-Net-(J1-Pin_1)*%
X155580000Y-39451000D03*
D11*
%TO.P,J1,2,Pin_2*%
%TO.N,Board_5-Net-(J1-Pin_2)*%
X158120000Y-39451000D03*
%TO.P,J1,3,Pin_3*%
%TO.N,Board_5-Net-(J1-Pin_3)*%
X160660000Y-39451000D03*
%TD*%
D10*
%TO.P,J1,1,Pin_1*%
%TO.N,Board_33-Net-(J1-Pin_1)*%
X165200000Y-84007000D03*
D11*
%TO.P,J1,2,Pin_2*%
%TO.N,Board_33-Net-(J1-Pin_2)*%
X167740000Y-84007000D03*
%TO.P,J1,3,Pin_3*%
%TO.N,Board_33-Net-(J1-Pin_3)*%
X170280000Y-84007000D03*
%TD*%
D10*
%TO.P,J2,1,Pin_1*%
%TO.N,Board_30-Net-(J2-Pin_1)*%
X136340000Y-73847000D03*
D11*
%TO.P,J2,2,Pin_2*%
%TO.N,Board_30-Net-(J2-Pin_2)*%
X138880000Y-73847000D03*
%TO.P,J2,3,Pin_3*%
%TO.N,Board_30-Net-(J2-Pin_3)*%
X141420000Y-73847000D03*
%TD*%
D12*
%TO.P,Q1,1,E1*%
%TO.N,Board_44-Net-(J1-Pin_1)*%
X186030000Y-94774500D03*
%TO.P,Q1,2,B1*%
%TO.N,Board_44-Net-(J1-Pin_2)*%
X186980000Y-94774500D03*
%TO.P,Q1,3,C2*%
%TO.N,Board_44-Net-(J1-Pin_3)*%
X187930000Y-94774500D03*
%TO.P,Q1,4,E2*%
%TO.N,Board_44-Net-(J2-Pin_3)*%
X187930000Y-92499500D03*
%TO.P,Q1,5,B2*%
%TO.N,Board_44-Net-(J2-Pin_2)*%
X186980000Y-92499500D03*
%TO.P,Q1,6,C1*%
%TO.N,Board_44-Net-(J2-Pin_1)*%
X186030000Y-92499500D03*
%TD*%
D10*
%TO.P,J2,1,Pin_1*%
%TO.N,Board_34-Net-(J2-Pin_1)*%
X174820000Y-73847000D03*
D11*
%TO.P,J2,2,Pin_2*%
%TO.N,Board_34-Net-(J2-Pin_2)*%
X177360000Y-73847000D03*
%TO.P,J2,3,Pin_3*%
%TO.N,Board_34-Net-(J2-Pin_3)*%
X179900000Y-73847000D03*
%TD*%
D10*
%TO.P,J2,1,Pin_1*%
%TO.N,Board_43-Net-(J2-Pin_1)*%
X174820000Y-88699000D03*
D11*
%TO.P,J2,2,Pin_2*%
%TO.N,Board_43-Net-(J2-Pin_2)*%
X177360000Y-88699000D03*
%TO.P,J2,3,Pin_3*%
%TO.N,Board_43-Net-(J2-Pin_3)*%
X179900000Y-88699000D03*
%TD*%
D10*
%TO.P,J2,1,Pin_1*%
%TO.N,Board_44-Net-(J2-Pin_1)*%
X184440000Y-88699000D03*
D11*
%TO.P,J2,2,Pin_2*%
%TO.N,Board_44-Net-(J2-Pin_2)*%
X186980000Y-88699000D03*
%TO.P,J2,3,Pin_3*%
%TO.N,Board_44-Net-(J2-Pin_3)*%
X189520000Y-88699000D03*
%TD*%
D10*
%TO.P,J1,1,Pin_1*%
%TO.N,Board_31-Net-(J1-Pin_1)*%
X145960000Y-84007000D03*
D11*
%TO.P,J1,2,Pin_2*%
%TO.N,Board_31-Net-(J1-Pin_2)*%
X148500000Y-84007000D03*
%TO.P,J1,3,Pin_3*%
%TO.N,Board_31-Net-(J1-Pin_3)*%
X151040000Y-84007000D03*
%TD*%
D10*
%TO.P,J1,1,Pin_1*%
%TO.N,Board_34-Net-(J1-Pin_1)*%
X174820000Y-84007000D03*
D11*
%TO.P,J1,2,Pin_2*%
%TO.N,Board_34-Net-(J1-Pin_2)*%
X177360000Y-84007000D03*
%TO.P,J1,3,Pin_3*%
%TO.N,Board_34-Net-(J1-Pin_3)*%
X179900000Y-84007000D03*
%TD*%
D10*
%TO.P,J1,1,Pin_1*%
%TO.N,Board_21-Net-(J1-Pin_1)*%
X136340000Y-69155000D03*
D11*
%TO.P,J1,2,Pin_2*%
%TO.N,Board_21-Net-(J1-Pin_2)*%
X138880000Y-69155000D03*
%TO.P,J1,3,Pin_3*%
%TO.N,Board_21-Net-(J1-Pin_3)*%
X141420000Y-69155000D03*
%TD*%
D10*
%TO.P,J1,1,Pin_1*%
%TO.N,Board_36-Net-(J1-Pin_1)*%
X107480000Y-98859000D03*
D11*
%TO.P,J1,2,Pin_2*%
%TO.N,Board_36-Net-(J1-Pin_2)*%
X110020000Y-98859000D03*
%TO.P,J1,3,Pin_3*%
%TO.N,Board_36-Net-(J1-Pin_3)*%
X112560000Y-98859000D03*
%TD*%
D12*
%TO.P,Q1,1,E1*%
%TO.N,Board_8-Net-(J1-Pin_1)*%
X186030000Y-35366500D03*
%TO.P,Q1,2,B1*%
%TO.N,Board_8-Net-(J1-Pin_2)*%
X186980000Y-35366500D03*
%TO.P,Q1,3,C2*%
%TO.N,Board_8-Net-(J1-Pin_3)*%
X187930000Y-35366500D03*
%TO.P,Q1,4,E2*%
%TO.N,Board_8-Net-(J2-Pin_3)*%
X187930000Y-33091500D03*
%TO.P,Q1,5,B2*%
%TO.N,Board_8-Net-(J2-Pin_2)*%
X186980000Y-33091500D03*
%TO.P,Q1,6,C1*%
%TO.N,Board_8-Net-(J2-Pin_1)*%
X186030000Y-33091500D03*
%TD*%
D10*
%TO.P,J2,1,Pin_1*%
%TO.N,Board_31-Net-(J2-Pin_1)*%
X145960000Y-73847000D03*
D11*
%TO.P,J2,2,Pin_2*%
%TO.N,Board_31-Net-(J2-Pin_2)*%
X148500000Y-73847000D03*
%TO.P,J2,3,Pin_3*%
%TO.N,Board_31-Net-(J2-Pin_3)*%
X151040000Y-73847000D03*
%TD*%
D10*
%TO.P,J2,1,Pin_1*%
%TO.N,Board_21-Net-(J2-Pin_1)*%
X136340000Y-58995000D03*
D11*
%TO.P,J2,2,Pin_2*%
%TO.N,Board_21-Net-(J2-Pin_2)*%
X138880000Y-58995000D03*
%TO.P,J2,3,Pin_3*%
%TO.N,Board_21-Net-(J2-Pin_3)*%
X141420000Y-58995000D03*
%TD*%
D10*
%TO.P,J2,1,Pin_1*%
%TO.N,Board_17-Net-(J2-Pin_1)*%
X184440000Y-44143000D03*
D11*
%TO.P,J2,2,Pin_2*%
%TO.N,Board_17-Net-(J2-Pin_2)*%
X186980000Y-44143000D03*
%TO.P,J2,3,Pin_3*%
%TO.N,Board_17-Net-(J2-Pin_3)*%
X189520000Y-44143000D03*
%TD*%
D10*
%TO.P,J2,1,Pin_1*%
%TO.N,Board_42-Net-(J2-Pin_1)*%
X165200000Y-88699000D03*
D11*
%TO.P,J2,2,Pin_2*%
%TO.N,Board_42-Net-(J2-Pin_2)*%
X167740000Y-88699000D03*
%TO.P,J2,3,Pin_3*%
%TO.N,Board_42-Net-(J2-Pin_3)*%
X170280000Y-88699000D03*
%TD*%
D12*
%TO.P,Q1,1,E1*%
%TO.N,Board_36-Net-(J1-Pin_1)*%
X109070000Y-94774500D03*
%TO.P,Q1,2,B1*%
%TO.N,Board_36-Net-(J1-Pin_2)*%
X110020000Y-94774500D03*
%TO.P,Q1,3,C2*%
%TO.N,Board_36-Net-(J1-Pin_3)*%
X110970000Y-94774500D03*
%TO.P,Q1,4,E2*%
%TO.N,Board_36-Net-(J2-Pin_3)*%
X110970000Y-92499500D03*
%TO.P,Q1,5,B2*%
%TO.N,Board_36-Net-(J2-Pin_2)*%
X110020000Y-92499500D03*
%TO.P,Q1,6,C1*%
%TO.N,Board_36-Net-(J2-Pin_1)*%
X109070000Y-92499500D03*
%TD*%
D10*
%TO.P,J2,1,Pin_1*%
%TO.N,Board_36-Net-(J2-Pin_1)*%
X107480000Y-88699000D03*
D11*
%TO.P,J2,2,Pin_2*%
%TO.N,Board_36-Net-(J2-Pin_2)*%
X110020000Y-88699000D03*
%TO.P,J2,3,Pin_3*%
%TO.N,Board_36-Net-(J2-Pin_3)*%
X112560000Y-88699000D03*
%TD*%
D12*
%TO.P,Q1,1,E1*%
%TO.N,Board_39-Net-(J1-Pin_1)*%
X137930000Y-94774500D03*
%TO.P,Q1,2,B1*%
%TO.N,Board_39-Net-(J1-Pin_2)*%
X138880000Y-94774500D03*
%TO.P,Q1,3,C2*%
%TO.N,Board_39-Net-(J1-Pin_3)*%
X139830000Y-94774500D03*
%TO.P,Q1,4,E2*%
%TO.N,Board_39-Net-(J2-Pin_3)*%
X139830000Y-92499500D03*
%TO.P,Q1,5,B2*%
%TO.N,Board_39-Net-(J2-Pin_2)*%
X138880000Y-92499500D03*
%TO.P,Q1,6,C1*%
%TO.N,Board_39-Net-(J2-Pin_1)*%
X137930000Y-92499500D03*
%TD*%
D10*
%TO.P,J1,1,Pin_1*%
%TO.N,Board_43-Net-(J1-Pin_1)*%
X174820000Y-98859000D03*
D11*
%TO.P,J1,2,Pin_2*%
%TO.N,Board_43-Net-(J1-Pin_2)*%
X177360000Y-98859000D03*
%TO.P,J1,3,Pin_3*%
%TO.N,Board_43-Net-(J1-Pin_3)*%
X179900000Y-98859000D03*
%TD*%
D12*
%TO.P,Q1,1,E1*%
%TO.N,Board_41-Net-(J1-Pin_1)*%
X157170000Y-94774500D03*
%TO.P,Q1,2,B1*%
%TO.N,Board_41-Net-(J1-Pin_2)*%
X158120000Y-94774500D03*
%TO.P,Q1,3,C2*%
%TO.N,Board_41-Net-(J1-Pin_3)*%
X159070000Y-94774500D03*
%TO.P,Q1,4,E2*%
%TO.N,Board_41-Net-(J2-Pin_3)*%
X159070000Y-92499500D03*
%TO.P,Q1,5,B2*%
%TO.N,Board_41-Net-(J2-Pin_2)*%
X158120000Y-92499500D03*
%TO.P,Q1,6,C1*%
%TO.N,Board_41-Net-(J2-Pin_1)*%
X157170000Y-92499500D03*
%TD*%
%TO.P,Q1,1,E1*%
%TO.N,Board_38-Net-(J1-Pin_1)*%
X128310000Y-94774500D03*
%TO.P,Q1,2,B1*%
%TO.N,Board_38-Net-(J1-Pin_2)*%
X129260000Y-94774500D03*
%TO.P,Q1,3,C2*%
%TO.N,Board_38-Net-(J1-Pin_3)*%
X130210000Y-94774500D03*
%TO.P,Q1,4,E2*%
%TO.N,Board_38-Net-(J2-Pin_3)*%
X130210000Y-92499500D03*
%TO.P,Q1,5,B2*%
%TO.N,Board_38-Net-(J2-Pin_2)*%
X129260000Y-92499500D03*
%TO.P,Q1,6,C1*%
%TO.N,Board_38-Net-(J2-Pin_1)*%
X128310000Y-92499500D03*
%TD*%
D10*
%TO.P,J2,1,Pin_1*%
%TO.N,Board_6-Net-(J2-Pin_1)*%
X165200000Y-29291000D03*
D11*
%TO.P,J2,2,Pin_2*%
%TO.N,Board_6-Net-(J2-Pin_2)*%
X167740000Y-29291000D03*
%TO.P,J2,3,Pin_3*%
%TO.N,Board_6-Net-(J2-Pin_3)*%
X170280000Y-29291000D03*
%TD*%
D12*
%TO.P,Q1,1,E1*%
%TO.N,Board_23-Net-(J1-Pin_1)*%
X157170000Y-65070500D03*
%TO.P,Q1,2,B1*%
%TO.N,Board_23-Net-(J1-Pin_2)*%
X158120000Y-65070500D03*
%TO.P,Q1,3,C2*%
%TO.N,Board_23-Net-(J1-Pin_3)*%
X159070000Y-65070500D03*
%TO.P,Q1,4,E2*%
%TO.N,Board_23-Net-(J2-Pin_3)*%
X159070000Y-62795500D03*
%TO.P,Q1,5,B2*%
%TO.N,Board_23-Net-(J2-Pin_2)*%
X158120000Y-62795500D03*
%TO.P,Q1,6,C1*%
%TO.N,Board_23-Net-(J2-Pin_1)*%
X157170000Y-62795500D03*
%TD*%
D10*
%TO.P,J2,1,Pin_1*%
%TO.N,Board_5-Net-(J2-Pin_1)*%
X155580000Y-29291000D03*
D11*
%TO.P,J2,2,Pin_2*%
%TO.N,Board_5-Net-(J2-Pin_2)*%
X158120000Y-29291000D03*
%TO.P,J2,3,Pin_3*%
%TO.N,Board_5-Net-(J2-Pin_3)*%
X160660000Y-29291000D03*
%TD*%
D12*
%TO.P,Q1,1,E1*%
%TO.N,Board_7-Net-(J1-Pin_1)*%
X176410000Y-35366500D03*
%TO.P,Q1,2,B1*%
%TO.N,Board_7-Net-(J1-Pin_2)*%
X177360000Y-35366500D03*
%TO.P,Q1,3,C2*%
%TO.N,Board_7-Net-(J1-Pin_3)*%
X178310000Y-35366500D03*
%TO.P,Q1,4,E2*%
%TO.N,Board_7-Net-(J2-Pin_3)*%
X178310000Y-33091500D03*
%TO.P,Q1,5,B2*%
%TO.N,Board_7-Net-(J2-Pin_2)*%
X177360000Y-33091500D03*
%TO.P,Q1,6,C1*%
%TO.N,Board_7-Net-(J2-Pin_1)*%
X176410000Y-33091500D03*
%TD*%
%TO.P,Q1,1,E1*%
%TO.N,Board_3-Net-(J1-Pin_1)*%
X137930000Y-35366500D03*
%TO.P,Q1,2,B1*%
%TO.N,Board_3-Net-(J1-Pin_2)*%
X138880000Y-35366500D03*
%TO.P,Q1,3,C2*%
%TO.N,Board_3-Net-(J1-Pin_3)*%
X139830000Y-35366500D03*
%TO.P,Q1,4,E2*%
%TO.N,Board_3-Net-(J2-Pin_3)*%
X139830000Y-33091500D03*
%TO.P,Q1,5,B2*%
%TO.N,Board_3-Net-(J2-Pin_2)*%
X138880000Y-33091500D03*
%TO.P,Q1,6,C1*%
%TO.N,Board_3-Net-(J2-Pin_1)*%
X137930000Y-33091500D03*
%TD*%
%TO.P,Q1,1,E1*%
%TO.N,Board_27-Net-(J1-Pin_1)*%
X109070000Y-79922500D03*
%TO.P,Q1,2,B1*%
%TO.N,Board_27-Net-(J1-Pin_2)*%
X110020000Y-79922500D03*
%TO.P,Q1,3,C2*%
%TO.N,Board_27-Net-(J1-Pin_3)*%
X110970000Y-79922500D03*
%TO.P,Q1,4,E2*%
%TO.N,Board_27-Net-(J2-Pin_3)*%
X110970000Y-77647500D03*
%TO.P,Q1,5,B2*%
%TO.N,Board_27-Net-(J2-Pin_2)*%
X110020000Y-77647500D03*
%TO.P,Q1,6,C1*%
%TO.N,Board_27-Net-(J2-Pin_1)*%
X109070000Y-77647500D03*
%TD*%
%TO.P,Q1,1,E1*%
%TO.N,Board_28-Net-(J1-Pin_1)*%
X118690000Y-79922500D03*
%TO.P,Q1,2,B1*%
%TO.N,Board_28-Net-(J1-Pin_2)*%
X119640000Y-79922500D03*
%TO.P,Q1,3,C2*%
%TO.N,Board_28-Net-(J1-Pin_3)*%
X120590000Y-79922500D03*
%TO.P,Q1,4,E2*%
%TO.N,Board_28-Net-(J2-Pin_3)*%
X120590000Y-77647500D03*
%TO.P,Q1,5,B2*%
%TO.N,Board_28-Net-(J2-Pin_2)*%
X119640000Y-77647500D03*
%TO.P,Q1,6,C1*%
%TO.N,Board_28-Net-(J2-Pin_1)*%
X118690000Y-77647500D03*
%TD*%
D10*
%TO.P,J2,1,Pin_1*%
%TO.N,Board_16-Net-(J2-Pin_1)*%
X174820000Y-44143000D03*
D11*
%TO.P,J2,2,Pin_2*%
%TO.N,Board_16-Net-(J2-Pin_2)*%
X177360000Y-44143000D03*
%TO.P,J2,3,Pin_3*%
%TO.N,Board_16-Net-(J2-Pin_3)*%
X179900000Y-44143000D03*
%TD*%
D10*
%TO.P,J1,1,Pin_1*%
%TO.N,Board_38-Net-(J1-Pin_1)*%
X126720000Y-98859000D03*
D11*
%TO.P,J1,2,Pin_2*%
%TO.N,Board_38-Net-(J1-Pin_2)*%
X129260000Y-98859000D03*
%TO.P,J1,3,Pin_3*%
%TO.N,Board_38-Net-(J1-Pin_3)*%
X131800000Y-98859000D03*
%TD*%
D10*
%TO.P,J2,1,Pin_1*%
%TO.N,Board_9-Net-(J2-Pin_1)*%
X107480000Y-44143000D03*
D11*
%TO.P,J2,2,Pin_2*%
%TO.N,Board_9-Net-(J2-Pin_2)*%
X110020000Y-44143000D03*
%TO.P,J2,3,Pin_3*%
%TO.N,Board_9-Net-(J2-Pin_3)*%
X112560000Y-44143000D03*
%TD*%
D10*
%TO.P,J2,1,Pin_1*%
%TO.N,Board_22-Net-(J2-Pin_1)*%
X145960000Y-58995000D03*
D11*
%TO.P,J2,2,Pin_2*%
%TO.N,Board_22-Net-(J2-Pin_2)*%
X148500000Y-58995000D03*
%TO.P,J2,3,Pin_3*%
%TO.N,Board_22-Net-(J2-Pin_3)*%
X151040000Y-58995000D03*
%TD*%
D13*
%TO.N,Board_0-Net-(J1-Pin_1)*%
X108242000Y-35366500D02*
X107550000Y-36058500D01*
X107550000Y-36058500D02*
X107550000Y-39451000D01*
X109070000Y-35366500D02*
X108242000Y-35366500D01*
%TO.N,Board_0-Net-(J1-Pin_2)*%
X110020000Y-35366500D02*
X110020000Y-39451000D01*
%TO.N,Board_0-Net-(J1-Pin_3)*%
X112560000Y-39451000D02*
X112560000Y-36255500D01*
X111671000Y-35366500D02*
X112560000Y-36255500D01*
X111671000Y-35366500D02*
X110970000Y-35366500D01*
%TO.N,Board_0-Net-(J2-Pin_1)*%
X107480000Y-32191500D02*
X107480000Y-29291000D01*
X109070000Y-33091500D02*
X108380000Y-33091500D01*
X108380000Y-33091500D02*
X107480000Y-32191500D01*
%TO.N,Board_0-Net-(J2-Pin_2)*%
X110020000Y-33091500D02*
X110020000Y-29291000D01*
%TO.N,Board_0-Net-(J2-Pin_3)*%
X112560000Y-29291000D02*
X112560000Y-32191500D01*
X111671000Y-33091500D02*
X111671000Y-33080500D01*
X111671000Y-33080500D02*
X112560000Y-32191500D01*
X111671000Y-33091500D02*
X110970000Y-33091500D01*
%TO.N,Board_1-Net-(J1-Pin_1)*%
X117862000Y-35366500D02*
X117170000Y-36058500D01*
X117170000Y-36058500D02*
X117170000Y-39451000D01*
X118690000Y-35366500D02*
X117862000Y-35366500D01*
%TO.N,Board_1-Net-(J1-Pin_2)*%
X119640000Y-35366500D02*
X119640000Y-39451000D01*
%TO.N,Board_1-Net-(J1-Pin_3)*%
X121291000Y-35366500D02*
X120590000Y-35366500D01*
X122180000Y-39451000D02*
X122180000Y-36255500D01*
X121291000Y-35366500D02*
X122180000Y-36255500D01*
%TO.N,Board_1-Net-(J2-Pin_1)*%
X118000000Y-33091500D02*
X117100000Y-32191500D01*
X117100000Y-32191500D02*
X117100000Y-29291000D01*
X118690000Y-33091500D02*
X118000000Y-33091500D01*
%TO.N,Board_1-Net-(J2-Pin_2)*%
X119640000Y-33091500D02*
X119640000Y-29291000D01*
%TO.N,Board_1-Net-(J2-Pin_3)*%
X121291000Y-33091500D02*
X121291000Y-33080500D01*
X122180000Y-29291000D02*
X122180000Y-32191500D01*
X121291000Y-33080500D02*
X122180000Y-32191500D01*
X121291000Y-33091500D02*
X120590000Y-33091500D01*
%TO.N,Board_2-Net-(J1-Pin_1)*%
X126790000Y-36058500D02*
X126790000Y-39451000D01*
X127482000Y-35366500D02*
X126790000Y-36058500D01*
X128310000Y-35366500D02*
X127482000Y-35366500D01*
%TO.N,Board_2-Net-(J1-Pin_2)*%
X129260000Y-35366500D02*
X129260000Y-39451000D01*
%TO.N,Board_2-Net-(J1-Pin_3)*%
X130911000Y-35366500D02*
X131800000Y-36255500D01*
X131800000Y-39451000D02*
X131800000Y-36255500D01*
X130911000Y-35366500D02*
X130210000Y-35366500D01*
%TO.N,Board_2-Net-(J2-Pin_1)*%
X128310000Y-33091500D02*
X127620000Y-33091500D01*
X126720000Y-32191500D02*
X126720000Y-29291000D01*
X127620000Y-33091500D02*
X126720000Y-32191500D01*
%TO.N,Board_2-Net-(J2-Pin_2)*%
X129260000Y-33091500D02*
X129260000Y-29291000D01*
%TO.N,Board_2-Net-(J2-Pin_3)*%
X130911000Y-33091500D02*
X130210000Y-33091500D01*
X131800000Y-29291000D02*
X131800000Y-32191500D01*
X130911000Y-33080500D02*
X131800000Y-32191500D01*
X130911000Y-33091500D02*
X130911000Y-33080500D01*
%TO.N,Board_3-Net-(J1-Pin_1)*%
X136410000Y-36058500D02*
X136410000Y-39451000D01*
X137102000Y-35366500D02*
X136410000Y-36058500D01*
X137930000Y-35366500D02*
X137102000Y-35366500D01*
%TO.N,Board_3-Net-(J1-Pin_2)*%
X138880000Y-35366500D02*
X138880000Y-39451000D01*
%TO.N,Board_3-Net-(J1-Pin_3)*%
X140531000Y-35366500D02*
X141420000Y-36255500D01*
X140531000Y-35366500D02*
X139830000Y-35366500D01*
X141420000Y-39451000D02*
X141420000Y-36255500D01*
%TO.N,Board_3-Net-(J2-Pin_1)*%
X137240000Y-33091500D02*
X136340000Y-32191500D01*
X136340000Y-32191500D02*
X136340000Y-29291000D01*
X137930000Y-33091500D02*
X137240000Y-33091500D01*
%TO.N,Board_3-Net-(J2-Pin_2)*%
X138880000Y-33091500D02*
X138880000Y-29291000D01*
%TO.N,Board_3-Net-(J2-Pin_3)*%
X141420000Y-29291000D02*
X141420000Y-32191500D01*
X140531000Y-33080500D02*
X141420000Y-32191500D01*
X140531000Y-33091500D02*
X140531000Y-33080500D01*
X140531000Y-33091500D02*
X139830000Y-33091500D01*
%TO.N,Board_4-Net-(J1-Pin_1)*%
X146722000Y-35366500D02*
X146030000Y-36058500D01*
X147550000Y-35366500D02*
X146722000Y-35366500D01*
X146030000Y-36058500D02*
X146030000Y-39451000D01*
%TO.N,Board_4-Net-(J1-Pin_2)*%
X148500000Y-35366500D02*
X148500000Y-39451000D01*
%TO.N,Board_4-Net-(J1-Pin_3)*%
X150151000Y-35366500D02*
X149450000Y-35366500D01*
X150151000Y-35366500D02*
X151040000Y-36255500D01*
X151040000Y-39451000D02*
X151040000Y-36255500D01*
%TO.N,Board_4-Net-(J2-Pin_1)*%
X147550000Y-33091500D02*
X146860000Y-33091500D01*
X146860000Y-33091500D02*
X145960000Y-32191500D01*
X145960000Y-32191500D02*
X145960000Y-29291000D01*
%TO.N,Board_4-Net-(J2-Pin_2)*%
X148500000Y-33091500D02*
X148500000Y-29291000D01*
%TO.N,Board_4-Net-(J2-Pin_3)*%
X150151000Y-33080500D02*
X151040000Y-32191500D01*
X151040000Y-29291000D02*
X151040000Y-32191500D01*
X150151000Y-33091500D02*
X149450000Y-33091500D01*
X150151000Y-33091500D02*
X150151000Y-33080500D01*
%TO.N,Board_5-Net-(J1-Pin_1)*%
X155650000Y-36058500D02*
X155650000Y-39451000D01*
X157170000Y-35366500D02*
X156342000Y-35366500D01*
X156342000Y-35366500D02*
X155650000Y-36058500D01*
%TO.N,Board_5-Net-(J1-Pin_2)*%
X158120000Y-35366500D02*
X158120000Y-39451000D01*
%TO.N,Board_5-Net-(J1-Pin_3)*%
X159771000Y-35366500D02*
X159070000Y-35366500D01*
X159771000Y-35366500D02*
X160660000Y-36255500D01*
X160660000Y-39451000D02*
X160660000Y-36255500D01*
%TO.N,Board_5-Net-(J2-Pin_1)*%
X157170000Y-33091500D02*
X156480000Y-33091500D01*
X155580000Y-32191500D02*
X155580000Y-29291000D01*
X156480000Y-33091500D02*
X155580000Y-32191500D01*
%TO.N,Board_5-Net-(J2-Pin_2)*%
X158120000Y-33091500D02*
X158120000Y-29291000D01*
%TO.N,Board_5-Net-(J2-Pin_3)*%
X159771000Y-33080500D02*
X160660000Y-32191500D01*
X160660000Y-29291000D02*
X160660000Y-32191500D01*
X159771000Y-33091500D02*
X159070000Y-33091500D01*
X159771000Y-33091500D02*
X159771000Y-33080500D01*
%TO.N,Board_6-Net-(J1-Pin_1)*%
X165270000Y-36058500D02*
X165270000Y-39451000D01*
X165962000Y-35366500D02*
X165270000Y-36058500D01*
X166790000Y-35366500D02*
X165962000Y-35366500D01*
%TO.N,Board_6-Net-(J1-Pin_2)*%
X167740000Y-35366500D02*
X167740000Y-39451000D01*
%TO.N,Board_6-Net-(J1-Pin_3)*%
X169391000Y-35366500D02*
X170280000Y-36255500D01*
X170280000Y-39451000D02*
X170280000Y-36255500D01*
X169391000Y-35366500D02*
X168690000Y-35366500D01*
%TO.N,Board_6-Net-(J2-Pin_1)*%
X166100000Y-33091500D02*
X165200000Y-32191500D01*
X166790000Y-33091500D02*
X166100000Y-33091500D01*
X165200000Y-32191500D02*
X165200000Y-29291000D01*
%TO.N,Board_6-Net-(J2-Pin_2)*%
X167740000Y-33091500D02*
X167740000Y-29291000D01*
%TO.N,Board_6-Net-(J2-Pin_3)*%
X169391000Y-33091500D02*
X168690000Y-33091500D01*
X169391000Y-33080500D02*
X170280000Y-32191500D01*
X169391000Y-33091500D02*
X169391000Y-33080500D01*
X170280000Y-29291000D02*
X170280000Y-32191500D01*
%TO.N,Board_7-Net-(J1-Pin_1)*%
X176410000Y-35366500D02*
X175582000Y-35366500D01*
X175582000Y-35366500D02*
X174890000Y-36058500D01*
X174890000Y-36058500D02*
X174890000Y-39451000D01*
%TO.N,Board_7-Net-(J1-Pin_2)*%
X177360000Y-35366500D02*
X177360000Y-39451000D01*
%TO.N,Board_7-Net-(J1-Pin_3)*%
X179900000Y-39451000D02*
X179900000Y-36255500D01*
X179011000Y-35366500D02*
X179900000Y-36255500D01*
X179011000Y-35366500D02*
X178310000Y-35366500D01*
%TO.N,Board_7-Net-(J2-Pin_1)*%
X175720000Y-33091500D02*
X174820000Y-32191500D01*
X176410000Y-33091500D02*
X175720000Y-33091500D01*
X174820000Y-32191500D02*
X174820000Y-29291000D01*
%TO.N,Board_7-Net-(J2-Pin_2)*%
X177360000Y-33091500D02*
X177360000Y-29291000D01*
%TO.N,Board_7-Net-(J2-Pin_3)*%
X179900000Y-29291000D02*
X179900000Y-32191500D01*
X179011000Y-33091500D02*
X178310000Y-33091500D01*
X179011000Y-33080500D02*
X179900000Y-32191500D01*
X179011000Y-33091500D02*
X179011000Y-33080500D01*
%TO.N,Board_8-Net-(J1-Pin_1)*%
X185202000Y-35366500D02*
X184510000Y-36058500D01*
X186030000Y-35366500D02*
X185202000Y-35366500D01*
X184510000Y-36058500D02*
X184510000Y-39451000D01*
%TO.N,Board_8-Net-(J1-Pin_2)*%
X186980000Y-35366500D02*
X186980000Y-39451000D01*
%TO.N,Board_8-Net-(J1-Pin_3)*%
X188631000Y-35366500D02*
X189520000Y-36255500D01*
X188631000Y-35366500D02*
X187930000Y-35366500D01*
X189520000Y-39451000D02*
X189520000Y-36255500D01*
%TO.N,Board_8-Net-(J2-Pin_1)*%
X185340000Y-33091500D02*
X184440000Y-32191500D01*
X184440000Y-32191500D02*
X184440000Y-29291000D01*
X186030000Y-33091500D02*
X185340000Y-33091500D01*
%TO.N,Board_8-Net-(J2-Pin_2)*%
X186980000Y-33091500D02*
X186980000Y-29291000D01*
%TO.N,Board_8-Net-(J2-Pin_3)*%
X188631000Y-33091500D02*
X187930000Y-33091500D01*
X188631000Y-33091500D02*
X188631000Y-33080500D01*
X189520000Y-29291000D02*
X189520000Y-32191500D01*
X188631000Y-33080500D02*
X189520000Y-32191500D01*
%TO.N,Board_9-Net-(J1-Pin_1)*%
X107550000Y-50910500D02*
X107550000Y-54303000D01*
X108242000Y-50218500D02*
X107550000Y-50910500D01*
X109070000Y-50218500D02*
X108242000Y-50218500D01*
%TO.N,Board_9-Net-(J1-Pin_2)*%
X110020000Y-50218500D02*
X110020000Y-54303000D01*
%TO.N,Board_9-Net-(J1-Pin_3)*%
X111671000Y-50218500D02*
X112560000Y-51107500D01*
X111671000Y-50218500D02*
X110970000Y-50218500D01*
X112560000Y-54303000D02*
X112560000Y-51107500D01*
%TO.N,Board_9-Net-(J2-Pin_1)*%
X109070000Y-47943500D02*
X108380000Y-47943500D01*
X108380000Y-47943500D02*
X107480000Y-47043500D01*
X107480000Y-47043500D02*
X107480000Y-44143000D01*
%TO.N,Board_9-Net-(J2-Pin_2)*%
X110020000Y-47943500D02*
X110020000Y-44143000D01*
%TO.N,Board_9-Net-(J2-Pin_3)*%
X111671000Y-47932500D02*
X112560000Y-47043500D01*
X111671000Y-47943500D02*
X111671000Y-47932500D01*
X112560000Y-44143000D02*
X112560000Y-47043500D01*
X111671000Y-47943500D02*
X110970000Y-47943500D01*
%TO.N,Board_10-Net-(J1-Pin_1)*%
X118690000Y-50218500D02*
X117862000Y-50218500D01*
X117170000Y-50910500D02*
X117170000Y-54303000D01*
X117862000Y-50218500D02*
X117170000Y-50910500D01*
%TO.N,Board_10-Net-(J1-Pin_2)*%
X119640000Y-50218500D02*
X119640000Y-54303000D01*
%TO.N,Board_10-Net-(J1-Pin_3)*%
X121291000Y-50218500D02*
X120590000Y-50218500D01*
X122180000Y-54303000D02*
X122180000Y-51107500D01*
X121291000Y-50218500D02*
X122180000Y-51107500D01*
%TO.N,Board_10-Net-(J2-Pin_1)*%
X118690000Y-47943500D02*
X118000000Y-47943500D01*
X117100000Y-47043500D02*
X117100000Y-44143000D01*
X118000000Y-47943500D02*
X117100000Y-47043500D01*
%TO.N,Board_10-Net-(J2-Pin_2)*%
X119640000Y-47943500D02*
X119640000Y-44143000D01*
%TO.N,Board_10-Net-(J2-Pin_3)*%
X121291000Y-47943500D02*
X120590000Y-47943500D01*
X122180000Y-44143000D02*
X122180000Y-47043500D01*
X121291000Y-47932500D02*
X122180000Y-47043500D01*
X121291000Y-47943500D02*
X121291000Y-47932500D01*
%TO.N,Board_11-Net-(J1-Pin_1)*%
X126790000Y-50910500D02*
X126790000Y-54303000D01*
X127482000Y-50218500D02*
X126790000Y-50910500D01*
X128310000Y-50218500D02*
X127482000Y-50218500D01*
%TO.N,Board_11-Net-(J1-Pin_2)*%
X129260000Y-50218500D02*
X129260000Y-54303000D01*
%TO.N,Board_11-Net-(J1-Pin_3)*%
X130911000Y-50218500D02*
X131800000Y-51107500D01*
X130911000Y-50218500D02*
X130210000Y-50218500D01*
X131800000Y-54303000D02*
X131800000Y-51107500D01*
%TO.N,Board_11-Net-(J2-Pin_1)*%
X126720000Y-47043500D02*
X126720000Y-44143000D01*
X127620000Y-47943500D02*
X126720000Y-47043500D01*
X128310000Y-47943500D02*
X127620000Y-47943500D01*
%TO.N,Board_11-Net-(J2-Pin_2)*%
X129260000Y-47943500D02*
X129260000Y-44143000D01*
%TO.N,Board_11-Net-(J2-Pin_3)*%
X131800000Y-44143000D02*
X131800000Y-47043500D01*
X130911000Y-47943500D02*
X130911000Y-47932500D01*
X130911000Y-47943500D02*
X130210000Y-47943500D01*
X130911000Y-47932500D02*
X131800000Y-47043500D01*
%TO.N,Board_12-Net-(J1-Pin_1)*%
X136410000Y-50910500D02*
X136410000Y-54303000D01*
X137930000Y-50218500D02*
X137102000Y-50218500D01*
X137102000Y-50218500D02*
X136410000Y-50910500D01*
%TO.N,Board_12-Net-(J1-Pin_2)*%
X138880000Y-50218500D02*
X138880000Y-54303000D01*
%TO.N,Board_12-Net-(J1-Pin_3)*%
X141420000Y-54303000D02*
X141420000Y-51107500D01*
X140531000Y-50218500D02*
X141420000Y-51107500D01*
X140531000Y-50218500D02*
X139830000Y-50218500D01*
%TO.N,Board_12-Net-(J2-Pin_1)*%
X137240000Y-47943500D02*
X136340000Y-47043500D01*
X137930000Y-47943500D02*
X137240000Y-47943500D01*
X136340000Y-47043500D02*
X136340000Y-44143000D01*
%TO.N,Board_12-Net-(J2-Pin_2)*%
X138880000Y-47943500D02*
X138880000Y-44143000D01*
%TO.N,Board_12-Net-(J2-Pin_3)*%
X140531000Y-47943500D02*
X139830000Y-47943500D01*
X141420000Y-44143000D02*
X141420000Y-47043500D01*
X140531000Y-47932500D02*
X141420000Y-47043500D01*
X140531000Y-47943500D02*
X140531000Y-47932500D01*
%TO.N,Board_13-Net-(J1-Pin_1)*%
X146030000Y-50910500D02*
X146030000Y-54303000D01*
X147550000Y-50218500D02*
X146722000Y-50218500D01*
X146722000Y-50218500D02*
X146030000Y-50910500D01*
%TO.N,Board_13-Net-(J1-Pin_2)*%
X148500000Y-50218500D02*
X148500000Y-54303000D01*
%TO.N,Board_13-Net-(J1-Pin_3)*%
X150151000Y-50218500D02*
X149450000Y-50218500D01*
X150151000Y-50218500D02*
X151040000Y-51107500D01*
X151040000Y-54303000D02*
X151040000Y-51107500D01*
%TO.N,Board_13-Net-(J2-Pin_1)*%
X147550000Y-47943500D02*
X146860000Y-47943500D01*
X145960000Y-47043500D02*
X145960000Y-44143000D01*
X146860000Y-47943500D02*
X145960000Y-47043500D01*
%TO.N,Board_13-Net-(J2-Pin_2)*%
X148500000Y-47943500D02*
X148500000Y-44143000D01*
%TO.N,Board_13-Net-(J2-Pin_3)*%
X150151000Y-47943500D02*
X149450000Y-47943500D01*
X150151000Y-47932500D02*
X151040000Y-47043500D01*
X150151000Y-47943500D02*
X150151000Y-47932500D01*
X151040000Y-44143000D02*
X151040000Y-47043500D01*
%TO.N,Board_14-Net-(J1-Pin_1)*%
X156342000Y-50218500D02*
X155650000Y-50910500D01*
X157170000Y-50218500D02*
X156342000Y-50218500D01*
X155650000Y-50910500D02*
X155650000Y-54303000D01*
%TO.N,Board_14-Net-(J1-Pin_2)*%
X158120000Y-50218500D02*
X158120000Y-54303000D01*
%TO.N,Board_14-Net-(J1-Pin_3)*%
X159771000Y-50218500D02*
X160660000Y-51107500D01*
X160660000Y-54303000D02*
X160660000Y-51107500D01*
X159771000Y-50218500D02*
X159070000Y-50218500D01*
%TO.N,Board_14-Net-(J2-Pin_1)*%
X157170000Y-47943500D02*
X156480000Y-47943500D01*
X155580000Y-47043500D02*
X155580000Y-44143000D01*
X156480000Y-47943500D02*
X155580000Y-47043500D01*
%TO.N,Board_14-Net-(J2-Pin_2)*%
X158120000Y-47943500D02*
X158120000Y-44143000D01*
%TO.N,Board_14-Net-(J2-Pin_3)*%
X159771000Y-47932500D02*
X160660000Y-47043500D01*
X159771000Y-47943500D02*
X159070000Y-47943500D01*
X160660000Y-44143000D02*
X160660000Y-47043500D01*
X159771000Y-47943500D02*
X159771000Y-47932500D01*
%TO.N,Board_15-Net-(J1-Pin_1)*%
X166790000Y-50218500D02*
X165962000Y-50218500D01*
X165270000Y-50910500D02*
X165270000Y-54303000D01*
X165962000Y-50218500D02*
X165270000Y-50910500D01*
%TO.N,Board_15-Net-(J1-Pin_2)*%
X167740000Y-50218500D02*
X167740000Y-54303000D01*
%TO.N,Board_15-Net-(J1-Pin_3)*%
X169391000Y-50218500D02*
X168690000Y-50218500D01*
X170280000Y-54303000D02*
X170280000Y-51107500D01*
X169391000Y-50218500D02*
X170280000Y-51107500D01*
%TO.N,Board_15-Net-(J2-Pin_1)*%
X166100000Y-47943500D02*
X165200000Y-47043500D01*
X166790000Y-47943500D02*
X166100000Y-47943500D01*
X165200000Y-47043500D02*
X165200000Y-44143000D01*
%TO.N,Board_15-Net-(J2-Pin_2)*%
X167740000Y-47943500D02*
X167740000Y-44143000D01*
%TO.N,Board_15-Net-(J2-Pin_3)*%
X169391000Y-47932500D02*
X170280000Y-47043500D01*
X169391000Y-47943500D02*
X169391000Y-47932500D01*
X169391000Y-47943500D02*
X168690000Y-47943500D01*
X170280000Y-44143000D02*
X170280000Y-47043500D01*
%TO.N,Board_16-Net-(J1-Pin_1)*%
X175582000Y-50218500D02*
X174890000Y-50910500D01*
X174890000Y-50910500D02*
X174890000Y-54303000D01*
X176410000Y-50218500D02*
X175582000Y-50218500D01*
%TO.N,Board_16-Net-(J1-Pin_2)*%
X177360000Y-50218500D02*
X177360000Y-54303000D01*
%TO.N,Board_16-Net-(J1-Pin_3)*%
X179011000Y-50218500D02*
X178310000Y-50218500D01*
X179900000Y-54303000D02*
X179900000Y-51107500D01*
X179011000Y-50218500D02*
X179900000Y-51107500D01*
%TO.N,Board_16-Net-(J2-Pin_1)*%
X174820000Y-47043500D02*
X174820000Y-44143000D01*
X175720000Y-47943500D02*
X174820000Y-47043500D01*
X176410000Y-47943500D02*
X175720000Y-47943500D01*
%TO.N,Board_16-Net-(J2-Pin_2)*%
X177360000Y-47943500D02*
X177360000Y-44143000D01*
%TO.N,Board_16-Net-(J2-Pin_3)*%
X179011000Y-47943500D02*
X179011000Y-47932500D01*
X179900000Y-44143000D02*
X179900000Y-47043500D01*
X179011000Y-47932500D02*
X179900000Y-47043500D01*
X179011000Y-47943500D02*
X178310000Y-47943500D01*
%TO.N,Board_17-Net-(J1-Pin_1)*%
X186030000Y-50218500D02*
X185202000Y-50218500D01*
X185202000Y-50218500D02*
X184510000Y-50910500D01*
X184510000Y-50910500D02*
X184510000Y-54303000D01*
%TO.N,Board_17-Net-(J1-Pin_2)*%
X186980000Y-50218500D02*
X186980000Y-54303000D01*
%TO.N,Board_17-Net-(J1-Pin_3)*%
X189520000Y-54303000D02*
X189520000Y-51107500D01*
X188631000Y-50218500D02*
X187930000Y-50218500D01*
X188631000Y-50218500D02*
X189520000Y-51107500D01*
%TO.N,Board_17-Net-(J2-Pin_1)*%
X185340000Y-47943500D02*
X184440000Y-47043500D01*
X186030000Y-47943500D02*
X185340000Y-47943500D01*
X184440000Y-47043500D02*
X184440000Y-44143000D01*
%TO.N,Board_17-Net-(J2-Pin_2)*%
X186980000Y-47943500D02*
X186980000Y-44143000D01*
%TO.N,Board_17-Net-(J2-Pin_3)*%
X188631000Y-47932500D02*
X189520000Y-47043500D01*
X188631000Y-47943500D02*
X188631000Y-47932500D01*
X188631000Y-47943500D02*
X187930000Y-47943500D01*
X189520000Y-44143000D02*
X189520000Y-47043500D01*
%TO.N,Board_18-Net-(J1-Pin_1)*%
X108242000Y-65070500D02*
X107550000Y-65762500D01*
X107550000Y-65762500D02*
X107550000Y-69155000D01*
X109070000Y-65070500D02*
X108242000Y-65070500D01*
%TO.N,Board_18-Net-(J1-Pin_2)*%
X110020000Y-65070500D02*
X110020000Y-69155000D01*
%TO.N,Board_18-Net-(J1-Pin_3)*%
X111671000Y-65070500D02*
X110970000Y-65070500D01*
X112560000Y-69155000D02*
X112560000Y-65959500D01*
X111671000Y-65070500D02*
X112560000Y-65959500D01*
%TO.N,Board_18-Net-(J2-Pin_1)*%
X108380000Y-62795500D02*
X107480000Y-61895500D01*
X107480000Y-61895500D02*
X107480000Y-58995000D01*
X109070000Y-62795500D02*
X108380000Y-62795500D01*
%TO.N,Board_18-Net-(J2-Pin_2)*%
X110020000Y-62795500D02*
X110020000Y-58995000D01*
%TO.N,Board_18-Net-(J2-Pin_3)*%
X111671000Y-62784500D02*
X112560000Y-61895500D01*
X111671000Y-62795500D02*
X110970000Y-62795500D01*
X111671000Y-62795500D02*
X111671000Y-62784500D01*
X112560000Y-58995000D02*
X112560000Y-61895500D01*
%TO.N,Board_19-Net-(J1-Pin_1)*%
X117170000Y-65762500D02*
X117170000Y-69155000D01*
X118690000Y-65070500D02*
X117862000Y-65070500D01*
X117862000Y-65070500D02*
X117170000Y-65762500D01*
%TO.N,Board_19-Net-(J1-Pin_2)*%
X119640000Y-65070500D02*
X119640000Y-69155000D01*
%TO.N,Board_19-Net-(J1-Pin_3)*%
X122180000Y-69155000D02*
X122180000Y-65959500D01*
X121291000Y-65070500D02*
X120590000Y-65070500D01*
X121291000Y-65070500D02*
X122180000Y-65959500D01*
%TO.N,Board_19-Net-(J2-Pin_1)*%
X118000000Y-62795500D02*
X117100000Y-61895500D01*
X117100000Y-61895500D02*
X117100000Y-58995000D01*
X118690000Y-62795500D02*
X118000000Y-62795500D01*
%TO.N,Board_19-Net-(J2-Pin_2)*%
X119640000Y-62795500D02*
X119640000Y-58995000D01*
%TO.N,Board_19-Net-(J2-Pin_3)*%
X122180000Y-58995000D02*
X122180000Y-61895500D01*
X121291000Y-62784500D02*
X122180000Y-61895500D01*
X121291000Y-62795500D02*
X120590000Y-62795500D01*
X121291000Y-62795500D02*
X121291000Y-62784500D01*
%TO.N,Board_20-Net-(J1-Pin_1)*%
X127482000Y-65070500D02*
X126790000Y-65762500D01*
X128310000Y-65070500D02*
X127482000Y-65070500D01*
X126790000Y-65762500D02*
X126790000Y-69155000D01*
%TO.N,Board_20-Net-(J1-Pin_2)*%
X129260000Y-65070500D02*
X129260000Y-69155000D01*
%TO.N,Board_20-Net-(J1-Pin_3)*%
X130911000Y-65070500D02*
X131800000Y-65959500D01*
X131800000Y-69155000D02*
X131800000Y-65959500D01*
X130911000Y-65070500D02*
X130210000Y-65070500D01*
%TO.N,Board_20-Net-(J2-Pin_1)*%
X126720000Y-61895500D02*
X126720000Y-58995000D01*
X128310000Y-62795500D02*
X127620000Y-62795500D01*
X127620000Y-62795500D02*
X126720000Y-61895500D01*
%TO.N,Board_20-Net-(J2-Pin_2)*%
X129260000Y-62795500D02*
X129260000Y-58995000D01*
%TO.N,Board_20-Net-(J2-Pin_3)*%
X131800000Y-58995000D02*
X131800000Y-61895500D01*
X130911000Y-62784500D02*
X131800000Y-61895500D01*
X130911000Y-62795500D02*
X130210000Y-62795500D01*
X130911000Y-62795500D02*
X130911000Y-62784500D01*
%TO.N,Board_21-Net-(J1-Pin_1)*%
X137930000Y-65070500D02*
X137102000Y-65070500D01*
X137102000Y-65070500D02*
X136410000Y-65762500D01*
X136410000Y-65762500D02*
X136410000Y-69155000D01*
%TO.N,Board_21-Net-(J1-Pin_2)*%
X138880000Y-65070500D02*
X138880000Y-69155000D01*
%TO.N,Board_21-Net-(J1-Pin_3)*%
X140531000Y-65070500D02*
X141420000Y-65959500D01*
X141420000Y-69155000D02*
X141420000Y-65959500D01*
X140531000Y-65070500D02*
X139830000Y-65070500D01*
%TO.N,Board_21-Net-(J2-Pin_1)*%
X137240000Y-62795500D02*
X136340000Y-61895500D01*
X137930000Y-62795500D02*
X137240000Y-62795500D01*
X136340000Y-61895500D02*
X136340000Y-58995000D01*
%TO.N,Board_21-Net-(J2-Pin_2)*%
X138880000Y-62795500D02*
X138880000Y-58995000D01*
%TO.N,Board_21-Net-(J2-Pin_3)*%
X140531000Y-62784500D02*
X141420000Y-61895500D01*
X140531000Y-62795500D02*
X139830000Y-62795500D01*
X141420000Y-58995000D02*
X141420000Y-61895500D01*
X140531000Y-62795500D02*
X140531000Y-62784500D01*
%TO.N,Board_22-Net-(J1-Pin_1)*%
X146030000Y-65762500D02*
X146030000Y-69155000D01*
X146722000Y-65070500D02*
X146030000Y-65762500D01*
X147550000Y-65070500D02*
X146722000Y-65070500D01*
%TO.N,Board_22-Net-(J1-Pin_2)*%
X148500000Y-65070500D02*
X148500000Y-69155000D01*
%TO.N,Board_22-Net-(J1-Pin_3)*%
X150151000Y-65070500D02*
X151040000Y-65959500D01*
X150151000Y-65070500D02*
X149450000Y-65070500D01*
X151040000Y-69155000D02*
X151040000Y-65959500D01*
%TO.N,Board_22-Net-(J2-Pin_1)*%
X146860000Y-62795500D02*
X145960000Y-61895500D01*
X145960000Y-61895500D02*
X145960000Y-58995000D01*
X147550000Y-62795500D02*
X146860000Y-62795500D01*
%TO.N,Board_22-Net-(J2-Pin_2)*%
X148500000Y-62795500D02*
X148500000Y-58995000D01*
%TO.N,Board_22-Net-(J2-Pin_3)*%
X150151000Y-62795500D02*
X150151000Y-62784500D01*
X151040000Y-58995000D02*
X151040000Y-61895500D01*
X150151000Y-62795500D02*
X149450000Y-62795500D01*
X150151000Y-62784500D02*
X151040000Y-61895500D01*
%TO.N,Board_23-Net-(J1-Pin_1)*%
X157170000Y-65070500D02*
X156342000Y-65070500D01*
X156342000Y-65070500D02*
X155650000Y-65762500D01*
X155650000Y-65762500D02*
X155650000Y-69155000D01*
%TO.N,Board_23-Net-(J1-Pin_2)*%
X158120000Y-65070500D02*
X158120000Y-69155000D01*
%TO.N,Board_23-Net-(J1-Pin_3)*%
X159771000Y-65070500D02*
X159070000Y-65070500D01*
X160660000Y-69155000D02*
X160660000Y-65959500D01*
X159771000Y-65070500D02*
X160660000Y-65959500D01*
%TO.N,Board_23-Net-(J2-Pin_1)*%
X157170000Y-62795500D02*
X156480000Y-62795500D01*
X155580000Y-61895500D02*
X155580000Y-58995000D01*
X156480000Y-62795500D02*
X155580000Y-61895500D01*
%TO.N,Board_23-Net-(J2-Pin_2)*%
X158120000Y-62795500D02*
X158120000Y-58995000D01*
%TO.N,Board_23-Net-(J2-Pin_3)*%
X160660000Y-58995000D02*
X160660000Y-61895500D01*
X159771000Y-62784500D02*
X160660000Y-61895500D01*
X159771000Y-62795500D02*
X159070000Y-62795500D01*
X159771000Y-62795500D02*
X159771000Y-62784500D01*
%TO.N,Board_24-Net-(J1-Pin_1)*%
X165270000Y-65762500D02*
X165270000Y-69155000D01*
X166790000Y-65070500D02*
X165962000Y-65070500D01*
X165962000Y-65070500D02*
X165270000Y-65762500D01*
%TO.N,Board_24-Net-(J1-Pin_2)*%
X167740000Y-65070500D02*
X167740000Y-69155000D01*
%TO.N,Board_24-Net-(J1-Pin_3)*%
X170280000Y-69155000D02*
X170280000Y-65959500D01*
X169391000Y-65070500D02*
X168690000Y-65070500D01*
X169391000Y-65070500D02*
X170280000Y-65959500D01*
%TO.N,Board_24-Net-(J2-Pin_1)*%
X166100000Y-62795500D02*
X165200000Y-61895500D01*
X165200000Y-61895500D02*
X165200000Y-58995000D01*
X166790000Y-62795500D02*
X166100000Y-62795500D01*
%TO.N,Board_24-Net-(J2-Pin_2)*%
X167740000Y-62795500D02*
X167740000Y-58995000D01*
%TO.N,Board_24-Net-(J2-Pin_3)*%
X169391000Y-62784500D02*
X170280000Y-61895500D01*
X169391000Y-62795500D02*
X168690000Y-62795500D01*
X169391000Y-62795500D02*
X169391000Y-62784500D01*
X170280000Y-58995000D02*
X170280000Y-61895500D01*
%TO.N,Board_25-Net-(J1-Pin_1)*%
X175582000Y-65070500D02*
X174890000Y-65762500D01*
X176410000Y-65070500D02*
X175582000Y-65070500D01*
X174890000Y-65762500D02*
X174890000Y-69155000D01*
%TO.N,Board_25-Net-(J1-Pin_2)*%
X177360000Y-65070500D02*
X177360000Y-69155000D01*
%TO.N,Board_25-Net-(J1-Pin_3)*%
X179011000Y-65070500D02*
X178310000Y-65070500D01*
X179011000Y-65070500D02*
X179900000Y-65959500D01*
X179900000Y-69155000D02*
X179900000Y-65959500D01*
%TO.N,Board_25-Net-(J2-Pin_1)*%
X174820000Y-61895500D02*
X174820000Y-58995000D01*
X175720000Y-62795500D02*
X174820000Y-61895500D01*
X176410000Y-62795500D02*
X175720000Y-62795500D01*
%TO.N,Board_25-Net-(J2-Pin_2)*%
X177360000Y-62795500D02*
X177360000Y-58995000D01*
%TO.N,Board_25-Net-(J2-Pin_3)*%
X179011000Y-62795500D02*
X179011000Y-62784500D01*
X179011000Y-62784500D02*
X179900000Y-61895500D01*
X179900000Y-58995000D02*
X179900000Y-61895500D01*
X179011000Y-62795500D02*
X178310000Y-62795500D01*
%TO.N,Board_26-Net-(J1-Pin_1)*%
X186030000Y-65070500D02*
X185202000Y-65070500D01*
X185202000Y-65070500D02*
X184510000Y-65762500D01*
X184510000Y-65762500D02*
X184510000Y-69155000D01*
%TO.N,Board_26-Net-(J1-Pin_2)*%
X186980000Y-65070500D02*
X186980000Y-69155000D01*
%TO.N,Board_26-Net-(J1-Pin_3)*%
X188631000Y-65070500D02*
X187930000Y-65070500D01*
X188631000Y-65070500D02*
X189520000Y-65959500D01*
X189520000Y-69155000D02*
X189520000Y-65959500D01*
%TO.N,Board_26-Net-(J2-Pin_1)*%
X186030000Y-62795500D02*
X185340000Y-62795500D01*
X185340000Y-62795500D02*
X184440000Y-61895500D01*
X184440000Y-61895500D02*
X184440000Y-58995000D01*
%TO.N,Board_26-Net-(J2-Pin_2)*%
X186980000Y-62795500D02*
X186980000Y-58995000D01*
%TO.N,Board_26-Net-(J2-Pin_3)*%
X188631000Y-62795500D02*
X187930000Y-62795500D01*
X188631000Y-62784500D02*
X189520000Y-61895500D01*
X188631000Y-62795500D02*
X188631000Y-62784500D01*
X189520000Y-58995000D02*
X189520000Y-61895500D01*
%TO.N,Board_27-Net-(J1-Pin_1)*%
X108242000Y-79922500D02*
X107550000Y-80614500D01*
X107550000Y-80614500D02*
X107550000Y-84007000D01*
X109070000Y-79922500D02*
X108242000Y-79922500D01*
%TO.N,Board_27-Net-(J1-Pin_2)*%
X110020000Y-79922500D02*
X110020000Y-84007000D01*
%TO.N,Board_27-Net-(J1-Pin_3)*%
X111671000Y-79922500D02*
X110970000Y-79922500D01*
X112560000Y-84007000D02*
X112560000Y-80811500D01*
X111671000Y-79922500D02*
X112560000Y-80811500D01*
%TO.N,Board_27-Net-(J2-Pin_1)*%
X108380000Y-77647500D02*
X107480000Y-76747500D01*
X107480000Y-76747500D02*
X107480000Y-73847000D01*
X109070000Y-77647500D02*
X108380000Y-77647500D01*
%TO.N,Board_27-Net-(J2-Pin_2)*%
X110020000Y-77647500D02*
X110020000Y-73847000D01*
%TO.N,Board_27-Net-(J2-Pin_3)*%
X112560000Y-73847000D02*
X112560000Y-76747500D01*
X111671000Y-77647500D02*
X111671000Y-77636500D01*
X111671000Y-77647500D02*
X110970000Y-77647500D01*
X111671000Y-77636500D02*
X112560000Y-76747500D01*
%TO.N,Board_28-Net-(J1-Pin_1)*%
X117862000Y-79922500D02*
X117170000Y-80614500D01*
X118690000Y-79922500D02*
X117862000Y-79922500D01*
X117170000Y-80614500D02*
X117170000Y-84007000D01*
%TO.N,Board_28-Net-(J1-Pin_2)*%
X119640000Y-79922500D02*
X119640000Y-84007000D01*
%TO.N,Board_28-Net-(J1-Pin_3)*%
X121291000Y-79922500D02*
X122180000Y-80811500D01*
X121291000Y-79922500D02*
X120590000Y-79922500D01*
X122180000Y-84007000D02*
X122180000Y-80811500D01*
%TO.N,Board_28-Net-(J2-Pin_1)*%
X118000000Y-77647500D02*
X117100000Y-76747500D01*
X117100000Y-76747500D02*
X117100000Y-73847000D01*
X118690000Y-77647500D02*
X118000000Y-77647500D01*
%TO.N,Board_28-Net-(J2-Pin_2)*%
X119640000Y-77647500D02*
X119640000Y-73847000D01*
%TO.N,Board_28-Net-(J2-Pin_3)*%
X121291000Y-77636500D02*
X122180000Y-76747500D01*
X121291000Y-77647500D02*
X121291000Y-77636500D01*
X121291000Y-77647500D02*
X120590000Y-77647500D01*
X122180000Y-73847000D02*
X122180000Y-76747500D01*
%TO.N,Board_29-Net-(J1-Pin_1)*%
X126790000Y-80614500D02*
X126790000Y-84007000D01*
X127482000Y-79922500D02*
X126790000Y-80614500D01*
X128310000Y-79922500D02*
X127482000Y-79922500D01*
%TO.N,Board_29-Net-(J1-Pin_2)*%
X129260000Y-79922500D02*
X129260000Y-84007000D01*
%TO.N,Board_29-Net-(J1-Pin_3)*%
X130911000Y-79922500D02*
X130210000Y-79922500D01*
X130911000Y-79922500D02*
X131800000Y-80811500D01*
X131800000Y-84007000D02*
X131800000Y-80811500D01*
%TO.N,Board_29-Net-(J2-Pin_1)*%
X127620000Y-77647500D02*
X126720000Y-76747500D01*
X128310000Y-77647500D02*
X127620000Y-77647500D01*
X126720000Y-76747500D02*
X126720000Y-73847000D01*
%TO.N,Board_29-Net-(J2-Pin_2)*%
X129260000Y-77647500D02*
X129260000Y-73847000D01*
%TO.N,Board_29-Net-(J2-Pin_3)*%
X131800000Y-73847000D02*
X131800000Y-76747500D01*
X130911000Y-77647500D02*
X130911000Y-77636500D01*
X130911000Y-77636500D02*
X131800000Y-76747500D01*
X130911000Y-77647500D02*
X130210000Y-77647500D01*
%TO.N,Board_30-Net-(J1-Pin_1)*%
X137102000Y-79922500D02*
X136410000Y-80614500D01*
X137930000Y-79922500D02*
X137102000Y-79922500D01*
X136410000Y-80614500D02*
X136410000Y-84007000D01*
%TO.N,Board_30-Net-(J1-Pin_2)*%
X138880000Y-79922500D02*
X138880000Y-84007000D01*
%TO.N,Board_30-Net-(J1-Pin_3)*%
X140531000Y-79922500D02*
X139830000Y-79922500D01*
X141420000Y-84007000D02*
X141420000Y-80811500D01*
X140531000Y-79922500D02*
X141420000Y-80811500D01*
%TO.N,Board_30-Net-(J2-Pin_1)*%
X137930000Y-77647500D02*
X137240000Y-77647500D01*
X137240000Y-77647500D02*
X136340000Y-76747500D01*
X136340000Y-76747500D02*
X136340000Y-73847000D01*
%TO.N,Board_30-Net-(J2-Pin_2)*%
X138880000Y-77647500D02*
X138880000Y-73847000D01*
%TO.N,Board_30-Net-(J2-Pin_3)*%
X141420000Y-73847000D02*
X141420000Y-76747500D01*
X140531000Y-77636500D02*
X141420000Y-76747500D01*
X140531000Y-77647500D02*
X139830000Y-77647500D01*
X140531000Y-77647500D02*
X140531000Y-77636500D01*
%TO.N,Board_31-Net-(J1-Pin_1)*%
X147550000Y-79922500D02*
X146722000Y-79922500D01*
X146030000Y-80614500D02*
X146030000Y-84007000D01*
X146722000Y-79922500D02*
X146030000Y-80614500D01*
%TO.N,Board_31-Net-(J1-Pin_2)*%
X148500000Y-79922500D02*
X148500000Y-84007000D01*
%TO.N,Board_31-Net-(J1-Pin_3)*%
X150151000Y-79922500D02*
X151040000Y-80811500D01*
X150151000Y-79922500D02*
X149450000Y-79922500D01*
X151040000Y-84007000D02*
X151040000Y-80811500D01*
%TO.N,Board_31-Net-(J2-Pin_1)*%
X147550000Y-77647500D02*
X146860000Y-77647500D01*
X145960000Y-76747500D02*
X145960000Y-73847000D01*
X146860000Y-77647500D02*
X145960000Y-76747500D01*
%TO.N,Board_31-Net-(J2-Pin_2)*%
X148500000Y-77647500D02*
X148500000Y-73847000D01*
%TO.N,Board_31-Net-(J2-Pin_3)*%
X151040000Y-73847000D02*
X151040000Y-76747500D01*
X150151000Y-77647500D02*
X149450000Y-77647500D01*
X150151000Y-77647500D02*
X150151000Y-77636500D01*
X150151000Y-77636500D02*
X151040000Y-76747500D01*
%TO.N,Board_32-Net-(J1-Pin_1)*%
X157170000Y-79922500D02*
X156342000Y-79922500D01*
X156342000Y-79922500D02*
X155650000Y-80614500D01*
X155650000Y-80614500D02*
X155650000Y-84007000D01*
%TO.N,Board_32-Net-(J1-Pin_2)*%
X158120000Y-79922500D02*
X158120000Y-84007000D01*
%TO.N,Board_32-Net-(J1-Pin_3)*%
X160660000Y-84007000D02*
X160660000Y-80811500D01*
X159771000Y-79922500D02*
X160660000Y-80811500D01*
X159771000Y-79922500D02*
X159070000Y-79922500D01*
%TO.N,Board_32-Net-(J2-Pin_1)*%
X157170000Y-77647500D02*
X156480000Y-77647500D01*
X156480000Y-77647500D02*
X155580000Y-76747500D01*
X155580000Y-76747500D02*
X155580000Y-73847000D01*
%TO.N,Board_32-Net-(J2-Pin_2)*%
X158120000Y-77647500D02*
X158120000Y-73847000D01*
%TO.N,Board_32-Net-(J2-Pin_3)*%
X159771000Y-77636500D02*
X160660000Y-76747500D01*
X159771000Y-77647500D02*
X159771000Y-77636500D01*
X160660000Y-73847000D02*
X160660000Y-76747500D01*
X159771000Y-77647500D02*
X159070000Y-77647500D01*
%TO.N,Board_33-Net-(J1-Pin_1)*%
X165270000Y-80614500D02*
X165270000Y-84007000D01*
X166790000Y-79922500D02*
X165962000Y-79922500D01*
X165962000Y-79922500D02*
X165270000Y-80614500D01*
%TO.N,Board_33-Net-(J1-Pin_2)*%
X167740000Y-79922500D02*
X167740000Y-84007000D01*
%TO.N,Board_33-Net-(J1-Pin_3)*%
X170280000Y-84007000D02*
X170280000Y-80811500D01*
X169391000Y-79922500D02*
X170280000Y-80811500D01*
X169391000Y-79922500D02*
X168690000Y-79922500D01*
%TO.N,Board_33-Net-(J2-Pin_1)*%
X166790000Y-77647500D02*
X166100000Y-77647500D01*
X165200000Y-76747500D02*
X165200000Y-73847000D01*
X166100000Y-77647500D02*
X165200000Y-76747500D01*
%TO.N,Board_33-Net-(J2-Pin_2)*%
X167740000Y-77647500D02*
X167740000Y-73847000D01*
%TO.N,Board_33-Net-(J2-Pin_3)*%
X169391000Y-77647500D02*
X168690000Y-77647500D01*
X169391000Y-77647500D02*
X169391000Y-77636500D01*
X170280000Y-73847000D02*
X170280000Y-76747500D01*
X169391000Y-77636500D02*
X170280000Y-76747500D01*
%TO.N,Board_34-Net-(J1-Pin_1)*%
X175582000Y-79922500D02*
X174890000Y-80614500D01*
X174890000Y-80614500D02*
X174890000Y-84007000D01*
X176410000Y-79922500D02*
X175582000Y-79922500D01*
%TO.N,Board_34-Net-(J1-Pin_2)*%
X177360000Y-79922500D02*
X177360000Y-84007000D01*
%TO.N,Board_34-Net-(J1-Pin_3)*%
X179011000Y-79922500D02*
X178310000Y-79922500D01*
X179011000Y-79922500D02*
X179900000Y-80811500D01*
X179900000Y-84007000D02*
X179900000Y-80811500D01*
%TO.N,Board_34-Net-(J2-Pin_1)*%
X174820000Y-76747500D02*
X174820000Y-73847000D01*
X176410000Y-77647500D02*
X175720000Y-77647500D01*
X175720000Y-77647500D02*
X174820000Y-76747500D01*
%TO.N,Board_34-Net-(J2-Pin_2)*%
X177360000Y-77647500D02*
X177360000Y-73847000D01*
%TO.N,Board_34-Net-(J2-Pin_3)*%
X179011000Y-77647500D02*
X179011000Y-77636500D01*
X179900000Y-73847000D02*
X179900000Y-76747500D01*
X179011000Y-77647500D02*
X178310000Y-77647500D01*
X179011000Y-77636500D02*
X179900000Y-76747500D01*
%TO.N,Board_35-Net-(J1-Pin_1)*%
X184510000Y-80614500D02*
X184510000Y-84007000D01*
X185202000Y-79922500D02*
X184510000Y-80614500D01*
X186030000Y-79922500D02*
X185202000Y-79922500D01*
%TO.N,Board_35-Net-(J1-Pin_2)*%
X186980000Y-79922500D02*
X186980000Y-84007000D01*
%TO.N,Board_35-Net-(J1-Pin_3)*%
X188631000Y-79922500D02*
X189520000Y-80811500D01*
X188631000Y-79922500D02*
X187930000Y-79922500D01*
X189520000Y-84007000D02*
X189520000Y-80811500D01*
%TO.N,Board_35-Net-(J2-Pin_1)*%
X185340000Y-77647500D02*
X184440000Y-76747500D01*
X184440000Y-76747500D02*
X184440000Y-73847000D01*
X186030000Y-77647500D02*
X185340000Y-77647500D01*
%TO.N,Board_35-Net-(J2-Pin_2)*%
X186980000Y-77647500D02*
X186980000Y-73847000D01*
%TO.N,Board_35-Net-(J2-Pin_3)*%
X188631000Y-77647500D02*
X187930000Y-77647500D01*
X189520000Y-73847000D02*
X189520000Y-76747500D01*
X188631000Y-77636500D02*
X189520000Y-76747500D01*
X188631000Y-77647500D02*
X188631000Y-77636500D01*
%TO.N,Board_36-Net-(J1-Pin_1)*%
X108242000Y-94774500D02*
X107550000Y-95466500D01*
X109070000Y-94774500D02*
X108242000Y-94774500D01*
X107550000Y-95466500D02*
X107550000Y-98859000D01*
%TO.N,Board_36-Net-(J1-Pin_2)*%
X110020000Y-94774500D02*
X110020000Y-98859000D01*
%TO.N,Board_36-Net-(J1-Pin_3)*%
X111671000Y-94774500D02*
X112560000Y-95663500D01*
X111671000Y-94774500D02*
X110970000Y-94774500D01*
X112560000Y-98859000D02*
X112560000Y-95663500D01*
%TO.N,Board_36-Net-(J2-Pin_1)*%
X108380000Y-92499500D02*
X107480000Y-91599500D01*
X109070000Y-92499500D02*
X108380000Y-92499500D01*
X107480000Y-91599500D02*
X107480000Y-88699000D01*
%TO.N,Board_36-Net-(J2-Pin_2)*%
X110020000Y-92499500D02*
X110020000Y-88699000D01*
%TO.N,Board_36-Net-(J2-Pin_3)*%
X111671000Y-92488500D02*
X112560000Y-91599500D01*
X111671000Y-92499500D02*
X111671000Y-92488500D01*
X112560000Y-88699000D02*
X112560000Y-91599500D01*
X111671000Y-92499500D02*
X110970000Y-92499500D01*
%TO.N,Board_37-Net-(J1-Pin_1)*%
X118690000Y-94774500D02*
X117862000Y-94774500D01*
X117170000Y-95466500D02*
X117170000Y-98859000D01*
X117862000Y-94774500D02*
X117170000Y-95466500D01*
%TO.N,Board_37-Net-(J1-Pin_2)*%
X119640000Y-94774500D02*
X119640000Y-98859000D01*
%TO.N,Board_37-Net-(J1-Pin_3)*%
X121291000Y-94774500D02*
X122180000Y-95663500D01*
X122180000Y-98859000D02*
X122180000Y-95663500D01*
X121291000Y-94774500D02*
X120590000Y-94774500D01*
%TO.N,Board_37-Net-(J2-Pin_1)*%
X117100000Y-91599500D02*
X117100000Y-88699000D01*
X118000000Y-92499500D02*
X117100000Y-91599500D01*
X118690000Y-92499500D02*
X118000000Y-92499500D01*
%TO.N,Board_37-Net-(J2-Pin_2)*%
X119640000Y-92499500D02*
X119640000Y-88699000D01*
%TO.N,Board_37-Net-(J2-Pin_3)*%
X122180000Y-88699000D02*
X122180000Y-91599500D01*
X121291000Y-92499500D02*
X120590000Y-92499500D01*
X121291000Y-92488500D02*
X122180000Y-91599500D01*
X121291000Y-92499500D02*
X121291000Y-92488500D01*
%TO.N,Board_38-Net-(J1-Pin_1)*%
X127482000Y-94774500D02*
X126790000Y-95466500D01*
X126790000Y-95466500D02*
X126790000Y-98859000D01*
X128310000Y-94774500D02*
X127482000Y-94774500D01*
%TO.N,Board_38-Net-(J1-Pin_2)*%
X129260000Y-94774500D02*
X129260000Y-98859000D01*
%TO.N,Board_38-Net-(J1-Pin_3)*%
X130911000Y-94774500D02*
X130210000Y-94774500D01*
X131800000Y-98859000D02*
X131800000Y-95663500D01*
X130911000Y-94774500D02*
X131800000Y-95663500D01*
%TO.N,Board_38-Net-(J2-Pin_1)*%
X126720000Y-91599500D02*
X126720000Y-88699000D01*
X128310000Y-92499500D02*
X127620000Y-92499500D01*
X127620000Y-92499500D02*
X126720000Y-91599500D01*
%TO.N,Board_38-Net-(J2-Pin_2)*%
X129260000Y-92499500D02*
X129260000Y-88699000D01*
%TO.N,Board_38-Net-(J2-Pin_3)*%
X130911000Y-92499500D02*
X130911000Y-92488500D01*
X130911000Y-92488500D02*
X131800000Y-91599500D01*
X131800000Y-88699000D02*
X131800000Y-91599500D01*
X130911000Y-92499500D02*
X130210000Y-92499500D01*
%TO.N,Board_39-Net-(J1-Pin_1)*%
X137930000Y-94774500D02*
X137102000Y-94774500D01*
X137102000Y-94774500D02*
X136410000Y-95466500D01*
X136410000Y-95466500D02*
X136410000Y-98859000D01*
%TO.N,Board_39-Net-(J1-Pin_2)*%
X138880000Y-94774500D02*
X138880000Y-98859000D01*
%TO.N,Board_39-Net-(J1-Pin_3)*%
X140531000Y-94774500D02*
X139830000Y-94774500D01*
X141420000Y-98859000D02*
X141420000Y-95663500D01*
X140531000Y-94774500D02*
X141420000Y-95663500D01*
%TO.N,Board_39-Net-(J2-Pin_1)*%
X137240000Y-92499500D02*
X136340000Y-91599500D01*
X136340000Y-91599500D02*
X136340000Y-88699000D01*
X137930000Y-92499500D02*
X137240000Y-92499500D01*
%TO.N,Board_39-Net-(J2-Pin_2)*%
X138880000Y-92499500D02*
X138880000Y-88699000D01*
%TO.N,Board_39-Net-(J2-Pin_3)*%
X141420000Y-88699000D02*
X141420000Y-91599500D01*
X140531000Y-92488500D02*
X141420000Y-91599500D01*
X140531000Y-92499500D02*
X140531000Y-92488500D01*
X140531000Y-92499500D02*
X139830000Y-92499500D01*
%TO.N,Board_40-Net-(J1-Pin_1)*%
X147550000Y-94774500D02*
X146722000Y-94774500D01*
X146722000Y-94774500D02*
X146030000Y-95466500D01*
X146030000Y-95466500D02*
X146030000Y-98859000D01*
%TO.N,Board_40-Net-(J1-Pin_2)*%
X148500000Y-94774500D02*
X148500000Y-98859000D01*
%TO.N,Board_40-Net-(J1-Pin_3)*%
X151040000Y-98859000D02*
X151040000Y-95663500D01*
X150151000Y-94774500D02*
X149450000Y-94774500D01*
X150151000Y-94774500D02*
X151040000Y-95663500D01*
%TO.N,Board_40-Net-(J2-Pin_1)*%
X146860000Y-92499500D02*
X145960000Y-91599500D01*
X147550000Y-92499500D02*
X146860000Y-92499500D01*
X145960000Y-91599500D02*
X145960000Y-88699000D01*
%TO.N,Board_40-Net-(J2-Pin_2)*%
X148500000Y-92499500D02*
X148500000Y-88699000D01*
%TO.N,Board_40-Net-(J2-Pin_3)*%
X150151000Y-92499500D02*
X150151000Y-92488500D01*
X151040000Y-88699000D02*
X151040000Y-91599500D01*
X150151000Y-92499500D02*
X149450000Y-92499500D01*
X150151000Y-92488500D02*
X151040000Y-91599500D01*
%TO.N,Board_41-Net-(J1-Pin_1)*%
X157170000Y-94774500D02*
X156342000Y-94774500D01*
X156342000Y-94774500D02*
X155650000Y-95466500D01*
X155650000Y-95466500D02*
X155650000Y-98859000D01*
%TO.N,Board_41-Net-(J1-Pin_2)*%
X158120000Y-94774500D02*
X158120000Y-98859000D01*
%TO.N,Board_41-Net-(J1-Pin_3)*%
X159771000Y-94774500D02*
X160660000Y-95663500D01*
X159771000Y-94774500D02*
X159070000Y-94774500D01*
X160660000Y-98859000D02*
X160660000Y-95663500D01*
%TO.N,Board_41-Net-(J2-Pin_1)*%
X155580000Y-91599500D02*
X155580000Y-88699000D01*
X157170000Y-92499500D02*
X156480000Y-92499500D01*
X156480000Y-92499500D02*
X155580000Y-91599500D01*
%TO.N,Board_41-Net-(J2-Pin_2)*%
X158120000Y-92499500D02*
X158120000Y-88699000D01*
%TO.N,Board_41-Net-(J2-Pin_3)*%
X159771000Y-92499500D02*
X159771000Y-92488500D01*
X159771000Y-92488500D02*
X160660000Y-91599500D01*
X159771000Y-92499500D02*
X159070000Y-92499500D01*
X160660000Y-88699000D02*
X160660000Y-91599500D01*
%TO.N,Board_42-Net-(J1-Pin_1)*%
X166790000Y-94774500D02*
X165962000Y-94774500D01*
X165270000Y-95466500D02*
X165270000Y-98859000D01*
X165962000Y-94774500D02*
X165270000Y-95466500D01*
%TO.N,Board_42-Net-(J1-Pin_2)*%
X167740000Y-94774500D02*
X167740000Y-98859000D01*
%TO.N,Board_42-Net-(J1-Pin_3)*%
X169391000Y-94774500D02*
X170280000Y-95663500D01*
X169391000Y-94774500D02*
X168690000Y-94774500D01*
X170280000Y-98859000D02*
X170280000Y-95663500D01*
%TO.N,Board_42-Net-(J2-Pin_1)*%
X165200000Y-91599500D02*
X165200000Y-88699000D01*
X166790000Y-92499500D02*
X166100000Y-92499500D01*
X166100000Y-92499500D02*
X165200000Y-91599500D01*
%TO.N,Board_42-Net-(J2-Pin_2)*%
X167740000Y-92499500D02*
X167740000Y-88699000D01*
%TO.N,Board_42-Net-(J2-Pin_3)*%
X170280000Y-88699000D02*
X170280000Y-91599500D01*
X169391000Y-92488500D02*
X170280000Y-91599500D01*
X169391000Y-92499500D02*
X169391000Y-92488500D01*
X169391000Y-92499500D02*
X168690000Y-92499500D01*
%TO.N,Board_43-Net-(J1-Pin_1)*%
X175582000Y-94774500D02*
X174890000Y-95466500D01*
X174890000Y-95466500D02*
X174890000Y-98859000D01*
X176410000Y-94774500D02*
X175582000Y-94774500D01*
%TO.N,Board_43-Net-(J1-Pin_2)*%
X177360000Y-94774500D02*
X177360000Y-98859000D01*
%TO.N,Board_43-Net-(J1-Pin_3)*%
X179011000Y-94774500D02*
X178310000Y-94774500D01*
X179011000Y-94774500D02*
X179900000Y-95663500D01*
X179900000Y-98859000D02*
X179900000Y-95663500D01*
%TO.N,Board_43-Net-(J2-Pin_1)*%
X175720000Y-92499500D02*
X174820000Y-91599500D01*
X174820000Y-91599500D02*
X174820000Y-88699000D01*
X176410000Y-92499500D02*
X175720000Y-92499500D01*
%TO.N,Board_43-Net-(J2-Pin_2)*%
X177360000Y-92499500D02*
X177360000Y-88699000D01*
%TO.N,Board_43-Net-(J2-Pin_3)*%
X179011000Y-92499500D02*
X179011000Y-92488500D01*
X179011000Y-92488500D02*
X179900000Y-91599500D01*
X179011000Y-92499500D02*
X178310000Y-92499500D01*
X179900000Y-88699000D02*
X179900000Y-91599500D01*
%TO.N,Board_44-Net-(J1-Pin_1)*%
X184510000Y-95466500D02*
X184510000Y-98859000D01*
X185202000Y-94774500D02*
X184510000Y-95466500D01*
X186030000Y-94774500D02*
X185202000Y-94774500D01*
%TO.N,Board_44-Net-(J1-Pin_2)*%
X186980000Y-94774500D02*
X186980000Y-98859000D01*
%TO.N,Board_44-Net-(J1-Pin_3)*%
X188631000Y-94774500D02*
X187930000Y-94774500D01*
X189520000Y-98859000D02*
X189520000Y-95663500D01*
X188631000Y-94774500D02*
X189520000Y-95663500D01*
%TO.N,Board_44-Net-(J2-Pin_1)*%
X185340000Y-92499500D02*
X184440000Y-91599500D01*
X184440000Y-91599500D02*
X184440000Y-88699000D01*
X186030000Y-92499500D02*
X185340000Y-92499500D01*
%TO.N,Board_44-Net-(J2-Pin_2)*%
X186980000Y-92499500D02*
X186980000Y-88699000D01*
%TO.N,Board_44-Net-(J2-Pin_3)*%
X189520000Y-88699000D02*
X189520000Y-91599500D01*
X188631000Y-92499500D02*
X187930000Y-92499500D01*
X188631000Y-92488500D02*
X189520000Y-91599500D01*
X188631000Y-92499500D02*
X188631000Y-92488500D01*
%TD*%
M02*
