%TF.GenerationSoftware,KiCad,Pcbnew,9.0.6*%
%TF.CreationDate,2025-12-29T22:24:13-08:00*%
%TF.ProjectId,sot-23-panelized,736f742d-3233-42d7-9061-6e656c697a65,rev?*%
%TF.SameCoordinates,Original*%
%TF.FileFunction,Soldermask,Bot*%
%TF.FilePolarity,Negative*%
%FSLAX46Y46*%
G04 Gerber Fmt 4.6, Leading zero omitted, Abs format (unit mm)*
G04 Created by KiCad (PCBNEW 9.0.6) date 2025-12-29 22:24:13*
%MOMM*%
%LPD*%
G01*
G04 APERTURE LIST*
G04 Aperture macros list*
%AMRoundRect*
0 Rectangle with rounded corners*
0 $1 Rounding radius*
0 $2 $3 $4 $5 $6 $7 $8 $9 X,Y pos of 4 corners*
0 Add a 4 corners polygon primitive as box body*
4,1,4,$2,$3,$4,$5,$6,$7,$8,$9,$2,$3,0*
0 Add four circle primitives for the rounded corners*
1,1,$1+$1,$2,$3*
1,1,$1+$1,$4,$5*
1,1,$1+$1,$6,$7*
1,1,$1+$1,$8,$9*
0 Add four rect primitives between the rounded corners*
20,1,$1+$1,$2,$3,$4,$5,0*
20,1,$1+$1,$4,$5,$6,$7,0*
20,1,$1+$1,$6,$7,$8,$9,0*
20,1,$1+$1,$8,$9,$2,$3,0*%
G04 Aperture macros list end*
%ADD10RoundRect,0.050000X0.850000X-0.850000X0.850000X0.850000X-0.850000X0.850000X-0.850000X-0.850000X0*%
%ADD11C,1.800000*%
%ADD12C,0.500000*%
G04 APERTURE END LIST*
D10*
%TO.C,J2*%
X174820000Y-58995000D03*
D11*
X177360000Y-58995000D03*
X179900000Y-58995000D03*
%TD*%
D12*
%TO.C,KiKit_MB_49_3*%
X166906647Y-57504900D03*
%TD*%
%TO.C,KiKit_MB_6_4*%
X129260000Y-41051858D03*
%TD*%
%TO.C,KiKit_MB_70_6*%
X175693352Y-85608341D03*
%TD*%
%TO.C,KiKit_MB_63_4*%
X148499980Y-72356819D03*
%TD*%
%TO.C,KiKit_MB_8_3*%
X139713352Y-41052099D03*
%TD*%
%TO.C,KiKit_MB_33_3*%
X176526647Y-42652900D03*
%TD*%
%TO.C,KiKit_MB_63_6*%
X150166647Y-72356658D03*
%TD*%
%TO.C,KiKit_MB_43_5*%
X139713314Y-57504739D03*
%TD*%
%TO.C,KiKit_MB_17_3*%
X186146647Y-27800901D03*
%TD*%
D10*
%TO.C,J1*%
X165200000Y-69155000D03*
D11*
X167740000Y-69155000D03*
X170280000Y-69155000D03*
%TD*%
D12*
%TO.C,KiKit_MB_51_4*%
X177359980Y-57504819D03*
%TD*%
%TO.C,KiKit_MB_79_2*%
X137213314Y-87208980D03*
%TD*%
D10*
%TO.C,J1*%
X184440000Y-54303000D03*
D11*
X186980000Y-54303000D03*
X189520000Y-54303000D03*
%TD*%
D12*
%TO.C,KiKit_MB_74_3*%
X110853352Y-100460099D03*
%TD*%
%TO.C,KiKit_MB_34_2*%
X179026685Y-55904019D03*
%TD*%
%TO.C,KiKit_MB_45_4*%
X148499980Y-57504819D03*
%TD*%
%TO.C,KiKit_MB_34_3*%
X178193352Y-55904099D03*
%TD*%
%TO.C,KiKit_MB_67_3*%
X166906647Y-72356900D03*
%TD*%
%TO.C,KiKit_MB_57_6*%
X121306647Y-72356658D03*
%TD*%
%TO.C,KiKit_MB_53_2*%
X185313314Y-57504980D03*
%TD*%
%TO.C,KiKit_MB_35_2*%
X185313314Y-42652980D03*
%TD*%
D10*
%TO.C,J1*%
X136340000Y-39451000D03*
D11*
X138880000Y-39451000D03*
X141420000Y-39451000D03*
%TD*%
D12*
%TO.C,KiKit_MB_62_6*%
X137213352Y-85608341D03*
%TD*%
%TO.C,KiKit_MB_14_6*%
X166073352Y-41052341D03*
%TD*%
D10*
%TO.C,J1*%
X155580000Y-84007000D03*
D11*
X158120000Y-84007000D03*
X160660000Y-84007000D03*
%TD*%
D12*
%TO.C,KiKit_MB_46_4*%
X148500019Y-70756180D03*
%TD*%
%TO.C,KiKit_MB_71_6*%
X188646647Y-72356658D03*
%TD*%
%TO.C,KiKit_MB_79_4*%
X138879980Y-87208819D03*
%TD*%
%TO.C,KiKit_MB_77_5*%
X130093314Y-87208739D03*
%TD*%
%TO.C,KiKit_MB_6_5*%
X128426666Y-41051858D03*
%TD*%
%TO.C,KiKit_MB_31_4*%
X167739980Y-42652819D03*
%TD*%
%TO.C,KiKit_MB_37_5*%
X110853314Y-57504739D03*
%TD*%
%TO.C,KiKit_MB_2_3*%
X110853333Y-41051858D03*
%TD*%
%TO.C,KiKit_MB_86_2*%
X169406685Y-100460019D03*
%TD*%
%TO.C,KiKit_MB_19_5*%
X110853314Y-42652739D03*
%TD*%
%TO.C,KiKit_MB_18_3*%
X187813352Y-41052099D03*
%TD*%
%TO.C,KiKit_MB_83_4*%
X158119980Y-87208819D03*
%TD*%
%TO.C,KiKit_MB_27_5*%
X149333314Y-42652739D03*
%TD*%
%TO.C,KiKit_MB_12_2*%
X159786685Y-41052019D03*
%TD*%
%TO.C,KiKit_MB_10_2*%
X150166685Y-41052019D03*
%TD*%
D10*
%TO.C,J1*%
X117100000Y-98859000D03*
D11*
X119640000Y-98859000D03*
X122180000Y-98859000D03*
%TD*%
D10*
%TO.C,J1*%
X155580000Y-54303000D03*
D11*
X158120000Y-54303000D03*
X160660000Y-54303000D03*
%TD*%
D12*
%TO.C,KiKit_MB_88_4*%
X177360019Y-100460180D03*
%TD*%
%TO.C,KiKit_MB_81_5*%
X149333314Y-87208739D03*
%TD*%
%TO.C,KiKit_MB_62_2*%
X140546685Y-85608019D03*
%TD*%
%TO.C,KiKit_MB_54_5*%
X186146685Y-70756260D03*
%TD*%
%TO.C,KiKit_MB_5_2*%
X127593314Y-27800981D03*
%TD*%
%TO.C,KiKit_MB_41_5*%
X130093314Y-57504739D03*
%TD*%
%TO.C,KiKit_MB_88_5*%
X176526685Y-100460260D03*
%TD*%
%TO.C,KiKit_MB_33_4*%
X177359980Y-42652819D03*
%TD*%
%TO.C,KiKit_MB_15_6*%
X179026647Y-27800659D03*
%TD*%
%TO.C,KiKit_MB_52_3*%
X178193352Y-70756099D03*
%TD*%
%TO.C,KiKit_MB_32_6*%
X166073352Y-55904341D03*
%TD*%
%TO.C,KiKit_MB_23_6*%
X130926647Y-42652658D03*
%TD*%
%TO.C,KiKit_MB_1_3*%
X109186648Y-27800901D03*
%TD*%
%TO.C,KiKit_MB_73_4*%
X110019981Y-87208819D03*
%TD*%
%TO.C,KiKit_MB_82_6*%
X146833352Y-100460341D03*
%TD*%
%TO.C,KiKit_MB_20_6*%
X108353353Y-55904341D03*
%TD*%
D10*
%TO.C,J1*%
X126720000Y-69155000D03*
D11*
X129260000Y-69155000D03*
X131800000Y-69155000D03*
%TD*%
D10*
%TO.C,J1*%
X107480000Y-69155000D03*
D11*
X110020000Y-69155000D03*
X112560000Y-69155000D03*
%TD*%
D12*
%TO.C,KiKit_MB_37_4*%
X110019981Y-57504819D03*
%TD*%
%TO.C,KiKit_MB_62_5*%
X138046685Y-85608260D03*
%TD*%
%TO.C,KiKit_MB_25_3*%
X138046647Y-42652900D03*
%TD*%
D10*
%TO.C,J1*%
X117100000Y-54303000D03*
D11*
X119640000Y-54303000D03*
X122180000Y-54303000D03*
%TD*%
D12*
%TO.C,KiKit_MB_40_6*%
X117973352Y-70756341D03*
%TD*%
%TO.C,KiKit_MB_17_4*%
X186979980Y-27800820D03*
%TD*%
%TO.C,KiKit_MB_10_4*%
X148500019Y-41052180D03*
%TD*%
%TO.C,KiKit_MB_26_3*%
X139713352Y-55904099D03*
%TD*%
%TO.C,KiKit_MB_89_5*%
X187813314Y-87208739D03*
%TD*%
D10*
%TO.C,J2*%
X117100000Y-29291000D03*
D11*
X119640000Y-29291000D03*
X122180000Y-29291000D03*
%TD*%
D12*
%TO.C,KiKit_MB_64_6*%
X146833352Y-85608341D03*
%TD*%
%TO.C,KiKit_MB_1_6*%
X111686647Y-27800659D03*
%TD*%
D10*
%TO.C,J2*%
X155580000Y-73847000D03*
D11*
X158120000Y-73847000D03*
X160660000Y-73847000D03*
%TD*%
D12*
%TO.C,KiKit_MB_76_6*%
X117973352Y-100460341D03*
%TD*%
%TO.C,KiKit_MB_2_2*%
X111686666Y-41051858D03*
%TD*%
%TO.C,KiKit_MB_55_2*%
X108353315Y-72356980D03*
%TD*%
%TO.C,KiKit_MB_55_4*%
X110019981Y-72356819D03*
%TD*%
%TO.C,KiKit_MB_26_4*%
X138880019Y-55904180D03*
%TD*%
%TO.C,KiKit_MB_13_4*%
X167739980Y-27800820D03*
%TD*%
%TO.C,KiKit_MB_33_2*%
X175693314Y-42652980D03*
%TD*%
%TO.C,KiKit_MB_58_3*%
X120473352Y-85608099D03*
%TD*%
%TO.C,KiKit_MB_30_5*%
X157286685Y-55904260D03*
%TD*%
D10*
%TO.C,J1*%
X136340000Y-98859000D03*
D11*
X138880000Y-98859000D03*
X141420000Y-98859000D03*
%TD*%
D12*
%TO.C,KiKit_MB_28_3*%
X149333352Y-55904099D03*
%TD*%
%TO.C,KiKit_MB_41_2*%
X127593314Y-57504980D03*
%TD*%
%TO.C,KiKit_MB_62_3*%
X139713352Y-85608099D03*
%TD*%
%TO.C,KiKit_MB_38_5*%
X109186686Y-70756260D03*
%TD*%
%TO.C,KiKit_MB_4_4*%
X119640000Y-41051858D03*
%TD*%
%TO.C,KiKit_MB_66_2*%
X159786685Y-85608019D03*
%TD*%
%TO.C,KiKit_MB_30_3*%
X158953352Y-55904099D03*
%TD*%
%TO.C,KiKit_MB_46_5*%
X147666685Y-70756260D03*
%TD*%
%TO.C,KiKit_MB_55_3*%
X109186648Y-72356900D03*
%TD*%
D10*
%TO.C,J2*%
X184440000Y-58995000D03*
D11*
X186980000Y-58995000D03*
X189520000Y-58995000D03*
%TD*%
D12*
%TO.C,KiKit_MB_23_2*%
X127593314Y-42652980D03*
%TD*%
%TO.C,KiKit_MB_82_2*%
X150166685Y-100460019D03*
%TD*%
D10*
%TO.C,J2*%
X174820000Y-29291000D03*
D11*
X177360000Y-29291000D03*
X179900000Y-29291000D03*
%TD*%
D12*
%TO.C,KiKit_MB_6_3*%
X130093333Y-41051858D03*
%TD*%
%TO.C,KiKit_MB_7_5*%
X139713314Y-27800740D03*
%TD*%
%TO.C,KiKit_MB_43_3*%
X138046647Y-57504900D03*
%TD*%
%TO.C,KiKit_MB_21_4*%
X119639980Y-42652819D03*
%TD*%
%TO.C,KiKit_MB_88_2*%
X179026685Y-100460019D03*
%TD*%
%TO.C,KiKit_MB_30_2*%
X159786685Y-55904019D03*
%TD*%
D10*
%TO.C,J1*%
X155580000Y-98859000D03*
D11*
X158120000Y-98859000D03*
X160660000Y-98859000D03*
%TD*%
D12*
%TO.C,KiKit_MB_22_3*%
X120473352Y-55904099D03*
%TD*%
%TO.C,KiKit_MB_34_4*%
X177360019Y-55904180D03*
%TD*%
%TO.C,KiKit_MB_53_4*%
X186979980Y-57504819D03*
%TD*%
%TO.C,KiKit_MB_85_5*%
X168573314Y-87208739D03*
%TD*%
D10*
%TO.C,J2*%
X145960000Y-88699000D03*
D11*
X148500000Y-88699000D03*
X151040000Y-88699000D03*
%TD*%
D12*
%TO.C,KiKit_MB_17_6*%
X188646647Y-27800659D03*
%TD*%
%TO.C,KiKit_MB_11_4*%
X158119980Y-27800820D03*
%TD*%
%TO.C,KiKit_MB_51_3*%
X176526647Y-57504900D03*
%TD*%
%TO.C,KiKit_MB_34_6*%
X175693352Y-55904341D03*
%TD*%
D10*
%TO.C,J1*%
X155580000Y-69155000D03*
D11*
X158120000Y-69155000D03*
X160660000Y-69155000D03*
%TD*%
D12*
%TO.C,KiKit_MB_70_3*%
X178193352Y-85608099D03*
%TD*%
%TO.C,KiKit_MB_48_3*%
X158953352Y-70756099D03*
%TD*%
%TO.C,KiKit_MB_89_2*%
X185313314Y-87208980D03*
%TD*%
%TO.C,KiKit_MB_12_4*%
X158120019Y-41052180D03*
%TD*%
%TO.C,KiKit_MB_58_5*%
X118806685Y-85608260D03*
%TD*%
%TO.C,KiKit_MB_35_4*%
X186979980Y-42652819D03*
%TD*%
%TO.C,KiKit_MB_53_3*%
X186146647Y-57504900D03*
%TD*%
%TO.C,KiKit_MB_18_2*%
X188646685Y-41052019D03*
%TD*%
%TO.C,KiKit_MB_39_3*%
X118806647Y-57504900D03*
%TD*%
D10*
%TO.C,J2*%
X126720000Y-44143000D03*
D11*
X129260000Y-44143000D03*
X131800000Y-44143000D03*
%TD*%
D12*
%TO.C,KiKit_MB_82_4*%
X148500019Y-100460180D03*
%TD*%
%TO.C,KiKit_MB_9_2*%
X146833314Y-27800981D03*
%TD*%
D10*
%TO.C,J1*%
X165200000Y-39451000D03*
D11*
X167740000Y-39451000D03*
X170280000Y-39451000D03*
%TD*%
D10*
%TO.C,J1*%
X174820000Y-54303000D03*
D11*
X177360000Y-54303000D03*
X179900000Y-54303000D03*
%TD*%
D12*
%TO.C,KiKit_MB_36_4*%
X186980019Y-55904180D03*
%TD*%
D10*
%TO.C,J1*%
X117100000Y-39451000D03*
D11*
X119640000Y-39451000D03*
X122180000Y-39451000D03*
%TD*%
D12*
%TO.C,KiKit_MB_4_6*%
X117973333Y-41051858D03*
%TD*%
%TO.C,KiKit_MB_73_5*%
X110853314Y-87208739D03*
%TD*%
%TO.C,KiKit_MB_71_3*%
X186146647Y-72356900D03*
%TD*%
%TO.C,KiKit_MB_49_2*%
X166073314Y-57504980D03*
%TD*%
%TO.C,KiKit_MB_3_3*%
X118806647Y-27800901D03*
%TD*%
D10*
%TO.C,J2*%
X107480000Y-29291000D03*
D11*
X110020000Y-29291000D03*
X112560000Y-29291000D03*
%TD*%
D12*
%TO.C,KiKit_MB_53_5*%
X187813314Y-57504739D03*
%TD*%
%TO.C,KiKit_MB_47_6*%
X159786647Y-57504658D03*
%TD*%
%TO.C,KiKit_MB_38_2*%
X111686685Y-70756019D03*
%TD*%
%TO.C,KiKit_MB_56_4*%
X110020019Y-85608180D03*
%TD*%
%TO.C,KiKit_MB_47_3*%
X157286647Y-57504900D03*
%TD*%
D10*
%TO.C,J1*%
X145960000Y-54303000D03*
D11*
X148500000Y-54303000D03*
X151040000Y-54303000D03*
%TD*%
D10*
%TO.C,J2*%
X126720000Y-29291000D03*
D11*
X129260000Y-29291000D03*
X131800000Y-29291000D03*
%TD*%
D12*
%TO.C,KiKit_MB_17_2*%
X185313314Y-27800981D03*
%TD*%
%TO.C,KiKit_MB_27_4*%
X148499980Y-42652819D03*
%TD*%
%TO.C,KiKit_MB_18_5*%
X186146685Y-41052260D03*
%TD*%
%TO.C,KiKit_MB_78_2*%
X130926685Y-100460019D03*
%TD*%
%TO.C,KiKit_MB_26_5*%
X138046685Y-55904260D03*
%TD*%
%TO.C,KiKit_MB_47_5*%
X158953314Y-57504739D03*
%TD*%
D10*
%TO.C,J2*%
X117100000Y-58995000D03*
D11*
X119640000Y-58995000D03*
X122180000Y-58995000D03*
%TD*%
D12*
%TO.C,KiKit_MB_39_6*%
X121306647Y-57504658D03*
%TD*%
%TO.C,KiKit_MB_26_6*%
X137213352Y-55904341D03*
%TD*%
%TO.C,KiKit_MB_54_3*%
X187813352Y-70756099D03*
%TD*%
D10*
%TO.C,J2*%
X155580000Y-58995000D03*
D11*
X158120000Y-58995000D03*
X160660000Y-58995000D03*
%TD*%
D12*
%TO.C,KiKit_MB_40_5*%
X118806685Y-70756260D03*
%TD*%
%TO.C,KiKit_MB_69_6*%
X179026647Y-72356658D03*
%TD*%
%TO.C,KiKit_MB_74_4*%
X110020019Y-100460180D03*
%TD*%
%TO.C,KiKit_MB_72_5*%
X186146685Y-85608260D03*
%TD*%
%TO.C,KiKit_MB_58_6*%
X117973352Y-85608341D03*
%TD*%
%TO.C,KiKit_MB_41_4*%
X129259980Y-57504819D03*
%TD*%
%TO.C,KiKit_MB_48_2*%
X159786685Y-70756019D03*
%TD*%
%TO.C,KiKit_MB_2_4*%
X110020000Y-41051858D03*
%TD*%
%TO.C,KiKit_MB_65_2*%
X156453314Y-72356980D03*
%TD*%
%TO.C,KiKit_MB_76_2*%
X121306685Y-100460019D03*
%TD*%
%TO.C,KiKit_MB_29_2*%
X156453314Y-42652980D03*
%TD*%
%TO.C,KiKit_MB_84_2*%
X159786685Y-100460019D03*
%TD*%
%TO.C,KiKit_MB_54_6*%
X185313352Y-70756341D03*
%TD*%
%TO.C,KiKit_MB_27_3*%
X147666647Y-42652900D03*
%TD*%
%TO.C,KiKit_MB_21_2*%
X117973314Y-42652980D03*
%TD*%
D10*
%TO.C,J2*%
X136340000Y-88699000D03*
D11*
X138880000Y-88699000D03*
X141420000Y-88699000D03*
%TD*%
D12*
%TO.C,KiKit_MB_13_5*%
X168573314Y-27800740D03*
%TD*%
D10*
%TO.C,J2*%
X117100000Y-44143000D03*
D11*
X119640000Y-44143000D03*
X122180000Y-44143000D03*
%TD*%
D12*
%TO.C,KiKit_MB_15_3*%
X176526647Y-27800901D03*
%TD*%
%TO.C,KiKit_MB_52_5*%
X176526685Y-70756260D03*
%TD*%
%TO.C,KiKit_MB_27_6*%
X150166647Y-42652658D03*
%TD*%
D10*
%TO.C,J2*%
X145960000Y-44143000D03*
D11*
X148500000Y-44143000D03*
X151040000Y-44143000D03*
%TD*%
D12*
%TO.C,KiKit_MB_22_4*%
X119640019Y-55904180D03*
%TD*%
%TO.C,KiKit_MB_77_4*%
X129259980Y-87208819D03*
%TD*%
%TO.C,KiKit_MB_52_4*%
X177360019Y-70756180D03*
%TD*%
%TO.C,KiKit_MB_3_5*%
X120473314Y-27800740D03*
%TD*%
%TO.C,KiKit_MB_14_4*%
X167740019Y-41052180D03*
%TD*%
%TO.C,KiKit_MB_11_3*%
X157286647Y-27800901D03*
%TD*%
D10*
%TO.C,J1*%
X184440000Y-69155000D03*
D11*
X186980000Y-69155000D03*
X189520000Y-69155000D03*
%TD*%
D12*
%TO.C,KiKit_MB_24_2*%
X130926685Y-55904019D03*
%TD*%
%TO.C,KiKit_MB_36_6*%
X185313352Y-55904341D03*
%TD*%
%TO.C,KiKit_MB_80_3*%
X139713352Y-100460099D03*
%TD*%
%TO.C,KiKit_MB_86_4*%
X167740019Y-100460180D03*
%TD*%
%TO.C,KiKit_MB_48_5*%
X157286685Y-70756260D03*
%TD*%
%TO.C,KiKit_MB_1_5*%
X110853314Y-27800740D03*
%TD*%
%TO.C,KiKit_MB_29_4*%
X158119980Y-42652819D03*
%TD*%
%TO.C,KiKit_MB_40_2*%
X121306685Y-70756019D03*
%TD*%
%TO.C,KiKit_MB_76_3*%
X120473352Y-100460099D03*
%TD*%
%TO.C,KiKit_MB_7_2*%
X137213314Y-27800981D03*
%TD*%
%TO.C,KiKit_MB_4_5*%
X118806666Y-41051858D03*
%TD*%
%TO.C,KiKit_MB_23_4*%
X129259980Y-42652819D03*
%TD*%
D10*
%TO.C,J1*%
X184440000Y-84007000D03*
D11*
X186980000Y-84007000D03*
X189520000Y-84007000D03*
%TD*%
D12*
%TO.C,KiKit_MB_60_6*%
X127593352Y-85608341D03*
%TD*%
%TO.C,KiKit_MB_50_4*%
X167740019Y-70756180D03*
%TD*%
%TO.C,KiKit_MB_43_6*%
X140546647Y-57504658D03*
%TD*%
%TO.C,KiKit_MB_1_4*%
X110019981Y-27800820D03*
%TD*%
%TO.C,KiKit_MB_57_5*%
X120473314Y-72356739D03*
%TD*%
%TO.C,KiKit_MB_35_6*%
X188646647Y-42652658D03*
%TD*%
%TO.C,KiKit_MB_50_2*%
X169406685Y-70756019D03*
%TD*%
%TO.C,KiKit_MB_63_5*%
X149333314Y-72356739D03*
%TD*%
%TO.C,KiKit_MB_75_2*%
X117973314Y-87208980D03*
%TD*%
%TO.C,KiKit_MB_44_5*%
X138046685Y-70756260D03*
%TD*%
%TO.C,KiKit_MB_69_5*%
X178193314Y-72356739D03*
%TD*%
%TO.C,KiKit_MB_20_3*%
X110853352Y-55904099D03*
%TD*%
%TO.C,KiKit_MB_71_4*%
X186979980Y-72356819D03*
%TD*%
%TO.C,KiKit_MB_1_2*%
X108353315Y-27800981D03*
%TD*%
%TO.C,KiKit_MB_75_3*%
X118806647Y-87208900D03*
%TD*%
%TO.C,KiKit_MB_61_3*%
X138046647Y-72356900D03*
%TD*%
%TO.C,KiKit_MB_25_2*%
X137213314Y-42652980D03*
%TD*%
%TO.C,KiKit_MB_24_3*%
X130093352Y-55904099D03*
%TD*%
%TO.C,KiKit_MB_47_4*%
X158119980Y-57504819D03*
%TD*%
%TO.C,KiKit_MB_51_6*%
X179026647Y-57504658D03*
%TD*%
%TO.C,KiKit_MB_43_2*%
X137213314Y-57504980D03*
%TD*%
%TO.C,KiKit_MB_68_4*%
X167740019Y-85608180D03*
%TD*%
D10*
%TO.C,J1*%
X165200000Y-98859000D03*
D11*
X167740000Y-98859000D03*
X170280000Y-98859000D03*
%TD*%
D12*
%TO.C,KiKit_MB_4_2*%
X121306666Y-41051858D03*
%TD*%
%TO.C,KiKit_MB_23_3*%
X128426647Y-42652900D03*
%TD*%
%TO.C,KiKit_MB_67_5*%
X168573314Y-72356739D03*
%TD*%
%TO.C,KiKit_MB_74_6*%
X108353353Y-100460341D03*
%TD*%
%TO.C,KiKit_MB_39_4*%
X119639980Y-57504819D03*
%TD*%
%TO.C,KiKit_MB_28_5*%
X147666685Y-55904260D03*
%TD*%
%TO.C,KiKit_MB_30_6*%
X156453352Y-55904341D03*
%TD*%
D10*
%TO.C,J1*%
X184440000Y-98859000D03*
D11*
X186980000Y-98859000D03*
X189520000Y-98859000D03*
%TD*%
D12*
%TO.C,KiKit_MB_63_2*%
X146833314Y-72356980D03*
%TD*%
D10*
%TO.C,J1*%
X184440000Y-39451000D03*
D11*
X186980000Y-39451000D03*
X189520000Y-39451000D03*
%TD*%
D12*
%TO.C,KiKit_MB_34_5*%
X176526685Y-55904260D03*
%TD*%
D10*
%TO.C,J1*%
X107480000Y-39451000D03*
D11*
X110020000Y-39451000D03*
X112560000Y-39451000D03*
%TD*%
D12*
%TO.C,KiKit_MB_85_3*%
X166906647Y-87208900D03*
%TD*%
%TO.C,KiKit_MB_69_2*%
X175693314Y-72356980D03*
%TD*%
%TO.C,KiKit_MB_64_5*%
X147666685Y-85608260D03*
%TD*%
%TO.C,KiKit_MB_89_3*%
X186146647Y-87208900D03*
%TD*%
%TO.C,KiKit_MB_70_2*%
X179026685Y-85608019D03*
%TD*%
D10*
%TO.C,J1*%
X107480000Y-84007000D03*
D11*
X110020000Y-84007000D03*
X112560000Y-84007000D03*
%TD*%
D12*
%TO.C,KiKit_MB_87_6*%
X179026647Y-87208658D03*
%TD*%
%TO.C,KiKit_MB_83_2*%
X156453314Y-87208980D03*
%TD*%
%TO.C,KiKit_MB_40_4*%
X119640019Y-70756180D03*
%TD*%
D10*
%TO.C,J1*%
X145960000Y-69155000D03*
D11*
X148500000Y-69155000D03*
X151040000Y-69155000D03*
%TD*%
D12*
%TO.C,KiKit_MB_70_5*%
X176526685Y-85608260D03*
%TD*%
%TO.C,KiKit_MB_60_3*%
X130093352Y-85608099D03*
%TD*%
%TO.C,KiKit_MB_8_5*%
X138046685Y-41052260D03*
%TD*%
%TO.C,KiKit_MB_52_2*%
X179026685Y-70756019D03*
%TD*%
%TO.C,KiKit_MB_52_6*%
X175693352Y-70756341D03*
%TD*%
%TO.C,KiKit_MB_49_5*%
X168573314Y-57504739D03*
%TD*%
%TO.C,KiKit_MB_73_2*%
X108353315Y-87208980D03*
%TD*%
%TO.C,KiKit_MB_87_2*%
X175693314Y-87208980D03*
%TD*%
%TO.C,KiKit_MB_89_4*%
X186979980Y-87208819D03*
%TD*%
%TO.C,KiKit_MB_77_3*%
X128426647Y-87208900D03*
%TD*%
D10*
%TO.C,J2*%
X165200000Y-73847000D03*
D11*
X167740000Y-73847000D03*
X170280000Y-73847000D03*
%TD*%
D10*
%TO.C,J1*%
X126720000Y-39451000D03*
D11*
X129260000Y-39451000D03*
X131800000Y-39451000D03*
%TD*%
D10*
%TO.C,J1*%
X136340000Y-54303000D03*
D11*
X138880000Y-54303000D03*
X141420000Y-54303000D03*
%TD*%
D10*
%TO.C,J1*%
X145960000Y-98859000D03*
D11*
X148500000Y-98859000D03*
X151040000Y-98859000D03*
%TD*%
D12*
%TO.C,KiKit_MB_30_4*%
X158120019Y-55904180D03*
%TD*%
%TO.C,KiKit_MB_59_6*%
X130926647Y-72356658D03*
%TD*%
%TO.C,KiKit_MB_11_2*%
X156453314Y-27800981D03*
%TD*%
%TO.C,KiKit_MB_50_6*%
X166073352Y-70756341D03*
%TD*%
%TO.C,KiKit_MB_6_2*%
X130926666Y-41051858D03*
%TD*%
D10*
%TO.C,J2*%
X107480000Y-73847000D03*
D11*
X110020000Y-73847000D03*
X112560000Y-73847000D03*
%TD*%
D12*
%TO.C,KiKit_MB_42_4*%
X129260019Y-70756180D03*
%TD*%
D10*
%TO.C,J2*%
X136340000Y-29291000D03*
D11*
X138880000Y-29291000D03*
X141420000Y-29291000D03*
%TD*%
D12*
%TO.C,KiKit_MB_41_3*%
X128426647Y-57504900D03*
%TD*%
%TO.C,KiKit_MB_44_3*%
X139713352Y-70756099D03*
%TD*%
%TO.C,KiKit_MB_78_3*%
X130093352Y-100460099D03*
%TD*%
%TO.C,KiKit_MB_68_5*%
X166906685Y-85608260D03*
%TD*%
%TO.C,KiKit_MB_33_5*%
X178193314Y-42652739D03*
%TD*%
D10*
%TO.C,J2*%
X155580000Y-88699000D03*
D11*
X158120000Y-88699000D03*
X160660000Y-88699000D03*
%TD*%
D12*
%TO.C,KiKit_MB_84_3*%
X158953352Y-100460099D03*
%TD*%
%TO.C,KiKit_MB_86_3*%
X168573352Y-100460099D03*
%TD*%
%TO.C,KiKit_MB_43_4*%
X138879980Y-57504819D03*
%TD*%
%TO.C,KiKit_MB_32_5*%
X166906685Y-55904260D03*
%TD*%
%TO.C,KiKit_MB_5_5*%
X130093314Y-27800740D03*
%TD*%
%TO.C,KiKit_MB_12_3*%
X158953352Y-41052099D03*
%TD*%
%TO.C,KiKit_MB_11_5*%
X158953314Y-27800740D03*
%TD*%
%TO.C,KiKit_MB_81_6*%
X150166647Y-87208658D03*
%TD*%
D10*
%TO.C,J1*%
X145960000Y-39451000D03*
D11*
X148500000Y-39451000D03*
X151040000Y-39451000D03*
%TD*%
D10*
%TO.C,J1*%
X126720000Y-54303000D03*
D11*
X129260000Y-54303000D03*
X131800000Y-54303000D03*
%TD*%
D12*
%TO.C,KiKit_MB_15_4*%
X177359980Y-27800820D03*
%TD*%
%TO.C,KiKit_MB_55_6*%
X111686647Y-72356658D03*
%TD*%
%TO.C,KiKit_MB_60_4*%
X129260019Y-85608180D03*
%TD*%
%TO.C,KiKit_MB_46_3*%
X149333352Y-70756099D03*
%TD*%
D10*
%TO.C,J2*%
X126720000Y-88699000D03*
D11*
X129260000Y-88699000D03*
X131800000Y-88699000D03*
%TD*%
D12*
%TO.C,KiKit_MB_25_6*%
X140546647Y-42652658D03*
%TD*%
%TO.C,KiKit_MB_82_5*%
X147666685Y-100460260D03*
%TD*%
%TO.C,KiKit_MB_38_6*%
X108353353Y-70756341D03*
%TD*%
%TO.C,KiKit_MB_24_5*%
X128426685Y-55904260D03*
%TD*%
%TO.C,KiKit_MB_16_5*%
X176526685Y-41052260D03*
%TD*%
%TO.C,KiKit_MB_31_6*%
X169406647Y-42652658D03*
%TD*%
%TO.C,KiKit_MB_37_3*%
X109186648Y-57504900D03*
%TD*%
%TO.C,KiKit_MB_60_5*%
X128426685Y-85608260D03*
%TD*%
%TO.C,KiKit_MB_59_5*%
X130093314Y-72356739D03*
%TD*%
D10*
%TO.C,J2*%
X107480000Y-58995000D03*
D11*
X110020000Y-58995000D03*
X112560000Y-58995000D03*
%TD*%
D12*
%TO.C,KiKit_MB_79_6*%
X140546647Y-87208658D03*
%TD*%
%TO.C,KiKit_MB_28_4*%
X148500019Y-55904180D03*
%TD*%
%TO.C,KiKit_MB_2_5*%
X109186667Y-41051858D03*
%TD*%
%TO.C,KiKit_MB_45_5*%
X149333314Y-57504739D03*
%TD*%
%TO.C,KiKit_MB_69_4*%
X177359980Y-72356819D03*
%TD*%
%TO.C,KiKit_MB_90_4*%
X186980019Y-100460180D03*
%TD*%
%TO.C,KiKit_MB_87_5*%
X178193314Y-87208739D03*
%TD*%
D10*
%TO.C,J1*%
X117100000Y-69155000D03*
D11*
X119640000Y-69155000D03*
X122180000Y-69155000D03*
%TD*%
D12*
%TO.C,KiKit_MB_75_4*%
X119639980Y-87208819D03*
%TD*%
%TO.C,KiKit_MB_26_2*%
X140546685Y-55904019D03*
%TD*%
%TO.C,KiKit_MB_81_4*%
X148499980Y-87208819D03*
%TD*%
%TO.C,KiKit_MB_5_3*%
X128426647Y-27800901D03*
%TD*%
%TO.C,KiKit_MB_2_6*%
X108353334Y-41051858D03*
%TD*%
D10*
%TO.C,J1*%
X174820000Y-39451000D03*
D11*
X177360000Y-39451000D03*
X179900000Y-39451000D03*
%TD*%
D12*
%TO.C,KiKit_MB_68_2*%
X169406685Y-85608019D03*
%TD*%
%TO.C,KiKit_MB_69_3*%
X176526647Y-72356900D03*
%TD*%
%TO.C,KiKit_MB_90_2*%
X188646685Y-100460019D03*
%TD*%
%TO.C,KiKit_MB_3_4*%
X119639980Y-27800820D03*
%TD*%
%TO.C,KiKit_MB_3_2*%
X117973314Y-27800981D03*
%TD*%
%TO.C,KiKit_MB_73_3*%
X109186648Y-87208900D03*
%TD*%
D10*
%TO.C,J1*%
X107480000Y-54303000D03*
D11*
X110020000Y-54303000D03*
X112560000Y-54303000D03*
%TD*%
D12*
%TO.C,KiKit_MB_78_5*%
X128426685Y-100460260D03*
%TD*%
%TO.C,KiKit_MB_21_3*%
X118806647Y-42652900D03*
%TD*%
%TO.C,KiKit_MB_7_6*%
X140546647Y-27800659D03*
%TD*%
D10*
%TO.C,J2*%
X165200000Y-44143000D03*
D11*
X167740000Y-44143000D03*
X170280000Y-44143000D03*
%TD*%
D12*
%TO.C,KiKit_MB_60_2*%
X130926685Y-85608019D03*
%TD*%
%TO.C,KiKit_MB_20_4*%
X110020019Y-55904180D03*
%TD*%
%TO.C,KiKit_MB_36_5*%
X186146685Y-55904260D03*
%TD*%
%TO.C,KiKit_MB_16_2*%
X179026685Y-41052019D03*
%TD*%
D10*
%TO.C,J2*%
X136340000Y-44143000D03*
D11*
X138880000Y-44143000D03*
X141420000Y-44143000D03*
%TD*%
D12*
%TO.C,KiKit_MB_9_5*%
X149333314Y-27800740D03*
%TD*%
%TO.C,KiKit_MB_56_5*%
X109186686Y-85608260D03*
%TD*%
D10*
%TO.C,J2*%
X184440000Y-73847000D03*
D11*
X186980000Y-73847000D03*
X189520000Y-73847000D03*
%TD*%
D12*
%TO.C,KiKit_MB_35_3*%
X186146647Y-42652900D03*
%TD*%
D10*
%TO.C,J2*%
X145960000Y-29291000D03*
D11*
X148500000Y-29291000D03*
X151040000Y-29291000D03*
%TD*%
D12*
%TO.C,KiKit_MB_50_5*%
X166906685Y-70756260D03*
%TD*%
%TO.C,KiKit_MB_18_6*%
X185313352Y-41052341D03*
%TD*%
%TO.C,KiKit_MB_70_4*%
X177360019Y-85608180D03*
%TD*%
%TO.C,KiKit_MB_14_3*%
X168573352Y-41052099D03*
%TD*%
%TO.C,KiKit_MB_5_6*%
X130926647Y-27800659D03*
%TD*%
D10*
%TO.C,J2*%
X117100000Y-73847000D03*
D11*
X119640000Y-73847000D03*
X122180000Y-73847000D03*
%TD*%
D10*
%TO.C,J1*%
X136340000Y-84007000D03*
D11*
X138880000Y-84007000D03*
X141420000Y-84007000D03*
%TD*%
D12*
%TO.C,KiKit_MB_14_5*%
X166906685Y-41052260D03*
%TD*%
%TO.C,KiKit_MB_51_5*%
X178193314Y-57504739D03*
%TD*%
%TO.C,KiKit_MB_85_4*%
X167739980Y-87208819D03*
%TD*%
%TO.C,KiKit_MB_66_3*%
X158953352Y-85608099D03*
%TD*%
%TO.C,KiKit_MB_11_6*%
X159786647Y-27800659D03*
%TD*%
%TO.C,KiKit_MB_10_3*%
X149333352Y-41052099D03*
%TD*%
D10*
%TO.C,J2*%
X184440000Y-29291000D03*
D11*
X186980000Y-29291000D03*
X189520000Y-29291000D03*
%TD*%
D12*
%TO.C,KiKit_MB_57_4*%
X119639980Y-72356819D03*
%TD*%
%TO.C,KiKit_MB_10_5*%
X147666685Y-41052260D03*
%TD*%
%TO.C,KiKit_MB_83_6*%
X159786647Y-87208658D03*
%TD*%
D10*
%TO.C,J1*%
X126720000Y-84007000D03*
D11*
X129260000Y-84007000D03*
X131800000Y-84007000D03*
%TD*%
D12*
%TO.C,KiKit_MB_66_4*%
X158120019Y-85608180D03*
%TD*%
%TO.C,KiKit_MB_35_5*%
X187813314Y-42652739D03*
%TD*%
%TO.C,KiKit_MB_3_6*%
X121306647Y-27800659D03*
%TD*%
D10*
%TO.C,J1*%
X174820000Y-69155000D03*
D11*
X177360000Y-69155000D03*
X179900000Y-69155000D03*
%TD*%
D12*
%TO.C,KiKit_MB_32_3*%
X168573352Y-55904099D03*
%TD*%
D10*
%TO.C,J2*%
X165200000Y-58995000D03*
D11*
X167740000Y-58995000D03*
X170280000Y-58995000D03*
%TD*%
D12*
%TO.C,KiKit_MB_40_3*%
X120473352Y-70756099D03*
%TD*%
%TO.C,KiKit_MB_32_4*%
X167740019Y-55904180D03*
%TD*%
%TO.C,KiKit_MB_66_5*%
X157286685Y-85608260D03*
%TD*%
%TO.C,KiKit_MB_61_4*%
X138879980Y-72356819D03*
%TD*%
D10*
%TO.C,J2*%
X117100000Y-88699000D03*
D11*
X119640000Y-88699000D03*
X122180000Y-88699000D03*
%TD*%
D12*
%TO.C,KiKit_MB_64_4*%
X148500019Y-85608180D03*
%TD*%
%TO.C,KiKit_MB_28_6*%
X146833352Y-55904341D03*
%TD*%
D10*
%TO.C,J2*%
X126720000Y-73847000D03*
D11*
X129260000Y-73847000D03*
X131800000Y-73847000D03*
%TD*%
D12*
%TO.C,KiKit_MB_68_6*%
X166073352Y-85608341D03*
%TD*%
D10*
%TO.C,J1*%
X165200000Y-54303000D03*
D11*
X167740000Y-54303000D03*
X170280000Y-54303000D03*
%TD*%
D12*
%TO.C,KiKit_MB_54_2*%
X188646685Y-70756019D03*
%TD*%
%TO.C,KiKit_MB_81_2*%
X146833314Y-87208980D03*
%TD*%
%TO.C,KiKit_MB_38_4*%
X110020019Y-70756180D03*
%TD*%
%TO.C,KiKit_MB_72_4*%
X186980019Y-85608180D03*
%TD*%
%TO.C,KiKit_MB_16_4*%
X177360019Y-41052180D03*
%TD*%
%TO.C,KiKit_MB_65_6*%
X159786647Y-72356658D03*
%TD*%
%TO.C,KiKit_MB_80_5*%
X138046685Y-100460260D03*
%TD*%
%TO.C,KiKit_MB_19_3*%
X109186648Y-42652900D03*
%TD*%
%TO.C,KiKit_MB_77_2*%
X127593314Y-87208980D03*
%TD*%
%TO.C,KiKit_MB_51_2*%
X175693314Y-57504980D03*
%TD*%
%TO.C,KiKit_MB_56_3*%
X110853352Y-85608099D03*
%TD*%
%TO.C,KiKit_MB_57_3*%
X118806647Y-72356900D03*
%TD*%
%TO.C,KiKit_MB_20_2*%
X111686685Y-55904019D03*
%TD*%
%TO.C,KiKit_MB_33_6*%
X179026647Y-42652658D03*
%TD*%
%TO.C,KiKit_MB_37_2*%
X108353315Y-57504980D03*
%TD*%
%TO.C,KiKit_MB_75_5*%
X120473314Y-87208739D03*
%TD*%
D10*
%TO.C,J2*%
X155580000Y-44143000D03*
D11*
X158120000Y-44143000D03*
X160660000Y-44143000D03*
%TD*%
D12*
%TO.C,KiKit_MB_61_2*%
X137213314Y-72356980D03*
%TD*%
%TO.C,KiKit_MB_62_4*%
X138880019Y-85608180D03*
%TD*%
%TO.C,KiKit_MB_29_6*%
X159786647Y-42652658D03*
%TD*%
%TO.C,KiKit_MB_85_2*%
X166073314Y-87208980D03*
%TD*%
%TO.C,KiKit_MB_78_4*%
X129260019Y-100460180D03*
%TD*%
%TO.C,KiKit_MB_27_2*%
X146833314Y-42652980D03*
%TD*%
%TO.C,KiKit_MB_15_5*%
X178193314Y-27800740D03*
%TD*%
%TO.C,KiKit_MB_44_6*%
X137213352Y-70756341D03*
%TD*%
%TO.C,KiKit_MB_80_2*%
X140546685Y-100460019D03*
%TD*%
%TO.C,KiKit_MB_22_2*%
X121306685Y-55904019D03*
%TD*%
%TO.C,KiKit_MB_14_2*%
X169406685Y-41052019D03*
%TD*%
%TO.C,KiKit_MB_82_3*%
X149333352Y-100460099D03*
%TD*%
%TO.C,KiKit_MB_59_3*%
X128426647Y-72356900D03*
%TD*%
%TO.C,KiKit_MB_28_2*%
X150166685Y-55904019D03*
%TD*%
D10*
%TO.C,J2*%
X126720000Y-58995000D03*
D11*
X129260000Y-58995000D03*
X131800000Y-58995000D03*
%TD*%
D12*
%TO.C,KiKit_MB_5_4*%
X129259980Y-27800820D03*
%TD*%
%TO.C,KiKit_MB_39_2*%
X117973314Y-57504980D03*
%TD*%
%TO.C,KiKit_MB_46_6*%
X146833352Y-70756341D03*
%TD*%
%TO.C,KiKit_MB_53_6*%
X188646647Y-57504658D03*
%TD*%
%TO.C,KiKit_MB_61_6*%
X140546647Y-72356658D03*
%TD*%
%TO.C,KiKit_MB_87_3*%
X176526647Y-87208900D03*
%TD*%
%TO.C,KiKit_MB_13_2*%
X166073314Y-27800981D03*
%TD*%
%TO.C,KiKit_MB_42_3*%
X130093352Y-70756099D03*
%TD*%
D10*
%TO.C,J1*%
X117100000Y-84007000D03*
D11*
X119640000Y-84007000D03*
X122180000Y-84007000D03*
%TD*%
D12*
%TO.C,KiKit_MB_71_5*%
X187813314Y-72356739D03*
%TD*%
D10*
%TO.C,J1*%
X155580000Y-39451000D03*
D11*
X158120000Y-39451000D03*
X160660000Y-39451000D03*
%TD*%
D12*
%TO.C,KiKit_MB_45_3*%
X147666647Y-57504900D03*
%TD*%
%TO.C,KiKit_MB_45_2*%
X146833314Y-57504980D03*
%TD*%
%TO.C,KiKit_MB_58_4*%
X119640019Y-85608180D03*
%TD*%
%TO.C,KiKit_MB_68_3*%
X168573352Y-85608099D03*
%TD*%
D10*
%TO.C,J1*%
X165200000Y-84007000D03*
D11*
X167740000Y-84007000D03*
X170280000Y-84007000D03*
%TD*%
D12*
%TO.C,KiKit_MB_32_2*%
X169406685Y-55904019D03*
%TD*%
%TO.C,KiKit_MB_90_5*%
X186146685Y-100460260D03*
%TD*%
%TO.C,KiKit_MB_84_5*%
X157286685Y-100460260D03*
%TD*%
%TO.C,KiKit_MB_63_3*%
X147666647Y-72356900D03*
%TD*%
%TO.C,KiKit_MB_44_4*%
X138880019Y-70756180D03*
%TD*%
%TO.C,KiKit_MB_25_4*%
X138879980Y-42652819D03*
%TD*%
%TO.C,KiKit_MB_64_3*%
X149333352Y-85608099D03*
%TD*%
%TO.C,KiKit_MB_16_6*%
X175693352Y-41052341D03*
%TD*%
%TO.C,KiKit_MB_65_3*%
X157286647Y-72356900D03*
%TD*%
%TO.C,KiKit_MB_88_3*%
X178193352Y-100460099D03*
%TD*%
%TO.C,KiKit_MB_84_6*%
X156453352Y-100460341D03*
%TD*%
%TO.C,KiKit_MB_4_3*%
X120473333Y-41051858D03*
%TD*%
D10*
%TO.C,J2*%
X136340000Y-73847000D03*
D11*
X138880000Y-73847000D03*
X141420000Y-73847000D03*
%TD*%
D12*
%TO.C,KiKit_MB_81_3*%
X147666647Y-87208900D03*
%TD*%
%TO.C,KiKit_MB_15_2*%
X175693314Y-27800981D03*
%TD*%
%TO.C,KiKit_MB_80_6*%
X137213352Y-100460341D03*
%TD*%
%TO.C,KiKit_MB_80_4*%
X138880019Y-100460180D03*
%TD*%
D10*
%TO.C,J2*%
X174820000Y-73847000D03*
D11*
X177360000Y-73847000D03*
X179900000Y-73847000D03*
%TD*%
D12*
%TO.C,KiKit_MB_21_6*%
X121306647Y-42652658D03*
%TD*%
%TO.C,KiKit_MB_48_6*%
X156453352Y-70756341D03*
%TD*%
%TO.C,KiKit_MB_41_6*%
X130926647Y-57504658D03*
%TD*%
%TO.C,KiKit_MB_72_6*%
X185313352Y-85608341D03*
%TD*%
%TO.C,KiKit_MB_23_5*%
X130093314Y-42652739D03*
%TD*%
D10*
%TO.C,J2*%
X174820000Y-88699000D03*
D11*
X177360000Y-88699000D03*
X179900000Y-88699000D03*
%TD*%
D12*
%TO.C,KiKit_MB_87_4*%
X177359980Y-87208819D03*
%TD*%
%TO.C,KiKit_MB_86_6*%
X166073352Y-100460341D03*
%TD*%
%TO.C,KiKit_MB_84_4*%
X158120019Y-100460180D03*
%TD*%
%TO.C,KiKit_MB_19_2*%
X108353315Y-42652980D03*
%TD*%
D10*
%TO.C,J2*%
X184440000Y-88699000D03*
D11*
X186980000Y-88699000D03*
X189520000Y-88699000D03*
%TD*%
D12*
%TO.C,KiKit_MB_88_6*%
X175693352Y-100460341D03*
%TD*%
%TO.C,KiKit_MB_72_3*%
X187813352Y-85608099D03*
%TD*%
D10*
%TO.C,J1*%
X145960000Y-84007000D03*
D11*
X148500000Y-84007000D03*
X151040000Y-84007000D03*
%TD*%
D12*
%TO.C,KiKit_MB_74_5*%
X109186686Y-100460260D03*
%TD*%
%TO.C,KiKit_MB_8_2*%
X140546685Y-41052019D03*
%TD*%
%TO.C,KiKit_MB_39_5*%
X120473314Y-57504739D03*
%TD*%
%TO.C,KiKit_MB_76_5*%
X118806685Y-100460260D03*
%TD*%
%TO.C,KiKit_MB_8_4*%
X138880019Y-41052180D03*
%TD*%
%TO.C,KiKit_MB_75_6*%
X121306647Y-87208658D03*
%TD*%
%TO.C,KiKit_MB_83_5*%
X158953314Y-87208739D03*
%TD*%
%TO.C,KiKit_MB_20_5*%
X109186686Y-55904260D03*
%TD*%
%TO.C,KiKit_MB_22_6*%
X117973352Y-55904341D03*
%TD*%
D10*
%TO.C,J1*%
X174820000Y-84007000D03*
D11*
X177360000Y-84007000D03*
X179900000Y-84007000D03*
%TD*%
D12*
%TO.C,KiKit_MB_36_3*%
X187813352Y-55904099D03*
%TD*%
D10*
%TO.C,J1*%
X136340000Y-69155000D03*
D11*
X138880000Y-69155000D03*
X141420000Y-69155000D03*
%TD*%
D12*
%TO.C,KiKit_MB_73_6*%
X111686647Y-87208658D03*
%TD*%
%TO.C,KiKit_MB_13_6*%
X169406647Y-27800659D03*
%TD*%
D10*
%TO.C,J1*%
X107480000Y-98859000D03*
D11*
X110020000Y-98859000D03*
X112560000Y-98859000D03*
%TD*%
D10*
%TO.C,J2*%
X145960000Y-73847000D03*
D11*
X148500000Y-73847000D03*
X151040000Y-73847000D03*
%TD*%
D12*
%TO.C,KiKit_MB_37_6*%
X111686647Y-57504658D03*
%TD*%
%TO.C,KiKit_MB_89_6*%
X188646647Y-87208658D03*
%TD*%
%TO.C,KiKit_MB_49_6*%
X169406647Y-57504658D03*
%TD*%
%TO.C,KiKit_MB_59_2*%
X127593314Y-72356980D03*
%TD*%
D10*
%TO.C,J2*%
X136340000Y-58995000D03*
D11*
X138880000Y-58995000D03*
X141420000Y-58995000D03*
%TD*%
D12*
%TO.C,KiKit_MB_83_3*%
X157286647Y-87208900D03*
%TD*%
%TO.C,KiKit_MB_19_4*%
X110019981Y-42652819D03*
%TD*%
D10*
%TO.C,J2*%
X184440000Y-44143000D03*
D11*
X186980000Y-44143000D03*
X189520000Y-44143000D03*
%TD*%
D12*
%TO.C,KiKit_MB_45_6*%
X150166647Y-57504658D03*
%TD*%
%TO.C,KiKit_MB_21_5*%
X120473314Y-42652739D03*
%TD*%
%TO.C,KiKit_MB_48_4*%
X158120019Y-70756180D03*
%TD*%
%TO.C,KiKit_MB_54_4*%
X186980019Y-70756180D03*
%TD*%
%TO.C,KiKit_MB_78_6*%
X127593352Y-100460341D03*
%TD*%
D10*
%TO.C,J2*%
X165200000Y-88699000D03*
D11*
X167740000Y-88699000D03*
X170280000Y-88699000D03*
%TD*%
D12*
%TO.C,KiKit_MB_50_3*%
X168573352Y-70756099D03*
%TD*%
%TO.C,KiKit_MB_7_3*%
X138046647Y-27800901D03*
%TD*%
D10*
%TO.C,J2*%
X107480000Y-88699000D03*
D11*
X110020000Y-88699000D03*
X112560000Y-88699000D03*
%TD*%
D12*
%TO.C,KiKit_MB_67_2*%
X166073314Y-72356980D03*
%TD*%
%TO.C,KiKit_MB_22_5*%
X118806685Y-55904260D03*
%TD*%
D10*
%TO.C,J1*%
X174820000Y-98859000D03*
D11*
X177360000Y-98859000D03*
X179900000Y-98859000D03*
%TD*%
D12*
%TO.C,KiKit_MB_17_5*%
X187813314Y-27800740D03*
%TD*%
%TO.C,KiKit_MB_74_2*%
X111686685Y-100460019D03*
%TD*%
%TO.C,KiKit_MB_31_5*%
X168573314Y-42652739D03*
%TD*%
%TO.C,KiKit_MB_42_6*%
X127593352Y-70756341D03*
%TD*%
%TO.C,KiKit_MB_31_2*%
X166073314Y-42652980D03*
%TD*%
%TO.C,KiKit_MB_76_4*%
X119640019Y-100460180D03*
%TD*%
%TO.C,KiKit_MB_12_6*%
X156453352Y-41052341D03*
%TD*%
%TO.C,KiKit_MB_29_3*%
X157286647Y-42652900D03*
%TD*%
%TO.C,KiKit_MB_65_5*%
X158953314Y-72356739D03*
%TD*%
%TO.C,KiKit_MB_29_5*%
X158953314Y-42652739D03*
%TD*%
%TO.C,KiKit_MB_77_6*%
X130926647Y-87208658D03*
%TD*%
%TO.C,KiKit_MB_8_6*%
X137213352Y-41052341D03*
%TD*%
%TO.C,KiKit_MB_9_3*%
X147666647Y-27800901D03*
%TD*%
%TO.C,KiKit_MB_12_5*%
X157286685Y-41052260D03*
%TD*%
%TO.C,KiKit_MB_79_3*%
X138046647Y-87208900D03*
%TD*%
%TO.C,KiKit_MB_13_3*%
X166906647Y-27800901D03*
%TD*%
%TO.C,KiKit_MB_59_4*%
X129259980Y-72356819D03*
%TD*%
%TO.C,KiKit_MB_57_2*%
X117973314Y-72356980D03*
%TD*%
%TO.C,KiKit_MB_9_4*%
X148499980Y-27800820D03*
%TD*%
%TO.C,KiKit_MB_25_5*%
X139713314Y-42652739D03*
%TD*%
%TO.C,KiKit_MB_10_6*%
X146833352Y-41052341D03*
%TD*%
%TO.C,KiKit_MB_65_4*%
X158119980Y-72356819D03*
%TD*%
%TO.C,KiKit_MB_6_6*%
X127593333Y-41051858D03*
%TD*%
D10*
%TO.C,J2*%
X165200000Y-29291000D03*
D11*
X167740000Y-29291000D03*
X170280000Y-29291000D03*
%TD*%
D12*
%TO.C,KiKit_MB_18_4*%
X186980019Y-41052180D03*
%TD*%
%TO.C,KiKit_MB_58_2*%
X121306685Y-85608019D03*
%TD*%
%TO.C,KiKit_MB_79_5*%
X139713314Y-87208739D03*
%TD*%
%TO.C,KiKit_MB_86_5*%
X166906685Y-100460260D03*
%TD*%
D10*
%TO.C,J2*%
X155580000Y-29291000D03*
D11*
X158120000Y-29291000D03*
X160660000Y-29291000D03*
%TD*%
D12*
%TO.C,KiKit_MB_55_5*%
X110853314Y-72356739D03*
%TD*%
%TO.C,KiKit_MB_9_6*%
X150166647Y-27800659D03*
%TD*%
%TO.C,KiKit_MB_72_2*%
X188646685Y-85608019D03*
%TD*%
%TO.C,KiKit_MB_90_3*%
X187813352Y-100460099D03*
%TD*%
%TO.C,KiKit_MB_42_2*%
X130926685Y-70756019D03*
%TD*%
%TO.C,KiKit_MB_56_6*%
X108353353Y-85608341D03*
%TD*%
%TO.C,KiKit_MB_42_5*%
X128426685Y-70756260D03*
%TD*%
%TO.C,KiKit_MB_90_6*%
X185313352Y-100460341D03*
%TD*%
%TO.C,KiKit_MB_85_6*%
X169406647Y-87208658D03*
%TD*%
%TO.C,KiKit_MB_16_3*%
X178193352Y-41052099D03*
%TD*%
%TO.C,KiKit_MB_7_4*%
X138879980Y-27800820D03*
%TD*%
%TO.C,KiKit_MB_31_3*%
X166906647Y-42652900D03*
%TD*%
%TO.C,KiKit_MB_36_2*%
X188646685Y-55904019D03*
%TD*%
%TO.C,KiKit_MB_47_2*%
X156453314Y-57504980D03*
%TD*%
%TO.C,KiKit_MB_56_2*%
X111686685Y-85608019D03*
%TD*%
%TO.C,KiKit_MB_24_4*%
X129260019Y-55904180D03*
%TD*%
%TO.C,KiKit_MB_44_2*%
X140546685Y-70756019D03*
%TD*%
%TO.C,KiKit_MB_64_2*%
X150166685Y-85608019D03*
%TD*%
%TO.C,KiKit_MB_38_3*%
X110853352Y-70756099D03*
%TD*%
%TO.C,KiKit_MB_46_2*%
X150166685Y-70756019D03*
%TD*%
%TO.C,KiKit_MB_67_4*%
X167739980Y-72356819D03*
%TD*%
D10*
%TO.C,J2*%
X174820000Y-44143000D03*
D11*
X177360000Y-44143000D03*
X179900000Y-44143000D03*
%TD*%
D12*
%TO.C,KiKit_MB_66_6*%
X156453352Y-85608341D03*
%TD*%
%TO.C,KiKit_MB_71_2*%
X185313314Y-72356980D03*
%TD*%
%TO.C,KiKit_MB_19_6*%
X111686647Y-42652658D03*
%TD*%
%TO.C,KiKit_MB_24_6*%
X127593352Y-55904341D03*
%TD*%
%TO.C,KiKit_MB_67_6*%
X169406647Y-72356658D03*
%TD*%
D10*
%TO.C,J1*%
X126720000Y-98859000D03*
D11*
X129260000Y-98859000D03*
X131800000Y-98859000D03*
%TD*%
D12*
%TO.C,KiKit_MB_61_5*%
X139713314Y-72356739D03*
%TD*%
D10*
%TO.C,J2*%
X107480000Y-44143000D03*
D11*
X110020000Y-44143000D03*
X112560000Y-44143000D03*
%TD*%
D12*
%TO.C,KiKit_MB_49_4*%
X167739980Y-57504819D03*
%TD*%
D10*
%TO.C,J2*%
X145960000Y-58995000D03*
D11*
X148500000Y-58995000D03*
X151040000Y-58995000D03*
%TD*%
M02*
