M48
; DRILL file {KiCad 9.0.6} date 2025-12-29T22:24:49-0800
; FORMAT={-:-/ absolute / metric / decimal}
; #@! TF.CreationDate,2025-12-29T22:24:49-08:00
; #@! TF.GenerationSoftware,Kicad,Pcbnew,9.0.6
; #@! TF.FileFunction,Plated,1,2,PTH
FMAT,2
METRIC
; #@! TA.AperFunction,Plated,PTH,ComponentDrill
T1C1.000
%
G90
G05
T1
X107.48Y-29.291
X107.48Y-39.451
X107.48Y-44.143
X107.48Y-54.303
X107.48Y-58.995
X107.48Y-69.155
X107.48Y-73.847
X107.48Y-84.007
X107.48Y-88.699
X107.48Y-98.859
X110.02Y-29.291
X110.02Y-39.451
X110.02Y-44.143
X110.02Y-54.303
X110.02Y-58.995
X110.02Y-69.155
X110.02Y-73.847
X110.02Y-84.007
X110.02Y-88.699
X110.02Y-98.859
X112.56Y-29.291
X112.56Y-39.451
X112.56Y-44.143
X112.56Y-54.303
X112.56Y-58.995
X112.56Y-69.155
X112.56Y-73.847
X112.56Y-84.007
X112.56Y-88.699
X112.56Y-98.859
X117.1Y-29.291
X117.1Y-39.451
X117.1Y-44.143
X117.1Y-54.303
X117.1Y-58.995
X117.1Y-69.155
X117.1Y-73.847
X117.1Y-84.007
X117.1Y-88.699
X117.1Y-98.859
X119.64Y-29.291
X119.64Y-39.451
X119.64Y-44.143
X119.64Y-54.303
X119.64Y-58.995
X119.64Y-69.155
X119.64Y-73.847
X119.64Y-84.007
X119.64Y-88.699
X119.64Y-98.859
X122.18Y-29.291
X122.18Y-39.451
X122.18Y-44.143
X122.18Y-54.303
X122.18Y-58.995
X122.18Y-69.155
X122.18Y-73.847
X122.18Y-84.007
X122.18Y-88.699
X122.18Y-98.859
X126.72Y-29.291
X126.72Y-39.451
X126.72Y-44.143
X126.72Y-54.303
X126.72Y-58.995
X126.72Y-69.155
X126.72Y-73.847
X126.72Y-84.007
X126.72Y-88.699
X126.72Y-98.859
X129.26Y-29.291
X129.26Y-39.451
X129.26Y-44.143
X129.26Y-54.303
X129.26Y-58.995
X129.26Y-69.155
X129.26Y-73.847
X129.26Y-84.007
X129.26Y-88.699
X129.26Y-98.859
X131.8Y-29.291
X131.8Y-39.451
X131.8Y-44.143
X131.8Y-54.303
X131.8Y-58.995
X131.8Y-69.155
X131.8Y-73.847
X131.8Y-84.007
X131.8Y-88.699
X131.8Y-98.859
X136.34Y-29.291
X136.34Y-39.451
X136.34Y-44.143
X136.34Y-54.303
X136.34Y-58.995
X136.34Y-69.155
X136.34Y-73.847
X136.34Y-84.007
X136.34Y-88.699
X136.34Y-98.859
X138.88Y-29.291
X138.88Y-39.451
X138.88Y-44.143
X138.88Y-54.303
X138.88Y-58.995
X138.88Y-69.155
X138.88Y-73.847
X138.88Y-84.007
X138.88Y-88.699
X138.88Y-98.859
X141.42Y-29.291
X141.42Y-39.451
X141.42Y-44.143
X141.42Y-54.303
X141.42Y-58.995
X141.42Y-69.155
X141.42Y-73.847
X141.42Y-84.007
X141.42Y-88.699
X141.42Y-98.859
X145.96Y-29.291
X145.96Y-39.451
X145.96Y-44.143
X145.96Y-54.303
X145.96Y-58.995
X145.96Y-69.155
X145.96Y-73.847
X145.96Y-84.007
X145.96Y-88.699
X145.96Y-98.859
X148.5Y-29.291
X148.5Y-39.451
X148.5Y-44.143
X148.5Y-54.303
X148.5Y-58.995
X148.5Y-69.155
X148.5Y-73.847
X148.5Y-84.007
X148.5Y-88.699
X148.5Y-98.859
X151.04Y-29.291
X151.04Y-39.451
X151.04Y-44.143
X151.04Y-54.303
X151.04Y-58.995
X151.04Y-69.155
X151.04Y-73.847
X151.04Y-84.007
X151.04Y-88.699
X151.04Y-98.859
X155.58Y-29.291
X155.58Y-39.451
X155.58Y-44.143
X155.58Y-54.303
X155.58Y-58.995
X155.58Y-69.155
X155.58Y-73.847
X155.58Y-84.007
X155.58Y-88.699
X155.58Y-98.859
X158.12Y-29.291
X158.12Y-39.451
X158.12Y-44.143
X158.12Y-54.303
X158.12Y-58.995
X158.12Y-69.155
X158.12Y-73.847
X158.12Y-84.007
X158.12Y-88.699
X158.12Y-98.859
X160.66Y-29.291
X160.66Y-39.451
X160.66Y-44.143
X160.66Y-54.303
X160.66Y-58.995
X160.66Y-69.155
X160.66Y-73.847
X160.66Y-84.007
X160.66Y-88.699
X160.66Y-98.859
X165.2Y-29.291
X165.2Y-39.451
X165.2Y-44.143
X165.2Y-54.303
X165.2Y-58.995
X165.2Y-69.155
X165.2Y-73.847
X165.2Y-84.007
X165.2Y-88.699
X165.2Y-98.859
X167.74Y-29.291
X167.74Y-39.451
X167.74Y-44.143
X167.74Y-54.303
X167.74Y-58.995
X167.74Y-69.155
X167.74Y-73.847
X167.74Y-84.007
X167.74Y-88.699
X167.74Y-98.859
X170.28Y-29.291
X170.28Y-39.451
X170.28Y-44.143
X170.28Y-54.303
X170.28Y-58.995
X170.28Y-69.155
X170.28Y-73.847
X170.28Y-84.007
X170.28Y-88.699
X170.28Y-98.859
X174.82Y-29.291
X174.82Y-39.451
X174.82Y-44.143
X174.82Y-54.303
X174.82Y-58.995
X174.82Y-69.155
X174.82Y-73.847
X174.82Y-84.007
X174.82Y-88.699
X174.82Y-98.859
X177.36Y-29.291
X177.36Y-39.451
X177.36Y-44.143
X177.36Y-54.303
X177.36Y-58.995
X177.36Y-69.155
X177.36Y-73.847
X177.36Y-84.007
X177.36Y-88.699
X177.36Y-98.859
X179.9Y-29.291
X179.9Y-39.451
X179.9Y-44.143
X179.9Y-54.303
X179.9Y-58.995
X179.9Y-69.155
X179.9Y-73.847
X179.9Y-84.007
X179.9Y-88.699
X179.9Y-98.859
X184.44Y-29.291
X184.44Y-39.451
X184.44Y-44.143
X184.44Y-54.303
X184.44Y-58.995
X184.44Y-69.155
X184.44Y-73.847
X184.44Y-84.007
X184.44Y-88.699
X184.44Y-98.859
X186.98Y-29.291
X186.98Y-39.451
X186.98Y-44.143
X186.98Y-54.303
X186.98Y-58.995
X186.98Y-69.155
X186.98Y-73.847
X186.98Y-84.007
X186.98Y-88.699
X186.98Y-98.859
X189.52Y-29.291
X189.52Y-39.451
X189.52Y-44.143
X189.52Y-54.303
X189.52Y-58.995
X189.52Y-69.155
X189.52Y-73.847
X189.52Y-84.007
X189.52Y-88.699
X189.52Y-98.859
M30
