M48
; DRILL file KiCad 10.0.1 date 2026-05-08T16:43:26
; FORMAT={-:-/ absolute / metric / decimal}
; #@! TF.CreationDate,2026-05-08T16:43:26-07:00
; #@! TF.GenerationSoftware,Kicad,Pcbnew,10.0.1
; #@! TF.FileFunction,NonPlated,1,2,NPTH
FMAT,2
METRIC
; #@! TA.AperFunction,NonPlated,NPTH,ComponentDrill
T1C0.500
%
G90
G05
T1
X111.725Y-27.8
X111.725Y-37.09
X111.725Y-38.69
X111.725Y-47.98
X111.725Y-49.58
X111.725Y-58.87
X111.725Y-60.47
X111.725Y-69.76
X111.725Y-71.36
X111.725Y-80.65
X111.725Y-82.25
X111.725Y-91.54
X111.725Y-93.14
X111.725Y-102.43
X112.558Y-27.8
X112.558Y-37.09
X112.558Y-38.69
X112.558Y-47.98
X112.558Y-49.58
X112.558Y-58.87
X112.558Y-60.47
X112.558Y-69.76
X112.558Y-71.36
X112.558Y-80.65
X112.558Y-82.25
X112.558Y-91.54
X112.558Y-93.14
X112.558Y-102.43
X113.392Y-27.8
X113.392Y-37.09
X113.392Y-38.69
X113.392Y-47.98
X113.392Y-49.58
X113.392Y-58.87
X113.392Y-60.47
X113.392Y-69.76
X113.392Y-71.36
X113.392Y-80.65
X113.392Y-82.25
X113.392Y-91.54
X113.392Y-93.14
X113.392Y-102.43
X114.225Y-27.8
X114.225Y-37.09
X114.225Y-38.69
X114.225Y-47.98
X114.225Y-49.58
X114.225Y-58.87
X114.225Y-60.47
X114.225Y-69.76
X114.225Y-71.36
X114.225Y-80.65
X114.225Y-82.25
X114.225Y-91.54
X114.225Y-93.14
X114.225Y-102.43
X115.058Y-27.8
X115.058Y-37.09
X115.058Y-38.69
X115.058Y-47.98
X115.058Y-49.58
X115.058Y-58.87
X115.058Y-60.47
X115.058Y-69.76
X115.058Y-71.36
X115.058Y-80.65
X115.058Y-82.25
X115.058Y-91.54
X115.058Y-93.14
X115.058Y-102.43
X123.428Y-27.8
X123.428Y-37.09
X123.428Y-38.69
X123.428Y-47.98
X123.428Y-49.58
X123.428Y-58.87
X123.428Y-60.47
X123.428Y-69.76
X123.428Y-71.36
X123.428Y-80.65
X123.428Y-82.25
X123.428Y-91.54
X123.428Y-93.14
X123.428Y-102.43
X124.261Y-27.8
X124.261Y-37.09
X124.261Y-38.69
X124.261Y-47.98
X124.261Y-49.58
X124.261Y-58.87
X124.261Y-60.47
X124.261Y-69.76
X124.261Y-71.36
X124.261Y-80.65
X124.261Y-82.25
X124.261Y-91.54
X124.261Y-93.14
X124.261Y-102.43
X125.094Y-27.8
X125.094Y-37.09
X125.094Y-38.69
X125.094Y-47.98
X125.094Y-49.58
X125.094Y-58.87
X125.094Y-60.47
X125.094Y-69.76
X125.094Y-71.36
X125.094Y-80.65
X125.094Y-82.25
X125.094Y-91.54
X125.094Y-93.14
X125.094Y-102.43
X125.928Y-27.8
X125.928Y-37.09
X125.928Y-38.69
X125.928Y-47.98
X125.928Y-49.58
X125.928Y-58.87
X125.928Y-60.47
X125.928Y-69.76
X125.928Y-71.36
X125.928Y-80.65
X125.928Y-82.25
X125.928Y-91.54
X125.928Y-93.14
X125.928Y-102.43
X126.761Y-27.8
X126.761Y-37.09
X126.761Y-38.69
X126.761Y-47.98
X126.761Y-49.58
X126.761Y-58.87
X126.761Y-60.47
X126.761Y-69.76
X126.761Y-71.36
X126.761Y-80.65
X126.761Y-82.25
X126.761Y-91.54
X126.761Y-93.14
X126.761Y-102.43
X135.131Y-27.8
X135.131Y-37.09
X135.131Y-38.69
X135.131Y-47.98
X135.131Y-49.58
X135.131Y-58.87
X135.131Y-60.47
X135.131Y-69.76
X135.131Y-71.36
X135.131Y-80.65
X135.131Y-82.25
X135.131Y-91.54
X135.131Y-93.14
X135.131Y-102.43
X135.964Y-27.8
X135.964Y-37.09
X135.964Y-38.69
X135.964Y-47.98
X135.964Y-49.58
X135.964Y-58.87
X135.964Y-60.47
X135.964Y-69.76
X135.964Y-71.36
X135.964Y-80.65
X135.964Y-82.25
X135.964Y-91.54
X135.964Y-93.14
X135.964Y-102.43
X136.797Y-27.8
X136.797Y-37.09
X136.797Y-38.69
X136.797Y-47.98
X136.797Y-49.58
X136.797Y-58.87
X136.797Y-60.47
X136.797Y-69.76
X136.797Y-71.36
X136.797Y-80.65
X136.797Y-82.25
X136.797Y-91.54
X136.797Y-93.14
X136.797Y-102.43
X137.631Y-27.8
X137.631Y-37.09
X137.631Y-38.69
X137.631Y-47.98
X137.631Y-49.58
X137.631Y-58.87
X137.631Y-60.47
X137.631Y-69.76
X137.631Y-71.36
X137.631Y-80.65
X137.631Y-82.25
X137.631Y-91.54
X137.631Y-93.14
X137.631Y-102.43
X138.464Y-27.8
X138.464Y-37.09
X138.464Y-38.69
X138.464Y-47.98
X138.464Y-49.58
X138.464Y-58.87
X138.464Y-60.47
X138.464Y-69.76
X138.464Y-71.36
X138.464Y-80.65
X138.464Y-82.25
X138.464Y-91.54
X138.464Y-93.14
X138.464Y-102.43
X146.833Y-27.8
X146.833Y-37.09
X146.833Y-38.69
X146.833Y-47.98
X146.833Y-49.58
X146.833Y-58.87
X146.833Y-60.47
X146.833Y-69.76
X146.833Y-71.36
X146.833Y-80.65
X146.833Y-82.25
X146.833Y-91.54
X146.833Y-93.14
X146.833Y-102.43
X147.667Y-27.8
X147.667Y-37.09
X147.667Y-38.69
X147.667Y-47.98
X147.667Y-49.58
X147.667Y-58.87
X147.667Y-60.47
X147.667Y-69.76
X147.667Y-71.36
X147.667Y-80.65
X147.667Y-82.25
X147.667Y-91.54
X147.667Y-93.14
X147.667Y-102.43
X148.5Y-27.8
X148.5Y-37.09
X148.5Y-38.69
X148.5Y-47.98
X148.5Y-49.58
X148.5Y-58.87
X148.5Y-60.47
X148.5Y-69.76
X148.5Y-71.36
X148.5Y-80.65
X148.5Y-82.25
X148.5Y-91.54
X148.5Y-93.14
X148.5Y-102.43
X149.333Y-27.8
X149.333Y-37.09
X149.333Y-38.69
X149.333Y-47.98
X149.333Y-49.58
X149.333Y-58.87
X149.333Y-60.47
X149.333Y-69.76
X149.333Y-71.36
X149.333Y-80.65
X149.333Y-82.25
X149.333Y-91.54
X149.333Y-93.14
X149.333Y-102.43
X150.167Y-27.8
X150.167Y-37.09
X150.167Y-38.69
X150.167Y-47.98
X150.167Y-49.58
X150.167Y-58.87
X150.167Y-60.47
X150.167Y-69.76
X150.167Y-71.36
X150.167Y-80.65
X150.167Y-82.25
X150.167Y-91.54
X150.167Y-93.14
X150.167Y-102.43
X158.536Y-27.8
X158.536Y-37.09
X158.536Y-38.69
X158.536Y-47.98
X158.536Y-49.58
X158.536Y-58.87
X158.536Y-60.47
X158.536Y-69.76
X158.536Y-71.36
X158.536Y-80.65
X158.536Y-82.25
X158.536Y-91.54
X158.536Y-93.14
X158.536Y-102.43
X159.369Y-27.8
X159.369Y-37.09
X159.369Y-38.69
X159.369Y-47.98
X159.369Y-49.58
X159.369Y-58.87
X159.369Y-60.47
X159.369Y-69.76
X159.369Y-71.36
X159.369Y-80.65
X159.369Y-82.25
X159.369Y-91.54
X159.369Y-93.14
X159.369Y-102.43
X160.203Y-27.8
X160.203Y-37.09
X160.203Y-38.69
X160.203Y-47.98
X160.203Y-49.58
X160.203Y-58.87
X160.203Y-60.47
X160.203Y-69.76
X160.203Y-71.36
X160.203Y-80.65
X160.203Y-82.25
X160.203Y-91.54
X160.203Y-93.14
X160.203Y-102.43
X161.036Y-27.8
X161.036Y-37.09
X161.036Y-38.69
X161.036Y-47.98
X161.036Y-49.58
X161.036Y-58.87
X161.036Y-60.47
X161.036Y-69.76
X161.036Y-71.36
X161.036Y-80.65
X161.036Y-82.25
X161.036Y-91.54
X161.036Y-93.14
X161.036Y-102.43
X161.869Y-27.8
X161.869Y-37.09
X161.869Y-38.69
X161.869Y-47.98
X161.869Y-49.58
X161.869Y-58.87
X161.869Y-60.47
X161.869Y-69.76
X161.869Y-71.36
X161.869Y-80.65
X161.869Y-82.25
X161.869Y-91.54
X161.869Y-93.14
X161.869Y-102.43
X170.239Y-27.8
X170.239Y-37.09
X170.239Y-38.69
X170.239Y-47.98
X170.239Y-49.58
X170.239Y-58.87
X170.239Y-60.47
X170.239Y-69.76
X170.239Y-71.36
X170.239Y-80.65
X170.239Y-82.25
X170.239Y-91.54
X170.239Y-93.14
X170.239Y-102.43
X171.072Y-27.8
X171.072Y-37.09
X171.072Y-38.69
X171.072Y-47.98
X171.072Y-49.58
X171.072Y-58.87
X171.072Y-60.47
X171.072Y-69.76
X171.072Y-71.36
X171.072Y-80.65
X171.072Y-82.25
X171.072Y-91.54
X171.072Y-93.14
X171.072Y-102.43
X171.906Y-27.8
X171.906Y-37.09
X171.906Y-38.69
X171.906Y-47.98
X171.906Y-49.58
X171.906Y-58.87
X171.906Y-60.47
X171.906Y-69.76
X171.906Y-71.36
X171.906Y-80.65
X171.906Y-82.25
X171.906Y-91.54
X171.906Y-93.14
X171.906Y-102.43
X172.739Y-27.8
X172.739Y-37.09
X172.739Y-38.69
X172.739Y-47.98
X172.739Y-49.58
X172.739Y-58.87
X172.739Y-60.47
X172.739Y-69.76
X172.739Y-71.36
X172.739Y-80.65
X172.739Y-82.25
X172.739Y-91.54
X172.739Y-93.14
X172.739Y-102.43
X173.572Y-27.8
X173.572Y-37.09
X173.572Y-38.69
X173.572Y-47.98
X173.572Y-49.58
X173.572Y-58.87
X173.572Y-60.47
X173.572Y-69.76
X173.572Y-71.36
X173.572Y-80.65
X173.572Y-82.25
X173.572Y-91.54
X173.572Y-93.14
X173.572Y-102.43
X181.942Y-27.8
X181.942Y-37.09
X181.942Y-38.69
X181.942Y-47.98
X181.942Y-49.58
X181.942Y-58.87
X181.942Y-60.47
X181.942Y-69.76
X181.942Y-71.36
X181.942Y-80.65
X181.942Y-82.25
X181.942Y-91.54
X181.942Y-93.14
X181.942Y-102.43
X182.775Y-27.8
X182.775Y-37.09
X182.775Y-38.69
X182.775Y-47.98
X182.775Y-49.58
X182.775Y-58.87
X182.775Y-60.47
X182.775Y-69.76
X182.775Y-71.36
X182.775Y-80.65
X182.775Y-82.25
X182.775Y-91.54
X182.775Y-93.14
X182.775Y-102.43
X183.608Y-27.8
X183.608Y-37.09
X183.608Y-38.69
X183.608Y-47.98
X183.608Y-49.58
X183.608Y-58.87
X183.608Y-60.47
X183.608Y-69.76
X183.608Y-71.36
X183.608Y-80.65
X183.608Y-82.25
X183.608Y-91.54
X183.608Y-93.14
X183.608Y-102.43
X184.442Y-27.8
X184.442Y-37.09
X184.442Y-38.69
X184.442Y-47.98
X184.442Y-49.58
X184.442Y-58.87
X184.442Y-60.47
X184.442Y-69.76
X184.442Y-71.36
X184.442Y-80.65
X184.442Y-82.25
X184.442Y-91.54
X184.442Y-93.14
X184.442Y-102.43
X185.275Y-27.8
X185.275Y-37.09
X185.275Y-38.69
X185.275Y-47.98
X185.275Y-49.58
X185.275Y-58.87
X185.275Y-60.47
X185.275Y-69.76
X185.275Y-71.36
X185.275Y-80.65
X185.275Y-82.25
X185.275Y-91.54
X185.275Y-93.14
X185.275Y-102.43
M30
