M48
; DRILL file KiCad 10.0.1 date 2026-05-08T16:43:26
; FORMAT={-:-/ absolute / metric / decimal}
; #@! TF.CreationDate,2026-05-08T16:43:26-07:00
; #@! TF.GenerationSoftware,Kicad,Pcbnew,10.0.1
; #@! TF.FileFunction,Plated,1,2,PTH
FMAT,2
METRIC
; #@! TA.AperFunction,Plated,PTH,ComponentDrill
T1C0.300
; #@! TA.AperFunction,Plated,PTH,ComponentDrill
T2C1.000
%
G90
G05
T1
X113.62Y-30.565
X113.62Y-31.835
X113.62Y-41.455
X113.62Y-42.725
X113.62Y-52.345
X113.62Y-53.615
X113.62Y-63.235
X113.62Y-64.505
X113.62Y-74.125
X113.62Y-75.395
X113.62Y-85.015
X113.62Y-86.285
X113.62Y-95.905
X113.62Y-97.175
X115.297Y-30.565
X115.297Y-31.835
X115.297Y-41.455
X115.297Y-42.725
X115.297Y-52.345
X115.297Y-53.615
X115.297Y-63.235
X115.297Y-64.505
X115.297Y-74.125
X115.297Y-75.395
X115.297Y-85.015
X115.297Y-86.285
X115.297Y-95.905
X115.297Y-97.175
X117.125Y-30.007
X117.125Y-32.394
X117.125Y-40.897
X117.125Y-43.284
X117.125Y-51.787
X117.125Y-54.174
X117.125Y-62.677
X117.125Y-65.064
X117.125Y-73.567
X117.125Y-75.954
X117.125Y-84.457
X117.125Y-86.844
X117.125Y-95.347
X117.125Y-97.734
X125.323Y-30.565
X125.323Y-31.835
X125.323Y-41.455
X125.323Y-42.725
X125.323Y-52.345
X125.323Y-53.615
X125.323Y-63.235
X125.323Y-64.505
X125.323Y-74.125
X125.323Y-75.395
X125.323Y-85.015
X125.323Y-86.285
X125.323Y-95.905
X125.323Y-97.175
X126.999Y-30.565
X126.999Y-31.835
X126.999Y-41.455
X126.999Y-42.725
X126.999Y-52.345
X126.999Y-53.615
X126.999Y-63.235
X126.999Y-64.505
X126.999Y-74.125
X126.999Y-75.395
X126.999Y-85.015
X126.999Y-86.285
X126.999Y-95.905
X126.999Y-97.175
X128.828Y-30.007
X128.828Y-32.394
X128.828Y-40.897
X128.828Y-43.284
X128.828Y-51.787
X128.828Y-54.174
X128.828Y-62.677
X128.828Y-65.064
X128.828Y-73.567
X128.828Y-75.954
X128.828Y-84.457
X128.828Y-86.844
X128.828Y-95.347
X128.828Y-97.734
X137.026Y-30.565
X137.026Y-31.835
X137.026Y-41.455
X137.026Y-42.725
X137.026Y-52.345
X137.026Y-53.615
X137.026Y-63.235
X137.026Y-64.505
X137.026Y-74.125
X137.026Y-75.395
X137.026Y-85.015
X137.026Y-86.285
X137.026Y-95.905
X137.026Y-97.175
X138.702Y-30.565
X138.702Y-31.835
X138.702Y-41.455
X138.702Y-42.725
X138.702Y-52.345
X138.702Y-53.615
X138.702Y-63.235
X138.702Y-64.505
X138.702Y-74.125
X138.702Y-75.395
X138.702Y-85.015
X138.702Y-86.285
X138.702Y-95.905
X138.702Y-97.175
X140.531Y-30.007
X140.531Y-32.394
X140.531Y-40.897
X140.531Y-43.284
X140.531Y-51.787
X140.531Y-54.174
X140.531Y-62.677
X140.531Y-65.064
X140.531Y-73.567
X140.531Y-75.954
X140.531Y-84.457
X140.531Y-86.844
X140.531Y-95.347
X140.531Y-97.734
X148.729Y-30.565
X148.729Y-31.835
X148.729Y-41.455
X148.729Y-42.725
X148.729Y-52.345
X148.729Y-53.615
X148.729Y-63.235
X148.729Y-64.505
X148.729Y-74.125
X148.729Y-75.395
X148.729Y-85.015
X148.729Y-86.285
X148.729Y-95.905
X148.729Y-97.175
X150.405Y-30.565
X150.405Y-31.835
X150.405Y-41.455
X150.405Y-42.725
X150.405Y-52.345
X150.405Y-53.615
X150.405Y-63.235
X150.405Y-64.505
X150.405Y-74.125
X150.405Y-75.395
X150.405Y-85.015
X150.405Y-86.285
X150.405Y-95.905
X150.405Y-97.175
X152.234Y-30.007
X152.234Y-32.394
X152.234Y-40.897
X152.234Y-43.284
X152.234Y-51.787
X152.234Y-54.174
X152.234Y-62.677
X152.234Y-65.064
X152.234Y-73.567
X152.234Y-75.954
X152.234Y-84.457
X152.234Y-86.844
X152.234Y-95.347
X152.234Y-97.734
X160.431Y-30.565
X160.431Y-31.835
X160.431Y-41.455
X160.431Y-42.725
X160.431Y-52.345
X160.431Y-53.615
X160.431Y-63.235
X160.431Y-64.505
X160.431Y-74.125
X160.431Y-75.395
X160.431Y-85.015
X160.431Y-86.285
X160.431Y-95.905
X160.431Y-97.175
X162.108Y-30.565
X162.108Y-31.835
X162.108Y-41.455
X162.108Y-42.725
X162.108Y-52.345
X162.108Y-53.615
X162.108Y-63.235
X162.108Y-64.505
X162.108Y-74.125
X162.108Y-75.395
X162.108Y-85.015
X162.108Y-86.285
X162.108Y-95.905
X162.108Y-97.175
X163.937Y-30.007
X163.937Y-32.394
X163.937Y-40.897
X163.937Y-43.284
X163.937Y-51.787
X163.937Y-54.174
X163.937Y-62.677
X163.937Y-65.064
X163.937Y-73.567
X163.937Y-75.954
X163.937Y-84.457
X163.937Y-86.844
X163.937Y-95.347
X163.937Y-97.734
X172.134Y-30.565
X172.134Y-31.835
X172.134Y-41.455
X172.134Y-42.725
X172.134Y-52.345
X172.134Y-53.615
X172.134Y-63.235
X172.134Y-64.505
X172.134Y-74.125
X172.134Y-75.395
X172.134Y-85.015
X172.134Y-86.285
X172.134Y-95.905
X172.134Y-97.175
X173.811Y-30.565
X173.811Y-31.835
X173.811Y-41.455
X173.811Y-42.725
X173.811Y-52.345
X173.811Y-53.615
X173.811Y-63.235
X173.811Y-64.505
X173.811Y-74.125
X173.811Y-75.395
X173.811Y-85.015
X173.811Y-86.285
X173.811Y-95.905
X173.811Y-97.175
X175.639Y-30.007
X175.639Y-32.394
X175.639Y-40.897
X175.639Y-43.284
X175.639Y-51.787
X175.639Y-54.174
X175.639Y-62.677
X175.639Y-65.064
X175.639Y-73.567
X175.639Y-75.954
X175.639Y-84.457
X175.639Y-86.844
X175.639Y-95.347
X175.639Y-97.734
X183.837Y-30.565
X183.837Y-31.835
X183.837Y-41.455
X183.837Y-42.725
X183.837Y-52.345
X183.837Y-53.615
X183.837Y-63.235
X183.837Y-64.505
X183.837Y-74.125
X183.837Y-75.395
X183.837Y-85.015
X183.837Y-86.285
X183.837Y-95.905
X183.837Y-97.175
X185.513Y-30.565
X185.513Y-31.835
X185.513Y-41.455
X185.513Y-42.725
X185.513Y-52.345
X185.513Y-53.615
X185.513Y-63.235
X185.513Y-64.505
X185.513Y-74.125
X185.513Y-75.395
X185.513Y-85.015
X185.513Y-86.285
X185.513Y-95.905
X185.513Y-97.175
X187.342Y-30.007
X187.342Y-32.394
X187.342Y-40.897
X187.342Y-43.284
X187.342Y-51.787
X187.342Y-54.174
X187.342Y-62.677
X187.342Y-65.064
X187.342Y-73.567
X187.342Y-75.954
X187.342Y-84.457
X187.342Y-86.844
X187.342Y-95.347
X187.342Y-97.734
T2
X109.912Y-35.493
X109.912Y-46.383
X109.912Y-57.273
X109.912Y-68.163
X109.912Y-79.053
X109.912Y-89.943
X109.912Y-100.833
X112.452Y-35.493
X112.452Y-46.383
X112.452Y-57.273
X112.452Y-68.163
X112.452Y-79.053
X112.452Y-89.943
X112.452Y-100.833
X114.992Y-35.493
X114.992Y-46.383
X114.992Y-57.273
X114.992Y-68.163
X114.992Y-79.053
X114.992Y-89.943
X114.992Y-100.833
X121.615Y-35.493
X121.615Y-46.383
X121.615Y-57.273
X121.615Y-68.163
X121.615Y-79.053
X121.615Y-89.943
X121.615Y-100.833
X124.155Y-35.493
X124.155Y-46.383
X124.155Y-57.273
X124.155Y-68.163
X124.155Y-79.053
X124.155Y-89.943
X124.155Y-100.833
X126.695Y-35.493
X126.695Y-46.383
X126.695Y-57.273
X126.695Y-68.163
X126.695Y-79.053
X126.695Y-89.943
X126.695Y-100.833
X133.317Y-35.493
X133.317Y-46.383
X133.317Y-57.273
X133.317Y-68.163
X133.317Y-79.053
X133.317Y-89.943
X133.317Y-100.833
X135.857Y-35.493
X135.857Y-46.383
X135.857Y-57.273
X135.857Y-68.163
X135.857Y-79.053
X135.857Y-89.943
X135.857Y-100.833
X138.397Y-35.493
X138.397Y-46.383
X138.397Y-57.273
X138.397Y-68.163
X138.397Y-79.053
X138.397Y-89.943
X138.397Y-100.833
X145.02Y-35.493
X145.02Y-46.383
X145.02Y-57.273
X145.02Y-68.163
X145.02Y-79.053
X145.02Y-89.943
X145.02Y-100.833
X147.56Y-35.493
X147.56Y-46.383
X147.56Y-57.273
X147.56Y-68.163
X147.56Y-79.053
X147.56Y-89.943
X147.56Y-100.833
X150.1Y-35.493
X150.1Y-46.383
X150.1Y-57.273
X150.1Y-68.163
X150.1Y-79.053
X150.1Y-89.943
X150.1Y-100.833
X156.723Y-35.493
X156.723Y-46.383
X156.723Y-57.273
X156.723Y-68.163
X156.723Y-79.053
X156.723Y-89.943
X156.723Y-100.833
X159.263Y-35.493
X159.263Y-46.383
X159.263Y-57.273
X159.263Y-68.163
X159.263Y-79.053
X159.263Y-89.943
X159.263Y-100.833
X161.803Y-35.493
X161.803Y-46.383
X161.803Y-57.273
X161.803Y-68.163
X161.803Y-79.053
X161.803Y-89.943
X161.803Y-100.833
X168.426Y-35.493
X168.426Y-46.383
X168.426Y-57.273
X168.426Y-68.163
X168.426Y-79.053
X168.426Y-89.943
X168.426Y-100.833
X170.966Y-35.493
X170.966Y-46.383
X170.966Y-57.273
X170.966Y-68.163
X170.966Y-79.053
X170.966Y-89.943
X170.966Y-100.833
X173.506Y-35.493
X173.506Y-46.383
X173.506Y-57.273
X173.506Y-68.163
X173.506Y-79.053
X173.506Y-89.943
X173.506Y-100.833
X180.129Y-35.493
X180.129Y-46.383
X180.129Y-57.273
X180.129Y-68.163
X180.129Y-79.053
X180.129Y-89.943
X180.129Y-100.833
X182.669Y-35.493
X182.669Y-46.383
X182.669Y-57.273
X182.669Y-68.163
X182.669Y-79.053
X182.669Y-89.943
X182.669Y-100.833
X185.209Y-35.493
X185.209Y-46.383
X185.209Y-57.273
X185.209Y-68.163
X185.209Y-79.053
X185.209Y-89.943
X185.209Y-100.833
M30
