%TF.GenerationSoftware,KiCad,Pcbnew,9.0.7*%
%TF.CreationDate,2026-02-17T21:11:05-08:00*%
%TF.ProjectId,qfn-20-breakout,71666e2d-3230-42d6-9272-65616b6f7574,rev?*%
%TF.SameCoordinates,Original*%
%TF.FileFunction,Copper,L2,Bot*%
%TF.FilePolarity,Positive*%
%FSLAX46Y46*%
G04 Gerber Fmt 4.6, Leading zero omitted, Abs format (unit mm)*
G04 Created by KiCad (PCBNEW 9.0.7) date 2026-02-17 21:11:05*
%MOMM*%
%LPD*%
G01*
G04 APERTURE LIST*
%TA.AperFunction,ComponentPad*%
%ADD10C,1.500000*%
%TD*%
%TA.AperFunction,ComponentPad*%
%ADD11R,1.700000X1.700000*%
%TD*%
%TA.AperFunction,ComponentPad*%
%ADD12C,1.700000*%
%TD*%
%TA.AperFunction,ViaPad*%
%ADD13C,0.800000*%
%TD*%
%TA.AperFunction,ViaPad*%
%ADD14C,0.508000*%
%TD*%
%TA.AperFunction,Conductor*%
%ADD15C,0.250000*%
%TD*%
G04 APERTURE END LIST*
D10*
%TO.P,J3,1,Pin_1*%
%TO.N,GND*%
X103844500Y-112693500D03*
%TD*%
D11*
%TO.P,J2,1,Pin_1*%
%TO.N,Net-(J2-Pin_1)*%
X81356100Y-107536300D03*
D12*
%TO.P,J2,2,Pin_2*%
%TO.N,Net-(J2-Pin_2)*%
X83896100Y-107536300D03*
%TO.P,J2,3,Pin_3*%
%TO.N,Net-(J2-Pin_3)*%
X86436100Y-107536300D03*
%TO.P,J2,4,Pin_4*%
%TO.N,Net-(J2-Pin_4)*%
X88976100Y-107536300D03*
%TO.P,J2,5,Pin_5*%
%TO.N,Net-(J2-Pin_5)*%
X91516100Y-107536300D03*
%TO.P,J2,6,Pin_6*%
%TO.N,Net-(J2-Pin_6)*%
X94056100Y-107536300D03*
%TO.P,J2,7,Pin_7*%
%TO.N,Net-(J2-Pin_7)*%
X96596100Y-107536300D03*
%TO.P,J2,8,Pin_8*%
%TO.N,Net-(J2-Pin_8)*%
X99136100Y-107536300D03*
%TO.P,J2,9,Pin_9*%
%TO.N,Net-(J2-Pin_9)*%
X101676100Y-107536300D03*
%TO.P,J2,10,Pin_10*%
%TO.N,Net-(J2-Pin_10)*%
X104216100Y-107536300D03*
%TD*%
D11*
%TO.P,J1,1,Pin_1*%
%TO.N,Net-(J1-Pin_1)*%
X81356100Y-117696300D03*
D12*
%TO.P,J1,2,Pin_2*%
%TO.N,Net-(J1-Pin_2)*%
X83896100Y-117696300D03*
%TO.P,J1,3,Pin_3*%
%TO.N,Net-(J1-Pin_3)*%
X86436100Y-117696300D03*
%TO.P,J1,4,Pin_4*%
%TO.N,Net-(J1-Pin_4)*%
X88976100Y-117696300D03*
%TO.P,J1,5,Pin_5*%
%TO.N,Net-(J1-Pin_5)*%
X91516100Y-117696300D03*
%TO.P,J1,6,Pin_6*%
%TO.N,Net-(J1-Pin_6)*%
X94056100Y-117696300D03*
%TO.P,J1,7,Pin_7*%
%TO.N,Net-(J1-Pin_7)*%
X96596100Y-117696300D03*
%TO.P,J1,8,Pin_8*%
%TO.N,Net-(J1-Pin_8)*%
X99136100Y-117696300D03*
%TO.P,J1,9,Pin_9*%
%TO.N,Net-(J1-Pin_9)*%
X101676100Y-117696300D03*
%TO.P,J1,10,Pin_10*%
%TO.N,Net-(J1-Pin_10)*%
X104216100Y-117696300D03*
%TD*%
D13*
%TO.N,Net-(J1-Pin_3)*%
X73660000Y-117348000D03*
%TO.N,Net-(J1-Pin_4)*%
X74444500Y-116593500D03*
%TO.N,Net-(J1-Pin_5)*%
X76330000Y-116485000D03*
%TO.N,Net-(J2-Pin_3)*%
X73432500Y-108312599D03*
%TO.N,Net-(J2-Pin_5)*%
X76244500Y-108768500D03*
%TO.N,Net-(J2-Pin_4)*%
X74844500Y-108493500D03*
D14*
%TO.N,GND*%
X75786531Y-112680100D03*
D13*
X80070000Y-112660000D03*
%TD*%
D15*
%TO.N,Net-(J1-Pin_3)*%
X78180190Y-117720000D02*
X80304690Y-115595500D01*
X86436100Y-116485100D02*
X86436100Y-117696300D01*
X73660000Y-117348000D02*
X74032000Y-117720000D01*
X80304690Y-115595500D02*
X85546500Y-115595500D01*
X75819000Y-117720000D02*
X78180190Y-117720000D01*
X85546500Y-115595500D02*
X86436100Y-116485100D01*
X74032000Y-117720000D02*
X75819000Y-117720000D01*
%TO.N,Net-(J1-Pin_4)*%
X78028000Y-117210000D02*
X80093500Y-115144500D01*
X74444500Y-116834500D02*
X74820000Y-117210000D01*
X80093500Y-115144500D02*
X87795500Y-115144500D01*
X74820000Y-117210000D02*
X78028000Y-117210000D01*
X88976100Y-116325100D02*
X88976100Y-117696300D01*
X74444500Y-116593500D02*
X74444500Y-116834500D01*
X87795500Y-115144500D02*
X88976100Y-116325100D01*
%TO.N,Net-(J1-Pin_5)*%
X91516100Y-116293500D02*
X91516100Y-117696300D01*
X76330000Y-116485000D02*
X77855000Y-116485000D01*
X79644500Y-114695500D02*
X79644500Y-114693500D01*
X79644500Y-114693500D02*
X89916100Y-114693500D01*
X89916100Y-114693500D02*
X91516100Y-116293500D01*
X77855000Y-116485000D02*
X79644500Y-114695500D01*
%TO.N,Net-(J2-Pin_3)*%
X86436100Y-107536300D02*
X86436100Y-108901900D01*
X74151600Y-107593500D02*
X73432500Y-108312599D01*
X79142500Y-109791500D02*
X76943500Y-107592500D01*
X86436100Y-108901900D02*
X85546500Y-109791500D01*
X75107690Y-107592500D02*
X75106690Y-107593500D01*
X85546500Y-109791500D02*
X79142500Y-109791500D01*
X76943500Y-107592500D02*
X75107690Y-107592500D01*
X75106690Y-107593500D02*
X74151600Y-107593500D01*
%TO.N,Net-(J2-Pin_5)*%
X76244500Y-108768500D02*
X76832690Y-108768500D01*
X76832690Y-108768500D02*
X78757690Y-110693500D01*
X91516100Y-109121900D02*
X89944500Y-110693500D01*
X78757690Y-110693500D02*
X89944500Y-110693500D01*
X91516100Y-107536300D02*
X91516100Y-109121900D01*
%TO.N,Net-(J2-Pin_4)*%
X78944500Y-110242500D02*
X76745500Y-108043500D01*
X75294500Y-108043500D02*
X74844500Y-108493500D01*
X88976100Y-107536300D02*
X88976100Y-109261900D01*
X87995500Y-110242500D02*
X78944500Y-110242500D01*
X88976100Y-109261900D02*
X87995500Y-110242500D01*
X76745500Y-108043500D02*
X75294500Y-108043500D01*
%TD*%
%TA.AperFunction,Conductor*%
%TO.N,GND*%
G36*
X80198639Y-106649385D02*
G01*
X80244394Y-106702189D01*
X80255600Y-106753700D01*
X80255600Y-108410978D01*
X80270132Y-108484035D01*
X80270133Y-108484039D01*
X80270134Y-108484040D01*
X80325499Y-108566901D01*
X80402562Y-108618392D01*
X80408360Y-108622266D01*
X80408364Y-108622267D01*
X80481421Y-108636799D01*
X80481424Y-108636800D01*
X80481426Y-108636800D01*
X82230776Y-108636800D01*
X82230777Y-108636799D01*
X82303840Y-108622266D01*
X82386701Y-108566901D01*
X82442066Y-108484040D01*
X82456600Y-108410974D01*
X82456600Y-106753700D01*
X82476285Y-106686661D01*
X82529089Y-106640906D01*
X82580600Y-106629700D01*
X82951127Y-106629700D01*
X83018166Y-106649385D01*
X83063921Y-106702189D01*
X83073865Y-106771347D01*
X83051445Y-106826586D01*
X82954868Y-106959511D01*
X82876228Y-107113852D01*
X82822697Y-107278602D01*
X82818313Y-107306285D01*
X82795600Y-107449689D01*
X82795600Y-107622911D01*
X82822698Y-107794001D01*
X82876227Y-107958745D01*
X82954868Y-108113088D01*
X83056686Y-108253228D01*
X83179172Y-108375714D01*
X83319312Y-108477532D01*
X83473655Y-108556173D01*
X83638399Y-108609702D01*
X83809489Y-108636800D01*
X83809490Y-108636800D01*
X83982710Y-108636800D01*
X83982711Y-108636800D01*
X84153801Y-108609702D01*
X84318545Y-108556173D01*
X84472888Y-108477532D01*
X84613028Y-108375714D01*
X84735514Y-108253228D01*
X84837332Y-108113088D01*
X84915973Y-107958745D01*
X84969502Y-107794001D01*
X84996600Y-107622911D01*
X84996600Y-107449689D01*
X84969502Y-107278599D01*
X84915973Y-107113855D01*
X84837332Y-106959512D01*
X84740754Y-106826585D01*
X84717275Y-106760779D01*
X84733100Y-106692725D01*
X84783206Y-106644030D01*
X84841073Y-106629700D01*
X85491127Y-106629700D01*
X85558166Y-106649385D01*
X85603921Y-106702189D01*
X85613865Y-106771347D01*
X85591445Y-106826586D01*
X85494868Y-106959511D01*
X85416228Y-107113852D01*
X85362697Y-107278602D01*
X85358313Y-107306285D01*
X85335600Y-107449689D01*
X85335600Y-107622911D01*
X85362698Y-107794001D01*
X85416227Y-107958745D01*
X85494868Y-108113088D01*
X85596686Y-108253228D01*
X85719172Y-108375714D01*
X85767706Y-108410976D01*
X85859313Y-108477533D01*
X85992894Y-108545595D01*
X86003958Y-108556044D01*
X86017803Y-108562367D01*
X86028843Y-108579546D01*
X86043691Y-108593569D01*
X86047932Y-108609250D01*
X86055577Y-108621145D01*
X86060600Y-108656080D01*
X86060600Y-108695001D01*
X86040915Y-108762040D01*
X86024281Y-108782682D01*
X85427282Y-109379681D01*
X85365959Y-109413166D01*
X85339601Y-109416000D01*
X79349400Y-109416000D01*
X79282361Y-109396315D01*
X79261719Y-109379681D01*
X77188322Y-107306285D01*
X77174063Y-107292026D01*
X77174062Y-107292025D01*
X77088438Y-107242590D01*
X77040686Y-107229795D01*
X77028599Y-107226556D01*
X77028595Y-107226554D01*
X76992936Y-107217000D01*
X76992935Y-107217000D01*
X75157126Y-107217000D01*
X75058254Y-107217000D01*
X75057788Y-107217000D01*
X75042532Y-107218000D01*
X74102164Y-107218000D01*
X74054412Y-107230795D01*
X74054411Y-107230794D01*
X74006663Y-107243589D01*
X74006662Y-107243589D01*
X73946475Y-107278338D01*
X73921038Y-107293025D01*
X73921037Y-107293026D01*
X73588279Y-107625781D01*
X73526958Y-107659265D01*
X73500600Y-107662099D01*
X73368429Y-107662099D01*
X73242761Y-107687096D01*
X73242755Y-107687098D01*
X73124375Y-107736132D01*
X73124366Y-107736137D01*
X73017831Y-107807322D01*
X73017827Y-107807325D01*
X72927226Y-107897926D01*
X72927223Y-107897930D01*
X72856038Y-108004465D01*
X72856033Y-108004474D01*
X72806999Y-108122854D01*
X72806997Y-108122860D01*
X72782000Y-108248527D01*
X72782000Y-108248530D01*
X72782000Y-108376668D01*
X72782000Y-108376670D01*
X72781999Y-108376670D01*
X72806997Y-108502337D01*
X72806999Y-108502343D01*
X72856033Y-108620723D01*
X72856038Y-108620732D01*
X72927223Y-108727267D01*
X72927226Y-108727271D01*
X73017827Y-108817872D01*
X73017831Y-108817875D01*
X73124366Y-108889060D01*
X73124372Y-108889063D01*
X73124373Y-108889064D01*
X73242756Y-108938100D01*
X73242760Y-108938100D01*
X73242761Y-108938101D01*
X73368428Y-108963099D01*
X73368431Y-108963099D01*
X73496571Y-108963099D01*
X73581115Y-108946281D01*
X73622244Y-108938100D01*
X73740627Y-108889064D01*
X73847169Y-108817875D01*
X73937776Y-108727268D01*
X73994917Y-108641749D01*
X74048528Y-108596945D01*
X74117853Y-108588238D01*
X74180881Y-108618392D01*
X74217601Y-108677835D01*
X74218456Y-108681455D01*
X74218999Y-108683244D01*
X74268033Y-108801624D01*
X74268038Y-108801633D01*
X74339223Y-108908168D01*
X74339226Y-108908172D01*
X74429827Y-108998773D01*
X74429831Y-108998776D01*
X74536366Y-109069961D01*
X74536372Y-109069964D01*
X74536373Y-109069965D01*
X74654756Y-109119001D01*
X74654760Y-109119001D01*
X74654761Y-109119002D01*
X74780428Y-109144000D01*
X74780431Y-109144000D01*
X74908571Y-109144000D01*
X75018971Y-109122039D01*
X75034244Y-109119001D01*
X75152627Y-109069965D01*
X75259169Y-108998776D01*
X75349776Y-108908169D01*
X75383246Y-108858076D01*
X75436857Y-108813273D01*
X75506182Y-108804564D01*
X75569210Y-108834719D01*
X75605929Y-108894161D01*
X75607965Y-108902776D01*
X75618997Y-108958238D01*
X75618999Y-108958244D01*
X75668033Y-109076624D01*
X75668038Y-109076633D01*
X75739223Y-109183168D01*
X75739226Y-109183172D01*
X75829827Y-109273773D01*
X75829831Y-109273776D01*
X75936366Y-109344961D01*
X75936375Y-109344966D01*
X75963192Y-109356074D01*
X76054756Y-109394001D01*
X76054760Y-109394001D01*
X76054761Y-109394002D01*
X76180428Y-109419000D01*
X76180431Y-109419000D01*
X76308571Y-109419000D01*
X76393115Y-109402182D01*
X76434244Y-109394001D01*
X76552627Y-109344965D01*
X76552633Y-109344961D01*
X76663131Y-109271129D01*
X76729809Y-109250251D01*
X76797189Y-109268735D01*
X76819703Y-109286550D01*
X78457215Y-110924062D01*
X78527128Y-110993975D01*
X78612749Y-111043408D01*
X78612752Y-111043410D01*
X78660501Y-111056205D01*
X78660502Y-111056205D01*
X78670593Y-111058908D01*
X78708254Y-111069000D01*
X78708255Y-111069000D01*
X78708256Y-111069000D01*
X89993935Y-111069000D01*
X89993936Y-111069000D01*
X90041686Y-111056205D01*
X90089438Y-111043410D01*
X90175062Y-110993975D01*
X90244975Y-110924062D01*
X91816574Y-109352463D01*
X91840319Y-109311336D01*
X91866010Y-109266838D01*
X91878828Y-109219000D01*
X91891600Y-109171336D01*
X91891600Y-109072464D01*
X91891600Y-108656080D01*
X91911285Y-108589041D01*
X91959306Y-108545595D01*
X92092886Y-108477533D01*
X92092885Y-108477533D01*
X92092888Y-108477532D01*
X92233028Y-108375714D01*
X92355514Y-108253228D01*
X92457332Y-108113088D01*
X92535973Y-107958745D01*
X92589502Y-107794001D01*
X92616600Y-107622911D01*
X92616600Y-107449689D01*
X92589502Y-107278599D01*
X92535973Y-107113855D01*
X92457332Y-106959512D01*
X92360754Y-106826585D01*
X92337275Y-106760779D01*
X92353100Y-106692725D01*
X92403206Y-106644030D01*
X92461073Y-106629700D01*
X93111127Y-106629700D01*
X93178166Y-106649385D01*
X93223921Y-106702189D01*
X93233865Y-106771347D01*
X93211445Y-106826586D01*
X93114868Y-106959511D01*
X93036228Y-107113852D01*
X92982697Y-107278602D01*
X92978313Y-107306285D01*
X92955600Y-107449689D01*
X92955600Y-107622911D01*
X92982698Y-107794001D01*
X93036227Y-107958745D01*
X93114868Y-108113088D01*
X93216686Y-108253228D01*
X93339172Y-108375714D01*
X93479312Y-108477532D01*
X93633655Y-108556173D01*
X93798399Y-108609702D01*
X93969489Y-108636800D01*
X93969490Y-108636800D01*
X94142710Y-108636800D01*
X94142711Y-108636800D01*
X94313801Y-108609702D01*
X94478545Y-108556173D01*
X94632888Y-108477532D01*
X94773028Y-108375714D01*
X94895514Y-108253228D01*
X94997332Y-108113088D01*
X95075973Y-107958745D01*
X95129502Y-107794001D01*
X95156600Y-107622911D01*
X95156600Y-107449689D01*
X95129502Y-107278599D01*
X95075973Y-107113855D01*
X94997332Y-106959512D01*
X94900754Y-106826585D01*
X94877275Y-106760779D01*
X94893100Y-106692725D01*
X94943206Y-106644030D01*
X95001073Y-106629700D01*
X95651127Y-106629700D01*
X95718166Y-106649385D01*
X95763921Y-106702189D01*
X95773865Y-106771347D01*
X95751445Y-106826586D01*
X95654868Y-106959511D01*
X95576228Y-107113852D01*
X95522697Y-107278602D01*
X95518313Y-107306285D01*
X95495600Y-107449689D01*
X95495600Y-107622911D01*
X95522698Y-107794001D01*
X95576227Y-107958745D01*
X95654868Y-108113088D01*
X95756686Y-108253228D01*
X95879172Y-108375714D01*
X96019312Y-108477532D01*
X96173655Y-108556173D01*
X96338399Y-108609702D01*
X96509489Y-108636800D01*
X96509490Y-108636800D01*
X96682710Y-108636800D01*
X96682711Y-108636800D01*
X96853801Y-108609702D01*
X97018545Y-108556173D01*
X97172888Y-108477532D01*
X97313028Y-108375714D01*
X97435514Y-108253228D01*
X97537332Y-108113088D01*
X97615973Y-107958745D01*
X97669502Y-107794001D01*
X97696600Y-107622911D01*
X97696600Y-107449689D01*
X97669502Y-107278599D01*
X97615973Y-107113855D01*
X97537332Y-106959512D01*
X97440754Y-106826585D01*
X97417275Y-106760779D01*
X97433100Y-106692725D01*
X97483206Y-106644030D01*
X97541073Y-106629700D01*
X98191127Y-106629700D01*
X98258166Y-106649385D01*
X98303921Y-106702189D01*
X98313865Y-106771347D01*
X98291445Y-106826586D01*
X98194868Y-106959511D01*
X98116228Y-107113852D01*
X98062697Y-107278602D01*
X98058313Y-107306285D01*
X98035600Y-107449689D01*
X98035600Y-107622911D01*
X98062698Y-107794001D01*
X98116227Y-107958745D01*
X98194868Y-108113088D01*
X98296686Y-108253228D01*
X98419172Y-108375714D01*
X98559312Y-108477532D01*
X98713655Y-108556173D01*
X98878399Y-108609702D01*
X99049489Y-108636800D01*
X99049490Y-108636800D01*
X99222710Y-108636800D01*
X99222711Y-108636800D01*
X99393801Y-108609702D01*
X99558545Y-108556173D01*
X99712888Y-108477532D01*
X99853028Y-108375714D01*
X99975514Y-108253228D01*
X100077332Y-108113088D01*
X100155973Y-107958745D01*
X100209502Y-107794001D01*
X100236600Y-107622911D01*
X100236600Y-107449689D01*
X100209502Y-107278599D01*
X100155973Y-107113855D01*
X100077332Y-106959512D01*
X99980754Y-106826585D01*
X99957275Y-106760779D01*
X99973100Y-106692725D01*
X100023206Y-106644030D01*
X100081073Y-106629700D01*
X100731127Y-106629700D01*
X100798166Y-106649385D01*
X100843921Y-106702189D01*
X100853865Y-106771347D01*
X100831445Y-106826586D01*
X100734868Y-106959511D01*
X100656228Y-107113852D01*
X100602697Y-107278602D01*
X100598313Y-107306285D01*
X100575600Y-107449689D01*
X100575600Y-107622911D01*
X100602698Y-107794001D01*
X100656227Y-107958745D01*
X100734868Y-108113088D01*
X100836686Y-108253228D01*
X100959172Y-108375714D01*
X101099312Y-108477532D01*
X101253655Y-108556173D01*
X101418399Y-108609702D01*
X101589489Y-108636800D01*
X101589490Y-108636800D01*
X101762710Y-108636800D01*
X101762711Y-108636800D01*
X101933801Y-108609702D01*
X102098545Y-108556173D01*
X102252888Y-108477532D01*
X102393028Y-108375714D01*
X102515514Y-108253228D01*
X102617332Y-108113088D01*
X102695973Y-107958745D01*
X102749502Y-107794001D01*
X102776600Y-107622911D01*
X102776600Y-107449689D01*
X102749502Y-107278599D01*
X102695973Y-107113855D01*
X102617332Y-106959512D01*
X102520754Y-106826585D01*
X102497275Y-106760779D01*
X102513100Y-106692725D01*
X102563206Y-106644030D01*
X102621073Y-106629700D01*
X103271127Y-106629700D01*
X103338166Y-106649385D01*
X103383921Y-106702189D01*
X103393865Y-106771347D01*
X103371445Y-106826586D01*
X103274868Y-106959511D01*
X103196228Y-107113852D01*
X103142697Y-107278602D01*
X103138313Y-107306285D01*
X103115600Y-107449689D01*
X103115600Y-107622911D01*
X103142698Y-107794001D01*
X103196227Y-107958745D01*
X103274868Y-108113088D01*
X103376686Y-108253228D01*
X103499172Y-108375714D01*
X103639312Y-108477532D01*
X103793655Y-108556173D01*
X103958399Y-108609702D01*
X104129489Y-108636800D01*
X104129490Y-108636800D01*
X104302710Y-108636800D01*
X104302711Y-108636800D01*
X104473801Y-108609702D01*
X104638545Y-108556173D01*
X104792888Y-108477532D01*
X104933028Y-108375714D01*
X104969319Y-108339423D01*
X105030642Y-108305938D01*
X105100334Y-108310922D01*
X105156267Y-108352794D01*
X105180684Y-108418258D01*
X105181000Y-108427104D01*
X105181000Y-116805496D01*
X105161315Y-116872535D01*
X105108511Y-116918290D01*
X105039353Y-116928234D01*
X104975797Y-116899209D01*
X104969319Y-116893177D01*
X104933030Y-116856888D01*
X104933028Y-116856886D01*
X104792888Y-116755068D01*
X104638545Y-116676427D01*
X104473801Y-116622898D01*
X104473799Y-116622897D01*
X104473798Y-116622897D01*
X104342371Y-116602081D01*
X104302711Y-116595800D01*
X104129489Y-116595800D01*
X104089828Y-116602081D01*
X103958402Y-116622897D01*
X103908753Y-116639029D01*
X103851694Y-116657569D01*
X103793652Y-116676428D01*
X103639311Y-116755068D01*
X103600531Y-116783244D01*
X103499172Y-116856886D01*
X103499170Y-116856888D01*
X103499169Y-116856888D01*
X103376688Y-116979369D01*
X103376688Y-116979370D01*
X103376686Y-116979372D01*
X103332959Y-117039556D01*
X103274868Y-117119511D01*
X103196228Y-117273852D01*
X103142697Y-117438602D01*
X103126996Y-117537738D01*
X103115600Y-117609689D01*
X103115600Y-117782911D01*
X103142698Y-117954001D01*
X103196227Y-118118745D01*
X103274868Y-118273088D01*
X103376686Y-118413228D01*
X103376688Y-118413230D01*
X103470877Y-118507419D01*
X103504362Y-118568742D01*
X103499378Y-118638434D01*
X103457506Y-118694367D01*
X103392042Y-118718784D01*
X103383196Y-118719100D01*
X102509004Y-118719100D01*
X102441965Y-118699415D01*
X102396210Y-118646611D01*
X102386266Y-118577453D01*
X102415291Y-118513897D01*
X102421323Y-118507419D01*
X102515514Y-118413228D01*
X102617332Y-118273088D01*
X102695973Y-118118745D01*
X102749502Y-117954001D01*
X102776600Y-117782911D01*
X102776600Y-117609689D01*
X102749502Y-117438599D01*
X102695973Y-117273855D01*
X102617332Y-117119512D01*
X102515514Y-116979372D01*
X102393028Y-116856886D01*
X102252888Y-116755068D01*
X102098545Y-116676427D01*
X101933801Y-116622898D01*
X101933799Y-116622897D01*
X101933798Y-116622897D01*
X101802371Y-116602081D01*
X101762711Y-116595800D01*
X101589489Y-116595800D01*
X101549828Y-116602081D01*
X101418402Y-116622897D01*
X101368753Y-116639029D01*
X101311694Y-116657569D01*
X101253652Y-116676428D01*
X101099311Y-116755068D01*
X101060531Y-116783244D01*
X100959172Y-116856886D01*
X100959170Y-116856888D01*
X100959169Y-116856888D01*
X100836688Y-116979369D01*
X100836688Y-116979370D01*
X100836686Y-116979372D01*
X100792959Y-117039556D01*
X100734868Y-117119511D01*
X100656228Y-117273852D01*
X100602697Y-117438602D01*
X100586996Y-117537738D01*
X100575600Y-117609689D01*
X100575600Y-117782911D01*
X100602698Y-117954001D01*
X100656227Y-118118745D01*
X100734868Y-118273088D01*
X100836686Y-118413228D01*
X100836688Y-118413230D01*
X100930877Y-118507419D01*
X100964362Y-118568742D01*
X100959378Y-118638434D01*
X100917506Y-118694367D01*
X100852042Y-118718784D01*
X100843196Y-118719100D01*
X99969004Y-118719100D01*
X99901965Y-118699415D01*
X99856210Y-118646611D01*
X99846266Y-118577453D01*
X99875291Y-118513897D01*
X99881323Y-118507419D01*
X99975514Y-118413228D01*
X100077332Y-118273088D01*
X100155973Y-118118745D01*
X100209502Y-117954001D01*
X100236600Y-117782911D01*
X100236600Y-117609689D01*
X100209502Y-117438599D01*
X100155973Y-117273855D01*
X100077332Y-117119512D01*
X99975514Y-116979372D01*
X99853028Y-116856886D01*
X99712888Y-116755068D01*
X99558545Y-116676427D01*
X99393801Y-116622898D01*
X99393799Y-116622897D01*
X99393798Y-116622897D01*
X99262371Y-116602081D01*
X99222711Y-116595800D01*
X99049489Y-116595800D01*
X99009828Y-116602081D01*
X98878402Y-116622897D01*
X98828753Y-116639029D01*
X98771694Y-116657569D01*
X98713652Y-116676428D01*
X98559311Y-116755068D01*
X98520531Y-116783244D01*
X98419172Y-116856886D01*
X98419170Y-116856888D01*
X98419169Y-116856888D01*
X98296688Y-116979369D01*
X98296688Y-116979370D01*
X98296686Y-116979372D01*
X98252959Y-117039556D01*
X98194868Y-117119511D01*
X98116228Y-117273852D01*
X98062697Y-117438602D01*
X98046996Y-117537738D01*
X98035600Y-117609689D01*
X98035600Y-117782911D01*
X98062698Y-117954001D01*
X98116227Y-118118745D01*
X98194868Y-118273088D01*
X98296686Y-118413228D01*
X98296688Y-118413230D01*
X98390877Y-118507419D01*
X98424362Y-118568742D01*
X98419378Y-118638434D01*
X98377506Y-118694367D01*
X98312042Y-118718784D01*
X98303196Y-118719100D01*
X97429004Y-118719100D01*
X97361965Y-118699415D01*
X97316210Y-118646611D01*
X97306266Y-118577453D01*
X97335291Y-118513897D01*
X97341323Y-118507419D01*
X97435514Y-118413228D01*
X97537332Y-118273088D01*
X97615973Y-118118745D01*
X97669502Y-117954001D01*
X97696600Y-117782911D01*
X97696600Y-117609689D01*
X97669502Y-117438599D01*
X97615973Y-117273855D01*
X97537332Y-117119512D01*
X97435514Y-116979372D01*
X97313028Y-116856886D01*
X97172888Y-116755068D01*
X97018545Y-116676427D01*
X96853801Y-116622898D01*
X96853799Y-116622897D01*
X96853798Y-116622897D01*
X96722371Y-116602081D01*
X96682711Y-116595800D01*
X96509489Y-116595800D01*
X96469828Y-116602081D01*
X96338402Y-116622897D01*
X96288753Y-116639029D01*
X96231694Y-116657569D01*
X96173652Y-116676428D01*
X96019311Y-116755068D01*
X95980531Y-116783244D01*
X95879172Y-116856886D01*
X95879170Y-116856888D01*
X95879169Y-116856888D01*
X95756688Y-116979369D01*
X95756688Y-116979370D01*
X95756686Y-116979372D01*
X95712959Y-117039556D01*
X95654868Y-117119511D01*
X95576228Y-117273852D01*
X95522697Y-117438602D01*
X95506996Y-117537738D01*
X95495600Y-117609689D01*
X95495600Y-117782911D01*
X95522698Y-117954001D01*
X95576227Y-118118745D01*
X95654868Y-118273088D01*
X95756686Y-118413228D01*
X95756688Y-118413230D01*
X95850877Y-118507419D01*
X95884362Y-118568742D01*
X95879378Y-118638434D01*
X95837506Y-118694367D01*
X95772042Y-118718784D01*
X95763196Y-118719100D01*
X94889004Y-118719100D01*
X94821965Y-118699415D01*
X94776210Y-118646611D01*
X94766266Y-118577453D01*
X94795291Y-118513897D01*
X94801323Y-118507419D01*
X94895514Y-118413228D01*
X94997332Y-118273088D01*
X95075973Y-118118745D01*
X95129502Y-117954001D01*
X95156600Y-117782911D01*
X95156600Y-117609689D01*
X95129502Y-117438599D01*
X95075973Y-117273855D01*
X94997332Y-117119512D01*
X94895514Y-116979372D01*
X94773028Y-116856886D01*
X94632888Y-116755068D01*
X94478545Y-116676427D01*
X94313801Y-116622898D01*
X94313799Y-116622897D01*
X94313798Y-116622897D01*
X94182371Y-116602081D01*
X94142711Y-116595800D01*
X93969489Y-116595800D01*
X93929828Y-116602081D01*
X93798402Y-116622897D01*
X93748753Y-116639029D01*
X93691694Y-116657569D01*
X93633652Y-116676428D01*
X93479311Y-116755068D01*
X93440531Y-116783244D01*
X93339172Y-116856886D01*
X93339170Y-116856888D01*
X93339169Y-116856888D01*
X93216688Y-116979369D01*
X93216688Y-116979370D01*
X93216686Y-116979372D01*
X93172959Y-117039556D01*
X93114868Y-117119511D01*
X93036228Y-117273852D01*
X92982697Y-117438602D01*
X92966996Y-117537738D01*
X92955600Y-117609689D01*
X92955600Y-117782911D01*
X92982698Y-117954001D01*
X93036227Y-118118745D01*
X93114868Y-118273088D01*
X93216686Y-118413228D01*
X93216688Y-118413230D01*
X93310877Y-118507419D01*
X93344362Y-118568742D01*
X93339378Y-118638434D01*
X93297506Y-118694367D01*
X93232042Y-118718784D01*
X93223196Y-118719100D01*
X92349004Y-118719100D01*
X92281965Y-118699415D01*
X92236210Y-118646611D01*
X92226266Y-118577453D01*
X92255291Y-118513897D01*
X92261323Y-118507419D01*
X92355514Y-118413228D01*
X92457332Y-118273088D01*
X92535973Y-118118745D01*
X92589502Y-117954001D01*
X92616600Y-117782911D01*
X92616600Y-117609689D01*
X92589502Y-117438599D01*
X92535973Y-117273855D01*
X92457332Y-117119512D01*
X92355514Y-116979372D01*
X92233028Y-116856886D01*
X92092888Y-116755068D01*
X92071884Y-116744366D01*
X91959305Y-116687004D01*
X91908509Y-116639029D01*
X91891600Y-116576519D01*
X91891600Y-116244067D01*
X91891599Y-116244063D01*
X91884616Y-116217999D01*
X91866012Y-116148565D01*
X91866011Y-116148564D01*
X91866011Y-116148563D01*
X91831174Y-116088223D01*
X91816577Y-116062940D01*
X91816573Y-116062935D01*
X90160922Y-114407285D01*
X90146663Y-114393026D01*
X90146662Y-114393025D01*
X90061038Y-114343590D01*
X90013286Y-114330795D01*
X90001199Y-114327556D01*
X90001195Y-114327554D01*
X89965536Y-114318000D01*
X89965535Y-114318000D01*
X79693935Y-114318000D01*
X79595065Y-114318000D01*
X79499562Y-114343590D01*
X79499560Y-114343591D01*
X79499559Y-114343591D01*
X79413938Y-114393025D01*
X79344024Y-114462938D01*
X79342371Y-114465093D01*
X79331683Y-114477278D01*
X77735782Y-116073181D01*
X77674459Y-116106666D01*
X77648101Y-116109500D01*
X76925808Y-116109500D01*
X76858769Y-116089815D01*
X76838127Y-116073181D01*
X76744672Y-115979726D01*
X76744668Y-115979723D01*
X76638133Y-115908538D01*
X76638124Y-115908533D01*
X76519744Y-115859499D01*
X76519738Y-115859497D01*
X76394071Y-115834500D01*
X76394069Y-115834500D01*
X76265931Y-115834500D01*
X76265929Y-115834500D01*
X76140261Y-115859497D01*
X76140255Y-115859499D01*
X76021875Y-115908533D01*
X76021866Y-115908538D01*
X75915331Y-115979723D01*
X75915327Y-115979726D01*
X75824726Y-116070327D01*
X75824723Y-116070331D01*
X75753538Y-116176866D01*
X75753533Y-116176875D01*
X75704499Y-116295255D01*
X75704497Y-116295261D01*
X75679500Y-116420928D01*
X75679500Y-116420931D01*
X75679500Y-116549069D01*
X75679500Y-116549071D01*
X75679499Y-116549071D01*
X75705687Y-116680718D01*
X75704482Y-116680957D01*
X75705052Y-116744366D01*
X75667806Y-116803481D01*
X75604514Y-116833075D01*
X75585766Y-116834500D01*
X75210901Y-116834500D01*
X75143862Y-116814815D01*
X75098107Y-116762011D01*
X75088163Y-116692853D01*
X75089284Y-116686309D01*
X75094999Y-116657573D01*
X75095000Y-116657571D01*
X75095000Y-116529428D01*
X75070002Y-116403761D01*
X75070001Y-116403760D01*
X75070001Y-116403756D01*
X75020965Y-116285373D01*
X75020964Y-116285372D01*
X75020961Y-116285366D01*
X74949776Y-116178831D01*
X74949773Y-116178827D01*
X74859172Y-116088226D01*
X74859168Y-116088223D01*
X74752633Y-116017038D01*
X74752624Y-116017033D01*
X74634244Y-115967999D01*
X74634238Y-115967997D01*
X74508571Y-115943000D01*
X74508569Y-115943000D01*
X74380431Y-115943000D01*
X74380429Y-115943000D01*
X74254761Y-115967997D01*
X74254755Y-115967999D01*
X74136375Y-116017033D01*
X74136366Y-116017038D01*
X74029831Y-116088223D01*
X74029827Y-116088226D01*
X73939226Y-116178827D01*
X73939223Y-116178831D01*
X73868038Y-116285366D01*
X73868033Y-116285375D01*
X73818999Y-116403755D01*
X73818997Y-116403761D01*
X73794000Y-116529428D01*
X73794000Y-116573500D01*
X73774315Y-116640539D01*
X73721511Y-116686294D01*
X73670000Y-116697500D01*
X73595929Y-116697500D01*
X73470261Y-116722497D01*
X73470255Y-116722499D01*
X73351875Y-116771533D01*
X73351866Y-116771538D01*
X73245331Y-116842723D01*
X73245327Y-116842726D01*
X73154726Y-116933327D01*
X73154723Y-116933331D01*
X73083538Y-117039866D01*
X73083533Y-117039875D01*
X73034499Y-117158255D01*
X73034497Y-117158261D01*
X73009500Y-117283928D01*
X73009500Y-117283931D01*
X73009500Y-117412069D01*
X73009500Y-117412071D01*
X73009499Y-117412071D01*
X73034497Y-117537738D01*
X73034499Y-117537744D01*
X73083533Y-117656124D01*
X73083538Y-117656133D01*
X73154723Y-117762668D01*
X73154726Y-117762672D01*
X73245327Y-117853273D01*
X73245331Y-117853276D01*
X73351866Y-117924461D01*
X73351872Y-117924464D01*
X73351873Y-117924465D01*
X73470256Y-117973501D01*
X73470260Y-117973501D01*
X73470261Y-117973502D01*
X73595928Y-117998500D01*
X73730161Y-117998500D01*
X73730161Y-118001273D01*
X73787086Y-118012041D01*
X73788383Y-118012714D01*
X73799555Y-118018592D01*
X73801438Y-118020475D01*
X73887062Y-118069910D01*
X73894116Y-118071800D01*
X73982564Y-118095500D01*
X73982565Y-118095500D01*
X73982566Y-118095500D01*
X78229624Y-118095500D01*
X78229626Y-118095500D01*
X78318074Y-118071800D01*
X78318074Y-118071801D01*
X78318079Y-118071798D01*
X78325128Y-118069910D01*
X78410752Y-118020475D01*
X78480665Y-117950562D01*
X78480664Y-117950562D01*
X78539233Y-117891993D01*
X80423909Y-116007319D01*
X80485232Y-115973834D01*
X80511590Y-115971000D01*
X85339601Y-115971000D01*
X85406640Y-115990685D01*
X85427282Y-116007319D01*
X85947780Y-116527817D01*
X85981265Y-116589140D01*
X85976281Y-116658832D01*
X85934409Y-116714765D01*
X85916394Y-116725983D01*
X85859311Y-116755068D01*
X85820531Y-116783244D01*
X85719172Y-116856886D01*
X85719170Y-116856888D01*
X85719169Y-116856888D01*
X85596688Y-116979369D01*
X85596688Y-116979370D01*
X85596686Y-116979372D01*
X85552959Y-117039556D01*
X85494868Y-117119511D01*
X85416228Y-117273852D01*
X85362697Y-117438602D01*
X85346996Y-117537738D01*
X85335600Y-117609689D01*
X85335600Y-117782911D01*
X85362698Y-117954001D01*
X85416227Y-118118745D01*
X85494868Y-118273088D01*
X85596686Y-118413228D01*
X85596688Y-118413230D01*
X85690877Y-118507419D01*
X85724362Y-118568742D01*
X85719378Y-118638434D01*
X85677506Y-118694367D01*
X85612042Y-118718784D01*
X85603196Y-118719100D01*
X84729004Y-118719100D01*
X84661965Y-118699415D01*
X84616210Y-118646611D01*
X84606266Y-118577453D01*
X84635291Y-118513897D01*
X84641323Y-118507419D01*
X84735514Y-118413228D01*
X84837332Y-118273088D01*
X84915973Y-118118745D01*
X84969502Y-117954001D01*
X84996600Y-117782911D01*
X84996600Y-117609689D01*
X84969502Y-117438599D01*
X84915973Y-117273855D01*
X84837332Y-117119512D01*
X84735514Y-116979372D01*
X84613028Y-116856886D01*
X84472888Y-116755068D01*
X84318545Y-116676427D01*
X84153801Y-116622898D01*
X84153799Y-116622897D01*
X84153798Y-116622897D01*
X84022371Y-116602081D01*
X83982711Y-116595800D01*
X83809489Y-116595800D01*
X83769828Y-116602081D01*
X83638402Y-116622897D01*
X83588753Y-116639029D01*
X83531694Y-116657569D01*
X83473652Y-116676428D01*
X83319311Y-116755068D01*
X83280531Y-116783244D01*
X83179172Y-116856886D01*
X83179170Y-116856888D01*
X83179169Y-116856888D01*
X83056688Y-116979369D01*
X83056688Y-116979370D01*
X83056686Y-116979372D01*
X83012959Y-117039556D01*
X82954868Y-117119511D01*
X82876228Y-117273852D01*
X82822697Y-117438602D01*
X82806996Y-117537738D01*
X82795600Y-117609689D01*
X82795600Y-117782911D01*
X82822698Y-117954001D01*
X82876227Y-118118745D01*
X82954868Y-118273088D01*
X83056686Y-118413228D01*
X83056688Y-118413230D01*
X83150877Y-118507419D01*
X83184362Y-118568742D01*
X83179378Y-118638434D01*
X83137506Y-118694367D01*
X83072042Y-118718784D01*
X83063196Y-118719100D01*
X82578231Y-118719100D01*
X82511192Y-118699415D01*
X82465437Y-118646611D01*
X82455493Y-118577453D01*
X82456597Y-118570999D01*
X82456600Y-118570976D01*
X82456600Y-116821623D01*
X82456599Y-116821621D01*
X82442067Y-116748564D01*
X82442066Y-116748560D01*
X82424653Y-116722499D01*
X82386701Y-116665699D01*
X82322642Y-116622897D01*
X82303839Y-116610333D01*
X82303835Y-116610332D01*
X82230777Y-116595800D01*
X82230774Y-116595800D01*
X80481426Y-116595800D01*
X80481423Y-116595800D01*
X80408364Y-116610332D01*
X80408360Y-116610333D01*
X80325499Y-116665699D01*
X80270133Y-116748560D01*
X80270132Y-116748564D01*
X80255600Y-116821621D01*
X80255600Y-118570976D01*
X80256197Y-118577039D01*
X80255029Y-118577153D01*
X80249356Y-118640507D01*
X80206490Y-118695682D01*
X80140598Y-118718923D01*
X80133969Y-118719100D01*
X71793767Y-118719100D01*
X71784732Y-118719082D01*
X71784451Y-118719000D01*
X71741573Y-118719000D01*
X71741454Y-118718964D01*
X71717626Y-118716618D01*
X71705382Y-118714182D01*
X71655869Y-118692284D01*
X71655846Y-118692267D01*
X71629832Y-118666253D01*
X71629815Y-118666230D01*
X71607915Y-118616711D01*
X71605481Y-118604470D01*
X71603100Y-118580289D01*
X71603100Y-106768410D01*
X71605481Y-106744229D01*
X71607916Y-106731987D01*
X71629815Y-106682469D01*
X71629832Y-106682446D01*
X71638202Y-106674075D01*
X71640293Y-106670078D01*
X71644723Y-106667554D01*
X71655846Y-106656432D01*
X71655869Y-106656415D01*
X71693507Y-106639769D01*
X71701006Y-106635499D01*
X71702931Y-106635602D01*
X71705386Y-106634516D01*
X71717637Y-106632079D01*
X71741811Y-106629700D01*
X71784451Y-106629700D01*
X80131600Y-106629700D01*
X80198639Y-106649385D01*
G37*
%TD.AperFunction*%
%TD*%
M02*
