M48
; DRILL file {KiCad 9.0.7} date 2026-02-17T21:11:15-0800
; FORMAT={-:-/ absolute / metric / decimal}
; #@! TF.CreationDate,2026-02-17T21:11:15-08:00
; #@! TF.GenerationSoftware,Kicad,Pcbnew,9.0.7
; #@! TF.FileFunction,Plated,1,2,PTH
FMAT,2
METRIC
; #@! TA.AperFunction,Plated,PTH,ViaDrill
T1C0.254
; #@! TA.AperFunction,Plated,PTH,ViaDrill
T2C0.400
; #@! TA.AperFunction,Plated,PTH,ComponentDrill
T3C1.000
; #@! TA.AperFunction,Plated,PTH,ComponentDrill
T4C1.143
%
G90
G05
T1
X75.787Y-112.68
T2
X73.432Y-108.313
X73.66Y-117.348
X74.444Y-116.593
X74.844Y-108.493
X76.245Y-108.768
X76.33Y-116.485
X80.07Y-112.66
T3
X81.356Y-107.536
X81.356Y-117.696
X83.896Y-107.536
X83.896Y-117.696
X86.436Y-107.536
X86.436Y-117.696
X88.976Y-107.536
X88.976Y-117.696
X91.516Y-107.536
X91.516Y-117.696
X94.056Y-107.536
X94.056Y-117.696
X96.596Y-107.536
X96.596Y-117.696
X99.136Y-107.536
X99.136Y-117.696
X101.676Y-107.536
X101.676Y-117.696
X104.216Y-107.536
X104.216Y-117.696
T4
X103.844Y-112.694
M30
