%TF.GenerationSoftware,KiCad,Pcbnew,9.0.7*%
%TF.CreationDate,2026-02-17T21:11:05-08:00*%
%TF.ProjectId,qfn-20-breakout,71666e2d-3230-42d6-9272-65616b6f7574,rev?*%
%TF.SameCoordinates,Original*%
%TF.FileFunction,Legend,Top*%
%TF.FilePolarity,Positive*%
%FSLAX46Y46*%
G04 Gerber Fmt 4.6, Leading zero omitted, Abs format (unit mm)*
G04 Created by KiCad (PCBNEW 9.0.7) date 2026-02-17 21:11:05*
%MOMM*%
%LPD*%
G01*
G04 APERTURE LIST*
G04 Aperture macros list*
%AMRotRect*
0 Rectangle, with rotation*
0 The origin of the aperture is its center*
0 $1 length*
0 $2 width*
0 $3 Rotation angle, in degrees counterclockwise*
0 Add horizontal line*
21,1,$1,$2,0,0,$3*%
%AMFreePoly0*
4,1,15,-0.400000,0.100000,-0.392388,0.138268,-0.370711,0.170711,-0.338268,0.192387,-0.300000,0.199999,0.300000,0.199999,0.400000,0.100000,0.400000,-0.100000,0.300000,-0.199999,-0.300000,-0.199999,-0.338268,-0.192387,-0.370711,-0.170711,-0.392388,-0.138268,-0.400000,-0.100000,-0.400000,0.100000,-0.400000,0.100000,$1*%
%AMFreePoly1*
4,1,15,-0.199999,0.300000,-0.100000,0.400000,0.100000,0.400000,0.199999,0.300000,0.199999,-0.300000,0.192387,-0.338268,0.170711,-0.370711,0.138268,-0.392388,0.100000,-0.400000,-0.100000,-0.400000,-0.138268,-0.392388,-0.170711,-0.370711,-0.192387,-0.338268,-0.199999,-0.300000,-0.199999,0.300000,-0.199999,0.300000,$1*%
%AMFreePoly2*
4,1,15,-0.400000,0.100000,-0.300000,0.199999,0.300000,0.199999,0.338268,0.192387,0.370711,0.170711,0.392388,0.138268,0.400000,0.100000,0.400000,-0.100000,0.392388,-0.138268,0.370711,-0.170711,0.338268,-0.192387,0.300000,-0.199999,-0.300000,-0.199999,-0.400000,-0.100000,-0.400000,0.100000,-0.400000,0.100000,$1*%
%AMFreePoly3*
4,1,15,-0.199999,0.300000,-0.192387,0.338268,-0.170711,0.370711,-0.138268,0.392388,-0.100000,0.400000,0.100000,0.400000,0.138268,0.392388,0.170711,0.370711,0.192387,0.338268,0.199999,0.300000,0.199999,-0.300000,0.100000,-0.400000,-0.100000,-0.400000,-0.199999,-0.300000,-0.199999,0.300000,-0.199999,0.300000,$1*%
G04 Aperture macros list end*
%ADD10C,0.150000*%
%ADD11C,0.120000*%
%ADD12FreePoly0,45.000000*%
%ADD13FreePoly1,45.000000*%
%ADD14FreePoly2,45.000000*%
%ADD15FreePoly3,45.000000*%
%ADD16RotRect,3.350000X3.350000X45.000000*%
%ADD17C,1.500000*%
%ADD18R,1.700000X1.700000*%
%ADD19C,1.700000*%
G04 APERTURE END LIST*
D10*
X88804761Y-110375427D02*
X88319046Y-110375427D01*
X88561903Y-110375427D02*
X88561903Y-109525427D01*
X88561903Y-109525427D02*
X88480951Y-109646855D01*
X88480951Y-109646855D02*
X88399999Y-109727808D01*
X88399999Y-109727808D02*
X88319046Y-109768284D01*
X89088094Y-109525427D02*
X89654761Y-109525427D01*
X89654761Y-109525427D02*
X89290475Y-110375427D01*
X93977459Y-114865427D02*
X93815554Y-114865427D01*
X93815554Y-114865427D02*
X93734602Y-114905903D01*
X93734602Y-114905903D02*
X93694126Y-114946379D01*
X93694126Y-114946379D02*
X93613173Y-115067808D01*
X93613173Y-115067808D02*
X93572697Y-115229712D01*
X93572697Y-115229712D02*
X93572697Y-115553522D01*
X93572697Y-115553522D02*
X93613173Y-115634474D01*
X93613173Y-115634474D02*
X93653650Y-115674951D01*
X93653650Y-115674951D02*
X93734602Y-115715427D01*
X93734602Y-115715427D02*
X93896507Y-115715427D01*
X93896507Y-115715427D02*
X93977459Y-115674951D01*
X93977459Y-115674951D02*
X94017935Y-115634474D01*
X94017935Y-115634474D02*
X94058412Y-115553522D01*
X94058412Y-115553522D02*
X94058412Y-115351141D01*
X94058412Y-115351141D02*
X94017935Y-115270189D01*
X94017935Y-115270189D02*
X93977459Y-115229712D01*
X93977459Y-115229712D02*
X93896507Y-115189236D01*
X93896507Y-115189236D02*
X93734602Y-115189236D01*
X93734602Y-115189236D02*
X93653650Y-115229712D01*
X93653650Y-115229712D02*
X93613173Y-115270189D01*
X93613173Y-115270189D02*
X93572697Y-115351141D01*
X98982539Y-110375427D02*
X98496824Y-110375427D01*
X98739681Y-110375427D02*
X98739681Y-109525427D01*
X98739681Y-109525427D02*
X98658729Y-109646855D01*
X98658729Y-109646855D02*
X98577777Y-109727808D01*
X98577777Y-109727808D02*
X98496824Y-109768284D01*
X99265872Y-109525427D02*
X99792063Y-109525427D01*
X99792063Y-109525427D02*
X99508729Y-109849236D01*
X99508729Y-109849236D02*
X99630158Y-109849236D01*
X99630158Y-109849236D02*
X99711110Y-109889712D01*
X99711110Y-109889712D02*
X99751586Y-109930189D01*
X99751586Y-109930189D02*
X99792063Y-110011141D01*
X99792063Y-110011141D02*
X99792063Y-110213522D01*
X99792063Y-110213522D02*
X99751586Y-110294474D01*
X99751586Y-110294474D02*
X99711110Y-110334951D01*
X99711110Y-110334951D02*
X99630158Y-110375427D01*
X99630158Y-110375427D02*
X99387301Y-110375427D01*
X99387301Y-110375427D02*
X99306348Y-110334951D01*
X99306348Y-110334951D02*
X99265872Y-110294474D01*
X88888570Y-115148760D02*
X88888570Y-115715427D01*
X88686189Y-114824951D02*
X88483808Y-115432093D01*
X88483808Y-115432093D02*
X89009999Y-115432093D01*
X83715872Y-110375427D02*
X83230157Y-110375427D01*
X83473014Y-110375427D02*
X83473014Y-109525427D01*
X83473014Y-109525427D02*
X83392062Y-109646855D01*
X83392062Y-109646855D02*
X83311110Y-109727808D01*
X83311110Y-109727808D02*
X83230157Y-109768284D01*
X84120634Y-110375427D02*
X84282538Y-110375427D01*
X84282538Y-110375427D02*
X84363491Y-110334951D01*
X84363491Y-110334951D02*
X84403967Y-110294474D01*
X84403967Y-110294474D02*
X84484919Y-110173046D01*
X84484919Y-110173046D02*
X84525396Y-110011141D01*
X84525396Y-110011141D02*
X84525396Y-109687331D01*
X84525396Y-109687331D02*
X84484919Y-109606379D01*
X84484919Y-109606379D02*
X84444443Y-109565903D01*
X84444443Y-109565903D02*
X84363491Y-109525427D01*
X84363491Y-109525427D02*
X84201586Y-109525427D01*
X84201586Y-109525427D02*
X84120634Y-109565903D01*
X84120634Y-109565903D02*
X84080157Y-109606379D01*
X84080157Y-109606379D02*
X84039681Y-109687331D01*
X84039681Y-109687331D02*
X84039681Y-109889712D01*
X84039681Y-109889712D02*
X84080157Y-109970665D01*
X84080157Y-109970665D02*
X84120634Y-110011141D01*
X84120634Y-110011141D02*
X84201586Y-110051617D01*
X84201586Y-110051617D02*
X84363491Y-110051617D01*
X84363491Y-110051617D02*
X84444443Y-110011141D01*
X84444443Y-110011141D02*
X84484919Y-109970665D01*
X84484919Y-109970665D02*
X84525396Y-109889712D01*
X98823491Y-115229712D02*
X98742539Y-115189236D01*
X98742539Y-115189236D02*
X98702062Y-115148760D01*
X98702062Y-115148760D02*
X98661586Y-115067808D01*
X98661586Y-115067808D02*
X98661586Y-115027331D01*
X98661586Y-115027331D02*
X98702062Y-114946379D01*
X98702062Y-114946379D02*
X98742539Y-114905903D01*
X98742539Y-114905903D02*
X98823491Y-114865427D01*
X98823491Y-114865427D02*
X98985396Y-114865427D01*
X98985396Y-114865427D02*
X99066348Y-114905903D01*
X99066348Y-114905903D02*
X99106824Y-114946379D01*
X99106824Y-114946379D02*
X99147301Y-115027331D01*
X99147301Y-115027331D02*
X99147301Y-115067808D01*
X99147301Y-115067808D02*
X99106824Y-115148760D01*
X99106824Y-115148760D02*
X99066348Y-115189236D01*
X99066348Y-115189236D02*
X98985396Y-115229712D01*
X98985396Y-115229712D02*
X98823491Y-115229712D01*
X98823491Y-115229712D02*
X98742539Y-115270189D01*
X98742539Y-115270189D02*
X98702062Y-115310665D01*
X98702062Y-115310665D02*
X98661586Y-115391617D01*
X98661586Y-115391617D02*
X98661586Y-115553522D01*
X98661586Y-115553522D02*
X98702062Y-115634474D01*
X98702062Y-115634474D02*
X98742539Y-115674951D01*
X98742539Y-115674951D02*
X98823491Y-115715427D01*
X98823491Y-115715427D02*
X98985396Y-115715427D01*
X98985396Y-115715427D02*
X99066348Y-115674951D01*
X99066348Y-115674951D02*
X99106824Y-115634474D01*
X99106824Y-115634474D02*
X99147301Y-115553522D01*
X99147301Y-115553522D02*
X99147301Y-115391617D01*
X99147301Y-115391617D02*
X99106824Y-115310665D01*
X99106824Y-115310665D02*
X99066348Y-115270189D01*
X99066348Y-115270189D02*
X98985396Y-115229712D01*
X83394919Y-114946379D02*
X83435395Y-114905903D01*
X83435395Y-114905903D02*
X83516348Y-114865427D01*
X83516348Y-114865427D02*
X83718729Y-114865427D01*
X83718729Y-114865427D02*
X83799681Y-114905903D01*
X83799681Y-114905903D02*
X83840157Y-114946379D01*
X83840157Y-114946379D02*
X83880634Y-115027331D01*
X83880634Y-115027331D02*
X83880634Y-115108284D01*
X83880634Y-115108284D02*
X83840157Y-115229712D01*
X83840157Y-115229712D02*
X83354443Y-115715427D01*
X83354443Y-115715427D02*
X83880634Y-115715427D01*
X100562381Y-112275903D02*
X100481428Y-112235427D01*
X100481428Y-112235427D02*
X100360000Y-112235427D01*
X100360000Y-112235427D02*
X100238571Y-112275903D01*
X100238571Y-112275903D02*
X100157619Y-112356855D01*
X100157619Y-112356855D02*
X100117142Y-112437808D01*
X100117142Y-112437808D02*
X100076666Y-112599712D01*
X100076666Y-112599712D02*
X100076666Y-112721141D01*
X100076666Y-112721141D02*
X100117142Y-112883046D01*
X100117142Y-112883046D02*
X100157619Y-112963998D01*
X100157619Y-112963998D02*
X100238571Y-113044951D01*
X100238571Y-113044951D02*
X100360000Y-113085427D01*
X100360000Y-113085427D02*
X100440952Y-113085427D01*
X100440952Y-113085427D02*
X100562381Y-113044951D01*
X100562381Y-113044951D02*
X100602857Y-113004474D01*
X100602857Y-113004474D02*
X100602857Y-112721141D01*
X100602857Y-112721141D02*
X100440952Y-112721141D01*
X100967142Y-113085427D02*
X100967142Y-112235427D01*
X100967142Y-112235427D02*
X101452857Y-113085427D01*
X101452857Y-113085427D02*
X101452857Y-112235427D01*
X101857618Y-113085427D02*
X101857618Y-112235427D01*
X101857618Y-112235427D02*
X102059999Y-112235427D01*
X102059999Y-112235427D02*
X102181428Y-112275903D01*
X102181428Y-112275903D02*
X102262380Y-112356855D01*
X102262380Y-112356855D02*
X102302857Y-112437808D01*
X102302857Y-112437808D02*
X102343333Y-112599712D01*
X102343333Y-112599712D02*
X102343333Y-112721141D01*
X102343333Y-112721141D02*
X102302857Y-112883046D01*
X102302857Y-112883046D02*
X102262380Y-112963998D01*
X102262380Y-112963998D02*
X102181428Y-113044951D01*
X102181428Y-113044951D02*
X102059999Y-113085427D01*
X102059999Y-113085427D02*
X101857618Y-113085427D01*
X91473491Y-114865427D02*
X91068729Y-114865427D01*
X91068729Y-114865427D02*
X91028253Y-115270189D01*
X91028253Y-115270189D02*
X91068729Y-115229712D01*
X91068729Y-115229712D02*
X91149682Y-115189236D01*
X91149682Y-115189236D02*
X91352063Y-115189236D01*
X91352063Y-115189236D02*
X91433015Y-115229712D01*
X91433015Y-115229712D02*
X91473491Y-115270189D01*
X91473491Y-115270189D02*
X91513968Y-115351141D01*
X91513968Y-115351141D02*
X91513968Y-115553522D01*
X91513968Y-115553522D02*
X91473491Y-115634474D01*
X91473491Y-115634474D02*
X91433015Y-115674951D01*
X91433015Y-115674951D02*
X91352063Y-115715427D01*
X91352063Y-115715427D02*
X91149682Y-115715427D01*
X91149682Y-115715427D02*
X91068729Y-115674951D01*
X91068729Y-115674951D02*
X91028253Y-115634474D01*
X80685713Y-109606379D02*
X80726189Y-109565903D01*
X80726189Y-109565903D02*
X80807142Y-109525427D01*
X80807142Y-109525427D02*
X81009523Y-109525427D01*
X81009523Y-109525427D02*
X81090475Y-109565903D01*
X81090475Y-109565903D02*
X81130951Y-109606379D01*
X81130951Y-109606379D02*
X81171428Y-109687331D01*
X81171428Y-109687331D02*
X81171428Y-109768284D01*
X81171428Y-109768284D02*
X81130951Y-109889712D01*
X81130951Y-109889712D02*
X80645237Y-110375427D01*
X80645237Y-110375427D02*
X81171428Y-110375427D01*
X81697618Y-109525427D02*
X81778571Y-109525427D01*
X81778571Y-109525427D02*
X81859523Y-109565903D01*
X81859523Y-109565903D02*
X81899999Y-109606379D01*
X81899999Y-109606379D02*
X81940475Y-109687331D01*
X81940475Y-109687331D02*
X81980952Y-109849236D01*
X81980952Y-109849236D02*
X81980952Y-110051617D01*
X81980952Y-110051617D02*
X81940475Y-110213522D01*
X81940475Y-110213522D02*
X81899999Y-110294474D01*
X81899999Y-110294474D02*
X81859523Y-110334951D01*
X81859523Y-110334951D02*
X81778571Y-110375427D01*
X81778571Y-110375427D02*
X81697618Y-110375427D01*
X81697618Y-110375427D02*
X81616666Y-110334951D01*
X81616666Y-110334951D02*
X81576190Y-110294474D01*
X81576190Y-110294474D02*
X81535713Y-110213522D01*
X81535713Y-110213522D02*
X81495237Y-110051617D01*
X81495237Y-110051617D02*
X81495237Y-109849236D01*
X81495237Y-109849236D02*
X81535713Y-109687331D01*
X81535713Y-109687331D02*
X81576190Y-109606379D01*
X81576190Y-109606379D02*
X81616666Y-109565903D01*
X81616666Y-109565903D02*
X81697618Y-109525427D01*
X85898888Y-114865427D02*
X86425079Y-114865427D01*
X86425079Y-114865427D02*
X86141745Y-115189236D01*
X86141745Y-115189236D02*
X86263174Y-115189236D01*
X86263174Y-115189236D02*
X86344126Y-115229712D01*
X86344126Y-115229712D02*
X86384602Y-115270189D01*
X86384602Y-115270189D02*
X86425079Y-115351141D01*
X86425079Y-115351141D02*
X86425079Y-115553522D01*
X86425079Y-115553522D02*
X86384602Y-115634474D01*
X86384602Y-115634474D02*
X86344126Y-115674951D01*
X86344126Y-115674951D02*
X86263174Y-115715427D01*
X86263174Y-115715427D02*
X86020317Y-115715427D01*
X86020317Y-115715427D02*
X85939364Y-115674951D01*
X85939364Y-115674951D02*
X85898888Y-115634474D01*
X103831428Y-115715427D02*
X103345713Y-115715427D01*
X103588570Y-115715427D02*
X103588570Y-114865427D01*
X103588570Y-114865427D02*
X103507618Y-114986855D01*
X103507618Y-114986855D02*
X103426666Y-115067808D01*
X103426666Y-115067808D02*
X103345713Y-115108284D01*
X104357618Y-114865427D02*
X104438571Y-114865427D01*
X104438571Y-114865427D02*
X104519523Y-114905903D01*
X104519523Y-114905903D02*
X104559999Y-114946379D01*
X104559999Y-114946379D02*
X104600475Y-115027331D01*
X104600475Y-115027331D02*
X104640952Y-115189236D01*
X104640952Y-115189236D02*
X104640952Y-115391617D01*
X104640952Y-115391617D02*
X104600475Y-115553522D01*
X104600475Y-115553522D02*
X104559999Y-115634474D01*
X104559999Y-115634474D02*
X104519523Y-115674951D01*
X104519523Y-115674951D02*
X104438571Y-115715427D01*
X104438571Y-115715427D02*
X104357618Y-115715427D01*
X104357618Y-115715427D02*
X104276666Y-115674951D01*
X104276666Y-115674951D02*
X104236190Y-115634474D01*
X104236190Y-115634474D02*
X104195713Y-115553522D01*
X104195713Y-115553522D02*
X104155237Y-115391617D01*
X104155237Y-115391617D02*
X104155237Y-115189236D01*
X104155237Y-115189236D02*
X104195713Y-115027331D01*
X104195713Y-115027331D02*
X104236190Y-114946379D01*
X104236190Y-114946379D02*
X104276666Y-114905903D01*
X104276666Y-114905903D02*
X104357618Y-114865427D01*
X93893650Y-110375427D02*
X93407935Y-110375427D01*
X93650792Y-110375427D02*
X93650792Y-109525427D01*
X93650792Y-109525427D02*
X93569840Y-109646855D01*
X93569840Y-109646855D02*
X93488888Y-109727808D01*
X93488888Y-109727808D02*
X93407935Y-109768284D01*
X94662697Y-109525427D02*
X94257935Y-109525427D01*
X94257935Y-109525427D02*
X94217459Y-109930189D01*
X94217459Y-109930189D02*
X94257935Y-109889712D01*
X94257935Y-109889712D02*
X94338888Y-109849236D01*
X94338888Y-109849236D02*
X94541269Y-109849236D01*
X94541269Y-109849236D02*
X94622221Y-109889712D01*
X94622221Y-109889712D02*
X94662697Y-109930189D01*
X94662697Y-109930189D02*
X94703174Y-110011141D01*
X94703174Y-110011141D02*
X94703174Y-110213522D01*
X94703174Y-110213522D02*
X94662697Y-110294474D01*
X94662697Y-110294474D02*
X94622221Y-110334951D01*
X94622221Y-110334951D02*
X94541269Y-110375427D01*
X94541269Y-110375427D02*
X94338888Y-110375427D01*
X94338888Y-110375427D02*
X94257935Y-110334951D01*
X94257935Y-110334951D02*
X94217459Y-110294474D01*
X81968571Y-113140057D02*
X81873333Y-113092438D01*
X81873333Y-113092438D02*
X81778095Y-112997200D01*
X81778095Y-112997200D02*
X81635238Y-112854342D01*
X81635238Y-112854342D02*
X81540000Y-112806723D01*
X81540000Y-112806723D02*
X81444762Y-112806723D01*
X81492381Y-113044819D02*
X81397143Y-112997200D01*
X81397143Y-112997200D02*
X81301905Y-112901961D01*
X81301905Y-112901961D02*
X81254286Y-112711485D01*
X81254286Y-112711485D02*
X81254286Y-112378152D01*
X81254286Y-112378152D02*
X81301905Y-112187676D01*
X81301905Y-112187676D02*
X81397143Y-112092438D01*
X81397143Y-112092438D02*
X81492381Y-112044819D01*
X81492381Y-112044819D02*
X81682857Y-112044819D01*
X81682857Y-112044819D02*
X81778095Y-112092438D01*
X81778095Y-112092438D02*
X81873333Y-112187676D01*
X81873333Y-112187676D02*
X81920952Y-112378152D01*
X81920952Y-112378152D02*
X81920952Y-112711485D01*
X81920952Y-112711485D02*
X81873333Y-112901961D01*
X81873333Y-112901961D02*
X81778095Y-112997200D01*
X81778095Y-112997200D02*
X81682857Y-113044819D01*
X81682857Y-113044819D02*
X81492381Y-113044819D01*
X82682857Y-112521009D02*
X82349524Y-112521009D01*
X82349524Y-113044819D02*
X82349524Y-112044819D01*
X82349524Y-112044819D02*
X82825714Y-112044819D01*
X83206667Y-113044819D02*
X83206667Y-112044819D01*
X83206667Y-112044819D02*
X83778095Y-113044819D01*
X83778095Y-113044819D02*
X83778095Y-112044819D01*
X84254286Y-112663866D02*
X85016191Y-112663866D01*
X85444762Y-112140057D02*
X85492381Y-112092438D01*
X85492381Y-112092438D02*
X85587619Y-112044819D01*
X85587619Y-112044819D02*
X85825714Y-112044819D01*
X85825714Y-112044819D02*
X85920952Y-112092438D01*
X85920952Y-112092438D02*
X85968571Y-112140057D01*
X85968571Y-112140057D02*
X86016190Y-112235295D01*
X86016190Y-112235295D02*
X86016190Y-112330533D01*
X86016190Y-112330533D02*
X85968571Y-112473390D01*
X85968571Y-112473390D02*
X85397143Y-113044819D01*
X85397143Y-113044819D02*
X86016190Y-113044819D01*
X86635238Y-112044819D02*
X86730476Y-112044819D01*
X86730476Y-112044819D02*
X86825714Y-112092438D01*
X86825714Y-112092438D02*
X86873333Y-112140057D01*
X86873333Y-112140057D02*
X86920952Y-112235295D01*
X86920952Y-112235295D02*
X86968571Y-112425771D01*
X86968571Y-112425771D02*
X86968571Y-112663866D01*
X86968571Y-112663866D02*
X86920952Y-112854342D01*
X86920952Y-112854342D02*
X86873333Y-112949580D01*
X86873333Y-112949580D02*
X86825714Y-112997200D01*
X86825714Y-112997200D02*
X86730476Y-113044819D01*
X86730476Y-113044819D02*
X86635238Y-113044819D01*
X86635238Y-113044819D02*
X86540000Y-112997200D01*
X86540000Y-112997200D02*
X86492381Y-112949580D01*
X86492381Y-112949580D02*
X86444762Y-112854342D01*
X86444762Y-112854342D02*
X86397143Y-112663866D01*
X86397143Y-112663866D02*
X86397143Y-112425771D01*
X86397143Y-112425771D02*
X86444762Y-112235295D01*
X86444762Y-112235295D02*
X86492381Y-112140057D01*
X86492381Y-112140057D02*
X86540000Y-112092438D01*
X86540000Y-112092438D02*
X86635238Y-112044819D01*
X88635238Y-112044819D02*
X88159048Y-112044819D01*
X88159048Y-112044819D02*
X88111429Y-112521009D01*
X88111429Y-112521009D02*
X88159048Y-112473390D01*
X88159048Y-112473390D02*
X88254286Y-112425771D01*
X88254286Y-112425771D02*
X88492381Y-112425771D01*
X88492381Y-112425771D02*
X88587619Y-112473390D01*
X88587619Y-112473390D02*
X88635238Y-112521009D01*
X88635238Y-112521009D02*
X88682857Y-112616247D01*
X88682857Y-112616247D02*
X88682857Y-112854342D01*
X88682857Y-112854342D02*
X88635238Y-112949580D01*
X88635238Y-112949580D02*
X88587619Y-112997200D01*
X88587619Y-112997200D02*
X88492381Y-113044819D01*
X88492381Y-113044819D02*
X88254286Y-113044819D01*
X88254286Y-113044819D02*
X88159048Y-112997200D01*
X88159048Y-112997200D02*
X88111429Y-112949580D01*
X89016191Y-112044819D02*
X89682857Y-113044819D01*
X89682857Y-112044819D02*
X89016191Y-113044819D01*
X90540000Y-112044819D02*
X90063810Y-112044819D01*
X90063810Y-112044819D02*
X90016191Y-112521009D01*
X90016191Y-112521009D02*
X90063810Y-112473390D01*
X90063810Y-112473390D02*
X90159048Y-112425771D01*
X90159048Y-112425771D02*
X90397143Y-112425771D01*
X90397143Y-112425771D02*
X90492381Y-112473390D01*
X90492381Y-112473390D02*
X90540000Y-112521009D01*
X90540000Y-112521009D02*
X90587619Y-112616247D01*
X90587619Y-112616247D02*
X90587619Y-112854342D01*
X90587619Y-112854342D02*
X90540000Y-112949580D01*
X90540000Y-112949580D02*
X90492381Y-112997200D01*
X90492381Y-112997200D02*
X90397143Y-113044819D01*
X90397143Y-113044819D02*
X90159048Y-113044819D01*
X90159048Y-113044819D02*
X90063810Y-112997200D01*
X90063810Y-112997200D02*
X90016191Y-112949580D01*
X91063810Y-112997200D02*
X91063810Y-113044819D01*
X91063810Y-113044819D02*
X91016191Y-113140057D01*
X91016191Y-113140057D02*
X90968572Y-113187676D01*
X92254286Y-112521009D02*
X92587619Y-112521009D01*
X92730476Y-113044819D02*
X92254286Y-113044819D01*
X92254286Y-113044819D02*
X92254286Y-112044819D01*
X92254286Y-112044819D02*
X92730476Y-112044819D01*
X93159048Y-113044819D02*
X93159048Y-112044819D01*
X93159048Y-112044819D02*
X93540000Y-112044819D01*
X93540000Y-112044819D02*
X93635238Y-112092438D01*
X93635238Y-112092438D02*
X93682857Y-112140057D01*
X93682857Y-112140057D02*
X93730476Y-112235295D01*
X93730476Y-112235295D02*
X93730476Y-112378152D01*
X93730476Y-112378152D02*
X93682857Y-112473390D01*
X93682857Y-112473390D02*
X93635238Y-112521009D01*
X93635238Y-112521009D02*
X93540000Y-112568628D01*
X93540000Y-112568628D02*
X93159048Y-112568628D01*
X94825715Y-112044819D02*
X95444762Y-112044819D01*
X95444762Y-112044819D02*
X95111429Y-112425771D01*
X95111429Y-112425771D02*
X95254286Y-112425771D01*
X95254286Y-112425771D02*
X95349524Y-112473390D01*
X95349524Y-112473390D02*
X95397143Y-112521009D01*
X95397143Y-112521009D02*
X95444762Y-112616247D01*
X95444762Y-112616247D02*
X95444762Y-112854342D01*
X95444762Y-112854342D02*
X95397143Y-112949580D01*
X95397143Y-112949580D02*
X95349524Y-112997200D01*
X95349524Y-112997200D02*
X95254286Y-113044819D01*
X95254286Y-113044819D02*
X94968572Y-113044819D01*
X94968572Y-113044819D02*
X94873334Y-112997200D01*
X94873334Y-112997200D02*
X94825715Y-112949580D01*
X95873334Y-112949580D02*
X95920953Y-112997200D01*
X95920953Y-112997200D02*
X95873334Y-113044819D01*
X95873334Y-113044819D02*
X95825715Y-112997200D01*
X95825715Y-112997200D02*
X95873334Y-112949580D01*
X95873334Y-112949580D02*
X95873334Y-113044819D01*
X96254286Y-112044819D02*
X96873333Y-112044819D01*
X96873333Y-112044819D02*
X96540000Y-112425771D01*
X96540000Y-112425771D02*
X96682857Y-112425771D01*
X96682857Y-112425771D02*
X96778095Y-112473390D01*
X96778095Y-112473390D02*
X96825714Y-112521009D01*
X96825714Y-112521009D02*
X96873333Y-112616247D01*
X96873333Y-112616247D02*
X96873333Y-112854342D01*
X96873333Y-112854342D02*
X96825714Y-112949580D01*
X96825714Y-112949580D02*
X96778095Y-112997200D01*
X96778095Y-112997200D02*
X96682857Y-113044819D01*
X96682857Y-113044819D02*
X96397143Y-113044819D01*
X96397143Y-113044819D02*
X96301905Y-112997200D01*
X96301905Y-112997200D02*
X96254286Y-112949580D01*
X97778095Y-112044819D02*
X97301905Y-112044819D01*
X97301905Y-112044819D02*
X97254286Y-112521009D01*
X97254286Y-112521009D02*
X97301905Y-112473390D01*
X97301905Y-112473390D02*
X97397143Y-112425771D01*
X97397143Y-112425771D02*
X97635238Y-112425771D01*
X97635238Y-112425771D02*
X97730476Y-112473390D01*
X97730476Y-112473390D02*
X97778095Y-112521009D01*
X97778095Y-112521009D02*
X97825714Y-112616247D01*
X97825714Y-112616247D02*
X97825714Y-112854342D01*
X97825714Y-112854342D02*
X97778095Y-112949580D01*
X97778095Y-112949580D02*
X97730476Y-112997200D01*
X97730476Y-112997200D02*
X97635238Y-113044819D01*
X97635238Y-113044819D02*
X97397143Y-113044819D01*
X97397143Y-113044819D02*
X97301905Y-112997200D01*
X97301905Y-112997200D02*
X97254286Y-112949580D01*
X96076666Y-114865427D02*
X96643333Y-114865427D01*
X96643333Y-114865427D02*
X96279047Y-115715427D01*
X81336190Y-115715427D02*
X80850475Y-115715427D01*
X81093332Y-115715427D02*
X81093332Y-114865427D01*
X81093332Y-114865427D02*
X81012380Y-114986855D01*
X81012380Y-114986855D02*
X80931428Y-115067808D01*
X80931428Y-115067808D02*
X80850475Y-115108284D01*
X104071428Y-110375427D02*
X103585713Y-110375427D01*
X103828570Y-110375427D02*
X103828570Y-109525427D01*
X103828570Y-109525427D02*
X103747618Y-109646855D01*
X103747618Y-109646855D02*
X103666666Y-109727808D01*
X103666666Y-109727808D02*
X103585713Y-109768284D01*
X104880952Y-110375427D02*
X104395237Y-110375427D01*
X104638094Y-110375427D02*
X104638094Y-109525427D01*
X104638094Y-109525427D02*
X104557142Y-109646855D01*
X104557142Y-109646855D02*
X104476190Y-109727808D01*
X104476190Y-109727808D02*
X104395237Y-109768284D01*
X101286984Y-115715427D02*
X101448888Y-115715427D01*
X101448888Y-115715427D02*
X101529841Y-115674951D01*
X101529841Y-115674951D02*
X101570317Y-115634474D01*
X101570317Y-115634474D02*
X101651269Y-115513046D01*
X101651269Y-115513046D02*
X101691746Y-115351141D01*
X101691746Y-115351141D02*
X101691746Y-115027331D01*
X101691746Y-115027331D02*
X101651269Y-114946379D01*
X101651269Y-114946379D02*
X101610793Y-114905903D01*
X101610793Y-114905903D02*
X101529841Y-114865427D01*
X101529841Y-114865427D02*
X101367936Y-114865427D01*
X101367936Y-114865427D02*
X101286984Y-114905903D01*
X101286984Y-114905903D02*
X101246507Y-114946379D01*
X101246507Y-114946379D02*
X101206031Y-115027331D01*
X101206031Y-115027331D02*
X101206031Y-115229712D01*
X101206031Y-115229712D02*
X101246507Y-115310665D01*
X101246507Y-115310665D02*
X101286984Y-115351141D01*
X101286984Y-115351141D02*
X101367936Y-115391617D01*
X101367936Y-115391617D02*
X101529841Y-115391617D01*
X101529841Y-115391617D02*
X101610793Y-115351141D01*
X101610793Y-115351141D02*
X101651269Y-115310665D01*
X101651269Y-115310665D02*
X101691746Y-115229712D01*
X101526984Y-110375427D02*
X101041269Y-110375427D01*
X101284126Y-110375427D02*
X101284126Y-109525427D01*
X101284126Y-109525427D02*
X101203174Y-109646855D01*
X101203174Y-109646855D02*
X101122222Y-109727808D01*
X101122222Y-109727808D02*
X101041269Y-109768284D01*
X101850793Y-109606379D02*
X101891269Y-109565903D01*
X101891269Y-109565903D02*
X101972222Y-109525427D01*
X101972222Y-109525427D02*
X102174603Y-109525427D01*
X102174603Y-109525427D02*
X102255555Y-109565903D01*
X102255555Y-109565903D02*
X102296031Y-109606379D01*
X102296031Y-109606379D02*
X102336508Y-109687331D01*
X102336508Y-109687331D02*
X102336508Y-109768284D01*
X102336508Y-109768284D02*
X102296031Y-109889712D01*
X102296031Y-109889712D02*
X101810317Y-110375427D01*
X101810317Y-110375427D02*
X102336508Y-110375427D01*
X96438095Y-110375427D02*
X95952380Y-110375427D01*
X96195237Y-110375427D02*
X96195237Y-109525427D01*
X96195237Y-109525427D02*
X96114285Y-109646855D01*
X96114285Y-109646855D02*
X96033333Y-109727808D01*
X96033333Y-109727808D02*
X95952380Y-109768284D01*
X97166666Y-109808760D02*
X97166666Y-110375427D01*
X96964285Y-109484951D02*
X96761904Y-110092093D01*
X96761904Y-110092093D02*
X97288095Y-110092093D01*
X86260317Y-110375427D02*
X85774602Y-110375427D01*
X86017459Y-110375427D02*
X86017459Y-109525427D01*
X86017459Y-109525427D02*
X85936507Y-109646855D01*
X85936507Y-109646855D02*
X85855555Y-109727808D01*
X85855555Y-109727808D02*
X85774602Y-109768284D01*
X86746031Y-109889712D02*
X86665079Y-109849236D01*
X86665079Y-109849236D02*
X86624602Y-109808760D01*
X86624602Y-109808760D02*
X86584126Y-109727808D01*
X86584126Y-109727808D02*
X86584126Y-109687331D01*
X86584126Y-109687331D02*
X86624602Y-109606379D01*
X86624602Y-109606379D02*
X86665079Y-109565903D01*
X86665079Y-109565903D02*
X86746031Y-109525427D01*
X86746031Y-109525427D02*
X86907936Y-109525427D01*
X86907936Y-109525427D02*
X86988888Y-109565903D01*
X86988888Y-109565903D02*
X87029364Y-109606379D01*
X87029364Y-109606379D02*
X87069841Y-109687331D01*
X87069841Y-109687331D02*
X87069841Y-109727808D01*
X87069841Y-109727808D02*
X87029364Y-109808760D01*
X87029364Y-109808760D02*
X86988888Y-109849236D01*
X86988888Y-109849236D02*
X86907936Y-109889712D01*
X86907936Y-109889712D02*
X86746031Y-109889712D01*
X86746031Y-109889712D02*
X86665079Y-109930189D01*
X86665079Y-109930189D02*
X86624602Y-109970665D01*
X86624602Y-109970665D02*
X86584126Y-110051617D01*
X86584126Y-110051617D02*
X86584126Y-110213522D01*
X86584126Y-110213522D02*
X86624602Y-110294474D01*
X86624602Y-110294474D02*
X86665079Y-110334951D01*
X86665079Y-110334951D02*
X86746031Y-110375427D01*
X86746031Y-110375427D02*
X86907936Y-110375427D01*
X86907936Y-110375427D02*
X86988888Y-110334951D01*
X86988888Y-110334951D02*
X87029364Y-110294474D01*
X87029364Y-110294474D02*
X87069841Y-110213522D01*
X87069841Y-110213522D02*
X87069841Y-110051617D01*
X87069841Y-110051617D02*
X87029364Y-109970665D01*
X87029364Y-109970665D02*
X86988888Y-109930189D01*
X86988888Y-109930189D02*
X86907936Y-109889712D01*
X91349206Y-110375427D02*
X90863491Y-110375427D01*
X91106348Y-110375427D02*
X91106348Y-109525427D01*
X91106348Y-109525427D02*
X91025396Y-109646855D01*
X91025396Y-109646855D02*
X90944444Y-109727808D01*
X90944444Y-109727808D02*
X90863491Y-109768284D01*
X92077777Y-109525427D02*
X91915872Y-109525427D01*
X91915872Y-109525427D02*
X91834920Y-109565903D01*
X91834920Y-109565903D02*
X91794444Y-109606379D01*
X91794444Y-109606379D02*
X91713491Y-109727808D01*
X91713491Y-109727808D02*
X91673015Y-109889712D01*
X91673015Y-109889712D02*
X91673015Y-110213522D01*
X91673015Y-110213522D02*
X91713491Y-110294474D01*
X91713491Y-110294474D02*
X91753968Y-110334951D01*
X91753968Y-110334951D02*
X91834920Y-110375427D01*
X91834920Y-110375427D02*
X91996825Y-110375427D01*
X91996825Y-110375427D02*
X92077777Y-110334951D01*
X92077777Y-110334951D02*
X92118253Y-110294474D01*
X92118253Y-110294474D02*
X92158730Y-110213522D01*
X92158730Y-110213522D02*
X92158730Y-110011141D01*
X92158730Y-110011141D02*
X92118253Y-109930189D01*
X92118253Y-109930189D02*
X92077777Y-109889712D01*
X92077777Y-109889712D02*
X91996825Y-109849236D01*
X91996825Y-109849236D02*
X91834920Y-109849236D01*
X91834920Y-109849236D02*
X91753968Y-109889712D01*
X91753968Y-109889712D02*
X91713491Y-109930189D01*
X91713491Y-109930189D02*
X91673015Y-110011141D01*
D11*
%TO.C,U1*%
X72731830Y-112043704D02*
X72307566Y-112467968D01*
X72731830Y-113316496D02*
X72265139Y-112849806D01*
X75150135Y-109625399D02*
X75786531Y-108989003D01*
X75786531Y-108989003D02*
X76422927Y-109625399D01*
X75786531Y-116371197D02*
X75150135Y-115734801D01*
X76422927Y-115734801D02*
X75786531Y-116371197D01*
X78841232Y-113316496D02*
X79477628Y-112680100D01*
X79477628Y-112680100D02*
X78841232Y-112043704D01*
X72095434Y-112680100D02*
X71692383Y-112616460D01*
X72031794Y-112277049D01*
X72095434Y-112680100D01*
G36*
X72095434Y-112680100D02*
G01*
X71692383Y-112616460D01*
X72031794Y-112277049D01*
X72095434Y-112680100D01*
G37*
%TO.C,J2*%
X79976100Y-108916300D02*
X79976100Y-107536300D01*
X81356100Y-108916300D02*
X79976100Y-108916300D01*
%TO.C,J1*%
X79976100Y-117704700D02*
X79976100Y-116324700D01*
X81356100Y-116324700D02*
X79976100Y-116324700D01*
%TD*%
%LPC*%
D12*
%TO.C,U1*%
X73170236Y-113457917D03*
X73629855Y-113917537D03*
X74089475Y-114377156D03*
X74549094Y-114836776D03*
X75008714Y-115296395D03*
D13*
X76564348Y-115296395D03*
X77023968Y-114836776D03*
X77483587Y-114377156D03*
X77943207Y-113917537D03*
X78402826Y-113457917D03*
D14*
X78402826Y-111902283D03*
X77943207Y-111442663D03*
X77483587Y-110983044D03*
X77023968Y-110523424D03*
X76564348Y-110063805D03*
D15*
X75008714Y-110063805D03*
X74549094Y-110523424D03*
X74089475Y-110983044D03*
X73629855Y-111442663D03*
X73170236Y-111902283D03*
D16*
X75786531Y-112680100D03*
%TD*%
D17*
%TO.C,J3*%
X103844500Y-112693500D03*
%TD*%
D18*
%TO.C,J2*%
X81356100Y-107536300D03*
D19*
X83896100Y-107536300D03*
X86436100Y-107536300D03*
X88976100Y-107536300D03*
X91516100Y-107536300D03*
X94056100Y-107536300D03*
X96596100Y-107536300D03*
X99136100Y-107536300D03*
X101676100Y-107536300D03*
X104216100Y-107536300D03*
%TD*%
D18*
%TO.C,J1*%
X81356100Y-117696300D03*
D19*
X83896100Y-117696300D03*
X86436100Y-117696300D03*
X88976100Y-117696300D03*
X91516100Y-117696300D03*
X94056100Y-117696300D03*
X96596100Y-117696300D03*
X99136100Y-117696300D03*
X101676100Y-117696300D03*
X104216100Y-117696300D03*
%TD*%
%LPD*%
M02*
