%TF.GenerationSoftware,KiCad,Pcbnew,9.0.7*%
%TF.CreationDate,2026-02-17T21:11:15-08:00*%
%TF.ProjectId,qfn-20-breakout,71666e2d-3230-42d6-9272-65616b6f7574,rev?*%
%TF.SameCoordinates,Original*%
%TF.FileFunction,Drillmap*%
%TF.FilePolarity,Positive*%
%FSLAX45Y45*%
G04 Gerber Fmt 4.5, Leading zero omitted, Abs format (unit mm)*
G04 Created by KiCad (PCBNEW 9.0.7) date 2026-02-17 21:11:15*
%MOMM*%
%LPD*%
G01*
G04 APERTURE LIST*
%ADD10C,0.100000*%
%ADD11C,0.200000*%
%ADD12C,0.114300*%
G04 APERTURE END LIST*
D10*
X7122160Y-10675620D02*
G75*
G02*
X7172960Y-10624820I50800J0D01*
G01*
X10556250Y-10675630D02*
X10556250Y-11859260D01*
X10556250Y-11859260D02*
G75*
G02*
X10505450Y-11910060I-50800J0D01*
G01*
X7172960Y-11910050D02*
G75*
G02*
X7122160Y-11859250I0J50800D01*
G01*
X10505450Y-11910060D02*
X7172960Y-11910060D01*
X7172960Y-10624820D02*
X10505440Y-10624820D01*
X10505440Y-10624820D02*
G75*
G02*
X10556250Y-10675630I0J-50810D01*
G01*
X7122160Y-11859250D02*
X7122160Y-10675620D01*
D11*
D10*
X7565953Y-11255310D02*
X7591353Y-11280710D01*
X7591353Y-11255310D02*
X7565953Y-11280710D01*
X7363250Y-10831260D02*
G75*
G02*
X7323250Y-10831260I-20000J0D01*
G01*
X7323250Y-10831260D02*
G75*
G02*
X7363250Y-10831260I20000J0D01*
G01*
X7386000Y-11734800D02*
G75*
G02*
X7346000Y-11734800I-20000J0D01*
G01*
X7346000Y-11734800D02*
G75*
G02*
X7386000Y-11734800I20000J0D01*
G01*
X7464450Y-11659350D02*
G75*
G02*
X7424450Y-11659350I-20000J0D01*
G01*
X7424450Y-11659350D02*
G75*
G02*
X7464450Y-11659350I20000J0D01*
G01*
X7504450Y-10849350D02*
G75*
G02*
X7464450Y-10849350I-20000J0D01*
G01*
X7464450Y-10849350D02*
G75*
G02*
X7504450Y-10849350I20000J0D01*
G01*
X7644450Y-10876850D02*
G75*
G02*
X7604450Y-10876850I-20000J0D01*
G01*
X7604450Y-10876850D02*
G75*
G02*
X7644450Y-10876850I20000J0D01*
G01*
X7653000Y-11648500D02*
G75*
G02*
X7613000Y-11648500I-20000J0D01*
G01*
X7613000Y-11648500D02*
G75*
G02*
X7653000Y-11648500I20000J0D01*
G01*
X8027000Y-11266000D02*
G75*
G02*
X7987000Y-11266000I-20000J0D01*
G01*
X7987000Y-11266000D02*
G75*
G02*
X8027000Y-11266000I20000J0D01*
G01*
X8135610Y-10703630D02*
X8135610Y-10803630D01*
X8085610Y-10753630D02*
X8185610Y-10753630D01*
X8135610Y-11719630D02*
X8135610Y-11819630D01*
X8085610Y-11769630D02*
X8185610Y-11769630D01*
X8389610Y-10703630D02*
X8389610Y-10803630D01*
X8339610Y-10753630D02*
X8439610Y-10753630D01*
X8389610Y-11719630D02*
X8389610Y-11819630D01*
X8339610Y-11769630D02*
X8439610Y-11769630D01*
X8643610Y-10703630D02*
X8643610Y-10803630D01*
X8593610Y-10753630D02*
X8693610Y-10753630D01*
X8643610Y-11719630D02*
X8643610Y-11819630D01*
X8593610Y-11769630D02*
X8693610Y-11769630D01*
X8897610Y-10703630D02*
X8897610Y-10803630D01*
X8847610Y-10753630D02*
X8947610Y-10753630D01*
X8897610Y-11719630D02*
X8897610Y-11819630D01*
X8847610Y-11769630D02*
X8947610Y-11769630D01*
X9151610Y-10703630D02*
X9151610Y-10803630D01*
X9101610Y-10753630D02*
X9201610Y-10753630D01*
X9151610Y-11719630D02*
X9151610Y-11819630D01*
X9101610Y-11769630D02*
X9201610Y-11769630D01*
X9405610Y-10703630D02*
X9405610Y-10803630D01*
X9355610Y-10753630D02*
X9455610Y-10753630D01*
X9405610Y-11719630D02*
X9405610Y-11819630D01*
X9355610Y-11769630D02*
X9455610Y-11769630D01*
X9659610Y-10703630D02*
X9659610Y-10803630D01*
X9609610Y-10753630D02*
X9709610Y-10753630D01*
X9659610Y-11719630D02*
X9659610Y-11819630D01*
X9609610Y-11769630D02*
X9709610Y-11769630D01*
X9913610Y-10703630D02*
X9913610Y-10803630D01*
X9863610Y-10753630D02*
X9963610Y-10753630D01*
X9913610Y-11719630D02*
X9913610Y-11819630D01*
X9863610Y-11769630D02*
X9963610Y-11769630D01*
X10167610Y-10703630D02*
X10167610Y-10803630D01*
X10117610Y-10753630D02*
X10217610Y-10753630D01*
X10167610Y-11719630D02*
X10167610Y-11819630D01*
X10117610Y-11769630D02*
X10217610Y-11769630D01*
X10421610Y-10703630D02*
X10421610Y-10803630D01*
X10371610Y-10753630D02*
X10471610Y-10753630D01*
X10421610Y-11719630D02*
X10421610Y-11819630D01*
X10371610Y-11769630D02*
X10471610Y-11769630D01*
D12*
X10424862Y-11309761D02*
X10424862Y-11228938D01*
X10344039Y-11228938D01*
X10344039Y-11309761D01*
X10424862Y-11309761D01*
D11*
X7377937Y-12226544D02*
X7377937Y-12026544D01*
X7377937Y-12026544D02*
X7425556Y-12026544D01*
X7425556Y-12026544D02*
X7454127Y-12036068D01*
X7454127Y-12036068D02*
X7473175Y-12055115D01*
X7473175Y-12055115D02*
X7482699Y-12074163D01*
X7482699Y-12074163D02*
X7492222Y-12112258D01*
X7492222Y-12112258D02*
X7492222Y-12140829D01*
X7492222Y-12140829D02*
X7482699Y-12178925D01*
X7482699Y-12178925D02*
X7473175Y-12197972D01*
X7473175Y-12197972D02*
X7454127Y-12217020D01*
X7454127Y-12217020D02*
X7425556Y-12226544D01*
X7425556Y-12226544D02*
X7377937Y-12226544D01*
X7577937Y-12226544D02*
X7577937Y-12093210D01*
X7577937Y-12131306D02*
X7587461Y-12112258D01*
X7587461Y-12112258D02*
X7596984Y-12102734D01*
X7596984Y-12102734D02*
X7616032Y-12093210D01*
X7616032Y-12093210D02*
X7635080Y-12093210D01*
X7701746Y-12226544D02*
X7701746Y-12093210D01*
X7701746Y-12026544D02*
X7692222Y-12036068D01*
X7692222Y-12036068D02*
X7701746Y-12045591D01*
X7701746Y-12045591D02*
X7711270Y-12036068D01*
X7711270Y-12036068D02*
X7701746Y-12026544D01*
X7701746Y-12026544D02*
X7701746Y-12045591D01*
X7825556Y-12226544D02*
X7806508Y-12217020D01*
X7806508Y-12217020D02*
X7796984Y-12197972D01*
X7796984Y-12197972D02*
X7796984Y-12026544D01*
X7930318Y-12226544D02*
X7911270Y-12217020D01*
X7911270Y-12217020D02*
X7901746Y-12197972D01*
X7901746Y-12197972D02*
X7901746Y-12026544D01*
X8158889Y-12226544D02*
X8158889Y-12026544D01*
X8158889Y-12026544D02*
X8225556Y-12169401D01*
X8225556Y-12169401D02*
X8292222Y-12026544D01*
X8292222Y-12026544D02*
X8292222Y-12226544D01*
X8473175Y-12226544D02*
X8473175Y-12121782D01*
X8473175Y-12121782D02*
X8463651Y-12102734D01*
X8463651Y-12102734D02*
X8444604Y-12093210D01*
X8444604Y-12093210D02*
X8406508Y-12093210D01*
X8406508Y-12093210D02*
X8387461Y-12102734D01*
X8473175Y-12217020D02*
X8454127Y-12226544D01*
X8454127Y-12226544D02*
X8406508Y-12226544D01*
X8406508Y-12226544D02*
X8387461Y-12217020D01*
X8387461Y-12217020D02*
X8377937Y-12197972D01*
X8377937Y-12197972D02*
X8377937Y-12178925D01*
X8377937Y-12178925D02*
X8387461Y-12159877D01*
X8387461Y-12159877D02*
X8406508Y-12150353D01*
X8406508Y-12150353D02*
X8454127Y-12150353D01*
X8454127Y-12150353D02*
X8473175Y-12140829D01*
X8568413Y-12093210D02*
X8568413Y-12293210D01*
X8568413Y-12102734D02*
X8587461Y-12093210D01*
X8587461Y-12093210D02*
X8625556Y-12093210D01*
X8625556Y-12093210D02*
X8644604Y-12102734D01*
X8644604Y-12102734D02*
X8654127Y-12112258D01*
X8654127Y-12112258D02*
X8663651Y-12131306D01*
X8663651Y-12131306D02*
X8663651Y-12188448D01*
X8663651Y-12188448D02*
X8654127Y-12207496D01*
X8654127Y-12207496D02*
X8644604Y-12217020D01*
X8644604Y-12217020D02*
X8625556Y-12226544D01*
X8625556Y-12226544D02*
X8587461Y-12226544D01*
X8587461Y-12226544D02*
X8568413Y-12217020D01*
X8749365Y-12207496D02*
X8758889Y-12217020D01*
X8758889Y-12217020D02*
X8749365Y-12226544D01*
X8749365Y-12226544D02*
X8739842Y-12217020D01*
X8739842Y-12217020D02*
X8749365Y-12207496D01*
X8749365Y-12207496D02*
X8749365Y-12226544D01*
X8749365Y-12102734D02*
X8758889Y-12112258D01*
X8758889Y-12112258D02*
X8749365Y-12121782D01*
X8749365Y-12121782D02*
X8739842Y-12112258D01*
X8739842Y-12112258D02*
X8749365Y-12102734D01*
X8749365Y-12102734D02*
X8749365Y-12121782D01*
D10*
X7091760Y-12542360D02*
X7117160Y-12567760D01*
X7117160Y-12542360D02*
X7091760Y-12567760D01*
D11*
X7416032Y-12446544D02*
X7435080Y-12446544D01*
X7435080Y-12446544D02*
X7454127Y-12456068D01*
X7454127Y-12456068D02*
X7463651Y-12465591D01*
X7463651Y-12465591D02*
X7473175Y-12484639D01*
X7473175Y-12484639D02*
X7482699Y-12522734D01*
X7482699Y-12522734D02*
X7482699Y-12570353D01*
X7482699Y-12570353D02*
X7473175Y-12608448D01*
X7473175Y-12608448D02*
X7463651Y-12627496D01*
X7463651Y-12627496D02*
X7454127Y-12637020D01*
X7454127Y-12637020D02*
X7435080Y-12646544D01*
X7435080Y-12646544D02*
X7416032Y-12646544D01*
X7416032Y-12646544D02*
X7396984Y-12637020D01*
X7396984Y-12637020D02*
X7387461Y-12627496D01*
X7387461Y-12627496D02*
X7377937Y-12608448D01*
X7377937Y-12608448D02*
X7368413Y-12570353D01*
X7368413Y-12570353D02*
X7368413Y-12522734D01*
X7368413Y-12522734D02*
X7377937Y-12484639D01*
X7377937Y-12484639D02*
X7387461Y-12465591D01*
X7387461Y-12465591D02*
X7396984Y-12456068D01*
X7396984Y-12456068D02*
X7416032Y-12446544D01*
X7568413Y-12627496D02*
X7577937Y-12637020D01*
X7577937Y-12637020D02*
X7568413Y-12646544D01*
X7568413Y-12646544D02*
X7558889Y-12637020D01*
X7558889Y-12637020D02*
X7568413Y-12627496D01*
X7568413Y-12627496D02*
X7568413Y-12646544D01*
X7654127Y-12465591D02*
X7663651Y-12456068D01*
X7663651Y-12456068D02*
X7682699Y-12446544D01*
X7682699Y-12446544D02*
X7730318Y-12446544D01*
X7730318Y-12446544D02*
X7749365Y-12456068D01*
X7749365Y-12456068D02*
X7758889Y-12465591D01*
X7758889Y-12465591D02*
X7768413Y-12484639D01*
X7768413Y-12484639D02*
X7768413Y-12503687D01*
X7768413Y-12503687D02*
X7758889Y-12532258D01*
X7758889Y-12532258D02*
X7644603Y-12646544D01*
X7644603Y-12646544D02*
X7768413Y-12646544D01*
X7949365Y-12446544D02*
X7854127Y-12446544D01*
X7854127Y-12446544D02*
X7844603Y-12541782D01*
X7844603Y-12541782D02*
X7854127Y-12532258D01*
X7854127Y-12532258D02*
X7873175Y-12522734D01*
X7873175Y-12522734D02*
X7920794Y-12522734D01*
X7920794Y-12522734D02*
X7939842Y-12532258D01*
X7939842Y-12532258D02*
X7949365Y-12541782D01*
X7949365Y-12541782D02*
X7958889Y-12560829D01*
X7958889Y-12560829D02*
X7958889Y-12608448D01*
X7958889Y-12608448D02*
X7949365Y-12627496D01*
X7949365Y-12627496D02*
X7939842Y-12637020D01*
X7939842Y-12637020D02*
X7920794Y-12646544D01*
X7920794Y-12646544D02*
X7873175Y-12646544D01*
X7873175Y-12646544D02*
X7854127Y-12637020D01*
X7854127Y-12637020D02*
X7844603Y-12627496D01*
X8130318Y-12513210D02*
X8130318Y-12646544D01*
X8082699Y-12437020D02*
X8035080Y-12579877D01*
X8035080Y-12579877D02*
X8158889Y-12579877D01*
X8235080Y-12646544D02*
X8235080Y-12513210D01*
X8235080Y-12532258D02*
X8244603Y-12522734D01*
X8244603Y-12522734D02*
X8263651Y-12513210D01*
X8263651Y-12513210D02*
X8292223Y-12513210D01*
X8292223Y-12513210D02*
X8311270Y-12522734D01*
X8311270Y-12522734D02*
X8320794Y-12541782D01*
X8320794Y-12541782D02*
X8320794Y-12646544D01*
X8320794Y-12541782D02*
X8330318Y-12522734D01*
X8330318Y-12522734D02*
X8349365Y-12513210D01*
X8349365Y-12513210D02*
X8377937Y-12513210D01*
X8377937Y-12513210D02*
X8396985Y-12522734D01*
X8396985Y-12522734D02*
X8406508Y-12541782D01*
X8406508Y-12541782D02*
X8406508Y-12646544D01*
X8501746Y-12646544D02*
X8501746Y-12513210D01*
X8501746Y-12532258D02*
X8511270Y-12522734D01*
X8511270Y-12522734D02*
X8530318Y-12513210D01*
X8530318Y-12513210D02*
X8558889Y-12513210D01*
X8558889Y-12513210D02*
X8577937Y-12522734D01*
X8577937Y-12522734D02*
X8587461Y-12541782D01*
X8587461Y-12541782D02*
X8587461Y-12646544D01*
X8587461Y-12541782D02*
X8596985Y-12522734D01*
X8596985Y-12522734D02*
X8616032Y-12513210D01*
X8616032Y-12513210D02*
X8644604Y-12513210D01*
X8644604Y-12513210D02*
X8663651Y-12522734D01*
X8663651Y-12522734D02*
X8673175Y-12541782D01*
X8673175Y-12541782D02*
X8673175Y-12646544D01*
X9063651Y-12437020D02*
X8892223Y-12694163D01*
X9320794Y-12446544D02*
X9339842Y-12446544D01*
X9339842Y-12446544D02*
X9358889Y-12456068D01*
X9358889Y-12456068D02*
X9368413Y-12465591D01*
X9368413Y-12465591D02*
X9377937Y-12484639D01*
X9377937Y-12484639D02*
X9387461Y-12522734D01*
X9387461Y-12522734D02*
X9387461Y-12570353D01*
X9387461Y-12570353D02*
X9377937Y-12608448D01*
X9377937Y-12608448D02*
X9368413Y-12627496D01*
X9368413Y-12627496D02*
X9358889Y-12637020D01*
X9358889Y-12637020D02*
X9339842Y-12646544D01*
X9339842Y-12646544D02*
X9320794Y-12646544D01*
X9320794Y-12646544D02*
X9301747Y-12637020D01*
X9301747Y-12637020D02*
X9292223Y-12627496D01*
X9292223Y-12627496D02*
X9282699Y-12608448D01*
X9282699Y-12608448D02*
X9273175Y-12570353D01*
X9273175Y-12570353D02*
X9273175Y-12522734D01*
X9273175Y-12522734D02*
X9282699Y-12484639D01*
X9282699Y-12484639D02*
X9292223Y-12465591D01*
X9292223Y-12465591D02*
X9301747Y-12456068D01*
X9301747Y-12456068D02*
X9320794Y-12446544D01*
X9473175Y-12627496D02*
X9482699Y-12637020D01*
X9482699Y-12637020D02*
X9473175Y-12646544D01*
X9473175Y-12646544D02*
X9463651Y-12637020D01*
X9463651Y-12637020D02*
X9473175Y-12627496D01*
X9473175Y-12627496D02*
X9473175Y-12646544D01*
X9606508Y-12446544D02*
X9625556Y-12446544D01*
X9625556Y-12446544D02*
X9644604Y-12456068D01*
X9644604Y-12456068D02*
X9654128Y-12465591D01*
X9654128Y-12465591D02*
X9663651Y-12484639D01*
X9663651Y-12484639D02*
X9673175Y-12522734D01*
X9673175Y-12522734D02*
X9673175Y-12570353D01*
X9673175Y-12570353D02*
X9663651Y-12608448D01*
X9663651Y-12608448D02*
X9654128Y-12627496D01*
X9654128Y-12627496D02*
X9644604Y-12637020D01*
X9644604Y-12637020D02*
X9625556Y-12646544D01*
X9625556Y-12646544D02*
X9606508Y-12646544D01*
X9606508Y-12646544D02*
X9587461Y-12637020D01*
X9587461Y-12637020D02*
X9577937Y-12627496D01*
X9577937Y-12627496D02*
X9568413Y-12608448D01*
X9568413Y-12608448D02*
X9558889Y-12570353D01*
X9558889Y-12570353D02*
X9558889Y-12522734D01*
X9558889Y-12522734D02*
X9568413Y-12484639D01*
X9568413Y-12484639D02*
X9577937Y-12465591D01*
X9577937Y-12465591D02*
X9587461Y-12456068D01*
X9587461Y-12456068D02*
X9606508Y-12446544D01*
X9863651Y-12646544D02*
X9749366Y-12646544D01*
X9806508Y-12646544D02*
X9806508Y-12446544D01*
X9806508Y-12446544D02*
X9787461Y-12475115D01*
X9787461Y-12475115D02*
X9768413Y-12494163D01*
X9768413Y-12494163D02*
X9749366Y-12503687D01*
X9987461Y-12446544D02*
X10006509Y-12446544D01*
X10006509Y-12446544D02*
X10025556Y-12456068D01*
X10025556Y-12456068D02*
X10035080Y-12465591D01*
X10035080Y-12465591D02*
X10044604Y-12484639D01*
X10044604Y-12484639D02*
X10054128Y-12522734D01*
X10054128Y-12522734D02*
X10054128Y-12570353D01*
X10054128Y-12570353D02*
X10044604Y-12608448D01*
X10044604Y-12608448D02*
X10035080Y-12627496D01*
X10035080Y-12627496D02*
X10025556Y-12637020D01*
X10025556Y-12637020D02*
X10006509Y-12646544D01*
X10006509Y-12646544D02*
X9987461Y-12646544D01*
X9987461Y-12646544D02*
X9968413Y-12637020D01*
X9968413Y-12637020D02*
X9958889Y-12627496D01*
X9958889Y-12627496D02*
X9949366Y-12608448D01*
X9949366Y-12608448D02*
X9939842Y-12570353D01*
X9939842Y-12570353D02*
X9939842Y-12522734D01*
X9939842Y-12522734D02*
X9949366Y-12484639D01*
X9949366Y-12484639D02*
X9958889Y-12465591D01*
X9958889Y-12465591D02*
X9968413Y-12456068D01*
X9968413Y-12456068D02*
X9987461Y-12446544D01*
X10177937Y-12446544D02*
X10196985Y-12446544D01*
X10196985Y-12446544D02*
X10216032Y-12456068D01*
X10216032Y-12456068D02*
X10225556Y-12465591D01*
X10225556Y-12465591D02*
X10235080Y-12484639D01*
X10235080Y-12484639D02*
X10244604Y-12522734D01*
X10244604Y-12522734D02*
X10244604Y-12570353D01*
X10244604Y-12570353D02*
X10235080Y-12608448D01*
X10235080Y-12608448D02*
X10225556Y-12627496D01*
X10225556Y-12627496D02*
X10216032Y-12637020D01*
X10216032Y-12637020D02*
X10196985Y-12646544D01*
X10196985Y-12646544D02*
X10177937Y-12646544D01*
X10177937Y-12646544D02*
X10158889Y-12637020D01*
X10158889Y-12637020D02*
X10149366Y-12627496D01*
X10149366Y-12627496D02*
X10139842Y-12608448D01*
X10139842Y-12608448D02*
X10130318Y-12570353D01*
X10130318Y-12570353D02*
X10130318Y-12522734D01*
X10130318Y-12522734D02*
X10139842Y-12484639D01*
X10139842Y-12484639D02*
X10149366Y-12465591D01*
X10149366Y-12465591D02*
X10158889Y-12456068D01*
X10158889Y-12456068D02*
X10177937Y-12446544D01*
X10320794Y-12446544D02*
X10320794Y-12484639D01*
X10396985Y-12446544D02*
X10396985Y-12484639D01*
X10692223Y-12722734D02*
X10682699Y-12713210D01*
X10682699Y-12713210D02*
X10663651Y-12684639D01*
X10663651Y-12684639D02*
X10654128Y-12665591D01*
X10654128Y-12665591D02*
X10644604Y-12637020D01*
X10644604Y-12637020D02*
X10635080Y-12589401D01*
X10635080Y-12589401D02*
X10635080Y-12551306D01*
X10635080Y-12551306D02*
X10644604Y-12503687D01*
X10644604Y-12503687D02*
X10654128Y-12475115D01*
X10654128Y-12475115D02*
X10663651Y-12456068D01*
X10663651Y-12456068D02*
X10682699Y-12427496D01*
X10682699Y-12427496D02*
X10692223Y-12417972D01*
X10873175Y-12646544D02*
X10758890Y-12646544D01*
X10816032Y-12646544D02*
X10816032Y-12446544D01*
X10816032Y-12446544D02*
X10796985Y-12475115D01*
X10796985Y-12475115D02*
X10777937Y-12494163D01*
X10777937Y-12494163D02*
X10758890Y-12503687D01*
X11111271Y-12646544D02*
X11111271Y-12446544D01*
X11196985Y-12646544D02*
X11196985Y-12541782D01*
X11196985Y-12541782D02*
X11187461Y-12522734D01*
X11187461Y-12522734D02*
X11168413Y-12513210D01*
X11168413Y-12513210D02*
X11139842Y-12513210D01*
X11139842Y-12513210D02*
X11120794Y-12522734D01*
X11120794Y-12522734D02*
X11111271Y-12532258D01*
X11320794Y-12646544D02*
X11301747Y-12637020D01*
X11301747Y-12637020D02*
X11292223Y-12627496D01*
X11292223Y-12627496D02*
X11282699Y-12608448D01*
X11282699Y-12608448D02*
X11282699Y-12551306D01*
X11282699Y-12551306D02*
X11292223Y-12532258D01*
X11292223Y-12532258D02*
X11301747Y-12522734D01*
X11301747Y-12522734D02*
X11320794Y-12513210D01*
X11320794Y-12513210D02*
X11349366Y-12513210D01*
X11349366Y-12513210D02*
X11368413Y-12522734D01*
X11368413Y-12522734D02*
X11377937Y-12532258D01*
X11377937Y-12532258D02*
X11387461Y-12551306D01*
X11387461Y-12551306D02*
X11387461Y-12608448D01*
X11387461Y-12608448D02*
X11377937Y-12627496D01*
X11377937Y-12627496D02*
X11368413Y-12637020D01*
X11368413Y-12637020D02*
X11349366Y-12646544D01*
X11349366Y-12646544D02*
X11320794Y-12646544D01*
X11501747Y-12646544D02*
X11482699Y-12637020D01*
X11482699Y-12637020D02*
X11473175Y-12617972D01*
X11473175Y-12617972D02*
X11473175Y-12446544D01*
X11654128Y-12637020D02*
X11635080Y-12646544D01*
X11635080Y-12646544D02*
X11596985Y-12646544D01*
X11596985Y-12646544D02*
X11577937Y-12637020D01*
X11577937Y-12637020D02*
X11568413Y-12617972D01*
X11568413Y-12617972D02*
X11568413Y-12541782D01*
X11568413Y-12541782D02*
X11577937Y-12522734D01*
X11577937Y-12522734D02*
X11596985Y-12513210D01*
X11596985Y-12513210D02*
X11635080Y-12513210D01*
X11635080Y-12513210D02*
X11654128Y-12522734D01*
X11654128Y-12522734D02*
X11663651Y-12541782D01*
X11663651Y-12541782D02*
X11663651Y-12560829D01*
X11663651Y-12560829D02*
X11568413Y-12579877D01*
X11730318Y-12722734D02*
X11739842Y-12713210D01*
X11739842Y-12713210D02*
X11758890Y-12684639D01*
X11758890Y-12684639D02*
X11768413Y-12665591D01*
X11768413Y-12665591D02*
X11777937Y-12637020D01*
X11777937Y-12637020D02*
X11787461Y-12589401D01*
X11787461Y-12589401D02*
X11787461Y-12551306D01*
X11787461Y-12551306D02*
X11777937Y-12503687D01*
X11777937Y-12503687D02*
X11768413Y-12475115D01*
X11768413Y-12475115D02*
X11758890Y-12456068D01*
X11758890Y-12456068D02*
X11739842Y-12427496D01*
X11739842Y-12427496D02*
X11730318Y-12417972D01*
D10*
X7117160Y-12819060D02*
G75*
G02*
X7077160Y-12819060I-20000J0D01*
G01*
X7077160Y-12819060D02*
G75*
G02*
X7117160Y-12819060I20000J0D01*
G01*
D11*
X7416032Y-12710544D02*
X7435080Y-12710544D01*
X7435080Y-12710544D02*
X7454127Y-12720068D01*
X7454127Y-12720068D02*
X7463651Y-12729591D01*
X7463651Y-12729591D02*
X7473175Y-12748639D01*
X7473175Y-12748639D02*
X7482699Y-12786734D01*
X7482699Y-12786734D02*
X7482699Y-12834353D01*
X7482699Y-12834353D02*
X7473175Y-12872448D01*
X7473175Y-12872448D02*
X7463651Y-12891496D01*
X7463651Y-12891496D02*
X7454127Y-12901020D01*
X7454127Y-12901020D02*
X7435080Y-12910544D01*
X7435080Y-12910544D02*
X7416032Y-12910544D01*
X7416032Y-12910544D02*
X7396984Y-12901020D01*
X7396984Y-12901020D02*
X7387461Y-12891496D01*
X7387461Y-12891496D02*
X7377937Y-12872448D01*
X7377937Y-12872448D02*
X7368413Y-12834353D01*
X7368413Y-12834353D02*
X7368413Y-12786734D01*
X7368413Y-12786734D02*
X7377937Y-12748639D01*
X7377937Y-12748639D02*
X7387461Y-12729591D01*
X7387461Y-12729591D02*
X7396984Y-12720068D01*
X7396984Y-12720068D02*
X7416032Y-12710544D01*
X7568413Y-12891496D02*
X7577937Y-12901020D01*
X7577937Y-12901020D02*
X7568413Y-12910544D01*
X7568413Y-12910544D02*
X7558889Y-12901020D01*
X7558889Y-12901020D02*
X7568413Y-12891496D01*
X7568413Y-12891496D02*
X7568413Y-12910544D01*
X7749365Y-12777210D02*
X7749365Y-12910544D01*
X7701746Y-12701020D02*
X7654127Y-12843877D01*
X7654127Y-12843877D02*
X7777937Y-12843877D01*
X7892222Y-12710544D02*
X7911270Y-12710544D01*
X7911270Y-12710544D02*
X7930318Y-12720068D01*
X7930318Y-12720068D02*
X7939842Y-12729591D01*
X7939842Y-12729591D02*
X7949365Y-12748639D01*
X7949365Y-12748639D02*
X7958889Y-12786734D01*
X7958889Y-12786734D02*
X7958889Y-12834353D01*
X7958889Y-12834353D02*
X7949365Y-12872448D01*
X7949365Y-12872448D02*
X7939842Y-12891496D01*
X7939842Y-12891496D02*
X7930318Y-12901020D01*
X7930318Y-12901020D02*
X7911270Y-12910544D01*
X7911270Y-12910544D02*
X7892222Y-12910544D01*
X7892222Y-12910544D02*
X7873175Y-12901020D01*
X7873175Y-12901020D02*
X7863651Y-12891496D01*
X7863651Y-12891496D02*
X7854127Y-12872448D01*
X7854127Y-12872448D02*
X7844603Y-12834353D01*
X7844603Y-12834353D02*
X7844603Y-12786734D01*
X7844603Y-12786734D02*
X7854127Y-12748639D01*
X7854127Y-12748639D02*
X7863651Y-12729591D01*
X7863651Y-12729591D02*
X7873175Y-12720068D01*
X7873175Y-12720068D02*
X7892222Y-12710544D01*
X8082699Y-12710544D02*
X8101746Y-12710544D01*
X8101746Y-12710544D02*
X8120794Y-12720068D01*
X8120794Y-12720068D02*
X8130318Y-12729591D01*
X8130318Y-12729591D02*
X8139842Y-12748639D01*
X8139842Y-12748639D02*
X8149365Y-12786734D01*
X8149365Y-12786734D02*
X8149365Y-12834353D01*
X8149365Y-12834353D02*
X8139842Y-12872448D01*
X8139842Y-12872448D02*
X8130318Y-12891496D01*
X8130318Y-12891496D02*
X8120794Y-12901020D01*
X8120794Y-12901020D02*
X8101746Y-12910544D01*
X8101746Y-12910544D02*
X8082699Y-12910544D01*
X8082699Y-12910544D02*
X8063651Y-12901020D01*
X8063651Y-12901020D02*
X8054127Y-12891496D01*
X8054127Y-12891496D02*
X8044603Y-12872448D01*
X8044603Y-12872448D02*
X8035080Y-12834353D01*
X8035080Y-12834353D02*
X8035080Y-12786734D01*
X8035080Y-12786734D02*
X8044603Y-12748639D01*
X8044603Y-12748639D02*
X8054127Y-12729591D01*
X8054127Y-12729591D02*
X8063651Y-12720068D01*
X8063651Y-12720068D02*
X8082699Y-12710544D01*
X8235080Y-12910544D02*
X8235080Y-12777210D01*
X8235080Y-12796258D02*
X8244603Y-12786734D01*
X8244603Y-12786734D02*
X8263651Y-12777210D01*
X8263651Y-12777210D02*
X8292223Y-12777210D01*
X8292223Y-12777210D02*
X8311270Y-12786734D01*
X8311270Y-12786734D02*
X8320794Y-12805782D01*
X8320794Y-12805782D02*
X8320794Y-12910544D01*
X8320794Y-12805782D02*
X8330318Y-12786734D01*
X8330318Y-12786734D02*
X8349365Y-12777210D01*
X8349365Y-12777210D02*
X8377937Y-12777210D01*
X8377937Y-12777210D02*
X8396985Y-12786734D01*
X8396985Y-12786734D02*
X8406508Y-12805782D01*
X8406508Y-12805782D02*
X8406508Y-12910544D01*
X8501746Y-12910544D02*
X8501746Y-12777210D01*
X8501746Y-12796258D02*
X8511270Y-12786734D01*
X8511270Y-12786734D02*
X8530318Y-12777210D01*
X8530318Y-12777210D02*
X8558889Y-12777210D01*
X8558889Y-12777210D02*
X8577937Y-12786734D01*
X8577937Y-12786734D02*
X8587461Y-12805782D01*
X8587461Y-12805782D02*
X8587461Y-12910544D01*
X8587461Y-12805782D02*
X8596985Y-12786734D01*
X8596985Y-12786734D02*
X8616032Y-12777210D01*
X8616032Y-12777210D02*
X8644604Y-12777210D01*
X8644604Y-12777210D02*
X8663651Y-12786734D01*
X8663651Y-12786734D02*
X8673175Y-12805782D01*
X8673175Y-12805782D02*
X8673175Y-12910544D01*
X9063651Y-12701020D02*
X8892223Y-12958163D01*
X9320794Y-12710544D02*
X9339842Y-12710544D01*
X9339842Y-12710544D02*
X9358889Y-12720068D01*
X9358889Y-12720068D02*
X9368413Y-12729591D01*
X9368413Y-12729591D02*
X9377937Y-12748639D01*
X9377937Y-12748639D02*
X9387461Y-12786734D01*
X9387461Y-12786734D02*
X9387461Y-12834353D01*
X9387461Y-12834353D02*
X9377937Y-12872448D01*
X9377937Y-12872448D02*
X9368413Y-12891496D01*
X9368413Y-12891496D02*
X9358889Y-12901020D01*
X9358889Y-12901020D02*
X9339842Y-12910544D01*
X9339842Y-12910544D02*
X9320794Y-12910544D01*
X9320794Y-12910544D02*
X9301747Y-12901020D01*
X9301747Y-12901020D02*
X9292223Y-12891496D01*
X9292223Y-12891496D02*
X9282699Y-12872448D01*
X9282699Y-12872448D02*
X9273175Y-12834353D01*
X9273175Y-12834353D02*
X9273175Y-12786734D01*
X9273175Y-12786734D02*
X9282699Y-12748639D01*
X9282699Y-12748639D02*
X9292223Y-12729591D01*
X9292223Y-12729591D02*
X9301747Y-12720068D01*
X9301747Y-12720068D02*
X9320794Y-12710544D01*
X9473175Y-12891496D02*
X9482699Y-12901020D01*
X9482699Y-12901020D02*
X9473175Y-12910544D01*
X9473175Y-12910544D02*
X9463651Y-12901020D01*
X9463651Y-12901020D02*
X9473175Y-12891496D01*
X9473175Y-12891496D02*
X9473175Y-12910544D01*
X9606508Y-12710544D02*
X9625556Y-12710544D01*
X9625556Y-12710544D02*
X9644604Y-12720068D01*
X9644604Y-12720068D02*
X9654128Y-12729591D01*
X9654128Y-12729591D02*
X9663651Y-12748639D01*
X9663651Y-12748639D02*
X9673175Y-12786734D01*
X9673175Y-12786734D02*
X9673175Y-12834353D01*
X9673175Y-12834353D02*
X9663651Y-12872448D01*
X9663651Y-12872448D02*
X9654128Y-12891496D01*
X9654128Y-12891496D02*
X9644604Y-12901020D01*
X9644604Y-12901020D02*
X9625556Y-12910544D01*
X9625556Y-12910544D02*
X9606508Y-12910544D01*
X9606508Y-12910544D02*
X9587461Y-12901020D01*
X9587461Y-12901020D02*
X9577937Y-12891496D01*
X9577937Y-12891496D02*
X9568413Y-12872448D01*
X9568413Y-12872448D02*
X9558889Y-12834353D01*
X9558889Y-12834353D02*
X9558889Y-12786734D01*
X9558889Y-12786734D02*
X9568413Y-12748639D01*
X9568413Y-12748639D02*
X9577937Y-12729591D01*
X9577937Y-12729591D02*
X9587461Y-12720068D01*
X9587461Y-12720068D02*
X9606508Y-12710544D01*
X9863651Y-12910544D02*
X9749366Y-12910544D01*
X9806508Y-12910544D02*
X9806508Y-12710544D01*
X9806508Y-12710544D02*
X9787461Y-12739115D01*
X9787461Y-12739115D02*
X9768413Y-12758163D01*
X9768413Y-12758163D02*
X9749366Y-12767687D01*
X10044604Y-12710544D02*
X9949366Y-12710544D01*
X9949366Y-12710544D02*
X9939842Y-12805782D01*
X9939842Y-12805782D02*
X9949366Y-12796258D01*
X9949366Y-12796258D02*
X9968413Y-12786734D01*
X9968413Y-12786734D02*
X10016032Y-12786734D01*
X10016032Y-12786734D02*
X10035080Y-12796258D01*
X10035080Y-12796258D02*
X10044604Y-12805782D01*
X10044604Y-12805782D02*
X10054128Y-12824829D01*
X10054128Y-12824829D02*
X10054128Y-12872448D01*
X10054128Y-12872448D02*
X10044604Y-12891496D01*
X10044604Y-12891496D02*
X10035080Y-12901020D01*
X10035080Y-12901020D02*
X10016032Y-12910544D01*
X10016032Y-12910544D02*
X9968413Y-12910544D01*
X9968413Y-12910544D02*
X9949366Y-12901020D01*
X9949366Y-12901020D02*
X9939842Y-12891496D01*
X10120794Y-12710544D02*
X10254128Y-12710544D01*
X10254128Y-12710544D02*
X10168413Y-12910544D01*
X10320794Y-12710544D02*
X10320794Y-12748639D01*
X10396985Y-12710544D02*
X10396985Y-12748639D01*
X10692223Y-12986734D02*
X10682699Y-12977210D01*
X10682699Y-12977210D02*
X10663651Y-12948639D01*
X10663651Y-12948639D02*
X10654128Y-12929591D01*
X10654128Y-12929591D02*
X10644604Y-12901020D01*
X10644604Y-12901020D02*
X10635080Y-12853401D01*
X10635080Y-12853401D02*
X10635080Y-12815306D01*
X10635080Y-12815306D02*
X10644604Y-12767687D01*
X10644604Y-12767687D02*
X10654128Y-12739115D01*
X10654128Y-12739115D02*
X10663651Y-12720068D01*
X10663651Y-12720068D02*
X10682699Y-12691496D01*
X10682699Y-12691496D02*
X10692223Y-12681972D01*
X10749366Y-12710544D02*
X10882699Y-12710544D01*
X10882699Y-12710544D02*
X10796985Y-12910544D01*
X11111271Y-12910544D02*
X11111271Y-12710544D01*
X11196985Y-12910544D02*
X11196985Y-12805782D01*
X11196985Y-12805782D02*
X11187461Y-12786734D01*
X11187461Y-12786734D02*
X11168413Y-12777210D01*
X11168413Y-12777210D02*
X11139842Y-12777210D01*
X11139842Y-12777210D02*
X11120794Y-12786734D01*
X11120794Y-12786734D02*
X11111271Y-12796258D01*
X11320794Y-12910544D02*
X11301747Y-12901020D01*
X11301747Y-12901020D02*
X11292223Y-12891496D01*
X11292223Y-12891496D02*
X11282699Y-12872448D01*
X11282699Y-12872448D02*
X11282699Y-12815306D01*
X11282699Y-12815306D02*
X11292223Y-12796258D01*
X11292223Y-12796258D02*
X11301747Y-12786734D01*
X11301747Y-12786734D02*
X11320794Y-12777210D01*
X11320794Y-12777210D02*
X11349366Y-12777210D01*
X11349366Y-12777210D02*
X11368413Y-12786734D01*
X11368413Y-12786734D02*
X11377937Y-12796258D01*
X11377937Y-12796258D02*
X11387461Y-12815306D01*
X11387461Y-12815306D02*
X11387461Y-12872448D01*
X11387461Y-12872448D02*
X11377937Y-12891496D01*
X11377937Y-12891496D02*
X11368413Y-12901020D01*
X11368413Y-12901020D02*
X11349366Y-12910544D01*
X11349366Y-12910544D02*
X11320794Y-12910544D01*
X11501747Y-12910544D02*
X11482699Y-12901020D01*
X11482699Y-12901020D02*
X11473175Y-12881972D01*
X11473175Y-12881972D02*
X11473175Y-12710544D01*
X11654128Y-12901020D02*
X11635080Y-12910544D01*
X11635080Y-12910544D02*
X11596985Y-12910544D01*
X11596985Y-12910544D02*
X11577937Y-12901020D01*
X11577937Y-12901020D02*
X11568413Y-12881972D01*
X11568413Y-12881972D02*
X11568413Y-12805782D01*
X11568413Y-12805782D02*
X11577937Y-12786734D01*
X11577937Y-12786734D02*
X11596985Y-12777210D01*
X11596985Y-12777210D02*
X11635080Y-12777210D01*
X11635080Y-12777210D02*
X11654128Y-12786734D01*
X11654128Y-12786734D02*
X11663651Y-12805782D01*
X11663651Y-12805782D02*
X11663651Y-12824829D01*
X11663651Y-12824829D02*
X11568413Y-12843877D01*
X11739842Y-12901020D02*
X11758890Y-12910544D01*
X11758890Y-12910544D02*
X11796985Y-12910544D01*
X11796985Y-12910544D02*
X11816032Y-12901020D01*
X11816032Y-12901020D02*
X11825556Y-12881972D01*
X11825556Y-12881972D02*
X11825556Y-12872448D01*
X11825556Y-12872448D02*
X11816032Y-12853401D01*
X11816032Y-12853401D02*
X11796985Y-12843877D01*
X11796985Y-12843877D02*
X11768413Y-12843877D01*
X11768413Y-12843877D02*
X11749366Y-12834353D01*
X11749366Y-12834353D02*
X11739842Y-12815306D01*
X11739842Y-12815306D02*
X11739842Y-12805782D01*
X11739842Y-12805782D02*
X11749366Y-12786734D01*
X11749366Y-12786734D02*
X11768413Y-12777210D01*
X11768413Y-12777210D02*
X11796985Y-12777210D01*
X11796985Y-12777210D02*
X11816032Y-12786734D01*
X11892223Y-12986734D02*
X11901747Y-12977210D01*
X11901747Y-12977210D02*
X11920794Y-12948639D01*
X11920794Y-12948639D02*
X11930318Y-12929591D01*
X11930318Y-12929591D02*
X11939842Y-12901020D01*
X11939842Y-12901020D02*
X11949366Y-12853401D01*
X11949366Y-12853401D02*
X11949366Y-12815306D01*
X11949366Y-12815306D02*
X11939842Y-12767687D01*
X11939842Y-12767687D02*
X11930318Y-12739115D01*
X11930318Y-12739115D02*
X11920794Y-12720068D01*
X11920794Y-12720068D02*
X11901747Y-12691496D01*
X11901747Y-12691496D02*
X11892223Y-12681972D01*
D10*
X7067160Y-13033060D02*
X7067160Y-13133060D01*
X7017160Y-13083060D02*
X7117160Y-13083060D01*
D11*
X7482699Y-13174544D02*
X7368413Y-13174544D01*
X7425556Y-13174544D02*
X7425556Y-12974544D01*
X7425556Y-12974544D02*
X7406508Y-13003115D01*
X7406508Y-13003115D02*
X7387461Y-13022163D01*
X7387461Y-13022163D02*
X7368413Y-13031687D01*
X7568413Y-13155496D02*
X7577937Y-13165020D01*
X7577937Y-13165020D02*
X7568413Y-13174544D01*
X7568413Y-13174544D02*
X7558889Y-13165020D01*
X7558889Y-13165020D02*
X7568413Y-13155496D01*
X7568413Y-13155496D02*
X7568413Y-13174544D01*
X7701746Y-12974544D02*
X7720794Y-12974544D01*
X7720794Y-12974544D02*
X7739842Y-12984068D01*
X7739842Y-12984068D02*
X7749365Y-12993591D01*
X7749365Y-12993591D02*
X7758889Y-13012639D01*
X7758889Y-13012639D02*
X7768413Y-13050734D01*
X7768413Y-13050734D02*
X7768413Y-13098353D01*
X7768413Y-13098353D02*
X7758889Y-13136448D01*
X7758889Y-13136448D02*
X7749365Y-13155496D01*
X7749365Y-13155496D02*
X7739842Y-13165020D01*
X7739842Y-13165020D02*
X7720794Y-13174544D01*
X7720794Y-13174544D02*
X7701746Y-13174544D01*
X7701746Y-13174544D02*
X7682699Y-13165020D01*
X7682699Y-13165020D02*
X7673175Y-13155496D01*
X7673175Y-13155496D02*
X7663651Y-13136448D01*
X7663651Y-13136448D02*
X7654127Y-13098353D01*
X7654127Y-13098353D02*
X7654127Y-13050734D01*
X7654127Y-13050734D02*
X7663651Y-13012639D01*
X7663651Y-13012639D02*
X7673175Y-12993591D01*
X7673175Y-12993591D02*
X7682699Y-12984068D01*
X7682699Y-12984068D02*
X7701746Y-12974544D01*
X7892222Y-12974544D02*
X7911270Y-12974544D01*
X7911270Y-12974544D02*
X7930318Y-12984068D01*
X7930318Y-12984068D02*
X7939842Y-12993591D01*
X7939842Y-12993591D02*
X7949365Y-13012639D01*
X7949365Y-13012639D02*
X7958889Y-13050734D01*
X7958889Y-13050734D02*
X7958889Y-13098353D01*
X7958889Y-13098353D02*
X7949365Y-13136448D01*
X7949365Y-13136448D02*
X7939842Y-13155496D01*
X7939842Y-13155496D02*
X7930318Y-13165020D01*
X7930318Y-13165020D02*
X7911270Y-13174544D01*
X7911270Y-13174544D02*
X7892222Y-13174544D01*
X7892222Y-13174544D02*
X7873175Y-13165020D01*
X7873175Y-13165020D02*
X7863651Y-13155496D01*
X7863651Y-13155496D02*
X7854127Y-13136448D01*
X7854127Y-13136448D02*
X7844603Y-13098353D01*
X7844603Y-13098353D02*
X7844603Y-13050734D01*
X7844603Y-13050734D02*
X7854127Y-13012639D01*
X7854127Y-13012639D02*
X7863651Y-12993591D01*
X7863651Y-12993591D02*
X7873175Y-12984068D01*
X7873175Y-12984068D02*
X7892222Y-12974544D01*
X8082699Y-12974544D02*
X8101746Y-12974544D01*
X8101746Y-12974544D02*
X8120794Y-12984068D01*
X8120794Y-12984068D02*
X8130318Y-12993591D01*
X8130318Y-12993591D02*
X8139842Y-13012639D01*
X8139842Y-13012639D02*
X8149365Y-13050734D01*
X8149365Y-13050734D02*
X8149365Y-13098353D01*
X8149365Y-13098353D02*
X8139842Y-13136448D01*
X8139842Y-13136448D02*
X8130318Y-13155496D01*
X8130318Y-13155496D02*
X8120794Y-13165020D01*
X8120794Y-13165020D02*
X8101746Y-13174544D01*
X8101746Y-13174544D02*
X8082699Y-13174544D01*
X8082699Y-13174544D02*
X8063651Y-13165020D01*
X8063651Y-13165020D02*
X8054127Y-13155496D01*
X8054127Y-13155496D02*
X8044603Y-13136448D01*
X8044603Y-13136448D02*
X8035080Y-13098353D01*
X8035080Y-13098353D02*
X8035080Y-13050734D01*
X8035080Y-13050734D02*
X8044603Y-13012639D01*
X8044603Y-13012639D02*
X8054127Y-12993591D01*
X8054127Y-12993591D02*
X8063651Y-12984068D01*
X8063651Y-12984068D02*
X8082699Y-12974544D01*
X8235080Y-13174544D02*
X8235080Y-13041210D01*
X8235080Y-13060258D02*
X8244603Y-13050734D01*
X8244603Y-13050734D02*
X8263651Y-13041210D01*
X8263651Y-13041210D02*
X8292223Y-13041210D01*
X8292223Y-13041210D02*
X8311270Y-13050734D01*
X8311270Y-13050734D02*
X8320794Y-13069782D01*
X8320794Y-13069782D02*
X8320794Y-13174544D01*
X8320794Y-13069782D02*
X8330318Y-13050734D01*
X8330318Y-13050734D02*
X8349365Y-13041210D01*
X8349365Y-13041210D02*
X8377937Y-13041210D01*
X8377937Y-13041210D02*
X8396985Y-13050734D01*
X8396985Y-13050734D02*
X8406508Y-13069782D01*
X8406508Y-13069782D02*
X8406508Y-13174544D01*
X8501746Y-13174544D02*
X8501746Y-13041210D01*
X8501746Y-13060258D02*
X8511270Y-13050734D01*
X8511270Y-13050734D02*
X8530318Y-13041210D01*
X8530318Y-13041210D02*
X8558889Y-13041210D01*
X8558889Y-13041210D02*
X8577937Y-13050734D01*
X8577937Y-13050734D02*
X8587461Y-13069782D01*
X8587461Y-13069782D02*
X8587461Y-13174544D01*
X8587461Y-13069782D02*
X8596985Y-13050734D01*
X8596985Y-13050734D02*
X8616032Y-13041210D01*
X8616032Y-13041210D02*
X8644604Y-13041210D01*
X8644604Y-13041210D02*
X8663651Y-13050734D01*
X8663651Y-13050734D02*
X8673175Y-13069782D01*
X8673175Y-13069782D02*
X8673175Y-13174544D01*
X9063651Y-12965020D02*
X8892223Y-13222163D01*
X9320794Y-12974544D02*
X9339842Y-12974544D01*
X9339842Y-12974544D02*
X9358889Y-12984068D01*
X9358889Y-12984068D02*
X9368413Y-12993591D01*
X9368413Y-12993591D02*
X9377937Y-13012639D01*
X9377937Y-13012639D02*
X9387461Y-13050734D01*
X9387461Y-13050734D02*
X9387461Y-13098353D01*
X9387461Y-13098353D02*
X9377937Y-13136448D01*
X9377937Y-13136448D02*
X9368413Y-13155496D01*
X9368413Y-13155496D02*
X9358889Y-13165020D01*
X9358889Y-13165020D02*
X9339842Y-13174544D01*
X9339842Y-13174544D02*
X9320794Y-13174544D01*
X9320794Y-13174544D02*
X9301747Y-13165020D01*
X9301747Y-13165020D02*
X9292223Y-13155496D01*
X9292223Y-13155496D02*
X9282699Y-13136448D01*
X9282699Y-13136448D02*
X9273175Y-13098353D01*
X9273175Y-13098353D02*
X9273175Y-13050734D01*
X9273175Y-13050734D02*
X9282699Y-13012639D01*
X9282699Y-13012639D02*
X9292223Y-12993591D01*
X9292223Y-12993591D02*
X9301747Y-12984068D01*
X9301747Y-12984068D02*
X9320794Y-12974544D01*
X9473175Y-13155496D02*
X9482699Y-13165020D01*
X9482699Y-13165020D02*
X9473175Y-13174544D01*
X9473175Y-13174544D02*
X9463651Y-13165020D01*
X9463651Y-13165020D02*
X9473175Y-13155496D01*
X9473175Y-13155496D02*
X9473175Y-13174544D01*
X9606508Y-12974544D02*
X9625556Y-12974544D01*
X9625556Y-12974544D02*
X9644604Y-12984068D01*
X9644604Y-12984068D02*
X9654128Y-12993591D01*
X9654128Y-12993591D02*
X9663651Y-13012639D01*
X9663651Y-13012639D02*
X9673175Y-13050734D01*
X9673175Y-13050734D02*
X9673175Y-13098353D01*
X9673175Y-13098353D02*
X9663651Y-13136448D01*
X9663651Y-13136448D02*
X9654128Y-13155496D01*
X9654128Y-13155496D02*
X9644604Y-13165020D01*
X9644604Y-13165020D02*
X9625556Y-13174544D01*
X9625556Y-13174544D02*
X9606508Y-13174544D01*
X9606508Y-13174544D02*
X9587461Y-13165020D01*
X9587461Y-13165020D02*
X9577937Y-13155496D01*
X9577937Y-13155496D02*
X9568413Y-13136448D01*
X9568413Y-13136448D02*
X9558889Y-13098353D01*
X9558889Y-13098353D02*
X9558889Y-13050734D01*
X9558889Y-13050734D02*
X9568413Y-13012639D01*
X9568413Y-13012639D02*
X9577937Y-12993591D01*
X9577937Y-12993591D02*
X9587461Y-12984068D01*
X9587461Y-12984068D02*
X9606508Y-12974544D01*
X9739842Y-12974544D02*
X9863651Y-12974544D01*
X9863651Y-12974544D02*
X9796985Y-13050734D01*
X9796985Y-13050734D02*
X9825556Y-13050734D01*
X9825556Y-13050734D02*
X9844604Y-13060258D01*
X9844604Y-13060258D02*
X9854128Y-13069782D01*
X9854128Y-13069782D02*
X9863651Y-13088829D01*
X9863651Y-13088829D02*
X9863651Y-13136448D01*
X9863651Y-13136448D02*
X9854128Y-13155496D01*
X9854128Y-13155496D02*
X9844604Y-13165020D01*
X9844604Y-13165020D02*
X9825556Y-13174544D01*
X9825556Y-13174544D02*
X9768413Y-13174544D01*
X9768413Y-13174544D02*
X9749366Y-13165020D01*
X9749366Y-13165020D02*
X9739842Y-13155496D01*
X9958889Y-13174544D02*
X9996985Y-13174544D01*
X9996985Y-13174544D02*
X10016032Y-13165020D01*
X10016032Y-13165020D02*
X10025556Y-13155496D01*
X10025556Y-13155496D02*
X10044604Y-13126925D01*
X10044604Y-13126925D02*
X10054128Y-13088829D01*
X10054128Y-13088829D02*
X10054128Y-13012639D01*
X10054128Y-13012639D02*
X10044604Y-12993591D01*
X10044604Y-12993591D02*
X10035080Y-12984068D01*
X10035080Y-12984068D02*
X10016032Y-12974544D01*
X10016032Y-12974544D02*
X9977937Y-12974544D01*
X9977937Y-12974544D02*
X9958889Y-12984068D01*
X9958889Y-12984068D02*
X9949366Y-12993591D01*
X9949366Y-12993591D02*
X9939842Y-13012639D01*
X9939842Y-13012639D02*
X9939842Y-13060258D01*
X9939842Y-13060258D02*
X9949366Y-13079306D01*
X9949366Y-13079306D02*
X9958889Y-13088829D01*
X9958889Y-13088829D02*
X9977937Y-13098353D01*
X9977937Y-13098353D02*
X10016032Y-13098353D01*
X10016032Y-13098353D02*
X10035080Y-13088829D01*
X10035080Y-13088829D02*
X10044604Y-13079306D01*
X10044604Y-13079306D02*
X10054128Y-13060258D01*
X10225556Y-13041210D02*
X10225556Y-13174544D01*
X10177937Y-12965020D02*
X10130318Y-13107877D01*
X10130318Y-13107877D02*
X10254128Y-13107877D01*
X10320794Y-12974544D02*
X10320794Y-13012639D01*
X10396985Y-12974544D02*
X10396985Y-13012639D01*
X10692223Y-13250734D02*
X10682699Y-13241210D01*
X10682699Y-13241210D02*
X10663651Y-13212639D01*
X10663651Y-13212639D02*
X10654128Y-13193591D01*
X10654128Y-13193591D02*
X10644604Y-13165020D01*
X10644604Y-13165020D02*
X10635080Y-13117401D01*
X10635080Y-13117401D02*
X10635080Y-13079306D01*
X10635080Y-13079306D02*
X10644604Y-13031687D01*
X10644604Y-13031687D02*
X10654128Y-13003115D01*
X10654128Y-13003115D02*
X10663651Y-12984068D01*
X10663651Y-12984068D02*
X10682699Y-12955496D01*
X10682699Y-12955496D02*
X10692223Y-12945972D01*
X10758890Y-12993591D02*
X10768413Y-12984068D01*
X10768413Y-12984068D02*
X10787461Y-12974544D01*
X10787461Y-12974544D02*
X10835080Y-12974544D01*
X10835080Y-12974544D02*
X10854128Y-12984068D01*
X10854128Y-12984068D02*
X10863651Y-12993591D01*
X10863651Y-12993591D02*
X10873175Y-13012639D01*
X10873175Y-13012639D02*
X10873175Y-13031687D01*
X10873175Y-13031687D02*
X10863651Y-13060258D01*
X10863651Y-13060258D02*
X10749366Y-13174544D01*
X10749366Y-13174544D02*
X10873175Y-13174544D01*
X10996985Y-12974544D02*
X11016032Y-12974544D01*
X11016032Y-12974544D02*
X11035080Y-12984068D01*
X11035080Y-12984068D02*
X11044604Y-12993591D01*
X11044604Y-12993591D02*
X11054128Y-13012639D01*
X11054128Y-13012639D02*
X11063651Y-13050734D01*
X11063651Y-13050734D02*
X11063651Y-13098353D01*
X11063651Y-13098353D02*
X11054128Y-13136448D01*
X11054128Y-13136448D02*
X11044604Y-13155496D01*
X11044604Y-13155496D02*
X11035080Y-13165020D01*
X11035080Y-13165020D02*
X11016032Y-13174544D01*
X11016032Y-13174544D02*
X10996985Y-13174544D01*
X10996985Y-13174544D02*
X10977937Y-13165020D01*
X10977937Y-13165020D02*
X10968413Y-13155496D01*
X10968413Y-13155496D02*
X10958890Y-13136448D01*
X10958890Y-13136448D02*
X10949366Y-13098353D01*
X10949366Y-13098353D02*
X10949366Y-13050734D01*
X10949366Y-13050734D02*
X10958890Y-13012639D01*
X10958890Y-13012639D02*
X10968413Y-12993591D01*
X10968413Y-12993591D02*
X10977937Y-12984068D01*
X10977937Y-12984068D02*
X10996985Y-12974544D01*
X11301747Y-13174544D02*
X11301747Y-12974544D01*
X11387461Y-13174544D02*
X11387461Y-13069782D01*
X11387461Y-13069782D02*
X11377937Y-13050734D01*
X11377937Y-13050734D02*
X11358890Y-13041210D01*
X11358890Y-13041210D02*
X11330318Y-13041210D01*
X11330318Y-13041210D02*
X11311270Y-13050734D01*
X11311270Y-13050734D02*
X11301747Y-13060258D01*
X11511270Y-13174544D02*
X11492223Y-13165020D01*
X11492223Y-13165020D02*
X11482699Y-13155496D01*
X11482699Y-13155496D02*
X11473175Y-13136448D01*
X11473175Y-13136448D02*
X11473175Y-13079306D01*
X11473175Y-13079306D02*
X11482699Y-13060258D01*
X11482699Y-13060258D02*
X11492223Y-13050734D01*
X11492223Y-13050734D02*
X11511270Y-13041210D01*
X11511270Y-13041210D02*
X11539842Y-13041210D01*
X11539842Y-13041210D02*
X11558890Y-13050734D01*
X11558890Y-13050734D02*
X11568413Y-13060258D01*
X11568413Y-13060258D02*
X11577937Y-13079306D01*
X11577937Y-13079306D02*
X11577937Y-13136448D01*
X11577937Y-13136448D02*
X11568413Y-13155496D01*
X11568413Y-13155496D02*
X11558890Y-13165020D01*
X11558890Y-13165020D02*
X11539842Y-13174544D01*
X11539842Y-13174544D02*
X11511270Y-13174544D01*
X11692223Y-13174544D02*
X11673175Y-13165020D01*
X11673175Y-13165020D02*
X11663651Y-13145972D01*
X11663651Y-13145972D02*
X11663651Y-12974544D01*
X11844604Y-13165020D02*
X11825556Y-13174544D01*
X11825556Y-13174544D02*
X11787461Y-13174544D01*
X11787461Y-13174544D02*
X11768413Y-13165020D01*
X11768413Y-13165020D02*
X11758890Y-13145972D01*
X11758890Y-13145972D02*
X11758890Y-13069782D01*
X11758890Y-13069782D02*
X11768413Y-13050734D01*
X11768413Y-13050734D02*
X11787461Y-13041210D01*
X11787461Y-13041210D02*
X11825556Y-13041210D01*
X11825556Y-13041210D02*
X11844604Y-13050734D01*
X11844604Y-13050734D02*
X11854128Y-13069782D01*
X11854128Y-13069782D02*
X11854128Y-13088829D01*
X11854128Y-13088829D02*
X11758890Y-13107877D01*
X11930318Y-13165020D02*
X11949366Y-13174544D01*
X11949366Y-13174544D02*
X11987461Y-13174544D01*
X11987461Y-13174544D02*
X12006509Y-13165020D01*
X12006509Y-13165020D02*
X12016032Y-13145972D01*
X12016032Y-13145972D02*
X12016032Y-13136448D01*
X12016032Y-13136448D02*
X12006509Y-13117401D01*
X12006509Y-13117401D02*
X11987461Y-13107877D01*
X11987461Y-13107877D02*
X11958890Y-13107877D01*
X11958890Y-13107877D02*
X11939842Y-13098353D01*
X11939842Y-13098353D02*
X11930318Y-13079306D01*
X11930318Y-13079306D02*
X11930318Y-13069782D01*
X11930318Y-13069782D02*
X11939842Y-13050734D01*
X11939842Y-13050734D02*
X11958890Y-13041210D01*
X11958890Y-13041210D02*
X11987461Y-13041210D01*
X11987461Y-13041210D02*
X12006509Y-13050734D01*
X12082699Y-13250734D02*
X12092223Y-13241210D01*
X12092223Y-13241210D02*
X12111271Y-13212639D01*
X12111271Y-13212639D02*
X12120794Y-13193591D01*
X12120794Y-13193591D02*
X12130318Y-13165020D01*
X12130318Y-13165020D02*
X12139842Y-13117401D01*
X12139842Y-13117401D02*
X12139842Y-13079306D01*
X12139842Y-13079306D02*
X12130318Y-13031687D01*
X12130318Y-13031687D02*
X12120794Y-13003115D01*
X12120794Y-13003115D02*
X12111271Y-12984068D01*
X12111271Y-12984068D02*
X12092223Y-12955496D01*
X12092223Y-12955496D02*
X12082699Y-12945972D01*
D12*
X7100421Y-13387471D02*
X7100421Y-13306648D01*
X7019598Y-13306648D01*
X7019598Y-13387471D01*
X7100421Y-13387471D01*
D11*
X7482699Y-13438544D02*
X7368413Y-13438544D01*
X7425556Y-13438544D02*
X7425556Y-13238544D01*
X7425556Y-13238544D02*
X7406508Y-13267115D01*
X7406508Y-13267115D02*
X7387461Y-13286163D01*
X7387461Y-13286163D02*
X7368413Y-13295687D01*
X7568413Y-13419496D02*
X7577937Y-13429020D01*
X7577937Y-13429020D02*
X7568413Y-13438544D01*
X7568413Y-13438544D02*
X7558889Y-13429020D01*
X7558889Y-13429020D02*
X7568413Y-13419496D01*
X7568413Y-13419496D02*
X7568413Y-13438544D01*
X7768413Y-13438544D02*
X7654127Y-13438544D01*
X7711270Y-13438544D02*
X7711270Y-13238544D01*
X7711270Y-13238544D02*
X7692222Y-13267115D01*
X7692222Y-13267115D02*
X7673175Y-13286163D01*
X7673175Y-13286163D02*
X7654127Y-13295687D01*
X7939842Y-13305210D02*
X7939842Y-13438544D01*
X7892222Y-13229020D02*
X7844603Y-13371877D01*
X7844603Y-13371877D02*
X7968413Y-13371877D01*
X8025556Y-13238544D02*
X8149365Y-13238544D01*
X8149365Y-13238544D02*
X8082699Y-13314734D01*
X8082699Y-13314734D02*
X8111270Y-13314734D01*
X8111270Y-13314734D02*
X8130318Y-13324258D01*
X8130318Y-13324258D02*
X8139842Y-13333782D01*
X8139842Y-13333782D02*
X8149365Y-13352829D01*
X8149365Y-13352829D02*
X8149365Y-13400448D01*
X8149365Y-13400448D02*
X8139842Y-13419496D01*
X8139842Y-13419496D02*
X8130318Y-13429020D01*
X8130318Y-13429020D02*
X8111270Y-13438544D01*
X8111270Y-13438544D02*
X8054127Y-13438544D01*
X8054127Y-13438544D02*
X8035080Y-13429020D01*
X8035080Y-13429020D02*
X8025556Y-13419496D01*
X8235080Y-13438544D02*
X8235080Y-13305210D01*
X8235080Y-13324258D02*
X8244603Y-13314734D01*
X8244603Y-13314734D02*
X8263651Y-13305210D01*
X8263651Y-13305210D02*
X8292223Y-13305210D01*
X8292223Y-13305210D02*
X8311270Y-13314734D01*
X8311270Y-13314734D02*
X8320794Y-13333782D01*
X8320794Y-13333782D02*
X8320794Y-13438544D01*
X8320794Y-13333782D02*
X8330318Y-13314734D01*
X8330318Y-13314734D02*
X8349365Y-13305210D01*
X8349365Y-13305210D02*
X8377937Y-13305210D01*
X8377937Y-13305210D02*
X8396985Y-13314734D01*
X8396985Y-13314734D02*
X8406508Y-13333782D01*
X8406508Y-13333782D02*
X8406508Y-13438544D01*
X8501746Y-13438544D02*
X8501746Y-13305210D01*
X8501746Y-13324258D02*
X8511270Y-13314734D01*
X8511270Y-13314734D02*
X8530318Y-13305210D01*
X8530318Y-13305210D02*
X8558889Y-13305210D01*
X8558889Y-13305210D02*
X8577937Y-13314734D01*
X8577937Y-13314734D02*
X8587461Y-13333782D01*
X8587461Y-13333782D02*
X8587461Y-13438544D01*
X8587461Y-13333782D02*
X8596985Y-13314734D01*
X8596985Y-13314734D02*
X8616032Y-13305210D01*
X8616032Y-13305210D02*
X8644604Y-13305210D01*
X8644604Y-13305210D02*
X8663651Y-13314734D01*
X8663651Y-13314734D02*
X8673175Y-13333782D01*
X8673175Y-13333782D02*
X8673175Y-13438544D01*
X9063651Y-13229020D02*
X8892223Y-13486163D01*
X9320794Y-13238544D02*
X9339842Y-13238544D01*
X9339842Y-13238544D02*
X9358889Y-13248068D01*
X9358889Y-13248068D02*
X9368413Y-13257591D01*
X9368413Y-13257591D02*
X9377937Y-13276639D01*
X9377937Y-13276639D02*
X9387461Y-13314734D01*
X9387461Y-13314734D02*
X9387461Y-13362353D01*
X9387461Y-13362353D02*
X9377937Y-13400448D01*
X9377937Y-13400448D02*
X9368413Y-13419496D01*
X9368413Y-13419496D02*
X9358889Y-13429020D01*
X9358889Y-13429020D02*
X9339842Y-13438544D01*
X9339842Y-13438544D02*
X9320794Y-13438544D01*
X9320794Y-13438544D02*
X9301747Y-13429020D01*
X9301747Y-13429020D02*
X9292223Y-13419496D01*
X9292223Y-13419496D02*
X9282699Y-13400448D01*
X9282699Y-13400448D02*
X9273175Y-13362353D01*
X9273175Y-13362353D02*
X9273175Y-13314734D01*
X9273175Y-13314734D02*
X9282699Y-13276639D01*
X9282699Y-13276639D02*
X9292223Y-13257591D01*
X9292223Y-13257591D02*
X9301747Y-13248068D01*
X9301747Y-13248068D02*
X9320794Y-13238544D01*
X9473175Y-13419496D02*
X9482699Y-13429020D01*
X9482699Y-13429020D02*
X9473175Y-13438544D01*
X9473175Y-13438544D02*
X9463651Y-13429020D01*
X9463651Y-13429020D02*
X9473175Y-13419496D01*
X9473175Y-13419496D02*
X9473175Y-13438544D01*
X9606508Y-13238544D02*
X9625556Y-13238544D01*
X9625556Y-13238544D02*
X9644604Y-13248068D01*
X9644604Y-13248068D02*
X9654128Y-13257591D01*
X9654128Y-13257591D02*
X9663651Y-13276639D01*
X9663651Y-13276639D02*
X9673175Y-13314734D01*
X9673175Y-13314734D02*
X9673175Y-13362353D01*
X9673175Y-13362353D02*
X9663651Y-13400448D01*
X9663651Y-13400448D02*
X9654128Y-13419496D01*
X9654128Y-13419496D02*
X9644604Y-13429020D01*
X9644604Y-13429020D02*
X9625556Y-13438544D01*
X9625556Y-13438544D02*
X9606508Y-13438544D01*
X9606508Y-13438544D02*
X9587461Y-13429020D01*
X9587461Y-13429020D02*
X9577937Y-13419496D01*
X9577937Y-13419496D02*
X9568413Y-13400448D01*
X9568413Y-13400448D02*
X9558889Y-13362353D01*
X9558889Y-13362353D02*
X9558889Y-13314734D01*
X9558889Y-13314734D02*
X9568413Y-13276639D01*
X9568413Y-13276639D02*
X9577937Y-13257591D01*
X9577937Y-13257591D02*
X9587461Y-13248068D01*
X9587461Y-13248068D02*
X9606508Y-13238544D01*
X9844604Y-13305210D02*
X9844604Y-13438544D01*
X9796985Y-13229020D02*
X9749366Y-13371877D01*
X9749366Y-13371877D02*
X9873175Y-13371877D01*
X10044604Y-13238544D02*
X9949366Y-13238544D01*
X9949366Y-13238544D02*
X9939842Y-13333782D01*
X9939842Y-13333782D02*
X9949366Y-13324258D01*
X9949366Y-13324258D02*
X9968413Y-13314734D01*
X9968413Y-13314734D02*
X10016032Y-13314734D01*
X10016032Y-13314734D02*
X10035080Y-13324258D01*
X10035080Y-13324258D02*
X10044604Y-13333782D01*
X10044604Y-13333782D02*
X10054128Y-13352829D01*
X10054128Y-13352829D02*
X10054128Y-13400448D01*
X10054128Y-13400448D02*
X10044604Y-13419496D01*
X10044604Y-13419496D02*
X10035080Y-13429020D01*
X10035080Y-13429020D02*
X10016032Y-13438544D01*
X10016032Y-13438544D02*
X9968413Y-13438544D01*
X9968413Y-13438544D02*
X9949366Y-13429020D01*
X9949366Y-13429020D02*
X9939842Y-13419496D01*
X10177937Y-13238544D02*
X10196985Y-13238544D01*
X10196985Y-13238544D02*
X10216032Y-13248068D01*
X10216032Y-13248068D02*
X10225556Y-13257591D01*
X10225556Y-13257591D02*
X10235080Y-13276639D01*
X10235080Y-13276639D02*
X10244604Y-13314734D01*
X10244604Y-13314734D02*
X10244604Y-13362353D01*
X10244604Y-13362353D02*
X10235080Y-13400448D01*
X10235080Y-13400448D02*
X10225556Y-13419496D01*
X10225556Y-13419496D02*
X10216032Y-13429020D01*
X10216032Y-13429020D02*
X10196985Y-13438544D01*
X10196985Y-13438544D02*
X10177937Y-13438544D01*
X10177937Y-13438544D02*
X10158889Y-13429020D01*
X10158889Y-13429020D02*
X10149366Y-13419496D01*
X10149366Y-13419496D02*
X10139842Y-13400448D01*
X10139842Y-13400448D02*
X10130318Y-13362353D01*
X10130318Y-13362353D02*
X10130318Y-13314734D01*
X10130318Y-13314734D02*
X10139842Y-13276639D01*
X10139842Y-13276639D02*
X10149366Y-13257591D01*
X10149366Y-13257591D02*
X10158889Y-13248068D01*
X10158889Y-13248068D02*
X10177937Y-13238544D01*
X10320794Y-13238544D02*
X10320794Y-13276639D01*
X10396985Y-13238544D02*
X10396985Y-13276639D01*
X10692223Y-13514734D02*
X10682699Y-13505210D01*
X10682699Y-13505210D02*
X10663651Y-13476639D01*
X10663651Y-13476639D02*
X10654128Y-13457591D01*
X10654128Y-13457591D02*
X10644604Y-13429020D01*
X10644604Y-13429020D02*
X10635080Y-13381401D01*
X10635080Y-13381401D02*
X10635080Y-13343306D01*
X10635080Y-13343306D02*
X10644604Y-13295687D01*
X10644604Y-13295687D02*
X10654128Y-13267115D01*
X10654128Y-13267115D02*
X10663651Y-13248068D01*
X10663651Y-13248068D02*
X10682699Y-13219496D01*
X10682699Y-13219496D02*
X10692223Y-13209972D01*
X10873175Y-13438544D02*
X10758890Y-13438544D01*
X10816032Y-13438544D02*
X10816032Y-13238544D01*
X10816032Y-13238544D02*
X10796985Y-13267115D01*
X10796985Y-13267115D02*
X10777937Y-13286163D01*
X10777937Y-13286163D02*
X10758890Y-13295687D01*
X11111271Y-13438544D02*
X11111271Y-13238544D01*
X11196985Y-13438544D02*
X11196985Y-13333782D01*
X11196985Y-13333782D02*
X11187461Y-13314734D01*
X11187461Y-13314734D02*
X11168413Y-13305210D01*
X11168413Y-13305210D02*
X11139842Y-13305210D01*
X11139842Y-13305210D02*
X11120794Y-13314734D01*
X11120794Y-13314734D02*
X11111271Y-13324258D01*
X11320794Y-13438544D02*
X11301747Y-13429020D01*
X11301747Y-13429020D02*
X11292223Y-13419496D01*
X11292223Y-13419496D02*
X11282699Y-13400448D01*
X11282699Y-13400448D02*
X11282699Y-13343306D01*
X11282699Y-13343306D02*
X11292223Y-13324258D01*
X11292223Y-13324258D02*
X11301747Y-13314734D01*
X11301747Y-13314734D02*
X11320794Y-13305210D01*
X11320794Y-13305210D02*
X11349366Y-13305210D01*
X11349366Y-13305210D02*
X11368413Y-13314734D01*
X11368413Y-13314734D02*
X11377937Y-13324258D01*
X11377937Y-13324258D02*
X11387461Y-13343306D01*
X11387461Y-13343306D02*
X11387461Y-13400448D01*
X11387461Y-13400448D02*
X11377937Y-13419496D01*
X11377937Y-13419496D02*
X11368413Y-13429020D01*
X11368413Y-13429020D02*
X11349366Y-13438544D01*
X11349366Y-13438544D02*
X11320794Y-13438544D01*
X11501747Y-13438544D02*
X11482699Y-13429020D01*
X11482699Y-13429020D02*
X11473175Y-13409972D01*
X11473175Y-13409972D02*
X11473175Y-13238544D01*
X11654128Y-13429020D02*
X11635080Y-13438544D01*
X11635080Y-13438544D02*
X11596985Y-13438544D01*
X11596985Y-13438544D02*
X11577937Y-13429020D01*
X11577937Y-13429020D02*
X11568413Y-13409972D01*
X11568413Y-13409972D02*
X11568413Y-13333782D01*
X11568413Y-13333782D02*
X11577937Y-13314734D01*
X11577937Y-13314734D02*
X11596985Y-13305210D01*
X11596985Y-13305210D02*
X11635080Y-13305210D01*
X11635080Y-13305210D02*
X11654128Y-13314734D01*
X11654128Y-13314734D02*
X11663651Y-13333782D01*
X11663651Y-13333782D02*
X11663651Y-13352829D01*
X11663651Y-13352829D02*
X11568413Y-13371877D01*
X11730318Y-13514734D02*
X11739842Y-13505210D01*
X11739842Y-13505210D02*
X11758890Y-13476639D01*
X11758890Y-13476639D02*
X11768413Y-13457591D01*
X11768413Y-13457591D02*
X11777937Y-13429020D01*
X11777937Y-13429020D02*
X11787461Y-13381401D01*
X11787461Y-13381401D02*
X11787461Y-13343306D01*
X11787461Y-13343306D02*
X11777937Y-13295687D01*
X11777937Y-13295687D02*
X11768413Y-13267115D01*
X11768413Y-13267115D02*
X11758890Y-13248068D01*
X11758890Y-13248068D02*
X11739842Y-13219496D01*
X11739842Y-13219496D02*
X11730318Y-13209972D01*
M02*
