%TF.GenerationSoftware,KiCad,Pcbnew,9.0.7*%
%TF.CreationDate,2026-02-17T21:11:15-08:00*%
%TF.ProjectId,qfn-20-breakout,71666e2d-3230-42d6-9272-65616b6f7574,rev?*%
%TF.SameCoordinates,Original*%
%TF.FileFunction,Drillmap*%
%TF.FilePolarity,Positive*%
%FSLAX45Y45*%
G04 Gerber Fmt 4.5, Leading zero omitted, Abs format (unit mm)*
G04 Created by KiCad (PCBNEW 9.0.7) date 2026-02-17 21:11:15*
%MOMM*%
%LPD*%
G01*
G04 APERTURE LIST*
%ADD10C,0.100000*%
%ADD11C,0.200000*%
G04 APERTURE END LIST*
D10*
X7122160Y-10675620D02*
G75*
G02*
X7172960Y-10624820I50800J0D01*
G01*
X10556250Y-10675630D02*
X10556250Y-11859260D01*
X10556250Y-11859260D02*
G75*
G02*
X10505450Y-11910060I-50800J0D01*
G01*
X7172960Y-11910050D02*
G75*
G02*
X7122160Y-11859250I0J50800D01*
G01*
X10505450Y-11910060D02*
X7172960Y-11910060D01*
X7172960Y-10624820D02*
X10505440Y-10624820D01*
X10505440Y-10624820D02*
G75*
G02*
X10556250Y-10675630I0J-50810D01*
G01*
X7122160Y-11859250D02*
X7122160Y-10675620D01*
D11*
X7377937Y-12226544D02*
X7377937Y-12026544D01*
X7377937Y-12026544D02*
X7425556Y-12026544D01*
X7425556Y-12026544D02*
X7454127Y-12036068D01*
X7454127Y-12036068D02*
X7473175Y-12055115D01*
X7473175Y-12055115D02*
X7482699Y-12074163D01*
X7482699Y-12074163D02*
X7492222Y-12112258D01*
X7492222Y-12112258D02*
X7492222Y-12140829D01*
X7492222Y-12140829D02*
X7482699Y-12178925D01*
X7482699Y-12178925D02*
X7473175Y-12197972D01*
X7473175Y-12197972D02*
X7454127Y-12217020D01*
X7454127Y-12217020D02*
X7425556Y-12226544D01*
X7425556Y-12226544D02*
X7377937Y-12226544D01*
X7577937Y-12226544D02*
X7577937Y-12093210D01*
X7577937Y-12131306D02*
X7587461Y-12112258D01*
X7587461Y-12112258D02*
X7596984Y-12102734D01*
X7596984Y-12102734D02*
X7616032Y-12093210D01*
X7616032Y-12093210D02*
X7635080Y-12093210D01*
X7701746Y-12226544D02*
X7701746Y-12093210D01*
X7701746Y-12026544D02*
X7692222Y-12036068D01*
X7692222Y-12036068D02*
X7701746Y-12045591D01*
X7701746Y-12045591D02*
X7711270Y-12036068D01*
X7711270Y-12036068D02*
X7701746Y-12026544D01*
X7701746Y-12026544D02*
X7701746Y-12045591D01*
X7825556Y-12226544D02*
X7806508Y-12217020D01*
X7806508Y-12217020D02*
X7796984Y-12197972D01*
X7796984Y-12197972D02*
X7796984Y-12026544D01*
X7930318Y-12226544D02*
X7911270Y-12217020D01*
X7911270Y-12217020D02*
X7901746Y-12197972D01*
X7901746Y-12197972D02*
X7901746Y-12026544D01*
X8158889Y-12226544D02*
X8158889Y-12026544D01*
X8158889Y-12026544D02*
X8225556Y-12169401D01*
X8225556Y-12169401D02*
X8292222Y-12026544D01*
X8292222Y-12026544D02*
X8292222Y-12226544D01*
X8473175Y-12226544D02*
X8473175Y-12121782D01*
X8473175Y-12121782D02*
X8463651Y-12102734D01*
X8463651Y-12102734D02*
X8444604Y-12093210D01*
X8444604Y-12093210D02*
X8406508Y-12093210D01*
X8406508Y-12093210D02*
X8387461Y-12102734D01*
X8473175Y-12217020D02*
X8454127Y-12226544D01*
X8454127Y-12226544D02*
X8406508Y-12226544D01*
X8406508Y-12226544D02*
X8387461Y-12217020D01*
X8387461Y-12217020D02*
X8377937Y-12197972D01*
X8377937Y-12197972D02*
X8377937Y-12178925D01*
X8377937Y-12178925D02*
X8387461Y-12159877D01*
X8387461Y-12159877D02*
X8406508Y-12150353D01*
X8406508Y-12150353D02*
X8454127Y-12150353D01*
X8454127Y-12150353D02*
X8473175Y-12140829D01*
X8568413Y-12093210D02*
X8568413Y-12293210D01*
X8568413Y-12102734D02*
X8587461Y-12093210D01*
X8587461Y-12093210D02*
X8625556Y-12093210D01*
X8625556Y-12093210D02*
X8644604Y-12102734D01*
X8644604Y-12102734D02*
X8654127Y-12112258D01*
X8654127Y-12112258D02*
X8663651Y-12131306D01*
X8663651Y-12131306D02*
X8663651Y-12188448D01*
X8663651Y-12188448D02*
X8654127Y-12207496D01*
X8654127Y-12207496D02*
X8644604Y-12217020D01*
X8644604Y-12217020D02*
X8625556Y-12226544D01*
X8625556Y-12226544D02*
X8587461Y-12226544D01*
X8587461Y-12226544D02*
X8568413Y-12217020D01*
X8749365Y-12207496D02*
X8758889Y-12217020D01*
X8758889Y-12217020D02*
X8749365Y-12226544D01*
X8749365Y-12226544D02*
X8739842Y-12217020D01*
X8739842Y-12217020D02*
X8749365Y-12207496D01*
X8749365Y-12207496D02*
X8749365Y-12226544D01*
X8749365Y-12102734D02*
X8758889Y-12112258D01*
X8758889Y-12112258D02*
X8749365Y-12121782D01*
X8749365Y-12121782D02*
X8739842Y-12112258D01*
X8739842Y-12112258D02*
X8749365Y-12102734D01*
X8749365Y-12102734D02*
X8749365Y-12121782D01*
M02*
