M48
; DRILL file {KiCad 7.0.9} date Sun Feb 18 17:24:38 2024
; FORMAT={-:-/ absolute / metric / decimal}
; #@! TF.CreationDate,2024-02-18T17:24:38-08:00
; #@! TF.GenerationSoftware,Kicad,Pcbnew,7.0.9
; #@! TF.FileFunction,Plated,1,2,PTH
FMAT,2
METRIC
; #@! TA.AperFunction,Plated,PTH,ComponentDrill
T1C0.950
; #@! TA.AperFunction,Plated,PTH,ComponentDrill
T2C1.000
; #@! TA.AperFunction,Plated,PTH,ComponentDrill
T3C1.600
%
G90
G05
T1
X124.17Y-71.768
X124.17Y-74.308
X124.17Y-76.848
X124.17Y-79.388
X124.17Y-81.928
X124.17Y-84.468
X124.17Y-87.008
X124.17Y-89.548
X124.17Y-92.088
X124.17Y-94.628
X126.71Y-73.038
X126.71Y-75.578
X126.71Y-78.118
X126.71Y-80.658
X126.71Y-83.198
X126.71Y-85.738
X126.71Y-88.278
X126.71Y-90.818
X126.71Y-93.358
X126.71Y-95.898
T2
X120.396Y-71.755
X120.396Y-74.295
X120.396Y-76.835
X120.396Y-79.375
X120.396Y-81.915
X120.396Y-84.455
X120.396Y-86.995
X120.396Y-89.535
X120.396Y-92.075
X120.396Y-94.615
X130.556Y-71.755
X130.556Y-74.295
X130.556Y-76.835
X130.556Y-79.375
X130.556Y-81.915
X130.556Y-84.455
X130.556Y-86.995
X130.556Y-89.535
X130.556Y-92.075
X130.556Y-94.615
T3
X124.91Y-97.298
T0
M30
