%TF.GenerationSoftware,KiCad,Pcbnew,7.0.9*%
%TF.CreationDate,2024-02-18T17:24:34-08:00*%
%TF.ProjectId,micromatch-20-breakout,6d696372-6f6d-4617-9463-682d32302d62,rev?*%
%TF.SameCoordinates,Original*%
%TF.FileFunction,Legend,Bot*%
%TF.FilePolarity,Positive*%
%FSLAX46Y46*%
G04 Gerber Fmt 4.6, Leading zero omitted, Abs format (unit mm)*
G04 Created by KiCad (PCBNEW 7.0.9) date 2024-02-18 17:24:34*
%MOMM*%
%LPD*%
G01*
G04 APERTURE LIST*
G04 Aperture macros list*
%AMRoundRect*
0 Rectangle with rounded corners*
0 $1 Rounding radius*
0 $2 $3 $4 $5 $6 $7 $8 $9 X,Y pos of 4 corners*
0 Add a 4 corners polygon primitive as box body*
4,1,4,$2,$3,$4,$5,$6,$7,$8,$9,$2,$3,0*
0 Add four circle primitives for the rounded corners*
1,1,$1+$1,$2,$3*
1,1,$1+$1,$4,$5*
1,1,$1+$1,$6,$7*
1,1,$1+$1,$8,$9*
0 Add four rect primitives between the rounded corners*
20,1,$1+$1,$2,$3,$4,$5,0*
20,1,$1+$1,$4,$5,$6,$7,0*
20,1,$1+$1,$6,$7,$8,$9,0*
20,1,$1+$1,$8,$9,$2,$3,0*%
G04 Aperture macros list end*
%ADD10C,0.150000*%
%ADD11C,0.120000*%
%ADD12C,2.200000*%
%ADD13C,1.450000*%
%ADD14RoundRect,0.050000X0.850000X0.850000X-0.850000X0.850000X-0.850000X-0.850000X0.850000X-0.850000X0*%
%ADD15O,1.800000X1.800000*%
G04 APERTURE END LIST*
D10*
X130617744Y-98053057D02*
X130917744Y-97624485D01*
X131132030Y-98053057D02*
X131132030Y-97153057D01*
X131132030Y-97153057D02*
X130789173Y-97153057D01*
X130789173Y-97153057D02*
X130703458Y-97195914D01*
X130703458Y-97195914D02*
X130660601Y-97238771D01*
X130660601Y-97238771D02*
X130617744Y-97324485D01*
X130617744Y-97324485D02*
X130617744Y-97453057D01*
X130617744Y-97453057D02*
X130660601Y-97538771D01*
X130660601Y-97538771D02*
X130703458Y-97581628D01*
X130703458Y-97581628D02*
X130789173Y-97624485D01*
X130789173Y-97624485D02*
X131132030Y-97624485D01*
X130232030Y-97581628D02*
X129932030Y-97581628D01*
X129803458Y-98053057D02*
X130232030Y-98053057D01*
X130232030Y-98053057D02*
X130232030Y-97153057D01*
X130232030Y-97153057D02*
X129803458Y-97153057D01*
X129546315Y-97153057D02*
X129246315Y-98053057D01*
X129246315Y-98053057D02*
X128946315Y-97153057D01*
X127489172Y-98053057D02*
X128003458Y-98053057D01*
X127746315Y-98053057D02*
X127746315Y-97153057D01*
X127746315Y-97153057D02*
X127832029Y-97281628D01*
X127832029Y-97281628D02*
X127917744Y-97367342D01*
X127917744Y-97367342D02*
X128003458Y-97410200D01*
X129402189Y-69258427D02*
X129402189Y-69865570D01*
X129402189Y-69865570D02*
X129442666Y-69986998D01*
X129442666Y-69986998D02*
X129523618Y-70067951D01*
X129523618Y-70067951D02*
X129645047Y-70108427D01*
X129645047Y-70108427D02*
X129725999Y-70108427D01*
X128592666Y-70108427D02*
X128997428Y-70108427D01*
X128997428Y-70108427D02*
X128997428Y-69258427D01*
X127823618Y-70027474D02*
X127864094Y-70067951D01*
X127864094Y-70067951D02*
X127985523Y-70108427D01*
X127985523Y-70108427D02*
X128066475Y-70108427D01*
X128066475Y-70108427D02*
X128187904Y-70067951D01*
X128187904Y-70067951D02*
X128268856Y-69986998D01*
X128268856Y-69986998D02*
X128309333Y-69906046D01*
X128309333Y-69906046D02*
X128349809Y-69744141D01*
X128349809Y-69744141D02*
X128349809Y-69622712D01*
X128349809Y-69622712D02*
X128309333Y-69460808D01*
X128309333Y-69460808D02*
X128268856Y-69379855D01*
X128268856Y-69379855D02*
X128187904Y-69298903D01*
X128187904Y-69298903D02*
X128066475Y-69258427D01*
X128066475Y-69258427D02*
X127985523Y-69258427D01*
X127985523Y-69258427D02*
X127864094Y-69298903D01*
X127864094Y-69298903D02*
X127823618Y-69339379D01*
X127216475Y-69258427D02*
X127216475Y-69865570D01*
X127216475Y-69865570D02*
X127256952Y-69986998D01*
X127256952Y-69986998D02*
X127337904Y-70067951D01*
X127337904Y-70067951D02*
X127459333Y-70108427D01*
X127459333Y-70108427D02*
X127540285Y-70108427D01*
X126406952Y-70108427D02*
X126811714Y-70108427D01*
X126811714Y-70108427D02*
X126811714Y-69258427D01*
X125637904Y-70027474D02*
X125678380Y-70067951D01*
X125678380Y-70067951D02*
X125799809Y-70108427D01*
X125799809Y-70108427D02*
X125880761Y-70108427D01*
X125880761Y-70108427D02*
X126002190Y-70067951D01*
X126002190Y-70067951D02*
X126083142Y-69986998D01*
X126083142Y-69986998D02*
X126123619Y-69906046D01*
X126123619Y-69906046D02*
X126164095Y-69744141D01*
X126164095Y-69744141D02*
X126164095Y-69622712D01*
X126164095Y-69622712D02*
X126123619Y-69460808D01*
X126123619Y-69460808D02*
X126083142Y-69379855D01*
X126083142Y-69379855D02*
X126002190Y-69298903D01*
X126002190Y-69298903D02*
X125880761Y-69258427D01*
X125880761Y-69258427D02*
X125799809Y-69258427D01*
X125799809Y-69258427D02*
X125678380Y-69298903D01*
X125678380Y-69298903D02*
X125637904Y-69339379D01*
X125030761Y-69258427D02*
X125030761Y-69865570D01*
X125030761Y-69865570D02*
X125071238Y-69986998D01*
X125071238Y-69986998D02*
X125152190Y-70067951D01*
X125152190Y-70067951D02*
X125273619Y-70108427D01*
X125273619Y-70108427D02*
X125354571Y-70108427D01*
X124221238Y-70108427D02*
X124626000Y-70108427D01*
X124626000Y-70108427D02*
X124626000Y-69258427D01*
X123452190Y-70027474D02*
X123492666Y-70067951D01*
X123492666Y-70067951D02*
X123614095Y-70108427D01*
X123614095Y-70108427D02*
X123695047Y-70108427D01*
X123695047Y-70108427D02*
X123816476Y-70067951D01*
X123816476Y-70067951D02*
X123897428Y-69986998D01*
X123897428Y-69986998D02*
X123937905Y-69906046D01*
X123937905Y-69906046D02*
X123978381Y-69744141D01*
X123978381Y-69744141D02*
X123978381Y-69622712D01*
X123978381Y-69622712D02*
X123937905Y-69460808D01*
X123937905Y-69460808D02*
X123897428Y-69379855D01*
X123897428Y-69379855D02*
X123816476Y-69298903D01*
X123816476Y-69298903D02*
X123695047Y-69258427D01*
X123695047Y-69258427D02*
X123614095Y-69258427D01*
X123614095Y-69258427D02*
X123492666Y-69298903D01*
X123492666Y-69298903D02*
X123452190Y-69339379D01*
X122845047Y-69258427D02*
X122845047Y-69865570D01*
X122845047Y-69865570D02*
X122885524Y-69986998D01*
X122885524Y-69986998D02*
X122966476Y-70067951D01*
X122966476Y-70067951D02*
X123087905Y-70108427D01*
X123087905Y-70108427D02*
X123168857Y-70108427D01*
X122035524Y-70108427D02*
X122440286Y-70108427D01*
X122440286Y-70108427D02*
X122440286Y-69258427D01*
X121266476Y-70027474D02*
X121306952Y-70067951D01*
X121306952Y-70067951D02*
X121428381Y-70108427D01*
X121428381Y-70108427D02*
X121509333Y-70108427D01*
X121509333Y-70108427D02*
X121630762Y-70067951D01*
X121630762Y-70067951D02*
X121711714Y-69986998D01*
X121711714Y-69986998D02*
X121752191Y-69906046D01*
X121752191Y-69906046D02*
X121792667Y-69744141D01*
X121792667Y-69744141D02*
X121792667Y-69622712D01*
X121792667Y-69622712D02*
X121752191Y-69460808D01*
X121752191Y-69460808D02*
X121711714Y-69379855D01*
X121711714Y-69379855D02*
X121630762Y-69298903D01*
X121630762Y-69298903D02*
X121509333Y-69258427D01*
X121509333Y-69258427D02*
X121428381Y-69258427D01*
X121428381Y-69258427D02*
X121306952Y-69298903D01*
X121306952Y-69298903D02*
X121266476Y-69339379D01*
X128618242Y-73924713D02*
X128661100Y-73881856D01*
X128661100Y-73881856D02*
X128703957Y-73753284D01*
X128703957Y-73753284D02*
X128703957Y-73667570D01*
X128703957Y-73667570D02*
X128661100Y-73538999D01*
X128661100Y-73538999D02*
X128575385Y-73453284D01*
X128575385Y-73453284D02*
X128489671Y-73410427D01*
X128489671Y-73410427D02*
X128318242Y-73367570D01*
X128318242Y-73367570D02*
X128189671Y-73367570D01*
X128189671Y-73367570D02*
X128018242Y-73410427D01*
X128018242Y-73410427D02*
X127932528Y-73453284D01*
X127932528Y-73453284D02*
X127846814Y-73538999D01*
X127846814Y-73538999D02*
X127803957Y-73667570D01*
X127803957Y-73667570D02*
X127803957Y-73753284D01*
X127803957Y-73753284D02*
X127846814Y-73881856D01*
X127846814Y-73881856D02*
X127889671Y-73924713D01*
X128446814Y-74267570D02*
X128446814Y-74696142D01*
X128703957Y-74181856D02*
X127803957Y-74481856D01*
X127803957Y-74481856D02*
X128703957Y-74781856D01*
X128232528Y-75381856D02*
X128275385Y-75510428D01*
X128275385Y-75510428D02*
X128318242Y-75553285D01*
X128318242Y-75553285D02*
X128403957Y-75596142D01*
X128403957Y-75596142D02*
X128532528Y-75596142D01*
X128532528Y-75596142D02*
X128618242Y-75553285D01*
X128618242Y-75553285D02*
X128661100Y-75510428D01*
X128661100Y-75510428D02*
X128703957Y-75424713D01*
X128703957Y-75424713D02*
X128703957Y-75081856D01*
X128703957Y-75081856D02*
X127803957Y-75081856D01*
X127803957Y-75081856D02*
X127803957Y-75381856D01*
X127803957Y-75381856D02*
X127846814Y-75467571D01*
X127846814Y-75467571D02*
X127889671Y-75510428D01*
X127889671Y-75510428D02*
X127975385Y-75553285D01*
X127975385Y-75553285D02*
X128061100Y-75553285D01*
X128061100Y-75553285D02*
X128146814Y-75510428D01*
X128146814Y-75510428D02*
X128189671Y-75467571D01*
X128189671Y-75467571D02*
X128232528Y-75381856D01*
X128232528Y-75381856D02*
X128232528Y-75081856D01*
X128703957Y-76410428D02*
X128703957Y-75981856D01*
X128703957Y-75981856D02*
X127803957Y-75981856D01*
X128232528Y-76710427D02*
X128232528Y-77010427D01*
X128703957Y-77138999D02*
X128703957Y-76710427D01*
X128703957Y-76710427D02*
X127803957Y-76710427D01*
X127803957Y-76710427D02*
X127803957Y-77138999D01*
X128446814Y-78167570D02*
X128446814Y-78596142D01*
X128703957Y-78081856D02*
X127803957Y-78381856D01*
X127803957Y-78381856D02*
X128703957Y-78681856D01*
X128661100Y-78938999D02*
X128703957Y-79067571D01*
X128703957Y-79067571D02*
X128703957Y-79281856D01*
X128703957Y-79281856D02*
X128661100Y-79367571D01*
X128661100Y-79367571D02*
X128618242Y-79410428D01*
X128618242Y-79410428D02*
X128532528Y-79453285D01*
X128532528Y-79453285D02*
X128446814Y-79453285D01*
X128446814Y-79453285D02*
X128361100Y-79410428D01*
X128361100Y-79410428D02*
X128318242Y-79367571D01*
X128318242Y-79367571D02*
X128275385Y-79281856D01*
X128275385Y-79281856D02*
X128232528Y-79110428D01*
X128232528Y-79110428D02*
X128189671Y-79024713D01*
X128189671Y-79024713D02*
X128146814Y-78981856D01*
X128146814Y-78981856D02*
X128061100Y-78938999D01*
X128061100Y-78938999D02*
X127975385Y-78938999D01*
X127975385Y-78938999D02*
X127889671Y-78981856D01*
X127889671Y-78981856D02*
X127846814Y-79024713D01*
X127846814Y-79024713D02*
X127803957Y-79110428D01*
X127803957Y-79110428D02*
X127803957Y-79324713D01*
X127803957Y-79324713D02*
X127846814Y-79453285D01*
X128661100Y-79796142D02*
X128703957Y-79924714D01*
X128703957Y-79924714D02*
X128703957Y-80138999D01*
X128703957Y-80138999D02*
X128661100Y-80224714D01*
X128661100Y-80224714D02*
X128618242Y-80267571D01*
X128618242Y-80267571D02*
X128532528Y-80310428D01*
X128532528Y-80310428D02*
X128446814Y-80310428D01*
X128446814Y-80310428D02*
X128361100Y-80267571D01*
X128361100Y-80267571D02*
X128318242Y-80224714D01*
X128318242Y-80224714D02*
X128275385Y-80138999D01*
X128275385Y-80138999D02*
X128232528Y-79967571D01*
X128232528Y-79967571D02*
X128189671Y-79881856D01*
X128189671Y-79881856D02*
X128146814Y-79838999D01*
X128146814Y-79838999D02*
X128061100Y-79796142D01*
X128061100Y-79796142D02*
X127975385Y-79796142D01*
X127975385Y-79796142D02*
X127889671Y-79838999D01*
X127889671Y-79838999D02*
X127846814Y-79881856D01*
X127846814Y-79881856D02*
X127803957Y-79967571D01*
X127803957Y-79967571D02*
X127803957Y-80181856D01*
X127803957Y-80181856D02*
X127846814Y-80310428D01*
X128275385Y-80867571D02*
X128703957Y-80867571D01*
X127803957Y-80567571D02*
X128275385Y-80867571D01*
X128275385Y-80867571D02*
X127803957Y-81167571D01*
X128703957Y-82624714D02*
X128703957Y-82110428D01*
X128703957Y-82367571D02*
X127803957Y-82367571D01*
X127803957Y-82367571D02*
X127932528Y-82281857D01*
X127932528Y-82281857D02*
X128018242Y-82196142D01*
X128018242Y-82196142D02*
X128061100Y-82110428D01*
X128103957Y-83396143D02*
X128703957Y-83396143D01*
X127761100Y-83181857D02*
X128403957Y-82967571D01*
X128403957Y-82967571D02*
X128403957Y-83524714D01*
X128189671Y-83996143D02*
X128146814Y-83910428D01*
X128146814Y-83910428D02*
X128103957Y-83867571D01*
X128103957Y-83867571D02*
X128018242Y-83824714D01*
X128018242Y-83824714D02*
X127975385Y-83824714D01*
X127975385Y-83824714D02*
X127889671Y-83867571D01*
X127889671Y-83867571D02*
X127846814Y-83910428D01*
X127846814Y-83910428D02*
X127803957Y-83996143D01*
X127803957Y-83996143D02*
X127803957Y-84167571D01*
X127803957Y-84167571D02*
X127846814Y-84253286D01*
X127846814Y-84253286D02*
X127889671Y-84296143D01*
X127889671Y-84296143D02*
X127975385Y-84339000D01*
X127975385Y-84339000D02*
X128018242Y-84339000D01*
X128018242Y-84339000D02*
X128103957Y-84296143D01*
X128103957Y-84296143D02*
X128146814Y-84253286D01*
X128146814Y-84253286D02*
X128189671Y-84167571D01*
X128189671Y-84167571D02*
X128189671Y-83996143D01*
X128189671Y-83996143D02*
X128232528Y-83910428D01*
X128232528Y-83910428D02*
X128275385Y-83867571D01*
X128275385Y-83867571D02*
X128361100Y-83824714D01*
X128361100Y-83824714D02*
X128532528Y-83824714D01*
X128532528Y-83824714D02*
X128618242Y-83867571D01*
X128618242Y-83867571D02*
X128661100Y-83910428D01*
X128661100Y-83910428D02*
X128703957Y-83996143D01*
X128703957Y-83996143D02*
X128703957Y-84167571D01*
X128703957Y-84167571D02*
X128661100Y-84253286D01*
X128661100Y-84253286D02*
X128618242Y-84296143D01*
X128618242Y-84296143D02*
X128532528Y-84339000D01*
X128532528Y-84339000D02*
X128361100Y-84339000D01*
X128361100Y-84339000D02*
X128275385Y-84296143D01*
X128275385Y-84296143D02*
X128232528Y-84253286D01*
X128232528Y-84253286D02*
X128189671Y-84167571D01*
X127803957Y-84639000D02*
X127803957Y-85196143D01*
X127803957Y-85196143D02*
X128146814Y-84896143D01*
X128146814Y-84896143D02*
X128146814Y-85024714D01*
X128146814Y-85024714D02*
X128189671Y-85110429D01*
X128189671Y-85110429D02*
X128232528Y-85153286D01*
X128232528Y-85153286D02*
X128318242Y-85196143D01*
X128318242Y-85196143D02*
X128532528Y-85196143D01*
X128532528Y-85196143D02*
X128618242Y-85153286D01*
X128618242Y-85153286D02*
X128661100Y-85110429D01*
X128661100Y-85110429D02*
X128703957Y-85024714D01*
X128703957Y-85024714D02*
X128703957Y-84767571D01*
X128703957Y-84767571D02*
X128661100Y-84681857D01*
X128661100Y-84681857D02*
X128618242Y-84639000D01*
X127803957Y-85496143D02*
X127803957Y-86053286D01*
X127803957Y-86053286D02*
X128146814Y-85753286D01*
X128146814Y-85753286D02*
X128146814Y-85881857D01*
X128146814Y-85881857D02*
X128189671Y-85967572D01*
X128189671Y-85967572D02*
X128232528Y-86010429D01*
X128232528Y-86010429D02*
X128318242Y-86053286D01*
X128318242Y-86053286D02*
X128532528Y-86053286D01*
X128532528Y-86053286D02*
X128618242Y-86010429D01*
X128618242Y-86010429D02*
X128661100Y-85967572D01*
X128661100Y-85967572D02*
X128703957Y-85881857D01*
X128703957Y-85881857D02*
X128703957Y-85624714D01*
X128703957Y-85624714D02*
X128661100Y-85539000D01*
X128661100Y-85539000D02*
X128618242Y-85496143D01*
X127803957Y-86867572D02*
X127803957Y-86439000D01*
X127803957Y-86439000D02*
X128232528Y-86396143D01*
X128232528Y-86396143D02*
X128189671Y-86439000D01*
X128189671Y-86439000D02*
X128146814Y-86524715D01*
X128146814Y-86524715D02*
X128146814Y-86739000D01*
X128146814Y-86739000D02*
X128189671Y-86824715D01*
X128189671Y-86824715D02*
X128232528Y-86867572D01*
X128232528Y-86867572D02*
X128318242Y-86910429D01*
X128318242Y-86910429D02*
X128532528Y-86910429D01*
X128532528Y-86910429D02*
X128618242Y-86867572D01*
X128618242Y-86867572D02*
X128661100Y-86824715D01*
X128661100Y-86824715D02*
X128703957Y-86739000D01*
X128703957Y-86739000D02*
X128703957Y-86524715D01*
X128703957Y-86524715D02*
X128661100Y-86439000D01*
X128661100Y-86439000D02*
X128618242Y-86396143D01*
X128189671Y-87424715D02*
X128146814Y-87339000D01*
X128146814Y-87339000D02*
X128103957Y-87296143D01*
X128103957Y-87296143D02*
X128018242Y-87253286D01*
X128018242Y-87253286D02*
X127975385Y-87253286D01*
X127975385Y-87253286D02*
X127889671Y-87296143D01*
X127889671Y-87296143D02*
X127846814Y-87339000D01*
X127846814Y-87339000D02*
X127803957Y-87424715D01*
X127803957Y-87424715D02*
X127803957Y-87596143D01*
X127803957Y-87596143D02*
X127846814Y-87681858D01*
X127846814Y-87681858D02*
X127889671Y-87724715D01*
X127889671Y-87724715D02*
X127975385Y-87767572D01*
X127975385Y-87767572D02*
X128018242Y-87767572D01*
X128018242Y-87767572D02*
X128103957Y-87724715D01*
X128103957Y-87724715D02*
X128146814Y-87681858D01*
X128146814Y-87681858D02*
X128189671Y-87596143D01*
X128189671Y-87596143D02*
X128189671Y-87424715D01*
X128189671Y-87424715D02*
X128232528Y-87339000D01*
X128232528Y-87339000D02*
X128275385Y-87296143D01*
X128275385Y-87296143D02*
X128361100Y-87253286D01*
X128361100Y-87253286D02*
X128532528Y-87253286D01*
X128532528Y-87253286D02*
X128618242Y-87296143D01*
X128618242Y-87296143D02*
X128661100Y-87339000D01*
X128661100Y-87339000D02*
X128703957Y-87424715D01*
X128703957Y-87424715D02*
X128703957Y-87596143D01*
X128703957Y-87596143D02*
X128661100Y-87681858D01*
X128661100Y-87681858D02*
X128618242Y-87724715D01*
X128618242Y-87724715D02*
X128532528Y-87767572D01*
X128532528Y-87767572D02*
X128361100Y-87767572D01*
X128361100Y-87767572D02*
X128275385Y-87724715D01*
X128275385Y-87724715D02*
X128232528Y-87681858D01*
X128232528Y-87681858D02*
X128189671Y-87596143D01*
X128361100Y-88153286D02*
X128361100Y-88839001D01*
X129046814Y-89524715D02*
X129046814Y-89481858D01*
X129046814Y-89481858D02*
X129003957Y-89396144D01*
X129003957Y-89396144D02*
X128918242Y-89353287D01*
X128918242Y-89353287D02*
X128489671Y-89353287D01*
X128489671Y-89353287D02*
X128403957Y-89310429D01*
X128403957Y-89310429D02*
X128361100Y-89224715D01*
X128361100Y-89224715D02*
X128318242Y-89310429D01*
X128318242Y-89310429D02*
X128232528Y-89353287D01*
X128232528Y-89353287D02*
X127803957Y-89353287D01*
X127803957Y-89353287D02*
X127718242Y-89396144D01*
X127718242Y-89396144D02*
X127675385Y-89481858D01*
X127675385Y-89481858D02*
X127675385Y-89524715D01*
X128703957Y-90339001D02*
X128703957Y-89824715D01*
X128703957Y-90081858D02*
X127803957Y-90081858D01*
X127803957Y-90081858D02*
X127932528Y-89996144D01*
X127932528Y-89996144D02*
X128018242Y-89910429D01*
X128018242Y-89910429D02*
X128061100Y-89824715D01*
X128661100Y-90767572D02*
X128703957Y-90767572D01*
X128703957Y-90767572D02*
X128789671Y-90724715D01*
X128789671Y-90724715D02*
X128832528Y-90681858D01*
X127889671Y-91110429D02*
X127846814Y-91153286D01*
X127846814Y-91153286D02*
X127803957Y-91239001D01*
X127803957Y-91239001D02*
X127803957Y-91453286D01*
X127803957Y-91453286D02*
X127846814Y-91539001D01*
X127846814Y-91539001D02*
X127889671Y-91581858D01*
X127889671Y-91581858D02*
X127975385Y-91624715D01*
X127975385Y-91624715D02*
X128061100Y-91624715D01*
X128061100Y-91624715D02*
X128189671Y-91581858D01*
X128189671Y-91581858D02*
X128703957Y-91067572D01*
X128703957Y-91067572D02*
X128703957Y-91624715D01*
X128661100Y-92053286D02*
X128703957Y-92053286D01*
X128703957Y-92053286D02*
X128789671Y-92010429D01*
X128789671Y-92010429D02*
X128832528Y-91967572D01*
X127803957Y-92353286D02*
X127803957Y-92910429D01*
X127803957Y-92910429D02*
X128146814Y-92610429D01*
X128146814Y-92610429D02*
X128146814Y-92739000D01*
X128146814Y-92739000D02*
X128189671Y-92824715D01*
X128189671Y-92824715D02*
X128232528Y-92867572D01*
X128232528Y-92867572D02*
X128318242Y-92910429D01*
X128318242Y-92910429D02*
X128532528Y-92910429D01*
X128532528Y-92910429D02*
X128618242Y-92867572D01*
X128618242Y-92867572D02*
X128661100Y-92824715D01*
X128661100Y-92824715D02*
X128703957Y-92739000D01*
X128703957Y-92739000D02*
X128703957Y-92481857D01*
X128703957Y-92481857D02*
X128661100Y-92396143D01*
X128661100Y-92396143D02*
X128618242Y-92353286D01*
X129046814Y-93210429D02*
X129046814Y-93253286D01*
X129046814Y-93253286D02*
X129003957Y-93339000D01*
X129003957Y-93339000D02*
X128918242Y-93381858D01*
X128918242Y-93381858D02*
X128489671Y-93381858D01*
X128489671Y-93381858D02*
X128403957Y-93424715D01*
X128403957Y-93424715D02*
X128361100Y-93510429D01*
X128361100Y-93510429D02*
X128318242Y-93424715D01*
X128318242Y-93424715D02*
X128232528Y-93381858D01*
X128232528Y-93381858D02*
X127803957Y-93381858D01*
X127803957Y-93381858D02*
X127718242Y-93339000D01*
X127718242Y-93339000D02*
X127675385Y-93253286D01*
X127675385Y-93253286D02*
X127675385Y-93210429D01*
X123141357Y-72081114D02*
X122241357Y-72081114D01*
X122241357Y-72081114D02*
X122884214Y-72381114D01*
X122884214Y-72381114D02*
X122241357Y-72681114D01*
X122241357Y-72681114D02*
X123141357Y-72681114D01*
X123141357Y-73109685D02*
X122241357Y-73109685D01*
X123055642Y-74052542D02*
X123098500Y-74009685D01*
X123098500Y-74009685D02*
X123141357Y-73881113D01*
X123141357Y-73881113D02*
X123141357Y-73795399D01*
X123141357Y-73795399D02*
X123098500Y-73666828D01*
X123098500Y-73666828D02*
X123012785Y-73581113D01*
X123012785Y-73581113D02*
X122927071Y-73538256D01*
X122927071Y-73538256D02*
X122755642Y-73495399D01*
X122755642Y-73495399D02*
X122627071Y-73495399D01*
X122627071Y-73495399D02*
X122455642Y-73538256D01*
X122455642Y-73538256D02*
X122369928Y-73581113D01*
X122369928Y-73581113D02*
X122284214Y-73666828D01*
X122284214Y-73666828D02*
X122241357Y-73795399D01*
X122241357Y-73795399D02*
X122241357Y-73881113D01*
X122241357Y-73881113D02*
X122284214Y-74009685D01*
X122284214Y-74009685D02*
X122327071Y-74052542D01*
X123141357Y-74952542D02*
X122712785Y-74652542D01*
X123141357Y-74438256D02*
X122241357Y-74438256D01*
X122241357Y-74438256D02*
X122241357Y-74781113D01*
X122241357Y-74781113D02*
X122284214Y-74866828D01*
X122284214Y-74866828D02*
X122327071Y-74909685D01*
X122327071Y-74909685D02*
X122412785Y-74952542D01*
X122412785Y-74952542D02*
X122541357Y-74952542D01*
X122541357Y-74952542D02*
X122627071Y-74909685D01*
X122627071Y-74909685D02*
X122669928Y-74866828D01*
X122669928Y-74866828D02*
X122712785Y-74781113D01*
X122712785Y-74781113D02*
X122712785Y-74438256D01*
X122241357Y-75509685D02*
X122241357Y-75681113D01*
X122241357Y-75681113D02*
X122284214Y-75766828D01*
X122284214Y-75766828D02*
X122369928Y-75852542D01*
X122369928Y-75852542D02*
X122541357Y-75895399D01*
X122541357Y-75895399D02*
X122841357Y-75895399D01*
X122841357Y-75895399D02*
X123012785Y-75852542D01*
X123012785Y-75852542D02*
X123098500Y-75766828D01*
X123098500Y-75766828D02*
X123141357Y-75681113D01*
X123141357Y-75681113D02*
X123141357Y-75509685D01*
X123141357Y-75509685D02*
X123098500Y-75423971D01*
X123098500Y-75423971D02*
X123012785Y-75338256D01*
X123012785Y-75338256D02*
X122841357Y-75295399D01*
X122841357Y-75295399D02*
X122541357Y-75295399D01*
X122541357Y-75295399D02*
X122369928Y-75338256D01*
X122369928Y-75338256D02*
X122284214Y-75423971D01*
X122284214Y-75423971D02*
X122241357Y-75509685D01*
X122798500Y-76281113D02*
X122798500Y-76966828D01*
X123141357Y-77395399D02*
X122241357Y-77395399D01*
X122241357Y-77395399D02*
X122884214Y-77695399D01*
X122884214Y-77695399D02*
X122241357Y-77995399D01*
X122241357Y-77995399D02*
X123141357Y-77995399D01*
X122884214Y-78381113D02*
X122884214Y-78809685D01*
X123141357Y-78295399D02*
X122241357Y-78595399D01*
X122241357Y-78595399D02*
X123141357Y-78895399D01*
X122241357Y-79066828D02*
X122241357Y-79581114D01*
X123141357Y-79323971D02*
X122241357Y-79323971D01*
X123055642Y-80395399D02*
X123098500Y-80352542D01*
X123098500Y-80352542D02*
X123141357Y-80223970D01*
X123141357Y-80223970D02*
X123141357Y-80138256D01*
X123141357Y-80138256D02*
X123098500Y-80009685D01*
X123098500Y-80009685D02*
X123012785Y-79923970D01*
X123012785Y-79923970D02*
X122927071Y-79881113D01*
X122927071Y-79881113D02*
X122755642Y-79838256D01*
X122755642Y-79838256D02*
X122627071Y-79838256D01*
X122627071Y-79838256D02*
X122455642Y-79881113D01*
X122455642Y-79881113D02*
X122369928Y-79923970D01*
X122369928Y-79923970D02*
X122284214Y-80009685D01*
X122284214Y-80009685D02*
X122241357Y-80138256D01*
X122241357Y-80138256D02*
X122241357Y-80223970D01*
X122241357Y-80223970D02*
X122284214Y-80352542D01*
X122284214Y-80352542D02*
X122327071Y-80395399D01*
X123141357Y-80781113D02*
X122241357Y-80781113D01*
X122669928Y-80781113D02*
X122669928Y-81295399D01*
X123141357Y-81295399D02*
X122241357Y-81295399D01*
X123055642Y-82923970D02*
X123098500Y-82881113D01*
X123098500Y-82881113D02*
X123141357Y-82752541D01*
X123141357Y-82752541D02*
X123141357Y-82666827D01*
X123141357Y-82666827D02*
X123098500Y-82538256D01*
X123098500Y-82538256D02*
X123012785Y-82452541D01*
X123012785Y-82452541D02*
X122927071Y-82409684D01*
X122927071Y-82409684D02*
X122755642Y-82366827D01*
X122755642Y-82366827D02*
X122627071Y-82366827D01*
X122627071Y-82366827D02*
X122455642Y-82409684D01*
X122455642Y-82409684D02*
X122369928Y-82452541D01*
X122369928Y-82452541D02*
X122284214Y-82538256D01*
X122284214Y-82538256D02*
X122241357Y-82666827D01*
X122241357Y-82666827D02*
X122241357Y-82752541D01*
X122241357Y-82752541D02*
X122284214Y-82881113D01*
X122284214Y-82881113D02*
X122327071Y-82923970D01*
X122241357Y-83352541D02*
X122412785Y-83266827D01*
X122241357Y-83609684D02*
X122241357Y-84123970D01*
X123141357Y-83866827D02*
X122241357Y-83866827D01*
X122241357Y-84595398D02*
X122241357Y-84766826D01*
X122241357Y-84766826D02*
X122284214Y-84852541D01*
X122284214Y-84852541D02*
X122369928Y-84938255D01*
X122369928Y-84938255D02*
X122541357Y-84981112D01*
X122541357Y-84981112D02*
X122841357Y-84981112D01*
X122841357Y-84981112D02*
X123012785Y-84938255D01*
X123012785Y-84938255D02*
X123098500Y-84852541D01*
X123098500Y-84852541D02*
X123141357Y-84766826D01*
X123141357Y-84766826D02*
X123141357Y-84595398D01*
X123141357Y-84595398D02*
X123098500Y-84509684D01*
X123098500Y-84509684D02*
X123012785Y-84423969D01*
X123012785Y-84423969D02*
X122841357Y-84381112D01*
X122841357Y-84381112D02*
X122541357Y-84381112D01*
X122541357Y-84381112D02*
X122369928Y-84423969D01*
X122369928Y-84423969D02*
X122284214Y-84509684D01*
X122284214Y-84509684D02*
X122241357Y-84595398D01*
X123141357Y-85881112D02*
X122712785Y-85581112D01*
X123141357Y-85366826D02*
X122241357Y-85366826D01*
X122241357Y-85366826D02*
X122241357Y-85709683D01*
X122241357Y-85709683D02*
X122284214Y-85795398D01*
X122284214Y-85795398D02*
X122327071Y-85838255D01*
X122327071Y-85838255D02*
X122412785Y-85881112D01*
X122412785Y-85881112D02*
X122541357Y-85881112D01*
X122541357Y-85881112D02*
X122627071Y-85838255D01*
X122627071Y-85838255D02*
X122669928Y-85795398D01*
X122669928Y-85795398D02*
X122712785Y-85709683D01*
X122712785Y-85709683D02*
X122712785Y-85366826D01*
X122327071Y-86909683D02*
X122284214Y-86952540D01*
X122284214Y-86952540D02*
X122241357Y-87038255D01*
X122241357Y-87038255D02*
X122241357Y-87252540D01*
X122241357Y-87252540D02*
X122284214Y-87338255D01*
X122284214Y-87338255D02*
X122327071Y-87381112D01*
X122327071Y-87381112D02*
X122412785Y-87423969D01*
X122412785Y-87423969D02*
X122498500Y-87423969D01*
X122498500Y-87423969D02*
X122627071Y-87381112D01*
X122627071Y-87381112D02*
X123141357Y-86866826D01*
X123141357Y-86866826D02*
X123141357Y-87423969D01*
X122798500Y-87809683D02*
X122798500Y-88495398D01*
X122241357Y-88838255D02*
X122241357Y-89395398D01*
X122241357Y-89395398D02*
X122584214Y-89095398D01*
X122584214Y-89095398D02*
X122584214Y-89223969D01*
X122584214Y-89223969D02*
X122627071Y-89309684D01*
X122627071Y-89309684D02*
X122669928Y-89352541D01*
X122669928Y-89352541D02*
X122755642Y-89395398D01*
X122755642Y-89395398D02*
X122969928Y-89395398D01*
X122969928Y-89395398D02*
X123055642Y-89352541D01*
X123055642Y-89352541D02*
X123098500Y-89309684D01*
X123098500Y-89309684D02*
X123141357Y-89223969D01*
X123141357Y-89223969D02*
X123141357Y-88966826D01*
X123141357Y-88966826D02*
X123098500Y-88881112D01*
X123098500Y-88881112D02*
X123055642Y-88838255D01*
X122241357Y-89695398D02*
X122241357Y-90252541D01*
X122241357Y-90252541D02*
X122584214Y-89952541D01*
X122584214Y-89952541D02*
X122584214Y-90081112D01*
X122584214Y-90081112D02*
X122627071Y-90166827D01*
X122627071Y-90166827D02*
X122669928Y-90209684D01*
X122669928Y-90209684D02*
X122755642Y-90252541D01*
X122755642Y-90252541D02*
X122969928Y-90252541D01*
X122969928Y-90252541D02*
X123055642Y-90209684D01*
X123055642Y-90209684D02*
X123098500Y-90166827D01*
X123098500Y-90166827D02*
X123141357Y-90081112D01*
X123141357Y-90081112D02*
X123141357Y-89823969D01*
X123141357Y-89823969D02*
X123098500Y-89738255D01*
X123098500Y-89738255D02*
X123055642Y-89695398D01*
X122627071Y-90766827D02*
X122584214Y-90681112D01*
X122584214Y-90681112D02*
X122541357Y-90638255D01*
X122541357Y-90638255D02*
X122455642Y-90595398D01*
X122455642Y-90595398D02*
X122412785Y-90595398D01*
X122412785Y-90595398D02*
X122327071Y-90638255D01*
X122327071Y-90638255D02*
X122284214Y-90681112D01*
X122284214Y-90681112D02*
X122241357Y-90766827D01*
X122241357Y-90766827D02*
X122241357Y-90938255D01*
X122241357Y-90938255D02*
X122284214Y-91023970D01*
X122284214Y-91023970D02*
X122327071Y-91066827D01*
X122327071Y-91066827D02*
X122412785Y-91109684D01*
X122412785Y-91109684D02*
X122455642Y-91109684D01*
X122455642Y-91109684D02*
X122541357Y-91066827D01*
X122541357Y-91066827D02*
X122584214Y-91023970D01*
X122584214Y-91023970D02*
X122627071Y-90938255D01*
X122627071Y-90938255D02*
X122627071Y-90766827D01*
X122627071Y-90766827D02*
X122669928Y-90681112D01*
X122669928Y-90681112D02*
X122712785Y-90638255D01*
X122712785Y-90638255D02*
X122798500Y-90595398D01*
X122798500Y-90595398D02*
X122969928Y-90595398D01*
X122969928Y-90595398D02*
X123055642Y-90638255D01*
X123055642Y-90638255D02*
X123098500Y-90681112D01*
X123098500Y-90681112D02*
X123141357Y-90766827D01*
X123141357Y-90766827D02*
X123141357Y-90938255D01*
X123141357Y-90938255D02*
X123098500Y-91023970D01*
X123098500Y-91023970D02*
X123055642Y-91066827D01*
X123055642Y-91066827D02*
X122969928Y-91109684D01*
X122969928Y-91109684D02*
X122798500Y-91109684D01*
X122798500Y-91109684D02*
X122712785Y-91066827D01*
X122712785Y-91066827D02*
X122669928Y-91023970D01*
X122669928Y-91023970D02*
X122627071Y-90938255D01*
X122241357Y-91666827D02*
X122241357Y-91752541D01*
X122241357Y-91752541D02*
X122284214Y-91838255D01*
X122284214Y-91838255D02*
X122327071Y-91881113D01*
X122327071Y-91881113D02*
X122412785Y-91923970D01*
X122412785Y-91923970D02*
X122584214Y-91966827D01*
X122584214Y-91966827D02*
X122798500Y-91966827D01*
X122798500Y-91966827D02*
X122969928Y-91923970D01*
X122969928Y-91923970D02*
X123055642Y-91881113D01*
X123055642Y-91881113D02*
X123098500Y-91838255D01*
X123098500Y-91838255D02*
X123141357Y-91752541D01*
X123141357Y-91752541D02*
X123141357Y-91666827D01*
X123141357Y-91666827D02*
X123098500Y-91581113D01*
X123098500Y-91581113D02*
X123055642Y-91538255D01*
X123055642Y-91538255D02*
X122969928Y-91495398D01*
X122969928Y-91495398D02*
X122798500Y-91452541D01*
X122798500Y-91452541D02*
X122584214Y-91452541D01*
X122584214Y-91452541D02*
X122412785Y-91495398D01*
X122412785Y-91495398D02*
X122327071Y-91538255D01*
X122327071Y-91538255D02*
X122284214Y-91581113D01*
X122284214Y-91581113D02*
X122241357Y-91666827D01*
X122241357Y-92738256D02*
X122241357Y-92566827D01*
X122241357Y-92566827D02*
X122284214Y-92481113D01*
X122284214Y-92481113D02*
X122327071Y-92438256D01*
X122327071Y-92438256D02*
X122455642Y-92352541D01*
X122455642Y-92352541D02*
X122627071Y-92309684D01*
X122627071Y-92309684D02*
X122969928Y-92309684D01*
X122969928Y-92309684D02*
X123055642Y-92352541D01*
X123055642Y-92352541D02*
X123098500Y-92395398D01*
X123098500Y-92395398D02*
X123141357Y-92481113D01*
X123141357Y-92481113D02*
X123141357Y-92652541D01*
X123141357Y-92652541D02*
X123098500Y-92738256D01*
X123098500Y-92738256D02*
X123055642Y-92781113D01*
X123055642Y-92781113D02*
X122969928Y-92823970D01*
X122969928Y-92823970D02*
X122755642Y-92823970D01*
X122755642Y-92823970D02*
X122669928Y-92781113D01*
X122669928Y-92781113D02*
X122627071Y-92738256D01*
X122627071Y-92738256D02*
X122584214Y-92652541D01*
X122584214Y-92652541D02*
X122584214Y-92481113D01*
X122584214Y-92481113D02*
X122627071Y-92395398D01*
X122627071Y-92395398D02*
X122669928Y-92352541D01*
X122669928Y-92352541D02*
X122755642Y-92309684D01*
X122627071Y-93338256D02*
X122584214Y-93252541D01*
X122584214Y-93252541D02*
X122541357Y-93209684D01*
X122541357Y-93209684D02*
X122455642Y-93166827D01*
X122455642Y-93166827D02*
X122412785Y-93166827D01*
X122412785Y-93166827D02*
X122327071Y-93209684D01*
X122327071Y-93209684D02*
X122284214Y-93252541D01*
X122284214Y-93252541D02*
X122241357Y-93338256D01*
X122241357Y-93338256D02*
X122241357Y-93509684D01*
X122241357Y-93509684D02*
X122284214Y-93595399D01*
X122284214Y-93595399D02*
X122327071Y-93638256D01*
X122327071Y-93638256D02*
X122412785Y-93681113D01*
X122412785Y-93681113D02*
X122455642Y-93681113D01*
X122455642Y-93681113D02*
X122541357Y-93638256D01*
X122541357Y-93638256D02*
X122584214Y-93595399D01*
X122584214Y-93595399D02*
X122627071Y-93509684D01*
X122627071Y-93509684D02*
X122627071Y-93338256D01*
X122627071Y-93338256D02*
X122669928Y-93252541D01*
X122669928Y-93252541D02*
X122712785Y-93209684D01*
X122712785Y-93209684D02*
X122798500Y-93166827D01*
X122798500Y-93166827D02*
X122969928Y-93166827D01*
X122969928Y-93166827D02*
X123055642Y-93209684D01*
X123055642Y-93209684D02*
X123098500Y-93252541D01*
X123098500Y-93252541D02*
X123141357Y-93338256D01*
X123141357Y-93338256D02*
X123141357Y-93509684D01*
X123141357Y-93509684D02*
X123098500Y-93595399D01*
X123098500Y-93595399D02*
X123055642Y-93638256D01*
X123055642Y-93638256D02*
X122969928Y-93681113D01*
X122969928Y-93681113D02*
X122798500Y-93681113D01*
X122798500Y-93681113D02*
X122712785Y-93638256D01*
X122712785Y-93638256D02*
X122669928Y-93595399D01*
X122669928Y-93595399D02*
X122627071Y-93509684D01*
X122798500Y-94066827D02*
X122798500Y-94752542D01*
X122241357Y-95352542D02*
X122241357Y-95438256D01*
X122241357Y-95438256D02*
X122284214Y-95523970D01*
X122284214Y-95523970D02*
X122327071Y-95566828D01*
X122327071Y-95566828D02*
X122412785Y-95609685D01*
X122412785Y-95609685D02*
X122584214Y-95652542D01*
X122584214Y-95652542D02*
X122798500Y-95652542D01*
X122798500Y-95652542D02*
X122969928Y-95609685D01*
X122969928Y-95609685D02*
X123055642Y-95566828D01*
X123055642Y-95566828D02*
X123098500Y-95523970D01*
X123098500Y-95523970D02*
X123141357Y-95438256D01*
X123141357Y-95438256D02*
X123141357Y-95352542D01*
X123141357Y-95352542D02*
X123098500Y-95266828D01*
X123098500Y-95266828D02*
X123055642Y-95223970D01*
X123055642Y-95223970D02*
X122969928Y-95181113D01*
X122969928Y-95181113D02*
X122798500Y-95138256D01*
X122798500Y-95138256D02*
X122584214Y-95138256D01*
X122584214Y-95138256D02*
X122412785Y-95181113D01*
X122412785Y-95181113D02*
X122327071Y-95223970D01*
X122327071Y-95223970D02*
X122284214Y-95266828D01*
X122284214Y-95266828D02*
X122241357Y-95352542D01*
D11*
%TO.C,J1*%
X123154000Y-70752000D02*
X124170000Y-70752000D01*
X123154000Y-71768000D02*
X123154000Y-70752000D01*
%TD*%
%LPC*%
D12*
%TO.C,J1*%
X124910000Y-97298000D03*
D13*
X124170000Y-71768000D03*
X124170000Y-74308000D03*
X124170000Y-76848000D03*
X124170000Y-79388000D03*
X124170000Y-81928000D03*
X124170000Y-84468000D03*
X124170000Y-87008000D03*
X124170000Y-89548000D03*
X124170000Y-92088000D03*
X124170000Y-94628000D03*
X126710000Y-95898000D03*
X126710000Y-93358000D03*
X126710000Y-90818000D03*
X126710000Y-88278000D03*
X126710000Y-85738000D03*
X126710000Y-83198000D03*
X126710000Y-80658000D03*
X126710000Y-78118000D03*
X126710000Y-75578000D03*
X126710000Y-73038000D03*
%TD*%
D14*
%TO.C,J2*%
X120396000Y-71755000D03*
D15*
X120396000Y-74295000D03*
X120396000Y-76835000D03*
X120396000Y-79375000D03*
X120396000Y-81915000D03*
X120396000Y-84455000D03*
X120396000Y-86995000D03*
X120396000Y-89535000D03*
X120396000Y-92075000D03*
X120396000Y-94615000D03*
%TD*%
D14*
%TO.C,J3*%
X130556000Y-71755000D03*
D15*
X130556000Y-74295000D03*
X130556000Y-76835000D03*
X130556000Y-79375000D03*
X130556000Y-81915000D03*
X130556000Y-84455000D03*
X130556000Y-86995000D03*
X130556000Y-89535000D03*
X130556000Y-92075000D03*
X130556000Y-94615000D03*
%TD*%
%LPD*%
M02*
