%TF.GenerationSoftware,KiCad,Pcbnew,7.0.9*%
%TF.CreationDate,2024-02-18T17:24:39-08:00*%
%TF.ProjectId,micromatch-20-breakout,6d696372-6f6d-4617-9463-682d32302d62,rev?*%
%TF.SameCoordinates,Original*%
%TF.FileFunction,Drillmap*%
%TF.FilePolarity,Positive*%
%FSLAX45Y45*%
G04 Gerber Fmt 4.5, Leading zero omitted, Abs format (unit mm)*
G04 Created by KiCad (PCBNEW 7.0.9) date 2024-02-18 17:24:39*
%MOMM*%
%LPD*%
G01*
G04 APERTURE LIST*
%ADD10C,0.100000*%
%ADD11C,0.200000*%
%ADD12C,0.160000*%
G04 APERTURE END LIST*
D10*
X11923800Y-6845300D02*
G75*
G03*
X11847600Y-6921500I0J-76200D01*
G01*
X13247600Y-6921500D02*
G75*
G03*
X13171400Y-6845300I-76200J0D01*
G01*
X11847600Y-9842500D02*
G75*
G03*
X11923800Y-9918700I76200J0D01*
G01*
X13171400Y-9918700D02*
G75*
G03*
X13247600Y-9842500I0J76200D01*
G01*
X11847600Y-9842500D02*
X11847600Y-6921500D01*
X13171400Y-9918700D02*
X11923800Y-9918700D01*
X13247600Y-6921500D02*
X13247600Y-9842500D01*
X11923800Y-6845300D02*
X13171400Y-6845300D01*
D11*
D10*
X12369500Y-7129300D02*
X12464500Y-7224300D01*
X12464500Y-7129300D02*
X12369500Y-7224300D01*
X12369500Y-7383300D02*
X12464500Y-7478300D01*
X12464500Y-7383300D02*
X12369500Y-7478300D01*
X12369500Y-7637300D02*
X12464500Y-7732300D01*
X12464500Y-7637300D02*
X12369500Y-7732300D01*
X12369500Y-7891300D02*
X12464500Y-7986300D01*
X12464500Y-7891300D02*
X12369500Y-7986300D01*
X12369500Y-8145300D02*
X12464500Y-8240300D01*
X12464500Y-8145300D02*
X12369500Y-8240300D01*
X12369500Y-8399300D02*
X12464500Y-8494300D01*
X12464500Y-8399300D02*
X12369500Y-8494300D01*
X12369500Y-8653300D02*
X12464500Y-8748300D01*
X12464500Y-8653300D02*
X12369500Y-8748300D01*
X12369500Y-8907300D02*
X12464500Y-9002300D01*
X12464500Y-8907300D02*
X12369500Y-9002300D01*
X12369500Y-9161300D02*
X12464500Y-9256300D01*
X12464500Y-9161300D02*
X12369500Y-9256300D01*
X12369500Y-9415300D02*
X12464500Y-9510300D01*
X12464500Y-9415300D02*
X12369500Y-9510300D01*
X12623500Y-7256300D02*
X12718500Y-7351300D01*
X12718500Y-7256300D02*
X12623500Y-7351300D01*
X12623500Y-7510300D02*
X12718500Y-7605300D01*
X12718500Y-7510300D02*
X12623500Y-7605300D01*
X12623500Y-7764300D02*
X12718500Y-7859300D01*
X12718500Y-7764300D02*
X12623500Y-7859300D01*
X12623500Y-8018300D02*
X12718500Y-8113300D01*
X12718500Y-8018300D02*
X12623500Y-8113300D01*
X12623500Y-8272300D02*
X12718500Y-8367300D01*
X12718500Y-8272300D02*
X12623500Y-8367300D01*
X12623500Y-8526300D02*
X12718500Y-8621300D01*
X12718500Y-8526300D02*
X12623500Y-8621300D01*
X12623500Y-8780300D02*
X12718500Y-8875300D01*
X12718500Y-8780300D02*
X12623500Y-8875300D01*
X12623500Y-9034300D02*
X12718500Y-9129300D01*
X12718500Y-9034300D02*
X12623500Y-9129300D01*
X12623500Y-9288300D02*
X12718500Y-9383300D01*
X12718500Y-9288300D02*
X12623500Y-9383300D01*
X12623500Y-9542300D02*
X12718500Y-9637300D01*
X12718500Y-9542300D02*
X12623500Y-9637300D01*
X12089600Y-7175500D02*
G75*
G03*
X12089600Y-7175500I-50000J0D01*
G01*
X12089600Y-7429500D02*
G75*
G03*
X12089600Y-7429500I-50000J0D01*
G01*
X12089600Y-7683500D02*
G75*
G03*
X12089600Y-7683500I-50000J0D01*
G01*
X12089600Y-7937500D02*
G75*
G03*
X12089600Y-7937500I-50000J0D01*
G01*
X12089600Y-8191500D02*
G75*
G03*
X12089600Y-8191500I-50000J0D01*
G01*
X12089600Y-8445500D02*
G75*
G03*
X12089600Y-8445500I-50000J0D01*
G01*
X12089600Y-8699500D02*
G75*
G03*
X12089600Y-8699500I-50000J0D01*
G01*
X12089600Y-8953500D02*
G75*
G03*
X12089600Y-8953500I-50000J0D01*
G01*
X12089600Y-9207500D02*
G75*
G03*
X12089600Y-9207500I-50000J0D01*
G01*
X12089600Y-9461500D02*
G75*
G03*
X12089600Y-9461500I-50000J0D01*
G01*
X13105600Y-7175500D02*
G75*
G03*
X13105600Y-7175500I-50000J0D01*
G01*
X13105600Y-7429500D02*
G75*
G03*
X13105600Y-7429500I-50000J0D01*
G01*
X13105600Y-7683500D02*
G75*
G03*
X13105600Y-7683500I-50000J0D01*
G01*
X13105600Y-7937500D02*
G75*
G03*
X13105600Y-7937500I-50000J0D01*
G01*
X13105600Y-8191500D02*
G75*
G03*
X13105600Y-8191500I-50000J0D01*
G01*
X13105600Y-8445500D02*
G75*
G03*
X13105600Y-8445500I-50000J0D01*
G01*
X13105600Y-8699500D02*
G75*
G03*
X13105600Y-8699500I-50000J0D01*
G01*
X13105600Y-8953500D02*
G75*
G03*
X13105600Y-8953500I-50000J0D01*
G01*
X13105600Y-9207500D02*
G75*
G03*
X13105600Y-9207500I-50000J0D01*
G01*
X13105600Y-9461500D02*
G75*
G03*
X13105600Y-9461500I-50000J0D01*
G01*
D12*
X12491000Y-9649800D02*
X12491000Y-9809800D01*
X12411000Y-9729800D02*
X12571000Y-9729800D01*
D11*
X12103377Y-10235184D02*
X12103377Y-10035184D01*
X12103377Y-10035184D02*
X12150996Y-10035184D01*
X12150996Y-10035184D02*
X12179567Y-10044708D01*
X12179567Y-10044708D02*
X12198615Y-10063755D01*
X12198615Y-10063755D02*
X12208139Y-10082803D01*
X12208139Y-10082803D02*
X12217662Y-10120898D01*
X12217662Y-10120898D02*
X12217662Y-10149470D01*
X12217662Y-10149470D02*
X12208139Y-10187565D01*
X12208139Y-10187565D02*
X12198615Y-10206612D01*
X12198615Y-10206612D02*
X12179567Y-10225660D01*
X12179567Y-10225660D02*
X12150996Y-10235184D01*
X12150996Y-10235184D02*
X12103377Y-10235184D01*
X12303377Y-10235184D02*
X12303377Y-10101850D01*
X12303377Y-10139946D02*
X12312901Y-10120898D01*
X12312901Y-10120898D02*
X12322424Y-10111374D01*
X12322424Y-10111374D02*
X12341472Y-10101850D01*
X12341472Y-10101850D02*
X12360520Y-10101850D01*
X12427186Y-10235184D02*
X12427186Y-10101850D01*
X12427186Y-10035184D02*
X12417662Y-10044708D01*
X12417662Y-10044708D02*
X12427186Y-10054231D01*
X12427186Y-10054231D02*
X12436710Y-10044708D01*
X12436710Y-10044708D02*
X12427186Y-10035184D01*
X12427186Y-10035184D02*
X12427186Y-10054231D01*
X12550996Y-10235184D02*
X12531948Y-10225660D01*
X12531948Y-10225660D02*
X12522424Y-10206612D01*
X12522424Y-10206612D02*
X12522424Y-10035184D01*
X12655758Y-10235184D02*
X12636710Y-10225660D01*
X12636710Y-10225660D02*
X12627186Y-10206612D01*
X12627186Y-10206612D02*
X12627186Y-10035184D01*
X12884329Y-10235184D02*
X12884329Y-10035184D01*
X12884329Y-10035184D02*
X12950996Y-10178041D01*
X12950996Y-10178041D02*
X13017662Y-10035184D01*
X13017662Y-10035184D02*
X13017662Y-10235184D01*
X13198615Y-10235184D02*
X13198615Y-10130422D01*
X13198615Y-10130422D02*
X13189091Y-10111374D01*
X13189091Y-10111374D02*
X13170043Y-10101850D01*
X13170043Y-10101850D02*
X13131948Y-10101850D01*
X13131948Y-10101850D02*
X13112901Y-10111374D01*
X13198615Y-10225660D02*
X13179567Y-10235184D01*
X13179567Y-10235184D02*
X13131948Y-10235184D01*
X13131948Y-10235184D02*
X13112901Y-10225660D01*
X13112901Y-10225660D02*
X13103377Y-10206612D01*
X13103377Y-10206612D02*
X13103377Y-10187565D01*
X13103377Y-10187565D02*
X13112901Y-10168517D01*
X13112901Y-10168517D02*
X13131948Y-10158993D01*
X13131948Y-10158993D02*
X13179567Y-10158993D01*
X13179567Y-10158993D02*
X13198615Y-10149470D01*
X13293853Y-10101850D02*
X13293853Y-10301850D01*
X13293853Y-10111374D02*
X13312901Y-10101850D01*
X13312901Y-10101850D02*
X13350996Y-10101850D01*
X13350996Y-10101850D02*
X13370043Y-10111374D01*
X13370043Y-10111374D02*
X13379567Y-10120898D01*
X13379567Y-10120898D02*
X13389091Y-10139946D01*
X13389091Y-10139946D02*
X13389091Y-10197089D01*
X13389091Y-10197089D02*
X13379567Y-10216136D01*
X13379567Y-10216136D02*
X13370043Y-10225660D01*
X13370043Y-10225660D02*
X13350996Y-10235184D01*
X13350996Y-10235184D02*
X13312901Y-10235184D01*
X13312901Y-10235184D02*
X13293853Y-10225660D01*
X13474805Y-10216136D02*
X13484329Y-10225660D01*
X13484329Y-10225660D02*
X13474805Y-10235184D01*
X13474805Y-10235184D02*
X13465282Y-10225660D01*
X13465282Y-10225660D02*
X13474805Y-10216136D01*
X13474805Y-10216136D02*
X13474805Y-10235184D01*
X13474805Y-10111374D02*
X13484329Y-10120898D01*
X13484329Y-10120898D02*
X13474805Y-10130422D01*
X13474805Y-10130422D02*
X13465282Y-10120898D01*
X13465282Y-10120898D02*
X13474805Y-10111374D01*
X13474805Y-10111374D02*
X13474805Y-10130422D01*
D10*
X11747600Y-10516200D02*
X11842600Y-10611200D01*
X11842600Y-10516200D02*
X11747600Y-10611200D01*
D11*
X12141472Y-10455184D02*
X12160520Y-10455184D01*
X12160520Y-10455184D02*
X12179567Y-10464708D01*
X12179567Y-10464708D02*
X12189091Y-10474231D01*
X12189091Y-10474231D02*
X12198615Y-10493279D01*
X12198615Y-10493279D02*
X12208139Y-10531374D01*
X12208139Y-10531374D02*
X12208139Y-10578993D01*
X12208139Y-10578993D02*
X12198615Y-10617089D01*
X12198615Y-10617089D02*
X12189091Y-10636136D01*
X12189091Y-10636136D02*
X12179567Y-10645660D01*
X12179567Y-10645660D02*
X12160520Y-10655184D01*
X12160520Y-10655184D02*
X12141472Y-10655184D01*
X12141472Y-10655184D02*
X12122424Y-10645660D01*
X12122424Y-10645660D02*
X12112901Y-10636136D01*
X12112901Y-10636136D02*
X12103377Y-10617089D01*
X12103377Y-10617089D02*
X12093853Y-10578993D01*
X12093853Y-10578993D02*
X12093853Y-10531374D01*
X12093853Y-10531374D02*
X12103377Y-10493279D01*
X12103377Y-10493279D02*
X12112901Y-10474231D01*
X12112901Y-10474231D02*
X12122424Y-10464708D01*
X12122424Y-10464708D02*
X12141472Y-10455184D01*
X12293853Y-10636136D02*
X12303377Y-10645660D01*
X12303377Y-10645660D02*
X12293853Y-10655184D01*
X12293853Y-10655184D02*
X12284329Y-10645660D01*
X12284329Y-10645660D02*
X12293853Y-10636136D01*
X12293853Y-10636136D02*
X12293853Y-10655184D01*
X12398615Y-10655184D02*
X12436710Y-10655184D01*
X12436710Y-10655184D02*
X12455758Y-10645660D01*
X12455758Y-10645660D02*
X12465282Y-10636136D01*
X12465282Y-10636136D02*
X12484329Y-10607565D01*
X12484329Y-10607565D02*
X12493853Y-10569470D01*
X12493853Y-10569470D02*
X12493853Y-10493279D01*
X12493853Y-10493279D02*
X12484329Y-10474231D01*
X12484329Y-10474231D02*
X12474805Y-10464708D01*
X12474805Y-10464708D02*
X12455758Y-10455184D01*
X12455758Y-10455184D02*
X12417662Y-10455184D01*
X12417662Y-10455184D02*
X12398615Y-10464708D01*
X12398615Y-10464708D02*
X12389091Y-10474231D01*
X12389091Y-10474231D02*
X12379567Y-10493279D01*
X12379567Y-10493279D02*
X12379567Y-10540898D01*
X12379567Y-10540898D02*
X12389091Y-10559946D01*
X12389091Y-10559946D02*
X12398615Y-10569470D01*
X12398615Y-10569470D02*
X12417662Y-10578993D01*
X12417662Y-10578993D02*
X12455758Y-10578993D01*
X12455758Y-10578993D02*
X12474805Y-10569470D01*
X12474805Y-10569470D02*
X12484329Y-10559946D01*
X12484329Y-10559946D02*
X12493853Y-10540898D01*
X12674805Y-10455184D02*
X12579567Y-10455184D01*
X12579567Y-10455184D02*
X12570043Y-10550422D01*
X12570043Y-10550422D02*
X12579567Y-10540898D01*
X12579567Y-10540898D02*
X12598615Y-10531374D01*
X12598615Y-10531374D02*
X12646234Y-10531374D01*
X12646234Y-10531374D02*
X12665282Y-10540898D01*
X12665282Y-10540898D02*
X12674805Y-10550422D01*
X12674805Y-10550422D02*
X12684329Y-10569470D01*
X12684329Y-10569470D02*
X12684329Y-10617089D01*
X12684329Y-10617089D02*
X12674805Y-10636136D01*
X12674805Y-10636136D02*
X12665282Y-10645660D01*
X12665282Y-10645660D02*
X12646234Y-10655184D01*
X12646234Y-10655184D02*
X12598615Y-10655184D01*
X12598615Y-10655184D02*
X12579567Y-10645660D01*
X12579567Y-10645660D02*
X12570043Y-10636136D01*
X12808139Y-10455184D02*
X12827186Y-10455184D01*
X12827186Y-10455184D02*
X12846234Y-10464708D01*
X12846234Y-10464708D02*
X12855758Y-10474231D01*
X12855758Y-10474231D02*
X12865282Y-10493279D01*
X12865282Y-10493279D02*
X12874805Y-10531374D01*
X12874805Y-10531374D02*
X12874805Y-10578993D01*
X12874805Y-10578993D02*
X12865282Y-10617089D01*
X12865282Y-10617089D02*
X12855758Y-10636136D01*
X12855758Y-10636136D02*
X12846234Y-10645660D01*
X12846234Y-10645660D02*
X12827186Y-10655184D01*
X12827186Y-10655184D02*
X12808139Y-10655184D01*
X12808139Y-10655184D02*
X12789091Y-10645660D01*
X12789091Y-10645660D02*
X12779567Y-10636136D01*
X12779567Y-10636136D02*
X12770043Y-10617089D01*
X12770043Y-10617089D02*
X12760520Y-10578993D01*
X12760520Y-10578993D02*
X12760520Y-10531374D01*
X12760520Y-10531374D02*
X12770043Y-10493279D01*
X12770043Y-10493279D02*
X12779567Y-10474231D01*
X12779567Y-10474231D02*
X12789091Y-10464708D01*
X12789091Y-10464708D02*
X12808139Y-10455184D01*
X12960520Y-10655184D02*
X12960520Y-10521850D01*
X12960520Y-10540898D02*
X12970043Y-10531374D01*
X12970043Y-10531374D02*
X12989091Y-10521850D01*
X12989091Y-10521850D02*
X13017663Y-10521850D01*
X13017663Y-10521850D02*
X13036710Y-10531374D01*
X13036710Y-10531374D02*
X13046234Y-10550422D01*
X13046234Y-10550422D02*
X13046234Y-10655184D01*
X13046234Y-10550422D02*
X13055758Y-10531374D01*
X13055758Y-10531374D02*
X13074805Y-10521850D01*
X13074805Y-10521850D02*
X13103377Y-10521850D01*
X13103377Y-10521850D02*
X13122424Y-10531374D01*
X13122424Y-10531374D02*
X13131948Y-10550422D01*
X13131948Y-10550422D02*
X13131948Y-10655184D01*
X13227186Y-10655184D02*
X13227186Y-10521850D01*
X13227186Y-10540898D02*
X13236710Y-10531374D01*
X13236710Y-10531374D02*
X13255758Y-10521850D01*
X13255758Y-10521850D02*
X13284329Y-10521850D01*
X13284329Y-10521850D02*
X13303377Y-10531374D01*
X13303377Y-10531374D02*
X13312901Y-10550422D01*
X13312901Y-10550422D02*
X13312901Y-10655184D01*
X13312901Y-10550422D02*
X13322424Y-10531374D01*
X13322424Y-10531374D02*
X13341472Y-10521850D01*
X13341472Y-10521850D02*
X13370043Y-10521850D01*
X13370043Y-10521850D02*
X13389091Y-10531374D01*
X13389091Y-10531374D02*
X13398615Y-10550422D01*
X13398615Y-10550422D02*
X13398615Y-10655184D01*
X13789091Y-10445660D02*
X13617663Y-10702803D01*
X14046234Y-10455184D02*
X14065282Y-10455184D01*
X14065282Y-10455184D02*
X14084329Y-10464708D01*
X14084329Y-10464708D02*
X14093853Y-10474231D01*
X14093853Y-10474231D02*
X14103377Y-10493279D01*
X14103377Y-10493279D02*
X14112901Y-10531374D01*
X14112901Y-10531374D02*
X14112901Y-10578993D01*
X14112901Y-10578993D02*
X14103377Y-10617089D01*
X14103377Y-10617089D02*
X14093853Y-10636136D01*
X14093853Y-10636136D02*
X14084329Y-10645660D01*
X14084329Y-10645660D02*
X14065282Y-10655184D01*
X14065282Y-10655184D02*
X14046234Y-10655184D01*
X14046234Y-10655184D02*
X14027186Y-10645660D01*
X14027186Y-10645660D02*
X14017663Y-10636136D01*
X14017663Y-10636136D02*
X14008139Y-10617089D01*
X14008139Y-10617089D02*
X13998615Y-10578993D01*
X13998615Y-10578993D02*
X13998615Y-10531374D01*
X13998615Y-10531374D02*
X14008139Y-10493279D01*
X14008139Y-10493279D02*
X14017663Y-10474231D01*
X14017663Y-10474231D02*
X14027186Y-10464708D01*
X14027186Y-10464708D02*
X14046234Y-10455184D01*
X14198615Y-10636136D02*
X14208139Y-10645660D01*
X14208139Y-10645660D02*
X14198615Y-10655184D01*
X14198615Y-10655184D02*
X14189091Y-10645660D01*
X14189091Y-10645660D02*
X14198615Y-10636136D01*
X14198615Y-10636136D02*
X14198615Y-10655184D01*
X14331948Y-10455184D02*
X14350996Y-10455184D01*
X14350996Y-10455184D02*
X14370044Y-10464708D01*
X14370044Y-10464708D02*
X14379567Y-10474231D01*
X14379567Y-10474231D02*
X14389091Y-10493279D01*
X14389091Y-10493279D02*
X14398615Y-10531374D01*
X14398615Y-10531374D02*
X14398615Y-10578993D01*
X14398615Y-10578993D02*
X14389091Y-10617089D01*
X14389091Y-10617089D02*
X14379567Y-10636136D01*
X14379567Y-10636136D02*
X14370044Y-10645660D01*
X14370044Y-10645660D02*
X14350996Y-10655184D01*
X14350996Y-10655184D02*
X14331948Y-10655184D01*
X14331948Y-10655184D02*
X14312901Y-10645660D01*
X14312901Y-10645660D02*
X14303377Y-10636136D01*
X14303377Y-10636136D02*
X14293853Y-10617089D01*
X14293853Y-10617089D02*
X14284329Y-10578993D01*
X14284329Y-10578993D02*
X14284329Y-10531374D01*
X14284329Y-10531374D02*
X14293853Y-10493279D01*
X14293853Y-10493279D02*
X14303377Y-10474231D01*
X14303377Y-10474231D02*
X14312901Y-10464708D01*
X14312901Y-10464708D02*
X14331948Y-10455184D01*
X14465282Y-10455184D02*
X14589091Y-10455184D01*
X14589091Y-10455184D02*
X14522425Y-10531374D01*
X14522425Y-10531374D02*
X14550996Y-10531374D01*
X14550996Y-10531374D02*
X14570044Y-10540898D01*
X14570044Y-10540898D02*
X14579567Y-10550422D01*
X14579567Y-10550422D02*
X14589091Y-10569470D01*
X14589091Y-10569470D02*
X14589091Y-10617089D01*
X14589091Y-10617089D02*
X14579567Y-10636136D01*
X14579567Y-10636136D02*
X14570044Y-10645660D01*
X14570044Y-10645660D02*
X14550996Y-10655184D01*
X14550996Y-10655184D02*
X14493853Y-10655184D01*
X14493853Y-10655184D02*
X14474806Y-10645660D01*
X14474806Y-10645660D02*
X14465282Y-10636136D01*
X14655758Y-10455184D02*
X14789091Y-10455184D01*
X14789091Y-10455184D02*
X14703377Y-10655184D01*
X14950996Y-10521850D02*
X14950996Y-10655184D01*
X14903377Y-10445660D02*
X14855758Y-10588517D01*
X14855758Y-10588517D02*
X14979567Y-10588517D01*
X15046234Y-10455184D02*
X15046234Y-10493279D01*
X15122425Y-10455184D02*
X15122425Y-10493279D01*
X15417663Y-10731374D02*
X15408139Y-10721850D01*
X15408139Y-10721850D02*
X15389091Y-10693279D01*
X15389091Y-10693279D02*
X15379568Y-10674231D01*
X15379568Y-10674231D02*
X15370044Y-10645660D01*
X15370044Y-10645660D02*
X15360520Y-10598041D01*
X15360520Y-10598041D02*
X15360520Y-10559946D01*
X15360520Y-10559946D02*
X15370044Y-10512327D01*
X15370044Y-10512327D02*
X15379568Y-10483755D01*
X15379568Y-10483755D02*
X15389091Y-10464708D01*
X15389091Y-10464708D02*
X15408139Y-10436136D01*
X15408139Y-10436136D02*
X15417663Y-10426612D01*
X15484329Y-10474231D02*
X15493853Y-10464708D01*
X15493853Y-10464708D02*
X15512901Y-10455184D01*
X15512901Y-10455184D02*
X15560520Y-10455184D01*
X15560520Y-10455184D02*
X15579568Y-10464708D01*
X15579568Y-10464708D02*
X15589091Y-10474231D01*
X15589091Y-10474231D02*
X15598615Y-10493279D01*
X15598615Y-10493279D02*
X15598615Y-10512327D01*
X15598615Y-10512327D02*
X15589091Y-10540898D01*
X15589091Y-10540898D02*
X15474806Y-10655184D01*
X15474806Y-10655184D02*
X15598615Y-10655184D01*
X15722425Y-10455184D02*
X15741472Y-10455184D01*
X15741472Y-10455184D02*
X15760520Y-10464708D01*
X15760520Y-10464708D02*
X15770044Y-10474231D01*
X15770044Y-10474231D02*
X15779568Y-10493279D01*
X15779568Y-10493279D02*
X15789091Y-10531374D01*
X15789091Y-10531374D02*
X15789091Y-10578993D01*
X15789091Y-10578993D02*
X15779568Y-10617089D01*
X15779568Y-10617089D02*
X15770044Y-10636136D01*
X15770044Y-10636136D02*
X15760520Y-10645660D01*
X15760520Y-10645660D02*
X15741472Y-10655184D01*
X15741472Y-10655184D02*
X15722425Y-10655184D01*
X15722425Y-10655184D02*
X15703377Y-10645660D01*
X15703377Y-10645660D02*
X15693853Y-10636136D01*
X15693853Y-10636136D02*
X15684329Y-10617089D01*
X15684329Y-10617089D02*
X15674806Y-10578993D01*
X15674806Y-10578993D02*
X15674806Y-10531374D01*
X15674806Y-10531374D02*
X15684329Y-10493279D01*
X15684329Y-10493279D02*
X15693853Y-10474231D01*
X15693853Y-10474231D02*
X15703377Y-10464708D01*
X15703377Y-10464708D02*
X15722425Y-10455184D01*
X16027187Y-10655184D02*
X16027187Y-10455184D01*
X16112901Y-10655184D02*
X16112901Y-10550422D01*
X16112901Y-10550422D02*
X16103377Y-10531374D01*
X16103377Y-10531374D02*
X16084330Y-10521850D01*
X16084330Y-10521850D02*
X16055758Y-10521850D01*
X16055758Y-10521850D02*
X16036710Y-10531374D01*
X16036710Y-10531374D02*
X16027187Y-10540898D01*
X16236710Y-10655184D02*
X16217663Y-10645660D01*
X16217663Y-10645660D02*
X16208139Y-10636136D01*
X16208139Y-10636136D02*
X16198615Y-10617089D01*
X16198615Y-10617089D02*
X16198615Y-10559946D01*
X16198615Y-10559946D02*
X16208139Y-10540898D01*
X16208139Y-10540898D02*
X16217663Y-10531374D01*
X16217663Y-10531374D02*
X16236710Y-10521850D01*
X16236710Y-10521850D02*
X16265282Y-10521850D01*
X16265282Y-10521850D02*
X16284330Y-10531374D01*
X16284330Y-10531374D02*
X16293853Y-10540898D01*
X16293853Y-10540898D02*
X16303377Y-10559946D01*
X16303377Y-10559946D02*
X16303377Y-10617089D01*
X16303377Y-10617089D02*
X16293853Y-10636136D01*
X16293853Y-10636136D02*
X16284330Y-10645660D01*
X16284330Y-10645660D02*
X16265282Y-10655184D01*
X16265282Y-10655184D02*
X16236710Y-10655184D01*
X16417663Y-10655184D02*
X16398615Y-10645660D01*
X16398615Y-10645660D02*
X16389091Y-10626612D01*
X16389091Y-10626612D02*
X16389091Y-10455184D01*
X16570044Y-10645660D02*
X16550996Y-10655184D01*
X16550996Y-10655184D02*
X16512901Y-10655184D01*
X16512901Y-10655184D02*
X16493853Y-10645660D01*
X16493853Y-10645660D02*
X16484330Y-10626612D01*
X16484330Y-10626612D02*
X16484330Y-10550422D01*
X16484330Y-10550422D02*
X16493853Y-10531374D01*
X16493853Y-10531374D02*
X16512901Y-10521850D01*
X16512901Y-10521850D02*
X16550996Y-10521850D01*
X16550996Y-10521850D02*
X16570044Y-10531374D01*
X16570044Y-10531374D02*
X16579568Y-10550422D01*
X16579568Y-10550422D02*
X16579568Y-10569470D01*
X16579568Y-10569470D02*
X16484330Y-10588517D01*
X16655758Y-10645660D02*
X16674806Y-10655184D01*
X16674806Y-10655184D02*
X16712901Y-10655184D01*
X16712901Y-10655184D02*
X16731949Y-10645660D01*
X16731949Y-10645660D02*
X16741472Y-10626612D01*
X16741472Y-10626612D02*
X16741472Y-10617089D01*
X16741472Y-10617089D02*
X16731949Y-10598041D01*
X16731949Y-10598041D02*
X16712901Y-10588517D01*
X16712901Y-10588517D02*
X16684330Y-10588517D01*
X16684330Y-10588517D02*
X16665282Y-10578993D01*
X16665282Y-10578993D02*
X16655758Y-10559946D01*
X16655758Y-10559946D02*
X16655758Y-10550422D01*
X16655758Y-10550422D02*
X16665282Y-10531374D01*
X16665282Y-10531374D02*
X16684330Y-10521850D01*
X16684330Y-10521850D02*
X16712901Y-10521850D01*
X16712901Y-10521850D02*
X16731949Y-10531374D01*
X16808139Y-10731374D02*
X16817663Y-10721850D01*
X16817663Y-10721850D02*
X16836711Y-10693279D01*
X16836711Y-10693279D02*
X16846234Y-10674231D01*
X16846234Y-10674231D02*
X16855758Y-10645660D01*
X16855758Y-10645660D02*
X16865282Y-10598041D01*
X16865282Y-10598041D02*
X16865282Y-10559946D01*
X16865282Y-10559946D02*
X16855758Y-10512327D01*
X16855758Y-10512327D02*
X16846234Y-10483755D01*
X16846234Y-10483755D02*
X16836711Y-10464708D01*
X16836711Y-10464708D02*
X16817663Y-10436136D01*
X16817663Y-10436136D02*
X16808139Y-10426612D01*
D10*
X11842600Y-10827700D02*
G75*
G03*
X11842600Y-10827700I-50000J0D01*
G01*
D11*
X12208139Y-10919184D02*
X12093853Y-10919184D01*
X12150996Y-10919184D02*
X12150996Y-10719184D01*
X12150996Y-10719184D02*
X12131948Y-10747755D01*
X12131948Y-10747755D02*
X12112901Y-10766803D01*
X12112901Y-10766803D02*
X12093853Y-10776327D01*
X12293853Y-10900136D02*
X12303377Y-10909660D01*
X12303377Y-10909660D02*
X12293853Y-10919184D01*
X12293853Y-10919184D02*
X12284329Y-10909660D01*
X12284329Y-10909660D02*
X12293853Y-10900136D01*
X12293853Y-10900136D02*
X12293853Y-10919184D01*
X12427186Y-10719184D02*
X12446234Y-10719184D01*
X12446234Y-10719184D02*
X12465282Y-10728708D01*
X12465282Y-10728708D02*
X12474805Y-10738231D01*
X12474805Y-10738231D02*
X12484329Y-10757279D01*
X12484329Y-10757279D02*
X12493853Y-10795374D01*
X12493853Y-10795374D02*
X12493853Y-10842993D01*
X12493853Y-10842993D02*
X12484329Y-10881089D01*
X12484329Y-10881089D02*
X12474805Y-10900136D01*
X12474805Y-10900136D02*
X12465282Y-10909660D01*
X12465282Y-10909660D02*
X12446234Y-10919184D01*
X12446234Y-10919184D02*
X12427186Y-10919184D01*
X12427186Y-10919184D02*
X12408139Y-10909660D01*
X12408139Y-10909660D02*
X12398615Y-10900136D01*
X12398615Y-10900136D02*
X12389091Y-10881089D01*
X12389091Y-10881089D02*
X12379567Y-10842993D01*
X12379567Y-10842993D02*
X12379567Y-10795374D01*
X12379567Y-10795374D02*
X12389091Y-10757279D01*
X12389091Y-10757279D02*
X12398615Y-10738231D01*
X12398615Y-10738231D02*
X12408139Y-10728708D01*
X12408139Y-10728708D02*
X12427186Y-10719184D01*
X12617662Y-10719184D02*
X12636710Y-10719184D01*
X12636710Y-10719184D02*
X12655758Y-10728708D01*
X12655758Y-10728708D02*
X12665282Y-10738231D01*
X12665282Y-10738231D02*
X12674805Y-10757279D01*
X12674805Y-10757279D02*
X12684329Y-10795374D01*
X12684329Y-10795374D02*
X12684329Y-10842993D01*
X12684329Y-10842993D02*
X12674805Y-10881089D01*
X12674805Y-10881089D02*
X12665282Y-10900136D01*
X12665282Y-10900136D02*
X12655758Y-10909660D01*
X12655758Y-10909660D02*
X12636710Y-10919184D01*
X12636710Y-10919184D02*
X12617662Y-10919184D01*
X12617662Y-10919184D02*
X12598615Y-10909660D01*
X12598615Y-10909660D02*
X12589091Y-10900136D01*
X12589091Y-10900136D02*
X12579567Y-10881089D01*
X12579567Y-10881089D02*
X12570043Y-10842993D01*
X12570043Y-10842993D02*
X12570043Y-10795374D01*
X12570043Y-10795374D02*
X12579567Y-10757279D01*
X12579567Y-10757279D02*
X12589091Y-10738231D01*
X12589091Y-10738231D02*
X12598615Y-10728708D01*
X12598615Y-10728708D02*
X12617662Y-10719184D01*
X12808139Y-10719184D02*
X12827186Y-10719184D01*
X12827186Y-10719184D02*
X12846234Y-10728708D01*
X12846234Y-10728708D02*
X12855758Y-10738231D01*
X12855758Y-10738231D02*
X12865282Y-10757279D01*
X12865282Y-10757279D02*
X12874805Y-10795374D01*
X12874805Y-10795374D02*
X12874805Y-10842993D01*
X12874805Y-10842993D02*
X12865282Y-10881089D01*
X12865282Y-10881089D02*
X12855758Y-10900136D01*
X12855758Y-10900136D02*
X12846234Y-10909660D01*
X12846234Y-10909660D02*
X12827186Y-10919184D01*
X12827186Y-10919184D02*
X12808139Y-10919184D01*
X12808139Y-10919184D02*
X12789091Y-10909660D01*
X12789091Y-10909660D02*
X12779567Y-10900136D01*
X12779567Y-10900136D02*
X12770043Y-10881089D01*
X12770043Y-10881089D02*
X12760520Y-10842993D01*
X12760520Y-10842993D02*
X12760520Y-10795374D01*
X12760520Y-10795374D02*
X12770043Y-10757279D01*
X12770043Y-10757279D02*
X12779567Y-10738231D01*
X12779567Y-10738231D02*
X12789091Y-10728708D01*
X12789091Y-10728708D02*
X12808139Y-10719184D01*
X12960520Y-10919184D02*
X12960520Y-10785850D01*
X12960520Y-10804898D02*
X12970043Y-10795374D01*
X12970043Y-10795374D02*
X12989091Y-10785850D01*
X12989091Y-10785850D02*
X13017663Y-10785850D01*
X13017663Y-10785850D02*
X13036710Y-10795374D01*
X13036710Y-10795374D02*
X13046234Y-10814422D01*
X13046234Y-10814422D02*
X13046234Y-10919184D01*
X13046234Y-10814422D02*
X13055758Y-10795374D01*
X13055758Y-10795374D02*
X13074805Y-10785850D01*
X13074805Y-10785850D02*
X13103377Y-10785850D01*
X13103377Y-10785850D02*
X13122424Y-10795374D01*
X13122424Y-10795374D02*
X13131948Y-10814422D01*
X13131948Y-10814422D02*
X13131948Y-10919184D01*
X13227186Y-10919184D02*
X13227186Y-10785850D01*
X13227186Y-10804898D02*
X13236710Y-10795374D01*
X13236710Y-10795374D02*
X13255758Y-10785850D01*
X13255758Y-10785850D02*
X13284329Y-10785850D01*
X13284329Y-10785850D02*
X13303377Y-10795374D01*
X13303377Y-10795374D02*
X13312901Y-10814422D01*
X13312901Y-10814422D02*
X13312901Y-10919184D01*
X13312901Y-10814422D02*
X13322424Y-10795374D01*
X13322424Y-10795374D02*
X13341472Y-10785850D01*
X13341472Y-10785850D02*
X13370043Y-10785850D01*
X13370043Y-10785850D02*
X13389091Y-10795374D01*
X13389091Y-10795374D02*
X13398615Y-10814422D01*
X13398615Y-10814422D02*
X13398615Y-10919184D01*
X13789091Y-10709660D02*
X13617663Y-10966803D01*
X14046234Y-10719184D02*
X14065282Y-10719184D01*
X14065282Y-10719184D02*
X14084329Y-10728708D01*
X14084329Y-10728708D02*
X14093853Y-10738231D01*
X14093853Y-10738231D02*
X14103377Y-10757279D01*
X14103377Y-10757279D02*
X14112901Y-10795374D01*
X14112901Y-10795374D02*
X14112901Y-10842993D01*
X14112901Y-10842993D02*
X14103377Y-10881089D01*
X14103377Y-10881089D02*
X14093853Y-10900136D01*
X14093853Y-10900136D02*
X14084329Y-10909660D01*
X14084329Y-10909660D02*
X14065282Y-10919184D01*
X14065282Y-10919184D02*
X14046234Y-10919184D01*
X14046234Y-10919184D02*
X14027186Y-10909660D01*
X14027186Y-10909660D02*
X14017663Y-10900136D01*
X14017663Y-10900136D02*
X14008139Y-10881089D01*
X14008139Y-10881089D02*
X13998615Y-10842993D01*
X13998615Y-10842993D02*
X13998615Y-10795374D01*
X13998615Y-10795374D02*
X14008139Y-10757279D01*
X14008139Y-10757279D02*
X14017663Y-10738231D01*
X14017663Y-10738231D02*
X14027186Y-10728708D01*
X14027186Y-10728708D02*
X14046234Y-10719184D01*
X14198615Y-10900136D02*
X14208139Y-10909660D01*
X14208139Y-10909660D02*
X14198615Y-10919184D01*
X14198615Y-10919184D02*
X14189091Y-10909660D01*
X14189091Y-10909660D02*
X14198615Y-10900136D01*
X14198615Y-10900136D02*
X14198615Y-10919184D01*
X14331948Y-10719184D02*
X14350996Y-10719184D01*
X14350996Y-10719184D02*
X14370044Y-10728708D01*
X14370044Y-10728708D02*
X14379567Y-10738231D01*
X14379567Y-10738231D02*
X14389091Y-10757279D01*
X14389091Y-10757279D02*
X14398615Y-10795374D01*
X14398615Y-10795374D02*
X14398615Y-10842993D01*
X14398615Y-10842993D02*
X14389091Y-10881089D01*
X14389091Y-10881089D02*
X14379567Y-10900136D01*
X14379567Y-10900136D02*
X14370044Y-10909660D01*
X14370044Y-10909660D02*
X14350996Y-10919184D01*
X14350996Y-10919184D02*
X14331948Y-10919184D01*
X14331948Y-10919184D02*
X14312901Y-10909660D01*
X14312901Y-10909660D02*
X14303377Y-10900136D01*
X14303377Y-10900136D02*
X14293853Y-10881089D01*
X14293853Y-10881089D02*
X14284329Y-10842993D01*
X14284329Y-10842993D02*
X14284329Y-10795374D01*
X14284329Y-10795374D02*
X14293853Y-10757279D01*
X14293853Y-10757279D02*
X14303377Y-10738231D01*
X14303377Y-10738231D02*
X14312901Y-10728708D01*
X14312901Y-10728708D02*
X14331948Y-10719184D01*
X14465282Y-10719184D02*
X14589091Y-10719184D01*
X14589091Y-10719184D02*
X14522425Y-10795374D01*
X14522425Y-10795374D02*
X14550996Y-10795374D01*
X14550996Y-10795374D02*
X14570044Y-10804898D01*
X14570044Y-10804898D02*
X14579567Y-10814422D01*
X14579567Y-10814422D02*
X14589091Y-10833470D01*
X14589091Y-10833470D02*
X14589091Y-10881089D01*
X14589091Y-10881089D02*
X14579567Y-10900136D01*
X14579567Y-10900136D02*
X14570044Y-10909660D01*
X14570044Y-10909660D02*
X14550996Y-10919184D01*
X14550996Y-10919184D02*
X14493853Y-10919184D01*
X14493853Y-10919184D02*
X14474806Y-10909660D01*
X14474806Y-10909660D02*
X14465282Y-10900136D01*
X14684329Y-10919184D02*
X14722425Y-10919184D01*
X14722425Y-10919184D02*
X14741472Y-10909660D01*
X14741472Y-10909660D02*
X14750996Y-10900136D01*
X14750996Y-10900136D02*
X14770044Y-10871565D01*
X14770044Y-10871565D02*
X14779567Y-10833470D01*
X14779567Y-10833470D02*
X14779567Y-10757279D01*
X14779567Y-10757279D02*
X14770044Y-10738231D01*
X14770044Y-10738231D02*
X14760520Y-10728708D01*
X14760520Y-10728708D02*
X14741472Y-10719184D01*
X14741472Y-10719184D02*
X14703377Y-10719184D01*
X14703377Y-10719184D02*
X14684329Y-10728708D01*
X14684329Y-10728708D02*
X14674806Y-10738231D01*
X14674806Y-10738231D02*
X14665282Y-10757279D01*
X14665282Y-10757279D02*
X14665282Y-10804898D01*
X14665282Y-10804898D02*
X14674806Y-10823946D01*
X14674806Y-10823946D02*
X14684329Y-10833470D01*
X14684329Y-10833470D02*
X14703377Y-10842993D01*
X14703377Y-10842993D02*
X14741472Y-10842993D01*
X14741472Y-10842993D02*
X14760520Y-10833470D01*
X14760520Y-10833470D02*
X14770044Y-10823946D01*
X14770044Y-10823946D02*
X14779567Y-10804898D01*
X14950996Y-10785850D02*
X14950996Y-10919184D01*
X14903377Y-10709660D02*
X14855758Y-10852517D01*
X14855758Y-10852517D02*
X14979567Y-10852517D01*
X15046234Y-10719184D02*
X15046234Y-10757279D01*
X15122425Y-10719184D02*
X15122425Y-10757279D01*
X15417663Y-10995374D02*
X15408139Y-10985850D01*
X15408139Y-10985850D02*
X15389091Y-10957279D01*
X15389091Y-10957279D02*
X15379568Y-10938231D01*
X15379568Y-10938231D02*
X15370044Y-10909660D01*
X15370044Y-10909660D02*
X15360520Y-10862041D01*
X15360520Y-10862041D02*
X15360520Y-10823946D01*
X15360520Y-10823946D02*
X15370044Y-10776327D01*
X15370044Y-10776327D02*
X15379568Y-10747755D01*
X15379568Y-10747755D02*
X15389091Y-10728708D01*
X15389091Y-10728708D02*
X15408139Y-10700136D01*
X15408139Y-10700136D02*
X15417663Y-10690612D01*
X15484329Y-10738231D02*
X15493853Y-10728708D01*
X15493853Y-10728708D02*
X15512901Y-10719184D01*
X15512901Y-10719184D02*
X15560520Y-10719184D01*
X15560520Y-10719184D02*
X15579568Y-10728708D01*
X15579568Y-10728708D02*
X15589091Y-10738231D01*
X15589091Y-10738231D02*
X15598615Y-10757279D01*
X15598615Y-10757279D02*
X15598615Y-10776327D01*
X15598615Y-10776327D02*
X15589091Y-10804898D01*
X15589091Y-10804898D02*
X15474806Y-10919184D01*
X15474806Y-10919184D02*
X15598615Y-10919184D01*
X15722425Y-10719184D02*
X15741472Y-10719184D01*
X15741472Y-10719184D02*
X15760520Y-10728708D01*
X15760520Y-10728708D02*
X15770044Y-10738231D01*
X15770044Y-10738231D02*
X15779568Y-10757279D01*
X15779568Y-10757279D02*
X15789091Y-10795374D01*
X15789091Y-10795374D02*
X15789091Y-10842993D01*
X15789091Y-10842993D02*
X15779568Y-10881089D01*
X15779568Y-10881089D02*
X15770044Y-10900136D01*
X15770044Y-10900136D02*
X15760520Y-10909660D01*
X15760520Y-10909660D02*
X15741472Y-10919184D01*
X15741472Y-10919184D02*
X15722425Y-10919184D01*
X15722425Y-10919184D02*
X15703377Y-10909660D01*
X15703377Y-10909660D02*
X15693853Y-10900136D01*
X15693853Y-10900136D02*
X15684329Y-10881089D01*
X15684329Y-10881089D02*
X15674806Y-10842993D01*
X15674806Y-10842993D02*
X15674806Y-10795374D01*
X15674806Y-10795374D02*
X15684329Y-10757279D01*
X15684329Y-10757279D02*
X15693853Y-10738231D01*
X15693853Y-10738231D02*
X15703377Y-10728708D01*
X15703377Y-10728708D02*
X15722425Y-10719184D01*
X16027187Y-10919184D02*
X16027187Y-10719184D01*
X16112901Y-10919184D02*
X16112901Y-10814422D01*
X16112901Y-10814422D02*
X16103377Y-10795374D01*
X16103377Y-10795374D02*
X16084330Y-10785850D01*
X16084330Y-10785850D02*
X16055758Y-10785850D01*
X16055758Y-10785850D02*
X16036710Y-10795374D01*
X16036710Y-10795374D02*
X16027187Y-10804898D01*
X16236710Y-10919184D02*
X16217663Y-10909660D01*
X16217663Y-10909660D02*
X16208139Y-10900136D01*
X16208139Y-10900136D02*
X16198615Y-10881089D01*
X16198615Y-10881089D02*
X16198615Y-10823946D01*
X16198615Y-10823946D02*
X16208139Y-10804898D01*
X16208139Y-10804898D02*
X16217663Y-10795374D01*
X16217663Y-10795374D02*
X16236710Y-10785850D01*
X16236710Y-10785850D02*
X16265282Y-10785850D01*
X16265282Y-10785850D02*
X16284330Y-10795374D01*
X16284330Y-10795374D02*
X16293853Y-10804898D01*
X16293853Y-10804898D02*
X16303377Y-10823946D01*
X16303377Y-10823946D02*
X16303377Y-10881089D01*
X16303377Y-10881089D02*
X16293853Y-10900136D01*
X16293853Y-10900136D02*
X16284330Y-10909660D01*
X16284330Y-10909660D02*
X16265282Y-10919184D01*
X16265282Y-10919184D02*
X16236710Y-10919184D01*
X16417663Y-10919184D02*
X16398615Y-10909660D01*
X16398615Y-10909660D02*
X16389091Y-10890612D01*
X16389091Y-10890612D02*
X16389091Y-10719184D01*
X16570044Y-10909660D02*
X16550996Y-10919184D01*
X16550996Y-10919184D02*
X16512901Y-10919184D01*
X16512901Y-10919184D02*
X16493853Y-10909660D01*
X16493853Y-10909660D02*
X16484330Y-10890612D01*
X16484330Y-10890612D02*
X16484330Y-10814422D01*
X16484330Y-10814422D02*
X16493853Y-10795374D01*
X16493853Y-10795374D02*
X16512901Y-10785850D01*
X16512901Y-10785850D02*
X16550996Y-10785850D01*
X16550996Y-10785850D02*
X16570044Y-10795374D01*
X16570044Y-10795374D02*
X16579568Y-10814422D01*
X16579568Y-10814422D02*
X16579568Y-10833470D01*
X16579568Y-10833470D02*
X16484330Y-10852517D01*
X16655758Y-10909660D02*
X16674806Y-10919184D01*
X16674806Y-10919184D02*
X16712901Y-10919184D01*
X16712901Y-10919184D02*
X16731949Y-10909660D01*
X16731949Y-10909660D02*
X16741472Y-10890612D01*
X16741472Y-10890612D02*
X16741472Y-10881089D01*
X16741472Y-10881089D02*
X16731949Y-10862041D01*
X16731949Y-10862041D02*
X16712901Y-10852517D01*
X16712901Y-10852517D02*
X16684330Y-10852517D01*
X16684330Y-10852517D02*
X16665282Y-10842993D01*
X16665282Y-10842993D02*
X16655758Y-10823946D01*
X16655758Y-10823946D02*
X16655758Y-10814422D01*
X16655758Y-10814422D02*
X16665282Y-10795374D01*
X16665282Y-10795374D02*
X16684330Y-10785850D01*
X16684330Y-10785850D02*
X16712901Y-10785850D01*
X16712901Y-10785850D02*
X16731949Y-10795374D01*
X16808139Y-10995374D02*
X16817663Y-10985850D01*
X16817663Y-10985850D02*
X16836711Y-10957279D01*
X16836711Y-10957279D02*
X16846234Y-10938231D01*
X16846234Y-10938231D02*
X16855758Y-10909660D01*
X16855758Y-10909660D02*
X16865282Y-10862041D01*
X16865282Y-10862041D02*
X16865282Y-10823946D01*
X16865282Y-10823946D02*
X16855758Y-10776327D01*
X16855758Y-10776327D02*
X16846234Y-10747755D01*
X16846234Y-10747755D02*
X16836711Y-10728708D01*
X16836711Y-10728708D02*
X16817663Y-10700136D01*
X16817663Y-10700136D02*
X16808139Y-10690612D01*
D12*
X11762600Y-11011700D02*
X11762600Y-11171700D01*
X11682600Y-11091700D02*
X11842600Y-11091700D01*
D11*
X12208139Y-11183184D02*
X12093853Y-11183184D01*
X12150996Y-11183184D02*
X12150996Y-10983184D01*
X12150996Y-10983184D02*
X12131948Y-11011755D01*
X12131948Y-11011755D02*
X12112901Y-11030803D01*
X12112901Y-11030803D02*
X12093853Y-11040327D01*
X12293853Y-11164136D02*
X12303377Y-11173660D01*
X12303377Y-11173660D02*
X12293853Y-11183184D01*
X12293853Y-11183184D02*
X12284329Y-11173660D01*
X12284329Y-11173660D02*
X12293853Y-11164136D01*
X12293853Y-11164136D02*
X12293853Y-11183184D01*
X12474805Y-10983184D02*
X12436710Y-10983184D01*
X12436710Y-10983184D02*
X12417662Y-10992708D01*
X12417662Y-10992708D02*
X12408139Y-11002231D01*
X12408139Y-11002231D02*
X12389091Y-11030803D01*
X12389091Y-11030803D02*
X12379567Y-11068898D01*
X12379567Y-11068898D02*
X12379567Y-11145089D01*
X12379567Y-11145089D02*
X12389091Y-11164136D01*
X12389091Y-11164136D02*
X12398615Y-11173660D01*
X12398615Y-11173660D02*
X12417662Y-11183184D01*
X12417662Y-11183184D02*
X12455758Y-11183184D01*
X12455758Y-11183184D02*
X12474805Y-11173660D01*
X12474805Y-11173660D02*
X12484329Y-11164136D01*
X12484329Y-11164136D02*
X12493853Y-11145089D01*
X12493853Y-11145089D02*
X12493853Y-11097470D01*
X12493853Y-11097470D02*
X12484329Y-11078422D01*
X12484329Y-11078422D02*
X12474805Y-11068898D01*
X12474805Y-11068898D02*
X12455758Y-11059374D01*
X12455758Y-11059374D02*
X12417662Y-11059374D01*
X12417662Y-11059374D02*
X12398615Y-11068898D01*
X12398615Y-11068898D02*
X12389091Y-11078422D01*
X12389091Y-11078422D02*
X12379567Y-11097470D01*
X12617662Y-10983184D02*
X12636710Y-10983184D01*
X12636710Y-10983184D02*
X12655758Y-10992708D01*
X12655758Y-10992708D02*
X12665282Y-11002231D01*
X12665282Y-11002231D02*
X12674805Y-11021279D01*
X12674805Y-11021279D02*
X12684329Y-11059374D01*
X12684329Y-11059374D02*
X12684329Y-11106993D01*
X12684329Y-11106993D02*
X12674805Y-11145089D01*
X12674805Y-11145089D02*
X12665282Y-11164136D01*
X12665282Y-11164136D02*
X12655758Y-11173660D01*
X12655758Y-11173660D02*
X12636710Y-11183184D01*
X12636710Y-11183184D02*
X12617662Y-11183184D01*
X12617662Y-11183184D02*
X12598615Y-11173660D01*
X12598615Y-11173660D02*
X12589091Y-11164136D01*
X12589091Y-11164136D02*
X12579567Y-11145089D01*
X12579567Y-11145089D02*
X12570043Y-11106993D01*
X12570043Y-11106993D02*
X12570043Y-11059374D01*
X12570043Y-11059374D02*
X12579567Y-11021279D01*
X12579567Y-11021279D02*
X12589091Y-11002231D01*
X12589091Y-11002231D02*
X12598615Y-10992708D01*
X12598615Y-10992708D02*
X12617662Y-10983184D01*
X12808139Y-10983184D02*
X12827186Y-10983184D01*
X12827186Y-10983184D02*
X12846234Y-10992708D01*
X12846234Y-10992708D02*
X12855758Y-11002231D01*
X12855758Y-11002231D02*
X12865282Y-11021279D01*
X12865282Y-11021279D02*
X12874805Y-11059374D01*
X12874805Y-11059374D02*
X12874805Y-11106993D01*
X12874805Y-11106993D02*
X12865282Y-11145089D01*
X12865282Y-11145089D02*
X12855758Y-11164136D01*
X12855758Y-11164136D02*
X12846234Y-11173660D01*
X12846234Y-11173660D02*
X12827186Y-11183184D01*
X12827186Y-11183184D02*
X12808139Y-11183184D01*
X12808139Y-11183184D02*
X12789091Y-11173660D01*
X12789091Y-11173660D02*
X12779567Y-11164136D01*
X12779567Y-11164136D02*
X12770043Y-11145089D01*
X12770043Y-11145089D02*
X12760520Y-11106993D01*
X12760520Y-11106993D02*
X12760520Y-11059374D01*
X12760520Y-11059374D02*
X12770043Y-11021279D01*
X12770043Y-11021279D02*
X12779567Y-11002231D01*
X12779567Y-11002231D02*
X12789091Y-10992708D01*
X12789091Y-10992708D02*
X12808139Y-10983184D01*
X12960520Y-11183184D02*
X12960520Y-11049850D01*
X12960520Y-11068898D02*
X12970043Y-11059374D01*
X12970043Y-11059374D02*
X12989091Y-11049850D01*
X12989091Y-11049850D02*
X13017663Y-11049850D01*
X13017663Y-11049850D02*
X13036710Y-11059374D01*
X13036710Y-11059374D02*
X13046234Y-11078422D01*
X13046234Y-11078422D02*
X13046234Y-11183184D01*
X13046234Y-11078422D02*
X13055758Y-11059374D01*
X13055758Y-11059374D02*
X13074805Y-11049850D01*
X13074805Y-11049850D02*
X13103377Y-11049850D01*
X13103377Y-11049850D02*
X13122424Y-11059374D01*
X13122424Y-11059374D02*
X13131948Y-11078422D01*
X13131948Y-11078422D02*
X13131948Y-11183184D01*
X13227186Y-11183184D02*
X13227186Y-11049850D01*
X13227186Y-11068898D02*
X13236710Y-11059374D01*
X13236710Y-11059374D02*
X13255758Y-11049850D01*
X13255758Y-11049850D02*
X13284329Y-11049850D01*
X13284329Y-11049850D02*
X13303377Y-11059374D01*
X13303377Y-11059374D02*
X13312901Y-11078422D01*
X13312901Y-11078422D02*
X13312901Y-11183184D01*
X13312901Y-11078422D02*
X13322424Y-11059374D01*
X13322424Y-11059374D02*
X13341472Y-11049850D01*
X13341472Y-11049850D02*
X13370043Y-11049850D01*
X13370043Y-11049850D02*
X13389091Y-11059374D01*
X13389091Y-11059374D02*
X13398615Y-11078422D01*
X13398615Y-11078422D02*
X13398615Y-11183184D01*
X13789091Y-10973660D02*
X13617663Y-11230803D01*
X14046234Y-10983184D02*
X14065282Y-10983184D01*
X14065282Y-10983184D02*
X14084329Y-10992708D01*
X14084329Y-10992708D02*
X14093853Y-11002231D01*
X14093853Y-11002231D02*
X14103377Y-11021279D01*
X14103377Y-11021279D02*
X14112901Y-11059374D01*
X14112901Y-11059374D02*
X14112901Y-11106993D01*
X14112901Y-11106993D02*
X14103377Y-11145089D01*
X14103377Y-11145089D02*
X14093853Y-11164136D01*
X14093853Y-11164136D02*
X14084329Y-11173660D01*
X14084329Y-11173660D02*
X14065282Y-11183184D01*
X14065282Y-11183184D02*
X14046234Y-11183184D01*
X14046234Y-11183184D02*
X14027186Y-11173660D01*
X14027186Y-11173660D02*
X14017663Y-11164136D01*
X14017663Y-11164136D02*
X14008139Y-11145089D01*
X14008139Y-11145089D02*
X13998615Y-11106993D01*
X13998615Y-11106993D02*
X13998615Y-11059374D01*
X13998615Y-11059374D02*
X14008139Y-11021279D01*
X14008139Y-11021279D02*
X14017663Y-11002231D01*
X14017663Y-11002231D02*
X14027186Y-10992708D01*
X14027186Y-10992708D02*
X14046234Y-10983184D01*
X14198615Y-11164136D02*
X14208139Y-11173660D01*
X14208139Y-11173660D02*
X14198615Y-11183184D01*
X14198615Y-11183184D02*
X14189091Y-11173660D01*
X14189091Y-11173660D02*
X14198615Y-11164136D01*
X14198615Y-11164136D02*
X14198615Y-11183184D01*
X14331948Y-10983184D02*
X14350996Y-10983184D01*
X14350996Y-10983184D02*
X14370044Y-10992708D01*
X14370044Y-10992708D02*
X14379567Y-11002231D01*
X14379567Y-11002231D02*
X14389091Y-11021279D01*
X14389091Y-11021279D02*
X14398615Y-11059374D01*
X14398615Y-11059374D02*
X14398615Y-11106993D01*
X14398615Y-11106993D02*
X14389091Y-11145089D01*
X14389091Y-11145089D02*
X14379567Y-11164136D01*
X14379567Y-11164136D02*
X14370044Y-11173660D01*
X14370044Y-11173660D02*
X14350996Y-11183184D01*
X14350996Y-11183184D02*
X14331948Y-11183184D01*
X14331948Y-11183184D02*
X14312901Y-11173660D01*
X14312901Y-11173660D02*
X14303377Y-11164136D01*
X14303377Y-11164136D02*
X14293853Y-11145089D01*
X14293853Y-11145089D02*
X14284329Y-11106993D01*
X14284329Y-11106993D02*
X14284329Y-11059374D01*
X14284329Y-11059374D02*
X14293853Y-11021279D01*
X14293853Y-11021279D02*
X14303377Y-11002231D01*
X14303377Y-11002231D02*
X14312901Y-10992708D01*
X14312901Y-10992708D02*
X14331948Y-10983184D01*
X14570044Y-10983184D02*
X14531948Y-10983184D01*
X14531948Y-10983184D02*
X14512901Y-10992708D01*
X14512901Y-10992708D02*
X14503377Y-11002231D01*
X14503377Y-11002231D02*
X14484329Y-11030803D01*
X14484329Y-11030803D02*
X14474806Y-11068898D01*
X14474806Y-11068898D02*
X14474806Y-11145089D01*
X14474806Y-11145089D02*
X14484329Y-11164136D01*
X14484329Y-11164136D02*
X14493853Y-11173660D01*
X14493853Y-11173660D02*
X14512901Y-11183184D01*
X14512901Y-11183184D02*
X14550996Y-11183184D01*
X14550996Y-11183184D02*
X14570044Y-11173660D01*
X14570044Y-11173660D02*
X14579567Y-11164136D01*
X14579567Y-11164136D02*
X14589091Y-11145089D01*
X14589091Y-11145089D02*
X14589091Y-11097470D01*
X14589091Y-11097470D02*
X14579567Y-11078422D01*
X14579567Y-11078422D02*
X14570044Y-11068898D01*
X14570044Y-11068898D02*
X14550996Y-11059374D01*
X14550996Y-11059374D02*
X14512901Y-11059374D01*
X14512901Y-11059374D02*
X14493853Y-11068898D01*
X14493853Y-11068898D02*
X14484329Y-11078422D01*
X14484329Y-11078422D02*
X14474806Y-11097470D01*
X14655758Y-10983184D02*
X14779567Y-10983184D01*
X14779567Y-10983184D02*
X14712901Y-11059374D01*
X14712901Y-11059374D02*
X14741472Y-11059374D01*
X14741472Y-11059374D02*
X14760520Y-11068898D01*
X14760520Y-11068898D02*
X14770044Y-11078422D01*
X14770044Y-11078422D02*
X14779567Y-11097470D01*
X14779567Y-11097470D02*
X14779567Y-11145089D01*
X14779567Y-11145089D02*
X14770044Y-11164136D01*
X14770044Y-11164136D02*
X14760520Y-11173660D01*
X14760520Y-11173660D02*
X14741472Y-11183184D01*
X14741472Y-11183184D02*
X14684329Y-11183184D01*
X14684329Y-11183184D02*
X14665282Y-11173660D01*
X14665282Y-11173660D02*
X14655758Y-11164136D01*
X14903377Y-10983184D02*
X14922425Y-10983184D01*
X14922425Y-10983184D02*
X14941472Y-10992708D01*
X14941472Y-10992708D02*
X14950996Y-11002231D01*
X14950996Y-11002231D02*
X14960520Y-11021279D01*
X14960520Y-11021279D02*
X14970044Y-11059374D01*
X14970044Y-11059374D02*
X14970044Y-11106993D01*
X14970044Y-11106993D02*
X14960520Y-11145089D01*
X14960520Y-11145089D02*
X14950996Y-11164136D01*
X14950996Y-11164136D02*
X14941472Y-11173660D01*
X14941472Y-11173660D02*
X14922425Y-11183184D01*
X14922425Y-11183184D02*
X14903377Y-11183184D01*
X14903377Y-11183184D02*
X14884329Y-11173660D01*
X14884329Y-11173660D02*
X14874806Y-11164136D01*
X14874806Y-11164136D02*
X14865282Y-11145089D01*
X14865282Y-11145089D02*
X14855758Y-11106993D01*
X14855758Y-11106993D02*
X14855758Y-11059374D01*
X14855758Y-11059374D02*
X14865282Y-11021279D01*
X14865282Y-11021279D02*
X14874806Y-11002231D01*
X14874806Y-11002231D02*
X14884329Y-10992708D01*
X14884329Y-10992708D02*
X14903377Y-10983184D01*
X15046234Y-10983184D02*
X15046234Y-11021279D01*
X15122425Y-10983184D02*
X15122425Y-11021279D01*
X15417663Y-11259374D02*
X15408139Y-11249850D01*
X15408139Y-11249850D02*
X15389091Y-11221279D01*
X15389091Y-11221279D02*
X15379568Y-11202231D01*
X15379568Y-11202231D02*
X15370044Y-11173660D01*
X15370044Y-11173660D02*
X15360520Y-11126041D01*
X15360520Y-11126041D02*
X15360520Y-11087946D01*
X15360520Y-11087946D02*
X15370044Y-11040327D01*
X15370044Y-11040327D02*
X15379568Y-11011755D01*
X15379568Y-11011755D02*
X15389091Y-10992708D01*
X15389091Y-10992708D02*
X15408139Y-10964136D01*
X15408139Y-10964136D02*
X15417663Y-10954612D01*
X15598615Y-11183184D02*
X15484329Y-11183184D01*
X15541472Y-11183184D02*
X15541472Y-10983184D01*
X15541472Y-10983184D02*
X15522425Y-11011755D01*
X15522425Y-11011755D02*
X15503377Y-11030803D01*
X15503377Y-11030803D02*
X15484329Y-11040327D01*
X15836710Y-11183184D02*
X15836710Y-10983184D01*
X15922425Y-11183184D02*
X15922425Y-11078422D01*
X15922425Y-11078422D02*
X15912901Y-11059374D01*
X15912901Y-11059374D02*
X15893853Y-11049850D01*
X15893853Y-11049850D02*
X15865282Y-11049850D01*
X15865282Y-11049850D02*
X15846234Y-11059374D01*
X15846234Y-11059374D02*
X15836710Y-11068898D01*
X16046234Y-11183184D02*
X16027187Y-11173660D01*
X16027187Y-11173660D02*
X16017663Y-11164136D01*
X16017663Y-11164136D02*
X16008139Y-11145089D01*
X16008139Y-11145089D02*
X16008139Y-11087946D01*
X16008139Y-11087946D02*
X16017663Y-11068898D01*
X16017663Y-11068898D02*
X16027187Y-11059374D01*
X16027187Y-11059374D02*
X16046234Y-11049850D01*
X16046234Y-11049850D02*
X16074806Y-11049850D01*
X16074806Y-11049850D02*
X16093853Y-11059374D01*
X16093853Y-11059374D02*
X16103377Y-11068898D01*
X16103377Y-11068898D02*
X16112901Y-11087946D01*
X16112901Y-11087946D02*
X16112901Y-11145089D01*
X16112901Y-11145089D02*
X16103377Y-11164136D01*
X16103377Y-11164136D02*
X16093853Y-11173660D01*
X16093853Y-11173660D02*
X16074806Y-11183184D01*
X16074806Y-11183184D02*
X16046234Y-11183184D01*
X16227187Y-11183184D02*
X16208139Y-11173660D01*
X16208139Y-11173660D02*
X16198615Y-11154612D01*
X16198615Y-11154612D02*
X16198615Y-10983184D01*
X16379568Y-11173660D02*
X16360520Y-11183184D01*
X16360520Y-11183184D02*
X16322425Y-11183184D01*
X16322425Y-11183184D02*
X16303377Y-11173660D01*
X16303377Y-11173660D02*
X16293853Y-11154612D01*
X16293853Y-11154612D02*
X16293853Y-11078422D01*
X16293853Y-11078422D02*
X16303377Y-11059374D01*
X16303377Y-11059374D02*
X16322425Y-11049850D01*
X16322425Y-11049850D02*
X16360520Y-11049850D01*
X16360520Y-11049850D02*
X16379568Y-11059374D01*
X16379568Y-11059374D02*
X16389091Y-11078422D01*
X16389091Y-11078422D02*
X16389091Y-11097470D01*
X16389091Y-11097470D02*
X16293853Y-11116517D01*
X16455758Y-11259374D02*
X16465282Y-11249850D01*
X16465282Y-11249850D02*
X16484330Y-11221279D01*
X16484330Y-11221279D02*
X16493853Y-11202231D01*
X16493853Y-11202231D02*
X16503377Y-11173660D01*
X16503377Y-11173660D02*
X16512901Y-11126041D01*
X16512901Y-11126041D02*
X16512901Y-11087946D01*
X16512901Y-11087946D02*
X16503377Y-11040327D01*
X16503377Y-11040327D02*
X16493853Y-11011755D01*
X16493853Y-11011755D02*
X16484330Y-10992708D01*
X16484330Y-10992708D02*
X16465282Y-10964136D01*
X16465282Y-10964136D02*
X16455758Y-10954612D01*
M02*
