%TF.GenerationSoftware,KiCad,Pcbnew,7.0.9*%
%TF.CreationDate,2024-02-18T17:24:34-08:00*%
%TF.ProjectId,micromatch-20-breakout,6d696372-6f6d-4617-9463-682d32302d62,rev?*%
%TF.SameCoordinates,Original*%
%TF.FileFunction,Legend,Top*%
%TF.FilePolarity,Positive*%
%FSLAX46Y46*%
G04 Gerber Fmt 4.6, Leading zero omitted, Abs format (unit mm)*
G04 Created by KiCad (PCBNEW 7.0.9) date 2024-02-18 17:24:34*
%MOMM*%
%LPD*%
G01*
G04 APERTURE LIST*
G04 Aperture macros list*
%AMRoundRect*
0 Rectangle with rounded corners*
0 $1 Rounding radius*
0 $2 $3 $4 $5 $6 $7 $8 $9 X,Y pos of 4 corners*
0 Add a 4 corners polygon primitive as box body*
4,1,4,$2,$3,$4,$5,$6,$7,$8,$9,$2,$3,0*
0 Add four circle primitives for the rounded corners*
1,1,$1+$1,$2,$3*
1,1,$1+$1,$4,$5*
1,1,$1+$1,$6,$7*
1,1,$1+$1,$8,$9*
0 Add four rect primitives between the rounded corners*
20,1,$1+$1,$2,$3,$4,$5,0*
20,1,$1+$1,$4,$5,$6,$7,0*
20,1,$1+$1,$6,$7,$8,$9,0*
20,1,$1+$1,$8,$9,$2,$3,0*%
G04 Aperture macros list end*
%ADD10C,0.223106*%
%ADD11C,0.200000*%
%ADD12C,0.150000*%
%ADD13C,0.120000*%
%ADD14C,2.200000*%
%ADD15C,1.450000*%
%ADD16RoundRect,0.050000X0.850000X0.850000X-0.850000X0.850000X-0.850000X-0.850000X0.850000X-0.850000X0*%
%ADD17O,1.800000X1.800000*%
G04 APERTURE END LIST*
D10*
X119974153Y-69291200D02*
G75*
G03*
X119974153Y-69291200I-111553J0D01*
G01*
D11*
X120904000Y-97790000D02*
X123444000Y-97790000D01*
D12*
X119624942Y-96909169D02*
X120524942Y-96909169D01*
X120524942Y-96909169D02*
X120524942Y-97252026D01*
X120524942Y-97252026D02*
X120482085Y-97337741D01*
X120482085Y-97337741D02*
X120439228Y-97380598D01*
X120439228Y-97380598D02*
X120353514Y-97423455D01*
X120353514Y-97423455D02*
X120224942Y-97423455D01*
X120224942Y-97423455D02*
X120139228Y-97380598D01*
X120139228Y-97380598D02*
X120096371Y-97337741D01*
X120096371Y-97337741D02*
X120053514Y-97252026D01*
X120053514Y-97252026D02*
X120053514Y-96909169D01*
X119624942Y-97809169D02*
X120524942Y-97809169D01*
X119624942Y-98237740D02*
X120524942Y-98237740D01*
X120524942Y-98237740D02*
X119624942Y-98752026D01*
X119624942Y-98752026D02*
X120524942Y-98752026D01*
X128861771Y-70214887D02*
X128818914Y-70172030D01*
X128818914Y-70172030D02*
X128776057Y-70086316D01*
X128776057Y-70086316D02*
X128776057Y-69872030D01*
X128776057Y-69872030D02*
X128818914Y-69786316D01*
X128818914Y-69786316D02*
X128861771Y-69743458D01*
X128861771Y-69743458D02*
X128947485Y-69700601D01*
X128947485Y-69700601D02*
X129033200Y-69700601D01*
X129033200Y-69700601D02*
X129161771Y-69743458D01*
X129161771Y-69743458D02*
X129676057Y-70257744D01*
X129676057Y-70257744D02*
X129676057Y-69700601D01*
X128776057Y-69143458D02*
X128776057Y-69057744D01*
X128776057Y-69057744D02*
X128818914Y-68972030D01*
X128818914Y-68972030D02*
X128861771Y-68929173D01*
X128861771Y-68929173D02*
X128947485Y-68886315D01*
X128947485Y-68886315D02*
X129118914Y-68843458D01*
X129118914Y-68843458D02*
X129333200Y-68843458D01*
X129333200Y-68843458D02*
X129504628Y-68886315D01*
X129504628Y-68886315D02*
X129590342Y-68929173D01*
X129590342Y-68929173D02*
X129633200Y-68972030D01*
X129633200Y-68972030D02*
X129676057Y-69057744D01*
X129676057Y-69057744D02*
X129676057Y-69143458D01*
X129676057Y-69143458D02*
X129633200Y-69229173D01*
X129633200Y-69229173D02*
X129590342Y-69272030D01*
X129590342Y-69272030D02*
X129504628Y-69314887D01*
X129504628Y-69314887D02*
X129333200Y-69357744D01*
X129333200Y-69357744D02*
X129118914Y-69357744D01*
X129118914Y-69357744D02*
X128947485Y-69314887D01*
X128947485Y-69314887D02*
X128861771Y-69272030D01*
X128861771Y-69272030D02*
X128818914Y-69229173D01*
X128818914Y-69229173D02*
X128776057Y-69143458D01*
X129676057Y-96700801D02*
X129676057Y-97215087D01*
X129676057Y-96957944D02*
X128776057Y-96957944D01*
X128776057Y-96957944D02*
X128904628Y-97043658D01*
X128904628Y-97043658D02*
X128990342Y-97129373D01*
X128990342Y-97129373D02*
X129033200Y-97215087D01*
X129676057Y-95843658D02*
X129676057Y-96357944D01*
X129676057Y-96100801D02*
X128776057Y-96100801D01*
X128776057Y-96100801D02*
X128904628Y-96186515D01*
X128904628Y-96186515D02*
X128990342Y-96272230D01*
X128990342Y-96272230D02*
X129033200Y-96357944D01*
X121148942Y-96389998D02*
X121148942Y-95875712D01*
X121148942Y-96132855D02*
X122048942Y-96132855D01*
X122048942Y-96132855D02*
X121920371Y-96047141D01*
X121920371Y-96047141D02*
X121834657Y-95961426D01*
X121834657Y-95961426D02*
X121791800Y-95875712D01*
X122048942Y-96947141D02*
X122048942Y-97032855D01*
X122048942Y-97032855D02*
X122006085Y-97118569D01*
X122006085Y-97118569D02*
X121963228Y-97161427D01*
X121963228Y-97161427D02*
X121877514Y-97204284D01*
X121877514Y-97204284D02*
X121706085Y-97247141D01*
X121706085Y-97247141D02*
X121491800Y-97247141D01*
X121491800Y-97247141D02*
X121320371Y-97204284D01*
X121320371Y-97204284D02*
X121234657Y-97161427D01*
X121234657Y-97161427D02*
X121191800Y-97118569D01*
X121191800Y-97118569D02*
X121148942Y-97032855D01*
X121148942Y-97032855D02*
X121148942Y-96947141D01*
X121148942Y-96947141D02*
X121191800Y-96861427D01*
X121191800Y-96861427D02*
X121234657Y-96818569D01*
X121234657Y-96818569D02*
X121320371Y-96775712D01*
X121320371Y-96775712D02*
X121491800Y-96732855D01*
X121491800Y-96732855D02*
X121706085Y-96732855D01*
X121706085Y-96732855D02*
X121877514Y-96775712D01*
X121877514Y-96775712D02*
X121963228Y-96818569D01*
X121963228Y-96818569D02*
X122006085Y-96861427D01*
X122006085Y-96861427D02*
X122048942Y-96947141D01*
X121148942Y-70278798D02*
X121148942Y-69764512D01*
X121148942Y-70021655D02*
X122048942Y-70021655D01*
X122048942Y-70021655D02*
X121920371Y-69935941D01*
X121920371Y-69935941D02*
X121834657Y-69850226D01*
X121834657Y-69850226D02*
X121791800Y-69764512D01*
D13*
%TO.C,J1*%
X122646000Y-68720000D02*
X128234000Y-68720000D01*
X122646000Y-98946000D02*
X122646000Y-68720000D01*
X123154000Y-70752000D02*
X124170000Y-70752000D01*
X123154000Y-71768000D02*
X123154000Y-70752000D01*
X128234000Y-68720000D02*
X128234000Y-98946000D01*
X128234000Y-98946000D02*
X122646000Y-98946000D01*
%TD*%
%LPC*%
D14*
%TO.C,J1*%
X124910000Y-97298000D03*
D15*
X124170000Y-71768000D03*
X124170000Y-74308000D03*
X124170000Y-76848000D03*
X124170000Y-79388000D03*
X124170000Y-81928000D03*
X124170000Y-84468000D03*
X124170000Y-87008000D03*
X124170000Y-89548000D03*
X124170000Y-92088000D03*
X124170000Y-94628000D03*
X126710000Y-95898000D03*
X126710000Y-93358000D03*
X126710000Y-90818000D03*
X126710000Y-88278000D03*
X126710000Y-85738000D03*
X126710000Y-83198000D03*
X126710000Y-80658000D03*
X126710000Y-78118000D03*
X126710000Y-75578000D03*
X126710000Y-73038000D03*
%TD*%
D16*
%TO.C,J2*%
X120396000Y-71755000D03*
D17*
X120396000Y-74295000D03*
X120396000Y-76835000D03*
X120396000Y-79375000D03*
X120396000Y-81915000D03*
X120396000Y-84455000D03*
X120396000Y-86995000D03*
X120396000Y-89535000D03*
X120396000Y-92075000D03*
X120396000Y-94615000D03*
%TD*%
D16*
%TO.C,J3*%
X130556000Y-71755000D03*
D17*
X130556000Y-74295000D03*
X130556000Y-76835000D03*
X130556000Y-79375000D03*
X130556000Y-81915000D03*
X130556000Y-84455000D03*
X130556000Y-86995000D03*
X130556000Y-89535000D03*
X130556000Y-92075000D03*
X130556000Y-94615000D03*
%TD*%
%LPD*%
M02*
