M48
; DRILL file {KiCad 9.0.6} date 2025-12-29T22:30:14-0800
; FORMAT={-:-/ absolute / metric / decimal}
; #@! TF.CreationDate,2025-12-29T22:30:14-08:00
; #@! TF.GenerationSoftware,Kicad,Pcbnew,9.0.6
; #@! TF.FileFunction,NonPlated,1,2,NPTH
FMAT,2
METRIC
; #@! TA.AperFunction,NonPlated,NPTH,ComponentDrill
T1C0.500
%
G90
G05
T1
X110.353Y-55.904
X110.353Y-27.801
X110.353Y-41.052
X110.353Y-42.652
X110.353Y-57.505
X110.353Y-70.756
X110.353Y-72.356
X110.353Y-85.608
X110.353Y-87.209
X110.353Y-100.46
X111.187Y-55.904
X111.187Y-27.801
X111.187Y-41.052
X111.187Y-42.652
X111.187Y-57.505
X111.187Y-70.756
X111.187Y-72.356
X111.187Y-85.608
X111.187Y-87.209
X111.187Y-100.46
X112.02Y-55.904
X112.02Y-27.801
X112.02Y-41.052
X112.02Y-42.652
X112.02Y-57.505
X112.02Y-70.756
X112.02Y-72.356
X112.02Y-85.608
X112.02Y-87.209
X112.02Y-100.46
X112.853Y-55.904
X112.853Y-27.801
X112.853Y-41.052
X112.853Y-42.652
X112.853Y-57.505
X112.853Y-70.756
X112.853Y-72.356
X112.853Y-85.608
X112.853Y-87.209
X112.853Y-100.46
X113.687Y-55.904
X113.687Y-27.801
X113.687Y-41.052
X113.687Y-42.652
X113.687Y-57.505
X113.687Y-70.756
X113.687Y-72.356
X113.687Y-85.608
X113.687Y-87.209
X113.687Y-100.46
X122.513Y-55.904
X122.513Y-27.801
X122.513Y-41.052
X122.513Y-42.652
X122.513Y-57.505
X122.513Y-70.756
X122.513Y-72.356
X122.513Y-85.608
X122.513Y-87.209
X122.513Y-100.46
X123.347Y-55.904
X123.347Y-27.801
X123.347Y-41.052
X123.347Y-42.652
X123.347Y-57.505
X123.347Y-70.756
X123.347Y-72.356
X123.347Y-85.608
X123.347Y-87.209
X123.347Y-100.46
X124.18Y-55.904
X124.18Y-27.801
X124.18Y-42.652
X124.18Y-57.505
X124.18Y-72.356
X124.18Y-87.209
X124.18Y-41.052
X124.18Y-70.756
X124.18Y-85.608
X124.18Y-100.46
X125.013Y-55.904
X125.013Y-27.801
X125.013Y-41.052
X125.013Y-42.652
X125.013Y-57.505
X125.013Y-70.756
X125.013Y-72.356
X125.013Y-85.608
X125.013Y-87.209
X125.013Y-100.46
X125.847Y-55.904
X125.847Y-27.801
X125.847Y-41.052
X125.847Y-42.652
X125.847Y-57.505
X125.847Y-70.756
X125.847Y-72.356
X125.847Y-85.608
X125.847Y-87.209
X125.847Y-100.46
X134.673Y-55.904
X134.673Y-27.801
X134.673Y-41.052
X134.673Y-42.652
X134.673Y-57.505
X134.673Y-70.756
X134.673Y-72.356
X134.673Y-85.608
X134.673Y-87.209
X134.673Y-100.46
X135.507Y-55.904
X135.507Y-27.801
X135.507Y-41.052
X135.507Y-42.652
X135.507Y-57.505
X135.507Y-70.756
X135.507Y-72.356
X135.507Y-85.608
X135.507Y-87.209
X135.507Y-100.46
X136.34Y-55.904
X136.34Y-27.801
X136.34Y-42.652
X136.34Y-57.505
X136.34Y-72.356
X136.34Y-87.209
X136.34Y-41.052
X136.34Y-70.756
X136.34Y-85.608
X136.34Y-100.46
X137.173Y-55.904
X137.173Y-27.801
X137.173Y-41.052
X137.173Y-42.652
X137.173Y-57.505
X137.173Y-70.756
X137.173Y-72.356
X137.173Y-85.608
X137.173Y-87.209
X137.173Y-100.46
X138.007Y-55.904
X138.007Y-27.801
X138.007Y-41.052
X138.007Y-42.652
X138.007Y-57.505
X138.007Y-70.756
X138.007Y-72.356
X138.007Y-85.608
X138.007Y-87.209
X138.007Y-100.46
X146.833Y-55.904
X146.833Y-27.801
X146.833Y-41.052
X146.833Y-42.652
X146.833Y-57.505
X146.833Y-70.756
X146.833Y-72.356
X146.833Y-85.608
X146.833Y-87.209
X146.833Y-100.46
X147.667Y-55.904
X147.667Y-27.801
X147.667Y-41.052
X147.667Y-42.652
X147.667Y-57.505
X147.667Y-70.756
X147.667Y-72.356
X147.667Y-85.608
X147.667Y-87.209
X147.667Y-100.46
X148.5Y-55.904
X148.5Y-27.801
X148.5Y-42.652
X148.5Y-57.505
X148.5Y-72.356
X148.5Y-87.209
X148.5Y-41.052
X148.5Y-70.756
X148.5Y-85.608
X148.5Y-100.46
X149.333Y-55.904
X149.333Y-27.801
X149.333Y-41.052
X149.333Y-42.652
X149.333Y-57.505
X149.333Y-70.756
X149.333Y-72.356
X149.333Y-85.608
X149.333Y-87.209
X149.333Y-100.46
X150.167Y-55.904
X150.167Y-27.801
X150.167Y-41.052
X150.167Y-42.652
X150.167Y-57.505
X150.167Y-70.756
X150.167Y-72.356
X150.167Y-85.608
X150.167Y-87.209
X150.167Y-100.46
X158.993Y-55.904
X158.993Y-27.801
X158.993Y-41.052
X158.993Y-42.652
X158.993Y-57.505
X158.993Y-70.756
X158.993Y-72.356
X158.993Y-85.608
X158.993Y-87.209
X158.993Y-100.46
X159.827Y-55.904
X159.827Y-27.801
X159.827Y-41.052
X159.827Y-42.652
X159.827Y-57.505
X159.827Y-70.756
X159.827Y-72.356
X159.827Y-85.608
X159.827Y-87.209
X159.827Y-100.46
X160.66Y-55.904
X160.66Y-27.801
X160.66Y-42.652
X160.66Y-57.505
X160.66Y-72.356
X160.66Y-87.209
X160.66Y-41.052
X160.66Y-70.756
X160.66Y-85.608
X160.66Y-100.46
X161.493Y-55.904
X161.493Y-27.801
X161.493Y-41.052
X161.493Y-42.652
X161.493Y-57.505
X161.493Y-70.756
X161.493Y-72.356
X161.493Y-85.608
X161.493Y-87.209
X161.493Y-100.46
X162.327Y-55.904
X162.327Y-27.801
X162.327Y-41.052
X162.327Y-42.652
X162.327Y-57.505
X162.327Y-70.756
X162.327Y-72.356
X162.327Y-85.608
X162.327Y-87.209
X162.327Y-100.46
X171.153Y-55.904
X171.153Y-27.801
X171.153Y-41.052
X171.153Y-42.652
X171.153Y-57.505
X171.153Y-70.756
X171.153Y-72.356
X171.153Y-85.608
X171.153Y-87.209
X171.153Y-100.46
X171.987Y-55.904
X171.987Y-27.801
X171.987Y-41.052
X171.987Y-42.652
X171.987Y-57.505
X171.987Y-70.756
X171.987Y-72.356
X171.987Y-85.608
X171.987Y-87.209
X171.987Y-100.46
X172.82Y-55.904
X172.82Y-27.801
X172.82Y-42.652
X172.82Y-57.505
X172.82Y-72.356
X172.82Y-87.209
X172.82Y-41.052
X172.82Y-70.756
X172.82Y-85.608
X172.82Y-100.46
X173.653Y-55.904
X173.653Y-27.801
X173.653Y-41.052
X173.653Y-42.652
X173.653Y-57.505
X173.653Y-70.756
X173.653Y-72.356
X173.653Y-85.608
X173.653Y-87.209
X173.653Y-100.46
X174.487Y-55.904
X174.487Y-27.801
X174.487Y-41.052
X174.487Y-42.652
X174.487Y-57.505
X174.487Y-70.756
X174.487Y-72.356
X174.487Y-85.608
X174.487Y-87.209
X174.487Y-100.46
X183.313Y-27.801
X183.313Y-41.052
X183.313Y-42.652
X183.313Y-55.904
X183.313Y-57.505
X183.313Y-70.756
X183.313Y-72.356
X183.313Y-85.608
X183.313Y-87.209
X183.313Y-100.46
X184.147Y-27.801
X184.147Y-41.052
X184.147Y-42.652
X184.147Y-55.904
X184.147Y-57.505
X184.147Y-70.756
X184.147Y-72.356
X184.147Y-85.608
X184.147Y-87.209
X184.147Y-100.46
X184.98Y-27.801
X184.98Y-42.652
X184.98Y-57.505
X184.98Y-72.356
X184.98Y-87.209
X184.98Y-41.052
X184.98Y-55.904
X184.98Y-70.756
X184.98Y-85.608
X184.98Y-100.46
X185.813Y-27.801
X185.813Y-41.052
X185.813Y-42.652
X185.813Y-55.904
X185.813Y-57.505
X185.813Y-70.756
X185.813Y-72.356
X185.813Y-85.608
X185.813Y-87.209
X185.813Y-100.46
X186.647Y-27.801
X186.647Y-41.052
X186.647Y-42.652
X186.647Y-55.904
X186.647Y-57.505
X186.647Y-70.756
X186.647Y-72.356
X186.647Y-85.608
X186.647Y-87.209
X186.647Y-100.46
M30
