%TF.GenerationSoftware,KiCad,Pcbnew,9.0.6*%
%TF.CreationDate,2025-12-29T22:30:05-08:00*%
%TF.ProjectId,sot-23-8-panelized,736f742d-3233-42d3-982d-70616e656c69,rev?*%
%TF.SameCoordinates,Original*%
%TF.FileFunction,Paste,Top*%
%TF.FilePolarity,Positive*%
%FSLAX46Y46*%
G04 Gerber Fmt 4.6, Leading zero omitted, Abs format (unit mm)*
G04 Created by KiCad (PCBNEW 9.0.6) date 2025-12-29 22:30:05*
%MOMM*%
%LPD*%
G01*
G04 APERTURE LIST*
G04 Aperture macros list*
%AMRoundRect*
0 Rectangle with rounded corners*
0 $1 Rounding radius*
0 $2 $3 $4 $5 $6 $7 $8 $9 X,Y pos of 4 corners*
0 Add a 4 corners polygon primitive as box body*
4,1,4,$2,$3,$4,$5,$6,$7,$8,$9,$2,$3,0*
0 Add four circle primitives for the rounded corners*
1,1,$1+$1,$2,$3*
1,1,$1+$1,$4,$5*
1,1,$1+$1,$6,$7*
1,1,$1+$1,$8,$9*
0 Add four rect primitives between the rounded corners*
20,1,$1+$1,$2,$3,$4,$5,0*
20,1,$1+$1,$4,$5,$6,$7,0*
20,1,$1+$1,$6,$7,$8,$9,0*
20,1,$1+$1,$8,$9,$2,$3,0*%
G04 Aperture macros list end*
%ADD10RoundRect,0.125000X0.125000X-0.537500X0.125000X0.537500X-0.125000X0.537500X-0.125000X-0.537500X0*%
G04 APERTURE END LIST*
D10*
%TO.C,U1*%
X159762500Y-50360000D03*
X160412500Y-50360000D03*
X161062500Y-50360000D03*
X161712500Y-50360000D03*
X161712500Y-48085000D03*
X161062500Y-48085000D03*
X160412500Y-48085000D03*
X159762500Y-48085000D03*
%TD*%
%TO.C,U1*%
X184082500Y-50360000D03*
X184732500Y-50360000D03*
X185382500Y-50360000D03*
X186032500Y-50360000D03*
X186032500Y-48085000D03*
X185382500Y-48085000D03*
X184732500Y-48085000D03*
X184082500Y-48085000D03*
%TD*%
%TO.C,U1*%
X184082500Y-94916000D03*
X184732500Y-94916000D03*
X185382500Y-94916000D03*
X186032500Y-94916000D03*
X186032500Y-92641000D03*
X185382500Y-92641000D03*
X184732500Y-92641000D03*
X184082500Y-92641000D03*
%TD*%
%TO.C,U1*%
X135442500Y-94916000D03*
X136092500Y-94916000D03*
X136742500Y-94916000D03*
X137392500Y-94916000D03*
X137392500Y-92641000D03*
X136742500Y-92641000D03*
X136092500Y-92641000D03*
X135442500Y-92641000D03*
%TD*%
%TO.C,U1*%
X123282500Y-80064000D03*
X123932500Y-80064000D03*
X124582500Y-80064000D03*
X125232500Y-80064000D03*
X125232500Y-77789000D03*
X124582500Y-77789000D03*
X123932500Y-77789000D03*
X123282500Y-77789000D03*
%TD*%
%TO.C,U1*%
X171922500Y-50360000D03*
X172572500Y-50360000D03*
X173222500Y-50360000D03*
X173872500Y-50360000D03*
X173872500Y-48085000D03*
X173222500Y-48085000D03*
X172572500Y-48085000D03*
X171922500Y-48085000D03*
%TD*%
%TO.C,U1*%
X184082500Y-80064000D03*
X184732500Y-80064000D03*
X185382500Y-80064000D03*
X186032500Y-80064000D03*
X186032500Y-77789000D03*
X185382500Y-77789000D03*
X184732500Y-77789000D03*
X184082500Y-77789000D03*
%TD*%
%TO.C,U1*%
X159762500Y-35508000D03*
X160412500Y-35508000D03*
X161062500Y-35508000D03*
X161712500Y-35508000D03*
X161712500Y-33233000D03*
X161062500Y-33233000D03*
X160412500Y-33233000D03*
X159762500Y-33233000D03*
%TD*%
%TO.C,U1*%
X184082500Y-35508000D03*
X184732500Y-35508000D03*
X185382500Y-35508000D03*
X186032500Y-35508000D03*
X186032500Y-33233000D03*
X185382500Y-33233000D03*
X184732500Y-33233000D03*
X184082500Y-33233000D03*
%TD*%
%TO.C,U1*%
X159762500Y-65212000D03*
X160412500Y-65212000D03*
X161062500Y-65212000D03*
X161712500Y-65212000D03*
X161712500Y-62937000D03*
X161062500Y-62937000D03*
X160412500Y-62937000D03*
X159762500Y-62937000D03*
%TD*%
%TO.C,U1*%
X159762500Y-94916000D03*
X160412500Y-94916000D03*
X161062500Y-94916000D03*
X161712500Y-94916000D03*
X161712500Y-92641000D03*
X161062500Y-92641000D03*
X160412500Y-92641000D03*
X159762500Y-92641000D03*
%TD*%
%TO.C,U1*%
X123282500Y-65212000D03*
X123932500Y-65212000D03*
X124582500Y-65212000D03*
X125232500Y-65212000D03*
X125232500Y-62937000D03*
X124582500Y-62937000D03*
X123932500Y-62937000D03*
X123282500Y-62937000D03*
%TD*%
%TO.C,U1*%
X184082500Y-65212000D03*
X184732500Y-65212000D03*
X185382500Y-65212000D03*
X186032500Y-65212000D03*
X186032500Y-62937000D03*
X185382500Y-62937000D03*
X184732500Y-62937000D03*
X184082500Y-62937000D03*
%TD*%
%TO.C,U1*%
X123282500Y-94916000D03*
X123932500Y-94916000D03*
X124582500Y-94916000D03*
X125232500Y-94916000D03*
X125232500Y-92641000D03*
X124582500Y-92641000D03*
X123932500Y-92641000D03*
X123282500Y-92641000D03*
%TD*%
%TO.C,U1*%
X147602500Y-50360000D03*
X148252500Y-50360000D03*
X148902500Y-50360000D03*
X149552500Y-50360000D03*
X149552500Y-48085000D03*
X148902500Y-48085000D03*
X148252500Y-48085000D03*
X147602500Y-48085000D03*
%TD*%
%TO.C,U1*%
X147602500Y-35508000D03*
X148252500Y-35508000D03*
X148902500Y-35508000D03*
X149552500Y-35508000D03*
X149552500Y-33233000D03*
X148902500Y-33233000D03*
X148252500Y-33233000D03*
X147602500Y-33233000D03*
%TD*%
%TO.C,U1*%
X123282500Y-50360000D03*
X123932500Y-50360000D03*
X124582500Y-50360000D03*
X125232500Y-50360000D03*
X125232500Y-48085000D03*
X124582500Y-48085000D03*
X123932500Y-48085000D03*
X123282500Y-48085000D03*
%TD*%
%TO.C,U1*%
X135442500Y-80064000D03*
X136092500Y-80064000D03*
X136742500Y-80064000D03*
X137392500Y-80064000D03*
X137392500Y-77789000D03*
X136742500Y-77789000D03*
X136092500Y-77789000D03*
X135442500Y-77789000D03*
%TD*%
%TO.C,U1*%
X171922500Y-35508000D03*
X172572500Y-35508000D03*
X173222500Y-35508000D03*
X173872500Y-35508000D03*
X173872500Y-33233000D03*
X173222500Y-33233000D03*
X172572500Y-33233000D03*
X171922500Y-33233000D03*
%TD*%
%TO.C,U1*%
X135442500Y-65212000D03*
X136092500Y-65212000D03*
X136742500Y-65212000D03*
X137392500Y-65212000D03*
X137392500Y-62937000D03*
X136742500Y-62937000D03*
X136092500Y-62937000D03*
X135442500Y-62937000D03*
%TD*%
%TO.C,U1*%
X111122500Y-80064000D03*
X111772500Y-80064000D03*
X112422500Y-80064000D03*
X113072500Y-80064000D03*
X113072500Y-77789000D03*
X112422500Y-77789000D03*
X111772500Y-77789000D03*
X111122500Y-77789000D03*
%TD*%
%TO.C,U1*%
X111122500Y-94916000D03*
X111772500Y-94916000D03*
X112422500Y-94916000D03*
X113072500Y-94916000D03*
X113072500Y-92641000D03*
X112422500Y-92641000D03*
X111772500Y-92641000D03*
X111122500Y-92641000D03*
%TD*%
%TO.C,U1*%
X123282500Y-35508000D03*
X123932500Y-35508000D03*
X124582500Y-35508000D03*
X125232500Y-35508000D03*
X125232500Y-33233000D03*
X124582500Y-33233000D03*
X123932500Y-33233000D03*
X123282500Y-33233000D03*
%TD*%
%TO.C,U1*%
X135442500Y-50360000D03*
X136092500Y-50360000D03*
X136742500Y-50360000D03*
X137392500Y-50360000D03*
X137392500Y-48085000D03*
X136742500Y-48085000D03*
X136092500Y-48085000D03*
X135442500Y-48085000D03*
%TD*%
%TO.C,U1*%
X147602500Y-94916000D03*
X148252500Y-94916000D03*
X148902500Y-94916000D03*
X149552500Y-94916000D03*
X149552500Y-92641000D03*
X148902500Y-92641000D03*
X148252500Y-92641000D03*
X147602500Y-92641000D03*
%TD*%
%TO.C,U1*%
X111122500Y-50360000D03*
X111772500Y-50360000D03*
X112422500Y-50360000D03*
X113072500Y-50360000D03*
X113072500Y-48085000D03*
X112422500Y-48085000D03*
X111772500Y-48085000D03*
X111122500Y-48085000D03*
%TD*%
%TO.C,U1*%
X159762500Y-80064000D03*
X160412500Y-80064000D03*
X161062500Y-80064000D03*
X161712500Y-80064000D03*
X161712500Y-77789000D03*
X161062500Y-77789000D03*
X160412500Y-77789000D03*
X159762500Y-77789000D03*
%TD*%
%TO.C,U1*%
X171922500Y-65212000D03*
X172572500Y-65212000D03*
X173222500Y-65212000D03*
X173872500Y-65212000D03*
X173872500Y-62937000D03*
X173222500Y-62937000D03*
X172572500Y-62937000D03*
X171922500Y-62937000D03*
%TD*%
%TO.C,U1*%
X135442500Y-35508000D03*
X136092500Y-35508000D03*
X136742500Y-35508000D03*
X137392500Y-35508000D03*
X137392500Y-33233000D03*
X136742500Y-33233000D03*
X136092500Y-33233000D03*
X135442500Y-33233000D03*
%TD*%
%TO.C,U1*%
X147602500Y-80064000D03*
X148252500Y-80064000D03*
X148902500Y-80064000D03*
X149552500Y-80064000D03*
X149552500Y-77789000D03*
X148902500Y-77789000D03*
X148252500Y-77789000D03*
X147602500Y-77789000D03*
%TD*%
%TO.C,U1*%
X111122500Y-65212000D03*
X111772500Y-65212000D03*
X112422500Y-65212000D03*
X113072500Y-65212000D03*
X113072500Y-62937000D03*
X112422500Y-62937000D03*
X111772500Y-62937000D03*
X111122500Y-62937000D03*
%TD*%
%TO.C,U1*%
X147602500Y-65212000D03*
X148252500Y-65212000D03*
X148902500Y-65212000D03*
X149552500Y-65212000D03*
X149552500Y-62937000D03*
X148902500Y-62937000D03*
X148252500Y-62937000D03*
X147602500Y-62937000D03*
%TD*%
%TO.C,U1*%
X171922500Y-80064000D03*
X172572500Y-80064000D03*
X173222500Y-80064000D03*
X173872500Y-80064000D03*
X173872500Y-77789000D03*
X173222500Y-77789000D03*
X172572500Y-77789000D03*
X171922500Y-77789000D03*
%TD*%
%TO.C,U1*%
X171922500Y-94916000D03*
X172572500Y-94916000D03*
X173222500Y-94916000D03*
X173872500Y-94916000D03*
X173872500Y-92641000D03*
X173222500Y-92641000D03*
X172572500Y-92641000D03*
X171922500Y-92641000D03*
%TD*%
%TO.C,U1*%
X111122500Y-35508000D03*
X111772500Y-35508000D03*
X112422500Y-35508000D03*
X113072500Y-35508000D03*
X113072500Y-33233000D03*
X112422500Y-33233000D03*
X111772500Y-33233000D03*
X111122500Y-33233000D03*
%TD*%
M02*
