%TF.GenerationSoftware,KiCad,Pcbnew,9.0.6*%
%TF.CreationDate,2025-12-29T22:30:05-08:00*%
%TF.ProjectId,sot-23-8-panelized,736f742d-3233-42d3-982d-70616e656c69,rev?*%
%TF.SameCoordinates,Original*%
%TF.FileFunction,Copper,L2,Bot*%
%TF.FilePolarity,Positive*%
%FSLAX46Y46*%
G04 Gerber Fmt 4.6, Leading zero omitted, Abs format (unit mm)*
G04 Created by KiCad (PCBNEW 9.0.6) date 2025-12-29 22:30:05*
%MOMM*%
%LPD*%
G01*
G04 APERTURE LIST*
%TA.AperFunction,ComponentPad*%
%ADD10R,1.700000X1.700000*%
%TD*%
%TA.AperFunction,ComponentPad*%
%ADD11C,1.700000*%
%TD*%
G04 APERTURE END LIST*
D10*
%TO.P,J4,1,Pin_1*%
%TO.N,Board_1-Net-(J4-Pin_1)*%
X120370000Y-29290500D03*
D11*
%TO.P,J4,2,Pin_2*%
%TO.N,Board_1-Net-(J4-Pin_2)*%
X122910000Y-29290500D03*
%TO.P,J4,3,Pin_3*%
%TO.N,Board_1-Net-(J4-Pin_3)*%
X125450000Y-29290500D03*
%TO.P,J4,4,Pin_4*%
%TO.N,Board_1-Net-(J4-Pin_4)*%
X127990000Y-29290500D03*
%TD*%
D10*
%TO.P,J4,1,Pin_1*%
%TO.N,Board_8-Net-(J4-Pin_1)*%
X120370000Y-44142500D03*
D11*
%TO.P,J4,2,Pin_2*%
%TO.N,Board_8-Net-(J4-Pin_2)*%
X122910000Y-44142500D03*
%TO.P,J4,3,Pin_3*%
%TO.N,Board_8-Net-(J4-Pin_3)*%
X125450000Y-44142500D03*
%TO.P,J4,4,Pin_4*%
%TO.N,Board_8-Net-(J4-Pin_4)*%
X127990000Y-44142500D03*
%TD*%
D10*
%TO.P,J3,1,Pin_1*%
%TO.N,Board_20-Net-(J3-Pin_1)*%
X181170000Y-69154500D03*
D11*
%TO.P,J3,2,Pin_2*%
%TO.N,Board_20-Net-(J3-Pin_2)*%
X183710000Y-69154500D03*
%TO.P,J3,3,Pin_3*%
%TO.N,Board_20-Net-(J3-Pin_3)*%
X186250000Y-69154500D03*
%TO.P,J3,4,Pin_4*%
%TO.N,Board_20-Net-(J3-Pin_4)*%
X188790000Y-69154500D03*
%TD*%
D10*
%TO.P,J3,1,Pin_1*%
%TO.N,Board_17-Net-(J3-Pin_1)*%
X144690000Y-69154500D03*
D11*
%TO.P,J3,2,Pin_2*%
%TO.N,Board_17-Net-(J3-Pin_2)*%
X147230000Y-69154500D03*
%TO.P,J3,3,Pin_3*%
%TO.N,Board_17-Net-(J3-Pin_3)*%
X149770000Y-69154500D03*
%TO.P,J3,4,Pin_4*%
%TO.N,Board_17-Net-(J3-Pin_4)*%
X152310000Y-69154500D03*
%TD*%
D10*
%TO.P,J3,1,Pin_1*%
%TO.N,Board_31-Net-(J3-Pin_1)*%
X144690000Y-98858500D03*
D11*
%TO.P,J3,2,Pin_2*%
%TO.N,Board_31-Net-(J3-Pin_2)*%
X147230000Y-98858500D03*
%TO.P,J3,3,Pin_3*%
%TO.N,Board_31-Net-(J3-Pin_3)*%
X149770000Y-98858500D03*
%TO.P,J3,4,Pin_4*%
%TO.N,Board_31-Net-(J3-Pin_4)*%
X152310000Y-98858500D03*
%TD*%
D10*
%TO.P,J3,1,Pin_1*%
%TO.N,Board_30-Net-(J3-Pin_1)*%
X132530000Y-98858500D03*
D11*
%TO.P,J3,2,Pin_2*%
%TO.N,Board_30-Net-(J3-Pin_2)*%
X135070000Y-98858500D03*
%TO.P,J3,3,Pin_3*%
%TO.N,Board_30-Net-(J3-Pin_3)*%
X137610000Y-98858500D03*
%TO.P,J3,4,Pin_4*%
%TO.N,Board_30-Net-(J3-Pin_4)*%
X140150000Y-98858500D03*
%TD*%
D10*
%TO.P,J3,1,Pin_1*%
%TO.N,Board_0-Net-(J3-Pin_1)*%
X108210000Y-39450500D03*
D11*
%TO.P,J3,2,Pin_2*%
%TO.N,Board_0-Net-(J3-Pin_2)*%
X110750000Y-39450500D03*
%TO.P,J3,3,Pin_3*%
%TO.N,Board_0-Net-(J3-Pin_3)*%
X113290000Y-39450500D03*
%TO.P,J3,4,Pin_4*%
%TO.N,Board_0-Net-(J3-Pin_4)*%
X115830000Y-39450500D03*
%TD*%
D10*
%TO.P,J4,1,Pin_1*%
%TO.N,Board_3-Net-(J4-Pin_1)*%
X144690000Y-29290500D03*
D11*
%TO.P,J4,2,Pin_2*%
%TO.N,Board_3-Net-(J4-Pin_2)*%
X147230000Y-29290500D03*
%TO.P,J4,3,Pin_3*%
%TO.N,Board_3-Net-(J4-Pin_3)*%
X149770000Y-29290500D03*
%TO.P,J4,4,Pin_4*%
%TO.N,Board_3-Net-(J4-Pin_4)*%
X152310000Y-29290500D03*
%TD*%
D10*
%TO.P,J4,1,Pin_1*%
%TO.N,Board_9-Net-(J4-Pin_1)*%
X132530000Y-44142500D03*
D11*
%TO.P,J4,2,Pin_2*%
%TO.N,Board_9-Net-(J4-Pin_2)*%
X135070000Y-44142500D03*
%TO.P,J4,3,Pin_3*%
%TO.N,Board_9-Net-(J4-Pin_3)*%
X137610000Y-44142500D03*
%TO.P,J4,4,Pin_4*%
%TO.N,Board_9-Net-(J4-Pin_4)*%
X140150000Y-44142500D03*
%TD*%
D10*
%TO.P,J3,1,Pin_1*%
%TO.N,Board_32-Net-(J3-Pin_1)*%
X156850000Y-98858500D03*
D11*
%TO.P,J3,2,Pin_2*%
%TO.N,Board_32-Net-(J3-Pin_2)*%
X159390000Y-98858500D03*
%TO.P,J3,3,Pin_3*%
%TO.N,Board_32-Net-(J3-Pin_3)*%
X161930000Y-98858500D03*
%TO.P,J3,4,Pin_4*%
%TO.N,Board_32-Net-(J3-Pin_4)*%
X164470000Y-98858500D03*
%TD*%
D10*
%TO.P,J3,1,Pin_1*%
%TO.N,Board_14-Net-(J3-Pin_1)*%
X108210000Y-69154500D03*
D11*
%TO.P,J3,2,Pin_2*%
%TO.N,Board_14-Net-(J3-Pin_2)*%
X110750000Y-69154500D03*
%TO.P,J3,3,Pin_3*%
%TO.N,Board_14-Net-(J3-Pin_3)*%
X113290000Y-69154500D03*
%TO.P,J3,4,Pin_4*%
%TO.N,Board_14-Net-(J3-Pin_4)*%
X115830000Y-69154500D03*
%TD*%
D10*
%TO.P,J4,1,Pin_1*%
%TO.N,Board_24-Net-(J4-Pin_1)*%
X144690000Y-73846500D03*
D11*
%TO.P,J4,2,Pin_2*%
%TO.N,Board_24-Net-(J4-Pin_2)*%
X147230000Y-73846500D03*
%TO.P,J4,3,Pin_3*%
%TO.N,Board_24-Net-(J4-Pin_3)*%
X149770000Y-73846500D03*
%TO.P,J4,4,Pin_4*%
%TO.N,Board_24-Net-(J4-Pin_4)*%
X152310000Y-73846500D03*
%TD*%
D10*
%TO.P,J4,1,Pin_1*%
%TO.N,Board_16-Net-(J4-Pin_1)*%
X132530000Y-58994500D03*
D11*
%TO.P,J4,2,Pin_2*%
%TO.N,Board_16-Net-(J4-Pin_2)*%
X135070000Y-58994500D03*
%TO.P,J4,3,Pin_3*%
%TO.N,Board_16-Net-(J4-Pin_3)*%
X137610000Y-58994500D03*
%TO.P,J4,4,Pin_4*%
%TO.N,Board_16-Net-(J4-Pin_4)*%
X140150000Y-58994500D03*
%TD*%
D10*
%TO.P,J4,1,Pin_1*%
%TO.N,Board_27-Net-(J4-Pin_1)*%
X181170000Y-73846500D03*
D11*
%TO.P,J4,2,Pin_2*%
%TO.N,Board_27-Net-(J4-Pin_2)*%
X183710000Y-73846500D03*
%TO.P,J4,3,Pin_3*%
%TO.N,Board_27-Net-(J4-Pin_3)*%
X186250000Y-73846500D03*
%TO.P,J4,4,Pin_4*%
%TO.N,Board_27-Net-(J4-Pin_4)*%
X188790000Y-73846500D03*
%TD*%
D10*
%TO.P,J4,1,Pin_1*%
%TO.N,Board_33-Net-(J4-Pin_1)*%
X169010000Y-88698500D03*
D11*
%TO.P,J4,2,Pin_2*%
%TO.N,Board_33-Net-(J4-Pin_2)*%
X171550000Y-88698500D03*
%TO.P,J4,3,Pin_3*%
%TO.N,Board_33-Net-(J4-Pin_3)*%
X174090000Y-88698500D03*
%TO.P,J4,4,Pin_4*%
%TO.N,Board_33-Net-(J4-Pin_4)*%
X176630000Y-88698500D03*
%TD*%
D10*
%TO.P,J3,1,Pin_1*%
%TO.N,Board_34-Net-(J3-Pin_1)*%
X181170000Y-98858500D03*
D11*
%TO.P,J3,2,Pin_2*%
%TO.N,Board_34-Net-(J3-Pin_2)*%
X183710000Y-98858500D03*
%TO.P,J3,3,Pin_3*%
%TO.N,Board_34-Net-(J3-Pin_3)*%
X186250000Y-98858500D03*
%TO.P,J3,4,Pin_4*%
%TO.N,Board_34-Net-(J3-Pin_4)*%
X188790000Y-98858500D03*
%TD*%
D10*
%TO.P,J4,1,Pin_1*%
%TO.N,Board_28-Net-(J4-Pin_1)*%
X108210000Y-88698500D03*
D11*
%TO.P,J4,2,Pin_2*%
%TO.N,Board_28-Net-(J4-Pin_2)*%
X110750000Y-88698500D03*
%TO.P,J4,3,Pin_3*%
%TO.N,Board_28-Net-(J4-Pin_3)*%
X113290000Y-88698500D03*
%TO.P,J4,4,Pin_4*%
%TO.N,Board_28-Net-(J4-Pin_4)*%
X115830000Y-88698500D03*
%TD*%
D10*
%TO.P,J4,1,Pin_1*%
%TO.N,Board_34-Net-(J4-Pin_1)*%
X181170000Y-88698500D03*
D11*
%TO.P,J4,2,Pin_2*%
%TO.N,Board_34-Net-(J4-Pin_2)*%
X183710000Y-88698500D03*
%TO.P,J4,3,Pin_3*%
%TO.N,Board_34-Net-(J4-Pin_3)*%
X186250000Y-88698500D03*
%TO.P,J4,4,Pin_4*%
%TO.N,Board_34-Net-(J4-Pin_4)*%
X188790000Y-88698500D03*
%TD*%
D10*
%TO.P,J3,1,Pin_1*%
%TO.N,Board_11-Net-(J3-Pin_1)*%
X156850000Y-54302500D03*
D11*
%TO.P,J3,2,Pin_2*%
%TO.N,Board_11-Net-(J3-Pin_2)*%
X159390000Y-54302500D03*
%TO.P,J3,3,Pin_3*%
%TO.N,Board_11-Net-(J3-Pin_3)*%
X161930000Y-54302500D03*
%TO.P,J3,4,Pin_4*%
%TO.N,Board_11-Net-(J3-Pin_4)*%
X164470000Y-54302500D03*
%TD*%
D10*
%TO.P,J3,1,Pin_1*%
%TO.N,Board_21-Net-(J3-Pin_1)*%
X108210000Y-84006500D03*
D11*
%TO.P,J3,2,Pin_2*%
%TO.N,Board_21-Net-(J3-Pin_2)*%
X110750000Y-84006500D03*
%TO.P,J3,3,Pin_3*%
%TO.N,Board_21-Net-(J3-Pin_3)*%
X113290000Y-84006500D03*
%TO.P,J3,4,Pin_4*%
%TO.N,Board_21-Net-(J3-Pin_4)*%
X115830000Y-84006500D03*
%TD*%
D10*
%TO.P,J3,1,Pin_1*%
%TO.N,Board_29-Net-(J3-Pin_1)*%
X120370000Y-98858500D03*
D11*
%TO.P,J3,2,Pin_2*%
%TO.N,Board_29-Net-(J3-Pin_2)*%
X122910000Y-98858500D03*
%TO.P,J3,3,Pin_3*%
%TO.N,Board_29-Net-(J3-Pin_3)*%
X125450000Y-98858500D03*
%TO.P,J3,4,Pin_4*%
%TO.N,Board_29-Net-(J3-Pin_4)*%
X127990000Y-98858500D03*
%TD*%
D10*
%TO.P,J4,1,Pin_1*%
%TO.N,Board_30-Net-(J4-Pin_1)*%
X132530000Y-88698500D03*
D11*
%TO.P,J4,2,Pin_2*%
%TO.N,Board_30-Net-(J4-Pin_2)*%
X135070000Y-88698500D03*
%TO.P,J4,3,Pin_3*%
%TO.N,Board_30-Net-(J4-Pin_3)*%
X137610000Y-88698500D03*
%TO.P,J4,4,Pin_4*%
%TO.N,Board_30-Net-(J4-Pin_4)*%
X140150000Y-88698500D03*
%TD*%
D10*
%TO.P,J4,1,Pin_1*%
%TO.N,Board_29-Net-(J4-Pin_1)*%
X120370000Y-88698500D03*
D11*
%TO.P,J4,2,Pin_2*%
%TO.N,Board_29-Net-(J4-Pin_2)*%
X122910000Y-88698500D03*
%TO.P,J4,3,Pin_3*%
%TO.N,Board_29-Net-(J4-Pin_3)*%
X125450000Y-88698500D03*
%TO.P,J4,4,Pin_4*%
%TO.N,Board_29-Net-(J4-Pin_4)*%
X127990000Y-88698500D03*
%TD*%
D10*
%TO.P,J3,1,Pin_1*%
%TO.N,Board_22-Net-(J3-Pin_1)*%
X120370000Y-84006500D03*
D11*
%TO.P,J3,2,Pin_2*%
%TO.N,Board_22-Net-(J3-Pin_2)*%
X122910000Y-84006500D03*
%TO.P,J3,3,Pin_3*%
%TO.N,Board_22-Net-(J3-Pin_3)*%
X125450000Y-84006500D03*
%TO.P,J3,4,Pin_4*%
%TO.N,Board_22-Net-(J3-Pin_4)*%
X127990000Y-84006500D03*
%TD*%
D10*
%TO.P,J4,1,Pin_1*%
%TO.N,Board_15-Net-(J4-Pin_1)*%
X120370000Y-58994500D03*
D11*
%TO.P,J4,2,Pin_2*%
%TO.N,Board_15-Net-(J4-Pin_2)*%
X122910000Y-58994500D03*
%TO.P,J4,3,Pin_3*%
%TO.N,Board_15-Net-(J4-Pin_3)*%
X125450000Y-58994500D03*
%TO.P,J4,4,Pin_4*%
%TO.N,Board_15-Net-(J4-Pin_4)*%
X127990000Y-58994500D03*
%TD*%
D10*
%TO.P,J3,1,Pin_1*%
%TO.N,Board_13-Net-(J3-Pin_1)*%
X181170000Y-54302500D03*
D11*
%TO.P,J3,2,Pin_2*%
%TO.N,Board_13-Net-(J3-Pin_2)*%
X183710000Y-54302500D03*
%TO.P,J3,3,Pin_3*%
%TO.N,Board_13-Net-(J3-Pin_3)*%
X186250000Y-54302500D03*
%TO.P,J3,4,Pin_4*%
%TO.N,Board_13-Net-(J3-Pin_4)*%
X188790000Y-54302500D03*
%TD*%
D10*
%TO.P,J3,1,Pin_1*%
%TO.N,Board_8-Net-(J3-Pin_1)*%
X120370000Y-54302500D03*
D11*
%TO.P,J3,2,Pin_2*%
%TO.N,Board_8-Net-(J3-Pin_2)*%
X122910000Y-54302500D03*
%TO.P,J3,3,Pin_3*%
%TO.N,Board_8-Net-(J3-Pin_3)*%
X125450000Y-54302500D03*
%TO.P,J3,4,Pin_4*%
%TO.N,Board_8-Net-(J3-Pin_4)*%
X127990000Y-54302500D03*
%TD*%
D10*
%TO.P,J3,1,Pin_1*%
%TO.N,Board_15-Net-(J3-Pin_1)*%
X120370000Y-69154500D03*
D11*
%TO.P,J3,2,Pin_2*%
%TO.N,Board_15-Net-(J3-Pin_2)*%
X122910000Y-69154500D03*
%TO.P,J3,3,Pin_3*%
%TO.N,Board_15-Net-(J3-Pin_3)*%
X125450000Y-69154500D03*
%TO.P,J3,4,Pin_4*%
%TO.N,Board_15-Net-(J3-Pin_4)*%
X127990000Y-69154500D03*
%TD*%
D10*
%TO.P,J3,1,Pin_1*%
%TO.N,Board_7-Net-(J3-Pin_1)*%
X108210000Y-54302500D03*
D11*
%TO.P,J3,2,Pin_2*%
%TO.N,Board_7-Net-(J3-Pin_2)*%
X110750000Y-54302500D03*
%TO.P,J3,3,Pin_3*%
%TO.N,Board_7-Net-(J3-Pin_3)*%
X113290000Y-54302500D03*
%TO.P,J3,4,Pin_4*%
%TO.N,Board_7-Net-(J3-Pin_4)*%
X115830000Y-54302500D03*
%TD*%
D10*
%TO.P,J4,1,Pin_1*%
%TO.N,Board_6-Net-(J4-Pin_1)*%
X181170000Y-29290500D03*
D11*
%TO.P,J4,2,Pin_2*%
%TO.N,Board_6-Net-(J4-Pin_2)*%
X183710000Y-29290500D03*
%TO.P,J4,3,Pin_3*%
%TO.N,Board_6-Net-(J4-Pin_3)*%
X186250000Y-29290500D03*
%TO.P,J4,4,Pin_4*%
%TO.N,Board_6-Net-(J4-Pin_4)*%
X188790000Y-29290500D03*
%TD*%
D10*
%TO.P,J4,1,Pin_1*%
%TO.N,Board_14-Net-(J4-Pin_1)*%
X108210000Y-58994500D03*
D11*
%TO.P,J4,2,Pin_2*%
%TO.N,Board_14-Net-(J4-Pin_2)*%
X110750000Y-58994500D03*
%TO.P,J4,3,Pin_3*%
%TO.N,Board_14-Net-(J4-Pin_3)*%
X113290000Y-58994500D03*
%TO.P,J4,4,Pin_4*%
%TO.N,Board_14-Net-(J4-Pin_4)*%
X115830000Y-58994500D03*
%TD*%
D10*
%TO.P,J3,1,Pin_1*%
%TO.N,Board_23-Net-(J3-Pin_1)*%
X132530000Y-84006500D03*
D11*
%TO.P,J3,2,Pin_2*%
%TO.N,Board_23-Net-(J3-Pin_2)*%
X135070000Y-84006500D03*
%TO.P,J3,3,Pin_3*%
%TO.N,Board_23-Net-(J3-Pin_3)*%
X137610000Y-84006500D03*
%TO.P,J3,4,Pin_4*%
%TO.N,Board_23-Net-(J3-Pin_4)*%
X140150000Y-84006500D03*
%TD*%
D10*
%TO.P,J3,1,Pin_1*%
%TO.N,Board_6-Net-(J3-Pin_1)*%
X181170000Y-39450500D03*
D11*
%TO.P,J3,2,Pin_2*%
%TO.N,Board_6-Net-(J3-Pin_2)*%
X183710000Y-39450500D03*
%TO.P,J3,3,Pin_3*%
%TO.N,Board_6-Net-(J3-Pin_3)*%
X186250000Y-39450500D03*
%TO.P,J3,4,Pin_4*%
%TO.N,Board_6-Net-(J3-Pin_4)*%
X188790000Y-39450500D03*
%TD*%
D10*
%TO.P,J4,1,Pin_1*%
%TO.N,Board_25-Net-(J4-Pin_1)*%
X156850000Y-73846500D03*
D11*
%TO.P,J4,2,Pin_2*%
%TO.N,Board_25-Net-(J4-Pin_2)*%
X159390000Y-73846500D03*
%TO.P,J4,3,Pin_3*%
%TO.N,Board_25-Net-(J4-Pin_3)*%
X161930000Y-73846500D03*
%TO.P,J4,4,Pin_4*%
%TO.N,Board_25-Net-(J4-Pin_4)*%
X164470000Y-73846500D03*
%TD*%
D10*
%TO.P,J3,1,Pin_1*%
%TO.N,Board_5-Net-(J3-Pin_1)*%
X169010000Y-39450500D03*
D11*
%TO.P,J3,2,Pin_2*%
%TO.N,Board_5-Net-(J3-Pin_2)*%
X171550000Y-39450500D03*
%TO.P,J3,3,Pin_3*%
%TO.N,Board_5-Net-(J3-Pin_3)*%
X174090000Y-39450500D03*
%TO.P,J3,4,Pin_4*%
%TO.N,Board_5-Net-(J3-Pin_4)*%
X176630000Y-39450500D03*
%TD*%
D10*
%TO.P,J3,1,Pin_1*%
%TO.N,Board_1-Net-(J3-Pin_1)*%
X120370000Y-39450500D03*
D11*
%TO.P,J3,2,Pin_2*%
%TO.N,Board_1-Net-(J3-Pin_2)*%
X122910000Y-39450500D03*
%TO.P,J3,3,Pin_3*%
%TO.N,Board_1-Net-(J3-Pin_3)*%
X125450000Y-39450500D03*
%TO.P,J3,4,Pin_4*%
%TO.N,Board_1-Net-(J3-Pin_4)*%
X127990000Y-39450500D03*
%TD*%
D10*
%TO.P,J4,1,Pin_1*%
%TO.N,Board_7-Net-(J4-Pin_1)*%
X108210000Y-44142500D03*
D11*
%TO.P,J4,2,Pin_2*%
%TO.N,Board_7-Net-(J4-Pin_2)*%
X110750000Y-44142500D03*
%TO.P,J4,3,Pin_3*%
%TO.N,Board_7-Net-(J4-Pin_3)*%
X113290000Y-44142500D03*
%TO.P,J4,4,Pin_4*%
%TO.N,Board_7-Net-(J4-Pin_4)*%
X115830000Y-44142500D03*
%TD*%
D10*
%TO.P,J3,1,Pin_1*%
%TO.N,Board_27-Net-(J3-Pin_1)*%
X181170000Y-84006500D03*
D11*
%TO.P,J3,2,Pin_2*%
%TO.N,Board_27-Net-(J3-Pin_2)*%
X183710000Y-84006500D03*
%TO.P,J3,3,Pin_3*%
%TO.N,Board_27-Net-(J3-Pin_3)*%
X186250000Y-84006500D03*
%TO.P,J3,4,Pin_4*%
%TO.N,Board_27-Net-(J3-Pin_4)*%
X188790000Y-84006500D03*
%TD*%
D10*
%TO.P,J3,1,Pin_1*%
%TO.N,Board_33-Net-(J3-Pin_1)*%
X169010000Y-98858500D03*
D11*
%TO.P,J3,2,Pin_2*%
%TO.N,Board_33-Net-(J3-Pin_2)*%
X171550000Y-98858500D03*
%TO.P,J3,3,Pin_3*%
%TO.N,Board_33-Net-(J3-Pin_3)*%
X174090000Y-98858500D03*
%TO.P,J3,4,Pin_4*%
%TO.N,Board_33-Net-(J3-Pin_4)*%
X176630000Y-98858500D03*
%TD*%
D10*
%TO.P,J4,1,Pin_1*%
%TO.N,Board_21-Net-(J4-Pin_1)*%
X108210000Y-73846500D03*
D11*
%TO.P,J4,2,Pin_2*%
%TO.N,Board_21-Net-(J4-Pin_2)*%
X110750000Y-73846500D03*
%TO.P,J4,3,Pin_3*%
%TO.N,Board_21-Net-(J4-Pin_3)*%
X113290000Y-73846500D03*
%TO.P,J4,4,Pin_4*%
%TO.N,Board_21-Net-(J4-Pin_4)*%
X115830000Y-73846500D03*
%TD*%
D10*
%TO.P,J3,1,Pin_1*%
%TO.N,Board_16-Net-(J3-Pin_1)*%
X132530000Y-69154500D03*
D11*
%TO.P,J3,2,Pin_2*%
%TO.N,Board_16-Net-(J3-Pin_2)*%
X135070000Y-69154500D03*
%TO.P,J3,3,Pin_3*%
%TO.N,Board_16-Net-(J3-Pin_3)*%
X137610000Y-69154500D03*
%TO.P,J3,4,Pin_4*%
%TO.N,Board_16-Net-(J3-Pin_4)*%
X140150000Y-69154500D03*
%TD*%
D10*
%TO.P,J4,1,Pin_1*%
%TO.N,Board_0-Net-(J4-Pin_1)*%
X108210000Y-29290500D03*
D11*
%TO.P,J4,2,Pin_2*%
%TO.N,Board_0-Net-(J4-Pin_2)*%
X110750000Y-29290500D03*
%TO.P,J4,3,Pin_3*%
%TO.N,Board_0-Net-(J4-Pin_3)*%
X113290000Y-29290500D03*
%TO.P,J4,4,Pin_4*%
%TO.N,Board_0-Net-(J4-Pin_4)*%
X115830000Y-29290500D03*
%TD*%
D10*
%TO.P,J4,1,Pin_1*%
%TO.N,Board_18-Net-(J4-Pin_1)*%
X156850000Y-58994500D03*
D11*
%TO.P,J4,2,Pin_2*%
%TO.N,Board_18-Net-(J4-Pin_2)*%
X159390000Y-58994500D03*
%TO.P,J4,3,Pin_3*%
%TO.N,Board_18-Net-(J4-Pin_3)*%
X161930000Y-58994500D03*
%TO.P,J4,4,Pin_4*%
%TO.N,Board_18-Net-(J4-Pin_4)*%
X164470000Y-58994500D03*
%TD*%
D10*
%TO.P,J4,1,Pin_1*%
%TO.N,Board_23-Net-(J4-Pin_1)*%
X132530000Y-73846500D03*
D11*
%TO.P,J4,2,Pin_2*%
%TO.N,Board_23-Net-(J4-Pin_2)*%
X135070000Y-73846500D03*
%TO.P,J4,3,Pin_3*%
%TO.N,Board_23-Net-(J4-Pin_3)*%
X137610000Y-73846500D03*
%TO.P,J4,4,Pin_4*%
%TO.N,Board_23-Net-(J4-Pin_4)*%
X140150000Y-73846500D03*
%TD*%
D10*
%TO.P,J3,1,Pin_1*%
%TO.N,Board_19-Net-(J3-Pin_1)*%
X169010000Y-69154500D03*
D11*
%TO.P,J3,2,Pin_2*%
%TO.N,Board_19-Net-(J3-Pin_2)*%
X171550000Y-69154500D03*
%TO.P,J3,3,Pin_3*%
%TO.N,Board_19-Net-(J3-Pin_3)*%
X174090000Y-69154500D03*
%TO.P,J3,4,Pin_4*%
%TO.N,Board_19-Net-(J3-Pin_4)*%
X176630000Y-69154500D03*
%TD*%
D10*
%TO.P,J3,1,Pin_1*%
%TO.N,Board_4-Net-(J3-Pin_1)*%
X156850000Y-39450500D03*
D11*
%TO.P,J3,2,Pin_2*%
%TO.N,Board_4-Net-(J3-Pin_2)*%
X159390000Y-39450500D03*
%TO.P,J3,3,Pin_3*%
%TO.N,Board_4-Net-(J3-Pin_3)*%
X161930000Y-39450500D03*
%TO.P,J3,4,Pin_4*%
%TO.N,Board_4-Net-(J3-Pin_4)*%
X164470000Y-39450500D03*
%TD*%
D10*
%TO.P,J3,1,Pin_1*%
%TO.N,Board_2-Net-(J3-Pin_1)*%
X132530000Y-39450500D03*
D11*
%TO.P,J3,2,Pin_2*%
%TO.N,Board_2-Net-(J3-Pin_2)*%
X135070000Y-39450500D03*
%TO.P,J3,3,Pin_3*%
%TO.N,Board_2-Net-(J3-Pin_3)*%
X137610000Y-39450500D03*
%TO.P,J3,4,Pin_4*%
%TO.N,Board_2-Net-(J3-Pin_4)*%
X140150000Y-39450500D03*
%TD*%
D10*
%TO.P,J4,1,Pin_1*%
%TO.N,Board_12-Net-(J4-Pin_1)*%
X169010000Y-44142500D03*
D11*
%TO.P,J4,2,Pin_2*%
%TO.N,Board_12-Net-(J4-Pin_2)*%
X171550000Y-44142500D03*
%TO.P,J4,3,Pin_3*%
%TO.N,Board_12-Net-(J4-Pin_3)*%
X174090000Y-44142500D03*
%TO.P,J4,4,Pin_4*%
%TO.N,Board_12-Net-(J4-Pin_4)*%
X176630000Y-44142500D03*
%TD*%
D10*
%TO.P,J4,1,Pin_1*%
%TO.N,Board_32-Net-(J4-Pin_1)*%
X156850000Y-88698500D03*
D11*
%TO.P,J4,2,Pin_2*%
%TO.N,Board_32-Net-(J4-Pin_2)*%
X159390000Y-88698500D03*
%TO.P,J4,3,Pin_3*%
%TO.N,Board_32-Net-(J4-Pin_3)*%
X161930000Y-88698500D03*
%TO.P,J4,4,Pin_4*%
%TO.N,Board_32-Net-(J4-Pin_4)*%
X164470000Y-88698500D03*
%TD*%
D10*
%TO.P,J4,1,Pin_1*%
%TO.N,Board_17-Net-(J4-Pin_1)*%
X144690000Y-58994500D03*
D11*
%TO.P,J4,2,Pin_2*%
%TO.N,Board_17-Net-(J4-Pin_2)*%
X147230000Y-58994500D03*
%TO.P,J4,3,Pin_3*%
%TO.N,Board_17-Net-(J4-Pin_3)*%
X149770000Y-58994500D03*
%TO.P,J4,4,Pin_4*%
%TO.N,Board_17-Net-(J4-Pin_4)*%
X152310000Y-58994500D03*
%TD*%
D10*
%TO.P,J4,1,Pin_1*%
%TO.N,Board_10-Net-(J4-Pin_1)*%
X144690000Y-44142500D03*
D11*
%TO.P,J4,2,Pin_2*%
%TO.N,Board_10-Net-(J4-Pin_2)*%
X147230000Y-44142500D03*
%TO.P,J4,3,Pin_3*%
%TO.N,Board_10-Net-(J4-Pin_3)*%
X149770000Y-44142500D03*
%TO.P,J4,4,Pin_4*%
%TO.N,Board_10-Net-(J4-Pin_4)*%
X152310000Y-44142500D03*
%TD*%
D10*
%TO.P,J4,1,Pin_1*%
%TO.N,Board_13-Net-(J4-Pin_1)*%
X181170000Y-44142500D03*
D11*
%TO.P,J4,2,Pin_2*%
%TO.N,Board_13-Net-(J4-Pin_2)*%
X183710000Y-44142500D03*
%TO.P,J4,3,Pin_3*%
%TO.N,Board_13-Net-(J4-Pin_3)*%
X186250000Y-44142500D03*
%TO.P,J4,4,Pin_4*%
%TO.N,Board_13-Net-(J4-Pin_4)*%
X188790000Y-44142500D03*
%TD*%
D10*
%TO.P,J4,1,Pin_1*%
%TO.N,Board_19-Net-(J4-Pin_1)*%
X169010000Y-58994500D03*
D11*
%TO.P,J4,2,Pin_2*%
%TO.N,Board_19-Net-(J4-Pin_2)*%
X171550000Y-58994500D03*
%TO.P,J4,3,Pin_3*%
%TO.N,Board_19-Net-(J4-Pin_3)*%
X174090000Y-58994500D03*
%TO.P,J4,4,Pin_4*%
%TO.N,Board_19-Net-(J4-Pin_4)*%
X176630000Y-58994500D03*
%TD*%
D10*
%TO.P,J3,1,Pin_1*%
%TO.N,Board_10-Net-(J3-Pin_1)*%
X144690000Y-54302500D03*
D11*
%TO.P,J3,2,Pin_2*%
%TO.N,Board_10-Net-(J3-Pin_2)*%
X147230000Y-54302500D03*
%TO.P,J3,3,Pin_3*%
%TO.N,Board_10-Net-(J3-Pin_3)*%
X149770000Y-54302500D03*
%TO.P,J3,4,Pin_4*%
%TO.N,Board_10-Net-(J3-Pin_4)*%
X152310000Y-54302500D03*
%TD*%
D10*
%TO.P,J4,1,Pin_1*%
%TO.N,Board_22-Net-(J4-Pin_1)*%
X120370000Y-73846500D03*
D11*
%TO.P,J4,2,Pin_2*%
%TO.N,Board_22-Net-(J4-Pin_2)*%
X122910000Y-73846500D03*
%TO.P,J4,3,Pin_3*%
%TO.N,Board_22-Net-(J4-Pin_3)*%
X125450000Y-73846500D03*
%TO.P,J4,4,Pin_4*%
%TO.N,Board_22-Net-(J4-Pin_4)*%
X127990000Y-73846500D03*
%TD*%
D10*
%TO.P,J3,1,Pin_1*%
%TO.N,Board_3-Net-(J3-Pin_1)*%
X144690000Y-39450500D03*
D11*
%TO.P,J3,2,Pin_2*%
%TO.N,Board_3-Net-(J3-Pin_2)*%
X147230000Y-39450500D03*
%TO.P,J3,3,Pin_3*%
%TO.N,Board_3-Net-(J3-Pin_3)*%
X149770000Y-39450500D03*
%TO.P,J3,4,Pin_4*%
%TO.N,Board_3-Net-(J3-Pin_4)*%
X152310000Y-39450500D03*
%TD*%
D10*
%TO.P,J4,1,Pin_1*%
%TO.N,Board_5-Net-(J4-Pin_1)*%
X169010000Y-29290500D03*
D11*
%TO.P,J4,2,Pin_2*%
%TO.N,Board_5-Net-(J4-Pin_2)*%
X171550000Y-29290500D03*
%TO.P,J4,3,Pin_3*%
%TO.N,Board_5-Net-(J4-Pin_3)*%
X174090000Y-29290500D03*
%TO.P,J4,4,Pin_4*%
%TO.N,Board_5-Net-(J4-Pin_4)*%
X176630000Y-29290500D03*
%TD*%
D10*
%TO.P,J3,1,Pin_1*%
%TO.N,Board_12-Net-(J3-Pin_1)*%
X169010000Y-54302500D03*
D11*
%TO.P,J3,2,Pin_2*%
%TO.N,Board_12-Net-(J3-Pin_2)*%
X171550000Y-54302500D03*
%TO.P,J3,3,Pin_3*%
%TO.N,Board_12-Net-(J3-Pin_3)*%
X174090000Y-54302500D03*
%TO.P,J3,4,Pin_4*%
%TO.N,Board_12-Net-(J3-Pin_4)*%
X176630000Y-54302500D03*
%TD*%
D10*
%TO.P,J3,1,Pin_1*%
%TO.N,Board_26-Net-(J3-Pin_1)*%
X169010000Y-84006500D03*
D11*
%TO.P,J3,2,Pin_2*%
%TO.N,Board_26-Net-(J3-Pin_2)*%
X171550000Y-84006500D03*
%TO.P,J3,3,Pin_3*%
%TO.N,Board_26-Net-(J3-Pin_3)*%
X174090000Y-84006500D03*
%TO.P,J3,4,Pin_4*%
%TO.N,Board_26-Net-(J3-Pin_4)*%
X176630000Y-84006500D03*
%TD*%
D10*
%TO.P,J4,1,Pin_1*%
%TO.N,Board_31-Net-(J4-Pin_1)*%
X144690000Y-88698500D03*
D11*
%TO.P,J4,2,Pin_2*%
%TO.N,Board_31-Net-(J4-Pin_2)*%
X147230000Y-88698500D03*
%TO.P,J4,3,Pin_3*%
%TO.N,Board_31-Net-(J4-Pin_3)*%
X149770000Y-88698500D03*
%TO.P,J4,4,Pin_4*%
%TO.N,Board_31-Net-(J4-Pin_4)*%
X152310000Y-88698500D03*
%TD*%
D10*
%TO.P,J4,1,Pin_1*%
%TO.N,Board_26-Net-(J4-Pin_1)*%
X169010000Y-73846500D03*
D11*
%TO.P,J4,2,Pin_2*%
%TO.N,Board_26-Net-(J4-Pin_2)*%
X171550000Y-73846500D03*
%TO.P,J4,3,Pin_3*%
%TO.N,Board_26-Net-(J4-Pin_3)*%
X174090000Y-73846500D03*
%TO.P,J4,4,Pin_4*%
%TO.N,Board_26-Net-(J4-Pin_4)*%
X176630000Y-73846500D03*
%TD*%
D10*
%TO.P,J3,1,Pin_1*%
%TO.N,Board_28-Net-(J3-Pin_1)*%
X108210000Y-98858500D03*
D11*
%TO.P,J3,2,Pin_2*%
%TO.N,Board_28-Net-(J3-Pin_2)*%
X110750000Y-98858500D03*
%TO.P,J3,3,Pin_3*%
%TO.N,Board_28-Net-(J3-Pin_3)*%
X113290000Y-98858500D03*
%TO.P,J3,4,Pin_4*%
%TO.N,Board_28-Net-(J3-Pin_4)*%
X115830000Y-98858500D03*
%TD*%
D10*
%TO.P,J4,1,Pin_1*%
%TO.N,Board_2-Net-(J4-Pin_1)*%
X132530000Y-29290500D03*
D11*
%TO.P,J4,2,Pin_2*%
%TO.N,Board_2-Net-(J4-Pin_2)*%
X135070000Y-29290500D03*
%TO.P,J4,3,Pin_3*%
%TO.N,Board_2-Net-(J4-Pin_3)*%
X137610000Y-29290500D03*
%TO.P,J4,4,Pin_4*%
%TO.N,Board_2-Net-(J4-Pin_4)*%
X140150000Y-29290500D03*
%TD*%
D10*
%TO.P,J4,1,Pin_1*%
%TO.N,Board_4-Net-(J4-Pin_1)*%
X156850000Y-29290500D03*
D11*
%TO.P,J4,2,Pin_2*%
%TO.N,Board_4-Net-(J4-Pin_2)*%
X159390000Y-29290500D03*
%TO.P,J4,3,Pin_3*%
%TO.N,Board_4-Net-(J4-Pin_3)*%
X161930000Y-29290500D03*
%TO.P,J4,4,Pin_4*%
%TO.N,Board_4-Net-(J4-Pin_4)*%
X164470000Y-29290500D03*
%TD*%
D10*
%TO.P,J3,1,Pin_1*%
%TO.N,Board_25-Net-(J3-Pin_1)*%
X156850000Y-84006500D03*
D11*
%TO.P,J3,2,Pin_2*%
%TO.N,Board_25-Net-(J3-Pin_2)*%
X159390000Y-84006500D03*
%TO.P,J3,3,Pin_3*%
%TO.N,Board_25-Net-(J3-Pin_3)*%
X161930000Y-84006500D03*
%TO.P,J3,4,Pin_4*%
%TO.N,Board_25-Net-(J3-Pin_4)*%
X164470000Y-84006500D03*
%TD*%
D10*
%TO.P,J3,1,Pin_1*%
%TO.N,Board_24-Net-(J3-Pin_1)*%
X144690000Y-84006500D03*
D11*
%TO.P,J3,2,Pin_2*%
%TO.N,Board_24-Net-(J3-Pin_2)*%
X147230000Y-84006500D03*
%TO.P,J3,3,Pin_3*%
%TO.N,Board_24-Net-(J3-Pin_3)*%
X149770000Y-84006500D03*
%TO.P,J3,4,Pin_4*%
%TO.N,Board_24-Net-(J3-Pin_4)*%
X152310000Y-84006500D03*
%TD*%
D10*
%TO.P,J3,1,Pin_1*%
%TO.N,Board_9-Net-(J3-Pin_1)*%
X132530000Y-54302500D03*
D11*
%TO.P,J3,2,Pin_2*%
%TO.N,Board_9-Net-(J3-Pin_2)*%
X135070000Y-54302500D03*
%TO.P,J3,3,Pin_3*%
%TO.N,Board_9-Net-(J3-Pin_3)*%
X137610000Y-54302500D03*
%TO.P,J3,4,Pin_4*%
%TO.N,Board_9-Net-(J3-Pin_4)*%
X140150000Y-54302500D03*
%TD*%
D10*
%TO.P,J4,1,Pin_1*%
%TO.N,Board_20-Net-(J4-Pin_1)*%
X181170000Y-58994500D03*
D11*
%TO.P,J4,2,Pin_2*%
%TO.N,Board_20-Net-(J4-Pin_2)*%
X183710000Y-58994500D03*
%TO.P,J4,3,Pin_3*%
%TO.N,Board_20-Net-(J4-Pin_3)*%
X186250000Y-58994500D03*
%TO.P,J4,4,Pin_4*%
%TO.N,Board_20-Net-(J4-Pin_4)*%
X188790000Y-58994500D03*
%TD*%
D10*
%TO.P,J3,1,Pin_1*%
%TO.N,Board_18-Net-(J3-Pin_1)*%
X156850000Y-69154500D03*
D11*
%TO.P,J3,2,Pin_2*%
%TO.N,Board_18-Net-(J3-Pin_2)*%
X159390000Y-69154500D03*
%TO.P,J3,3,Pin_3*%
%TO.N,Board_18-Net-(J3-Pin_3)*%
X161930000Y-69154500D03*
%TO.P,J3,4,Pin_4*%
%TO.N,Board_18-Net-(J3-Pin_4)*%
X164470000Y-69154500D03*
%TD*%
D10*
%TO.P,J4,1,Pin_1*%
%TO.N,Board_11-Net-(J4-Pin_1)*%
X156850000Y-44142500D03*
D11*
%TO.P,J4,2,Pin_2*%
%TO.N,Board_11-Net-(J4-Pin_2)*%
X159390000Y-44142500D03*
%TO.P,J4,3,Pin_3*%
%TO.N,Board_11-Net-(J4-Pin_3)*%
X161930000Y-44142500D03*
%TO.P,J4,4,Pin_4*%
%TO.N,Board_11-Net-(J4-Pin_4)*%
X164470000Y-44142500D03*
%TD*%
M02*
