%TF.GenerationSoftware,KiCad,Pcbnew,9.0.6*%
%TF.CreationDate,2025-12-29T22:30:05-08:00*%
%TF.ProjectId,sot-23-8-panelized,736f742d-3233-42d3-982d-70616e656c69,rev?*%
%TF.SameCoordinates,Original*%
%TF.FileFunction,Copper,L1,Top*%
%TF.FilePolarity,Positive*%
%FSLAX46Y46*%
G04 Gerber Fmt 4.6, Leading zero omitted, Abs format (unit mm)*
G04 Created by KiCad (PCBNEW 9.0.6) date 2025-12-29 22:30:05*
%MOMM*%
%LPD*%
G01*
G04 APERTURE LIST*
G04 Aperture macros list*
%AMRoundRect*
0 Rectangle with rounded corners*
0 $1 Rounding radius*
0 $2 $3 $4 $5 $6 $7 $8 $9 X,Y pos of 4 corners*
0 Add a 4 corners polygon primitive as box body*
4,1,4,$2,$3,$4,$5,$6,$7,$8,$9,$2,$3,0*
0 Add four circle primitives for the rounded corners*
1,1,$1+$1,$2,$3*
1,1,$1+$1,$4,$5*
1,1,$1+$1,$6,$7*
1,1,$1+$1,$8,$9*
0 Add four rect primitives between the rounded corners*
20,1,$1+$1,$2,$3,$4,$5,0*
20,1,$1+$1,$4,$5,$6,$7,0*
20,1,$1+$1,$6,$7,$8,$9,0*
20,1,$1+$1,$8,$9,$2,$3,0*%
G04 Aperture macros list end*
%TA.AperFunction,ComponentPad*%
%ADD10R,1.700000X1.700000*%
%TD*%
%TA.AperFunction,ComponentPad*%
%ADD11C,1.700000*%
%TD*%
%TA.AperFunction,SMDPad,CuDef*%
%ADD12RoundRect,0.125000X0.125000X-0.537500X0.125000X0.537500X-0.125000X0.537500X-0.125000X-0.537500X0*%
%TD*%
%TA.AperFunction,Conductor*%
%ADD13C,0.500000*%
%TD*%
%TA.AperFunction,Conductor*%
%ADD14C,0.250000*%
%TD*%
G04 APERTURE END LIST*
D10*
%TO.P,J4,1,Pin_1*%
%TO.N,Board_1-Net-(J4-Pin_1)*%
X120370000Y-29290500D03*
D11*
%TO.P,J4,2,Pin_2*%
%TO.N,Board_1-Net-(J4-Pin_2)*%
X122910000Y-29290500D03*
%TO.P,J4,3,Pin_3*%
%TO.N,Board_1-Net-(J4-Pin_3)*%
X125450000Y-29290500D03*
%TO.P,J4,4,Pin_4*%
%TO.N,Board_1-Net-(J4-Pin_4)*%
X127990000Y-29290500D03*
%TD*%
D10*
%TO.P,J4,1,Pin_1*%
%TO.N,Board_8-Net-(J4-Pin_1)*%
X120370000Y-44142500D03*
D11*
%TO.P,J4,2,Pin_2*%
%TO.N,Board_8-Net-(J4-Pin_2)*%
X122910000Y-44142500D03*
%TO.P,J4,3,Pin_3*%
%TO.N,Board_8-Net-(J4-Pin_3)*%
X125450000Y-44142500D03*
%TO.P,J4,4,Pin_4*%
%TO.N,Board_8-Net-(J4-Pin_4)*%
X127990000Y-44142500D03*
%TD*%
D10*
%TO.P,J3,1,Pin_1*%
%TO.N,Board_20-Net-(J3-Pin_1)*%
X181170000Y-69154500D03*
D11*
%TO.P,J3,2,Pin_2*%
%TO.N,Board_20-Net-(J3-Pin_2)*%
X183710000Y-69154500D03*
%TO.P,J3,3,Pin_3*%
%TO.N,Board_20-Net-(J3-Pin_3)*%
X186250000Y-69154500D03*
%TO.P,J3,4,Pin_4*%
%TO.N,Board_20-Net-(J3-Pin_4)*%
X188790000Y-69154500D03*
%TD*%
D10*
%TO.P,J3,1,Pin_1*%
%TO.N,Board_17-Net-(J3-Pin_1)*%
X144690000Y-69154500D03*
D11*
%TO.P,J3,2,Pin_2*%
%TO.N,Board_17-Net-(J3-Pin_2)*%
X147230000Y-69154500D03*
%TO.P,J3,3,Pin_3*%
%TO.N,Board_17-Net-(J3-Pin_3)*%
X149770000Y-69154500D03*
%TO.P,J3,4,Pin_4*%
%TO.N,Board_17-Net-(J3-Pin_4)*%
X152310000Y-69154500D03*
%TD*%
D10*
%TO.P,J3,1,Pin_1*%
%TO.N,Board_31-Net-(J3-Pin_1)*%
X144690000Y-98858500D03*
D11*
%TO.P,J3,2,Pin_2*%
%TO.N,Board_31-Net-(J3-Pin_2)*%
X147230000Y-98858500D03*
%TO.P,J3,3,Pin_3*%
%TO.N,Board_31-Net-(J3-Pin_3)*%
X149770000Y-98858500D03*
%TO.P,J3,4,Pin_4*%
%TO.N,Board_31-Net-(J3-Pin_4)*%
X152310000Y-98858500D03*
%TD*%
D12*
%TO.P,U1,1,R*%
%TO.N,Board_11-Net-(J3-Pin_1)*%
X159762500Y-50360000D03*
%TO.P,U1,2,MODE*%
%TO.N,Board_11-Net-(J3-Pin_2)*%
X160412500Y-50360000D03*
%TO.P,U1,3,F_SET*%
%TO.N,Board_11-Net-(J3-Pin_3)*%
X161062500Y-50360000D03*
%TO.P,U1,4,D*%
%TO.N,Board_11-Net-(J3-Pin_4)*%
X161712500Y-50360000D03*
%TO.P,U1,5,GND*%
%TO.N,Board_11-Net-(J4-Pin_4)*%
X161712500Y-48085000D03*
%TO.P,U1,6,A*%
%TO.N,Board_11-Net-(J4-Pin_3)*%
X161062500Y-48085000D03*
%TO.P,U1,7,B*%
%TO.N,Board_11-Net-(J4-Pin_2)*%
X160412500Y-48085000D03*
%TO.P,U1,8,VCC*%
%TO.N,Board_11-Net-(J4-Pin_1)*%
X159762500Y-48085000D03*
%TD*%
D10*
%TO.P,J3,1,Pin_1*%
%TO.N,Board_30-Net-(J3-Pin_1)*%
X132530000Y-98858500D03*
D11*
%TO.P,J3,2,Pin_2*%
%TO.N,Board_30-Net-(J3-Pin_2)*%
X135070000Y-98858500D03*
%TO.P,J3,3,Pin_3*%
%TO.N,Board_30-Net-(J3-Pin_3)*%
X137610000Y-98858500D03*
%TO.P,J3,4,Pin_4*%
%TO.N,Board_30-Net-(J3-Pin_4)*%
X140150000Y-98858500D03*
%TD*%
D10*
%TO.P,J3,1,Pin_1*%
%TO.N,Board_0-Net-(J3-Pin_1)*%
X108210000Y-39450500D03*
D11*
%TO.P,J3,2,Pin_2*%
%TO.N,Board_0-Net-(J3-Pin_2)*%
X110750000Y-39450500D03*
%TO.P,J3,3,Pin_3*%
%TO.N,Board_0-Net-(J3-Pin_3)*%
X113290000Y-39450500D03*
%TO.P,J3,4,Pin_4*%
%TO.N,Board_0-Net-(J3-Pin_4)*%
X115830000Y-39450500D03*
%TD*%
D10*
%TO.P,J4,1,Pin_1*%
%TO.N,Board_3-Net-(J4-Pin_1)*%
X144690000Y-29290500D03*
D11*
%TO.P,J4,2,Pin_2*%
%TO.N,Board_3-Net-(J4-Pin_2)*%
X147230000Y-29290500D03*
%TO.P,J4,3,Pin_3*%
%TO.N,Board_3-Net-(J4-Pin_3)*%
X149770000Y-29290500D03*
%TO.P,J4,4,Pin_4*%
%TO.N,Board_3-Net-(J4-Pin_4)*%
X152310000Y-29290500D03*
%TD*%
D10*
%TO.P,J4,1,Pin_1*%
%TO.N,Board_9-Net-(J4-Pin_1)*%
X132530000Y-44142500D03*
D11*
%TO.P,J4,2,Pin_2*%
%TO.N,Board_9-Net-(J4-Pin_2)*%
X135070000Y-44142500D03*
%TO.P,J4,3,Pin_3*%
%TO.N,Board_9-Net-(J4-Pin_3)*%
X137610000Y-44142500D03*
%TO.P,J4,4,Pin_4*%
%TO.N,Board_9-Net-(J4-Pin_4)*%
X140150000Y-44142500D03*
%TD*%
D10*
%TO.P,J3,1,Pin_1*%
%TO.N,Board_32-Net-(J3-Pin_1)*%
X156850000Y-98858500D03*
D11*
%TO.P,J3,2,Pin_2*%
%TO.N,Board_32-Net-(J3-Pin_2)*%
X159390000Y-98858500D03*
%TO.P,J3,3,Pin_3*%
%TO.N,Board_32-Net-(J3-Pin_3)*%
X161930000Y-98858500D03*
%TO.P,J3,4,Pin_4*%
%TO.N,Board_32-Net-(J3-Pin_4)*%
X164470000Y-98858500D03*
%TD*%
D12*
%TO.P,U1,1,R*%
%TO.N,Board_13-Net-(J3-Pin_1)*%
X184082500Y-50360000D03*
%TO.P,U1,2,MODE*%
%TO.N,Board_13-Net-(J3-Pin_2)*%
X184732500Y-50360000D03*
%TO.P,U1,3,F_SET*%
%TO.N,Board_13-Net-(J3-Pin_3)*%
X185382500Y-50360000D03*
%TO.P,U1,4,D*%
%TO.N,Board_13-Net-(J3-Pin_4)*%
X186032500Y-50360000D03*
%TO.P,U1,5,GND*%
%TO.N,Board_13-Net-(J4-Pin_4)*%
X186032500Y-48085000D03*
%TO.P,U1,6,A*%
%TO.N,Board_13-Net-(J4-Pin_3)*%
X185382500Y-48085000D03*
%TO.P,U1,7,B*%
%TO.N,Board_13-Net-(J4-Pin_2)*%
X184732500Y-48085000D03*
%TO.P,U1,8,VCC*%
%TO.N,Board_13-Net-(J4-Pin_1)*%
X184082500Y-48085000D03*
%TD*%
%TO.P,U1,1,R*%
%TO.N,Board_34-Net-(J3-Pin_1)*%
X184082500Y-94916000D03*
%TO.P,U1,2,MODE*%
%TO.N,Board_34-Net-(J3-Pin_2)*%
X184732500Y-94916000D03*
%TO.P,U1,3,F_SET*%
%TO.N,Board_34-Net-(J3-Pin_3)*%
X185382500Y-94916000D03*
%TO.P,U1,4,D*%
%TO.N,Board_34-Net-(J3-Pin_4)*%
X186032500Y-94916000D03*
%TO.P,U1,5,GND*%
%TO.N,Board_34-Net-(J4-Pin_4)*%
X186032500Y-92641000D03*
%TO.P,U1,6,A*%
%TO.N,Board_34-Net-(J4-Pin_3)*%
X185382500Y-92641000D03*
%TO.P,U1,7,B*%
%TO.N,Board_34-Net-(J4-Pin_2)*%
X184732500Y-92641000D03*
%TO.P,U1,8,VCC*%
%TO.N,Board_34-Net-(J4-Pin_1)*%
X184082500Y-92641000D03*
%TD*%
D10*
%TO.P,J3,1,Pin_1*%
%TO.N,Board_14-Net-(J3-Pin_1)*%
X108210000Y-69154500D03*
D11*
%TO.P,J3,2,Pin_2*%
%TO.N,Board_14-Net-(J3-Pin_2)*%
X110750000Y-69154500D03*
%TO.P,J3,3,Pin_3*%
%TO.N,Board_14-Net-(J3-Pin_3)*%
X113290000Y-69154500D03*
%TO.P,J3,4,Pin_4*%
%TO.N,Board_14-Net-(J3-Pin_4)*%
X115830000Y-69154500D03*
%TD*%
D10*
%TO.P,J4,1,Pin_1*%
%TO.N,Board_24-Net-(J4-Pin_1)*%
X144690000Y-73846500D03*
D11*
%TO.P,J4,2,Pin_2*%
%TO.N,Board_24-Net-(J4-Pin_2)*%
X147230000Y-73846500D03*
%TO.P,J4,3,Pin_3*%
%TO.N,Board_24-Net-(J4-Pin_3)*%
X149770000Y-73846500D03*
%TO.P,J4,4,Pin_4*%
%TO.N,Board_24-Net-(J4-Pin_4)*%
X152310000Y-73846500D03*
%TD*%
D12*
%TO.P,U1,1,R*%
%TO.N,Board_30-Net-(J3-Pin_1)*%
X135442500Y-94916000D03*
%TO.P,U1,2,MODE*%
%TO.N,Board_30-Net-(J3-Pin_2)*%
X136092500Y-94916000D03*
%TO.P,U1,3,F_SET*%
%TO.N,Board_30-Net-(J3-Pin_3)*%
X136742500Y-94916000D03*
%TO.P,U1,4,D*%
%TO.N,Board_30-Net-(J3-Pin_4)*%
X137392500Y-94916000D03*
%TO.P,U1,5,GND*%
%TO.N,Board_30-Net-(J4-Pin_4)*%
X137392500Y-92641000D03*
%TO.P,U1,6,A*%
%TO.N,Board_30-Net-(J4-Pin_3)*%
X136742500Y-92641000D03*
%TO.P,U1,7,B*%
%TO.N,Board_30-Net-(J4-Pin_2)*%
X136092500Y-92641000D03*
%TO.P,U1,8,VCC*%
%TO.N,Board_30-Net-(J4-Pin_1)*%
X135442500Y-92641000D03*
%TD*%
%TO.P,U1,1,R*%
%TO.N,Board_22-Net-(J3-Pin_1)*%
X123282500Y-80064000D03*
%TO.P,U1,2,MODE*%
%TO.N,Board_22-Net-(J3-Pin_2)*%
X123932500Y-80064000D03*
%TO.P,U1,3,F_SET*%
%TO.N,Board_22-Net-(J3-Pin_3)*%
X124582500Y-80064000D03*
%TO.P,U1,4,D*%
%TO.N,Board_22-Net-(J3-Pin_4)*%
X125232500Y-80064000D03*
%TO.P,U1,5,GND*%
%TO.N,Board_22-Net-(J4-Pin_4)*%
X125232500Y-77789000D03*
%TO.P,U1,6,A*%
%TO.N,Board_22-Net-(J4-Pin_3)*%
X124582500Y-77789000D03*
%TO.P,U1,7,B*%
%TO.N,Board_22-Net-(J4-Pin_2)*%
X123932500Y-77789000D03*
%TO.P,U1,8,VCC*%
%TO.N,Board_22-Net-(J4-Pin_1)*%
X123282500Y-77789000D03*
%TD*%
D10*
%TO.P,J4,1,Pin_1*%
%TO.N,Board_16-Net-(J4-Pin_1)*%
X132530000Y-58994500D03*
D11*
%TO.P,J4,2,Pin_2*%
%TO.N,Board_16-Net-(J4-Pin_2)*%
X135070000Y-58994500D03*
%TO.P,J4,3,Pin_3*%
%TO.N,Board_16-Net-(J4-Pin_3)*%
X137610000Y-58994500D03*
%TO.P,J4,4,Pin_4*%
%TO.N,Board_16-Net-(J4-Pin_4)*%
X140150000Y-58994500D03*
%TD*%
D12*
%TO.P,U1,1,R*%
%TO.N,Board_12-Net-(J3-Pin_1)*%
X171922500Y-50360000D03*
%TO.P,U1,2,MODE*%
%TO.N,Board_12-Net-(J3-Pin_2)*%
X172572500Y-50360000D03*
%TO.P,U1,3,F_SET*%
%TO.N,Board_12-Net-(J3-Pin_3)*%
X173222500Y-50360000D03*
%TO.P,U1,4,D*%
%TO.N,Board_12-Net-(J3-Pin_4)*%
X173872500Y-50360000D03*
%TO.P,U1,5,GND*%
%TO.N,Board_12-Net-(J4-Pin_4)*%
X173872500Y-48085000D03*
%TO.P,U1,6,A*%
%TO.N,Board_12-Net-(J4-Pin_3)*%
X173222500Y-48085000D03*
%TO.P,U1,7,B*%
%TO.N,Board_12-Net-(J4-Pin_2)*%
X172572500Y-48085000D03*
%TO.P,U1,8,VCC*%
%TO.N,Board_12-Net-(J4-Pin_1)*%
X171922500Y-48085000D03*
%TD*%
D10*
%TO.P,J4,1,Pin_1*%
%TO.N,Board_27-Net-(J4-Pin_1)*%
X181170000Y-73846500D03*
D11*
%TO.P,J4,2,Pin_2*%
%TO.N,Board_27-Net-(J4-Pin_2)*%
X183710000Y-73846500D03*
%TO.P,J4,3,Pin_3*%
%TO.N,Board_27-Net-(J4-Pin_3)*%
X186250000Y-73846500D03*
%TO.P,J4,4,Pin_4*%
%TO.N,Board_27-Net-(J4-Pin_4)*%
X188790000Y-73846500D03*
%TD*%
D12*
%TO.P,U1,1,R*%
%TO.N,Board_27-Net-(J3-Pin_1)*%
X184082500Y-80064000D03*
%TO.P,U1,2,MODE*%
%TO.N,Board_27-Net-(J3-Pin_2)*%
X184732500Y-80064000D03*
%TO.P,U1,3,F_SET*%
%TO.N,Board_27-Net-(J3-Pin_3)*%
X185382500Y-80064000D03*
%TO.P,U1,4,D*%
%TO.N,Board_27-Net-(J3-Pin_4)*%
X186032500Y-80064000D03*
%TO.P,U1,5,GND*%
%TO.N,Board_27-Net-(J4-Pin_4)*%
X186032500Y-77789000D03*
%TO.P,U1,6,A*%
%TO.N,Board_27-Net-(J4-Pin_3)*%
X185382500Y-77789000D03*
%TO.P,U1,7,B*%
%TO.N,Board_27-Net-(J4-Pin_2)*%
X184732500Y-77789000D03*
%TO.P,U1,8,VCC*%
%TO.N,Board_27-Net-(J4-Pin_1)*%
X184082500Y-77789000D03*
%TD*%
D10*
%TO.P,J4,1,Pin_1*%
%TO.N,Board_33-Net-(J4-Pin_1)*%
X169010000Y-88698500D03*
D11*
%TO.P,J4,2,Pin_2*%
%TO.N,Board_33-Net-(J4-Pin_2)*%
X171550000Y-88698500D03*
%TO.P,J4,3,Pin_3*%
%TO.N,Board_33-Net-(J4-Pin_3)*%
X174090000Y-88698500D03*
%TO.P,J4,4,Pin_4*%
%TO.N,Board_33-Net-(J4-Pin_4)*%
X176630000Y-88698500D03*
%TD*%
D10*
%TO.P,J3,1,Pin_1*%
%TO.N,Board_34-Net-(J3-Pin_1)*%
X181170000Y-98858500D03*
D11*
%TO.P,J3,2,Pin_2*%
%TO.N,Board_34-Net-(J3-Pin_2)*%
X183710000Y-98858500D03*
%TO.P,J3,3,Pin_3*%
%TO.N,Board_34-Net-(J3-Pin_3)*%
X186250000Y-98858500D03*
%TO.P,J3,4,Pin_4*%
%TO.N,Board_34-Net-(J3-Pin_4)*%
X188790000Y-98858500D03*
%TD*%
D10*
%TO.P,J4,1,Pin_1*%
%TO.N,Board_28-Net-(J4-Pin_1)*%
X108210000Y-88698500D03*
D11*
%TO.P,J4,2,Pin_2*%
%TO.N,Board_28-Net-(J4-Pin_2)*%
X110750000Y-88698500D03*
%TO.P,J4,3,Pin_3*%
%TO.N,Board_28-Net-(J4-Pin_3)*%
X113290000Y-88698500D03*
%TO.P,J4,4,Pin_4*%
%TO.N,Board_28-Net-(J4-Pin_4)*%
X115830000Y-88698500D03*
%TD*%
D12*
%TO.P,U1,1,R*%
%TO.N,Board_4-Net-(J3-Pin_1)*%
X159762500Y-35508000D03*
%TO.P,U1,2,MODE*%
%TO.N,Board_4-Net-(J3-Pin_2)*%
X160412500Y-35508000D03*
%TO.P,U1,3,F_SET*%
%TO.N,Board_4-Net-(J3-Pin_3)*%
X161062500Y-35508000D03*
%TO.P,U1,4,D*%
%TO.N,Board_4-Net-(J3-Pin_4)*%
X161712500Y-35508000D03*
%TO.P,U1,5,GND*%
%TO.N,Board_4-Net-(J4-Pin_4)*%
X161712500Y-33233000D03*
%TO.P,U1,6,A*%
%TO.N,Board_4-Net-(J4-Pin_3)*%
X161062500Y-33233000D03*
%TO.P,U1,7,B*%
%TO.N,Board_4-Net-(J4-Pin_2)*%
X160412500Y-33233000D03*
%TO.P,U1,8,VCC*%
%TO.N,Board_4-Net-(J4-Pin_1)*%
X159762500Y-33233000D03*
%TD*%
%TO.P,U1,1,R*%
%TO.N,Board_6-Net-(J3-Pin_1)*%
X184082500Y-35508000D03*
%TO.P,U1,2,MODE*%
%TO.N,Board_6-Net-(J3-Pin_2)*%
X184732500Y-35508000D03*
%TO.P,U1,3,F_SET*%
%TO.N,Board_6-Net-(J3-Pin_3)*%
X185382500Y-35508000D03*
%TO.P,U1,4,D*%
%TO.N,Board_6-Net-(J3-Pin_4)*%
X186032500Y-35508000D03*
%TO.P,U1,5,GND*%
%TO.N,Board_6-Net-(J4-Pin_4)*%
X186032500Y-33233000D03*
%TO.P,U1,6,A*%
%TO.N,Board_6-Net-(J4-Pin_3)*%
X185382500Y-33233000D03*
%TO.P,U1,7,B*%
%TO.N,Board_6-Net-(J4-Pin_2)*%
X184732500Y-33233000D03*
%TO.P,U1,8,VCC*%
%TO.N,Board_6-Net-(J4-Pin_1)*%
X184082500Y-33233000D03*
%TD*%
D10*
%TO.P,J4,1,Pin_1*%
%TO.N,Board_34-Net-(J4-Pin_1)*%
X181170000Y-88698500D03*
D11*
%TO.P,J4,2,Pin_2*%
%TO.N,Board_34-Net-(J4-Pin_2)*%
X183710000Y-88698500D03*
%TO.P,J4,3,Pin_3*%
%TO.N,Board_34-Net-(J4-Pin_3)*%
X186250000Y-88698500D03*
%TO.P,J4,4,Pin_4*%
%TO.N,Board_34-Net-(J4-Pin_4)*%
X188790000Y-88698500D03*
%TD*%
D12*
%TO.P,U1,1,R*%
%TO.N,Board_18-Net-(J3-Pin_1)*%
X159762500Y-65212000D03*
%TO.P,U1,2,MODE*%
%TO.N,Board_18-Net-(J3-Pin_2)*%
X160412500Y-65212000D03*
%TO.P,U1,3,F_SET*%
%TO.N,Board_18-Net-(J3-Pin_3)*%
X161062500Y-65212000D03*
%TO.P,U1,4,D*%
%TO.N,Board_18-Net-(J3-Pin_4)*%
X161712500Y-65212000D03*
%TO.P,U1,5,GND*%
%TO.N,Board_18-Net-(J4-Pin_4)*%
X161712500Y-62937000D03*
%TO.P,U1,6,A*%
%TO.N,Board_18-Net-(J4-Pin_3)*%
X161062500Y-62937000D03*
%TO.P,U1,7,B*%
%TO.N,Board_18-Net-(J4-Pin_2)*%
X160412500Y-62937000D03*
%TO.P,U1,8,VCC*%
%TO.N,Board_18-Net-(J4-Pin_1)*%
X159762500Y-62937000D03*
%TD*%
D10*
%TO.P,J3,1,Pin_1*%
%TO.N,Board_11-Net-(J3-Pin_1)*%
X156850000Y-54302500D03*
D11*
%TO.P,J3,2,Pin_2*%
%TO.N,Board_11-Net-(J3-Pin_2)*%
X159390000Y-54302500D03*
%TO.P,J3,3,Pin_3*%
%TO.N,Board_11-Net-(J3-Pin_3)*%
X161930000Y-54302500D03*
%TO.P,J3,4,Pin_4*%
%TO.N,Board_11-Net-(J3-Pin_4)*%
X164470000Y-54302500D03*
%TD*%
D10*
%TO.P,J3,1,Pin_1*%
%TO.N,Board_21-Net-(J3-Pin_1)*%
X108210000Y-84006500D03*
D11*
%TO.P,J3,2,Pin_2*%
%TO.N,Board_21-Net-(J3-Pin_2)*%
X110750000Y-84006500D03*
%TO.P,J3,3,Pin_3*%
%TO.N,Board_21-Net-(J3-Pin_3)*%
X113290000Y-84006500D03*
%TO.P,J3,4,Pin_4*%
%TO.N,Board_21-Net-(J3-Pin_4)*%
X115830000Y-84006500D03*
%TD*%
D10*
%TO.P,J3,1,Pin_1*%
%TO.N,Board_29-Net-(J3-Pin_1)*%
X120370000Y-98858500D03*
D11*
%TO.P,J3,2,Pin_2*%
%TO.N,Board_29-Net-(J3-Pin_2)*%
X122910000Y-98858500D03*
%TO.P,J3,3,Pin_3*%
%TO.N,Board_29-Net-(J3-Pin_3)*%
X125450000Y-98858500D03*
%TO.P,J3,4,Pin_4*%
%TO.N,Board_29-Net-(J3-Pin_4)*%
X127990000Y-98858500D03*
%TD*%
D10*
%TO.P,J4,1,Pin_1*%
%TO.N,Board_30-Net-(J4-Pin_1)*%
X132530000Y-88698500D03*
D11*
%TO.P,J4,2,Pin_2*%
%TO.N,Board_30-Net-(J4-Pin_2)*%
X135070000Y-88698500D03*
%TO.P,J4,3,Pin_3*%
%TO.N,Board_30-Net-(J4-Pin_3)*%
X137610000Y-88698500D03*
%TO.P,J4,4,Pin_4*%
%TO.N,Board_30-Net-(J4-Pin_4)*%
X140150000Y-88698500D03*
%TD*%
D10*
%TO.P,J4,1,Pin_1*%
%TO.N,Board_29-Net-(J4-Pin_1)*%
X120370000Y-88698500D03*
D11*
%TO.P,J4,2,Pin_2*%
%TO.N,Board_29-Net-(J4-Pin_2)*%
X122910000Y-88698500D03*
%TO.P,J4,3,Pin_3*%
%TO.N,Board_29-Net-(J4-Pin_3)*%
X125450000Y-88698500D03*
%TO.P,J4,4,Pin_4*%
%TO.N,Board_29-Net-(J4-Pin_4)*%
X127990000Y-88698500D03*
%TD*%
D12*
%TO.P,U1,1,R*%
%TO.N,Board_32-Net-(J3-Pin_1)*%
X159762500Y-94916000D03*
%TO.P,U1,2,MODE*%
%TO.N,Board_32-Net-(J3-Pin_2)*%
X160412500Y-94916000D03*
%TO.P,U1,3,F_SET*%
%TO.N,Board_32-Net-(J3-Pin_3)*%
X161062500Y-94916000D03*
%TO.P,U1,4,D*%
%TO.N,Board_32-Net-(J3-Pin_4)*%
X161712500Y-94916000D03*
%TO.P,U1,5,GND*%
%TO.N,Board_32-Net-(J4-Pin_4)*%
X161712500Y-92641000D03*
%TO.P,U1,6,A*%
%TO.N,Board_32-Net-(J4-Pin_3)*%
X161062500Y-92641000D03*
%TO.P,U1,7,B*%
%TO.N,Board_32-Net-(J4-Pin_2)*%
X160412500Y-92641000D03*
%TO.P,U1,8,VCC*%
%TO.N,Board_32-Net-(J4-Pin_1)*%
X159762500Y-92641000D03*
%TD*%
D10*
%TO.P,J3,1,Pin_1*%
%TO.N,Board_22-Net-(J3-Pin_1)*%
X120370000Y-84006500D03*
D11*
%TO.P,J3,2,Pin_2*%
%TO.N,Board_22-Net-(J3-Pin_2)*%
X122910000Y-84006500D03*
%TO.P,J3,3,Pin_3*%
%TO.N,Board_22-Net-(J3-Pin_3)*%
X125450000Y-84006500D03*
%TO.P,J3,4,Pin_4*%
%TO.N,Board_22-Net-(J3-Pin_4)*%
X127990000Y-84006500D03*
%TD*%
D12*
%TO.P,U1,1,R*%
%TO.N,Board_15-Net-(J3-Pin_1)*%
X123282500Y-65212000D03*
%TO.P,U1,2,MODE*%
%TO.N,Board_15-Net-(J3-Pin_2)*%
X123932500Y-65212000D03*
%TO.P,U1,3,F_SET*%
%TO.N,Board_15-Net-(J3-Pin_3)*%
X124582500Y-65212000D03*
%TO.P,U1,4,D*%
%TO.N,Board_15-Net-(J3-Pin_4)*%
X125232500Y-65212000D03*
%TO.P,U1,5,GND*%
%TO.N,Board_15-Net-(J4-Pin_4)*%
X125232500Y-62937000D03*
%TO.P,U1,6,A*%
%TO.N,Board_15-Net-(J4-Pin_3)*%
X124582500Y-62937000D03*
%TO.P,U1,7,B*%
%TO.N,Board_15-Net-(J4-Pin_2)*%
X123932500Y-62937000D03*
%TO.P,U1,8,VCC*%
%TO.N,Board_15-Net-(J4-Pin_1)*%
X123282500Y-62937000D03*
%TD*%
D10*
%TO.P,J4,1,Pin_1*%
%TO.N,Board_15-Net-(J4-Pin_1)*%
X120370000Y-58994500D03*
D11*
%TO.P,J4,2,Pin_2*%
%TO.N,Board_15-Net-(J4-Pin_2)*%
X122910000Y-58994500D03*
%TO.P,J4,3,Pin_3*%
%TO.N,Board_15-Net-(J4-Pin_3)*%
X125450000Y-58994500D03*
%TO.P,J4,4,Pin_4*%
%TO.N,Board_15-Net-(J4-Pin_4)*%
X127990000Y-58994500D03*
%TD*%
D10*
%TO.P,J3,1,Pin_1*%
%TO.N,Board_13-Net-(J3-Pin_1)*%
X181170000Y-54302500D03*
D11*
%TO.P,J3,2,Pin_2*%
%TO.N,Board_13-Net-(J3-Pin_2)*%
X183710000Y-54302500D03*
%TO.P,J3,3,Pin_3*%
%TO.N,Board_13-Net-(J3-Pin_3)*%
X186250000Y-54302500D03*
%TO.P,J3,4,Pin_4*%
%TO.N,Board_13-Net-(J3-Pin_4)*%
X188790000Y-54302500D03*
%TD*%
D10*
%TO.P,J3,1,Pin_1*%
%TO.N,Board_8-Net-(J3-Pin_1)*%
X120370000Y-54302500D03*
D11*
%TO.P,J3,2,Pin_2*%
%TO.N,Board_8-Net-(J3-Pin_2)*%
X122910000Y-54302500D03*
%TO.P,J3,3,Pin_3*%
%TO.N,Board_8-Net-(J3-Pin_3)*%
X125450000Y-54302500D03*
%TO.P,J3,4,Pin_4*%
%TO.N,Board_8-Net-(J3-Pin_4)*%
X127990000Y-54302500D03*
%TD*%
D12*
%TO.P,U1,1,R*%
%TO.N,Board_20-Net-(J3-Pin_1)*%
X184082500Y-65212000D03*
%TO.P,U1,2,MODE*%
%TO.N,Board_20-Net-(J3-Pin_2)*%
X184732500Y-65212000D03*
%TO.P,U1,3,F_SET*%
%TO.N,Board_20-Net-(J3-Pin_3)*%
X185382500Y-65212000D03*
%TO.P,U1,4,D*%
%TO.N,Board_20-Net-(J3-Pin_4)*%
X186032500Y-65212000D03*
%TO.P,U1,5,GND*%
%TO.N,Board_20-Net-(J4-Pin_4)*%
X186032500Y-62937000D03*
%TO.P,U1,6,A*%
%TO.N,Board_20-Net-(J4-Pin_3)*%
X185382500Y-62937000D03*
%TO.P,U1,7,B*%
%TO.N,Board_20-Net-(J4-Pin_2)*%
X184732500Y-62937000D03*
%TO.P,U1,8,VCC*%
%TO.N,Board_20-Net-(J4-Pin_1)*%
X184082500Y-62937000D03*
%TD*%
D10*
%TO.P,J3,1,Pin_1*%
%TO.N,Board_15-Net-(J3-Pin_1)*%
X120370000Y-69154500D03*
D11*
%TO.P,J3,2,Pin_2*%
%TO.N,Board_15-Net-(J3-Pin_2)*%
X122910000Y-69154500D03*
%TO.P,J3,3,Pin_3*%
%TO.N,Board_15-Net-(J3-Pin_3)*%
X125450000Y-69154500D03*
%TO.P,J3,4,Pin_4*%
%TO.N,Board_15-Net-(J3-Pin_4)*%
X127990000Y-69154500D03*
%TD*%
D10*
%TO.P,J3,1,Pin_1*%
%TO.N,Board_7-Net-(J3-Pin_1)*%
X108210000Y-54302500D03*
D11*
%TO.P,J3,2,Pin_2*%
%TO.N,Board_7-Net-(J3-Pin_2)*%
X110750000Y-54302500D03*
%TO.P,J3,3,Pin_3*%
%TO.N,Board_7-Net-(J3-Pin_3)*%
X113290000Y-54302500D03*
%TO.P,J3,4,Pin_4*%
%TO.N,Board_7-Net-(J3-Pin_4)*%
X115830000Y-54302500D03*
%TD*%
D10*
%TO.P,J4,1,Pin_1*%
%TO.N,Board_6-Net-(J4-Pin_1)*%
X181170000Y-29290500D03*
D11*
%TO.P,J4,2,Pin_2*%
%TO.N,Board_6-Net-(J4-Pin_2)*%
X183710000Y-29290500D03*
%TO.P,J4,3,Pin_3*%
%TO.N,Board_6-Net-(J4-Pin_3)*%
X186250000Y-29290500D03*
%TO.P,J4,4,Pin_4*%
%TO.N,Board_6-Net-(J4-Pin_4)*%
X188790000Y-29290500D03*
%TD*%
D10*
%TO.P,J4,1,Pin_1*%
%TO.N,Board_14-Net-(J4-Pin_1)*%
X108210000Y-58994500D03*
D11*
%TO.P,J4,2,Pin_2*%
%TO.N,Board_14-Net-(J4-Pin_2)*%
X110750000Y-58994500D03*
%TO.P,J4,3,Pin_3*%
%TO.N,Board_14-Net-(J4-Pin_3)*%
X113290000Y-58994500D03*
%TO.P,J4,4,Pin_4*%
%TO.N,Board_14-Net-(J4-Pin_4)*%
X115830000Y-58994500D03*
%TD*%
D12*
%TO.P,U1,1,R*%
%TO.N,Board_29-Net-(J3-Pin_1)*%
X123282500Y-94916000D03*
%TO.P,U1,2,MODE*%
%TO.N,Board_29-Net-(J3-Pin_2)*%
X123932500Y-94916000D03*
%TO.P,U1,3,F_SET*%
%TO.N,Board_29-Net-(J3-Pin_3)*%
X124582500Y-94916000D03*
%TO.P,U1,4,D*%
%TO.N,Board_29-Net-(J3-Pin_4)*%
X125232500Y-94916000D03*
%TO.P,U1,5,GND*%
%TO.N,Board_29-Net-(J4-Pin_4)*%
X125232500Y-92641000D03*
%TO.P,U1,6,A*%
%TO.N,Board_29-Net-(J4-Pin_3)*%
X124582500Y-92641000D03*
%TO.P,U1,7,B*%
%TO.N,Board_29-Net-(J4-Pin_2)*%
X123932500Y-92641000D03*
%TO.P,U1,8,VCC*%
%TO.N,Board_29-Net-(J4-Pin_1)*%
X123282500Y-92641000D03*
%TD*%
D10*
%TO.P,J3,1,Pin_1*%
%TO.N,Board_23-Net-(J3-Pin_1)*%
X132530000Y-84006500D03*
D11*
%TO.P,J3,2,Pin_2*%
%TO.N,Board_23-Net-(J3-Pin_2)*%
X135070000Y-84006500D03*
%TO.P,J3,3,Pin_3*%
%TO.N,Board_23-Net-(J3-Pin_3)*%
X137610000Y-84006500D03*
%TO.P,J3,4,Pin_4*%
%TO.N,Board_23-Net-(J3-Pin_4)*%
X140150000Y-84006500D03*
%TD*%
D12*
%TO.P,U1,1,R*%
%TO.N,Board_10-Net-(J3-Pin_1)*%
X147602500Y-50360000D03*
%TO.P,U1,2,MODE*%
%TO.N,Board_10-Net-(J3-Pin_2)*%
X148252500Y-50360000D03*
%TO.P,U1,3,F_SET*%
%TO.N,Board_10-Net-(J3-Pin_3)*%
X148902500Y-50360000D03*
%TO.P,U1,4,D*%
%TO.N,Board_10-Net-(J3-Pin_4)*%
X149552500Y-50360000D03*
%TO.P,U1,5,GND*%
%TO.N,Board_10-Net-(J4-Pin_4)*%
X149552500Y-48085000D03*
%TO.P,U1,6,A*%
%TO.N,Board_10-Net-(J4-Pin_3)*%
X148902500Y-48085000D03*
%TO.P,U1,7,B*%
%TO.N,Board_10-Net-(J4-Pin_2)*%
X148252500Y-48085000D03*
%TO.P,U1,8,VCC*%
%TO.N,Board_10-Net-(J4-Pin_1)*%
X147602500Y-48085000D03*
%TD*%
D10*
%TO.P,J3,1,Pin_1*%
%TO.N,Board_6-Net-(J3-Pin_1)*%
X181170000Y-39450500D03*
D11*
%TO.P,J3,2,Pin_2*%
%TO.N,Board_6-Net-(J3-Pin_2)*%
X183710000Y-39450500D03*
%TO.P,J3,3,Pin_3*%
%TO.N,Board_6-Net-(J3-Pin_3)*%
X186250000Y-39450500D03*
%TO.P,J3,4,Pin_4*%
%TO.N,Board_6-Net-(J3-Pin_4)*%
X188790000Y-39450500D03*
%TD*%
D12*
%TO.P,U1,1,R*%
%TO.N,Board_3-Net-(J3-Pin_1)*%
X147602500Y-35508000D03*
%TO.P,U1,2,MODE*%
%TO.N,Board_3-Net-(J3-Pin_2)*%
X148252500Y-35508000D03*
%TO.P,U1,3,F_SET*%
%TO.N,Board_3-Net-(J3-Pin_3)*%
X148902500Y-35508000D03*
%TO.P,U1,4,D*%
%TO.N,Board_3-Net-(J3-Pin_4)*%
X149552500Y-35508000D03*
%TO.P,U1,5,GND*%
%TO.N,Board_3-Net-(J4-Pin_4)*%
X149552500Y-33233000D03*
%TO.P,U1,6,A*%
%TO.N,Board_3-Net-(J4-Pin_3)*%
X148902500Y-33233000D03*
%TO.P,U1,7,B*%
%TO.N,Board_3-Net-(J4-Pin_2)*%
X148252500Y-33233000D03*
%TO.P,U1,8,VCC*%
%TO.N,Board_3-Net-(J4-Pin_1)*%
X147602500Y-33233000D03*
%TD*%
%TO.P,U1,1,R*%
%TO.N,Board_8-Net-(J3-Pin_1)*%
X123282500Y-50360000D03*
%TO.P,U1,2,MODE*%
%TO.N,Board_8-Net-(J3-Pin_2)*%
X123932500Y-50360000D03*
%TO.P,U1,3,F_SET*%
%TO.N,Board_8-Net-(J3-Pin_3)*%
X124582500Y-50360000D03*
%TO.P,U1,4,D*%
%TO.N,Board_8-Net-(J3-Pin_4)*%
X125232500Y-50360000D03*
%TO.P,U1,5,GND*%
%TO.N,Board_8-Net-(J4-Pin_4)*%
X125232500Y-48085000D03*
%TO.P,U1,6,A*%
%TO.N,Board_8-Net-(J4-Pin_3)*%
X124582500Y-48085000D03*
%TO.P,U1,7,B*%
%TO.N,Board_8-Net-(J4-Pin_2)*%
X123932500Y-48085000D03*
%TO.P,U1,8,VCC*%
%TO.N,Board_8-Net-(J4-Pin_1)*%
X123282500Y-48085000D03*
%TD*%
%TO.P,U1,1,R*%
%TO.N,Board_23-Net-(J3-Pin_1)*%
X135442500Y-80064000D03*
%TO.P,U1,2,MODE*%
%TO.N,Board_23-Net-(J3-Pin_2)*%
X136092500Y-80064000D03*
%TO.P,U1,3,F_SET*%
%TO.N,Board_23-Net-(J3-Pin_3)*%
X136742500Y-80064000D03*
%TO.P,U1,4,D*%
%TO.N,Board_23-Net-(J3-Pin_4)*%
X137392500Y-80064000D03*
%TO.P,U1,5,GND*%
%TO.N,Board_23-Net-(J4-Pin_4)*%
X137392500Y-77789000D03*
%TO.P,U1,6,A*%
%TO.N,Board_23-Net-(J4-Pin_3)*%
X136742500Y-77789000D03*
%TO.P,U1,7,B*%
%TO.N,Board_23-Net-(J4-Pin_2)*%
X136092500Y-77789000D03*
%TO.P,U1,8,VCC*%
%TO.N,Board_23-Net-(J4-Pin_1)*%
X135442500Y-77789000D03*
%TD*%
%TO.P,U1,1,R*%
%TO.N,Board_5-Net-(J3-Pin_1)*%
X171922500Y-35508000D03*
%TO.P,U1,2,MODE*%
%TO.N,Board_5-Net-(J3-Pin_2)*%
X172572500Y-35508000D03*
%TO.P,U1,3,F_SET*%
%TO.N,Board_5-Net-(J3-Pin_3)*%
X173222500Y-35508000D03*
%TO.P,U1,4,D*%
%TO.N,Board_5-Net-(J3-Pin_4)*%
X173872500Y-35508000D03*
%TO.P,U1,5,GND*%
%TO.N,Board_5-Net-(J4-Pin_4)*%
X173872500Y-33233000D03*
%TO.P,U1,6,A*%
%TO.N,Board_5-Net-(J4-Pin_3)*%
X173222500Y-33233000D03*
%TO.P,U1,7,B*%
%TO.N,Board_5-Net-(J4-Pin_2)*%
X172572500Y-33233000D03*
%TO.P,U1,8,VCC*%
%TO.N,Board_5-Net-(J4-Pin_1)*%
X171922500Y-33233000D03*
%TD*%
%TO.P,U1,1,R*%
%TO.N,Board_16-Net-(J3-Pin_1)*%
X135442500Y-65212000D03*
%TO.P,U1,2,MODE*%
%TO.N,Board_16-Net-(J3-Pin_2)*%
X136092500Y-65212000D03*
%TO.P,U1,3,F_SET*%
%TO.N,Board_16-Net-(J3-Pin_3)*%
X136742500Y-65212000D03*
%TO.P,U1,4,D*%
%TO.N,Board_16-Net-(J3-Pin_4)*%
X137392500Y-65212000D03*
%TO.P,U1,5,GND*%
%TO.N,Board_16-Net-(J4-Pin_4)*%
X137392500Y-62937000D03*
%TO.P,U1,6,A*%
%TO.N,Board_16-Net-(J4-Pin_3)*%
X136742500Y-62937000D03*
%TO.P,U1,7,B*%
%TO.N,Board_16-Net-(J4-Pin_2)*%
X136092500Y-62937000D03*
%TO.P,U1,8,VCC*%
%TO.N,Board_16-Net-(J4-Pin_1)*%
X135442500Y-62937000D03*
%TD*%
D10*
%TO.P,J4,1,Pin_1*%
%TO.N,Board_25-Net-(J4-Pin_1)*%
X156850000Y-73846500D03*
D11*
%TO.P,J4,2,Pin_2*%
%TO.N,Board_25-Net-(J4-Pin_2)*%
X159390000Y-73846500D03*
%TO.P,J4,3,Pin_3*%
%TO.N,Board_25-Net-(J4-Pin_3)*%
X161930000Y-73846500D03*
%TO.P,J4,4,Pin_4*%
%TO.N,Board_25-Net-(J4-Pin_4)*%
X164470000Y-73846500D03*
%TD*%
D10*
%TO.P,J3,1,Pin_1*%
%TO.N,Board_5-Net-(J3-Pin_1)*%
X169010000Y-39450500D03*
D11*
%TO.P,J3,2,Pin_2*%
%TO.N,Board_5-Net-(J3-Pin_2)*%
X171550000Y-39450500D03*
%TO.P,J3,3,Pin_3*%
%TO.N,Board_5-Net-(J3-Pin_3)*%
X174090000Y-39450500D03*
%TO.P,J3,4,Pin_4*%
%TO.N,Board_5-Net-(J3-Pin_4)*%
X176630000Y-39450500D03*
%TD*%
D10*
%TO.P,J3,1,Pin_1*%
%TO.N,Board_1-Net-(J3-Pin_1)*%
X120370000Y-39450500D03*
D11*
%TO.P,J3,2,Pin_2*%
%TO.N,Board_1-Net-(J3-Pin_2)*%
X122910000Y-39450500D03*
%TO.P,J3,3,Pin_3*%
%TO.N,Board_1-Net-(J3-Pin_3)*%
X125450000Y-39450500D03*
%TO.P,J3,4,Pin_4*%
%TO.N,Board_1-Net-(J3-Pin_4)*%
X127990000Y-39450500D03*
%TD*%
D12*
%TO.P,U1,1,R*%
%TO.N,Board_21-Net-(J3-Pin_1)*%
X111122500Y-80064000D03*
%TO.P,U1,2,MODE*%
%TO.N,Board_21-Net-(J3-Pin_2)*%
X111772500Y-80064000D03*
%TO.P,U1,3,F_SET*%
%TO.N,Board_21-Net-(J3-Pin_3)*%
X112422500Y-80064000D03*
%TO.P,U1,4,D*%
%TO.N,Board_21-Net-(J3-Pin_4)*%
X113072500Y-80064000D03*
%TO.P,U1,5,GND*%
%TO.N,Board_21-Net-(J4-Pin_4)*%
X113072500Y-77789000D03*
%TO.P,U1,6,A*%
%TO.N,Board_21-Net-(J4-Pin_3)*%
X112422500Y-77789000D03*
%TO.P,U1,7,B*%
%TO.N,Board_21-Net-(J4-Pin_2)*%
X111772500Y-77789000D03*
%TO.P,U1,8,VCC*%
%TO.N,Board_21-Net-(J4-Pin_1)*%
X111122500Y-77789000D03*
%TD*%
D10*
%TO.P,J4,1,Pin_1*%
%TO.N,Board_7-Net-(J4-Pin_1)*%
X108210000Y-44142500D03*
D11*
%TO.P,J4,2,Pin_2*%
%TO.N,Board_7-Net-(J4-Pin_2)*%
X110750000Y-44142500D03*
%TO.P,J4,3,Pin_3*%
%TO.N,Board_7-Net-(J4-Pin_3)*%
X113290000Y-44142500D03*
%TO.P,J4,4,Pin_4*%
%TO.N,Board_7-Net-(J4-Pin_4)*%
X115830000Y-44142500D03*
%TD*%
D10*
%TO.P,J3,1,Pin_1*%
%TO.N,Board_27-Net-(J3-Pin_1)*%
X181170000Y-84006500D03*
D11*
%TO.P,J3,2,Pin_2*%
%TO.N,Board_27-Net-(J3-Pin_2)*%
X183710000Y-84006500D03*
%TO.P,J3,3,Pin_3*%
%TO.N,Board_27-Net-(J3-Pin_3)*%
X186250000Y-84006500D03*
%TO.P,J3,4,Pin_4*%
%TO.N,Board_27-Net-(J3-Pin_4)*%
X188790000Y-84006500D03*
%TD*%
D10*
%TO.P,J3,1,Pin_1*%
%TO.N,Board_33-Net-(J3-Pin_1)*%
X169010000Y-98858500D03*
D11*
%TO.P,J3,2,Pin_2*%
%TO.N,Board_33-Net-(J3-Pin_2)*%
X171550000Y-98858500D03*
%TO.P,J3,3,Pin_3*%
%TO.N,Board_33-Net-(J3-Pin_3)*%
X174090000Y-98858500D03*
%TO.P,J3,4,Pin_4*%
%TO.N,Board_33-Net-(J3-Pin_4)*%
X176630000Y-98858500D03*
%TD*%
D10*
%TO.P,J4,1,Pin_1*%
%TO.N,Board_21-Net-(J4-Pin_1)*%
X108210000Y-73846500D03*
D11*
%TO.P,J4,2,Pin_2*%
%TO.N,Board_21-Net-(J4-Pin_2)*%
X110750000Y-73846500D03*
%TO.P,J4,3,Pin_3*%
%TO.N,Board_21-Net-(J4-Pin_3)*%
X113290000Y-73846500D03*
%TO.P,J4,4,Pin_4*%
%TO.N,Board_21-Net-(J4-Pin_4)*%
X115830000Y-73846500D03*
%TD*%
D10*
%TO.P,J3,1,Pin_1*%
%TO.N,Board_16-Net-(J3-Pin_1)*%
X132530000Y-69154500D03*
D11*
%TO.P,J3,2,Pin_2*%
%TO.N,Board_16-Net-(J3-Pin_2)*%
X135070000Y-69154500D03*
%TO.P,J3,3,Pin_3*%
%TO.N,Board_16-Net-(J3-Pin_3)*%
X137610000Y-69154500D03*
%TO.P,J3,4,Pin_4*%
%TO.N,Board_16-Net-(J3-Pin_4)*%
X140150000Y-69154500D03*
%TD*%
D12*
%TO.P,U1,1,R*%
%TO.N,Board_28-Net-(J3-Pin_1)*%
X111122500Y-94916000D03*
%TO.P,U1,2,MODE*%
%TO.N,Board_28-Net-(J3-Pin_2)*%
X111772500Y-94916000D03*
%TO.P,U1,3,F_SET*%
%TO.N,Board_28-Net-(J3-Pin_3)*%
X112422500Y-94916000D03*
%TO.P,U1,4,D*%
%TO.N,Board_28-Net-(J3-Pin_4)*%
X113072500Y-94916000D03*
%TO.P,U1,5,GND*%
%TO.N,Board_28-Net-(J4-Pin_4)*%
X113072500Y-92641000D03*
%TO.P,U1,6,A*%
%TO.N,Board_28-Net-(J4-Pin_3)*%
X112422500Y-92641000D03*
%TO.P,U1,7,B*%
%TO.N,Board_28-Net-(J4-Pin_2)*%
X111772500Y-92641000D03*
%TO.P,U1,8,VCC*%
%TO.N,Board_28-Net-(J4-Pin_1)*%
X111122500Y-92641000D03*
%TD*%
D10*
%TO.P,J4,1,Pin_1*%
%TO.N,Board_0-Net-(J4-Pin_1)*%
X108210000Y-29290500D03*
D11*
%TO.P,J4,2,Pin_2*%
%TO.N,Board_0-Net-(J4-Pin_2)*%
X110750000Y-29290500D03*
%TO.P,J4,3,Pin_3*%
%TO.N,Board_0-Net-(J4-Pin_3)*%
X113290000Y-29290500D03*
%TO.P,J4,4,Pin_4*%
%TO.N,Board_0-Net-(J4-Pin_4)*%
X115830000Y-29290500D03*
%TD*%
D12*
%TO.P,U1,1,R*%
%TO.N,Board_1-Net-(J3-Pin_1)*%
X123282500Y-35508000D03*
%TO.P,U1,2,MODE*%
%TO.N,Board_1-Net-(J3-Pin_2)*%
X123932500Y-35508000D03*
%TO.P,U1,3,F_SET*%
%TO.N,Board_1-Net-(J3-Pin_3)*%
X124582500Y-35508000D03*
%TO.P,U1,4,D*%
%TO.N,Board_1-Net-(J3-Pin_4)*%
X125232500Y-35508000D03*
%TO.P,U1,5,GND*%
%TO.N,Board_1-Net-(J4-Pin_4)*%
X125232500Y-33233000D03*
%TO.P,U1,6,A*%
%TO.N,Board_1-Net-(J4-Pin_3)*%
X124582500Y-33233000D03*
%TO.P,U1,7,B*%
%TO.N,Board_1-Net-(J4-Pin_2)*%
X123932500Y-33233000D03*
%TO.P,U1,8,VCC*%
%TO.N,Board_1-Net-(J4-Pin_1)*%
X123282500Y-33233000D03*
%TD*%
%TO.P,U1,1,R*%
%TO.N,Board_9-Net-(J3-Pin_1)*%
X135442500Y-50360000D03*
%TO.P,U1,2,MODE*%
%TO.N,Board_9-Net-(J3-Pin_2)*%
X136092500Y-50360000D03*
%TO.P,U1,3,F_SET*%
%TO.N,Board_9-Net-(J3-Pin_3)*%
X136742500Y-50360000D03*
%TO.P,U1,4,D*%
%TO.N,Board_9-Net-(J3-Pin_4)*%
X137392500Y-50360000D03*
%TO.P,U1,5,GND*%
%TO.N,Board_9-Net-(J4-Pin_4)*%
X137392500Y-48085000D03*
%TO.P,U1,6,A*%
%TO.N,Board_9-Net-(J4-Pin_3)*%
X136742500Y-48085000D03*
%TO.P,U1,7,B*%
%TO.N,Board_9-Net-(J4-Pin_2)*%
X136092500Y-48085000D03*
%TO.P,U1,8,VCC*%
%TO.N,Board_9-Net-(J4-Pin_1)*%
X135442500Y-48085000D03*
%TD*%
D10*
%TO.P,J4,1,Pin_1*%
%TO.N,Board_18-Net-(J4-Pin_1)*%
X156850000Y-58994500D03*
D11*
%TO.P,J4,2,Pin_2*%
%TO.N,Board_18-Net-(J4-Pin_2)*%
X159390000Y-58994500D03*
%TO.P,J4,3,Pin_3*%
%TO.N,Board_18-Net-(J4-Pin_3)*%
X161930000Y-58994500D03*
%TO.P,J4,4,Pin_4*%
%TO.N,Board_18-Net-(J4-Pin_4)*%
X164470000Y-58994500D03*
%TD*%
D10*
%TO.P,J4,1,Pin_1*%
%TO.N,Board_23-Net-(J4-Pin_1)*%
X132530000Y-73846500D03*
D11*
%TO.P,J4,2,Pin_2*%
%TO.N,Board_23-Net-(J4-Pin_2)*%
X135070000Y-73846500D03*
%TO.P,J4,3,Pin_3*%
%TO.N,Board_23-Net-(J4-Pin_3)*%
X137610000Y-73846500D03*
%TO.P,J4,4,Pin_4*%
%TO.N,Board_23-Net-(J4-Pin_4)*%
X140150000Y-73846500D03*
%TD*%
D12*
%TO.P,U1,1,R*%
%TO.N,Board_31-Net-(J3-Pin_1)*%
X147602500Y-94916000D03*
%TO.P,U1,2,MODE*%
%TO.N,Board_31-Net-(J3-Pin_2)*%
X148252500Y-94916000D03*
%TO.P,U1,3,F_SET*%
%TO.N,Board_31-Net-(J3-Pin_3)*%
X148902500Y-94916000D03*
%TO.P,U1,4,D*%
%TO.N,Board_31-Net-(J3-Pin_4)*%
X149552500Y-94916000D03*
%TO.P,U1,5,GND*%
%TO.N,Board_31-Net-(J4-Pin_4)*%
X149552500Y-92641000D03*
%TO.P,U1,6,A*%
%TO.N,Board_31-Net-(J4-Pin_3)*%
X148902500Y-92641000D03*
%TO.P,U1,7,B*%
%TO.N,Board_31-Net-(J4-Pin_2)*%
X148252500Y-92641000D03*
%TO.P,U1,8,VCC*%
%TO.N,Board_31-Net-(J4-Pin_1)*%
X147602500Y-92641000D03*
%TD*%
D10*
%TO.P,J3,1,Pin_1*%
%TO.N,Board_19-Net-(J3-Pin_1)*%
X169010000Y-69154500D03*
D11*
%TO.P,J3,2,Pin_2*%
%TO.N,Board_19-Net-(J3-Pin_2)*%
X171550000Y-69154500D03*
%TO.P,J3,3,Pin_3*%
%TO.N,Board_19-Net-(J3-Pin_3)*%
X174090000Y-69154500D03*
%TO.P,J3,4,Pin_4*%
%TO.N,Board_19-Net-(J3-Pin_4)*%
X176630000Y-69154500D03*
%TD*%
D10*
%TO.P,J3,1,Pin_1*%
%TO.N,Board_4-Net-(J3-Pin_1)*%
X156850000Y-39450500D03*
D11*
%TO.P,J3,2,Pin_2*%
%TO.N,Board_4-Net-(J3-Pin_2)*%
X159390000Y-39450500D03*
%TO.P,J3,3,Pin_3*%
%TO.N,Board_4-Net-(J3-Pin_3)*%
X161930000Y-39450500D03*
%TO.P,J3,4,Pin_4*%
%TO.N,Board_4-Net-(J3-Pin_4)*%
X164470000Y-39450500D03*
%TD*%
D10*
%TO.P,J3,1,Pin_1*%
%TO.N,Board_2-Net-(J3-Pin_1)*%
X132530000Y-39450500D03*
D11*
%TO.P,J3,2,Pin_2*%
%TO.N,Board_2-Net-(J3-Pin_2)*%
X135070000Y-39450500D03*
%TO.P,J3,3,Pin_3*%
%TO.N,Board_2-Net-(J3-Pin_3)*%
X137610000Y-39450500D03*
%TO.P,J3,4,Pin_4*%
%TO.N,Board_2-Net-(J3-Pin_4)*%
X140150000Y-39450500D03*
%TD*%
D10*
%TO.P,J4,1,Pin_1*%
%TO.N,Board_12-Net-(J4-Pin_1)*%
X169010000Y-44142500D03*
D11*
%TO.P,J4,2,Pin_2*%
%TO.N,Board_12-Net-(J4-Pin_2)*%
X171550000Y-44142500D03*
%TO.P,J4,3,Pin_3*%
%TO.N,Board_12-Net-(J4-Pin_3)*%
X174090000Y-44142500D03*
%TO.P,J4,4,Pin_4*%
%TO.N,Board_12-Net-(J4-Pin_4)*%
X176630000Y-44142500D03*
%TD*%
D10*
%TO.P,J4,1,Pin_1*%
%TO.N,Board_32-Net-(J4-Pin_1)*%
X156850000Y-88698500D03*
D11*
%TO.P,J4,2,Pin_2*%
%TO.N,Board_32-Net-(J4-Pin_2)*%
X159390000Y-88698500D03*
%TO.P,J4,3,Pin_3*%
%TO.N,Board_32-Net-(J4-Pin_3)*%
X161930000Y-88698500D03*
%TO.P,J4,4,Pin_4*%
%TO.N,Board_32-Net-(J4-Pin_4)*%
X164470000Y-88698500D03*
%TD*%
D10*
%TO.P,J4,1,Pin_1*%
%TO.N,Board_17-Net-(J4-Pin_1)*%
X144690000Y-58994500D03*
D11*
%TO.P,J4,2,Pin_2*%
%TO.N,Board_17-Net-(J4-Pin_2)*%
X147230000Y-58994500D03*
%TO.P,J4,3,Pin_3*%
%TO.N,Board_17-Net-(J4-Pin_3)*%
X149770000Y-58994500D03*
%TO.P,J4,4,Pin_4*%
%TO.N,Board_17-Net-(J4-Pin_4)*%
X152310000Y-58994500D03*
%TD*%
D10*
%TO.P,J4,1,Pin_1*%
%TO.N,Board_10-Net-(J4-Pin_1)*%
X144690000Y-44142500D03*
D11*
%TO.P,J4,2,Pin_2*%
%TO.N,Board_10-Net-(J4-Pin_2)*%
X147230000Y-44142500D03*
%TO.P,J4,3,Pin_3*%
%TO.N,Board_10-Net-(J4-Pin_3)*%
X149770000Y-44142500D03*
%TO.P,J4,4,Pin_4*%
%TO.N,Board_10-Net-(J4-Pin_4)*%
X152310000Y-44142500D03*
%TD*%
D10*
%TO.P,J4,1,Pin_1*%
%TO.N,Board_13-Net-(J4-Pin_1)*%
X181170000Y-44142500D03*
D11*
%TO.P,J4,2,Pin_2*%
%TO.N,Board_13-Net-(J4-Pin_2)*%
X183710000Y-44142500D03*
%TO.P,J4,3,Pin_3*%
%TO.N,Board_13-Net-(J4-Pin_3)*%
X186250000Y-44142500D03*
%TO.P,J4,4,Pin_4*%
%TO.N,Board_13-Net-(J4-Pin_4)*%
X188790000Y-44142500D03*
%TD*%
D12*
%TO.P,U1,1,R*%
%TO.N,Board_7-Net-(J3-Pin_1)*%
X111122500Y-50360000D03*
%TO.P,U1,2,MODE*%
%TO.N,Board_7-Net-(J3-Pin_2)*%
X111772500Y-50360000D03*
%TO.P,U1,3,F_SET*%
%TO.N,Board_7-Net-(J3-Pin_3)*%
X112422500Y-50360000D03*
%TO.P,U1,4,D*%
%TO.N,Board_7-Net-(J3-Pin_4)*%
X113072500Y-50360000D03*
%TO.P,U1,5,GND*%
%TO.N,Board_7-Net-(J4-Pin_4)*%
X113072500Y-48085000D03*
%TO.P,U1,6,A*%
%TO.N,Board_7-Net-(J4-Pin_3)*%
X112422500Y-48085000D03*
%TO.P,U1,7,B*%
%TO.N,Board_7-Net-(J4-Pin_2)*%
X111772500Y-48085000D03*
%TO.P,U1,8,VCC*%
%TO.N,Board_7-Net-(J4-Pin_1)*%
X111122500Y-48085000D03*
%TD*%
%TO.P,U1,1,R*%
%TO.N,Board_25-Net-(J3-Pin_1)*%
X159762500Y-80064000D03*
%TO.P,U1,2,MODE*%
%TO.N,Board_25-Net-(J3-Pin_2)*%
X160412500Y-80064000D03*
%TO.P,U1,3,F_SET*%
%TO.N,Board_25-Net-(J3-Pin_3)*%
X161062500Y-80064000D03*
%TO.P,U1,4,D*%
%TO.N,Board_25-Net-(J3-Pin_4)*%
X161712500Y-80064000D03*
%TO.P,U1,5,GND*%
%TO.N,Board_25-Net-(J4-Pin_4)*%
X161712500Y-77789000D03*
%TO.P,U1,6,A*%
%TO.N,Board_25-Net-(J4-Pin_3)*%
X161062500Y-77789000D03*
%TO.P,U1,7,B*%
%TO.N,Board_25-Net-(J4-Pin_2)*%
X160412500Y-77789000D03*
%TO.P,U1,8,VCC*%
%TO.N,Board_25-Net-(J4-Pin_1)*%
X159762500Y-77789000D03*
%TD*%
%TO.P,U1,1,R*%
%TO.N,Board_19-Net-(J3-Pin_1)*%
X171922500Y-65212000D03*
%TO.P,U1,2,MODE*%
%TO.N,Board_19-Net-(J3-Pin_2)*%
X172572500Y-65212000D03*
%TO.P,U1,3,F_SET*%
%TO.N,Board_19-Net-(J3-Pin_3)*%
X173222500Y-65212000D03*
%TO.P,U1,4,D*%
%TO.N,Board_19-Net-(J3-Pin_4)*%
X173872500Y-65212000D03*
%TO.P,U1,5,GND*%
%TO.N,Board_19-Net-(J4-Pin_4)*%
X173872500Y-62937000D03*
%TO.P,U1,6,A*%
%TO.N,Board_19-Net-(J4-Pin_3)*%
X173222500Y-62937000D03*
%TO.P,U1,7,B*%
%TO.N,Board_19-Net-(J4-Pin_2)*%
X172572500Y-62937000D03*
%TO.P,U1,8,VCC*%
%TO.N,Board_19-Net-(J4-Pin_1)*%
X171922500Y-62937000D03*
%TD*%
D10*
%TO.P,J4,1,Pin_1*%
%TO.N,Board_19-Net-(J4-Pin_1)*%
X169010000Y-58994500D03*
D11*
%TO.P,J4,2,Pin_2*%
%TO.N,Board_19-Net-(J4-Pin_2)*%
X171550000Y-58994500D03*
%TO.P,J4,3,Pin_3*%
%TO.N,Board_19-Net-(J4-Pin_3)*%
X174090000Y-58994500D03*
%TO.P,J4,4,Pin_4*%
%TO.N,Board_19-Net-(J4-Pin_4)*%
X176630000Y-58994500D03*
%TD*%
D10*
%TO.P,J3,1,Pin_1*%
%TO.N,Board_10-Net-(J3-Pin_1)*%
X144690000Y-54302500D03*
D11*
%TO.P,J3,2,Pin_2*%
%TO.N,Board_10-Net-(J3-Pin_2)*%
X147230000Y-54302500D03*
%TO.P,J3,3,Pin_3*%
%TO.N,Board_10-Net-(J3-Pin_3)*%
X149770000Y-54302500D03*
%TO.P,J3,4,Pin_4*%
%TO.N,Board_10-Net-(J3-Pin_4)*%
X152310000Y-54302500D03*
%TD*%
D10*
%TO.P,J4,1,Pin_1*%
%TO.N,Board_22-Net-(J4-Pin_1)*%
X120370000Y-73846500D03*
D11*
%TO.P,J4,2,Pin_2*%
%TO.N,Board_22-Net-(J4-Pin_2)*%
X122910000Y-73846500D03*
%TO.P,J4,3,Pin_3*%
%TO.N,Board_22-Net-(J4-Pin_3)*%
X125450000Y-73846500D03*
%TO.P,J4,4,Pin_4*%
%TO.N,Board_22-Net-(J4-Pin_4)*%
X127990000Y-73846500D03*
%TD*%
D12*
%TO.P,U1,1,R*%
%TO.N,Board_2-Net-(J3-Pin_1)*%
X135442500Y-35508000D03*
%TO.P,U1,2,MODE*%
%TO.N,Board_2-Net-(J3-Pin_2)*%
X136092500Y-35508000D03*
%TO.P,U1,3,F_SET*%
%TO.N,Board_2-Net-(J3-Pin_3)*%
X136742500Y-35508000D03*
%TO.P,U1,4,D*%
%TO.N,Board_2-Net-(J3-Pin_4)*%
X137392500Y-35508000D03*
%TO.P,U1,5,GND*%
%TO.N,Board_2-Net-(J4-Pin_4)*%
X137392500Y-33233000D03*
%TO.P,U1,6,A*%
%TO.N,Board_2-Net-(J4-Pin_3)*%
X136742500Y-33233000D03*
%TO.P,U1,7,B*%
%TO.N,Board_2-Net-(J4-Pin_2)*%
X136092500Y-33233000D03*
%TO.P,U1,8,VCC*%
%TO.N,Board_2-Net-(J4-Pin_1)*%
X135442500Y-33233000D03*
%TD*%
D10*
%TO.P,J3,1,Pin_1*%
%TO.N,Board_3-Net-(J3-Pin_1)*%
X144690000Y-39450500D03*
D11*
%TO.P,J3,2,Pin_2*%
%TO.N,Board_3-Net-(J3-Pin_2)*%
X147230000Y-39450500D03*
%TO.P,J3,3,Pin_3*%
%TO.N,Board_3-Net-(J3-Pin_3)*%
X149770000Y-39450500D03*
%TO.P,J3,4,Pin_4*%
%TO.N,Board_3-Net-(J3-Pin_4)*%
X152310000Y-39450500D03*
%TD*%
D12*
%TO.P,U1,1,R*%
%TO.N,Board_24-Net-(J3-Pin_1)*%
X147602500Y-80064000D03*
%TO.P,U1,2,MODE*%
%TO.N,Board_24-Net-(J3-Pin_2)*%
X148252500Y-80064000D03*
%TO.P,U1,3,F_SET*%
%TO.N,Board_24-Net-(J3-Pin_3)*%
X148902500Y-80064000D03*
%TO.P,U1,4,D*%
%TO.N,Board_24-Net-(J3-Pin_4)*%
X149552500Y-80064000D03*
%TO.P,U1,5,GND*%
%TO.N,Board_24-Net-(J4-Pin_4)*%
X149552500Y-77789000D03*
%TO.P,U1,6,A*%
%TO.N,Board_24-Net-(J4-Pin_3)*%
X148902500Y-77789000D03*
%TO.P,U1,7,B*%
%TO.N,Board_24-Net-(J4-Pin_2)*%
X148252500Y-77789000D03*
%TO.P,U1,8,VCC*%
%TO.N,Board_24-Net-(J4-Pin_1)*%
X147602500Y-77789000D03*
%TD*%
D10*
%TO.P,J4,1,Pin_1*%
%TO.N,Board_5-Net-(J4-Pin_1)*%
X169010000Y-29290500D03*
D11*
%TO.P,J4,2,Pin_2*%
%TO.N,Board_5-Net-(J4-Pin_2)*%
X171550000Y-29290500D03*
%TO.P,J4,3,Pin_3*%
%TO.N,Board_5-Net-(J4-Pin_3)*%
X174090000Y-29290500D03*
%TO.P,J4,4,Pin_4*%
%TO.N,Board_5-Net-(J4-Pin_4)*%
X176630000Y-29290500D03*
%TD*%
D12*
%TO.P,U1,1,R*%
%TO.N,Board_14-Net-(J3-Pin_1)*%
X111122500Y-65212000D03*
%TO.P,U1,2,MODE*%
%TO.N,Board_14-Net-(J3-Pin_2)*%
X111772500Y-65212000D03*
%TO.P,U1,3,F_SET*%
%TO.N,Board_14-Net-(J3-Pin_3)*%
X112422500Y-65212000D03*
%TO.P,U1,4,D*%
%TO.N,Board_14-Net-(J3-Pin_4)*%
X113072500Y-65212000D03*
%TO.P,U1,5,GND*%
%TO.N,Board_14-Net-(J4-Pin_4)*%
X113072500Y-62937000D03*
%TO.P,U1,6,A*%
%TO.N,Board_14-Net-(J4-Pin_3)*%
X112422500Y-62937000D03*
%TO.P,U1,7,B*%
%TO.N,Board_14-Net-(J4-Pin_2)*%
X111772500Y-62937000D03*
%TO.P,U1,8,VCC*%
%TO.N,Board_14-Net-(J4-Pin_1)*%
X111122500Y-62937000D03*
%TD*%
%TO.P,U1,1,R*%
%TO.N,Board_17-Net-(J3-Pin_1)*%
X147602500Y-65212000D03*
%TO.P,U1,2,MODE*%
%TO.N,Board_17-Net-(J3-Pin_2)*%
X148252500Y-65212000D03*
%TO.P,U1,3,F_SET*%
%TO.N,Board_17-Net-(J3-Pin_3)*%
X148902500Y-65212000D03*
%TO.P,U1,4,D*%
%TO.N,Board_17-Net-(J3-Pin_4)*%
X149552500Y-65212000D03*
%TO.P,U1,5,GND*%
%TO.N,Board_17-Net-(J4-Pin_4)*%
X149552500Y-62937000D03*
%TO.P,U1,6,A*%
%TO.N,Board_17-Net-(J4-Pin_3)*%
X148902500Y-62937000D03*
%TO.P,U1,7,B*%
%TO.N,Board_17-Net-(J4-Pin_2)*%
X148252500Y-62937000D03*
%TO.P,U1,8,VCC*%
%TO.N,Board_17-Net-(J4-Pin_1)*%
X147602500Y-62937000D03*
%TD*%
D10*
%TO.P,J3,1,Pin_1*%
%TO.N,Board_12-Net-(J3-Pin_1)*%
X169010000Y-54302500D03*
D11*
%TO.P,J3,2,Pin_2*%
%TO.N,Board_12-Net-(J3-Pin_2)*%
X171550000Y-54302500D03*
%TO.P,J3,3,Pin_3*%
%TO.N,Board_12-Net-(J3-Pin_3)*%
X174090000Y-54302500D03*
%TO.P,J3,4,Pin_4*%
%TO.N,Board_12-Net-(J3-Pin_4)*%
X176630000Y-54302500D03*
%TD*%
D10*
%TO.P,J3,1,Pin_1*%
%TO.N,Board_26-Net-(J3-Pin_1)*%
X169010000Y-84006500D03*
D11*
%TO.P,J3,2,Pin_2*%
%TO.N,Board_26-Net-(J3-Pin_2)*%
X171550000Y-84006500D03*
%TO.P,J3,3,Pin_3*%
%TO.N,Board_26-Net-(J3-Pin_3)*%
X174090000Y-84006500D03*
%TO.P,J3,4,Pin_4*%
%TO.N,Board_26-Net-(J3-Pin_4)*%
X176630000Y-84006500D03*
%TD*%
D10*
%TO.P,J4,1,Pin_1*%
%TO.N,Board_31-Net-(J4-Pin_1)*%
X144690000Y-88698500D03*
D11*
%TO.P,J4,2,Pin_2*%
%TO.N,Board_31-Net-(J4-Pin_2)*%
X147230000Y-88698500D03*
%TO.P,J4,3,Pin_3*%
%TO.N,Board_31-Net-(J4-Pin_3)*%
X149770000Y-88698500D03*
%TO.P,J4,4,Pin_4*%
%TO.N,Board_31-Net-(J4-Pin_4)*%
X152310000Y-88698500D03*
%TD*%
D10*
%TO.P,J4,1,Pin_1*%
%TO.N,Board_26-Net-(J4-Pin_1)*%
X169010000Y-73846500D03*
D11*
%TO.P,J4,2,Pin_2*%
%TO.N,Board_26-Net-(J4-Pin_2)*%
X171550000Y-73846500D03*
%TO.P,J4,3,Pin_3*%
%TO.N,Board_26-Net-(J4-Pin_3)*%
X174090000Y-73846500D03*
%TO.P,J4,4,Pin_4*%
%TO.N,Board_26-Net-(J4-Pin_4)*%
X176630000Y-73846500D03*
%TD*%
D10*
%TO.P,J3,1,Pin_1*%
%TO.N,Board_28-Net-(J3-Pin_1)*%
X108210000Y-98858500D03*
D11*
%TO.P,J3,2,Pin_2*%
%TO.N,Board_28-Net-(J3-Pin_2)*%
X110750000Y-98858500D03*
%TO.P,J3,3,Pin_3*%
%TO.N,Board_28-Net-(J3-Pin_3)*%
X113290000Y-98858500D03*
%TO.P,J3,4,Pin_4*%
%TO.N,Board_28-Net-(J3-Pin_4)*%
X115830000Y-98858500D03*
%TD*%
D10*
%TO.P,J4,1,Pin_1*%
%TO.N,Board_2-Net-(J4-Pin_1)*%
X132530000Y-29290500D03*
D11*
%TO.P,J4,2,Pin_2*%
%TO.N,Board_2-Net-(J4-Pin_2)*%
X135070000Y-29290500D03*
%TO.P,J4,3,Pin_3*%
%TO.N,Board_2-Net-(J4-Pin_3)*%
X137610000Y-29290500D03*
%TO.P,J4,4,Pin_4*%
%TO.N,Board_2-Net-(J4-Pin_4)*%
X140150000Y-29290500D03*
%TD*%
D10*
%TO.P,J4,1,Pin_1*%
%TO.N,Board_4-Net-(J4-Pin_1)*%
X156850000Y-29290500D03*
D11*
%TO.P,J4,2,Pin_2*%
%TO.N,Board_4-Net-(J4-Pin_2)*%
X159390000Y-29290500D03*
%TO.P,J4,3,Pin_3*%
%TO.N,Board_4-Net-(J4-Pin_3)*%
X161930000Y-29290500D03*
%TO.P,J4,4,Pin_4*%
%TO.N,Board_4-Net-(J4-Pin_4)*%
X164470000Y-29290500D03*
%TD*%
D10*
%TO.P,J3,1,Pin_1*%
%TO.N,Board_25-Net-(J3-Pin_1)*%
X156850000Y-84006500D03*
D11*
%TO.P,J3,2,Pin_2*%
%TO.N,Board_25-Net-(J3-Pin_2)*%
X159390000Y-84006500D03*
%TO.P,J3,3,Pin_3*%
%TO.N,Board_25-Net-(J3-Pin_3)*%
X161930000Y-84006500D03*
%TO.P,J3,4,Pin_4*%
%TO.N,Board_25-Net-(J3-Pin_4)*%
X164470000Y-84006500D03*
%TD*%
D12*
%TO.P,U1,1,R*%
%TO.N,Board_26-Net-(J3-Pin_1)*%
X171922500Y-80064000D03*
%TO.P,U1,2,MODE*%
%TO.N,Board_26-Net-(J3-Pin_2)*%
X172572500Y-80064000D03*
%TO.P,U1,3,F_SET*%
%TO.N,Board_26-Net-(J3-Pin_3)*%
X173222500Y-80064000D03*
%TO.P,U1,4,D*%
%TO.N,Board_26-Net-(J3-Pin_4)*%
X173872500Y-80064000D03*
%TO.P,U1,5,GND*%
%TO.N,Board_26-Net-(J4-Pin_4)*%
X173872500Y-77789000D03*
%TO.P,U1,6,A*%
%TO.N,Board_26-Net-(J4-Pin_3)*%
X173222500Y-77789000D03*
%TO.P,U1,7,B*%
%TO.N,Board_26-Net-(J4-Pin_2)*%
X172572500Y-77789000D03*
%TO.P,U1,8,VCC*%
%TO.N,Board_26-Net-(J4-Pin_1)*%
X171922500Y-77789000D03*
%TD*%
D10*
%TO.P,J3,1,Pin_1*%
%TO.N,Board_24-Net-(J3-Pin_1)*%
X144690000Y-84006500D03*
D11*
%TO.P,J3,2,Pin_2*%
%TO.N,Board_24-Net-(J3-Pin_2)*%
X147230000Y-84006500D03*
%TO.P,J3,3,Pin_3*%
%TO.N,Board_24-Net-(J3-Pin_3)*%
X149770000Y-84006500D03*
%TO.P,J3,4,Pin_4*%
%TO.N,Board_24-Net-(J3-Pin_4)*%
X152310000Y-84006500D03*
%TD*%
D10*
%TO.P,J3,1,Pin_1*%
%TO.N,Board_9-Net-(J3-Pin_1)*%
X132530000Y-54302500D03*
D11*
%TO.P,J3,2,Pin_2*%
%TO.N,Board_9-Net-(J3-Pin_2)*%
X135070000Y-54302500D03*
%TO.P,J3,3,Pin_3*%
%TO.N,Board_9-Net-(J3-Pin_3)*%
X137610000Y-54302500D03*
%TO.P,J3,4,Pin_4*%
%TO.N,Board_9-Net-(J3-Pin_4)*%
X140150000Y-54302500D03*
%TD*%
D10*
%TO.P,J4,1,Pin_1*%
%TO.N,Board_20-Net-(J4-Pin_1)*%
X181170000Y-58994500D03*
D11*
%TO.P,J4,2,Pin_2*%
%TO.N,Board_20-Net-(J4-Pin_2)*%
X183710000Y-58994500D03*
%TO.P,J4,3,Pin_3*%
%TO.N,Board_20-Net-(J4-Pin_3)*%
X186250000Y-58994500D03*
%TO.P,J4,4,Pin_4*%
%TO.N,Board_20-Net-(J4-Pin_4)*%
X188790000Y-58994500D03*
%TD*%
D10*
%TO.P,J3,1,Pin_1*%
%TO.N,Board_18-Net-(J3-Pin_1)*%
X156850000Y-69154500D03*
D11*
%TO.P,J3,2,Pin_2*%
%TO.N,Board_18-Net-(J3-Pin_2)*%
X159390000Y-69154500D03*
%TO.P,J3,3,Pin_3*%
%TO.N,Board_18-Net-(J3-Pin_3)*%
X161930000Y-69154500D03*
%TO.P,J3,4,Pin_4*%
%TO.N,Board_18-Net-(J3-Pin_4)*%
X164470000Y-69154500D03*
%TD*%
D10*
%TO.P,J4,1,Pin_1*%
%TO.N,Board_11-Net-(J4-Pin_1)*%
X156850000Y-44142500D03*
D11*
%TO.P,J4,2,Pin_2*%
%TO.N,Board_11-Net-(J4-Pin_2)*%
X159390000Y-44142500D03*
%TO.P,J4,3,Pin_3*%
%TO.N,Board_11-Net-(J4-Pin_3)*%
X161930000Y-44142500D03*
%TO.P,J4,4,Pin_4*%
%TO.N,Board_11-Net-(J4-Pin_4)*%
X164470000Y-44142500D03*
%TD*%
D12*
%TO.P,U1,1,R*%
%TO.N,Board_33-Net-(J3-Pin_1)*%
X171922500Y-94916000D03*
%TO.P,U1,2,MODE*%
%TO.N,Board_33-Net-(J3-Pin_2)*%
X172572500Y-94916000D03*
%TO.P,U1,3,F_SET*%
%TO.N,Board_33-Net-(J3-Pin_3)*%
X173222500Y-94916000D03*
%TO.P,U1,4,D*%
%TO.N,Board_33-Net-(J3-Pin_4)*%
X173872500Y-94916000D03*
%TO.P,U1,5,GND*%
%TO.N,Board_33-Net-(J4-Pin_4)*%
X173872500Y-92641000D03*
%TO.P,U1,6,A*%
%TO.N,Board_33-Net-(J4-Pin_3)*%
X173222500Y-92641000D03*
%TO.P,U1,7,B*%
%TO.N,Board_33-Net-(J4-Pin_2)*%
X172572500Y-92641000D03*
%TO.P,U1,8,VCC*%
%TO.N,Board_33-Net-(J4-Pin_1)*%
X171922500Y-92641000D03*
%TD*%
%TO.P,U1,1,R*%
%TO.N,Board_0-Net-(J3-Pin_1)*%
X111122500Y-35508000D03*
%TO.P,U1,2,MODE*%
%TO.N,Board_0-Net-(J3-Pin_2)*%
X111772500Y-35508000D03*
%TO.P,U1,3,F_SET*%
%TO.N,Board_0-Net-(J3-Pin_3)*%
X112422500Y-35508000D03*
%TO.P,U1,4,D*%
%TO.N,Board_0-Net-(J3-Pin_4)*%
X113072500Y-35508000D03*
%TO.P,U1,5,GND*%
%TO.N,Board_0-Net-(J4-Pin_4)*%
X113072500Y-33233000D03*
%TO.P,U1,6,A*%
%TO.N,Board_0-Net-(J4-Pin_3)*%
X112422500Y-33233000D03*
%TO.P,U1,7,B*%
%TO.N,Board_0-Net-(J4-Pin_2)*%
X111772500Y-33233000D03*
%TO.P,U1,8,VCC*%
%TO.N,Board_0-Net-(J4-Pin_1)*%
X111122500Y-33233000D03*
%TD*%
D13*
%TO.N,Board_0-Net-(J3-Pin_1)*%
X108210000Y-36783500D02*
X109485500Y-35508000D01*
X109485500Y-35508000D02*
X111071500Y-35508000D01*
X108210000Y-39450500D02*
X108210000Y-36783500D01*
%TO.N,Board_0-Net-(J3-Pin_2)*%
X110750000Y-39450500D02*
X110750000Y-38053500D01*
X110750000Y-38053500D02*
X110750000Y-37418500D01*
X110750000Y-37418500D02*
X111131000Y-37037500D01*
D14*
X111772500Y-36396000D02*
X111772500Y-35508000D01*
X111512000Y-36656500D02*
X111772500Y-36396000D01*
D13*
X111131000Y-37037500D02*
X111512000Y-36656500D01*
D14*
%TO.N,Board_0-Net-(J3-Pin_3)*%
X112528000Y-36656500D02*
X112422500Y-36551000D01*
D13*
X113290000Y-37418500D02*
X112718500Y-36847000D01*
D14*
X112528000Y-36656500D02*
X112718500Y-36847000D01*
D13*
X113290000Y-39450500D02*
X113290000Y-37926500D01*
X113290000Y-37926500D02*
X113290000Y-37418500D01*
D14*
X112422500Y-36551000D02*
X112422500Y-35508000D01*
D13*
%TO.N,Board_0-Net-(J3-Pin_4)*%
X115830000Y-36402500D02*
X114941000Y-35513500D01*
X113123500Y-35513500D02*
X113123500Y-35508000D01*
X115830000Y-36402500D02*
X115830000Y-39450500D01*
X114941000Y-35513500D02*
X113123500Y-35513500D01*
%TO.N,Board_0-Net-(J4-Pin_1)*%
X108210000Y-31957500D02*
X108210000Y-29290500D01*
X109485500Y-33233000D02*
X108210000Y-31957500D01*
X109485500Y-33233000D02*
X111071500Y-33233000D01*
%TO.N,Board_0-Net-(J4-Pin_2)*%
X110750000Y-31068500D02*
X111512000Y-31830500D01*
D14*
X111772500Y-32091000D02*
X111772500Y-33233000D01*
D13*
X110750000Y-30814500D02*
X110750000Y-29290500D01*
X110750000Y-30814500D02*
X110750000Y-31068500D01*
D14*
X111512000Y-31830500D02*
X111772500Y-32091000D01*
D13*
%TO.N,Board_0-Net-(J4-Pin_3)*%
X113290000Y-31068500D02*
X112655000Y-31703500D01*
D14*
X112422500Y-31936000D02*
X112422500Y-33233000D01*
D13*
X113290000Y-29290500D02*
X113290000Y-31068500D01*
D14*
X112655000Y-31703500D02*
X112422500Y-31936000D01*
D13*
%TO.N,Board_0-Net-(J4-Pin_4)*%
X114935500Y-33233000D02*
X113123500Y-33233000D01*
X114935500Y-33233000D02*
X115830000Y-32338500D01*
X115830000Y-32338500D02*
X115830000Y-29290500D01*
%TO.N,Board_1-Net-(J3-Pin_1)*%
X120370000Y-36783500D02*
X121645500Y-35508000D01*
X121645500Y-35508000D02*
X123231500Y-35508000D01*
X120370000Y-39450500D02*
X120370000Y-36783500D01*
D14*
%TO.N,Board_1-Net-(J3-Pin_2)*%
X123932500Y-36396000D02*
X123932500Y-35508000D01*
D13*
X122910000Y-38053500D02*
X122910000Y-37418500D01*
D14*
X123672000Y-36656500D02*
X123932500Y-36396000D01*
D13*
X123291000Y-37037500D02*
X123672000Y-36656500D01*
X122910000Y-37418500D02*
X123291000Y-37037500D01*
X122910000Y-39450500D02*
X122910000Y-38053500D01*
%TO.N,Board_1-Net-(J3-Pin_3)*%
X125450000Y-37926500D02*
X125450000Y-37418500D01*
D14*
X124688000Y-36656500D02*
X124878500Y-36847000D01*
X124688000Y-36656500D02*
X124582500Y-36551000D01*
D13*
X125450000Y-37418500D02*
X124878500Y-36847000D01*
D14*
X124582500Y-36551000D02*
X124582500Y-35508000D01*
D13*
X125450000Y-39450500D02*
X125450000Y-37926500D01*
%TO.N,Board_1-Net-(J3-Pin_4)*%
X125283500Y-35513500D02*
X125283500Y-35508000D01*
X127990000Y-36402500D02*
X127101000Y-35513500D01*
X127101000Y-35513500D02*
X125283500Y-35513500D01*
X127990000Y-36402500D02*
X127990000Y-39450500D01*
%TO.N,Board_1-Net-(J4-Pin_1)*%
X121645500Y-33233000D02*
X120370000Y-31957500D01*
X120370000Y-31957500D02*
X120370000Y-29290500D01*
X121645500Y-33233000D02*
X123231500Y-33233000D01*
%TO.N,Board_1-Net-(J4-Pin_2)*%
X122910000Y-30814500D02*
X122910000Y-29290500D01*
X122910000Y-31068500D02*
X123672000Y-31830500D01*
X122910000Y-30814500D02*
X122910000Y-31068500D01*
D14*
X123672000Y-31830500D02*
X123932500Y-32091000D01*
X123932500Y-32091000D02*
X123932500Y-33233000D01*
%TO.N,Board_1-Net-(J4-Pin_3)*%
X124815000Y-31703500D02*
X124582500Y-31936000D01*
D13*
X125450000Y-31068500D02*
X124815000Y-31703500D01*
D14*
X124582500Y-31936000D02*
X124582500Y-33233000D01*
D13*
X125450000Y-29290500D02*
X125450000Y-31068500D01*
%TO.N,Board_1-Net-(J4-Pin_4)*%
X127095500Y-33233000D02*
X125283500Y-33233000D01*
X127990000Y-32338500D02*
X127990000Y-29290500D01*
X127095500Y-33233000D02*
X127990000Y-32338500D01*
%TO.N,Board_2-Net-(J3-Pin_1)*%
X132530000Y-39450500D02*
X132530000Y-36783500D01*
X133805500Y-35508000D02*
X135391500Y-35508000D01*
X132530000Y-36783500D02*
X133805500Y-35508000D01*
D14*
%TO.N,Board_2-Net-(J3-Pin_2)*%
X136092500Y-36396000D02*
X136092500Y-35508000D01*
D13*
X135070000Y-37418500D02*
X135451000Y-37037500D01*
D14*
X135832000Y-36656500D02*
X136092500Y-36396000D01*
D13*
X135070000Y-38053500D02*
X135070000Y-37418500D01*
X135070000Y-39450500D02*
X135070000Y-38053500D01*
X135451000Y-37037500D02*
X135832000Y-36656500D01*
%TO.N,Board_2-Net-(J3-Pin_3)*%
X137610000Y-39450500D02*
X137610000Y-37926500D01*
D14*
X136848000Y-36656500D02*
X137038500Y-36847000D01*
D13*
X137610000Y-37418500D02*
X137038500Y-36847000D01*
X137610000Y-37926500D02*
X137610000Y-37418500D01*
D14*
X136848000Y-36656500D02*
X136742500Y-36551000D01*
X136742500Y-36551000D02*
X136742500Y-35508000D01*
D13*
%TO.N,Board_2-Net-(J3-Pin_4)*%
X140150000Y-36402500D02*
X140150000Y-39450500D01*
X137443500Y-35513500D02*
X137443500Y-35508000D01*
X140150000Y-36402500D02*
X139261000Y-35513500D01*
X139261000Y-35513500D02*
X137443500Y-35513500D01*
%TO.N,Board_2-Net-(J4-Pin_1)*%
X133805500Y-33233000D02*
X135391500Y-33233000D01*
X132530000Y-31957500D02*
X132530000Y-29290500D01*
X133805500Y-33233000D02*
X132530000Y-31957500D01*
D14*
%TO.N,Board_2-Net-(J4-Pin_2)*%
X135832000Y-31830500D02*
X136092500Y-32091000D01*
D13*
X135070000Y-30814500D02*
X135070000Y-29290500D01*
D14*
X136092500Y-32091000D02*
X136092500Y-33233000D01*
D13*
X135070000Y-30814500D02*
X135070000Y-31068500D01*
X135070000Y-31068500D02*
X135832000Y-31830500D01*
%TO.N,Board_2-Net-(J4-Pin_3)*%
X137610000Y-31068500D02*
X136975000Y-31703500D01*
X137610000Y-29290500D02*
X137610000Y-31068500D01*
D14*
X136975000Y-31703500D02*
X136742500Y-31936000D01*
X136742500Y-31936000D02*
X136742500Y-33233000D01*
D13*
%TO.N,Board_2-Net-(J4-Pin_4)*%
X139255500Y-33233000D02*
X137443500Y-33233000D01*
X140150000Y-32338500D02*
X140150000Y-29290500D01*
X139255500Y-33233000D02*
X140150000Y-32338500D01*
%TO.N,Board_3-Net-(J3-Pin_1)*%
X145965500Y-35508000D02*
X147551500Y-35508000D01*
X144690000Y-39450500D02*
X144690000Y-36783500D01*
X144690000Y-36783500D02*
X145965500Y-35508000D01*
D14*
%TO.N,Board_3-Net-(J3-Pin_2)*%
X147992000Y-36656500D02*
X148252500Y-36396000D01*
D13*
X147230000Y-38053500D02*
X147230000Y-37418500D01*
X147230000Y-37418500D02*
X147611000Y-37037500D01*
X147230000Y-39450500D02*
X147230000Y-38053500D01*
D14*
X148252500Y-36396000D02*
X148252500Y-35508000D01*
D13*
X147611000Y-37037500D02*
X147992000Y-36656500D01*
D14*
%TO.N,Board_3-Net-(J3-Pin_3)*%
X148902500Y-36551000D02*
X148902500Y-35508000D01*
X149008000Y-36656500D02*
X149198500Y-36847000D01*
D13*
X149770000Y-39450500D02*
X149770000Y-37926500D01*
D14*
X149008000Y-36656500D02*
X148902500Y-36551000D01*
D13*
X149770000Y-37418500D02*
X149198500Y-36847000D01*
X149770000Y-37926500D02*
X149770000Y-37418500D01*
%TO.N,Board_3-Net-(J3-Pin_4)*%
X151421000Y-35513500D02*
X149603500Y-35513500D01*
X149603500Y-35513500D02*
X149603500Y-35508000D01*
X152310000Y-36402500D02*
X152310000Y-39450500D01*
X152310000Y-36402500D02*
X151421000Y-35513500D01*
%TO.N,Board_3-Net-(J4-Pin_1)*%
X145965500Y-33233000D02*
X144690000Y-31957500D01*
X144690000Y-31957500D02*
X144690000Y-29290500D01*
X145965500Y-33233000D02*
X147551500Y-33233000D01*
D14*
%TO.N,Board_3-Net-(J4-Pin_2)*%
X148252500Y-32091000D02*
X148252500Y-33233000D01*
D13*
X147230000Y-31068500D02*
X147992000Y-31830500D01*
D14*
X147992000Y-31830500D02*
X148252500Y-32091000D01*
D13*
X147230000Y-30814500D02*
X147230000Y-29290500D01*
X147230000Y-30814500D02*
X147230000Y-31068500D01*
%TO.N,Board_3-Net-(J4-Pin_3)*%
X149770000Y-29290500D02*
X149770000Y-31068500D01*
D14*
X149135000Y-31703500D02*
X148902500Y-31936000D01*
D13*
X149770000Y-31068500D02*
X149135000Y-31703500D01*
D14*
X148902500Y-31936000D02*
X148902500Y-33233000D01*
D13*
%TO.N,Board_3-Net-(J4-Pin_4)*%
X151415500Y-33233000D02*
X149603500Y-33233000D01*
X152310000Y-32338500D02*
X152310000Y-29290500D01*
X151415500Y-33233000D02*
X152310000Y-32338500D01*
%TO.N,Board_4-Net-(J3-Pin_1)*%
X156850000Y-36783500D02*
X158125500Y-35508000D01*
X158125500Y-35508000D02*
X159711500Y-35508000D01*
X156850000Y-39450500D02*
X156850000Y-36783500D01*
D14*
%TO.N,Board_4-Net-(J3-Pin_2)*%
X160152000Y-36656500D02*
X160412500Y-36396000D01*
X160412500Y-36396000D02*
X160412500Y-35508000D01*
D13*
X159390000Y-38053500D02*
X159390000Y-37418500D01*
X159390000Y-37418500D02*
X159771000Y-37037500D01*
X159771000Y-37037500D02*
X160152000Y-36656500D01*
X159390000Y-39450500D02*
X159390000Y-38053500D01*
D14*
%TO.N,Board_4-Net-(J3-Pin_3)*%
X161168000Y-36656500D02*
X161358500Y-36847000D01*
D13*
X161930000Y-39450500D02*
X161930000Y-37926500D01*
D14*
X161062500Y-36551000D02*
X161062500Y-35508000D01*
D13*
X161930000Y-37926500D02*
X161930000Y-37418500D01*
D14*
X161168000Y-36656500D02*
X161062500Y-36551000D01*
D13*
X161930000Y-37418500D02*
X161358500Y-36847000D01*
%TO.N,Board_4-Net-(J3-Pin_4)*%
X164470000Y-36402500D02*
X163581000Y-35513500D01*
X161763500Y-35513500D02*
X161763500Y-35508000D01*
X164470000Y-36402500D02*
X164470000Y-39450500D01*
X163581000Y-35513500D02*
X161763500Y-35513500D01*
%TO.N,Board_4-Net-(J4-Pin_1)*%
X158125500Y-33233000D02*
X156850000Y-31957500D01*
X158125500Y-33233000D02*
X159711500Y-33233000D01*
X156850000Y-31957500D02*
X156850000Y-29290500D01*
%TO.N,Board_4-Net-(J4-Pin_2)*%
X159390000Y-31068500D02*
X160152000Y-31830500D01*
X159390000Y-30814500D02*
X159390000Y-31068500D01*
D14*
X160152000Y-31830500D02*
X160412500Y-32091000D01*
D13*
X159390000Y-30814500D02*
X159390000Y-29290500D01*
D14*
X160412500Y-32091000D02*
X160412500Y-33233000D01*
D13*
%TO.N,Board_4-Net-(J4-Pin_3)*%
X161930000Y-29290500D02*
X161930000Y-31068500D01*
D14*
X161062500Y-31936000D02*
X161062500Y-33233000D01*
D13*
X161930000Y-31068500D02*
X161295000Y-31703500D01*
D14*
X161295000Y-31703500D02*
X161062500Y-31936000D01*
D13*
%TO.N,Board_4-Net-(J4-Pin_4)*%
X164470000Y-32338500D02*
X164470000Y-29290500D01*
X163575500Y-33233000D02*
X164470000Y-32338500D01*
X163575500Y-33233000D02*
X161763500Y-33233000D01*
%TO.N,Board_5-Net-(J3-Pin_1)*%
X169010000Y-39450500D02*
X169010000Y-36783500D01*
X170285500Y-35508000D02*
X171871500Y-35508000D01*
X169010000Y-36783500D02*
X170285500Y-35508000D01*
%TO.N,Board_5-Net-(J3-Pin_2)*%
X171550000Y-39450500D02*
X171550000Y-38053500D01*
D14*
X172572500Y-36396000D02*
X172572500Y-35508000D01*
D13*
X171550000Y-37418500D02*
X171931000Y-37037500D01*
D14*
X172312000Y-36656500D02*
X172572500Y-36396000D01*
D13*
X171931000Y-37037500D02*
X172312000Y-36656500D01*
X171550000Y-38053500D02*
X171550000Y-37418500D01*
%TO.N,Board_5-Net-(J3-Pin_3)*%
X174090000Y-37418500D02*
X173518500Y-36847000D01*
X174090000Y-37926500D02*
X174090000Y-37418500D01*
X174090000Y-39450500D02*
X174090000Y-37926500D01*
D14*
X173222500Y-36551000D02*
X173222500Y-35508000D01*
X173328000Y-36656500D02*
X173222500Y-36551000D01*
X173328000Y-36656500D02*
X173518500Y-36847000D01*
D13*
%TO.N,Board_5-Net-(J3-Pin_4)*%
X176630000Y-36402500D02*
X175741000Y-35513500D01*
X173923500Y-35513500D02*
X173923500Y-35508000D01*
X175741000Y-35513500D02*
X173923500Y-35513500D01*
X176630000Y-36402500D02*
X176630000Y-39450500D01*
%TO.N,Board_5-Net-(J4-Pin_1)*%
X169010000Y-31957500D02*
X169010000Y-29290500D01*
X170285500Y-33233000D02*
X171871500Y-33233000D01*
X170285500Y-33233000D02*
X169010000Y-31957500D01*
%TO.N,Board_5-Net-(J4-Pin_2)*%
X171550000Y-30814500D02*
X171550000Y-29290500D01*
D14*
X172312000Y-31830500D02*
X172572500Y-32091000D01*
D13*
X171550000Y-30814500D02*
X171550000Y-31068500D01*
D14*
X172572500Y-32091000D02*
X172572500Y-33233000D01*
D13*
X171550000Y-31068500D02*
X172312000Y-31830500D01*
D14*
%TO.N,Board_5-Net-(J4-Pin_3)*%
X173222500Y-31936000D02*
X173222500Y-33233000D01*
X173455000Y-31703500D02*
X173222500Y-31936000D01*
D13*
X174090000Y-29290500D02*
X174090000Y-31068500D01*
X174090000Y-31068500D02*
X173455000Y-31703500D01*
%TO.N,Board_5-Net-(J4-Pin_4)*%
X175735500Y-33233000D02*
X176630000Y-32338500D01*
X175735500Y-33233000D02*
X173923500Y-33233000D01*
X176630000Y-32338500D02*
X176630000Y-29290500D01*
%TO.N,Board_6-Net-(J3-Pin_1)*%
X182445500Y-35508000D02*
X184031500Y-35508000D01*
X181170000Y-39450500D02*
X181170000Y-36783500D01*
X181170000Y-36783500D02*
X182445500Y-35508000D01*
%TO.N,Board_6-Net-(J3-Pin_2)*%
X183710000Y-39450500D02*
X183710000Y-38053500D01*
X183710000Y-37418500D02*
X184091000Y-37037500D01*
D14*
X184732500Y-36396000D02*
X184732500Y-35508000D01*
X184472000Y-36656500D02*
X184732500Y-36396000D01*
D13*
X184091000Y-37037500D02*
X184472000Y-36656500D01*
X183710000Y-38053500D02*
X183710000Y-37418500D01*
D14*
%TO.N,Board_6-Net-(J3-Pin_3)*%
X185488000Y-36656500D02*
X185678500Y-36847000D01*
D13*
X186250000Y-37926500D02*
X186250000Y-37418500D01*
X186250000Y-39450500D02*
X186250000Y-37926500D01*
D14*
X185382500Y-36551000D02*
X185382500Y-35508000D01*
X185488000Y-36656500D02*
X185382500Y-36551000D01*
D13*
X186250000Y-37418500D02*
X185678500Y-36847000D01*
%TO.N,Board_6-Net-(J3-Pin_4)*%
X188790000Y-36402500D02*
X187901000Y-35513500D01*
X186083500Y-35513500D02*
X186083500Y-35508000D01*
X188790000Y-36402500D02*
X188790000Y-39450500D01*
X187901000Y-35513500D02*
X186083500Y-35513500D01*
%TO.N,Board_6-Net-(J4-Pin_1)*%
X181170000Y-31957500D02*
X181170000Y-29290500D01*
X182445500Y-33233000D02*
X184031500Y-33233000D01*
X182445500Y-33233000D02*
X181170000Y-31957500D01*
%TO.N,Board_6-Net-(J4-Pin_2)*%
X183710000Y-31068500D02*
X184472000Y-31830500D01*
D14*
X184472000Y-31830500D02*
X184732500Y-32091000D01*
D13*
X183710000Y-30814500D02*
X183710000Y-29290500D01*
X183710000Y-30814500D02*
X183710000Y-31068500D01*
D14*
X184732500Y-32091000D02*
X184732500Y-33233000D01*
D13*
%TO.N,Board_6-Net-(J4-Pin_3)*%
X186250000Y-29290500D02*
X186250000Y-31068500D01*
X186250000Y-31068500D02*
X185615000Y-31703500D01*
D14*
X185615000Y-31703500D02*
X185382500Y-31936000D01*
X185382500Y-31936000D02*
X185382500Y-33233000D01*
D13*
%TO.N,Board_6-Net-(J4-Pin_4)*%
X187895500Y-33233000D02*
X186083500Y-33233000D01*
X188790000Y-32338500D02*
X188790000Y-29290500D01*
X187895500Y-33233000D02*
X188790000Y-32338500D01*
%TO.N,Board_7-Net-(J3-Pin_1)*%
X108210000Y-51635500D02*
X109485500Y-50360000D01*
X108210000Y-54302500D02*
X108210000Y-51635500D01*
X109485500Y-50360000D02*
X111071500Y-50360000D01*
D14*
%TO.N,Board_7-Net-(J3-Pin_2)*%
X111772500Y-51248000D02*
X111772500Y-50360000D01*
X111512000Y-51508500D02*
X111772500Y-51248000D01*
D13*
X110750000Y-52905500D02*
X110750000Y-52270500D01*
X110750000Y-54302500D02*
X110750000Y-52905500D01*
X110750000Y-52270500D02*
X111131000Y-51889500D01*
X111131000Y-51889500D02*
X111512000Y-51508500D01*
%TO.N,Board_7-Net-(J3-Pin_3)*%
X113290000Y-52270500D02*
X112718500Y-51699000D01*
D14*
X112528000Y-51508500D02*
X112718500Y-51699000D01*
D13*
X113290000Y-52778500D02*
X113290000Y-52270500D01*
X113290000Y-54302500D02*
X113290000Y-52778500D01*
D14*
X112528000Y-51508500D02*
X112422500Y-51403000D01*
X112422500Y-51403000D02*
X112422500Y-50360000D01*
D13*
%TO.N,Board_7-Net-(J3-Pin_4)*%
X114941000Y-50365500D02*
X113123500Y-50365500D01*
X113123500Y-50365500D02*
X113123500Y-50360000D01*
X115830000Y-51254500D02*
X115830000Y-54302500D01*
X115830000Y-51254500D02*
X114941000Y-50365500D01*
%TO.N,Board_7-Net-(J4-Pin_1)*%
X108210000Y-46809500D02*
X108210000Y-44142500D01*
X109485500Y-48085000D02*
X108210000Y-46809500D01*
X109485500Y-48085000D02*
X111071500Y-48085000D01*
D14*
%TO.N,Board_7-Net-(J4-Pin_2)*%
X111772500Y-46943000D02*
X111772500Y-48085000D01*
X111512000Y-46682500D02*
X111772500Y-46943000D01*
D13*
X110750000Y-45666500D02*
X110750000Y-45920500D01*
X110750000Y-45666500D02*
X110750000Y-44142500D01*
X110750000Y-45920500D02*
X111512000Y-46682500D01*
%TO.N,Board_7-Net-(J4-Pin_3)*%
X113290000Y-45920500D02*
X112655000Y-46555500D01*
D14*
X112655000Y-46555500D02*
X112422500Y-46788000D01*
X112422500Y-46788000D02*
X112422500Y-48085000D01*
D13*
X113290000Y-44142500D02*
X113290000Y-45920500D01*
%TO.N,Board_7-Net-(J4-Pin_4)*%
X114935500Y-48085000D02*
X113123500Y-48085000D01*
X115830000Y-47190500D02*
X115830000Y-44142500D01*
X114935500Y-48085000D02*
X115830000Y-47190500D01*
%TO.N,Board_8-Net-(J3-Pin_1)*%
X121645500Y-50360000D02*
X123231500Y-50360000D01*
X120370000Y-54302500D02*
X120370000Y-51635500D01*
X120370000Y-51635500D02*
X121645500Y-50360000D01*
%TO.N,Board_8-Net-(J3-Pin_2)*%
X122910000Y-54302500D02*
X122910000Y-52905500D01*
D14*
X123672000Y-51508500D02*
X123932500Y-51248000D01*
D13*
X123291000Y-51889500D02*
X123672000Y-51508500D01*
D14*
X123932500Y-51248000D02*
X123932500Y-50360000D01*
D13*
X122910000Y-52905500D02*
X122910000Y-52270500D01*
X122910000Y-52270500D02*
X123291000Y-51889500D01*
D14*
%TO.N,Board_8-Net-(J3-Pin_3)*%
X124688000Y-51508500D02*
X124878500Y-51699000D01*
D13*
X125450000Y-52778500D02*
X125450000Y-52270500D01*
D14*
X124688000Y-51508500D02*
X124582500Y-51403000D01*
D13*
X125450000Y-54302500D02*
X125450000Y-52778500D01*
X125450000Y-52270500D02*
X124878500Y-51699000D01*
D14*
X124582500Y-51403000D02*
X124582500Y-50360000D01*
D13*
%TO.N,Board_8-Net-(J3-Pin_4)*%
X127990000Y-51254500D02*
X127101000Y-50365500D01*
X127101000Y-50365500D02*
X125283500Y-50365500D01*
X127990000Y-51254500D02*
X127990000Y-54302500D01*
X125283500Y-50365500D02*
X125283500Y-50360000D01*
%TO.N,Board_8-Net-(J4-Pin_1)*%
X120370000Y-46809500D02*
X120370000Y-44142500D01*
X121645500Y-48085000D02*
X123231500Y-48085000D01*
X121645500Y-48085000D02*
X120370000Y-46809500D01*
D14*
%TO.N,Board_8-Net-(J4-Pin_2)*%
X123932500Y-46943000D02*
X123932500Y-48085000D01*
D13*
X122910000Y-45666500D02*
X122910000Y-44142500D01*
D14*
X123672000Y-46682500D02*
X123932500Y-46943000D01*
D13*
X122910000Y-45666500D02*
X122910000Y-45920500D01*
X122910000Y-45920500D02*
X123672000Y-46682500D01*
D14*
%TO.N,Board_8-Net-(J4-Pin_3)*%
X124582500Y-46788000D02*
X124582500Y-48085000D01*
D13*
X125450000Y-44142500D02*
X125450000Y-45920500D01*
X125450000Y-45920500D02*
X124815000Y-46555500D01*
D14*
X124815000Y-46555500D02*
X124582500Y-46788000D01*
D13*
%TO.N,Board_8-Net-(J4-Pin_4)*%
X127990000Y-47190500D02*
X127990000Y-44142500D01*
X127095500Y-48085000D02*
X125283500Y-48085000D01*
X127095500Y-48085000D02*
X127990000Y-47190500D01*
%TO.N,Board_9-Net-(J3-Pin_1)*%
X132530000Y-51635500D02*
X133805500Y-50360000D01*
X133805500Y-50360000D02*
X135391500Y-50360000D01*
X132530000Y-54302500D02*
X132530000Y-51635500D01*
D14*
%TO.N,Board_9-Net-(J3-Pin_2)*%
X135832000Y-51508500D02*
X136092500Y-51248000D01*
D13*
X135070000Y-54302500D02*
X135070000Y-52905500D01*
D14*
X136092500Y-51248000D02*
X136092500Y-50360000D01*
D13*
X135451000Y-51889500D02*
X135832000Y-51508500D01*
X135070000Y-52905500D02*
X135070000Y-52270500D01*
X135070000Y-52270500D02*
X135451000Y-51889500D01*
D14*
%TO.N,Board_9-Net-(J3-Pin_3)*%
X136742500Y-51403000D02*
X136742500Y-50360000D01*
D13*
X137610000Y-54302500D02*
X137610000Y-52778500D01*
X137610000Y-52778500D02*
X137610000Y-52270500D01*
D14*
X136848000Y-51508500D02*
X136742500Y-51403000D01*
D13*
X137610000Y-52270500D02*
X137038500Y-51699000D01*
D14*
X136848000Y-51508500D02*
X137038500Y-51699000D01*
D13*
%TO.N,Board_9-Net-(J3-Pin_4)*%
X139261000Y-50365500D02*
X137443500Y-50365500D01*
X137443500Y-50365500D02*
X137443500Y-50360000D01*
X140150000Y-51254500D02*
X139261000Y-50365500D01*
X140150000Y-51254500D02*
X140150000Y-54302500D01*
%TO.N,Board_9-Net-(J4-Pin_1)*%
X133805500Y-48085000D02*
X132530000Y-46809500D01*
X132530000Y-46809500D02*
X132530000Y-44142500D01*
X133805500Y-48085000D02*
X135391500Y-48085000D01*
D14*
%TO.N,Board_9-Net-(J4-Pin_2)*%
X135832000Y-46682500D02*
X136092500Y-46943000D01*
D13*
X135070000Y-45666500D02*
X135070000Y-44142500D01*
D14*
X136092500Y-46943000D02*
X136092500Y-48085000D01*
D13*
X135070000Y-45920500D02*
X135832000Y-46682500D01*
X135070000Y-45666500D02*
X135070000Y-45920500D01*
%TO.N,Board_9-Net-(J4-Pin_3)*%
X137610000Y-44142500D02*
X137610000Y-45920500D01*
D14*
X136975000Y-46555500D02*
X136742500Y-46788000D01*
D13*
X137610000Y-45920500D02*
X136975000Y-46555500D01*
D14*
X136742500Y-46788000D02*
X136742500Y-48085000D01*
D13*
%TO.N,Board_9-Net-(J4-Pin_4)*%
X139255500Y-48085000D02*
X137443500Y-48085000D01*
X139255500Y-48085000D02*
X140150000Y-47190500D01*
X140150000Y-47190500D02*
X140150000Y-44142500D01*
%TO.N,Board_10-Net-(J3-Pin_1)*%
X145965500Y-50360000D02*
X147551500Y-50360000D01*
X144690000Y-54302500D02*
X144690000Y-51635500D01*
X144690000Y-51635500D02*
X145965500Y-50360000D01*
%TO.N,Board_10-Net-(J3-Pin_2)*%
X147230000Y-52270500D02*
X147611000Y-51889500D01*
X147611000Y-51889500D02*
X147992000Y-51508500D01*
X147230000Y-54302500D02*
X147230000Y-52905500D01*
D14*
X148252500Y-51248000D02*
X148252500Y-50360000D01*
X147992000Y-51508500D02*
X148252500Y-51248000D01*
D13*
X147230000Y-52905500D02*
X147230000Y-52270500D01*
%TO.N,Board_10-Net-(J3-Pin_3)*%
X149770000Y-52778500D02*
X149770000Y-52270500D01*
D14*
X149008000Y-51508500D02*
X149198500Y-51699000D01*
X148902500Y-51403000D02*
X148902500Y-50360000D01*
D13*
X149770000Y-52270500D02*
X149198500Y-51699000D01*
X149770000Y-54302500D02*
X149770000Y-52778500D01*
D14*
X149008000Y-51508500D02*
X148902500Y-51403000D01*
D13*
%TO.N,Board_10-Net-(J3-Pin_4)*%
X149603500Y-50365500D02*
X149603500Y-50360000D01*
X152310000Y-51254500D02*
X151421000Y-50365500D01*
X151421000Y-50365500D02*
X149603500Y-50365500D01*
X152310000Y-51254500D02*
X152310000Y-54302500D01*
%TO.N,Board_10-Net-(J4-Pin_1)*%
X145965500Y-48085000D02*
X144690000Y-46809500D01*
X144690000Y-46809500D02*
X144690000Y-44142500D01*
X145965500Y-48085000D02*
X147551500Y-48085000D01*
%TO.N,Board_10-Net-(J4-Pin_2)*%
X147230000Y-45920500D02*
X147992000Y-46682500D01*
X147230000Y-45666500D02*
X147230000Y-44142500D01*
D14*
X148252500Y-46943000D02*
X148252500Y-48085000D01*
D13*
X147230000Y-45666500D02*
X147230000Y-45920500D01*
D14*
X147992000Y-46682500D02*
X148252500Y-46943000D01*
%TO.N,Board_10-Net-(J4-Pin_3)*%
X149135000Y-46555500D02*
X148902500Y-46788000D01*
D13*
X149770000Y-45920500D02*
X149135000Y-46555500D01*
D14*
X148902500Y-46788000D02*
X148902500Y-48085000D01*
D13*
X149770000Y-44142500D02*
X149770000Y-45920500D01*
%TO.N,Board_10-Net-(J4-Pin_4)*%
X152310000Y-47190500D02*
X152310000Y-44142500D01*
X151415500Y-48085000D02*
X149603500Y-48085000D01*
X151415500Y-48085000D02*
X152310000Y-47190500D01*
%TO.N,Board_11-Net-(J3-Pin_1)*%
X158125500Y-50360000D02*
X159711500Y-50360000D01*
X156850000Y-54302500D02*
X156850000Y-51635500D01*
X156850000Y-51635500D02*
X158125500Y-50360000D01*
%TO.N,Board_11-Net-(J3-Pin_2)*%
X159390000Y-52270500D02*
X159771000Y-51889500D01*
X159771000Y-51889500D02*
X160152000Y-51508500D01*
X159390000Y-52905500D02*
X159390000Y-52270500D01*
X159390000Y-54302500D02*
X159390000Y-52905500D01*
D14*
X160412500Y-51248000D02*
X160412500Y-50360000D01*
X160152000Y-51508500D02*
X160412500Y-51248000D01*
D13*
%TO.N,Board_11-Net-(J3-Pin_3)*%
X161930000Y-52270500D02*
X161358500Y-51699000D01*
X161930000Y-52778500D02*
X161930000Y-52270500D01*
X161930000Y-54302500D02*
X161930000Y-52778500D01*
D14*
X161168000Y-51508500D02*
X161062500Y-51403000D01*
X161168000Y-51508500D02*
X161358500Y-51699000D01*
X161062500Y-51403000D02*
X161062500Y-50360000D01*
D13*
%TO.N,Board_11-Net-(J3-Pin_4)*%
X161763500Y-50365500D02*
X161763500Y-50360000D01*
X163581000Y-50365500D02*
X161763500Y-50365500D01*
X164470000Y-51254500D02*
X164470000Y-54302500D01*
X164470000Y-51254500D02*
X163581000Y-50365500D01*
%TO.N,Board_11-Net-(J4-Pin_1)*%
X158125500Y-48085000D02*
X159711500Y-48085000D01*
X156850000Y-46809500D02*
X156850000Y-44142500D01*
X158125500Y-48085000D02*
X156850000Y-46809500D01*
D14*
%TO.N,Board_11-Net-(J4-Pin_2)*%
X160412500Y-46943000D02*
X160412500Y-48085000D01*
D13*
X159390000Y-45666500D02*
X159390000Y-45920500D01*
X159390000Y-45920500D02*
X160152000Y-46682500D01*
D14*
X160152000Y-46682500D02*
X160412500Y-46943000D01*
D13*
X159390000Y-45666500D02*
X159390000Y-44142500D01*
D14*
%TO.N,Board_11-Net-(J4-Pin_3)*%
X161295000Y-46555500D02*
X161062500Y-46788000D01*
D13*
X161930000Y-44142500D02*
X161930000Y-45920500D01*
X161930000Y-45920500D02*
X161295000Y-46555500D01*
D14*
X161062500Y-46788000D02*
X161062500Y-48085000D01*
D13*
%TO.N,Board_11-Net-(J4-Pin_4)*%
X163575500Y-48085000D02*
X161763500Y-48085000D01*
X164470000Y-47190500D02*
X164470000Y-44142500D01*
X163575500Y-48085000D02*
X164470000Y-47190500D01*
%TO.N,Board_12-Net-(J3-Pin_1)*%
X169010000Y-54302500D02*
X169010000Y-51635500D01*
X170285500Y-50360000D02*
X171871500Y-50360000D01*
X169010000Y-51635500D02*
X170285500Y-50360000D01*
D14*
%TO.N,Board_12-Net-(J3-Pin_2)*%
X172572500Y-51248000D02*
X172572500Y-50360000D01*
D13*
X171550000Y-52270500D02*
X171931000Y-51889500D01*
X171550000Y-54302500D02*
X171550000Y-52905500D01*
D14*
X172312000Y-51508500D02*
X172572500Y-51248000D01*
D13*
X171550000Y-52905500D02*
X171550000Y-52270500D01*
X171931000Y-51889500D02*
X172312000Y-51508500D01*
%TO.N,Board_12-Net-(J3-Pin_3)*%
X174090000Y-52778500D02*
X174090000Y-52270500D01*
X174090000Y-54302500D02*
X174090000Y-52778500D01*
D14*
X173222500Y-51403000D02*
X173222500Y-50360000D01*
X173328000Y-51508500D02*
X173222500Y-51403000D01*
D13*
X174090000Y-52270500D02*
X173518500Y-51699000D01*
D14*
X173328000Y-51508500D02*
X173518500Y-51699000D01*
D13*
%TO.N,Board_12-Net-(J3-Pin_4)*%
X176630000Y-51254500D02*
X175741000Y-50365500D01*
X176630000Y-51254500D02*
X176630000Y-54302500D01*
X175741000Y-50365500D02*
X173923500Y-50365500D01*
X173923500Y-50365500D02*
X173923500Y-50360000D01*
%TO.N,Board_12-Net-(J4-Pin_1)*%
X169010000Y-46809500D02*
X169010000Y-44142500D01*
X170285500Y-48085000D02*
X171871500Y-48085000D01*
X170285500Y-48085000D02*
X169010000Y-46809500D01*
%TO.N,Board_12-Net-(J4-Pin_2)*%
X171550000Y-45666500D02*
X171550000Y-45920500D01*
X171550000Y-45666500D02*
X171550000Y-44142500D01*
D14*
X172312000Y-46682500D02*
X172572500Y-46943000D01*
X172572500Y-46943000D02*
X172572500Y-48085000D01*
D13*
X171550000Y-45920500D02*
X172312000Y-46682500D01*
%TO.N,Board_12-Net-(J4-Pin_3)*%
X174090000Y-44142500D02*
X174090000Y-45920500D01*
D14*
X173455000Y-46555500D02*
X173222500Y-46788000D01*
X173222500Y-46788000D02*
X173222500Y-48085000D01*
D13*
X174090000Y-45920500D02*
X173455000Y-46555500D01*
%TO.N,Board_12-Net-(J4-Pin_4)*%
X175735500Y-48085000D02*
X176630000Y-47190500D01*
X175735500Y-48085000D02*
X173923500Y-48085000D01*
X176630000Y-47190500D02*
X176630000Y-44142500D01*
%TO.N,Board_13-Net-(J3-Pin_1)*%
X181170000Y-54302500D02*
X181170000Y-51635500D01*
X181170000Y-51635500D02*
X182445500Y-50360000D01*
X182445500Y-50360000D02*
X184031500Y-50360000D01*
D14*
%TO.N,Board_13-Net-(J3-Pin_2)*%
X184472000Y-51508500D02*
X184732500Y-51248000D01*
D13*
X183710000Y-52270500D02*
X184091000Y-51889500D01*
D14*
X184732500Y-51248000D02*
X184732500Y-50360000D01*
D13*
X184091000Y-51889500D02*
X184472000Y-51508500D01*
X183710000Y-54302500D02*
X183710000Y-52905500D01*
X183710000Y-52905500D02*
X183710000Y-52270500D01*
D14*
%TO.N,Board_13-Net-(J3-Pin_3)*%
X185488000Y-51508500D02*
X185382500Y-51403000D01*
D13*
X186250000Y-52778500D02*
X186250000Y-52270500D01*
X186250000Y-54302500D02*
X186250000Y-52778500D01*
D14*
X185488000Y-51508500D02*
X185678500Y-51699000D01*
D13*
X186250000Y-52270500D02*
X185678500Y-51699000D01*
D14*
X185382500Y-51403000D02*
X185382500Y-50360000D01*
D13*
%TO.N,Board_13-Net-(J3-Pin_4)*%
X188790000Y-51254500D02*
X187901000Y-50365500D01*
X188790000Y-51254500D02*
X188790000Y-54302500D01*
X187901000Y-50365500D02*
X186083500Y-50365500D01*
X186083500Y-50365500D02*
X186083500Y-50360000D01*
%TO.N,Board_13-Net-(J4-Pin_1)*%
X181170000Y-46809500D02*
X181170000Y-44142500D01*
X182445500Y-48085000D02*
X184031500Y-48085000D01*
X182445500Y-48085000D02*
X181170000Y-46809500D01*
D14*
%TO.N,Board_13-Net-(J4-Pin_2)*%
X184732500Y-46943000D02*
X184732500Y-48085000D01*
D13*
X183710000Y-45666500D02*
X183710000Y-45920500D01*
D14*
X184472000Y-46682500D02*
X184732500Y-46943000D01*
D13*
X183710000Y-45666500D02*
X183710000Y-44142500D01*
X183710000Y-45920500D02*
X184472000Y-46682500D01*
D14*
%TO.N,Board_13-Net-(J4-Pin_3)*%
X185615000Y-46555500D02*
X185382500Y-46788000D01*
D13*
X186250000Y-44142500D02*
X186250000Y-45920500D01*
X186250000Y-45920500D02*
X185615000Y-46555500D01*
D14*
X185382500Y-46788000D02*
X185382500Y-48085000D01*
D13*
%TO.N,Board_13-Net-(J4-Pin_4)*%
X187895500Y-48085000D02*
X186083500Y-48085000D01*
X187895500Y-48085000D02*
X188790000Y-47190500D01*
X188790000Y-47190500D02*
X188790000Y-44142500D01*
%TO.N,Board_14-Net-(J3-Pin_1)*%
X108210000Y-69154500D02*
X108210000Y-66487500D01*
X108210000Y-66487500D02*
X109485500Y-65212000D01*
X109485500Y-65212000D02*
X111071500Y-65212000D01*
%TO.N,Board_14-Net-(J3-Pin_2)*%
X111131000Y-66741500D02*
X111512000Y-66360500D01*
X110750000Y-67122500D02*
X111131000Y-66741500D01*
D14*
X111772500Y-66100000D02*
X111772500Y-65212000D01*
D13*
X110750000Y-67757500D02*
X110750000Y-67122500D01*
X110750000Y-69154500D02*
X110750000Y-67757500D01*
D14*
X111512000Y-66360500D02*
X111772500Y-66100000D01*
%TO.N,Board_14-Net-(J3-Pin_3)*%
X112422500Y-66255000D02*
X112422500Y-65212000D01*
D13*
X113290000Y-67122500D02*
X112718500Y-66551000D01*
X113290000Y-67630500D02*
X113290000Y-67122500D01*
X113290000Y-69154500D02*
X113290000Y-67630500D01*
D14*
X112528000Y-66360500D02*
X112422500Y-66255000D01*
X112528000Y-66360500D02*
X112718500Y-66551000D01*
D13*
%TO.N,Board_14-Net-(J3-Pin_4)*%
X113123500Y-65217500D02*
X113123500Y-65212000D01*
X115830000Y-66106500D02*
X114941000Y-65217500D01*
X115830000Y-66106500D02*
X115830000Y-69154500D01*
X114941000Y-65217500D02*
X113123500Y-65217500D01*
%TO.N,Board_14-Net-(J4-Pin_1)*%
X109485500Y-62937000D02*
X108210000Y-61661500D01*
X108210000Y-61661500D02*
X108210000Y-58994500D01*
X109485500Y-62937000D02*
X111071500Y-62937000D01*
%TO.N,Board_14-Net-(J4-Pin_2)*%
X110750000Y-60772500D02*
X111512000Y-61534500D01*
D14*
X111512000Y-61534500D02*
X111772500Y-61795000D01*
D13*
X110750000Y-60518500D02*
X110750000Y-58994500D01*
D14*
X111772500Y-61795000D02*
X111772500Y-62937000D01*
D13*
X110750000Y-60518500D02*
X110750000Y-60772500D01*
%TO.N,Board_14-Net-(J4-Pin_3)*%
X113290000Y-60772500D02*
X112655000Y-61407500D01*
D14*
X112422500Y-61640000D02*
X112422500Y-62937000D01*
D13*
X113290000Y-58994500D02*
X113290000Y-60772500D01*
D14*
X112655000Y-61407500D02*
X112422500Y-61640000D01*
D13*
%TO.N,Board_14-Net-(J4-Pin_4)*%
X114935500Y-62937000D02*
X113123500Y-62937000D01*
X114935500Y-62937000D02*
X115830000Y-62042500D01*
X115830000Y-62042500D02*
X115830000Y-58994500D01*
%TO.N,Board_15-Net-(J3-Pin_1)*%
X120370000Y-66487500D02*
X121645500Y-65212000D01*
X121645500Y-65212000D02*
X123231500Y-65212000D01*
X120370000Y-69154500D02*
X120370000Y-66487500D01*
%TO.N,Board_15-Net-(J3-Pin_2)*%
X122910000Y-69154500D02*
X122910000Y-67757500D01*
D14*
X123932500Y-66100000D02*
X123932500Y-65212000D01*
X123672000Y-66360500D02*
X123932500Y-66100000D01*
D13*
X123291000Y-66741500D02*
X123672000Y-66360500D01*
X122910000Y-67757500D02*
X122910000Y-67122500D01*
X122910000Y-67122500D02*
X123291000Y-66741500D01*
D14*
%TO.N,Board_15-Net-(J3-Pin_3)*%
X124582500Y-66255000D02*
X124582500Y-65212000D01*
X124688000Y-66360500D02*
X124582500Y-66255000D01*
D13*
X125450000Y-67122500D02*
X124878500Y-66551000D01*
X125450000Y-69154500D02*
X125450000Y-67630500D01*
X125450000Y-67630500D02*
X125450000Y-67122500D01*
D14*
X124688000Y-66360500D02*
X124878500Y-66551000D01*
D13*
%TO.N,Board_15-Net-(J3-Pin_4)*%
X127990000Y-66106500D02*
X127101000Y-65217500D01*
X127990000Y-66106500D02*
X127990000Y-69154500D01*
X127101000Y-65217500D02*
X125283500Y-65217500D01*
X125283500Y-65217500D02*
X125283500Y-65212000D01*
%TO.N,Board_15-Net-(J4-Pin_1)*%
X121645500Y-62937000D02*
X123231500Y-62937000D01*
X121645500Y-62937000D02*
X120370000Y-61661500D01*
X120370000Y-61661500D02*
X120370000Y-58994500D01*
%TO.N,Board_15-Net-(J4-Pin_2)*%
X122910000Y-60518500D02*
X122910000Y-58994500D01*
X122910000Y-60772500D02*
X123672000Y-61534500D01*
D14*
X123672000Y-61534500D02*
X123932500Y-61795000D01*
X123932500Y-61795000D02*
X123932500Y-62937000D01*
D13*
X122910000Y-60518500D02*
X122910000Y-60772500D01*
D14*
%TO.N,Board_15-Net-(J4-Pin_3)*%
X124815000Y-61407500D02*
X124582500Y-61640000D01*
X124582500Y-61640000D02*
X124582500Y-62937000D01*
D13*
X125450000Y-60772500D02*
X124815000Y-61407500D01*
X125450000Y-58994500D02*
X125450000Y-60772500D01*
%TO.N,Board_15-Net-(J4-Pin_4)*%
X127095500Y-62937000D02*
X127990000Y-62042500D01*
X127990000Y-62042500D02*
X127990000Y-58994500D01*
X127095500Y-62937000D02*
X125283500Y-62937000D01*
%TO.N,Board_16-Net-(J3-Pin_1)*%
X132530000Y-69154500D02*
X132530000Y-66487500D01*
X133805500Y-65212000D02*
X135391500Y-65212000D01*
X132530000Y-66487500D02*
X133805500Y-65212000D01*
%TO.N,Board_16-Net-(J3-Pin_2)*%
X135451000Y-66741500D02*
X135832000Y-66360500D01*
D14*
X136092500Y-66100000D02*
X136092500Y-65212000D01*
D13*
X135070000Y-67122500D02*
X135451000Y-66741500D01*
X135070000Y-67757500D02*
X135070000Y-67122500D01*
X135070000Y-69154500D02*
X135070000Y-67757500D01*
D14*
X135832000Y-66360500D02*
X136092500Y-66100000D01*
D13*
%TO.N,Board_16-Net-(J3-Pin_3)*%
X137610000Y-69154500D02*
X137610000Y-67630500D01*
D14*
X136742500Y-66255000D02*
X136742500Y-65212000D01*
X136848000Y-66360500D02*
X136742500Y-66255000D01*
D13*
X137610000Y-67122500D02*
X137038500Y-66551000D01*
D14*
X136848000Y-66360500D02*
X137038500Y-66551000D01*
D13*
X137610000Y-67630500D02*
X137610000Y-67122500D01*
%TO.N,Board_16-Net-(J3-Pin_4)*%
X140150000Y-66106500D02*
X139261000Y-65217500D01*
X137443500Y-65217500D02*
X137443500Y-65212000D01*
X139261000Y-65217500D02*
X137443500Y-65217500D01*
X140150000Y-66106500D02*
X140150000Y-69154500D01*
%TO.N,Board_16-Net-(J4-Pin_1)*%
X132530000Y-61661500D02*
X132530000Y-58994500D01*
X133805500Y-62937000D02*
X132530000Y-61661500D01*
X133805500Y-62937000D02*
X135391500Y-62937000D01*
D14*
%TO.N,Board_16-Net-(J4-Pin_2)*%
X135832000Y-61534500D02*
X136092500Y-61795000D01*
D13*
X135070000Y-60772500D02*
X135832000Y-61534500D01*
X135070000Y-60518500D02*
X135070000Y-58994500D01*
X135070000Y-60518500D02*
X135070000Y-60772500D01*
D14*
X136092500Y-61795000D02*
X136092500Y-62937000D01*
%TO.N,Board_16-Net-(J4-Pin_3)*%
X136975000Y-61407500D02*
X136742500Y-61640000D01*
D13*
X137610000Y-60772500D02*
X136975000Y-61407500D01*
X137610000Y-58994500D02*
X137610000Y-60772500D01*
D14*
X136742500Y-61640000D02*
X136742500Y-62937000D01*
D13*
%TO.N,Board_16-Net-(J4-Pin_4)*%
X139255500Y-62937000D02*
X140150000Y-62042500D01*
X139255500Y-62937000D02*
X137443500Y-62937000D01*
X140150000Y-62042500D02*
X140150000Y-58994500D01*
%TO.N,Board_17-Net-(J3-Pin_1)*%
X144690000Y-66487500D02*
X145965500Y-65212000D01*
X145965500Y-65212000D02*
X147551500Y-65212000D01*
X144690000Y-69154500D02*
X144690000Y-66487500D01*
%TO.N,Board_17-Net-(J3-Pin_2)*%
X147230000Y-69154500D02*
X147230000Y-67757500D01*
X147611000Y-66741500D02*
X147992000Y-66360500D01*
D14*
X147992000Y-66360500D02*
X148252500Y-66100000D01*
X148252500Y-66100000D02*
X148252500Y-65212000D01*
D13*
X147230000Y-67122500D02*
X147611000Y-66741500D01*
X147230000Y-67757500D02*
X147230000Y-67122500D01*
%TO.N,Board_17-Net-(J3-Pin_3)*%
X149770000Y-69154500D02*
X149770000Y-67630500D01*
D14*
X148902500Y-66255000D02*
X148902500Y-65212000D01*
X149008000Y-66360500D02*
X148902500Y-66255000D01*
D13*
X149770000Y-67122500D02*
X149198500Y-66551000D01*
D14*
X149008000Y-66360500D02*
X149198500Y-66551000D01*
D13*
X149770000Y-67630500D02*
X149770000Y-67122500D01*
%TO.N,Board_17-Net-(J3-Pin_4)*%
X151421000Y-65217500D02*
X149603500Y-65217500D01*
X149603500Y-65217500D02*
X149603500Y-65212000D01*
X152310000Y-66106500D02*
X151421000Y-65217500D01*
X152310000Y-66106500D02*
X152310000Y-69154500D01*
%TO.N,Board_17-Net-(J4-Pin_1)*%
X145965500Y-62937000D02*
X144690000Y-61661500D01*
X145965500Y-62937000D02*
X147551500Y-62937000D01*
X144690000Y-61661500D02*
X144690000Y-58994500D01*
%TO.N,Board_17-Net-(J4-Pin_2)*%
X147230000Y-60518500D02*
X147230000Y-58994500D01*
D14*
X147992000Y-61534500D02*
X148252500Y-61795000D01*
D13*
X147230000Y-60772500D02*
X147992000Y-61534500D01*
D14*
X148252500Y-61795000D02*
X148252500Y-62937000D01*
D13*
X147230000Y-60518500D02*
X147230000Y-60772500D01*
D14*
%TO.N,Board_17-Net-(J4-Pin_3)*%
X149135000Y-61407500D02*
X148902500Y-61640000D01*
D13*
X149770000Y-58994500D02*
X149770000Y-60772500D01*
D14*
X148902500Y-61640000D02*
X148902500Y-62937000D01*
D13*
X149770000Y-60772500D02*
X149135000Y-61407500D01*
%TO.N,Board_17-Net-(J4-Pin_4)*%
X152310000Y-62042500D02*
X152310000Y-58994500D01*
X151415500Y-62937000D02*
X149603500Y-62937000D01*
X151415500Y-62937000D02*
X152310000Y-62042500D01*
%TO.N,Board_18-Net-(J3-Pin_1)*%
X158125500Y-65212000D02*
X159711500Y-65212000D01*
X156850000Y-66487500D02*
X158125500Y-65212000D01*
X156850000Y-69154500D02*
X156850000Y-66487500D01*
D14*
%TO.N,Board_18-Net-(J3-Pin_2)*%
X160412500Y-66100000D02*
X160412500Y-65212000D01*
D13*
X159390000Y-69154500D02*
X159390000Y-67757500D01*
X159771000Y-66741500D02*
X160152000Y-66360500D01*
X159390000Y-67757500D02*
X159390000Y-67122500D01*
X159390000Y-67122500D02*
X159771000Y-66741500D01*
D14*
X160152000Y-66360500D02*
X160412500Y-66100000D01*
D13*
%TO.N,Board_18-Net-(J3-Pin_3)*%
X161930000Y-67630500D02*
X161930000Y-67122500D01*
D14*
X161062500Y-66255000D02*
X161062500Y-65212000D01*
D13*
X161930000Y-69154500D02*
X161930000Y-67630500D01*
X161930000Y-67122500D02*
X161358500Y-66551000D01*
D14*
X161168000Y-66360500D02*
X161358500Y-66551000D01*
X161168000Y-66360500D02*
X161062500Y-66255000D01*
D13*
%TO.N,Board_18-Net-(J3-Pin_4)*%
X164470000Y-66106500D02*
X163581000Y-65217500D01*
X163581000Y-65217500D02*
X161763500Y-65217500D01*
X164470000Y-66106500D02*
X164470000Y-69154500D01*
X161763500Y-65217500D02*
X161763500Y-65212000D01*
%TO.N,Board_18-Net-(J4-Pin_1)*%
X158125500Y-62937000D02*
X156850000Y-61661500D01*
X156850000Y-61661500D02*
X156850000Y-58994500D01*
X158125500Y-62937000D02*
X159711500Y-62937000D01*
%TO.N,Board_18-Net-(J4-Pin_2)*%
X159390000Y-60518500D02*
X159390000Y-60772500D01*
D14*
X160412500Y-61795000D02*
X160412500Y-62937000D01*
X160152000Y-61534500D02*
X160412500Y-61795000D01*
D13*
X159390000Y-60518500D02*
X159390000Y-58994500D01*
X159390000Y-60772500D02*
X160152000Y-61534500D01*
%TO.N,Board_18-Net-(J4-Pin_3)*%
X161930000Y-58994500D02*
X161930000Y-60772500D01*
D14*
X161062500Y-61640000D02*
X161062500Y-62937000D01*
X161295000Y-61407500D02*
X161062500Y-61640000D01*
D13*
X161930000Y-60772500D02*
X161295000Y-61407500D01*
%TO.N,Board_18-Net-(J4-Pin_4)*%
X164470000Y-62042500D02*
X164470000Y-58994500D01*
X163575500Y-62937000D02*
X161763500Y-62937000D01*
X163575500Y-62937000D02*
X164470000Y-62042500D01*
%TO.N,Board_19-Net-(J3-Pin_1)*%
X170285500Y-65212000D02*
X171871500Y-65212000D01*
X169010000Y-66487500D02*
X170285500Y-65212000D01*
X169010000Y-69154500D02*
X169010000Y-66487500D01*
%TO.N,Board_19-Net-(J3-Pin_2)*%
X171931000Y-66741500D02*
X172312000Y-66360500D01*
X171550000Y-67757500D02*
X171550000Y-67122500D01*
D14*
X172312000Y-66360500D02*
X172572500Y-66100000D01*
D13*
X171550000Y-69154500D02*
X171550000Y-67757500D01*
D14*
X172572500Y-66100000D02*
X172572500Y-65212000D01*
D13*
X171550000Y-67122500D02*
X171931000Y-66741500D01*
%TO.N,Board_19-Net-(J3-Pin_3)*%
X174090000Y-69154500D02*
X174090000Y-67630500D01*
D14*
X173328000Y-66360500D02*
X173222500Y-66255000D01*
D13*
X174090000Y-67122500D02*
X173518500Y-66551000D01*
D14*
X173222500Y-66255000D02*
X173222500Y-65212000D01*
X173328000Y-66360500D02*
X173518500Y-66551000D01*
D13*
X174090000Y-67630500D02*
X174090000Y-67122500D01*
%TO.N,Board_19-Net-(J3-Pin_4)*%
X173923500Y-65217500D02*
X173923500Y-65212000D01*
X175741000Y-65217500D02*
X173923500Y-65217500D01*
X176630000Y-66106500D02*
X175741000Y-65217500D01*
X176630000Y-66106500D02*
X176630000Y-69154500D01*
%TO.N,Board_19-Net-(J4-Pin_1)*%
X170285500Y-62937000D02*
X169010000Y-61661500D01*
X170285500Y-62937000D02*
X171871500Y-62937000D01*
X169010000Y-61661500D02*
X169010000Y-58994500D01*
%TO.N,Board_19-Net-(J4-Pin_2)*%
X171550000Y-60518500D02*
X171550000Y-60772500D01*
X171550000Y-60772500D02*
X172312000Y-61534500D01*
D14*
X172312000Y-61534500D02*
X172572500Y-61795000D01*
D13*
X171550000Y-60518500D02*
X171550000Y-58994500D01*
D14*
X172572500Y-61795000D02*
X172572500Y-62937000D01*
D13*
%TO.N,Board_19-Net-(J4-Pin_3)*%
X174090000Y-58994500D02*
X174090000Y-60772500D01*
X174090000Y-60772500D02*
X173455000Y-61407500D01*
D14*
X173222500Y-61640000D02*
X173222500Y-62937000D01*
X173455000Y-61407500D02*
X173222500Y-61640000D01*
D13*
%TO.N,Board_19-Net-(J4-Pin_4)*%
X176630000Y-62042500D02*
X176630000Y-58994500D01*
X175735500Y-62937000D02*
X173923500Y-62937000D01*
X175735500Y-62937000D02*
X176630000Y-62042500D01*
%TO.N,Board_20-Net-(J3-Pin_1)*%
X181170000Y-66487500D02*
X182445500Y-65212000D01*
X182445500Y-65212000D02*
X184031500Y-65212000D01*
X181170000Y-69154500D02*
X181170000Y-66487500D01*
%TO.N,Board_20-Net-(J3-Pin_2)*%
X184091000Y-66741500D02*
X184472000Y-66360500D01*
X183710000Y-67757500D02*
X183710000Y-67122500D01*
D14*
X184472000Y-66360500D02*
X184732500Y-66100000D01*
X184732500Y-66100000D02*
X184732500Y-65212000D01*
D13*
X183710000Y-67122500D02*
X184091000Y-66741500D01*
X183710000Y-69154500D02*
X183710000Y-67757500D01*
%TO.N,Board_20-Net-(J3-Pin_3)*%
X186250000Y-69154500D02*
X186250000Y-67630500D01*
X186250000Y-67122500D02*
X185678500Y-66551000D01*
D14*
X185488000Y-66360500D02*
X185382500Y-66255000D01*
D13*
X186250000Y-67630500D02*
X186250000Y-67122500D01*
D14*
X185488000Y-66360500D02*
X185678500Y-66551000D01*
X185382500Y-66255000D02*
X185382500Y-65212000D01*
D13*
%TO.N,Board_20-Net-(J3-Pin_4)*%
X186083500Y-65217500D02*
X186083500Y-65212000D01*
X188790000Y-66106500D02*
X188790000Y-69154500D01*
X188790000Y-66106500D02*
X187901000Y-65217500D01*
X187901000Y-65217500D02*
X186083500Y-65217500D01*
%TO.N,Board_20-Net-(J4-Pin_1)*%
X182445500Y-62937000D02*
X181170000Y-61661500D01*
X181170000Y-61661500D02*
X181170000Y-58994500D01*
X182445500Y-62937000D02*
X184031500Y-62937000D01*
%TO.N,Board_20-Net-(J4-Pin_2)*%
X183710000Y-60518500D02*
X183710000Y-60772500D01*
D14*
X184472000Y-61534500D02*
X184732500Y-61795000D01*
D13*
X183710000Y-60518500D02*
X183710000Y-58994500D01*
X183710000Y-60772500D02*
X184472000Y-61534500D01*
D14*
X184732500Y-61795000D02*
X184732500Y-62937000D01*
D13*
%TO.N,Board_20-Net-(J4-Pin_3)*%
X186250000Y-60772500D02*
X185615000Y-61407500D01*
D14*
X185382500Y-61640000D02*
X185382500Y-62937000D01*
D13*
X186250000Y-58994500D02*
X186250000Y-60772500D01*
D14*
X185615000Y-61407500D02*
X185382500Y-61640000D01*
D13*
%TO.N,Board_20-Net-(J4-Pin_4)*%
X188790000Y-62042500D02*
X188790000Y-58994500D01*
X187895500Y-62937000D02*
X186083500Y-62937000D01*
X187895500Y-62937000D02*
X188790000Y-62042500D01*
%TO.N,Board_21-Net-(J3-Pin_1)*%
X109485500Y-80064000D02*
X111071500Y-80064000D01*
X108210000Y-81339500D02*
X109485500Y-80064000D01*
X108210000Y-84006500D02*
X108210000Y-81339500D01*
D14*
%TO.N,Board_21-Net-(J3-Pin_2)*%
X111512000Y-81212500D02*
X111772500Y-80952000D01*
D13*
X110750000Y-84006500D02*
X110750000Y-82609500D01*
X110750000Y-81974500D02*
X111131000Y-81593500D01*
X110750000Y-82609500D02*
X110750000Y-81974500D01*
X111131000Y-81593500D02*
X111512000Y-81212500D01*
D14*
X111772500Y-80952000D02*
X111772500Y-80064000D01*
%TO.N,Board_21-Net-(J3-Pin_3)*%
X112422500Y-81107000D02*
X112422500Y-80064000D01*
D13*
X113290000Y-81974500D02*
X112718500Y-81403000D01*
D14*
X112528000Y-81212500D02*
X112718500Y-81403000D01*
D13*
X113290000Y-82482500D02*
X113290000Y-81974500D01*
D14*
X112528000Y-81212500D02*
X112422500Y-81107000D01*
D13*
X113290000Y-84006500D02*
X113290000Y-82482500D01*
%TO.N,Board_21-Net-(J3-Pin_4)*%
X113123500Y-80069500D02*
X113123500Y-80064000D01*
X114941000Y-80069500D02*
X113123500Y-80069500D01*
X115830000Y-80958500D02*
X114941000Y-80069500D01*
X115830000Y-80958500D02*
X115830000Y-84006500D01*
%TO.N,Board_21-Net-(J4-Pin_1)*%
X109485500Y-77789000D02*
X111071500Y-77789000D01*
X109485500Y-77789000D02*
X108210000Y-76513500D01*
X108210000Y-76513500D02*
X108210000Y-73846500D01*
D14*
%TO.N,Board_21-Net-(J4-Pin_2)*%
X111772500Y-76647000D02*
X111772500Y-77789000D01*
D13*
X110750000Y-75624500D02*
X111512000Y-76386500D01*
X110750000Y-75370500D02*
X110750000Y-73846500D01*
X110750000Y-75370500D02*
X110750000Y-75624500D01*
D14*
X111512000Y-76386500D02*
X111772500Y-76647000D01*
%TO.N,Board_21-Net-(J4-Pin_3)*%
X112422500Y-76492000D02*
X112422500Y-77789000D01*
D13*
X113290000Y-73846500D02*
X113290000Y-75624500D01*
X113290000Y-75624500D02*
X112655000Y-76259500D01*
D14*
X112655000Y-76259500D02*
X112422500Y-76492000D01*
D13*
%TO.N,Board_21-Net-(J4-Pin_4)*%
X115830000Y-76894500D02*
X115830000Y-73846500D01*
X114935500Y-77789000D02*
X115830000Y-76894500D01*
X114935500Y-77789000D02*
X113123500Y-77789000D01*
%TO.N,Board_22-Net-(J3-Pin_1)*%
X120370000Y-81339500D02*
X121645500Y-80064000D01*
X121645500Y-80064000D02*
X123231500Y-80064000D01*
X120370000Y-84006500D02*
X120370000Y-81339500D01*
%TO.N,Board_22-Net-(J3-Pin_2)*%
X122910000Y-81974500D02*
X123291000Y-81593500D01*
X122910000Y-84006500D02*
X122910000Y-82609500D01*
D14*
X123932500Y-80952000D02*
X123932500Y-80064000D01*
D13*
X123291000Y-81593500D02*
X123672000Y-81212500D01*
X122910000Y-82609500D02*
X122910000Y-81974500D01*
D14*
X123672000Y-81212500D02*
X123932500Y-80952000D01*
%TO.N,Board_22-Net-(J3-Pin_3)*%
X124688000Y-81212500D02*
X124582500Y-81107000D01*
D13*
X125450000Y-82482500D02*
X125450000Y-81974500D01*
D14*
X124582500Y-81107000D02*
X124582500Y-80064000D01*
D13*
X125450000Y-84006500D02*
X125450000Y-82482500D01*
D14*
X124688000Y-81212500D02*
X124878500Y-81403000D01*
D13*
X125450000Y-81974500D02*
X124878500Y-81403000D01*
%TO.N,Board_22-Net-(J3-Pin_4)*%
X125283500Y-80069500D02*
X125283500Y-80064000D01*
X127990000Y-80958500D02*
X127990000Y-84006500D01*
X127101000Y-80069500D02*
X125283500Y-80069500D01*
X127990000Y-80958500D02*
X127101000Y-80069500D01*
%TO.N,Board_22-Net-(J4-Pin_1)*%
X120370000Y-76513500D02*
X120370000Y-73846500D01*
X121645500Y-77789000D02*
X123231500Y-77789000D01*
X121645500Y-77789000D02*
X120370000Y-76513500D01*
D14*
%TO.N,Board_22-Net-(J4-Pin_2)*%
X123672000Y-76386500D02*
X123932500Y-76647000D01*
D13*
X122910000Y-75370500D02*
X122910000Y-73846500D01*
X122910000Y-75624500D02*
X123672000Y-76386500D01*
D14*
X123932500Y-76647000D02*
X123932500Y-77789000D01*
D13*
X122910000Y-75370500D02*
X122910000Y-75624500D01*
%TO.N,Board_22-Net-(J4-Pin_3)*%
X125450000Y-75624500D02*
X124815000Y-76259500D01*
D14*
X124815000Y-76259500D02*
X124582500Y-76492000D01*
X124582500Y-76492000D02*
X124582500Y-77789000D01*
D13*
X125450000Y-73846500D02*
X125450000Y-75624500D01*
%TO.N,Board_22-Net-(J4-Pin_4)*%
X127095500Y-77789000D02*
X127990000Y-76894500D01*
X127990000Y-76894500D02*
X127990000Y-73846500D01*
X127095500Y-77789000D02*
X125283500Y-77789000D01*
%TO.N,Board_23-Net-(J3-Pin_1)*%
X132530000Y-81339500D02*
X133805500Y-80064000D01*
X132530000Y-84006500D02*
X132530000Y-81339500D01*
X133805500Y-80064000D02*
X135391500Y-80064000D01*
D14*
%TO.N,Board_23-Net-(J3-Pin_2)*%
X136092500Y-80952000D02*
X136092500Y-80064000D01*
D13*
X135070000Y-81974500D02*
X135451000Y-81593500D01*
X135451000Y-81593500D02*
X135832000Y-81212500D01*
X135070000Y-84006500D02*
X135070000Y-82609500D01*
X135070000Y-82609500D02*
X135070000Y-81974500D01*
D14*
X135832000Y-81212500D02*
X136092500Y-80952000D01*
D13*
%TO.N,Board_23-Net-(J3-Pin_3)*%
X137610000Y-82482500D02*
X137610000Y-81974500D01*
X137610000Y-84006500D02*
X137610000Y-82482500D01*
D14*
X136742500Y-81107000D02*
X136742500Y-80064000D01*
X136848000Y-81212500D02*
X137038500Y-81403000D01*
D13*
X137610000Y-81974500D02*
X137038500Y-81403000D01*
D14*
X136848000Y-81212500D02*
X136742500Y-81107000D01*
D13*
%TO.N,Board_23-Net-(J3-Pin_4)*%
X140150000Y-80958500D02*
X140150000Y-84006500D01*
X139261000Y-80069500D02*
X137443500Y-80069500D01*
X140150000Y-80958500D02*
X139261000Y-80069500D01*
X137443500Y-80069500D02*
X137443500Y-80064000D01*
%TO.N,Board_23-Net-(J4-Pin_1)*%
X132530000Y-76513500D02*
X132530000Y-73846500D01*
X133805500Y-77789000D02*
X135391500Y-77789000D01*
X133805500Y-77789000D02*
X132530000Y-76513500D01*
%TO.N,Board_23-Net-(J4-Pin_2)*%
X135070000Y-75370500D02*
X135070000Y-75624500D01*
D14*
X136092500Y-76647000D02*
X136092500Y-77789000D01*
X135832000Y-76386500D02*
X136092500Y-76647000D01*
D13*
X135070000Y-75370500D02*
X135070000Y-73846500D01*
X135070000Y-75624500D02*
X135832000Y-76386500D01*
%TO.N,Board_23-Net-(J4-Pin_3)*%
X137610000Y-75624500D02*
X136975000Y-76259500D01*
D14*
X136742500Y-76492000D02*
X136742500Y-77789000D01*
X136975000Y-76259500D02*
X136742500Y-76492000D01*
D13*
X137610000Y-73846500D02*
X137610000Y-75624500D01*
%TO.N,Board_23-Net-(J4-Pin_4)*%
X139255500Y-77789000D02*
X137443500Y-77789000D01*
X139255500Y-77789000D02*
X140150000Y-76894500D01*
X140150000Y-76894500D02*
X140150000Y-73846500D01*
%TO.N,Board_24-Net-(J3-Pin_1)*%
X145965500Y-80064000D02*
X147551500Y-80064000D01*
X144690000Y-81339500D02*
X145965500Y-80064000D01*
X144690000Y-84006500D02*
X144690000Y-81339500D01*
%TO.N,Board_24-Net-(J3-Pin_2)*%
X147230000Y-84006500D02*
X147230000Y-82609500D01*
D14*
X148252500Y-80952000D02*
X148252500Y-80064000D01*
D13*
X147230000Y-82609500D02*
X147230000Y-81974500D01*
D14*
X147992000Y-81212500D02*
X148252500Y-80952000D01*
D13*
X147230000Y-81974500D02*
X147611000Y-81593500D01*
X147611000Y-81593500D02*
X147992000Y-81212500D01*
D14*
%TO.N,Board_24-Net-(J3-Pin_3)*%
X149008000Y-81212500D02*
X148902500Y-81107000D01*
X148902500Y-81107000D02*
X148902500Y-80064000D01*
D13*
X149770000Y-82482500D02*
X149770000Y-81974500D01*
X149770000Y-84006500D02*
X149770000Y-82482500D01*
X149770000Y-81974500D02*
X149198500Y-81403000D01*
D14*
X149008000Y-81212500D02*
X149198500Y-81403000D01*
D13*
%TO.N,Board_24-Net-(J3-Pin_4)*%
X152310000Y-80958500D02*
X152310000Y-84006500D01*
X149603500Y-80069500D02*
X149603500Y-80064000D01*
X151421000Y-80069500D02*
X149603500Y-80069500D01*
X152310000Y-80958500D02*
X151421000Y-80069500D01*
%TO.N,Board_24-Net-(J4-Pin_1)*%
X145965500Y-77789000D02*
X144690000Y-76513500D01*
X145965500Y-77789000D02*
X147551500Y-77789000D01*
X144690000Y-76513500D02*
X144690000Y-73846500D01*
%TO.N,Board_24-Net-(J4-Pin_2)*%
X147230000Y-75370500D02*
X147230000Y-73846500D01*
D14*
X148252500Y-76647000D02*
X148252500Y-77789000D01*
D13*
X147230000Y-75370500D02*
X147230000Y-75624500D01*
D14*
X147992000Y-76386500D02*
X148252500Y-76647000D01*
D13*
X147230000Y-75624500D02*
X147992000Y-76386500D01*
%TO.N,Board_24-Net-(J4-Pin_3)*%
X149770000Y-75624500D02*
X149135000Y-76259500D01*
D14*
X148902500Y-76492000D02*
X148902500Y-77789000D01*
D13*
X149770000Y-73846500D02*
X149770000Y-75624500D01*
D14*
X149135000Y-76259500D02*
X148902500Y-76492000D01*
D13*
%TO.N,Board_24-Net-(J4-Pin_4)*%
X151415500Y-77789000D02*
X152310000Y-76894500D01*
X151415500Y-77789000D02*
X149603500Y-77789000D01*
X152310000Y-76894500D02*
X152310000Y-73846500D01*
%TO.N,Board_25-Net-(J3-Pin_1)*%
X158125500Y-80064000D02*
X159711500Y-80064000D01*
X156850000Y-81339500D02*
X158125500Y-80064000D01*
X156850000Y-84006500D02*
X156850000Y-81339500D01*
%TO.N,Board_25-Net-(J3-Pin_2)*%
X159390000Y-82609500D02*
X159390000Y-81974500D01*
X159390000Y-84006500D02*
X159390000Y-82609500D01*
X159390000Y-81974500D02*
X159771000Y-81593500D01*
D14*
X160412500Y-80952000D02*
X160412500Y-80064000D01*
D13*
X159771000Y-81593500D02*
X160152000Y-81212500D01*
D14*
X160152000Y-81212500D02*
X160412500Y-80952000D01*
D13*
%TO.N,Board_25-Net-(J3-Pin_3)*%
X161930000Y-82482500D02*
X161930000Y-81974500D01*
X161930000Y-81974500D02*
X161358500Y-81403000D01*
D14*
X161062500Y-81107000D02*
X161062500Y-80064000D01*
D13*
X161930000Y-84006500D02*
X161930000Y-82482500D01*
D14*
X161168000Y-81212500D02*
X161062500Y-81107000D01*
X161168000Y-81212500D02*
X161358500Y-81403000D01*
D13*
%TO.N,Board_25-Net-(J3-Pin_4)*%
X163581000Y-80069500D02*
X161763500Y-80069500D01*
X164470000Y-80958500D02*
X164470000Y-84006500D01*
X161763500Y-80069500D02*
X161763500Y-80064000D01*
X164470000Y-80958500D02*
X163581000Y-80069500D01*
%TO.N,Board_25-Net-(J4-Pin_1)*%
X158125500Y-77789000D02*
X156850000Y-76513500D01*
X156850000Y-76513500D02*
X156850000Y-73846500D01*
X158125500Y-77789000D02*
X159711500Y-77789000D01*
%TO.N,Board_25-Net-(J4-Pin_2)*%
X159390000Y-75370500D02*
X159390000Y-75624500D01*
D14*
X160412500Y-76647000D02*
X160412500Y-77789000D01*
X160152000Y-76386500D02*
X160412500Y-76647000D01*
D13*
X159390000Y-75624500D02*
X160152000Y-76386500D01*
X159390000Y-75370500D02*
X159390000Y-73846500D01*
D14*
%TO.N,Board_25-Net-(J4-Pin_3)*%
X161295000Y-76259500D02*
X161062500Y-76492000D01*
X161062500Y-76492000D02*
X161062500Y-77789000D01*
D13*
X161930000Y-75624500D02*
X161295000Y-76259500D01*
X161930000Y-73846500D02*
X161930000Y-75624500D01*
%TO.N,Board_25-Net-(J4-Pin_4)*%
X163575500Y-77789000D02*
X164470000Y-76894500D01*
X164470000Y-76894500D02*
X164470000Y-73846500D01*
X163575500Y-77789000D02*
X161763500Y-77789000D01*
%TO.N,Board_26-Net-(J3-Pin_1)*%
X170285500Y-80064000D02*
X171871500Y-80064000D01*
X169010000Y-81339500D02*
X170285500Y-80064000D01*
X169010000Y-84006500D02*
X169010000Y-81339500D01*
%TO.N,Board_26-Net-(J3-Pin_2)*%
X171550000Y-84006500D02*
X171550000Y-82609500D01*
X171931000Y-81593500D02*
X172312000Y-81212500D01*
X171550000Y-82609500D02*
X171550000Y-81974500D01*
D14*
X172312000Y-81212500D02*
X172572500Y-80952000D01*
D13*
X171550000Y-81974500D02*
X171931000Y-81593500D01*
D14*
X172572500Y-80952000D02*
X172572500Y-80064000D01*
%TO.N,Board_26-Net-(J3-Pin_3)*%
X173328000Y-81212500D02*
X173518500Y-81403000D01*
D13*
X174090000Y-84006500D02*
X174090000Y-82482500D01*
D14*
X173328000Y-81212500D02*
X173222500Y-81107000D01*
D13*
X174090000Y-81974500D02*
X173518500Y-81403000D01*
D14*
X173222500Y-81107000D02*
X173222500Y-80064000D01*
D13*
X174090000Y-82482500D02*
X174090000Y-81974500D01*
%TO.N,Board_26-Net-(J3-Pin_4)*%
X176630000Y-80958500D02*
X175741000Y-80069500D01*
X175741000Y-80069500D02*
X173923500Y-80069500D01*
X173923500Y-80069500D02*
X173923500Y-80064000D01*
X176630000Y-80958500D02*
X176630000Y-84006500D01*
%TO.N,Board_26-Net-(J4-Pin_1)*%
X170285500Y-77789000D02*
X171871500Y-77789000D01*
X170285500Y-77789000D02*
X169010000Y-76513500D01*
X169010000Y-76513500D02*
X169010000Y-73846500D01*
%TO.N,Board_26-Net-(J4-Pin_2)*%
X171550000Y-75370500D02*
X171550000Y-75624500D01*
X171550000Y-75370500D02*
X171550000Y-73846500D01*
D14*
X172312000Y-76386500D02*
X172572500Y-76647000D01*
X172572500Y-76647000D02*
X172572500Y-77789000D01*
D13*
X171550000Y-75624500D02*
X172312000Y-76386500D01*
D14*
%TO.N,Board_26-Net-(J4-Pin_3)*%
X173455000Y-76259500D02*
X173222500Y-76492000D01*
D13*
X174090000Y-75624500D02*
X173455000Y-76259500D01*
D14*
X173222500Y-76492000D02*
X173222500Y-77789000D01*
D13*
X174090000Y-73846500D02*
X174090000Y-75624500D01*
%TO.N,Board_26-Net-(J4-Pin_4)*%
X176630000Y-76894500D02*
X176630000Y-73846500D01*
X175735500Y-77789000D02*
X173923500Y-77789000D01*
X175735500Y-77789000D02*
X176630000Y-76894500D01*
%TO.N,Board_27-Net-(J3-Pin_1)*%
X182445500Y-80064000D02*
X184031500Y-80064000D01*
X181170000Y-81339500D02*
X182445500Y-80064000D01*
X181170000Y-84006500D02*
X181170000Y-81339500D01*
D14*
%TO.N,Board_27-Net-(J3-Pin_2)*%
X184732500Y-80952000D02*
X184732500Y-80064000D01*
D13*
X183710000Y-84006500D02*
X183710000Y-82609500D01*
X183710000Y-81974500D02*
X184091000Y-81593500D01*
D14*
X184472000Y-81212500D02*
X184732500Y-80952000D01*
D13*
X184091000Y-81593500D02*
X184472000Y-81212500D01*
X183710000Y-82609500D02*
X183710000Y-81974500D01*
D14*
%TO.N,Board_27-Net-(J3-Pin_3)*%
X185488000Y-81212500D02*
X185382500Y-81107000D01*
D13*
X186250000Y-81974500D02*
X185678500Y-81403000D01*
X186250000Y-84006500D02*
X186250000Y-82482500D01*
D14*
X185488000Y-81212500D02*
X185678500Y-81403000D01*
X185382500Y-81107000D02*
X185382500Y-80064000D01*
D13*
X186250000Y-82482500D02*
X186250000Y-81974500D01*
%TO.N,Board_27-Net-(J3-Pin_4)*%
X187901000Y-80069500D02*
X186083500Y-80069500D01*
X186083500Y-80069500D02*
X186083500Y-80064000D01*
X188790000Y-80958500D02*
X188790000Y-84006500D01*
X188790000Y-80958500D02*
X187901000Y-80069500D01*
%TO.N,Board_27-Net-(J4-Pin_1)*%
X182445500Y-77789000D02*
X181170000Y-76513500D01*
X182445500Y-77789000D02*
X184031500Y-77789000D01*
X181170000Y-76513500D02*
X181170000Y-73846500D01*
%TO.N,Board_27-Net-(J4-Pin_2)*%
X183710000Y-75370500D02*
X183710000Y-75624500D01*
X183710000Y-75370500D02*
X183710000Y-73846500D01*
D14*
X184472000Y-76386500D02*
X184732500Y-76647000D01*
D13*
X183710000Y-75624500D02*
X184472000Y-76386500D01*
D14*
X184732500Y-76647000D02*
X184732500Y-77789000D01*
D13*
%TO.N,Board_27-Net-(J4-Pin_3)*%
X186250000Y-73846500D02*
X186250000Y-75624500D01*
D14*
X185382500Y-76492000D02*
X185382500Y-77789000D01*
D13*
X186250000Y-75624500D02*
X185615000Y-76259500D01*
D14*
X185615000Y-76259500D02*
X185382500Y-76492000D01*
D13*
%TO.N,Board_27-Net-(J4-Pin_4)*%
X187895500Y-77789000D02*
X186083500Y-77789000D01*
X188790000Y-76894500D02*
X188790000Y-73846500D01*
X187895500Y-77789000D02*
X188790000Y-76894500D01*
%TO.N,Board_28-Net-(J3-Pin_1)*%
X108210000Y-98858500D02*
X108210000Y-96191500D01*
X108210000Y-96191500D02*
X109485500Y-94916000D01*
X109485500Y-94916000D02*
X111071500Y-94916000D01*
%TO.N,Board_28-Net-(J3-Pin_2)*%
X110750000Y-97461500D02*
X110750000Y-96826500D01*
D14*
X111772500Y-95804000D02*
X111772500Y-94916000D01*
X111512000Y-96064500D02*
X111772500Y-95804000D01*
D13*
X111131000Y-96445500D02*
X111512000Y-96064500D01*
X110750000Y-98858500D02*
X110750000Y-97461500D01*
X110750000Y-96826500D02*
X111131000Y-96445500D01*
D14*
%TO.N,Board_28-Net-(J3-Pin_3)*%
X112528000Y-96064500D02*
X112422500Y-95959000D01*
D13*
X113290000Y-98858500D02*
X113290000Y-97334500D01*
D14*
X112528000Y-96064500D02*
X112718500Y-96255000D01*
D13*
X113290000Y-96826500D02*
X112718500Y-96255000D01*
X113290000Y-97334500D02*
X113290000Y-96826500D01*
D14*
X112422500Y-95959000D02*
X112422500Y-94916000D01*
D13*
%TO.N,Board_28-Net-(J3-Pin_4)*%
X115830000Y-95810500D02*
X115830000Y-98858500D01*
X113123500Y-94921500D02*
X113123500Y-94916000D01*
X114941000Y-94921500D02*
X113123500Y-94921500D01*
X115830000Y-95810500D02*
X114941000Y-94921500D01*
%TO.N,Board_28-Net-(J4-Pin_1)*%
X108210000Y-91365500D02*
X108210000Y-88698500D01*
X109485500Y-92641000D02*
X111071500Y-92641000D01*
X109485500Y-92641000D02*
X108210000Y-91365500D01*
%TO.N,Board_28-Net-(J4-Pin_2)*%
X110750000Y-90222500D02*
X110750000Y-88698500D01*
X110750000Y-90476500D02*
X111512000Y-91238500D01*
D14*
X111512000Y-91238500D02*
X111772500Y-91499000D01*
X111772500Y-91499000D02*
X111772500Y-92641000D01*
D13*
X110750000Y-90222500D02*
X110750000Y-90476500D01*
%TO.N,Board_28-Net-(J4-Pin_3)*%
X113290000Y-88698500D02*
X113290000Y-90476500D01*
D14*
X112422500Y-91344000D02*
X112422500Y-92641000D01*
D13*
X113290000Y-90476500D02*
X112655000Y-91111500D01*
D14*
X112655000Y-91111500D02*
X112422500Y-91344000D01*
D13*
%TO.N,Board_28-Net-(J4-Pin_4)*%
X114935500Y-92641000D02*
X115830000Y-91746500D01*
X114935500Y-92641000D02*
X113123500Y-92641000D01*
X115830000Y-91746500D02*
X115830000Y-88698500D01*
%TO.N,Board_29-Net-(J3-Pin_1)*%
X120370000Y-96191500D02*
X121645500Y-94916000D01*
X120370000Y-98858500D02*
X120370000Y-96191500D01*
X121645500Y-94916000D02*
X123231500Y-94916000D01*
%TO.N,Board_29-Net-(J3-Pin_2)*%
X123291000Y-96445500D02*
X123672000Y-96064500D01*
X122910000Y-96826500D02*
X123291000Y-96445500D01*
X122910000Y-97461500D02*
X122910000Y-96826500D01*
D14*
X123672000Y-96064500D02*
X123932500Y-95804000D01*
D13*
X122910000Y-98858500D02*
X122910000Y-97461500D01*
D14*
X123932500Y-95804000D02*
X123932500Y-94916000D01*
%TO.N,Board_29-Net-(J3-Pin_3)*%
X124688000Y-96064500D02*
X124878500Y-96255000D01*
X124688000Y-96064500D02*
X124582500Y-95959000D01*
D13*
X125450000Y-96826500D02*
X124878500Y-96255000D01*
D14*
X124582500Y-95959000D02*
X124582500Y-94916000D01*
D13*
X125450000Y-97334500D02*
X125450000Y-96826500D01*
X125450000Y-98858500D02*
X125450000Y-97334500D01*
%TO.N,Board_29-Net-(J3-Pin_4)*%
X127101000Y-94921500D02*
X125283500Y-94921500D01*
X127990000Y-95810500D02*
X127990000Y-98858500D01*
X125283500Y-94921500D02*
X125283500Y-94916000D01*
X127990000Y-95810500D02*
X127101000Y-94921500D01*
%TO.N,Board_29-Net-(J4-Pin_1)*%
X121645500Y-92641000D02*
X120370000Y-91365500D01*
X121645500Y-92641000D02*
X123231500Y-92641000D01*
X120370000Y-91365500D02*
X120370000Y-88698500D01*
D14*
%TO.N,Board_29-Net-(J4-Pin_2)*%
X123672000Y-91238500D02*
X123932500Y-91499000D01*
D13*
X122910000Y-90222500D02*
X122910000Y-88698500D01*
X122910000Y-90222500D02*
X122910000Y-90476500D01*
X122910000Y-90476500D02*
X123672000Y-91238500D01*
D14*
X123932500Y-91499000D02*
X123932500Y-92641000D01*
D13*
%TO.N,Board_29-Net-(J4-Pin_3)*%
X125450000Y-90476500D02*
X124815000Y-91111500D01*
D14*
X124815000Y-91111500D02*
X124582500Y-91344000D01*
D13*
X125450000Y-88698500D02*
X125450000Y-90476500D01*
D14*
X124582500Y-91344000D02*
X124582500Y-92641000D01*
D13*
%TO.N,Board_29-Net-(J4-Pin_4)*%
X127095500Y-92641000D02*
X127990000Y-91746500D01*
X127095500Y-92641000D02*
X125283500Y-92641000D01*
X127990000Y-91746500D02*
X127990000Y-88698500D01*
%TO.N,Board_30-Net-(J3-Pin_1)*%
X132530000Y-98858500D02*
X132530000Y-96191500D01*
X133805500Y-94916000D02*
X135391500Y-94916000D01*
X132530000Y-96191500D02*
X133805500Y-94916000D01*
D14*
%TO.N,Board_30-Net-(J3-Pin_2)*%
X136092500Y-95804000D02*
X136092500Y-94916000D01*
X135832000Y-96064500D02*
X136092500Y-95804000D01*
D13*
X135070000Y-96826500D02*
X135451000Y-96445500D01*
X135070000Y-97461500D02*
X135070000Y-96826500D01*
X135070000Y-98858500D02*
X135070000Y-97461500D01*
X135451000Y-96445500D02*
X135832000Y-96064500D01*
%TO.N,Board_30-Net-(J3-Pin_3)*%
X137610000Y-96826500D02*
X137038500Y-96255000D01*
D14*
X136848000Y-96064500D02*
X137038500Y-96255000D01*
X136848000Y-96064500D02*
X136742500Y-95959000D01*
X136742500Y-95959000D02*
X136742500Y-94916000D01*
D13*
X137610000Y-98858500D02*
X137610000Y-97334500D01*
X137610000Y-97334500D02*
X137610000Y-96826500D01*
%TO.N,Board_30-Net-(J3-Pin_4)*%
X140150000Y-95810500D02*
X139261000Y-94921500D01*
X140150000Y-95810500D02*
X140150000Y-98858500D01*
X137443500Y-94921500D02*
X137443500Y-94916000D01*
X139261000Y-94921500D02*
X137443500Y-94921500D01*
%TO.N,Board_30-Net-(J4-Pin_1)*%
X133805500Y-92641000D02*
X132530000Y-91365500D01*
X132530000Y-91365500D02*
X132530000Y-88698500D01*
X133805500Y-92641000D02*
X135391500Y-92641000D01*
%TO.N,Board_30-Net-(J4-Pin_2)*%
X135070000Y-90222500D02*
X135070000Y-88698500D01*
D14*
X135832000Y-91238500D02*
X136092500Y-91499000D01*
X136092500Y-91499000D02*
X136092500Y-92641000D01*
D13*
X135070000Y-90476500D02*
X135832000Y-91238500D01*
X135070000Y-90222500D02*
X135070000Y-90476500D01*
D14*
%TO.N,Board_30-Net-(J4-Pin_3)*%
X136975000Y-91111500D02*
X136742500Y-91344000D01*
X136742500Y-91344000D02*
X136742500Y-92641000D01*
D13*
X137610000Y-90476500D02*
X136975000Y-91111500D01*
X137610000Y-88698500D02*
X137610000Y-90476500D01*
%TO.N,Board_30-Net-(J4-Pin_4)*%
X139255500Y-92641000D02*
X137443500Y-92641000D01*
X139255500Y-92641000D02*
X140150000Y-91746500D01*
X140150000Y-91746500D02*
X140150000Y-88698500D01*
%TO.N,Board_31-Net-(J3-Pin_1)*%
X144690000Y-96191500D02*
X145965500Y-94916000D01*
X144690000Y-98858500D02*
X144690000Y-96191500D01*
X145965500Y-94916000D02*
X147551500Y-94916000D01*
D14*
%TO.N,Board_31-Net-(J3-Pin_2)*%
X148252500Y-95804000D02*
X148252500Y-94916000D01*
D13*
X147230000Y-96826500D02*
X147611000Y-96445500D01*
X147230000Y-97461500D02*
X147230000Y-96826500D01*
X147230000Y-98858500D02*
X147230000Y-97461500D01*
D14*
X147992000Y-96064500D02*
X148252500Y-95804000D01*
D13*
X147611000Y-96445500D02*
X147992000Y-96064500D01*
%TO.N,Board_31-Net-(J3-Pin_3)*%
X149770000Y-96826500D02*
X149198500Y-96255000D01*
X149770000Y-97334500D02*
X149770000Y-96826500D01*
X149770000Y-98858500D02*
X149770000Y-97334500D01*
D14*
X149008000Y-96064500D02*
X149198500Y-96255000D01*
X149008000Y-96064500D02*
X148902500Y-95959000D01*
X148902500Y-95959000D02*
X148902500Y-94916000D01*
D13*
%TO.N,Board_31-Net-(J3-Pin_4)*%
X151421000Y-94921500D02*
X149603500Y-94921500D01*
X152310000Y-95810500D02*
X151421000Y-94921500D01*
X149603500Y-94921500D02*
X149603500Y-94916000D01*
X152310000Y-95810500D02*
X152310000Y-98858500D01*
%TO.N,Board_31-Net-(J4-Pin_1)*%
X145965500Y-92641000D02*
X144690000Y-91365500D01*
X145965500Y-92641000D02*
X147551500Y-92641000D01*
X144690000Y-91365500D02*
X144690000Y-88698500D01*
D14*
%TO.N,Board_31-Net-(J4-Pin_2)*%
X147992000Y-91238500D02*
X148252500Y-91499000D01*
D13*
X147230000Y-90222500D02*
X147230000Y-88698500D01*
X147230000Y-90476500D02*
X147992000Y-91238500D01*
D14*
X148252500Y-91499000D02*
X148252500Y-92641000D01*
D13*
X147230000Y-90222500D02*
X147230000Y-90476500D01*
D14*
%TO.N,Board_31-Net-(J4-Pin_3)*%
X148902500Y-91344000D02*
X148902500Y-92641000D01*
X149135000Y-91111500D02*
X148902500Y-91344000D01*
D13*
X149770000Y-90476500D02*
X149135000Y-91111500D01*
X149770000Y-88698500D02*
X149770000Y-90476500D01*
%TO.N,Board_31-Net-(J4-Pin_4)*%
X152310000Y-91746500D02*
X152310000Y-88698500D01*
X151415500Y-92641000D02*
X152310000Y-91746500D01*
X151415500Y-92641000D02*
X149603500Y-92641000D01*
%TO.N,Board_32-Net-(J3-Pin_1)*%
X156850000Y-96191500D02*
X158125500Y-94916000D01*
X156850000Y-98858500D02*
X156850000Y-96191500D01*
X158125500Y-94916000D02*
X159711500Y-94916000D01*
%TO.N,Board_32-Net-(J3-Pin_2)*%
X159390000Y-96826500D02*
X159771000Y-96445500D01*
X159390000Y-97461500D02*
X159390000Y-96826500D01*
X159390000Y-98858500D02*
X159390000Y-97461500D01*
D14*
X160412500Y-95804000D02*
X160412500Y-94916000D01*
X160152000Y-96064500D02*
X160412500Y-95804000D01*
D13*
X159771000Y-96445500D02*
X160152000Y-96064500D01*
D14*
%TO.N,Board_32-Net-(J3-Pin_3)*%
X161168000Y-96064500D02*
X161358500Y-96255000D01*
D13*
X161930000Y-96826500D02*
X161358500Y-96255000D01*
D14*
X161062500Y-95959000D02*
X161062500Y-94916000D01*
D13*
X161930000Y-97334500D02*
X161930000Y-96826500D01*
D14*
X161168000Y-96064500D02*
X161062500Y-95959000D01*
D13*
X161930000Y-98858500D02*
X161930000Y-97334500D01*
%TO.N,Board_32-Net-(J3-Pin_4)*%
X164470000Y-95810500D02*
X163581000Y-94921500D01*
X164470000Y-95810500D02*
X164470000Y-98858500D01*
X163581000Y-94921500D02*
X161763500Y-94921500D01*
X161763500Y-94921500D02*
X161763500Y-94916000D01*
%TO.N,Board_32-Net-(J4-Pin_1)*%
X158125500Y-92641000D02*
X159711500Y-92641000D01*
X158125500Y-92641000D02*
X156850000Y-91365500D01*
X156850000Y-91365500D02*
X156850000Y-88698500D01*
%TO.N,Board_32-Net-(J4-Pin_2)*%
X159390000Y-90222500D02*
X159390000Y-88698500D01*
X159390000Y-90222500D02*
X159390000Y-90476500D01*
X159390000Y-90476500D02*
X160152000Y-91238500D01*
D14*
X160412500Y-91499000D02*
X160412500Y-92641000D01*
X160152000Y-91238500D02*
X160412500Y-91499000D01*
D13*
%TO.N,Board_32-Net-(J4-Pin_3)*%
X161930000Y-90476500D02*
X161295000Y-91111500D01*
X161930000Y-88698500D02*
X161930000Y-90476500D01*
D14*
X161062500Y-91344000D02*
X161062500Y-92641000D01*
X161295000Y-91111500D02*
X161062500Y-91344000D01*
D13*
%TO.N,Board_32-Net-(J4-Pin_4)*%
X164470000Y-91746500D02*
X164470000Y-88698500D01*
X163575500Y-92641000D02*
X161763500Y-92641000D01*
X163575500Y-92641000D02*
X164470000Y-91746500D01*
%TO.N,Board_33-Net-(J3-Pin_1)*%
X169010000Y-96191500D02*
X170285500Y-94916000D01*
X169010000Y-98858500D02*
X169010000Y-96191500D01*
X170285500Y-94916000D02*
X171871500Y-94916000D01*
%TO.N,Board_33-Net-(J3-Pin_2)*%
X171550000Y-98858500D02*
X171550000Y-97461500D01*
D14*
X172572500Y-95804000D02*
X172572500Y-94916000D01*
D13*
X171550000Y-97461500D02*
X171550000Y-96826500D01*
X171931000Y-96445500D02*
X172312000Y-96064500D01*
D14*
X172312000Y-96064500D02*
X172572500Y-95804000D01*
D13*
X171550000Y-96826500D02*
X171931000Y-96445500D01*
D14*
%TO.N,Board_33-Net-(J3-Pin_3)*%
X173222500Y-95959000D02*
X173222500Y-94916000D01*
X173328000Y-96064500D02*
X173222500Y-95959000D01*
D13*
X174090000Y-96826500D02*
X173518500Y-96255000D01*
X174090000Y-98858500D02*
X174090000Y-97334500D01*
D14*
X173328000Y-96064500D02*
X173518500Y-96255000D01*
D13*
X174090000Y-97334500D02*
X174090000Y-96826500D01*
%TO.N,Board_33-Net-(J3-Pin_4)*%
X176630000Y-95810500D02*
X175741000Y-94921500D01*
X175741000Y-94921500D02*
X173923500Y-94921500D01*
X176630000Y-95810500D02*
X176630000Y-98858500D01*
X173923500Y-94921500D02*
X173923500Y-94916000D01*
%TO.N,Board_33-Net-(J4-Pin_1)*%
X169010000Y-91365500D02*
X169010000Y-88698500D01*
X170285500Y-92641000D02*
X169010000Y-91365500D01*
X170285500Y-92641000D02*
X171871500Y-92641000D01*
%TO.N,Board_33-Net-(J4-Pin_2)*%
X171550000Y-90222500D02*
X171550000Y-88698500D01*
X171550000Y-90222500D02*
X171550000Y-90476500D01*
D14*
X172312000Y-91238500D02*
X172572500Y-91499000D01*
X172572500Y-91499000D02*
X172572500Y-92641000D01*
D13*
X171550000Y-90476500D02*
X172312000Y-91238500D01*
D14*
%TO.N,Board_33-Net-(J4-Pin_3)*%
X173222500Y-91344000D02*
X173222500Y-92641000D01*
X173455000Y-91111500D02*
X173222500Y-91344000D01*
D13*
X174090000Y-88698500D02*
X174090000Y-90476500D01*
X174090000Y-90476500D02*
X173455000Y-91111500D01*
%TO.N,Board_33-Net-(J4-Pin_4)*%
X176630000Y-91746500D02*
X176630000Y-88698500D01*
X175735500Y-92641000D02*
X176630000Y-91746500D01*
X175735500Y-92641000D02*
X173923500Y-92641000D01*
%TO.N,Board_34-Net-(J3-Pin_1)*%
X181170000Y-96191500D02*
X182445500Y-94916000D01*
X181170000Y-98858500D02*
X181170000Y-96191500D01*
X182445500Y-94916000D02*
X184031500Y-94916000D01*
%TO.N,Board_34-Net-(J3-Pin_2)*%
X183710000Y-96826500D02*
X184091000Y-96445500D01*
D14*
X184472000Y-96064500D02*
X184732500Y-95804000D01*
D13*
X183710000Y-98858500D02*
X183710000Y-97461500D01*
X184091000Y-96445500D02*
X184472000Y-96064500D01*
X183710000Y-97461500D02*
X183710000Y-96826500D01*
D14*
X184732500Y-95804000D02*
X184732500Y-94916000D01*
%TO.N,Board_34-Net-(J3-Pin_3)*%
X185488000Y-96064500D02*
X185678500Y-96255000D01*
X185488000Y-96064500D02*
X185382500Y-95959000D01*
D13*
X186250000Y-96826500D02*
X185678500Y-96255000D01*
X186250000Y-97334500D02*
X186250000Y-96826500D01*
D14*
X185382500Y-95959000D02*
X185382500Y-94916000D01*
D13*
X186250000Y-98858500D02*
X186250000Y-97334500D01*
%TO.N,Board_34-Net-(J3-Pin_4)*%
X187901000Y-94921500D02*
X186083500Y-94921500D01*
X186083500Y-94921500D02*
X186083500Y-94916000D01*
X188790000Y-95810500D02*
X187901000Y-94921500D01*
X188790000Y-95810500D02*
X188790000Y-98858500D01*
%TO.N,Board_34-Net-(J4-Pin_1)*%
X182445500Y-92641000D02*
X184031500Y-92641000D01*
X181170000Y-91365500D02*
X181170000Y-88698500D01*
X182445500Y-92641000D02*
X181170000Y-91365500D01*
%TO.N,Board_34-Net-(J4-Pin_2)*%
X183710000Y-90476500D02*
X184472000Y-91238500D01*
X183710000Y-90222500D02*
X183710000Y-88698500D01*
D14*
X184732500Y-91499000D02*
X184732500Y-92641000D01*
D13*
X183710000Y-90222500D02*
X183710000Y-90476500D01*
D14*
X184472000Y-91238500D02*
X184732500Y-91499000D01*
%TO.N,Board_34-Net-(J4-Pin_3)*%
X185382500Y-91344000D02*
X185382500Y-92641000D01*
X185615000Y-91111500D02*
X185382500Y-91344000D01*
D13*
X186250000Y-90476500D02*
X185615000Y-91111500D01*
X186250000Y-88698500D02*
X186250000Y-90476500D01*
%TO.N,Board_34-Net-(J4-Pin_4)*%
X187895500Y-92641000D02*
X186083500Y-92641000D01*
X187895500Y-92641000D02*
X188790000Y-91746500D01*
X188790000Y-91746500D02*
X188790000Y-88698500D01*
%TD*%
M02*
