M48
; DRILL file {KiCad 9.0.6} date 2025-12-29T22:30:14-0800
; FORMAT={-:-/ absolute / metric / decimal}
; #@! TF.CreationDate,2025-12-29T22:30:14-08:00
; #@! TF.GenerationSoftware,Kicad,Pcbnew,9.0.6
; #@! TF.FileFunction,Plated,1,2,PTH
FMAT,2
METRIC
; #@! TA.AperFunction,Plated,PTH,ComponentDrill
T1C1.000
%
G90
G05
T1
X108.21Y-29.29
X108.21Y-39.45
X108.21Y-44.142
X108.21Y-54.302
X108.21Y-58.994
X108.21Y-69.154
X108.21Y-73.846
X108.21Y-84.007
X108.21Y-88.698
X108.21Y-98.858
X110.75Y-29.29
X110.75Y-39.45
X110.75Y-44.142
X110.75Y-54.302
X110.75Y-58.994
X110.75Y-69.154
X110.75Y-73.846
X110.75Y-84.007
X110.75Y-88.698
X110.75Y-98.858
X113.29Y-29.29
X113.29Y-39.45
X113.29Y-44.142
X113.29Y-54.302
X113.29Y-58.994
X113.29Y-69.154
X113.29Y-73.846
X113.29Y-84.007
X113.29Y-88.698
X113.29Y-98.858
X115.83Y-29.29
X115.83Y-39.45
X115.83Y-44.142
X115.83Y-54.302
X115.83Y-58.994
X115.83Y-69.154
X115.83Y-73.846
X115.83Y-84.007
X115.83Y-88.698
X115.83Y-98.858
X120.37Y-29.29
X120.37Y-39.45
X120.37Y-44.142
X120.37Y-54.302
X120.37Y-58.994
X120.37Y-69.154
X120.37Y-73.846
X120.37Y-84.007
X120.37Y-88.698
X120.37Y-98.858
X122.91Y-29.29
X122.91Y-39.45
X122.91Y-44.142
X122.91Y-54.302
X122.91Y-58.994
X122.91Y-69.154
X122.91Y-73.846
X122.91Y-84.007
X122.91Y-88.698
X122.91Y-98.858
X125.45Y-29.29
X125.45Y-39.45
X125.45Y-44.142
X125.45Y-54.302
X125.45Y-58.994
X125.45Y-69.154
X125.45Y-73.846
X125.45Y-84.007
X125.45Y-88.698
X125.45Y-98.858
X127.99Y-29.29
X127.99Y-39.45
X127.99Y-44.142
X127.99Y-54.302
X127.99Y-58.994
X127.99Y-69.154
X127.99Y-73.846
X127.99Y-84.007
X127.99Y-88.698
X127.99Y-98.858
X132.53Y-29.29
X132.53Y-39.45
X132.53Y-44.142
X132.53Y-54.302
X132.53Y-58.994
X132.53Y-69.154
X132.53Y-73.846
X132.53Y-84.007
X132.53Y-88.698
X132.53Y-98.858
X135.07Y-29.29
X135.07Y-39.45
X135.07Y-44.142
X135.07Y-54.302
X135.07Y-58.994
X135.07Y-69.154
X135.07Y-73.846
X135.07Y-84.007
X135.07Y-88.698
X135.07Y-98.858
X137.61Y-29.29
X137.61Y-39.45
X137.61Y-44.142
X137.61Y-54.302
X137.61Y-58.994
X137.61Y-69.154
X137.61Y-73.846
X137.61Y-84.007
X137.61Y-88.698
X137.61Y-98.858
X140.15Y-29.29
X140.15Y-39.45
X140.15Y-44.142
X140.15Y-54.302
X140.15Y-58.994
X140.15Y-69.154
X140.15Y-73.846
X140.15Y-84.007
X140.15Y-88.698
X140.15Y-98.858
X144.69Y-29.29
X144.69Y-39.45
X144.69Y-44.142
X144.69Y-54.302
X144.69Y-58.994
X144.69Y-69.154
X144.69Y-73.846
X144.69Y-84.007
X144.69Y-88.698
X144.69Y-98.858
X147.23Y-29.29
X147.23Y-39.45
X147.23Y-44.142
X147.23Y-54.302
X147.23Y-58.994
X147.23Y-69.154
X147.23Y-73.846
X147.23Y-84.007
X147.23Y-88.698
X147.23Y-98.858
X149.77Y-29.29
X149.77Y-39.45
X149.77Y-44.142
X149.77Y-54.302
X149.77Y-58.994
X149.77Y-69.154
X149.77Y-73.846
X149.77Y-84.007
X149.77Y-88.698
X149.77Y-98.858
X152.31Y-29.29
X152.31Y-39.45
X152.31Y-44.142
X152.31Y-54.302
X152.31Y-58.994
X152.31Y-69.154
X152.31Y-73.846
X152.31Y-84.007
X152.31Y-88.698
X152.31Y-98.858
X156.85Y-29.29
X156.85Y-39.45
X156.85Y-44.142
X156.85Y-54.302
X156.85Y-58.994
X156.85Y-69.154
X156.85Y-73.846
X156.85Y-84.007
X156.85Y-88.698
X156.85Y-98.858
X159.39Y-29.29
X159.39Y-39.45
X159.39Y-44.142
X159.39Y-54.302
X159.39Y-58.994
X159.39Y-69.154
X159.39Y-73.846
X159.39Y-84.007
X159.39Y-88.698
X159.39Y-98.858
X161.93Y-29.29
X161.93Y-39.45
X161.93Y-44.142
X161.93Y-54.302
X161.93Y-58.994
X161.93Y-69.154
X161.93Y-73.846
X161.93Y-84.007
X161.93Y-88.698
X161.93Y-98.858
X164.47Y-29.29
X164.47Y-39.45
X164.47Y-44.142
X164.47Y-54.302
X164.47Y-58.994
X164.47Y-69.154
X164.47Y-73.846
X164.47Y-84.007
X164.47Y-88.698
X164.47Y-98.858
X169.01Y-29.29
X169.01Y-39.45
X169.01Y-44.142
X169.01Y-54.302
X169.01Y-58.994
X169.01Y-69.154
X169.01Y-73.846
X169.01Y-84.007
X169.01Y-88.698
X169.01Y-98.858
X171.55Y-29.29
X171.55Y-39.45
X171.55Y-44.142
X171.55Y-54.302
X171.55Y-58.994
X171.55Y-69.154
X171.55Y-73.846
X171.55Y-84.007
X171.55Y-88.698
X171.55Y-98.858
X174.09Y-29.29
X174.09Y-39.45
X174.09Y-44.142
X174.09Y-54.302
X174.09Y-58.994
X174.09Y-69.154
X174.09Y-73.846
X174.09Y-84.007
X174.09Y-88.698
X174.09Y-98.858
X176.63Y-29.29
X176.63Y-39.45
X176.63Y-44.142
X176.63Y-54.302
X176.63Y-58.994
X176.63Y-69.154
X176.63Y-73.846
X176.63Y-84.007
X176.63Y-88.698
X176.63Y-98.858
X181.17Y-29.29
X181.17Y-39.45
X181.17Y-44.142
X181.17Y-54.302
X181.17Y-58.994
X181.17Y-69.154
X181.17Y-73.846
X181.17Y-84.007
X181.17Y-88.698
X181.17Y-98.858
X183.71Y-29.29
X183.71Y-39.45
X183.71Y-44.142
X183.71Y-54.302
X183.71Y-58.994
X183.71Y-69.154
X183.71Y-73.846
X183.71Y-84.007
X183.71Y-88.698
X183.71Y-98.858
X186.25Y-29.29
X186.25Y-39.45
X186.25Y-44.142
X186.25Y-54.302
X186.25Y-58.994
X186.25Y-69.154
X186.25Y-73.846
X186.25Y-84.007
X186.25Y-88.698
X186.25Y-98.858
X188.79Y-29.29
X188.79Y-39.45
X188.79Y-44.142
X188.79Y-54.302
X188.79Y-58.994
X188.79Y-69.154
X188.79Y-73.846
X188.79Y-84.007
X188.79Y-88.698
X188.79Y-98.858
M30
